<?xml version="1.0" standalone="no"?>
 <!DOCTYPE svg PUBLIC "-//W3C//DTD SVG 1.1//EN" 
 "http://www.w3.org/Graphics/SVG/1.1/DTD/svg11.dtd"> 
<svg
  xmlns:svg="http://www.w3.org/2000/svg"
  xmlns="http://www.w3.org/2000/svg"
  xmlns:xlink="http://www.w3.org/1999/xlink"
  version="1.1"
  width="29.700220cm" height="21.000720cm" viewBox="0 0 116930 82680">
<title>SVG Picture created as PANEL-COMPLETE-NPTH-drl_map.svg date 2023/04/21 13:18:25 </title>
  <desc>Picture generated by PCBNEW </desc>
<g style="fill:#000000; fill-opacity:1.000000;stroke:#000000; stroke-opacity:1.000000;
stroke-linecap:round; stroke-linejoin:round;"
 transform="translate(0 0) scale(1 1)">
</g>
<g style="fill:#000000; fill-opacity:0.0; 
stroke:#000000; stroke-width:0.000000; stroke-opacity:1; 
stroke-linecap:round; stroke-linejoin:round;">
</g>
<g style="fill:#000000; fill-opacity:0.0; 
stroke:#000000; stroke-width:24.021747; stroke-opacity:1; 
stroke-linecap:round; stroke-linejoin:round;">
<path d="M52917.555908 12333.887916 A264.239217 264.239217 0.0 0 0 52389.077475 12333.887916" />
<path d="M63835.427900 38259.052068 A240.211464 240.211464 0.0 0 0 63595.222441 38018.834598" />
<path d="M63847 25431
L63540 25431
" />
<path d="M52917.555908 35400.416134 A264.239217 264.239217 0.0 0 0 52389.077475 35400.416134" />
<path d="M64544 12333
L64544 14015
" />
<path d="M48612 26488
L45729 26488
" />
<path d="M61553 38595
L61553 38259
" />
<path d="M51884 37394
L51884 37085
" />
<path d="M73602 38018
L73602 37238
" />
<path d="M63991 41862
L64472 41862
" />
<path d="M64498 24564
L64498 22161
" />
<path d="M59307 39075
L60148 39075
" />
<path d="M53241 47147
L53241 47627
" />
<path d="M56785 39075
L57625 39075
" />
<path d="M50779 1980
L66153 1980
" />
<path d="M63535 15024
L61853 15024
" />
<path d="M50779 15913
L50779 1980
" />
<path d="M61852 16396
L61724 16396
" />
<circle cx="63631.255062" cy="41982.374806" r="120.108735" /> 
<path d="M65531 28782
L65915 28782
" />
<path d="M63847 38595
L65048 37394
" />
<path d="M63535.168074 15024.323578 A264.239217 264.239217 0.0 0 0 63535.168074 14495.845145" />
<path d="M73602 26788
L73602 26488
" />
<path d="M65531 37238
L65915 37238
" />
<path d="M63847 38595
L63835 38595
" />
<path d="M65531 26788
L65915 26788
" />
<path d="M56941.198528 37562.361351 A264.245222 264.245222 0.0 1 0 56941.198527 38090.851796" />
<path d="M64015 35400
L64015 37081
" />
<path d="M64018 19279
L64498 19279
" />
<path d="M65048 26940
L65048 26632
" />
<path d="M53395 24948
L53268 24948
" />
<path d="M51398 37238
L51014 37238
" />
<path d="M64472 41862
L64472 44744
" />
<path d="M52917.555908 3878.232979 A264.239217 264.239217 0.0 0 0 52389.077475 3878.232979" />
<path d="M55262 24948
L55081 24948
" />
<path d="M53396 16396
L53268 16396
" />
<path d="M63526.318696 15913.147128 A242.115908 242.115908 0.0 0 0 63550.713987 16396.764044" />
<path d="M63535.168074 3397.798040 A264.239217 264.239217 0.0 0 0 63535.168074 2869.319606" />
<path d="M55235 47147
L55235 47627
" />
<path d="M63718 24948
L63718 24564
" />
<path d="M64544.081447 26944.761197 A264.239217 264.239217 0.0 0 0 64015.603013 26944.761197" />
<path d="M65531.380588 28632.563387 A241.460595 241.460595 0.0 1 0 65048.538133 28626.397589" />
<path d="M52389 35400
L52389 37081
" />
<path d="M65915 37238
L65915 38018
" />
<path d="M63538.849364 24948.494033 A241.450026 241.450026 0.0 1 0 63540.560235 25431.391053" />
<path d="M64544.081447 12333.887916 A264.239217 264.239217 0.0 0 0 64015.603013 12333.887916" />
<path d="M43327 35244
L42846 35244
" />
<path d="M65531 35401
L65531 35244
" />
<path d="M43327 28782
L43327 35244
" />
<path d="M45729 37538
L45729 38018
" />
<path d="M65048 37394
L65048 37080
" />
<path d="M73602 26488
L71200 26488
" />
<path d="M53393 15913
L50779 15913
" />
<path d="M51884.620788 28631.365766 A242.997987 242.997987 0.0 0 0 51398.624814 28631.365766" />
<path d="M51398.636825 26939.678916 A242.997987 242.997987 0.0 1 0 51884.620849 26937.276740" />
<path d="M56785 39075
L56785 39460
" />
<path d="M48612 38018
L48612 37538
" />
<path d="M64015.603013 5559.755268 A264.239217 264.239217 0.0 0 0 64544.081447 5559.755268" />
<path d="M53241 47147
L52461 47147
" />
<path d="M73602 26788
L74083 26788
" />
<path d="M53397.990848 14495.845145 A264.239217 264.239217 0.0 1 0 53397.990848 15024.323578" />
<path d="M51398 35244
L51014 35244
" />
<path d="M48612 37538
L51014 37538
" />
<path d="M55262 24564
L61724 24564
" />
<path d="M64498 16877
L63718 16877
" />
<path d="M64544 28626
L64544 26944
" />
<path d="M61852 25431
L55083 25431
" />
<path d="M52461 39460
L56785 39460
" />
<path d="M52389.077475 28626.283485 A264.239217 264.239217 0.0 0 0 52917.555908 28626.283485" />
<path d="M51014 37538
L51014 37238
" />
<path d="M60148 39075
L60148 39460
" />
<circle cx="58335.823086" cy="42462.809746" r="120.108735" /> 
<path d="M74083 37238
L74083 35244
" />
<path d="M61852.847062 16396.782070 A241.826927 241.826927 0.0 0 0 61852.847062 15913.128217" />
<circle cx="58335.823086" cy="41982.374806" r="120.108735" /> 
<path d="M51398 35244
L51398 35401
" />
<path d="M53397 26464
L55079 26464
" />
<path d="M52487 19279
L52487 22161
" />
<path d="M43327 37238
L42846 37238
" />
<path d="M65048 35399
L65048 28626
" />
<path d="M61853 2869
L63535 2869
" />
<path d="M55081.440822 24948.493774 A241.451707 241.451707 0.0 1 0 55083.843057 25431.391212" />
<path d="M64544 37081
L64544 35400
" />
<path d="M52487 22161
L52968 22161
" />
<path d="M52941 41862
L52461 41862
" />
<path d="M65915 28782
L65915 35244
" />
<path d="M52917 12333
L52917 14015
" />
<path d="M65915 38018
L68317 38018
" />
<path d="M52941 41862
L52941 44744
" />
<path d="M63991 47147
L63691 47147
" />
<path d="M51014 26007
L48612 26007
" />
<path d="M63718 24564
L64498 24564
" />
<path d="M63535 3397
L61853 3397
" />
<path d="M73602 35244
L73602 28782
" />
<path d="M59991.960394 38090.839785 A264.233211 264.233211 0.0 0 0 59991.960394 37562.373362" />
<path d="M61724 16877
L55262 16877
" />
<path d="M51398 28631
L51398 28782
" />
<path d="M53085 25431
L51884 26632
" />
<path d="M52917 28626
L52917 26944
" />
<path d="M51884 35393
L51884 28631
" />
<path d="M57625.826965 39075.731411 A240.187443 240.187443 0.0 1 0 57625.826964 38595.356526" />
<path d="M55235 47627
L53241 47627
" />
<path d="M63718 16877
L63718 16396
" />
<path d="M64544 3878
L64544 5559
" />
<circle cx="57255.853386" cy="41982.374806" r="120.108735" /> 
<path d="M63595 38018
L61793 38018
" />
<path d="M52389 5559
L52389 3878
" />
<path d="M63535.168073 26464.314246 A264.233211 264.233211 0.0 0 0 63535.168074 25935.847824" />
<circle cx="53301.903860" cy="42462.809746" r="120.108735" /> 
<path d="M42846 26788
L42846 28782
" />
<path d="M51398 37080
L51398 37238
" />
<path d="M73602 37238
L74083 37238
" />
<path d="M64544.081447 35400.416134 A264.239217 264.239217 0.0 0 0 64015.603013 35400.416134" />
<path d="M61853.645785 2869.319606 A264.239217 264.239217 0.0 1 0 61853.645785 3397.798040" />
<path d="M64498 19279
L64498 16877
" />
<path d="M52968 19279
L52487 19279
" />
<path d="M61793.591418 38018.834598 A240.211464 240.211464 0.0 0 0 61553.373948 38259.052068" />
<path d="M64015 14015
L64015 12333
" />
<path d="M61697 47147
L55235 47147
" />
<path d="M66153 15913
L63526 15913
" />
<path d="M59307.349252 38595.344515 A240.199453 240.199453 0.0 0 0 59307.331957 39075.743420" />
<path d="M53268 24948
L53268 24564
" />
<path d="M51398 26788
L51014 26788
" />
<path d="M51398 26788
L51398 26939
" />
<path d="M68317 26488
L65915 26488
" />
<path d="M45729 26007
L43327 26007
" />
<path d="M52917.555908 26944.761197 A264.239217 264.239217 0.0 0 0 52389.077475 26944.761197" />
<path d="M56941 38090
L59991 38090
" />
<path d="M65531 35244
L65915 35244
" />
<circle cx="57255.853386" cy="42462.809746" r="120.108735" /> 
<path d="M55079.513136 26464.314246 A264.233211 264.233211 0.0 0 0 55079.513136 25935.847824" />
<path d="M73602 28782
L74083 28782
" />
<path d="M53396.132375 16396.782224 A241.830050 241.830050 0.0 1 0 53393.721462 15913.128134" />
<path d="M52389.077475 37081.938422 A264.239217 264.239217 0.0 0 0 52917.555908 37081.938422" />
<path d="M71200 37538
L71200 38018
" />
<path d="M52917 37081
L52917 35400
" />
<circle cx="53301.903860" cy="41982.374806" r="120.108735" /> 
<path d="M64498 22161
L64018 22161
" />
<path d="M53395.870929 25431.379126 A241.436573 241.436573 0.0 0 0 53395.870929 24948.505979" />
<path d="M64015.603013 14015.410205 A264.239217 264.239217 0.0 0 0 64544.081447 14015.410205" />
<path d="M43327 37238
L43327 37538
" />
<path d="M65915 26488
L65915 26788
" />
<path d="M64015 26944
L64015 28626
" />
<path d="M61853 14495
L63535 14495
" />
<path d="M61852.582823 25431.379126 A241.436573 241.436573 0.0 0 0 61852.582823 24948.505979" />
<path d="M52461 41862
L52461 39460
" />
<path d="M61724 16877
L61724 16396
" />
<path d="M51398 28782
L51014 28782
" />
<path d="M68317 26007
L68317 26488
" />
<path d="M65048 26632
L63847 25431
" />
<path d="M52389.077475 5559.755268 A264.239217 264.239217 0.0 0 0 52917.555908 5559.755268" />
<path d="M51398.629380 35401.386373 A243.053477 243.053477 0.0 1 0 51884.620832 35393.926898" />
<path d="M53590 38595
L53085 38595
" />
<path d="M60148 39460
L63991 39460
" />
<path d="M53397.990848 25935.835813 A264.245222 264.245222 0.0 1 0 53397.990848 26464.326257" />
<path d="M63991 39460
L63991 41862
" />
<path d="M74083 28782
L74083 26788
" />
<path d="M53397 2869
L55079 2869
" />
<path d="M55079 25935
L53397 25935
" />
<path d="M68317 38018
L68317 37538
" />
<path d="M55079 3397
L53397 3397
" />
<path d="M61697 47147
L61697 47627
" />
<path d="M66153 1980
L66153 15913
" />
<path d="M51014 35244
L51014 28782
" />
<circle cx="63631.255062" cy="42462.809746" r="120.108735" /> 
<path d="M53397.990848 2869.319606 A264.239217 264.239217 0.0 1 0 53397.990848 3397.798040" />
<path d="M53397 14495
L55079 14495
" />
<path d="M61553 38595
L59307 38595
" />
<path d="M73602 35244
L74083 35244
" />
<path d="M55079.513136 15024.323578 A264.239217 264.239217 0.0 0 0 55079.513136 14495.845145" />
<path d="M63535 25935
L61853 25935
" />
<path d="M53268 16877
L53268 16396
" />
<path d="M52968 24564
L53268 24564
" />
<path d="M61852 24948
L61724 24948
" />
<path d="M45729 26488
L45729 26007
" />
<path d="M52389 14015
L52389 12333
" />
<path d="M61724 24948
L61724 24564
" />
<path d="M53268 16877
L52968 16877
" />
<path d="M52389.077475 14015.410205 A264.239217 264.239217 0.0 0 0 52917.555908 14015.410205" />
<path d="M57625 38595
L53590 38595
" />
<path d="M51014 26788
L51014 26007
" />
<path d="M63691 47147
L63691 47627
" />
<path d="M65531.375248 37080.959536 A241.418557 241.418557 0.0 0 0 65048.538133 37080.959536" />
<path d="M64018 22161
L64018 19279
" />
<path d="M55262 24948
L55262 24564
" />
<path d="M55081.173848 15913.146047 A241.812033 241.812033 0.0 1 0 55083.575935 16396.764148" />
<path d="M64544.081447 3878.232979 A264.239217 264.239217 0.0 0 0 64015.603013 3878.232979" />
<path d="M52968 16877
L52968 19279
" />
<path d="M52461 44744
L52941 44744
" />
<path d="M61852 15913
L55081 15913
" />
<path d="M43327 37538
L45729 37538
" />
<path d="M65048.514112 26940.883606 A241.436573 241.436573 0.0 1 0 65531.375267 26938.481431" />
<path d="M52461 47147
L52461 44744
" />
<path d="M68317 37538
L71200 37538
" />
<path d="M65048.553477 35399.437525 A241.436573 241.436573 0.0 1 0 65531.375308 35401.395019" />
<path d="M55079 15024
L53397 15024
" />
<path d="M63691 47627
L61697 47627
" />
<path d="M43327 28782
L42846 28782
" />
<path d="M65531 37238
L65531 37080
" />
<path d="M61853.645785 14495.845145 A264.239217 264.239217 0.0 1 0 61853.645785 15024.323578" />
<path d="M63718 16396
L63550 16396
" />
<path d="M53395 25431
L53085 25431
" />
<path d="M64015.603013 28626.283485 A264.239217 264.239217 0.0 0 0 64544.081447 28626.283485" />
<path d="M51884 26937
L51884 26632
" />
<path d="M71200 26007
L68317 26007
" />
<path d="M55079.513136 3397.798040 A264.239217 264.239217 0.0 0 0 55079.513136 2869.319606" />
<path d="M63718 24948
L63538 24948
" />
<path d="M51884 37394
L53085 38595
" />
<path d="M71200 38018
L73602 38018
" />
<path d="M43327 26788
L42846 26788
" />
<path d="M51884.643849 37085.747310 A243.033059 243.033059 0.0 0 0 51398.624815 37080.968184" />
<path d="M52389 26944
L52389 28626
" />
<path d="M52917 3878
L52917 5559
" />
<path d="M43327 26007
L43327 26788
" />
<path d="M64472 44744
L63991 44744
" />
<path d="M48612 26007
L48612 26488
" />
<path d="M64015.603013 37081.938422 A264.239217 264.239217 0.0 0 0 64544.081447 37081.938422" />
<path d="M52968 24564
L52968 22161
" />
<path d="M63835 38595
L63835 38259
" />
<path d="M45729 38018
L48612 38018
" />
<path d="M65531 26938
L65531 26788
" />
<path d="M65531 28782
L65531 28632
" />
<path d="M55262 16877
L55262 16396
" />
<path d="M42846 35244
L42846 37238
" />
<path d="M59991 37562
L56941 37562
" />
<path d="M71200 26488
L71200 26007
" />
<path d="M63991 44744
L63991 47147
" />
<path d="M61853.645785 25935.835813 A264.245222 264.245222 0.0 1 0 61853.645785 26464.326257" />
<path d="M61853 26464
L63535 26464
" />
<path d="M55262 16396
L55083 16396
" />
<path d="M64015 5559
L64015 3878
" />
</g>
<g style="fill:#000000; fill-opacity:0.0; 
stroke:#000000; stroke-width:48.043494; stroke-opacity:1; 
stroke-linecap:round; stroke-linejoin:round;">
</g>
<g style="fill:#000000; fill-opacity:0.0; 
stroke:#000000; stroke-width:12.010873; stroke-opacity:1; 
stroke-linecap:round; stroke-linejoin:round;">
<path d="M51399 27184
L51519 27305
" />
<path d="M51519 27184
L51399 27305
" />
<path d="M51399 27365
L51519 27485
" />
<path d="M51519 27365
L51399 27485
" />
<path d="M51399 27545
L51519 27665
" />
<path d="M51519 27545
L51399 27665
" />
<path d="M51399 27725
L51519 27845
" />
<path d="M51519 27725
L51399 27845
" />
<path d="M51399 27905
L51519 28025
" />
<path d="M51519 27905
L51399 28025
" />
<path d="M51399 28085
L51519 28205
" />
<path d="M51519 28085
L51399 28205
" />
<path d="M51399 28265
L51519 28386
" />
<path d="M51519 28265
L51399 28386
" />
<path d="M51399 35640
L51519 35760
" />
<path d="M51519 35640
L51399 35760
" />
<path d="M51399 35820
L51519 35940
" />
<path d="M51519 35820
L51399 35940
" />
<path d="M51399 36000
L51519 36121
" />
<path d="M51519 36000
L51399 36121
" />
<path d="M51399 36181
L51519 36301
" />
<path d="M51519 36181
L51399 36301
" />
<path d="M51399 36361
L51519 36481
" />
<path d="M51519 36361
L51399 36481
" />
<path d="M51399 36541
L51519 36661
" />
<path d="M51519 36541
L51399 36661
" />
<path d="M51399 36721
L51519 36841
" />
<path d="M51519 36721
L51399 36841
" />
<path d="M51759 27184
L51879 27305
" />
<path d="M51879 27184
L51759 27305
" />
<path d="M51759 27365
L51879 27485
" />
<path d="M51879 27365
L51759 27485
" />
<path d="M51759 27545
L51879 27665
" />
<path d="M51879 27545
L51759 27665
" />
<path d="M51759 27725
L51879 27845
" />
<path d="M51879 27725
L51759 27845
" />
<path d="M51759 27905
L51879 28025
" />
<path d="M51879 27905
L51759 28025
" />
<path d="M51759 28085
L51879 28205
" />
<path d="M51879 28085
L51759 28205
" />
<path d="M51759 28265
L51879 28386
" />
<path d="M51879 28265
L51759 28386
" />
<path d="M51760 35640
L51880 35760
" />
<path d="M51880 35640
L51760 35760
" />
<path d="M51760 35820
L51880 35940
" />
<path d="M51880 35820
L51760 35940
" />
<path d="M51760 36000
L51880 36121
" />
<path d="M51880 36000
L51760 36121
" />
<path d="M51760 36181
L51880 36301
" />
<path d="M51880 36181
L51760 36301
" />
<path d="M51760 36361
L51880 36481
" />
<path d="M51880 36361
L51760 36481
" />
<path d="M51760 36541
L51880 36661
" />
<path d="M51880 36541
L51760 36661
" />
<path d="M51760 36721
L51880 36841
" />
<path d="M51880 36721
L51760 36841
" />
<path d="M53638 15916
L53758 16036
" />
<path d="M53758 15916
L53638 16036
" />
<path d="M53638 16276
L53758 16396
" />
<path d="M53758 16276
L53638 16396
" />
<path d="M53638 24948
L53758 25068
" />
<path d="M53758 24948
L53638 25068
" />
<path d="M53638 25308
L53758 25428
" />
<path d="M53758 25308
L53638 25428
" />
<path d="M53818 15916
L53938 16036
" />
<path d="M53938 15916
L53818 16036
" />
<path d="M53818 16276
L53938 16396
" />
<path d="M53938 16276
L53818 16396
" />
<path d="M53818 24948
L53938 25068
" />
<path d="M53938 24948
L53818 25068
" />
<path d="M53818 25308
L53938 25428
" />
<path d="M53938 25308
L53818 25428
" />
<path d="M53998 15916
L54118 16036
" />
<path d="M54118 15916
L53998 16036
" />
<path d="M53998 16276
L54118 16396
" />
<path d="M54118 16276
L53998 16396
" />
<path d="M53998 24948
L54118 25068
" />
<path d="M54118 24948
L53998 25068
" />
<path d="M53998 25308
L54118 25428
" />
<path d="M54118 25308
L53998 25428
" />
<path d="M54178 15916
L54298 16036
" />
<path d="M54298 15916
L54178 16036
" />
<path d="M54178 16276
L54298 16396
" />
<path d="M54298 16276
L54178 16396
" />
<path d="M54178 24948
L54298 25068
" />
<path d="M54298 24948
L54178 25068
" />
<path d="M54178 25308
L54298 25428
" />
<path d="M54298 25308
L54178 25428
" />
<path d="M54358 15916
L54478 16036
" />
<path d="M54478 15916
L54358 16036
" />
<path d="M54358 16276
L54478 16396
" />
<path d="M54478 16276
L54358 16396
" />
<path d="M54358 24948
L54478 25068
" />
<path d="M54478 24948
L54358 25068
" />
<path d="M54358 25308
L54478 25428
" />
<path d="M54478 25308
L54358 25428
" />
<path d="M54539 15916
L54659 16036
" />
<path d="M54659 15916
L54539 16036
" />
<path d="M54539 16276
L54659 16396
" />
<path d="M54659 16276
L54539 16396
" />
<path d="M54539 24948
L54659 25068
" />
<path d="M54659 24948
L54539 25068
" />
<path d="M54539 25308
L54659 25428
" />
<path d="M54659 25308
L54539 25428
" />
<path d="M54719 15916
L54839 16036
" />
<path d="M54839 15916
L54719 16036
" />
<path d="M54719 16276
L54839 16396
" />
<path d="M54839 16276
L54719 16396
" />
<path d="M54719 24948
L54839 25068
" />
<path d="M54839 24948
L54719 25068
" />
<path d="M54719 25308
L54839 25428
" />
<path d="M54839 25308
L54719 25428
" />
<path d="M57866 38595
L57986 38715
" />
<path d="M57986 38595
L57866 38715
" />
<path d="M57866 38955
L57986 39075
" />
<path d="M57986 38955
L57866 39075
" />
<path d="M58046 38595
L58166 38715
" />
<path d="M58166 38595
L58046 38715
" />
<path d="M58046 38955
L58166 39075
" />
<path d="M58166 38955
L58046 39075
" />
<path d="M58226 38595
L58346 38715
" />
<path d="M58346 38595
L58226 38715
" />
<path d="M58226 38955
L58346 39075
" />
<path d="M58346 38955
L58226 39075
" />
<path d="M58406 38595
L58526 38715
" />
<path d="M58526 38595
L58406 38715
" />
<path d="M58406 38955
L58526 39075
" />
<path d="M58526 38955
L58406 39075
" />
<path d="M58586 38595
L58706 38715
" />
<path d="M58706 38595
L58586 38715
" />
<path d="M58586 38955
L58706 39075
" />
<path d="M58706 38955
L58586 39075
" />
<path d="M58766 38595
L58886 38715
" />
<path d="M58886 38595
L58766 38715
" />
<path d="M58766 38955
L58886 39075
" />
<path d="M58886 38955
L58766 39075
" />
<path d="M58947 38595
L59067 38715
" />
<path d="M59067 38595
L58947 38715
" />
<path d="M58947 38955
L59067 39075
" />
<path d="M59067 38955
L58947 39075
" />
<path d="M62093 15916
L62213 16036
" />
<path d="M62213 15916
L62093 16036
" />
<path d="M62093 16276
L62213 16396
" />
<path d="M62213 16276
L62093 16396
" />
<path d="M62093 24948
L62213 25068
" />
<path d="M62213 24948
L62093 25068
" />
<path d="M62093 25308
L62213 25428
" />
<path d="M62213 25308
L62093 25428
" />
<path d="M62274 15916
L62394 16036
" />
<path d="M62394 15916
L62274 16036
" />
<path d="M62274 16276
L62394 16396
" />
<path d="M62394 16276
L62274 16396
" />
<path d="M62274 24948
L62394 25068
" />
<path d="M62394 24948
L62274 25068
" />
<path d="M62274 25308
L62394 25428
" />
<path d="M62394 25308
L62274 25428
" />
<path d="M62454 15916
L62574 16036
" />
<path d="M62574 15916
L62454 16036
" />
<path d="M62454 16276
L62574 16396
" />
<path d="M62574 16276
L62454 16396
" />
<path d="M62454 24948
L62574 25068
" />
<path d="M62574 24948
L62454 25068
" />
<path d="M62454 25308
L62574 25428
" />
<path d="M62574 25308
L62454 25428
" />
<path d="M62634 15916
L62754 16036
" />
<path d="M62754 15916
L62634 16036
" />
<path d="M62634 16276
L62754 16396
" />
<path d="M62754 16276
L62634 16396
" />
<path d="M62634 24948
L62754 25068
" />
<path d="M62754 24948
L62634 25068
" />
<path d="M62634 25308
L62754 25428
" />
<path d="M62754 25308
L62634 25428
" />
<path d="M62814 15916
L62934 16036
" />
<path d="M62934 15916
L62814 16036
" />
<path d="M62814 16276
L62934 16396
" />
<path d="M62934 16276
L62814 16396
" />
<path d="M62814 24948
L62934 25068
" />
<path d="M62934 24948
L62814 25068
" />
<path d="M62814 25308
L62934 25428
" />
<path d="M62934 25308
L62814 25428
" />
<path d="M62994 15916
L63114 16036
" />
<path d="M63114 15916
L62994 16036
" />
<path d="M62994 16276
L63114 16396
" />
<path d="M63114 16276
L62994 16396
" />
<path d="M62994 24948
L63114 25068
" />
<path d="M63114 24948
L62994 25068
" />
<path d="M62994 25308
L63114 25428
" />
<path d="M63114 25308
L62994 25428
" />
<path d="M63174 15916
L63294 16036
" />
<path d="M63294 15916
L63174 16036
" />
<path d="M63174 16276
L63294 16396
" />
<path d="M63294 16276
L63174 16396
" />
<path d="M63174 24948
L63294 25068
" />
<path d="M63294 24948
L63174 25068
" />
<path d="M63174 25308
L63294 25428
" />
<path d="M63294 25308
L63174 25428
" />
<path d="M65049 27184
L65169 27305
" />
<path d="M65169 27184
L65049 27305
" />
<path d="M65049 27365
L65169 27485
" />
<path d="M65169 27365
L65049 27485
" />
<path d="M65049 27545
L65169 27665
" />
<path d="M65169 27545
L65049 27665
" />
<path d="M65049 27725
L65169 27845
" />
<path d="M65169 27725
L65049 27845
" />
<path d="M65049 27905
L65169 28025
" />
<path d="M65169 27905
L65049 28025
" />
<path d="M65049 28085
L65169 28205
" />
<path d="M65169 28085
L65049 28205
" />
<path d="M65049 28265
L65169 28386
" />
<path d="M65169 28265
L65049 28386
" />
<path d="M65049 35640
L65169 35760
" />
<path d="M65169 35640
L65049 35760
" />
<path d="M65049 35820
L65169 35940
" />
<path d="M65169 35820
L65049 35940
" />
<path d="M65049 36000
L65169 36121
" />
<path d="M65169 36000
L65049 36121
" />
<path d="M65049 36181
L65169 36301
" />
<path d="M65169 36181
L65049 36301
" />
<path d="M65049 36361
L65169 36481
" />
<path d="M65169 36361
L65049 36481
" />
<path d="M65049 36541
L65169 36661
" />
<path d="M65169 36541
L65049 36661
" />
<path d="M65049 36721
L65169 36841
" />
<path d="M65169 36721
L65049 36841
" />
<path d="M65409 27184
L65529 27305
" />
<path d="M65529 27184
L65409 27305
" />
<path d="M65409 27365
L65529 27485
" />
<path d="M65529 27365
L65409 27485
" />
<path d="M65409 27545
L65529 27665
" />
<path d="M65529 27545
L65409 27665
" />
<path d="M65409 27725
L65529 27845
" />
<path d="M65529 27725
L65409 27845
" />
<path d="M65409 27905
L65529 28025
" />
<path d="M65529 27905
L65409 28025
" />
<path d="M65409 28085
L65529 28205
" />
<path d="M65529 28085
L65409 28205
" />
<path d="M65409 28265
L65529 28386
" />
<path d="M65529 28265
L65409 28386
" />
<path d="M65409 35640
L65529 35760
" />
<path d="M65529 35640
L65409 35760
" />
<path d="M65409 35820
L65529 35940
" />
<path d="M65529 35820
L65409 35940
" />
<path d="M65409 36000
L65529 36121
" />
<path d="M65529 36000
L65409 36121
" />
<path d="M65409 36181
L65529 36301
" />
<path d="M65529 36181
L65409 36301
" />
<path d="M65409 36361
L65529 36481
" />
<path d="M65529 36361
L65409 36481
" />
<path d="M65409 36541
L65529 36661
" />
<path d="M65529 36541
L65409 36661
" />
<path d="M65409 36721
L65529 36841
" />
<path d="M65529 36721
L65409 36841
" />
</g>
<g style="fill:#000000; fill-opacity:0.0; 
stroke:#000000; stroke-width:15.614136; stroke-opacity:1; 
stroke-linecap:round; stroke-linejoin:round;">
<circle cx="62000.178442" cy="40592.236309" r="78.070678" /> 
<circle cx="63388.635417" cy="40592.236309" r="78.070678" /> 
</g>
<g style="fill:#000000; fill-opacity:0.0; 
stroke:#000000; stroke-width:23.795943; stroke-opacity:1; 
stroke-linecap:round; stroke-linejoin:round;">
<path d="M57856 28033
L57856 28271
" />
<path d="M57737 28152
L57975 28152
" />
<path d="M57856 28521
L57856 28759
" />
<path d="M57737 28640
L57975 28640
" />
<path d="M59076 28277
L59076 28515
" />
<path d="M58957 28396
L59195 28396
" />
</g>
<g style="fill:#000000; fill-opacity:0.0; 
stroke:#000000; stroke-width:28.826096; stroke-opacity:1; 
stroke-linecap:round; stroke-linejoin:round;">
<path style="fill:#000000; fill-opacity:0.0; 
stroke:#000000; stroke-width:28.826096; stroke-opacity:1; 
stroke-linecap:round; stroke-linejoin:round;fill:none"
d="M 54491.206861,4577.282151
54491.206861,4373.448980
54287.373690,4373.448980
54287.373690,4577.282151
Z" /> 
<path style="fill:#000000; fill-opacity:0.0; 
stroke:#000000; stroke-width:28.826096; stroke-opacity:1; 
stroke-linecap:round; stroke-linejoin:round;fill:none"
d="M 54491.206861,5538.152030
54491.206861,5334.318860
54287.373690,5334.318860
54287.373690,5538.152030
Z" /> 
</g>
<g style="fill:#000000; fill-opacity:0.0; 
stroke:#000000; stroke-width:52.847843; stroke-opacity:1; 
stroke-linecap:round; stroke-linejoin:round;">
<path style="fill:#000000; fill-opacity:0.0; 
stroke:#000000; stroke-width:52.847843; stroke-opacity:1; 
stroke-linecap:round; stroke-linejoin:round;fill:none"
d="M 53578.153950,4322.635298
53842.393167,4058.396082
53578.153950,3794.156865
53313.914733,4058.396082
Z" /> 
<path style="fill:#000000; fill-opacity:0.0; 
stroke:#000000; stroke-width:52.847843; stroke-opacity:1; 
stroke-linecap:round; stroke-linejoin:round;fill:none"
d="M 53578.153950,14099.486320
53842.393167,13835.247103
53578.153950,13571.007886
53313.914733,13835.247103
Z" /> 
<path style="fill:#000000; fill-opacity:0.0; 
stroke:#000000; stroke-width:52.847843; stroke-opacity:1; 
stroke-linecap:round; stroke-linejoin:round;fill:none"
d="M 53578.153950,27389.163516
53842.393167,27124.924299
53578.153950,26860.685082
53313.914733,27124.924299
Z" /> 
<path style="fill:#000000; fill-opacity:0.0; 
stroke:#000000; stroke-width:52.847843; stroke-opacity:1; 
stroke-linecap:round; stroke-linejoin:round;fill:none"
d="M 53578.153950,37166.014537
53842.393167,36901.775320
53578.153950,36637.536103
53313.914733,36901.775320
Z" /> 
<path style="fill:#000000; fill-opacity:0.0; 
stroke:#000000; stroke-width:52.847843; stroke-opacity:1; 
stroke-linecap:round; stroke-linejoin:round;fill:none"
d="M 55239.250788,29050.260353
55503.490004,28786.021136
55239.250788,28521.781920
54975.011571,28786.021136
Z" /> 
<path style="fill:#000000; fill-opacity:0.0; 
stroke:#000000; stroke-width:52.847843; stroke-opacity:1; 
stroke-linecap:round; stroke-linejoin:round;fill:none"
d="M 55239.250788,35504.917699
55503.490004,35240.678483
55239.250788,34976.439266
54975.011571,35240.678483
Z" /> 
<path style="fill:#000000; fill-opacity:0.0; 
stroke:#000000; stroke-width:52.847843; stroke-opacity:1; 
stroke-linecap:round; stroke-linejoin:round;fill:none"
d="M 61693.908134,29050.260353
61958.147351,28786.021136
61693.908134,28521.781920
61429.668917,28786.021136
Z" /> 
<path style="fill:#000000; fill-opacity:0.0; 
stroke:#000000; stroke-width:52.847843; stroke-opacity:1; 
stroke-linecap:round; stroke-linejoin:round;fill:none"
d="M 61693.908134,35504.917699
61958.147351,35240.678483
61693.908134,34976.439266
61429.668917,35240.678483
Z" /> 
<path style="fill:#000000; fill-opacity:0.0; 
stroke:#000000; stroke-width:52.847843; stroke-opacity:1; 
stroke-linecap:round; stroke-linejoin:round;fill:none"
d="M 63355.004971,4322.635298
63619.244188,4058.396082
63355.004971,3794.156865
63090.765754,4058.396082
Z" /> 
<path style="fill:#000000; fill-opacity:0.0; 
stroke:#000000; stroke-width:52.847843; stroke-opacity:1; 
stroke-linecap:round; stroke-linejoin:round;fill:none"
d="M 63355.004971,14099.486320
63619.244188,13835.247103
63355.004971,13571.007886
63090.765754,13835.247103
Z" /> 
<path style="fill:#000000; fill-opacity:0.0; 
stroke:#000000; stroke-width:52.847843; stroke-opacity:1; 
stroke-linecap:round; stroke-linejoin:round;fill:none"
d="M 63355.004971,27389.163516
63619.244188,27124.924299
63355.004971,26860.685082
63090.765754,27124.924299
Z" /> 
<path style="fill:#000000; fill-opacity:0.0; 
stroke:#000000; stroke-width:52.847843; stroke-opacity:1; 
stroke-linecap:round; stroke-linejoin:round;fill:none"
d="M 63355.004971,37166.014537
63619.244188,36901.775320
63355.004971,36637.536103
63090.765754,36901.775320
Z" /> 
</g>
<g style="fill:#000000; fill-opacity:0.0; 
stroke:#000000; stroke-width:72.065241; stroke-opacity:1; 
stroke-linecap:round; stroke-linejoin:round;">
<path d="M54020 46281
L54741 47002
" />
<path d="M54741 46281
L54020 47002
" />
<circle cx="54380.882664" cy="46641.939128" r="360.326205" /> 
</g>
<g style="fill:#000000; fill-opacity:0.0; 
stroke:#000000; stroke-width:48.043494; stroke-opacity:1; 
stroke-linecap:round; stroke-linejoin:round;">
<text x="43315.306955" y="48408.192124"
textLength="3571.233131" font-size="640.579759" lengthAdjust="spacingAndGlyphs"
text-anchor="start" opacity="0">Drill Map:</text>
<g class="stroked-text"><desc>Drill Map:</desc>
<path d="M43453 48385
L43453 47904
L43568 47904
L43636 47927
L43682 47973
L43705 48019
L43728 48110
L43728 48179
L43705 48270
L43682 48316
L43636 48362
L43568 48385
L43453 48385
" />
<path d="M43934 48385
L43934 48065
" />
<path d="M43934 48156
L43957 48110
L43979 48087
L44025 48065
L44071 48065
" />
<path d="M44231 48385
L44231 48065
" />
<path d="M44231 47904
L44208 47927
L44231 47950
L44254 47927
L44231 47904
L44231 47950
" />
<path d="M44528 48385
L44483 48362
L44460 48316
L44460 47904
" />
<path d="M44780 48385
L44734 48362
L44711 48316
L44711 47904
" />
<path d="M45329 48385
L45329 47904
L45489 48248
L45649 47904
L45649 48385
" />
<path d="M46084 48385
L46084 48133
L46061 48087
L46016 48065
L45924 48065
L45878 48087
" />
<path d="M46084 48362
L46038 48385
L45924 48385
L45878 48362
L45855 48316
L45855 48270
L45878 48225
L45924 48202
L46038 48202
L46084 48179
" />
<path d="M46313 48065
L46313 48545
" />
<path d="M46313 48087
L46359 48065
L46450 48065
L46496 48087
L46519 48110
L46542 48156
L46542 48293
L46519 48339
L46496 48362
L46450 48385
L46359 48385
L46313 48362
" />
<path d="M46748 48339
L46771 48362
L46748 48385
L46725 48362
L46748 48339
L46748 48385
" />
<path d="M46748 48087
L46771 48110
L46748 48133
L46725 48110
L46748 48087
L46748 48133
" />
</g></g>
<g style="fill:#000000; fill-opacity:0.0; 
stroke:#000000; stroke-width:12.010873; stroke-opacity:1; 
stroke-linecap:round; stroke-linejoin:round;">
<path d="M42714 49116
L42834 49236
" />
<path d="M42834 49116
L42714 49236
" />
</g>
<g style="fill:#000000; fill-opacity:0.0; 
stroke:#000000; stroke-width:48.043494; stroke-opacity:1; 
stroke-linecap:round; stroke-linejoin:round;">
<text x="43315.306955" y="49417.105497"
textLength="16931.899875" font-size="640.579759" lengthAdjust="spacingAndGlyphs"
text-anchor="start" opacity="0">0.500mm / 0.0197" (126 holes) (not plated)</text>
<g class="stroked-text"><desc>0.500mm / 0.0197" (126 holes) (not plated)</desc>
<path d="M43545 48913
L43590 48913
L43636 48936
L43659 48959
L43682 49005
L43705 49096
L43705 49211
L43682 49302
L43659 49348
L43636 49371
L43590 49394
L43545 49394
L43499 49371
L43476 49348
L43453 49302
L43430 49211
L43430 49096
L43453 49005
L43476 48959
L43499 48936
L43545 48913
" />
<path d="M43911 49348
L43934 49371
L43911 49394
L43888 49371
L43911 49348
L43911 49394
" />
<path d="M44368 48913
L44140 48913
L44117 49142
L44140 49119
L44185 49096
L44300 49096
L44345 49119
L44368 49142
L44391 49188
L44391 49302
L44368 49348
L44345 49371
L44300 49394
L44185 49394
L44140 49371
L44117 49348
" />
<path d="M44689 48913
L44734 48913
L44780 48936
L44803 48959
L44826 49005
L44849 49096
L44849 49211
L44826 49302
L44803 49348
L44780 49371
L44734 49394
L44689 49394
L44643 49371
L44620 49348
L44597 49302
L44574 49211
L44574 49096
L44597 49005
L44620 48959
L44643 48936
L44689 48913
" />
<path d="M45146 48913
L45192 48913
L45238 48936
L45261 48959
L45283 49005
L45306 49096
L45306 49211
L45283 49302
L45261 49348
L45238 49371
L45192 49394
L45146 49394
L45100 49371
L45078 49348
L45055 49302
L45032 49211
L45032 49096
L45055 49005
L45078 48959
L45100 48936
L45146 48913
" />
<path d="M45512 49394
L45512 49073
" />
<path d="M45512 49119
L45535 49096
L45581 49073
L45649 49073
L45695 49096
L45718 49142
L45718 49394
" />
<path d="M45718 49142
L45741 49096
L45787 49073
L45855 49073
L45901 49096
L45924 49142
L45924 49394
" />
<path d="M46153 49394
L46153 49073
" />
<path d="M46153 49119
L46176 49096
L46221 49073
L46290 49073
L46336 49096
L46359 49142
L46359 49394
" />
<path d="M46359 49142
L46382 49096
L46427 49073
L46496 49073
L46542 49096
L46565 49142
L46565 49394
" />
<path d="M47503 48890
L47091 49508
" />
<path d="M48120 48913
L48166 48913
L48212 48936
L48235 48959
L48258 49005
L48280 49096
L48280 49211
L48258 49302
L48235 49348
L48212 49371
L48166 49394
L48120 49394
L48075 49371
L48052 49348
L48029 49302
L48006 49211
L48006 49096
L48029 49005
L48052 48959
L48075 48936
L48120 48913
" />
<path d="M48486 49348
L48509 49371
L48486 49394
L48463 49371
L48486 49348
L48486 49394
" />
<path d="M48807 48913
L48852 48913
L48898 48936
L48921 48959
L48944 49005
L48967 49096
L48967 49211
L48944 49302
L48921 49348
L48898 49371
L48852 49394
L48807 49394
L48761 49371
L48738 49348
L48715 49302
L48692 49211
L48692 49096
L48715 49005
L48738 48959
L48761 48936
L48807 48913
" />
<path d="M49424 49394
L49150 49394
" />
<path d="M49287 49394
L49287 48913
L49241 48982
L49196 49028
L49150 49051
" />
<path d="M49653 49394
L49745 49394
L49790 49371
L49813 49348
L49859 49279
L49882 49188
L49882 49005
L49859 48959
L49836 48936
L49790 48913
L49699 48913
L49653 48936
L49630 48959
L49607 49005
L49607 49119
L49630 49165
L49653 49188
L49699 49211
L49790 49211
L49836 49188
L49859 49165
L49882 49119
" />
<path d="M50042 48913
L50362 48913
L50156 49394
" />
<path d="M50522 48913
L50522 49005
" />
<path d="M50705 48913
L50705 49005
" />
<path d="M51415 49577
L51392 49554
L51346 49485
L51323 49439
L51300 49371
L51277 49256
L51277 49165
L51300 49051
L51323 48982
L51346 48936
L51392 48868
L51415 48845
" />
<path d="M51849 49394
L51575 49394
" />
<path d="M51712 49394
L51712 48913
L51666 48982
L51621 49028
L51575 49051
" />
<path d="M52032 48959
L52055 48936
L52101 48913
L52215 48913
L52261 48936
L52284 48959
L52307 49005
L52307 49051
L52284 49119
L52010 49394
L52307 49394
" />
<path d="M52719 48913
L52627 48913
L52581 48936
L52559 48959
L52513 49028
L52490 49119
L52490 49302
L52513 49348
L52536 49371
L52581 49394
L52673 49394
L52719 49371
L52742 49348
L52765 49302
L52765 49188
L52742 49142
L52719 49119
L52673 49096
L52581 49096
L52536 49119
L52513 49142
L52490 49188
" />
<path d="M53336 49394
L53336 48913
" />
<path d="M53542 49394
L53542 49142
L53519 49096
L53474 49073
L53405 49073
L53359 49096
L53336 49119
" />
<path d="M53840 49394
L53794 49371
L53771 49348
L53748 49302
L53748 49165
L53771 49119
L53794 49096
L53840 49073
L53908 49073
L53954 49096
L53977 49119
L54000 49165
L54000 49302
L53977 49348
L53954 49371
L53908 49394
L53840 49394
" />
<path d="M54274 49394
L54229 49371
L54206 49325
L54206 48913
" />
<path d="M54640 49371
L54595 49394
L54503 49394
L54457 49371
L54435 49325
L54435 49142
L54457 49096
L54503 49073
L54595 49073
L54640 49096
L54663 49142
L54663 49188
L54435 49234
" />
<path d="M54846 49371
L54892 49394
L54984 49394
L55029 49371
L55052 49325
L55052 49302
L55029 49256
L54984 49234
L54915 49234
L54869 49211
L54846 49165
L54846 49142
L54869 49096
L54915 49073
L54984 49073
L55029 49096
" />
<path d="M55212 49577
L55235 49554
L55281 49485
L55304 49439
L55327 49371
L55350 49256
L55350 49165
L55327 49051
L55304 48982
L55281 48936
L55235 48868
L55212 48845
" />
<path d="M56082 49577
L56059 49554
L56013 49485
L55990 49439
L55967 49371
L55945 49256
L55945 49165
L55967 49051
L55990 48982
L56013 48936
L56059 48868
L56082 48845
" />
<path d="M56265 49073
L56265 49394
" />
<path d="M56265 49119
L56288 49096
L56333 49073
L56402 49073
L56448 49096
L56471 49142
L56471 49394
" />
<path d="M56768 49394
L56722 49371
L56699 49348
L56677 49302
L56677 49165
L56699 49119
L56722 49096
L56768 49073
L56837 49073
L56883 49096
L56905 49119
L56928 49165
L56928 49302
L56905 49348
L56883 49371
L56837 49394
L56768 49394
" />
<path d="M57066 49073
L57249 49073
" />
<path d="M57134 48913
L57134 49325
L57157 49371
L57203 49394
L57249 49394
" />
<path d="M57775 49073
L57775 49554
" />
<path d="M57775 49096
L57821 49073
L57912 49073
L57958 49096
L57981 49119
L58004 49165
L58004 49302
L57981 49348
L57958 49371
L57912 49394
L57821 49394
L57775 49371
" />
<path d="M58278 49394
L58232 49371
L58209 49325
L58209 48913
" />
<path d="M58667 49394
L58667 49142
L58644 49096
L58598 49073
L58507 49073
L58461 49096
" />
<path d="M58667 49371
L58621 49394
L58507 49394
L58461 49371
L58438 49325
L58438 49279
L58461 49234
L58507 49211
L58621 49211
L58667 49188
" />
<path d="M58827 49073
L59010 49073
" />
<path d="M58896 48913
L58896 49325
L58919 49371
L58964 49394
L59010 49394
" />
<path d="M59353 49371
L59308 49394
L59216 49394
L59170 49371
L59147 49325
L59147 49142
L59170 49096
L59216 49073
L59308 49073
L59353 49096
L59376 49142
L59376 49188
L59147 49234
" />
<path d="M59788 49394
L59788 48913
" />
<path d="M59788 49371
L59742 49394
L59651 49394
L59605 49371
L59582 49348
L59559 49302
L59559 49165
L59582 49119
L59605 49096
L59651 49073
L59742 49073
L59788 49096
" />
<path d="M59971 49577
L59994 49554
L60040 49485
L60063 49439
L60085 49371
L60108 49256
L60108 49165
L60085 49051
L60063 48982
L60040 48936
L59994 48868
L59971 48845
" />
</g></g>
<g style="fill:#000000; fill-opacity:0.0; 
stroke:#000000; stroke-width:15.614136; stroke-opacity:1; 
stroke-linecap:round; stroke-linejoin:round;">
<circle cx="42756.801338" cy="49811.062147" r="78.070678" /> 
</g>
<g style="fill:#000000; fill-opacity:0.0; 
stroke:#000000; stroke-width:48.043494; stroke-opacity:1; 
stroke-linecap:round; stroke-linejoin:round;">
<text x="43315.306955" y="50051.279617"
textLength="16016.785658" font-size="640.579759" lengthAdjust="spacingAndGlyphs"
text-anchor="start" opacity="0">0.650mm / 0.0256" (2 holes) (not plated)</text>
<g class="stroked-text"><desc>0.650mm / 0.0256" (2 holes) (not plated)</desc>
<path d="M43545 49547
L43590 49547
L43636 49570
L43659 49593
L43682 49639
L43705 49730
L43705 49845
L43682 49936
L43659 49982
L43636 50005
L43590 50028
L43545 50028
L43499 50005
L43476 49982
L43453 49936
L43430 49845
L43430 49730
L43453 49639
L43476 49593
L43499 49570
L43545 49547
" />
<path d="M43911 49982
L43934 50005
L43911 50028
L43888 50005
L43911 49982
L43911 50028
" />
<path d="M44345 49547
L44254 49547
L44208 49570
L44185 49593
L44140 49662
L44117 49753
L44117 49936
L44140 49982
L44162 50005
L44208 50028
L44300 50028
L44345 50005
L44368 49982
L44391 49936
L44391 49822
L44368 49776
L44345 49753
L44300 49730
L44208 49730
L44162 49753
L44140 49776
L44117 49822
" />
<path d="M44826 49547
L44597 49547
L44574 49776
L44597 49753
L44643 49730
L44757 49730
L44803 49753
L44826 49776
L44849 49822
L44849 49936
L44826 49982
L44803 50005
L44757 50028
L44643 50028
L44597 50005
L44574 49982
" />
<path d="M45146 49547
L45192 49547
L45238 49570
L45261 49593
L45283 49639
L45306 49730
L45306 49845
L45283 49936
L45261 49982
L45238 50005
L45192 50028
L45146 50028
L45100 50005
L45078 49982
L45055 49936
L45032 49845
L45032 49730
L45055 49639
L45078 49593
L45100 49570
L45146 49547
" />
<path d="M45512 50028
L45512 49708
" />
<path d="M45512 49753
L45535 49730
L45581 49708
L45649 49708
L45695 49730
L45718 49776
L45718 50028
" />
<path d="M45718 49776
L45741 49730
L45787 49708
L45855 49708
L45901 49730
L45924 49776
L45924 50028
" />
<path d="M46153 50028
L46153 49708
" />
<path d="M46153 49753
L46176 49730
L46221 49708
L46290 49708
L46336 49730
L46359 49776
L46359 50028
" />
<path d="M46359 49776
L46382 49730
L46427 49708
L46496 49708
L46542 49730
L46565 49776
L46565 50028
" />
<path d="M47503 49525
L47091 50142
" />
<path d="M48120 49547
L48166 49547
L48212 49570
L48235 49593
L48258 49639
L48280 49730
L48280 49845
L48258 49936
L48235 49982
L48212 50005
L48166 50028
L48120 50028
L48075 50005
L48052 49982
L48029 49936
L48006 49845
L48006 49730
L48029 49639
L48052 49593
L48075 49570
L48120 49547
" />
<path d="M48486 49982
L48509 50005
L48486 50028
L48463 50005
L48486 49982
L48486 50028
" />
<path d="M48807 49547
L48852 49547
L48898 49570
L48921 49593
L48944 49639
L48967 49730
L48967 49845
L48944 49936
L48921 49982
L48898 50005
L48852 50028
L48807 50028
L48761 50005
L48738 49982
L48715 49936
L48692 49845
L48692 49730
L48715 49639
L48738 49593
L48761 49570
L48807 49547
" />
<path d="M49150 49593
L49173 49570
L49218 49547
L49333 49547
L49379 49570
L49401 49593
L49424 49639
L49424 49685
L49401 49753
L49127 50028
L49424 50028
" />
<path d="M49859 49547
L49630 49547
L49607 49776
L49630 49753
L49676 49730
L49790 49730
L49836 49753
L49859 49776
L49882 49822
L49882 49936
L49859 49982
L49836 50005
L49790 50028
L49676 50028
L49630 50005
L49607 49982
" />
<path d="M50294 49547
L50202 49547
L50156 49570
L50134 49593
L50088 49662
L50065 49753
L50065 49936
L50088 49982
L50111 50005
L50156 50028
L50248 50028
L50294 50005
L50317 49982
L50339 49936
L50339 49822
L50317 49776
L50294 49753
L50248 49730
L50156 49730
L50111 49753
L50088 49776
L50065 49822
" />
<path d="M50522 49547
L50522 49639
" />
<path d="M50705 49547
L50705 49639
" />
<path d="M51415 50211
L51392 50188
L51346 50119
L51323 50074
L51300 50005
L51277 49891
L51277 49799
L51300 49685
L51323 49616
L51346 49570
L51392 49502
L51415 49479
" />
<path d="M51575 49593
L51598 49570
L51643 49547
L51758 49547
L51804 49570
L51827 49593
L51849 49639
L51849 49685
L51827 49753
L51552 50028
L51849 50028
" />
<path d="M52421 50028
L52421 49547
" />
<path d="M52627 50028
L52627 49776
L52604 49730
L52559 49708
L52490 49708
L52444 49730
L52421 49753
" />
<path d="M52925 50028
L52879 50005
L52856 49982
L52833 49936
L52833 49799
L52856 49753
L52879 49730
L52925 49708
L52993 49708
L53039 49730
L53062 49753
L53085 49799
L53085 49936
L53062 49982
L53039 50005
L52993 50028
L52925 50028
" />
<path d="M53359 50028
L53314 50005
L53291 49959
L53291 49547
" />
<path d="M53725 50005
L53680 50028
L53588 50028
L53542 50005
L53519 49959
L53519 49776
L53542 49730
L53588 49708
L53680 49708
L53725 49730
L53748 49776
L53748 49822
L53519 49868
" />
<path d="M53931 50005
L53977 50028
L54069 50028
L54114 50005
L54137 49959
L54137 49936
L54114 49891
L54069 49868
L54000 49868
L53954 49845
L53931 49799
L53931 49776
L53954 49730
L54000 49708
L54069 49708
L54114 49730
" />
<path d="M54297 50211
L54320 50188
L54366 50119
L54389 50074
L54412 50005
L54435 49891
L54435 49799
L54412 49685
L54389 49616
L54366 49570
L54320 49502
L54297 49479
" />
<path d="M55167 50211
L55144 50188
L55098 50119
L55075 50074
L55052 50005
L55029 49891
L55029 49799
L55052 49685
L55075 49616
L55098 49570
L55144 49502
L55167 49479
" />
<path d="M55350 49708
L55350 50028
" />
<path d="M55350 49753
L55373 49730
L55418 49708
L55487 49708
L55533 49730
L55556 49776
L55556 50028
" />
<path d="M55853 50028
L55807 50005
L55784 49982
L55762 49936
L55762 49799
L55784 49753
L55807 49730
L55853 49708
L55922 49708
L55967 49730
L55990 49753
L56013 49799
L56013 49936
L55990 49982
L55967 50005
L55922 50028
L55853 50028
" />
<path d="M56150 49708
L56333 49708
" />
<path d="M56219 49547
L56219 49959
L56242 50005
L56288 50028
L56333 50028
" />
<path d="M56860 49708
L56860 50188
" />
<path d="M56860 49730
L56905 49708
L56997 49708
L57043 49730
L57066 49753
L57088 49799
L57088 49936
L57066 49982
L57043 50005
L56997 50028
L56905 50028
L56860 50005
" />
<path d="M57363 50028
L57317 50005
L57294 49959
L57294 49547
" />
<path d="M57752 50028
L57752 49776
L57729 49730
L57683 49708
L57592 49708
L57546 49730
" />
<path d="M57752 50005
L57706 50028
L57592 50028
L57546 50005
L57523 49959
L57523 49914
L57546 49868
L57592 49845
L57706 49845
L57752 49822
" />
<path d="M57912 49708
L58095 49708
" />
<path d="M57981 49547
L57981 49959
L58004 50005
L58049 50028
L58095 50028
" />
<path d="M58438 50005
L58392 50028
L58301 50028
L58255 50005
L58232 49959
L58232 49776
L58255 49730
L58301 49708
L58392 49708
L58438 49730
L58461 49776
L58461 49822
L58232 49868
" />
<path d="M58873 50028
L58873 49547
" />
<path d="M58873 50005
L58827 50028
L58736 50028
L58690 50005
L58667 49982
L58644 49936
L58644 49799
L58667 49753
L58690 49730
L58736 49708
L58827 49708
L58873 49730
" />
<path d="M59056 50211
L59079 50188
L59125 50119
L59147 50074
L59170 50005
L59193 49891
L59193 49799
L59170 49685
L59147 49616
L59125 49570
L59079 49502
L59056 49479
" />
</g></g>
<g style="fill:#000000; fill-opacity:0.0; 
stroke:#000000; stroke-width:23.795943; stroke-opacity:1; 
stroke-linecap:round; stroke-linejoin:round;">
<path d="M42715 50326
L42715 50564
" />
<path d="M42596 50445
L42834 50445
" />
</g>
<g style="fill:#000000; fill-opacity:0.0; 
stroke:#000000; stroke-width:48.043494; stroke-opacity:1; 
stroke-linecap:round; stroke-linejoin:round;">
<text x="43315.306955" y="50685.453737"
textLength="16016.785658" font-size="640.579759" lengthAdjust="spacingAndGlyphs"
text-anchor="start" opacity="0">0.991mm / 0.0390" (3 holes) (not plated)</text>
<g class="stroked-text"><desc>0.991mm / 0.0390" (3 holes) (not plated)</desc>
<path d="M43545 50182
L43590 50182
L43636 50205
L43659 50227
L43682 50273
L43705 50365
L43705 50479
L43682 50571
L43659 50616
L43636 50639
L43590 50662
L43545 50662
L43499 50639
L43476 50616
L43453 50571
L43430 50479
L43430 50365
L43453 50273
L43476 50227
L43499 50205
L43545 50182
" />
<path d="M43911 50616
L43934 50639
L43911 50662
L43888 50639
L43911 50616
L43911 50662
" />
<path d="M44162 50662
L44254 50662
L44300 50639
L44323 50616
L44368 50548
L44391 50456
L44391 50273
L44368 50227
L44345 50205
L44300 50182
L44208 50182
L44162 50205
L44140 50227
L44117 50273
L44117 50388
L44140 50433
L44162 50456
L44208 50479
L44300 50479
L44345 50456
L44368 50433
L44391 50388
" />
<path d="M44620 50662
L44711 50662
L44757 50639
L44780 50616
L44826 50548
L44849 50456
L44849 50273
L44826 50227
L44803 50205
L44757 50182
L44666 50182
L44620 50205
L44597 50227
L44574 50273
L44574 50388
L44597 50433
L44620 50456
L44666 50479
L44757 50479
L44803 50456
L44826 50433
L44849 50388
" />
<path d="M45306 50662
L45032 50662
" />
<path d="M45169 50662
L45169 50182
L45123 50250
L45078 50296
L45032 50319
" />
<path d="M45512 50662
L45512 50342
" />
<path d="M45512 50388
L45535 50365
L45581 50342
L45649 50342
L45695 50365
L45718 50410
L45718 50662
" />
<path d="M45718 50410
L45741 50365
L45787 50342
L45855 50342
L45901 50365
L45924 50410
L45924 50662
" />
<path d="M46153 50662
L46153 50342
" />
<path d="M46153 50388
L46176 50365
L46221 50342
L46290 50342
L46336 50365
L46359 50410
L46359 50662
" />
<path d="M46359 50410
L46382 50365
L46427 50342
L46496 50342
L46542 50365
L46565 50410
L46565 50662
" />
<path d="M47503 50159
L47091 50776
" />
<path d="M48120 50182
L48166 50182
L48212 50205
L48235 50227
L48258 50273
L48280 50365
L48280 50479
L48258 50571
L48235 50616
L48212 50639
L48166 50662
L48120 50662
L48075 50639
L48052 50616
L48029 50571
L48006 50479
L48006 50365
L48029 50273
L48052 50227
L48075 50205
L48120 50182
" />
<path d="M48486 50616
L48509 50639
L48486 50662
L48463 50639
L48486 50616
L48486 50662
" />
<path d="M48807 50182
L48852 50182
L48898 50205
L48921 50227
L48944 50273
L48967 50365
L48967 50479
L48944 50571
L48921 50616
L48898 50639
L48852 50662
L48807 50662
L48761 50639
L48738 50616
L48715 50571
L48692 50479
L48692 50365
L48715 50273
L48738 50227
L48761 50205
L48807 50182
" />
<path d="M49127 50182
L49424 50182
L49264 50365
L49333 50365
L49379 50388
L49401 50410
L49424 50456
L49424 50571
L49401 50616
L49379 50639
L49333 50662
L49196 50662
L49150 50639
L49127 50616
" />
<path d="M49653 50662
L49745 50662
L49790 50639
L49813 50616
L49859 50548
L49882 50456
L49882 50273
L49859 50227
L49836 50205
L49790 50182
L49699 50182
L49653 50205
L49630 50227
L49607 50273
L49607 50388
L49630 50433
L49653 50456
L49699 50479
L49790 50479
L49836 50456
L49859 50433
L49882 50388
" />
<path d="M50179 50182
L50225 50182
L50271 50205
L50294 50227
L50317 50273
L50339 50365
L50339 50479
L50317 50571
L50294 50616
L50271 50639
L50225 50662
L50179 50662
L50134 50639
L50111 50616
L50088 50571
L50065 50479
L50065 50365
L50088 50273
L50111 50227
L50134 50205
L50179 50182
" />
<path d="M50522 50182
L50522 50273
" />
<path d="M50705 50182
L50705 50273
" />
<path d="M51415 50845
L51392 50822
L51346 50754
L51323 50708
L51300 50639
L51277 50525
L51277 50433
L51300 50319
L51323 50250
L51346 50205
L51392 50136
L51415 50113
" />
<path d="M51552 50182
L51849 50182
L51689 50365
L51758 50365
L51804 50388
L51827 50410
L51849 50456
L51849 50571
L51827 50616
L51804 50639
L51758 50662
L51621 50662
L51575 50639
L51552 50616
" />
<path d="M52421 50662
L52421 50182
" />
<path d="M52627 50662
L52627 50410
L52604 50365
L52559 50342
L52490 50342
L52444 50365
L52421 50388
" />
<path d="M52925 50662
L52879 50639
L52856 50616
L52833 50571
L52833 50433
L52856 50388
L52879 50365
L52925 50342
L52993 50342
L53039 50365
L53062 50388
L53085 50433
L53085 50571
L53062 50616
L53039 50639
L52993 50662
L52925 50662
" />
<path d="M53359 50662
L53314 50639
L53291 50593
L53291 50182
" />
<path d="M53725 50639
L53680 50662
L53588 50662
L53542 50639
L53519 50593
L53519 50410
L53542 50365
L53588 50342
L53680 50342
L53725 50365
L53748 50410
L53748 50456
L53519 50502
" />
<path d="M53931 50639
L53977 50662
L54069 50662
L54114 50639
L54137 50593
L54137 50571
L54114 50525
L54069 50502
L54000 50502
L53954 50479
L53931 50433
L53931 50410
L53954 50365
L54000 50342
L54069 50342
L54114 50365
" />
<path d="M54297 50845
L54320 50822
L54366 50754
L54389 50708
L54412 50639
L54435 50525
L54435 50433
L54412 50319
L54389 50250
L54366 50205
L54320 50136
L54297 50113
" />
<path d="M55167 50845
L55144 50822
L55098 50754
L55075 50708
L55052 50639
L55029 50525
L55029 50433
L55052 50319
L55075 50250
L55098 50205
L55144 50136
L55167 50113
" />
<path d="M55350 50342
L55350 50662
" />
<path d="M55350 50388
L55373 50365
L55418 50342
L55487 50342
L55533 50365
L55556 50410
L55556 50662
" />
<path d="M55853 50662
L55807 50639
L55784 50616
L55762 50571
L55762 50433
L55784 50388
L55807 50365
L55853 50342
L55922 50342
L55967 50365
L55990 50388
L56013 50433
L56013 50571
L55990 50616
L55967 50639
L55922 50662
L55853 50662
" />
<path d="M56150 50342
L56333 50342
" />
<path d="M56219 50182
L56219 50593
L56242 50639
L56288 50662
L56333 50662
" />
<path d="M56860 50342
L56860 50822
" />
<path d="M56860 50365
L56905 50342
L56997 50342
L57043 50365
L57066 50388
L57088 50433
L57088 50571
L57066 50616
L57043 50639
L56997 50662
L56905 50662
L56860 50639
" />
<path d="M57363 50662
L57317 50639
L57294 50593
L57294 50182
" />
<path d="M57752 50662
L57752 50410
L57729 50365
L57683 50342
L57592 50342
L57546 50365
" />
<path d="M57752 50639
L57706 50662
L57592 50662
L57546 50639
L57523 50593
L57523 50548
L57546 50502
L57592 50479
L57706 50479
L57752 50456
" />
<path d="M57912 50342
L58095 50342
" />
<path d="M57981 50182
L57981 50593
L58004 50639
L58049 50662
L58095 50662
" />
<path d="M58438 50639
L58392 50662
L58301 50662
L58255 50639
L58232 50593
L58232 50410
L58255 50365
L58301 50342
L58392 50342
L58438 50365
L58461 50410
L58461 50456
L58232 50502
" />
<path d="M58873 50662
L58873 50182
" />
<path d="M58873 50639
L58827 50662
L58736 50662
L58690 50639
L58667 50616
L58644 50571
L58644 50433
L58667 50388
L58690 50365
L58736 50342
L58827 50342
L58873 50365
" />
<path d="M59056 50845
L59079 50822
L59125 50754
L59147 50708
L59170 50639
L59193 50525
L59193 50433
L59170 50319
L59147 50250
L59125 50205
L59079 50136
L59056 50113
" />
</g></g>
<g style="fill:#000000; fill-opacity:0.0; 
stroke:#000000; stroke-width:28.826096; stroke-opacity:1; 
stroke-linecap:round; stroke-linejoin:round;">
<path style="fill:#000000; fill-opacity:0.0; 
stroke:#000000; stroke-width:28.826096; stroke-opacity:1; 
stroke-linecap:round; stroke-linejoin:round;fill:none"
d="M 42792.658119,51226.856351
42792.658119,51023.023180
42588.824948,51023.023180
42588.824948,51226.856351
Z" /> 
</g>
<g style="fill:#000000; fill-opacity:0.0; 
stroke:#000000; stroke-width:48.043494; stroke-opacity:1; 
stroke-linecap:round; stroke-linejoin:round;">
<text x="43315.306955" y="51365.157236"
textLength="16016.785658" font-size="640.579759" lengthAdjust="spacingAndGlyphs"
text-anchor="start" opacity="0">1.200mm / 0.0472" (2 holes) (not plated)</text>
<g class="stroked-text"><desc>1.200mm / 0.0472" (2 holes) (not plated)</desc>
<path d="M43705 51342
L43430 51342
" />
<path d="M43568 51342
L43568 50861
L43522 50930
L43476 50976
L43430 50999
" />
<path d="M43911 51296
L43934 51319
L43911 51342
L43888 51319
L43911 51296
L43911 51342
" />
<path d="M44117 50907
L44140 50884
L44185 50861
L44300 50861
L44345 50884
L44368 50907
L44391 50953
L44391 50999
L44368 51067
L44094 51342
L44391 51342
" />
<path d="M44689 50861
L44734 50861
L44780 50884
L44803 50907
L44826 50953
L44849 51044
L44849 51159
L44826 51250
L44803 51296
L44780 51319
L44734 51342
L44689 51342
L44643 51319
L44620 51296
L44597 51250
L44574 51159
L44574 51044
L44597 50953
L44620 50907
L44643 50884
L44689 50861
" />
<path d="M45146 50861
L45192 50861
L45238 50884
L45261 50907
L45283 50953
L45306 51044
L45306 51159
L45283 51250
L45261 51296
L45238 51319
L45192 51342
L45146 51342
L45100 51319
L45078 51296
L45055 51250
L45032 51159
L45032 51044
L45055 50953
L45078 50907
L45100 50884
L45146 50861
" />
<path d="M45512 51342
L45512 51021
" />
<path d="M45512 51067
L45535 51044
L45581 51021
L45649 51021
L45695 51044
L45718 51090
L45718 51342
" />
<path d="M45718 51090
L45741 51044
L45787 51021
L45855 51021
L45901 51044
L45924 51090
L45924 51342
" />
<path d="M46153 51342
L46153 51021
" />
<path d="M46153 51067
L46176 51044
L46221 51021
L46290 51021
L46336 51044
L46359 51090
L46359 51342
" />
<path d="M46359 51090
L46382 51044
L46427 51021
L46496 51021
L46542 51044
L46565 51090
L46565 51342
" />
<path d="M47503 50838
L47091 51456
" />
<path d="M48120 50861
L48166 50861
L48212 50884
L48235 50907
L48258 50953
L48280 51044
L48280 51159
L48258 51250
L48235 51296
L48212 51319
L48166 51342
L48120 51342
L48075 51319
L48052 51296
L48029 51250
L48006 51159
L48006 51044
L48029 50953
L48052 50907
L48075 50884
L48120 50861
" />
<path d="M48486 51296
L48509 51319
L48486 51342
L48463 51319
L48486 51296
L48486 51342
" />
<path d="M48807 50861
L48852 50861
L48898 50884
L48921 50907
L48944 50953
L48967 51044
L48967 51159
L48944 51250
L48921 51296
L48898 51319
L48852 51342
L48807 51342
L48761 51319
L48738 51296
L48715 51250
L48692 51159
L48692 51044
L48715 50953
L48738 50907
L48761 50884
L48807 50861
" />
<path d="M49379 51021
L49379 51342
" />
<path d="M49264 50838
L49150 51182
L49447 51182
" />
<path d="M49584 50861
L49905 50861
L49699 51342
" />
<path d="M50065 50907
L50088 50884
L50134 50861
L50248 50861
L50294 50884
L50317 50907
L50339 50953
L50339 50999
L50317 51067
L50042 51342
L50339 51342
" />
<path d="M50522 50861
L50522 50953
" />
<path d="M50705 50861
L50705 50953
" />
<path d="M51415 51525
L51392 51502
L51346 51433
L51323 51388
L51300 51319
L51277 51205
L51277 51113
L51300 50999
L51323 50930
L51346 50884
L51392 50816
L51415 50793
" />
<path d="M51575 50907
L51598 50884
L51643 50861
L51758 50861
L51804 50884
L51827 50907
L51849 50953
L51849 50999
L51827 51067
L51552 51342
L51849 51342
" />
<path d="M52421 51342
L52421 50861
" />
<path d="M52627 51342
L52627 51090
L52604 51044
L52559 51021
L52490 51021
L52444 51044
L52421 51067
" />
<path d="M52925 51342
L52879 51319
L52856 51296
L52833 51250
L52833 51113
L52856 51067
L52879 51044
L52925 51021
L52993 51021
L53039 51044
L53062 51067
L53085 51113
L53085 51250
L53062 51296
L53039 51319
L52993 51342
L52925 51342
" />
<path d="M53359 51342
L53314 51319
L53291 51273
L53291 50861
" />
<path d="M53725 51319
L53680 51342
L53588 51342
L53542 51319
L53519 51273
L53519 51090
L53542 51044
L53588 51021
L53680 51021
L53725 51044
L53748 51090
L53748 51136
L53519 51182
" />
<path d="M53931 51319
L53977 51342
L54069 51342
L54114 51319
L54137 51273
L54137 51250
L54114 51205
L54069 51182
L54000 51182
L53954 51159
L53931 51113
L53931 51090
L53954 51044
L54000 51021
L54069 51021
L54114 51044
" />
<path d="M54297 51525
L54320 51502
L54366 51433
L54389 51388
L54412 51319
L54435 51205
L54435 51113
L54412 50999
L54389 50930
L54366 50884
L54320 50816
L54297 50793
" />
<path d="M55167 51525
L55144 51502
L55098 51433
L55075 51388
L55052 51319
L55029 51205
L55029 51113
L55052 50999
L55075 50930
L55098 50884
L55144 50816
L55167 50793
" />
<path d="M55350 51021
L55350 51342
" />
<path d="M55350 51067
L55373 51044
L55418 51021
L55487 51021
L55533 51044
L55556 51090
L55556 51342
" />
<path d="M55853 51342
L55807 51319
L55784 51296
L55762 51250
L55762 51113
L55784 51067
L55807 51044
L55853 51021
L55922 51021
L55967 51044
L55990 51067
L56013 51113
L56013 51250
L55990 51296
L55967 51319
L55922 51342
L55853 51342
" />
<path d="M56150 51021
L56333 51021
" />
<path d="M56219 50861
L56219 51273
L56242 51319
L56288 51342
L56333 51342
" />
<path d="M56860 51021
L56860 51502
" />
<path d="M56860 51044
L56905 51021
L56997 51021
L57043 51044
L57066 51067
L57088 51113
L57088 51250
L57066 51296
L57043 51319
L56997 51342
L56905 51342
L56860 51319
" />
<path d="M57363 51342
L57317 51319
L57294 51273
L57294 50861
" />
<path d="M57752 51342
L57752 51090
L57729 51044
L57683 51021
L57592 51021
L57546 51044
" />
<path d="M57752 51319
L57706 51342
L57592 51342
L57546 51319
L57523 51273
L57523 51227
L57546 51182
L57592 51159
L57706 51159
L57752 51136
" />
<path d="M57912 51021
L58095 51021
" />
<path d="M57981 50861
L57981 51273
L58004 51319
L58049 51342
L58095 51342
" />
<path d="M58438 51319
L58392 51342
L58301 51342
L58255 51319
L58232 51273
L58232 51090
L58255 51044
L58301 51021
L58392 51021
L58438 51044
L58461 51090
L58461 51136
L58232 51182
" />
<path d="M58873 51342
L58873 50861
" />
<path d="M58873 51319
L58827 51342
L58736 51342
L58690 51319
L58667 51296
L58644 51250
L58644 51113
L58667 51067
L58690 51044
L58736 51021
L58827 51021
L58873 51044
" />
<path d="M59056 51525
L59079 51502
L59125 51433
L59147 51388
L59170 51319
L59193 51205
L59193 51113
L59170 50999
L59147 50930
L59125 50884
L59079 50816
L59056 50793
" />
</g><path style="fill:#000000; fill-opacity:0.0; 
stroke:#000000; stroke-width:48.043494; stroke-opacity:1; 
stroke-linecap:round; stroke-linejoin:round;fill:none"
d="M 42594.654546,52095.162272
42834.872015,51854.944802
42594.654546,51614.727332
42354.437076,51854.944802
Z" /> 
<text x="43315.306955" y="52095.162272"
textLength="16474.342766" font-size="640.579759" lengthAdjust="spacingAndGlyphs"
text-anchor="start" opacity="0">2.200mm / 0.0866" (12 holes) (not plated)</text>
<g class="stroked-text"><desc>2.200mm / 0.0866" (12 holes) (not plated)</desc>
<path d="M43430 51637
L43453 51614
L43499 51591
L43613 51591
L43659 51614
L43682 51637
L43705 51683
L43705 51729
L43682 51797
L43407 52072
L43705 52072
" />
<path d="M43911 52026
L43934 52049
L43911 52072
L43888 52049
L43911 52026
L43911 52072
" />
<path d="M44117 51637
L44140 51614
L44185 51591
L44300 51591
L44345 51614
L44368 51637
L44391 51683
L44391 51729
L44368 51797
L44094 52072
L44391 52072
" />
<path d="M44689 51591
L44734 51591
L44780 51614
L44803 51637
L44826 51683
L44849 51774
L44849 51889
L44826 51980
L44803 52026
L44780 52049
L44734 52072
L44689 52072
L44643 52049
L44620 52026
L44597 51980
L44574 51889
L44574 51774
L44597 51683
L44620 51637
L44643 51614
L44689 51591
" />
<path d="M45146 51591
L45192 51591
L45238 51614
L45261 51637
L45283 51683
L45306 51774
L45306 51889
L45283 51980
L45261 52026
L45238 52049
L45192 52072
L45146 52072
L45100 52049
L45078 52026
L45055 51980
L45032 51889
L45032 51774
L45055 51683
L45078 51637
L45100 51614
L45146 51591
" />
<path d="M45512 52072
L45512 51751
" />
<path d="M45512 51797
L45535 51774
L45581 51751
L45649 51751
L45695 51774
L45718 51820
L45718 52072
" />
<path d="M45718 51820
L45741 51774
L45787 51751
L45855 51751
L45901 51774
L45924 51820
L45924 52072
" />
<path d="M46153 52072
L46153 51751
" />
<path d="M46153 51797
L46176 51774
L46221 51751
L46290 51751
L46336 51774
L46359 51820
L46359 52072
" />
<path d="M46359 51820
L46382 51774
L46427 51751
L46496 51751
L46542 51774
L46565 51820
L46565 52072
" />
<path d="M47503 51568
L47091 52186
" />
<path d="M48120 51591
L48166 51591
L48212 51614
L48235 51637
L48258 51683
L48280 51774
L48280 51889
L48258 51980
L48235 52026
L48212 52049
L48166 52072
L48120 52072
L48075 52049
L48052 52026
L48029 51980
L48006 51889
L48006 51774
L48029 51683
L48052 51637
L48075 51614
L48120 51591
" />
<path d="M48486 52026
L48509 52049
L48486 52072
L48463 52049
L48486 52026
L48486 52072
" />
<path d="M48807 51591
L48852 51591
L48898 51614
L48921 51637
L48944 51683
L48967 51774
L48967 51889
L48944 51980
L48921 52026
L48898 52049
L48852 52072
L48807 52072
L48761 52049
L48738 52026
L48715 51980
L48692 51889
L48692 51774
L48715 51683
L48738 51637
L48761 51614
L48807 51591
" />
<path d="M49241 51797
L49196 51774
L49173 51751
L49150 51706
L49150 51683
L49173 51637
L49196 51614
L49241 51591
L49333 51591
L49379 51614
L49401 51637
L49424 51683
L49424 51706
L49401 51751
L49379 51774
L49333 51797
L49241 51797
L49196 51820
L49173 51843
L49150 51889
L49150 51980
L49173 52026
L49196 52049
L49241 52072
L49333 52072
L49379 52049
L49401 52026
L49424 51980
L49424 51889
L49401 51843
L49379 51820
L49333 51797
" />
<path d="M49836 51591
L49745 51591
L49699 51614
L49676 51637
L49630 51706
L49607 51797
L49607 51980
L49630 52026
L49653 52049
L49699 52072
L49790 52072
L49836 52049
L49859 52026
L49882 51980
L49882 51866
L49859 51820
L49836 51797
L49790 51774
L49699 51774
L49653 51797
L49630 51820
L49607 51866
" />
<path d="M50294 51591
L50202 51591
L50156 51614
L50134 51637
L50088 51706
L50065 51797
L50065 51980
L50088 52026
L50111 52049
L50156 52072
L50248 52072
L50294 52049
L50317 52026
L50339 51980
L50339 51866
L50317 51820
L50294 51797
L50248 51774
L50156 51774
L50111 51797
L50088 51820
L50065 51866
" />
<path d="M50522 51591
L50522 51683
" />
<path d="M50705 51591
L50705 51683
" />
<path d="M51415 52255
L51392 52232
L51346 52163
L51323 52118
L51300 52049
L51277 51935
L51277 51843
L51300 51729
L51323 51660
L51346 51614
L51392 51546
L51415 51523
" />
<path d="M51849 52072
L51575 52072
" />
<path d="M51712 52072
L51712 51591
L51666 51660
L51621 51706
L51575 51729
" />
<path d="M52032 51637
L52055 51614
L52101 51591
L52215 51591
L52261 51614
L52284 51637
L52307 51683
L52307 51729
L52284 51797
L52010 52072
L52307 52072
" />
<path d="M52879 52072
L52879 51591
" />
<path d="M53085 52072
L53085 51820
L53062 51774
L53016 51751
L52948 51751
L52902 51774
L52879 51797
" />
<path d="M53382 52072
L53336 52049
L53314 52026
L53291 51980
L53291 51843
L53314 51797
L53336 51774
L53382 51751
L53451 51751
L53497 51774
L53519 51797
L53542 51843
L53542 51980
L53519 52026
L53497 52049
L53451 52072
L53382 52072
" />
<path d="M53817 52072
L53771 52049
L53748 52003
L53748 51591
" />
<path d="M54183 52049
L54137 52072
L54046 52072
L54000 52049
L53977 52003
L53977 51820
L54000 51774
L54046 51751
L54137 51751
L54183 51774
L54206 51820
L54206 51866
L53977 51912
" />
<path d="M54389 52049
L54435 52072
L54526 52072
L54572 52049
L54595 52003
L54595 51980
L54572 51935
L54526 51912
L54457 51912
L54412 51889
L54389 51843
L54389 51820
L54412 51774
L54457 51751
L54526 51751
L54572 51774
" />
<path d="M54755 52255
L54778 52232
L54824 52163
L54846 52118
L54869 52049
L54892 51935
L54892 51843
L54869 51729
L54846 51660
L54824 51614
L54778 51546
L54755 51523
" />
<path d="M55624 52255
L55601 52232
L55556 52163
L55533 52118
L55510 52049
L55487 51935
L55487 51843
L55510 51729
L55533 51660
L55556 51614
L55601 51546
L55624 51523
" />
<path d="M55807 51751
L55807 52072
" />
<path d="M55807 51797
L55830 51774
L55876 51751
L55945 51751
L55990 51774
L56013 51820
L56013 52072
" />
<path d="M56311 52072
L56265 52049
L56242 52026
L56219 51980
L56219 51843
L56242 51797
L56265 51774
L56311 51751
L56379 51751
L56425 51774
L56448 51797
L56471 51843
L56471 51980
L56448 52026
L56425 52049
L56379 52072
L56311 52072
" />
<path d="M56608 51751
L56791 51751
" />
<path d="M56677 51591
L56677 52003
L56699 52049
L56745 52072
L56791 52072
" />
<path d="M57317 51751
L57317 52232
" />
<path d="M57317 51774
L57363 51751
L57454 51751
L57500 51774
L57523 51797
L57546 51843
L57546 51980
L57523 52026
L57500 52049
L57454 52072
L57363 52072
L57317 52049
" />
<path d="M57821 52072
L57775 52049
L57752 52003
L57752 51591
" />
<path d="M58209 52072
L58209 51820
L58187 51774
L58141 51751
L58049 51751
L58004 51774
" />
<path d="M58209 52049
L58164 52072
L58049 52072
L58004 52049
L57981 52003
L57981 51957
L58004 51912
L58049 51889
L58164 51889
L58209 51866
" />
<path d="M58370 51751
L58553 51751
" />
<path d="M58438 51591
L58438 52003
L58461 52049
L58507 52072
L58553 52072
" />
<path d="M58896 52049
L58850 52072
L58759 52072
L58713 52049
L58690 52003
L58690 51820
L58713 51774
L58759 51751
L58850 51751
L58896 51774
L58919 51820
L58919 51866
L58690 51912
" />
<path d="M59330 52072
L59330 51591
" />
<path d="M59330 52049
L59285 52072
L59193 52072
L59147 52049
L59125 52026
L59102 51980
L59102 51843
L59125 51797
L59147 51774
L59193 51751
L59285 51751
L59330 51774
" />
<path d="M59513 52255
L59536 52232
L59582 52163
L59605 52118
L59628 52049
L59651 51935
L59651 51843
L59628 51729
L59605 51660
L59582 51614
L59536 51546
L59513 51523
" />
</g><path d="M42354 52536
L42834 53017
" />
<path d="M42834 52536
L42354 53017
" />
<circle cx="42594.654546" cy="52777.123815" r="240.217470" /> 
<text x="43315.306955" y="53017.341284"
textLength="15627.862284" font-size="640.579759" lengthAdjust="spacingAndGlyphs"
text-anchor="start" opacity="0">3.000mm / 0.1181" (1 hole) (not plated)</text>
<g class="stroked-text"><desc>3.000mm / 0.1181" (1 hole) (not plated)</desc>
<path d="M43407 52514
L43705 52514
L43545 52697
L43613 52697
L43659 52719
L43682 52742
L43705 52788
L43705 52902
L43682 52948
L43659 52971
L43613 52994
L43476 52994
L43430 52971
L43407 52948
" />
<path d="M43911 52948
L43934 52971
L43911 52994
L43888 52971
L43911 52948
L43911 52994
" />
<path d="M44231 52514
L44277 52514
L44323 52536
L44345 52559
L44368 52605
L44391 52697
L44391 52811
L44368 52902
L44345 52948
L44323 52971
L44277 52994
L44231 52994
L44185 52971
L44162 52948
L44140 52902
L44117 52811
L44117 52697
L44140 52605
L44162 52559
L44185 52536
L44231 52514
" />
<path d="M44689 52514
L44734 52514
L44780 52536
L44803 52559
L44826 52605
L44849 52697
L44849 52811
L44826 52902
L44803 52948
L44780 52971
L44734 52994
L44689 52994
L44643 52971
L44620 52948
L44597 52902
L44574 52811
L44574 52697
L44597 52605
L44620 52559
L44643 52536
L44689 52514
" />
<path d="M45146 52514
L45192 52514
L45238 52536
L45261 52559
L45283 52605
L45306 52697
L45306 52811
L45283 52902
L45261 52948
L45238 52971
L45192 52994
L45146 52994
L45100 52971
L45078 52948
L45055 52902
L45032 52811
L45032 52697
L45055 52605
L45078 52559
L45100 52536
L45146 52514
" />
<path d="M45512 52994
L45512 52674
" />
<path d="M45512 52719
L45535 52697
L45581 52674
L45649 52674
L45695 52697
L45718 52742
L45718 52994
" />
<path d="M45718 52742
L45741 52697
L45787 52674
L45855 52674
L45901 52697
L45924 52742
L45924 52994
" />
<path d="M46153 52994
L46153 52674
" />
<path d="M46153 52719
L46176 52697
L46221 52674
L46290 52674
L46336 52697
L46359 52742
L46359 52994
" />
<path d="M46359 52742
L46382 52697
L46427 52674
L46496 52674
L46542 52697
L46565 52742
L46565 52994
" />
<path d="M47503 52491
L47091 53108
" />
<path d="M48120 52514
L48166 52514
L48212 52536
L48235 52559
L48258 52605
L48280 52697
L48280 52811
L48258 52902
L48235 52948
L48212 52971
L48166 52994
L48120 52994
L48075 52971
L48052 52948
L48029 52902
L48006 52811
L48006 52697
L48029 52605
L48052 52559
L48075 52536
L48120 52514
" />
<path d="M48486 52948
L48509 52971
L48486 52994
L48463 52971
L48486 52948
L48486 52994
" />
<path d="M48967 52994
L48692 52994
" />
<path d="M48830 52994
L48830 52514
L48784 52582
L48738 52628
L48692 52651
" />
<path d="M49424 52994
L49150 52994
" />
<path d="M49287 52994
L49287 52514
L49241 52582
L49196 52628
L49150 52651
" />
<path d="M49699 52719
L49653 52697
L49630 52674
L49607 52628
L49607 52605
L49630 52559
L49653 52536
L49699 52514
L49790 52514
L49836 52536
L49859 52559
L49882 52605
L49882 52628
L49859 52674
L49836 52697
L49790 52719
L49699 52719
L49653 52742
L49630 52765
L49607 52811
L49607 52902
L49630 52948
L49653 52971
L49699 52994
L49790 52994
L49836 52971
L49859 52948
L49882 52902
L49882 52811
L49859 52765
L49836 52742
L49790 52719
" />
<path d="M50339 52994
L50065 52994
" />
<path d="M50202 52994
L50202 52514
L50156 52582
L50111 52628
L50065 52651
" />
<path d="M50522 52514
L50522 52605
" />
<path d="M50705 52514
L50705 52605
" />
<path d="M51415 53177
L51392 53154
L51346 53085
L51323 53040
L51300 52971
L51277 52857
L51277 52765
L51300 52651
L51323 52582
L51346 52536
L51392 52468
L51415 52445
" />
<path d="M51849 52994
L51575 52994
" />
<path d="M51712 52994
L51712 52514
L51666 52582
L51621 52628
L51575 52651
" />
<path d="M52421 52994
L52421 52514
" />
<path d="M52627 52994
L52627 52742
L52604 52697
L52559 52674
L52490 52674
L52444 52697
L52421 52719
" />
<path d="M52925 52994
L52879 52971
L52856 52948
L52833 52902
L52833 52765
L52856 52719
L52879 52697
L52925 52674
L52993 52674
L53039 52697
L53062 52719
L53085 52765
L53085 52902
L53062 52948
L53039 52971
L52993 52994
L52925 52994
" />
<path d="M53359 52994
L53314 52971
L53291 52925
L53291 52514
" />
<path d="M53725 52971
L53680 52994
L53588 52994
L53542 52971
L53519 52925
L53519 52742
L53542 52697
L53588 52674
L53680 52674
L53725 52697
L53748 52742
L53748 52788
L53519 52834
" />
<path d="M53908 53177
L53931 53154
L53977 53085
L54000 53040
L54023 52971
L54046 52857
L54046 52765
L54023 52651
L54000 52582
L53977 52536
L53931 52468
L53908 52445
" />
<path d="M54778 53177
L54755 53154
L54709 53085
L54686 53040
L54663 52971
L54640 52857
L54640 52765
L54663 52651
L54686 52582
L54709 52536
L54755 52468
L54778 52445
" />
<path d="M54961 52674
L54961 52994
" />
<path d="M54961 52719
L54984 52697
L55029 52674
L55098 52674
L55144 52697
L55167 52742
L55167 52994
" />
<path d="M55464 52994
L55418 52971
L55395 52948
L55373 52902
L55373 52765
L55395 52719
L55418 52697
L55464 52674
L55533 52674
L55578 52697
L55601 52719
L55624 52765
L55624 52902
L55601 52948
L55578 52971
L55533 52994
L55464 52994
" />
<path d="M55762 52674
L55945 52674
" />
<path d="M55830 52514
L55830 52925
L55853 52971
L55899 52994
L55945 52994
" />
<path d="M56471 52674
L56471 53154
" />
<path d="M56471 52697
L56516 52674
L56608 52674
L56654 52697
L56677 52719
L56699 52765
L56699 52902
L56677 52948
L56654 52971
L56608 52994
L56516 52994
L56471 52971
" />
<path d="M56974 52994
L56928 52971
L56905 52925
L56905 52514
" />
<path d="M57363 52994
L57363 52742
L57340 52697
L57294 52674
L57203 52674
L57157 52697
" />
<path d="M57363 52971
L57317 52994
L57203 52994
L57157 52971
L57134 52925
L57134 52880
L57157 52834
L57203 52811
L57317 52811
L57363 52788
" />
<path d="M57523 52674
L57706 52674
" />
<path d="M57592 52514
L57592 52925
L57615 52971
L57660 52994
L57706 52994
" />
<path d="M58049 52971
L58004 52994
L57912 52994
L57866 52971
L57843 52925
L57843 52742
L57866 52697
L57912 52674
L58004 52674
L58049 52697
L58072 52742
L58072 52788
L57843 52834
" />
<path d="M58484 52994
L58484 52514
" />
<path d="M58484 52971
L58438 52994
L58347 52994
L58301 52971
L58278 52948
L58255 52902
L58255 52765
L58278 52719
L58301 52697
L58347 52674
L58438 52674
L58484 52697
" />
<path d="M58667 53177
L58690 53154
L58736 53085
L58759 53040
L58781 52971
L58804 52857
L58804 52765
L58781 52651
L58759 52582
L58736 52536
L58690 52468
L58667 52445
" />
</g></g> 
</svg>
