M48
; DRILL file {KiCad (6.0.9)} date Fri Apr 21 13:17:31 2023
; FORMAT={-:-/ absolute / metric / decimal}
; #@! TF.CreationDate,2023-04-21T13:17:31-03:00
; #@! TF.GenerationSoftware,Kicad,Pcbnew,(6.0.9)
; #@! TF.FileFunction,Plated,1,2,PTH
FMAT,2
METRIC
; #@! TA.AperFunction,Plated,PTH,ViaDrill
T1C0.300
; #@! TA.AperFunction,Plated,PTH,ViaDrill
T2C0.400
; #@! TA.AperFunction,Plated,PTH,ComponentDrill
T3C0.600
; #@! TA.AperFunction,Plated,PTH,ComponentDrill
T4C0.750
; #@! TA.AperFunction,Plated,PTH,ViaDrill
T5C0.800
; #@! TA.AperFunction,Plated,PTH,ComponentDrill
T6C0.800
; #@! TA.AperFunction,Plated,PTH,ComponentDrill
T7C1.250
; #@! TA.AperFunction,Plated,PTH,ComponentDrill
T8C1.800
; #@! TA.AperFunction,Plated,PTH,ComponentDrill
T9C2.000
; #@! TA.AperFunction,Plated,PTH,ComponentDrill
T10C2.200
%
G90
G05
T1
X145.64Y-169.122
X147.139Y-173.236
X147.218Y-184.353
X148.079Y-178.189
X148.328Y-170.35
X148.346Y-171.751
X149.552Y-173.77
X149.704Y-168.233
X150.416Y-170.366
X150.416Y-171.763
X150.61Y-167.226
X151.13Y-160.452
X151.406Y-167.877
X151.406Y-171.357
X151.535Y-174.576
X151.638Y-201.244
X151.813Y-170.366
X152.295Y-177.123
X152.372Y-175.649
X152.375Y-199.314
X152.676Y-180.12
X152.778Y-182.99
X153.145Y-195.231
X153.222Y-185.898
X153.791Y-169.68
X153.791Y-170.47
X153.791Y-171.687
X154.073Y-190.407
X154.085Y-185.899
X154.56Y-173.461
X154.657Y-193.379
X155.343Y-170.595
X155.343Y-193.048
X155.75Y-172.576
X155.851Y-179.358
X156.029Y-169.68
X157.248Y-189.416
X160.274Y-170.51
X161.49Y-199.068
X162.789Y-175.324
X163.547Y-199.246
X165.125Y-184.506
X166.951Y-173.696
X167.002Y-172.957
X174.904Y-64.541
X177.724Y-164.795
X177.952Y-180.391
X178.181Y-200.152
X178.34Y-81.63
X179.832Y-189.078
X180.289Y-125.197
X180.924Y-202.006
X180.95Y-212.141
X181.153Y-200.076
X181.331Y-154.762
X181.372Y-78.994
X181.488Y-93.874
X181.915Y-151.308
X182.017Y-95.251
X182.202Y-78.88
X182.21Y-86.741
X182.245Y-125.857
X182.372Y-187.214
X182.504Y-134.967
X182.845Y-83.515
X182.902Y-78.881
X183.21Y-163.271
X183.312Y-225.323
X183.363Y-189.89
X183.464Y-177.546
X183.617Y-159.41
X184.064Y-187.214
X184.445Y-96.291
X184.506Y-170.078
X184.556Y-194.081
X184.568Y-77.643
X185.065Y-94.895
X185.08Y-86.817
X185.598Y-197.536
X186.08Y-65.481
X186.136Y-81.04
X186.502Y-97.892
X186.563Y-135.712
X186.588Y-155.651
X186.614Y-188.9
X186.685Y-126.553
X186.9Y-168.453
X186.903Y-173.009
X187.173Y-183.972
X187.477Y-179.908
X187.553Y-93.966
X187.6Y-165.553
X187.6Y-168.453
X187.604Y-137.516
X187.607Y-171.529
X187.731Y-176.301
X187.841Y-158.606
X188.036Y-117.958
X188.194Y-128.135
X188.207Y-157.912
X188.232Y-140.386
X188.29Y-241.224
X188.299Y-168.453
X188.31Y-170.048
X188.524Y-128.821
X188.951Y-176.936
X189.001Y-173.66
X189.078Y-194.361
X189.325Y-223.65
X189.55Y-177.495
X189.55Y-178.29
X189.913Y-139.173
X190.009Y-178.824
X190.356Y-139.722
X190.678Y-209.575
X190.688Y-186.065
X190.729Y-161.9
X191.033Y-182.372
X191.069Y-177.16
X191.166Y-127.551
X191.287Y-167.183
X191.468Y-187.214
X191.875Y-62.725
X191.897Y-186.08
X192.156Y-130.726
X192.316Y-185.521
X192.354Y-202.235
X192.481Y-168.758
X192.794Y-209.448
X192.913Y-133.833
X192.964Y-171.602
X192.964Y-214.655
X193.065Y-189.255
X193.251Y-181.501
X193.329Y-180.508
X193.472Y-168.605
X193.497Y-178.994
X193.544Y-209.448
X193.675Y-176.454
X193.883Y-191.063
X193.929Y-236.474
X193.954Y-140.106
X194.021Y-84.963
X194.27Y-214.554
X194.335Y-196.647
X194.432Y-192.212
X194.437Y-164.008
X194.869Y-181.077
X194.945Y-190.83
X194.97Y-193.548
X195.072Y-184.204
X195.189Y-75.768
X195.377Y-186.538
X195.453Y-177.47
X195.673Y-127.562
X195.674Y-126.7
X195.751Y-182.993
X195.91Y-219.024
X196.125Y-85.05
X196.24Y-178.968
X196.469Y-188.087
X196.535Y-74.244
X196.545Y-152.121
X196.621Y-161.95
X197.079Y-95.352
X197.17Y-77.521
X197.485Y-183.413
X197.882Y-65.608
X198.374Y-186.944
X198.415Y-79.477
X198.562Y-175.728
X198.582Y-126.255
X198.593Y-89.408
X198.653Y-179.502
X198.84Y-194.242
X199.017Y-177.343
X199.101Y-81.016
X199.39Y-172.436
X199.408Y-176.598
X199.426Y-76.576
X199.517Y-196.545
X199.54Y-194.243
X199.619Y-167.64
X199.669Y-177.698
X200.074Y-190.644
X200.09Y-172.436
X200.193Y-83.642
X200.584Y-189.459
X200.587Y-188.759
X200.812Y-219.964
X200.828Y-98.984
X201.006Y-79.197
X201.438Y-68.859
X201.453Y-126.154
X201.641Y-85.827
X201.803Y-54.762
X201.828Y-93.802
X201.924Y-168.586
X202.133Y-153.822
X202.159Y-170.028
X202.215Y-129.329
X202.311Y-185.106
X202.327Y-82.296
X202.327Y-83.693
X202.641Y-194.208
X202.717Y-164.186
X202.9Y-182.026
X203.251Y-160.706
X203.256Y-80.126
X203.383Y-121.556
X203.451Y-181.476
X203.499Y-176.246
X203.505Y-165.252
X203.631Y-169.242
X203.724Y-82.296
X203.724Y-83.693
X203.886Y-185.75
X204.028Y-66.218
X204.257Y-89.103
X204.45Y-125.773
X204.47Y-189.687
X204.741Y-169.702
X205.207Y-177.013
X205.283Y-164.211
X205.292Y-164.91
X205.562Y-185.268
X205.69Y-169.601
X205.824Y-83.751
X205.918Y-181.407
X205.923Y-125.849
X206.238Y-85.903
X206.286Y-182.766
X206.299Y-173.101
X206.35Y-177.952
X206.502Y-158.445
X206.527Y-208.61
X206.568Y-68.885
X206.654Y-165.278
X206.67Y-88.24
X206.959Y-154.788
X206.994Y-185.258
X206.997Y-125.013
X207.086Y-177.952
X207.298Y-169.732
X207.427Y-181.914
X207.442Y-217.627
X207.762Y-98.806
X207.803Y-123.029
X207.848Y-221.64
X207.965Y-74.879
X208.112Y-128.037
X208.178Y-213.868
X208.182Y-169.625
X208.27Y-81.229
X208.331Y-176.098
X208.336Y-120.616
X208.636Y-163.627
X208.813Y-191.16
X208.966Y-185.623
X208.996Y-129.227
X209.159Y-86.97
X209.372Y-179.451
X209.398Y-169.824
X209.575Y-193.497
X209.753Y-167.031
X209.809Y-123.893
X209.822Y-121.823
X209.885Y-127.268
X209.931Y-196.52
X209.947Y-66.015
X210.083Y-186.563
X210.216Y-124.884
X210.639Y-190.195
X210.769Y-183.896
X210.978Y-128.821
X210.998Y-94.31
X211.049Y-152.146
X211.102Y-127.268
X211.206Y-123.893
X211.206Y-125.29
X211.222Y-121.805
X211.252Y-172.771
X211.41Y-97.96
X211.486Y-175.535
X211.531Y-199.517
X211.633Y-217.195
X211.684Y-159.995
X211.723Y-182.492
X211.836Y-181.204
X211.892Y-127.268
X211.892Y-129.506
X211.979Y-162.331
X212.045Y-181.871
X212.115Y-173.126
X212.307Y-173.86
X212.307Y-174.61
X212.369Y-168.072
X212.447Y-176.342
X212.451Y-119.118
X212.474Y-67.056
X212.547Y-212.979
X212.598Y-202.209
X212.831Y-179.76
X212.847Y-178.538
X212.979Y-193.243
X213.141Y-164.541
X213.157Y-217.205
X213.178Y-174.614
X213.182Y-197.942
X213.233Y-177.292
X213.236Y-165.555
X213.296Y-177.989
X213.34Y-123.182
X213.664Y-92.847
X213.69Y-154.254
X213.695Y-124.884
X213.82Y-172.491
X213.912Y-70.412
X214.02Y-168.326
X214.279Y-94.361
X214.34Y-181.574
X214.347Y-124.087
X214.35Y-65.125
X214.401Y-194.996
X214.54Y-225.75
X214.732Y-180.492
X214.757Y-169.139
X214.808Y-177.288
X215.034Y-94.384
X215.392Y-151.384
X215.697Y-178.003
X215.722Y-184.048
X215.748Y-187.782
X216.408Y-87.478
X216.84Y-170.79
X217.094Y-159.741
X217.11Y-225.11
X217.13Y-228.18
X218.44Y-95.428
X218.51Y-236.7
X218.69Y-234.17
X218.818Y-195.986
X218.849Y-166.266
X218.999Y-194.056
X219.304Y-191.643
X219.583Y-180.696
X220.13Y-224.93
X220.142Y-194.691
X220.408Y-199.326
X220.675Y-176.505
X220.951Y-173.942
X220.955Y-164.465
X221.107Y-185.039
X221.221Y-169.196
X221.285Y-155.778
X221.47Y-99.76
X222.021Y-182.321
X222.278Y-168.694
X222.479Y-189.179
X222.656Y-170.295
X223.114Y-161.493
X223.317Y-200.33
X223.647Y-210.261
X223.723Y-171.247
X224.206Y-178.079
X224.206Y-194.615
X224.257Y-183.693
X224.384Y-166.751
X224.612Y-188.646
X224.7Y-80.875
X224.7Y-80.875
X224.841Y-159.741
X225.05Y-225.08
X225.112Y-189.933
X225.374Y-155.296
X225.577Y-119.126
X225.755Y-191.287
X225.755Y-217.399
X226.162Y-200.533
X226.25Y-239.56
X226.289Y-164.567
X226.328Y-177.114
X226.328Y-181.712
X226.365Y-199.187
X226.644Y-154.94
X226.771Y-185.598
X227.508Y-174.015
X227.686Y-83.464
X227.899Y-179.613
X228.27Y-168.732
X229.235Y-182.22
X229.413Y-187.376
X229.997Y-155.143
X240.563Y-167.996
X243.865Y-169.795
X243.865Y-170.495
X244.436Y-155.679
X245.669Y-165.151
X246.177Y-168.148
X246.493Y-155.857
X250.735Y-165.509
X251.954Y-185.245
X252.132Y-175.568
X252.234Y-182.349
X252.64Y-161.877
X252.64Y-184.331
X253.326Y-161.547
X253.423Y-181.465
X253.898Y-169.026
X253.91Y-164.519
X254.193Y-183.238
X254.193Y-184.455
X254.193Y-185.245
X254.761Y-169.027
X254.971Y-160.31
X255.143Y-194.285
X255.206Y-171.935
X255.307Y-174.806
X255.6Y-155.677
X255.612Y-179.276
X255.688Y-177.803
X256.171Y-184.559
X256.311Y-153.645
X256.448Y-180.349
X256.577Y-183.569
X256.577Y-187.048
X257.374Y-187.7
X257.568Y-183.162
X257.568Y-184.559
X258.279Y-186.693
X258.431Y-181.156
X259.638Y-183.175
X259.656Y-184.575
X259.905Y-176.736
X260.844Y-181.689
X262.343Y-185.804
X263.5Y-199.212
X263.703Y-168.859
T2
X178.92Y-84.96
X179.505Y-76.655
X183.575Y-89.4
X186.76Y-234.92
X190.45Y-66.3
X192.32Y-237.29
X195.323Y-86.777
X195.425Y-93.425
X198.3Y-67.1
X205.25Y-96.8
X207.275Y-95.125
X208.7Y-101.8
X211.05Y-95.25
X211.3Y-74.275
X218.675Y-67.25
X222.75Y-88.95
X227.686Y-77.241
X229.205Y-88.646
T4
X197.975Y-101.825
X199.975Y-101.825
X202.962Y-158.081
X204.925Y-101.8
X204.962Y-158.081
X206.925Y-101.8
T5
X185.45Y-229.29
X206.621Y-226.689
T6
X201.207Y-214.847
X201.207Y-225.007
T7
X198.608Y-94.136
X198.918Y-68.845
X203.688Y-94.136
X203.998Y-68.845
X208.768Y-94.136
X209.078Y-68.845
T8
X175.998Y-71.439
X175.998Y-91.439
X183.54Y-71.36
X183.54Y-91.36
X191.998Y-60.189
X191.998Y-80.189
X191.998Y-82.689
X191.998Y-102.689
X199.498Y-71.389
X199.498Y-91.389
X207.998Y-71.439
X207.998Y-91.439
X215.998Y-60.189
X215.998Y-80.189
X215.998Y-82.689
X215.998Y-102.689
X224.4Y-71.45
X224.4Y-91.45
X231.998Y-71.439
X231.998Y-91.439
T9
X157.975Y-157.919
X157.975Y-196.919
X184.61Y-131.453
X223.61Y-131.453
X250.008Y-157.963
X250.008Y-196.963
T10
X186.998Y-219.963
X192.998Y-220.003
X214.998Y-219.963
X220.998Y-219.963
T3
X217.278Y-209.826G85X217.278Y-209.226
G05
X217.278Y-214.256G85X217.278Y-213.156
G05
X225.918Y-209.826G85X225.918Y-209.226
G05
X225.918Y-214.256G85X225.918Y-213.156
G05
T0
M30
