G04 #@! TF.GenerationSoftware,KiCad,Pcbnew,(6.0.9)*
G04 #@! TF.CreationDate,2023-04-21T13:17:05-03:00*
G04 #@! TF.ProjectId,PANEL-COMPLETE,50414e45-4c2d-4434-9f4d-504c4554452e,Rev 3*
G04 #@! TF.SameCoordinates,Original*
G04 #@! TF.FileFunction,Profile,NP*
%FSLAX46Y46*%
G04 Gerber Fmt 4.6, Leading zero omitted, Abs format (unit mm)*
G04 Created by KiCad (PCBNEW (6.0.9)) date 2023-04-21 13:17:05*
%MOMM*%
%LPD*%
G01*
G04 APERTURE LIST*
G04 #@! TA.AperFunction,Profile*
%ADD10C,0.100000*%
G04 #@! TD*
G04 #@! TA.AperFunction,Profile*
%ADD11C,0.120000*%
G04 #@! TD*
G04 APERTURE END LIST*
D10*
X180898325Y-95539200D02*
G75*
G03*
X178698325Y-95539200I-1100000J0D01*
G01*
X226348275Y-203462925D02*
G75*
G03*
X225348325Y-202462925I-999975J25D01*
G01*
X226398325Y-150062725D02*
X225120772Y-150062725D01*
X180898325Y-191562725D02*
G75*
G03*
X178698325Y-191562725I-1100000J0D01*
G01*
X229298325Y-95539200D02*
X229298325Y-102539200D01*
X162975175Y-154462725D02*
X150975175Y-154462725D01*
X216848325Y-204862925D02*
X216848325Y-203462925D01*
X176598325Y-199862725D02*
X176598325Y-198578581D01*
X267008325Y-202462725D02*
X267008325Y-199212725D01*
X226998325Y-218462725D02*
X228998325Y-218462725D01*
X229109800Y-146452525D02*
X229109800Y-136452525D01*
X207498289Y-206862725D02*
X210998325Y-206862725D01*
X182248325Y-240462725D02*
X182248325Y-242462725D01*
X196998325Y-206862725D02*
X200498361Y-206862725D01*
X171998325Y-52439200D02*
X235998325Y-52439200D01*
X225098325Y-106739200D02*
X218098325Y-106739200D01*
X171998325Y-110439200D02*
X171998325Y-52439200D01*
X218095000Y-112452525D02*
X217559800Y-112452525D01*
X225998325Y-218962725D02*
G75*
G03*
X225998325Y-218962725I-500000J0D01*
G01*
X233408325Y-164012725D02*
X235008325Y-164012725D01*
X226398325Y-204862725D02*
X231398325Y-199862725D01*
X225098325Y-106739200D02*
G75*
G03*
X225098325Y-104539200I-25J1100000D01*
G01*
X267008325Y-155712725D02*
X267008325Y-154462725D01*
X233408325Y-199212725D02*
X235008325Y-199212725D01*
X226398325Y-204862725D02*
X226348325Y-204862925D01*
X233408325Y-155712725D02*
X235008325Y-155712725D01*
X197648325Y-200562675D02*
G75*
G03*
X197648325Y-202762725I-25J-1100025D01*
G01*
X227098325Y-191562725D02*
X227098325Y-198562725D01*
X227109800Y-124452525D02*
X229109800Y-124452525D01*
X231398325Y-156346583D02*
X231398325Y-155062725D01*
X182889500Y-148052525D02*
X182359800Y-148052525D01*
X174575175Y-199212725D02*
X172975175Y-199212725D01*
X228998325Y-218462725D02*
X228998325Y-230462725D01*
X180898325Y-60339200D02*
G75*
G03*
X178698325Y-60339200I-1100000J0D01*
G01*
X190659800Y-148052525D02*
X189906350Y-148052525D01*
X182890588Y-112452525D02*
X182359800Y-112452525D01*
X225061486Y-110439279D02*
G75*
G03*
X225163041Y-112452525I50814J-1006621D01*
G01*
X225098325Y-58339200D02*
G75*
G03*
X225098325Y-56139200I-25J1100000D01*
G01*
X190548325Y-240462725D02*
X190548325Y-242462725D01*
X225859800Y-148052525D02*
X225859800Y-146452525D01*
X229298325Y-156362725D02*
G75*
G03*
X227098325Y-156362725I-1100000J0D01*
G01*
X233408347Y-163388868D02*
G75*
G03*
X231398325Y-163363200I-1004847J25668D01*
G01*
X178698325Y-191562725D02*
X178698325Y-198562725D01*
X235008325Y-199212725D02*
X235008325Y-202462725D01*
X225113650Y-148052475D02*
G75*
G03*
X225120772Y-150062725I3550J-1005125D01*
G01*
X229298325Y-95539200D02*
G75*
G03*
X227098325Y-95539200I-1100000J0D01*
G01*
X140975175Y-190912725D02*
X138975175Y-190912725D01*
X233408325Y-191566800D02*
X233408325Y-190912725D01*
X140975175Y-164012725D02*
X140975175Y-190912725D01*
X150975175Y-200462725D02*
X150975175Y-202462725D01*
X231398325Y-199862725D02*
X231398325Y-198558650D01*
X267008325Y-154462725D02*
X257008325Y-154462725D01*
X182880552Y-110439200D02*
X171998325Y-110439200D01*
X176598325Y-163383882D02*
G75*
G03*
X174575175Y-163383882I-1011575J0D01*
G01*
X174575225Y-156341568D02*
G75*
G03*
X176598325Y-156331568I1011575J-32D01*
G01*
X196998325Y-206862725D02*
X196998325Y-208462725D01*
X162975175Y-202462725D02*
X162975175Y-200462725D01*
X227098325Y-67339200D02*
G75*
G03*
X229298325Y-67339200I1100000J0D01*
G01*
X182248325Y-240462725D02*
X178998325Y-240462725D01*
X267008325Y-155712725D02*
X269008325Y-155712725D01*
X182898325Y-104539200D02*
G75*
G03*
X182898325Y-106739200I-25J-1100000D01*
G01*
X174575175Y-190912725D02*
X172975175Y-190912725D01*
X162975175Y-200462725D02*
X172975175Y-200462725D01*
X190659800Y-146452525D02*
X217559800Y-146452525D01*
X229109800Y-114452525D02*
X225859800Y-114452525D01*
X229298325Y-163362725D02*
X229298325Y-156362725D01*
X218093900Y-150062725D02*
X189916350Y-150062725D01*
X178998325Y-208462725D02*
X196998325Y-208462725D01*
X178698325Y-163362725D02*
G75*
G03*
X180898325Y-163362725I1100000J0D01*
G01*
X172975175Y-200462725D02*
X172975175Y-199212725D01*
X210998325Y-206862725D02*
X210998325Y-208462725D01*
X203954000Y-220962725D02*
G75*
G03*
X203954000Y-220962725I-500000J0D01*
G01*
X269008325Y-199212725D02*
X269008325Y-190912725D01*
X218095000Y-112452600D02*
G75*
G03*
X218095000Y-110439200I0J1006700D01*
G01*
X203954000Y-218962725D02*
G75*
G03*
X203954000Y-218962725I-500000J0D01*
G01*
X174575175Y-190912725D02*
X174575175Y-191566764D01*
X182898325Y-154362725D02*
X189898325Y-154362725D01*
X179109800Y-124452525D02*
X179109800Y-136452525D01*
X140975175Y-199212725D02*
X138975175Y-199212725D01*
X231398325Y-191558650D02*
X231398325Y-163363200D01*
X218098325Y-56139200D02*
X225098325Y-56139200D01*
X189906350Y-148052474D02*
G75*
G03*
X189916350Y-150062725I4950J-1005126D01*
G01*
X229298325Y-198562725D02*
X229298325Y-191562725D01*
X179109800Y-136452525D02*
X181109800Y-136452525D01*
X180998325Y-218462725D02*
X178998325Y-218462725D01*
X235008325Y-164012725D02*
X235008325Y-190912725D01*
X180898325Y-95539200D02*
X180898325Y-102539200D01*
X235008325Y-202462725D02*
X245008325Y-202462725D01*
X180998325Y-218462725D02*
X180998325Y-230462725D01*
X226998325Y-240462725D02*
X225748325Y-240462725D01*
X172975175Y-152462725D02*
X162975175Y-152462725D01*
X225859800Y-146452525D02*
X229109800Y-146452525D01*
X225098325Y-58339200D02*
X218098325Y-58339200D01*
X267008325Y-190912725D02*
X267008325Y-164012725D01*
X210348325Y-202762675D02*
G75*
G03*
X210348325Y-200562725I-25J1099975D01*
G01*
X217559800Y-114452525D02*
X190659800Y-114452525D01*
X174575175Y-163383882D02*
X174575175Y-164012725D01*
X181598325Y-150062725D02*
X176598325Y-155062725D01*
X180898325Y-163362725D02*
X180898325Y-156362725D01*
X176598325Y-191535711D02*
X176598325Y-163383882D01*
X200498361Y-206862675D02*
G75*
G03*
X200498361Y-204862925I39J999875D01*
G01*
X190548325Y-242462725D02*
X182248325Y-242462725D01*
X225859800Y-114452525D02*
X225859800Y-112452525D01*
X229298325Y-60339200D02*
X229298325Y-67339200D01*
X199458200Y-218962725D02*
G75*
G03*
X199458200Y-218962725I-500000J0D01*
G01*
X225348325Y-202462925D02*
X217848325Y-202462925D01*
X178698325Y-67339200D02*
X178698325Y-60339200D01*
X225098325Y-154362675D02*
G75*
G03*
X225098325Y-152162725I-25J1099975D01*
G01*
X182998325Y-220962725D02*
G75*
G03*
X182998325Y-220962725I-500000J0D01*
G01*
X138975175Y-155712725D02*
X138975175Y-164012725D01*
X174575175Y-198558686D02*
X174575175Y-199212725D01*
X267008325Y-199212725D02*
X269008325Y-199212725D01*
X229298325Y-191562725D02*
G75*
G03*
X227098325Y-191562725I-1100000J0D01*
G01*
X218098325Y-56139200D02*
G75*
G03*
X218098325Y-58339200I-25J-1100000D01*
G01*
X229109800Y-124452525D02*
X229109800Y-114452525D01*
X181109800Y-124452525D02*
X179109800Y-124452525D01*
X217848325Y-202462925D02*
G75*
G03*
X216848325Y-203462925I-25J-999975D01*
G01*
X227098325Y-102539200D02*
X227098325Y-95539200D01*
X217448325Y-240462725D02*
X190548325Y-240462725D01*
X235998325Y-110439200D02*
X225061482Y-110439200D01*
X207498361Y-204862875D02*
G75*
G03*
X207498289Y-206862725I39J-999925D01*
G01*
X182359800Y-148052525D02*
X182359800Y-146452525D01*
X174575175Y-155712725D02*
X172975175Y-155712725D01*
X174575175Y-155712725D02*
X174575175Y-156341568D01*
X245008325Y-154462725D02*
X235008325Y-154462725D01*
X150975175Y-152462725D02*
X140975175Y-152462725D01*
X180898325Y-156362725D02*
G75*
G03*
X178698325Y-156362725I-1100000J0D01*
G01*
X197648325Y-202762725D02*
X210348325Y-202762725D01*
X233408325Y-190912725D02*
X235008325Y-190912725D01*
X199458200Y-220962725D02*
G75*
G03*
X199458200Y-220962725I-500000J0D01*
G01*
X189898325Y-154362675D02*
G75*
G03*
X189898325Y-152162725I-25J1099975D01*
G01*
X267008325Y-164012725D02*
X269008325Y-164012725D01*
X182890588Y-112452601D02*
G75*
G03*
X182880552Y-110439200I-4988J1006701D01*
G01*
X178698325Y-198562725D02*
G75*
G03*
X180898325Y-198562725I1100000J0D01*
G01*
X257008325Y-200462725D02*
X257008325Y-202462725D01*
X180898325Y-198562725D02*
X180898325Y-191562725D01*
X182998325Y-218962725D02*
G75*
G03*
X182998325Y-218962725I-500000J0D01*
G01*
X229109800Y-136452525D02*
X227109800Y-136452525D01*
X182889500Y-150062675D02*
G75*
G03*
X182889500Y-148052525I0J1005075D01*
G01*
X227098325Y-102539200D02*
G75*
G03*
X229298325Y-102539200I1100000J0D01*
G01*
X140975175Y-199212725D02*
X140975175Y-200462725D01*
X235008325Y-154462725D02*
X235008325Y-155712725D01*
X227098325Y-156362725D02*
X227098325Y-163362725D01*
X218098325Y-104539200D02*
X225098325Y-104539200D01*
X218093900Y-150062675D02*
G75*
G03*
X218093900Y-148052525I0J1005075D01*
G01*
X178998325Y-218462725D02*
X178998325Y-208462725D01*
X217559800Y-114452525D02*
X217559800Y-112452525D01*
X174575175Y-164012725D02*
X172975175Y-164012725D01*
X245008325Y-152462725D02*
X245008325Y-154462725D01*
X231398325Y-155062725D02*
X226398325Y-150062725D01*
X178698325Y-67339200D02*
G75*
G03*
X180898325Y-67339200I1100000J0D01*
G01*
X174575194Y-191566764D02*
G75*
G03*
X176598325Y-191535711I1011806J-136D01*
G01*
X183700000Y-204862925D02*
X181598325Y-204862725D01*
X210998325Y-208462725D02*
X226998325Y-208462725D01*
X182898325Y-152162675D02*
G75*
G03*
X182898325Y-154362725I-25J-1100025D01*
G01*
X226998325Y-208462725D02*
X226998325Y-218462725D01*
X269008325Y-164012725D02*
X269008325Y-155712725D01*
X182898325Y-56139200D02*
X189898325Y-56139200D01*
X189898325Y-152162725D02*
X182898325Y-152162725D01*
X245008325Y-202462725D02*
X245008325Y-200462725D01*
X189898325Y-58339200D02*
X182898325Y-58339200D01*
X217448325Y-240462725D02*
X217448325Y-242462725D01*
X235998325Y-52439200D02*
X235998325Y-110439200D01*
X172975175Y-190912725D02*
X172975175Y-164012725D01*
X225998325Y-220962725D02*
G75*
G03*
X225998325Y-220962725I-500000J0D01*
G01*
X182898325Y-56139200D02*
G75*
G03*
X182898325Y-58339200I-25J-1100000D01*
G01*
X182898325Y-104539200D02*
X189898325Y-104539200D01*
X216848325Y-204862925D02*
X207498361Y-204862925D01*
X267008325Y-190912725D02*
X269008325Y-190912725D01*
X189898325Y-106739200D02*
G75*
G03*
X189898325Y-104539200I-25J1100000D01*
G01*
X225098325Y-152162725D02*
X218098325Y-152162725D01*
X182359800Y-114452525D02*
X182359800Y-112452525D01*
X181109800Y-146452525D02*
X182359800Y-146452525D01*
X218093900Y-148052525D02*
X217559800Y-148052525D01*
X150975175Y-154462725D02*
X150975175Y-152462725D01*
X178698325Y-102539200D02*
X178698325Y-95539200D01*
X217559800Y-148052525D02*
X217559800Y-146452525D01*
X182359800Y-114452525D02*
X181109800Y-114452525D01*
X178698325Y-102539200D02*
G75*
G03*
X180898325Y-102539200I1100000J0D01*
G01*
X200498361Y-204862925D02*
X183700000Y-204862925D01*
X172975175Y-155712725D02*
X172975175Y-152462725D01*
X225748325Y-240462725D02*
X225748325Y-242462725D01*
X233408325Y-198558650D02*
G75*
G03*
X231398325Y-198558650I-1005000J0D01*
G01*
X227109800Y-136452525D02*
X227109800Y-124452525D01*
X190659800Y-148052525D02*
X190659800Y-146452525D01*
X189905238Y-110439274D02*
G75*
G03*
X189915238Y-112452525I4962J-1006626D01*
G01*
X229298325Y-60339200D02*
G75*
G03*
X227098325Y-60339200I-1100000J0D01*
G01*
X181109800Y-114452525D02*
X181109800Y-124452525D01*
X178998325Y-230462725D02*
X180998325Y-230462725D01*
X218095000Y-110439200D02*
X189905238Y-110439200D01*
X140975175Y-200462725D02*
X150975175Y-200462725D01*
X231398225Y-156346583D02*
G75*
G03*
X233408325Y-156336583I1005075J-17D01*
G01*
X178998325Y-240462725D02*
X178998325Y-230462725D01*
X245008325Y-200462725D02*
X257008325Y-200462725D01*
X231398389Y-191558651D02*
G75*
G03*
X233408325Y-191566800I1004911J-18149D01*
G01*
X189898325Y-106739200D02*
X182898325Y-106739200D01*
X225748325Y-242462725D02*
X217448325Y-242462725D01*
X140975175Y-164012725D02*
X138975175Y-164012725D01*
X233408325Y-199212725D02*
X233408325Y-198558650D01*
X218098325Y-104539200D02*
G75*
G03*
X218098325Y-106739200I-25J-1100000D01*
G01*
X225859800Y-112452525D02*
X225163041Y-112452525D01*
X182889500Y-150062725D02*
X181598325Y-150062725D01*
X227098325Y-163362725D02*
G75*
G03*
X229298325Y-163362725I1100000J0D01*
G01*
X176598325Y-156331568D02*
X176598325Y-155062725D01*
X257008325Y-152462725D02*
X245008325Y-152462725D01*
X189898325Y-58339200D02*
G75*
G03*
X189898325Y-56139200I-25J1100000D01*
G01*
X225859800Y-148052525D02*
X225113650Y-148052525D01*
X176598325Y-199862725D02*
X181598325Y-204862725D01*
X257008325Y-202462725D02*
X267008325Y-202462725D01*
X140975175Y-155712725D02*
X138975175Y-155712725D01*
X176598421Y-198578581D02*
G75*
G03*
X174575175Y-198558686I-1011721J-19D01*
G01*
X178698325Y-156362725D02*
X178698325Y-163362725D01*
X180898325Y-60339200D02*
X180898325Y-67339200D01*
X140975175Y-152462725D02*
X140975175Y-155712725D01*
X228998325Y-230462725D02*
X226998325Y-230462725D01*
X162975175Y-152462725D02*
X162975175Y-154462725D01*
X227098325Y-198562725D02*
G75*
G03*
X229298325Y-198562725I1100000J0D01*
G01*
X181109800Y-146452525D02*
X181109800Y-136452525D01*
X226348325Y-204862925D02*
X226348325Y-203462925D01*
X150975175Y-202462725D02*
X162975175Y-202462725D01*
X233408325Y-156336583D02*
X233408325Y-155712725D01*
X233408325Y-164012725D02*
X233408325Y-163388867D01*
X190659800Y-114452525D02*
X190659800Y-112452525D01*
X138975175Y-190912725D02*
X138975175Y-199212725D01*
X210348325Y-200562725D02*
X197648325Y-200562725D01*
X257008325Y-154462725D02*
X257008325Y-152462725D01*
X226998325Y-230462725D02*
X226998325Y-240462725D01*
X218098325Y-152162675D02*
G75*
G03*
X218098325Y-154362725I-25J-1100025D01*
G01*
X218098325Y-154362725D02*
X225098325Y-154362725D01*
X190659800Y-112452525D02*
X189915238Y-112452525D01*
X227098325Y-67339200D02*
X227098325Y-60339200D01*
D11*
X208348325Y-66044800D02*
G75*
G03*
X208348325Y-66044800I-1100000J0D01*
G01*
X201848325Y-66044800D02*
G75*
G03*
X201848325Y-66044800I-1100000J0D01*
G01*
X208538791Y-223378925D02*
G75*
G03*
X208538791Y-223378925I-650000J0D01*
G01*
X208538791Y-219978925D02*
G75*
G03*
X208538791Y-219978925I-650000J0D01*
G01*
X201537600Y-96935875D02*
G75*
G03*
X201537600Y-96935875I-1100000J0D01*
G01*
X208037600Y-96935875D02*
G75*
G03*
X208037600Y-96935875I-1100000J0D01*
G01*
M02*
