G04 #@! TF.GenerationSoftware,KiCad,Pcbnew,(6.0.9)*
G04 #@! TF.CreationDate,2023-04-21T13:17:04-03:00*
G04 #@! TF.ProjectId,PANEL-COMPLETE,50414e45-4c2d-4434-9f4d-504c4554452e,Rev 3*
G04 #@! TF.SameCoordinates,Original*
G04 #@! TF.FileFunction,Paste,Bot*
G04 #@! TF.FilePolarity,Positive*
%FSLAX46Y46*%
G04 Gerber Fmt 4.6, Leading zero omitted, Abs format (unit mm)*
G04 Created by KiCad (PCBNEW (6.0.9)) date 2023-04-21 13:17:04*
%MOMM*%
%LPD*%
G01*
G04 APERTURE LIST*
G04 Aperture macros list*
%AMRoundRect*
0 Rectangle with rounded corners*
0 $1 Rounding radius*
0 $2 $3 $4 $5 $6 $7 $8 $9 X,Y pos of 4 corners*
0 Add a 4 corners polygon primitive as box body*
4,1,4,$2,$3,$4,$5,$6,$7,$8,$9,$2,$3,0*
0 Add four circle primitives for the rounded corners*
1,1,$1+$1,$2,$3*
1,1,$1+$1,$4,$5*
1,1,$1+$1,$6,$7*
1,1,$1+$1,$8,$9*
0 Add four rect primitives between the rounded corners*
20,1,$1+$1,$2,$3,$4,$5,0*
20,1,$1+$1,$4,$5,$6,$7,0*
20,1,$1+$1,$6,$7,$8,$9,0*
20,1,$1+$1,$8,$9,$2,$3,0*%
G04 Aperture macros list end*
%ADD10R,0.300000X1.000000*%
%ADD11R,2.000000X1.300000*%
%ADD12RoundRect,0.140000X-0.170000X0.140000X-0.170000X-0.140000X0.170000X-0.140000X0.170000X0.140000X0*%
%ADD13RoundRect,0.250000X0.475000X-0.250000X0.475000X0.250000X-0.475000X0.250000X-0.475000X-0.250000X0*%
%ADD14RoundRect,0.200000X0.200000X0.275000X-0.200000X0.275000X-0.200000X-0.275000X0.200000X-0.275000X0*%
%ADD15RoundRect,0.135000X0.185000X-0.135000X0.185000X0.135000X-0.185000X0.135000X-0.185000X-0.135000X0*%
%ADD16RoundRect,0.250000X0.325000X0.650000X-0.325000X0.650000X-0.325000X-0.650000X0.325000X-0.650000X0*%
%ADD17RoundRect,0.202500X0.202500X-0.202500X0.202500X0.202500X-0.202500X0.202500X-0.202500X-0.202500X0*%
%ADD18RoundRect,0.062500X0.062500X-0.375000X0.062500X0.375000X-0.062500X0.375000X-0.062500X-0.375000X0*%
%ADD19RoundRect,0.062500X0.375000X-0.062500X0.375000X0.062500X-0.375000X0.062500X-0.375000X-0.062500X0*%
%ADD20RoundRect,0.218750X0.256250X-0.218750X0.256250X0.218750X-0.256250X0.218750X-0.256250X-0.218750X0*%
%ADD21RoundRect,0.135000X-0.135000X-0.185000X0.135000X-0.185000X0.135000X0.185000X-0.135000X0.185000X0*%
%ADD22RoundRect,0.250000X-0.650000X0.325000X-0.650000X-0.325000X0.650000X-0.325000X0.650000X0.325000X0*%
%ADD23RoundRect,0.135000X-0.185000X0.135000X-0.185000X-0.135000X0.185000X-0.135000X0.185000X0.135000X0*%
%ADD24R,0.300000X1.400000*%
%ADD25RoundRect,0.135000X0.135000X0.185000X-0.135000X0.185000X-0.135000X-0.185000X0.135000X-0.185000X0*%
%ADD26RoundRect,0.200000X-0.275000X0.200000X-0.275000X-0.200000X0.275000X-0.200000X0.275000X0.200000X0*%
%ADD27RoundRect,0.200000X0.275000X-0.200000X0.275000X0.200000X-0.275000X0.200000X-0.275000X-0.200000X0*%
%ADD28R,3.890000X1.450000*%
%ADD29R,0.450000X0.600000*%
%ADD30R,1.000000X0.300000*%
%ADD31R,1.300000X2.000000*%
%ADD32RoundRect,0.140000X0.170000X-0.140000X0.170000X0.140000X-0.170000X0.140000X-0.170000X-0.140000X0*%
%ADD33RoundRect,0.250000X-1.025000X0.787500X-1.025000X-0.787500X1.025000X-0.787500X1.025000X0.787500X0*%
%ADD34R,1.400000X0.300000*%
%ADD35RoundRect,0.250000X-0.250000X-0.475000X0.250000X-0.475000X0.250000X0.475000X-0.250000X0.475000X0*%
%ADD36RoundRect,0.218750X0.218750X0.256250X-0.218750X0.256250X-0.218750X-0.256250X0.218750X-0.256250X0*%
%ADD37RoundRect,0.140000X0.140000X0.170000X-0.140000X0.170000X-0.140000X-0.170000X0.140000X-0.170000X0*%
%ADD38R,1.450000X3.890000*%
%ADD39RoundRect,0.200000X-0.200000X-0.275000X0.200000X-0.275000X0.200000X0.275000X-0.200000X0.275000X0*%
%ADD40R,0.600000X0.450000*%
%ADD41RoundRect,0.202500X0.202500X0.202500X-0.202500X0.202500X-0.202500X-0.202500X0.202500X-0.202500X0*%
%ADD42RoundRect,0.062500X0.375000X0.062500X-0.375000X0.062500X-0.375000X-0.062500X0.375000X-0.062500X0*%
%ADD43RoundRect,0.062500X0.062500X0.375000X-0.062500X0.375000X-0.062500X-0.375000X0.062500X-0.375000X0*%
%ADD44RoundRect,0.150000X0.512500X0.150000X-0.512500X0.150000X-0.512500X-0.150000X0.512500X-0.150000X0*%
%ADD45RoundRect,0.140000X-0.140000X-0.170000X0.140000X-0.170000X0.140000X0.170000X-0.140000X0.170000X0*%
%ADD46R,0.800000X1.500000*%
%ADD47R,1.450000X2.000000*%
%ADD48R,1.800000X2.500000*%
%ADD49RoundRect,0.500000X-0.500000X0.650000X-0.500000X-0.650000X0.500000X-0.650000X0.500000X0.650000X0*%
%ADD50RoundRect,0.375000X-0.375000X0.675000X-0.375000X-0.675000X0.375000X-0.675000X0.375000X0.675000X0*%
%ADD51RoundRect,0.385000X-0.665000X0.385000X-0.665000X-0.385000X0.665000X-0.385000X0.665000X0.385000X0*%
%ADD52RoundRect,0.375000X-0.625000X0.375000X-0.625000X-0.375000X0.625000X-0.375000X0.625000X0.375000X0*%
%ADD53RoundRect,0.202500X-0.202500X0.202500X-0.202500X-0.202500X0.202500X-0.202500X0.202500X0.202500X0*%
%ADD54RoundRect,0.062500X-0.062500X0.375000X-0.062500X-0.375000X0.062500X-0.375000X0.062500X0.375000X0*%
%ADD55RoundRect,0.062500X-0.375000X0.062500X-0.375000X-0.062500X0.375000X-0.062500X0.375000X0.062500X0*%
%ADD56RoundRect,0.250000X-0.475000X0.250000X-0.475000X-0.250000X0.475000X-0.250000X0.475000X0.250000X0*%
%ADD57RoundRect,0.125000X-0.125000X-0.125000X0.125000X-0.125000X0.125000X0.125000X-0.125000X0.125000X0*%
%ADD58RoundRect,0.218750X-0.218750X-0.256250X0.218750X-0.256250X0.218750X0.256250X-0.218750X0.256250X0*%
%ADD59RoundRect,0.250000X0.250000X0.475000X-0.250000X0.475000X-0.250000X-0.475000X0.250000X-0.475000X0*%
%ADD60R,1.500000X2.400000*%
G04 APERTURE END LIST*
D10*
X212679400Y-99254600D03*
X213179400Y-99254600D03*
X213679400Y-99254600D03*
X214179400Y-99254600D03*
X214679400Y-99254600D03*
X215179400Y-99254600D03*
X215679400Y-99254600D03*
X216179400Y-99254600D03*
X216679400Y-99254600D03*
X217179400Y-99254600D03*
X217679400Y-99254600D03*
X218179400Y-99254600D03*
X218679400Y-99254600D03*
X219179400Y-99254600D03*
X219679400Y-99254600D03*
D11*
X210379400Y-96554600D03*
X221979400Y-96554600D03*
D12*
X195852025Y-82522600D03*
X195852025Y-83482600D03*
D13*
X197350625Y-83962800D03*
X197350625Y-82062800D03*
D14*
X183898325Y-93878400D03*
X182248325Y-93878400D03*
D15*
X154560126Y-169687925D03*
X154560126Y-168667925D03*
X151617650Y-178603325D03*
X151617650Y-177583325D03*
D16*
X217984600Y-197942200D03*
X215034600Y-197942200D03*
D17*
X257373850Y-184367925D03*
X257373850Y-183367925D03*
X256373850Y-183367925D03*
X256373850Y-184367925D03*
D18*
X257873850Y-185555425D03*
X257373850Y-185555425D03*
X256873850Y-185555425D03*
X256373850Y-185555425D03*
X255873850Y-185555425D03*
D19*
X255186350Y-184867925D03*
X255186350Y-184367925D03*
X255186350Y-183867925D03*
X255186350Y-183367925D03*
X255186350Y-182867925D03*
D18*
X255873850Y-182180425D03*
X256373850Y-182180425D03*
X256873850Y-182180425D03*
X257373850Y-182180425D03*
X257873850Y-182180425D03*
D19*
X258561350Y-182867925D03*
X258561350Y-183367925D03*
X258561350Y-183867925D03*
X258561350Y-184367925D03*
X258561350Y-184867925D03*
D20*
X212471000Y-88493700D03*
X212471000Y-86918700D03*
D21*
X209954200Y-128037476D03*
X210974200Y-128037476D03*
D22*
X220167200Y-193165200D03*
X220167200Y-196115200D03*
D23*
X207787525Y-86330600D03*
X207787525Y-87350600D03*
X182080225Y-77214000D03*
X182080225Y-78234000D03*
D21*
X204899600Y-125095000D03*
X205919600Y-125095000D03*
D23*
X205030200Y-212941682D03*
X205030200Y-213961682D03*
D10*
X187918925Y-188208854D03*
X188418925Y-188208854D03*
X188918925Y-188208854D03*
X189418925Y-188208854D03*
X189918925Y-188208854D03*
X190418925Y-188208854D03*
X190918925Y-188208854D03*
X191418925Y-188208854D03*
X191918925Y-188208854D03*
X192418925Y-188208854D03*
X192918925Y-188208854D03*
X193418925Y-188208854D03*
X193918925Y-188208854D03*
X194418925Y-188208854D03*
X194918925Y-188208854D03*
D11*
X185618925Y-185508854D03*
X197218925Y-185508854D03*
D24*
X155085103Y-191843725D03*
X154585103Y-191843725D03*
X154085103Y-191843725D03*
X153585103Y-191843725D03*
X153085103Y-191843725D03*
X153085103Y-187443725D03*
X153585103Y-187443725D03*
X154085103Y-187443725D03*
X154585103Y-187443725D03*
X155085103Y-187443725D03*
D12*
X253847597Y-189892325D03*
X253847597Y-190852325D03*
D25*
X205487800Y-128037476D03*
X204467800Y-128037476D03*
D23*
X154560126Y-179945525D03*
X154560126Y-180965525D03*
D26*
X221183200Y-197676000D03*
X221183200Y-199326000D03*
D10*
X194918925Y-211743925D03*
X194418925Y-211743925D03*
X193918925Y-211743925D03*
X193418925Y-211743925D03*
X192918925Y-211743925D03*
X192418925Y-211743925D03*
X191918925Y-211743925D03*
X191418925Y-211743925D03*
X190918925Y-211743925D03*
X190418925Y-211743925D03*
X189918925Y-211743925D03*
X189418925Y-211743925D03*
X188918925Y-211743925D03*
X188418925Y-211743925D03*
X187918925Y-211743925D03*
D11*
X197218925Y-214443925D03*
X185618925Y-214443925D03*
D15*
X254914397Y-170693925D03*
X254914397Y-169673925D03*
D27*
X211632800Y-216242400D03*
X211632800Y-214592400D03*
D28*
X202506825Y-77475600D03*
X202506825Y-74525600D03*
D25*
X207420200Y-128037476D03*
X206400200Y-128037476D03*
D10*
X219690325Y-155274325D03*
X219190325Y-155274325D03*
X218690325Y-155274325D03*
X218190325Y-155274325D03*
X217690325Y-155274325D03*
X217190325Y-155274325D03*
X216690325Y-155274325D03*
X216190325Y-155274325D03*
X215690325Y-155274325D03*
X215190325Y-155274325D03*
X214690325Y-155274325D03*
X214190325Y-155274325D03*
X213690325Y-155274325D03*
X213190325Y-155274325D03*
X212690325Y-155274325D03*
D11*
X221990325Y-157974325D03*
X210390325Y-157974325D03*
D23*
X208862925Y-82456200D03*
X208862925Y-83476200D03*
X206705552Y-82477400D03*
X206705552Y-83497400D03*
D10*
X220812125Y-211843925D03*
X220312125Y-211843925D03*
X219812125Y-211843925D03*
X219312125Y-211843925D03*
X218812125Y-211843925D03*
X218312125Y-211843925D03*
D11*
X223112125Y-214543925D03*
X216012125Y-214543925D03*
D10*
X188306325Y-142234125D03*
X188806325Y-142234125D03*
X189306325Y-142234125D03*
X189806325Y-142234125D03*
X190306325Y-142234125D03*
X190806325Y-142234125D03*
X191306325Y-142234125D03*
X191806325Y-142234125D03*
X192306325Y-142234125D03*
X192806325Y-142234125D03*
X193306325Y-142234125D03*
X193806325Y-142234125D03*
X194306325Y-142234125D03*
X194806325Y-142234125D03*
X195306325Y-142234125D03*
D11*
X186006325Y-139534125D03*
X197606325Y-139534125D03*
D29*
X147655250Y-172107525D03*
X147655250Y-170007525D03*
D30*
X225365600Y-175245525D03*
X225365600Y-174745525D03*
X225365600Y-174245525D03*
X225365600Y-173745525D03*
X225365600Y-173245525D03*
X225365600Y-172745525D03*
X225365600Y-172245525D03*
X225365600Y-171745525D03*
X225365600Y-171245525D03*
X225365600Y-170745525D03*
X225365600Y-170245525D03*
X225365600Y-169745525D03*
X225365600Y-169245525D03*
X225365600Y-168745525D03*
X225365600Y-168245525D03*
D31*
X222665600Y-177545525D03*
X222665600Y-165945525D03*
D32*
X263854604Y-184347925D03*
X263854604Y-183387925D03*
D23*
X154560126Y-176084725D03*
X154560126Y-177104725D03*
D25*
X201627000Y-128037476D03*
X200607000Y-128037476D03*
D15*
X151617650Y-176672925D03*
X151617650Y-175652925D03*
D23*
X154560126Y-178015125D03*
X154560126Y-179035125D03*
D14*
X183898325Y-98526600D03*
X182248325Y-98526600D03*
D21*
X202969200Y-125095000D03*
X203989200Y-125095000D03*
D33*
X184340000Y-226150000D03*
X184340000Y-232375000D03*
D29*
X199357225Y-84062800D03*
X199357225Y-81962800D03*
D23*
X253423374Y-183307125D03*
X253423374Y-184327125D03*
D27*
X219633800Y-199326000D03*
X219633800Y-197676000D03*
D15*
X225860000Y-236900000D03*
X225860000Y-235880000D03*
D34*
X189728800Y-128562453D03*
X189728800Y-128062453D03*
X189728800Y-127562453D03*
X189728800Y-127062453D03*
X189728800Y-126562453D03*
X194128800Y-126562453D03*
X194128800Y-127062453D03*
X194128800Y-127562453D03*
X194128800Y-128062453D03*
X194128800Y-128562453D03*
D30*
X168756775Y-175245525D03*
X168756775Y-174745525D03*
X168756775Y-174245525D03*
X168756775Y-173745525D03*
X168756775Y-173245525D03*
X168756775Y-172745525D03*
X168756775Y-172245525D03*
X168756775Y-171745525D03*
X168756775Y-171245525D03*
X168756775Y-170745525D03*
X168756775Y-170245525D03*
X168756775Y-169745525D03*
X168756775Y-169245525D03*
X168756775Y-168745525D03*
X168756775Y-168245525D03*
D31*
X166056775Y-177545525D03*
X166056775Y-165945525D03*
D21*
X211884600Y-128037476D03*
X212904600Y-128037476D03*
D35*
X209565000Y-119126000D03*
X211465000Y-119126000D03*
D23*
X256365850Y-178252525D03*
X256365850Y-179272525D03*
D30*
X182626725Y-168245525D03*
X182626725Y-168745525D03*
X182626725Y-169245525D03*
X182626725Y-169745525D03*
X182626725Y-170245525D03*
X182626725Y-170745525D03*
X182626725Y-171245525D03*
X182626725Y-171745525D03*
X182626725Y-172245525D03*
X182626725Y-172745525D03*
X182626725Y-173245525D03*
X182626725Y-173745525D03*
X182626725Y-174245525D03*
X182626725Y-174745525D03*
X182626725Y-175245525D03*
D31*
X185326725Y-165945525D03*
X185326725Y-177545525D03*
D23*
X153069103Y-184231525D03*
X153069103Y-185251525D03*
D36*
X155651300Y-182829200D03*
X154076300Y-182829200D03*
D25*
X197341000Y-126546453D03*
X196321000Y-126546453D03*
D29*
X260328250Y-182817925D03*
X260328250Y-184917925D03*
D14*
X183781200Y-161366200D03*
X182131200Y-161366200D03*
D37*
X210995000Y-117606246D03*
X210035000Y-117606246D03*
D13*
X145648650Y-172007525D03*
X145648650Y-170107525D03*
D26*
X255612050Y-156513175D03*
X255612050Y-158163175D03*
D38*
X215544400Y-124079000D03*
X218494400Y-124079000D03*
D12*
X144128896Y-170577525D03*
X144128896Y-171537525D03*
D24*
X252898397Y-163081725D03*
X253398397Y-163081725D03*
X253898397Y-163081725D03*
X254398397Y-163081725D03*
X254898397Y-163081725D03*
X254898397Y-167481725D03*
X254398397Y-167481725D03*
X253898397Y-167481725D03*
X253398397Y-167481725D03*
X252898397Y-167481725D03*
D32*
X206034925Y-78077000D03*
X206034925Y-77117000D03*
D15*
X253898397Y-170693925D03*
X253898397Y-169673925D03*
X253423374Y-174979925D03*
X253423374Y-173959925D03*
D23*
X207787525Y-82469800D03*
X207787525Y-83489800D03*
X207787525Y-84400200D03*
X207787525Y-85420200D03*
D39*
X183160250Y-125848800D03*
X184810250Y-125848800D03*
D15*
X253423374Y-180773125D03*
X253423374Y-179753125D03*
D23*
X207787525Y-88261000D03*
X207787525Y-89281000D03*
D32*
X154135903Y-165033125D03*
X154135903Y-164073125D03*
D23*
X208862925Y-84386600D03*
X208862925Y-85406600D03*
D39*
X223558600Y-192862200D03*
X225208600Y-192862200D03*
D40*
X209465000Y-121132600D03*
X211565000Y-121132600D03*
D41*
X211015000Y-124087000D03*
X210015000Y-124087000D03*
X211015000Y-125087000D03*
X210015000Y-125087000D03*
D42*
X212202500Y-123587000D03*
X212202500Y-124087000D03*
X212202500Y-124587000D03*
X212202500Y-125087000D03*
X212202500Y-125587000D03*
D43*
X211515000Y-126274500D03*
X211015000Y-126274500D03*
X210515000Y-126274500D03*
X210015000Y-126274500D03*
X209515000Y-126274500D03*
D42*
X208827500Y-125587000D03*
X208827500Y-125087000D03*
X208827500Y-124587000D03*
X208827500Y-124087000D03*
X208827500Y-123587000D03*
D43*
X209515000Y-122899500D03*
X210015000Y-122899500D03*
X210515000Y-122899500D03*
X211015000Y-122899500D03*
X211515000Y-122899500D03*
D36*
X216103300Y-174904400D03*
X214528300Y-174904400D03*
D44*
X217596300Y-194045800D03*
X217596300Y-194995800D03*
X217596300Y-195945800D03*
X215321300Y-195945800D03*
X215321300Y-194995800D03*
X215321300Y-194045800D03*
D45*
X216539400Y-127613253D03*
X217499400Y-127613253D03*
D46*
X200798325Y-174491589D03*
X201898325Y-174491589D03*
X202998325Y-174491589D03*
X204098325Y-174491589D03*
X205198325Y-174491589D03*
X206298325Y-174491589D03*
X207398325Y-174491589D03*
X208498325Y-174491589D03*
D47*
X210873325Y-177091589D03*
X197123325Y-177091589D03*
X197123325Y-168791589D03*
X210873325Y-168791589D03*
D48*
X211988400Y-185992000D03*
X211988400Y-189992000D03*
D25*
X203557400Y-128037476D03*
X202537400Y-128037476D03*
D49*
X189875000Y-63825000D03*
X184175000Y-63825000D03*
D50*
X187025000Y-71375000D03*
D51*
X189275000Y-68825000D03*
D52*
X184775000Y-68825000D03*
D39*
X224244400Y-161493200D03*
X225894400Y-161493200D03*
D27*
X163547450Y-198412275D03*
X163547450Y-196762275D03*
D11*
X224325000Y-223650000D03*
X224325000Y-225650000D03*
X224325000Y-227650000D03*
X224325000Y-229650000D03*
X224325000Y-231650000D03*
X224325000Y-233650000D03*
X224325000Y-235650000D03*
X224325000Y-237650000D03*
X189325000Y-237650000D03*
X189325000Y-235650000D03*
X189325000Y-233650000D03*
X189325000Y-231650000D03*
X189325000Y-229650000D03*
X189325000Y-227650000D03*
X189325000Y-225650000D03*
X189325000Y-223650000D03*
D53*
X151609650Y-170557525D03*
X150609650Y-171557525D03*
X151609650Y-171557525D03*
X150609650Y-170557525D03*
D54*
X150109650Y-169370025D03*
X150609650Y-169370025D03*
X151109650Y-169370025D03*
X151609650Y-169370025D03*
X152109650Y-169370025D03*
D55*
X152797150Y-170057525D03*
X152797150Y-170557525D03*
X152797150Y-171057525D03*
X152797150Y-171557525D03*
X152797150Y-172057525D03*
D54*
X152109650Y-172745025D03*
X151609650Y-172745025D03*
X151109650Y-172745025D03*
X150609650Y-172745025D03*
X150109650Y-172745025D03*
D55*
X149422150Y-172057525D03*
X149422150Y-171557525D03*
X149422150Y-171057525D03*
X149422150Y-170557525D03*
X149422150Y-170057525D03*
D10*
X195306325Y-155274325D03*
X194806325Y-155274325D03*
X194306325Y-155274325D03*
X193806325Y-155274325D03*
X193306325Y-155274325D03*
X192806325Y-155274325D03*
X192306325Y-155274325D03*
X191806325Y-155274325D03*
X191306325Y-155274325D03*
X190806325Y-155274325D03*
X190306325Y-155274325D03*
X189806325Y-155274325D03*
X189306325Y-155274325D03*
X188806325Y-155274325D03*
X188306325Y-155274325D03*
D11*
X197606325Y-157974325D03*
X186006325Y-157974325D03*
D53*
X203514825Y-82487400D03*
X202514825Y-82487400D03*
X203514825Y-83487400D03*
X202514825Y-83487400D03*
D54*
X202014825Y-81299900D03*
X202514825Y-81299900D03*
X203014825Y-81299900D03*
X203514825Y-81299900D03*
X204014825Y-81299900D03*
D55*
X204702325Y-81987400D03*
X204702325Y-82487400D03*
X204702325Y-82987400D03*
X204702325Y-83487400D03*
X204702325Y-83987400D03*
D54*
X204014825Y-84674900D03*
X203514825Y-84674900D03*
X203014825Y-84674900D03*
X202514825Y-84674900D03*
X202014825Y-84674900D03*
D55*
X201327325Y-83987400D03*
X201327325Y-83487400D03*
X201327325Y-82987400D03*
X201327325Y-82487400D03*
X201327325Y-81987400D03*
D23*
X154085103Y-184231525D03*
X154085103Y-185251525D03*
D56*
X198417425Y-76575600D03*
X198417425Y-78475600D03*
D25*
X197341000Y-127562453D03*
X196321000Y-127562453D03*
D57*
X203616800Y-214846800D03*
X203616800Y-216546800D03*
X204266800Y-214846800D03*
X204266800Y-216546800D03*
X204916800Y-214846800D03*
X204916800Y-216546800D03*
D10*
X218312125Y-188235925D03*
X218812125Y-188235925D03*
X219312125Y-188235925D03*
X219812125Y-188235925D03*
X220312125Y-188235925D03*
X220812125Y-188235925D03*
D11*
X216012125Y-185535925D03*
X223112125Y-185535925D03*
D28*
X150601650Y-166028125D03*
X150601650Y-163078125D03*
D24*
X183830000Y-85010000D03*
X183330000Y-85010000D03*
X182830000Y-85010000D03*
X182330000Y-85010000D03*
X181830000Y-85010000D03*
X181830000Y-80610000D03*
X182330000Y-80610000D03*
X182830000Y-80610000D03*
X183330000Y-80610000D03*
X183830000Y-80610000D03*
D36*
X191211300Y-134467600D03*
X189636300Y-134467600D03*
D28*
X257381850Y-188897325D03*
X257381850Y-191847325D03*
D27*
X213156800Y-216242400D03*
X213156800Y-214592400D03*
D15*
X253423374Y-178840725D03*
X253423374Y-177820725D03*
D58*
X194436900Y-163195000D03*
X196011900Y-163195000D03*
D56*
X262334850Y-182917925D03*
X262334850Y-184817925D03*
D23*
X183096225Y-77214000D03*
X183096225Y-78234000D03*
D58*
X245948100Y-166573200D03*
X247523100Y-166573200D03*
D56*
X146004250Y-164695325D03*
X146004250Y-166595325D03*
D23*
X206705552Y-80547000D03*
X206705552Y-81567000D03*
X154560126Y-174152325D03*
X154560126Y-175172325D03*
D59*
X216877200Y-119481600D03*
X214977200Y-119481600D03*
D15*
X154560126Y-171618325D03*
X154560126Y-170598325D03*
D30*
X239226725Y-168245525D03*
X239226725Y-168745525D03*
X239226725Y-169245525D03*
X239226725Y-169745525D03*
X239226725Y-170245525D03*
X239226725Y-170745525D03*
X239226725Y-171245525D03*
X239226725Y-171745525D03*
X239226725Y-172245525D03*
X239226725Y-172745525D03*
X239226725Y-173245525D03*
X239226725Y-173745525D03*
X239226725Y-174245525D03*
X239226725Y-174745525D03*
X239226725Y-175245525D03*
D31*
X241926725Y-165945525D03*
X241926725Y-177545525D03*
D13*
X261979250Y-190230125D03*
X261979250Y-188330125D03*
D26*
X244436050Y-156513175D03*
X244436050Y-158163175D03*
D39*
X186550800Y-134467600D03*
X188200800Y-134467600D03*
D23*
X253423374Y-185237525D03*
X253423374Y-186257525D03*
D15*
X253423374Y-176910325D03*
X253423374Y-175890325D03*
D60*
X207485800Y-194995800D03*
X212985800Y-194995800D03*
D27*
X152371450Y-198412275D03*
X152371450Y-196762275D03*
D23*
X256365850Y-176322125D03*
X256365850Y-177342125D03*
M02*
