G04 #@! TF.GenerationSoftware,KiCad,Pcbnew,(6.0.9)*
G04 #@! TF.CreationDate,2023-04-21T13:17:04-03:00*
G04 #@! TF.ProjectId,PANEL-COMPLETE,50414e45-4c2d-4434-9f4d-504c4554452e,Rev 3*
G04 #@! TF.SameCoordinates,Original*
G04 #@! TF.FileFunction,Paste,Top*
G04 #@! TF.FilePolarity,Positive*
%FSLAX46Y46*%
G04 Gerber Fmt 4.6, Leading zero omitted, Abs format (unit mm)*
G04 Created by KiCad (PCBNEW (6.0.9)) date 2023-04-21 13:17:04*
%MOMM*%
%LPD*%
G01*
G04 APERTURE LIST*
G04 Aperture macros list*
%AMRoundRect*
0 Rectangle with rounded corners*
0 $1 Rounding radius*
0 $2 $3 $4 $5 $6 $7 $8 $9 X,Y pos of 4 corners*
0 Add a 4 corners polygon primitive as box body*
4,1,4,$2,$3,$4,$5,$6,$7,$8,$9,$2,$3,0*
0 Add four circle primitives for the rounded corners*
1,1,$1+$1,$2,$3*
1,1,$1+$1,$4,$5*
1,1,$1+$1,$6,$7*
1,1,$1+$1,$8,$9*
0 Add four rect primitives between the rounded corners*
20,1,$1+$1,$2,$3,$4,$5,0*
20,1,$1+$1,$4,$5,$6,$7,0*
20,1,$1+$1,$6,$7,$8,$9,0*
20,1,$1+$1,$8,$9,$2,$3,0*%
%AMRotRect*
0 Rectangle, with rotation*
0 The origin of the aperture is its center*
0 $1 length*
0 $2 width*
0 $3 Rotation angle, in degrees counterclockwise*
0 Add horizontal line*
21,1,$1,$2,0,0,$3*%
%AMFreePoly0*
4,1,14,0.266715,0.088284,0.363284,-0.008285,0.375000,-0.036569,0.375000,-0.060000,0.363284,-0.088284,0.335000,-0.100000,-0.335000,-0.100000,-0.363284,-0.088284,-0.375000,-0.060000,-0.375000,0.060000,-0.363284,0.088284,-0.335000,0.100000,0.238431,0.100000,0.266715,0.088284,0.266715,0.088284,$1*%
%AMFreePoly1*
4,1,14,0.363284,0.088284,0.375000,0.060000,0.375000,0.036569,0.363284,0.008285,0.266715,-0.088284,0.238431,-0.100000,-0.335000,-0.100000,-0.363284,-0.088284,-0.375000,-0.060000,-0.375000,0.060000,-0.363284,0.088284,-0.335000,0.100000,0.335000,0.100000,0.363284,0.088284,0.363284,0.088284,$1*%
%AMFreePoly2*
4,1,14,0.088284,0.363284,0.100000,0.335000,0.100000,-0.335000,0.088284,-0.363284,0.060000,-0.375000,-0.060000,-0.375000,-0.088284,-0.363284,-0.100000,-0.335000,-0.100000,0.238431,-0.088284,0.266715,0.008285,0.363284,0.036569,0.375000,0.060000,0.375000,0.088284,0.363284,0.088284,0.363284,$1*%
%AMFreePoly3*
4,1,14,-0.008285,0.363284,0.088284,0.266715,0.100000,0.238431,0.100000,-0.335000,0.088284,-0.363284,0.060000,-0.375000,-0.060000,-0.375000,-0.088284,-0.363284,-0.100000,-0.335000,-0.100000,0.335000,-0.088284,0.363284,-0.060000,0.375000,-0.036569,0.375000,-0.008285,0.363284,-0.008285,0.363284,$1*%
%AMFreePoly4*
4,1,14,0.363284,0.088284,0.375000,0.060000,0.375000,-0.060000,0.363284,-0.088284,0.335000,-0.100000,-0.238431,-0.100000,-0.266715,-0.088284,-0.363284,0.008285,-0.375000,0.036569,-0.375000,0.060000,-0.363284,0.088284,-0.335000,0.100000,0.335000,0.100000,0.363284,0.088284,0.363284,0.088284,$1*%
%AMFreePoly5*
4,1,14,0.363284,0.088284,0.375000,0.060000,0.375000,-0.060000,0.363284,-0.088284,0.335000,-0.100000,-0.335000,-0.100000,-0.363284,-0.088284,-0.375000,-0.060000,-0.375000,-0.036569,-0.363284,-0.008285,-0.266715,0.088284,-0.238431,0.100000,0.335000,0.100000,0.363284,0.088284,0.363284,0.088284,$1*%
%AMFreePoly6*
4,1,14,0.088284,0.363284,0.100000,0.335000,0.100000,-0.238431,0.088284,-0.266715,-0.008285,-0.363284,-0.036569,-0.375000,-0.060000,-0.375000,-0.088284,-0.363284,-0.100000,-0.335000,-0.100000,0.335000,-0.088284,0.363284,-0.060000,0.375000,0.060000,0.375000,0.088284,0.363284,0.088284,0.363284,$1*%
%AMFreePoly7*
4,1,14,0.088284,0.363284,0.100000,0.335000,0.100000,-0.335000,0.088284,-0.363284,0.060000,-0.375000,0.036569,-0.375000,0.008285,-0.363284,-0.088284,-0.266715,-0.100000,-0.238431,-0.100000,0.335000,-0.088284,0.363284,-0.060000,0.375000,0.060000,0.375000,0.088284,0.363284,0.088284,0.363284,$1*%
G04 Aperture macros list end*
%ADD10R,0.600000X0.310000*%
%ADD11R,1.500000X1.750000*%
%ADD12R,0.230000X0.825000*%
%ADD13RoundRect,0.225000X0.225000X0.250000X-0.225000X0.250000X-0.225000X-0.250000X0.225000X-0.250000X0*%
%ADD14RoundRect,0.200000X0.275000X-0.200000X0.275000X0.200000X-0.275000X0.200000X-0.275000X-0.200000X0*%
%ADD15RoundRect,0.225000X-0.250000X0.225000X-0.250000X-0.225000X0.250000X-0.225000X0.250000X0.225000X0*%
%ADD16R,0.600000X2.450000*%
%ADD17R,0.300000X2.450000*%
%ADD18R,1.100000X0.600000*%
%ADD19RotRect,1.100000X0.800000X135.000000*%
%ADD20R,1.198880X0.548640*%
%ADD21RoundRect,0.218750X0.026517X-0.335876X0.335876X-0.026517X-0.026517X0.335876X-0.335876X0.026517X0*%
%ADD22RoundRect,0.200000X-0.200000X-0.275000X0.200000X-0.275000X0.200000X0.275000X-0.200000X0.275000X0*%
%ADD23RoundRect,0.200000X-0.275000X0.200000X-0.275000X-0.200000X0.275000X-0.200000X0.275000X0.200000X0*%
%ADD24RoundRect,0.140000X-0.140000X-0.170000X0.140000X-0.170000X0.140000X0.170000X-0.140000X0.170000X0*%
%ADD25RoundRect,0.140000X0.170000X-0.140000X0.170000X0.140000X-0.170000X0.140000X-0.170000X-0.140000X0*%
%ADD26R,0.800000X0.600000*%
%ADD27RoundRect,0.140000X-0.170000X0.140000X-0.170000X-0.140000X0.170000X-0.140000X0.170000X0.140000X0*%
%ADD28RoundRect,0.075000X-0.662500X-0.075000X0.662500X-0.075000X0.662500X0.075000X-0.662500X0.075000X0*%
%ADD29RoundRect,0.075000X-0.075000X-0.662500X0.075000X-0.662500X0.075000X0.662500X-0.075000X0.662500X0*%
%ADD30RoundRect,0.218750X-0.218750X-0.256250X0.218750X-0.256250X0.218750X0.256250X-0.218750X0.256250X0*%
%ADD31RoundRect,0.350000X0.350000X-0.350000X0.350000X0.350000X-0.350000X0.350000X-0.350000X-0.350000X0*%
%ADD32R,1.100000X0.800000*%
%ADD33R,0.600000X0.800000*%
%ADD34RoundRect,0.140000X0.140000X0.170000X-0.140000X0.170000X-0.140000X-0.170000X0.140000X-0.170000X0*%
%ADD35RoundRect,0.225000X0.250000X-0.225000X0.250000X0.225000X-0.250000X0.225000X-0.250000X-0.225000X0*%
%ADD36RoundRect,0.218750X0.218750X0.256250X-0.218750X0.256250X-0.218750X-0.256250X0.218750X-0.256250X0*%
%ADD37R,1.400000X0.300000*%
%ADD38RoundRect,0.218750X0.335876X0.026517X0.026517X0.335876X-0.335876X-0.026517X-0.026517X-0.335876X0*%
%ADD39RoundRect,0.160000X-0.195000X-0.160000X0.195000X-0.160000X0.195000X0.160000X-0.195000X0.160000X0*%
%ADD40FreePoly0,0.000000*%
%ADD41RoundRect,0.050000X-0.325000X-0.050000X0.325000X-0.050000X0.325000X0.050000X-0.325000X0.050000X0*%
%ADD42FreePoly1,0.000000*%
%ADD43FreePoly2,0.000000*%
%ADD44RoundRect,0.050000X-0.050000X-0.325000X0.050000X-0.325000X0.050000X0.325000X-0.050000X0.325000X0*%
%ADD45FreePoly3,0.000000*%
%ADD46FreePoly4,0.000000*%
%ADD47FreePoly5,0.000000*%
%ADD48FreePoly6,0.000000*%
%ADD49FreePoly7,0.000000*%
%ADD50R,0.800000X1.100000*%
%ADD51RoundRect,0.135000X0.135000X0.185000X-0.135000X0.185000X-0.135000X-0.185000X0.135000X-0.185000X0*%
%ADD52RoundRect,0.200000X0.200000X0.275000X-0.200000X0.275000X-0.200000X-0.275000X0.200000X-0.275000X0*%
%ADD53RoundRect,0.135000X-0.135000X-0.185000X0.135000X-0.185000X0.135000X0.185000X-0.135000X0.185000X0*%
%ADD54RoundRect,0.225000X-0.225000X-0.250000X0.225000X-0.250000X0.225000X0.250000X-0.225000X0.250000X0*%
G04 APERTURE END LIST*
D10*
X219582439Y-179472525D03*
X219582439Y-178822525D03*
X219582439Y-178172525D03*
X219582439Y-177522525D03*
X216782439Y-177522525D03*
X216782439Y-178172525D03*
X216782439Y-178822525D03*
X216782439Y-179472525D03*
D11*
X218182439Y-178497525D03*
D12*
X218507439Y-179785525D03*
X217857439Y-179785525D03*
X218507439Y-177209525D03*
X217857439Y-177209525D03*
D13*
X223639925Y-173950925D03*
X222089925Y-173950925D03*
D14*
X198424800Y-193407800D03*
X198424800Y-191757800D03*
D13*
X197040800Y-178231800D03*
X195490800Y-178231800D03*
D15*
X210515200Y-167068200D03*
X210515200Y-168618200D03*
D16*
X224823325Y-215120725D03*
X224048325Y-215120725D03*
D17*
X223348325Y-215120725D03*
X222848325Y-215120725D03*
X222348325Y-215120725D03*
X221848325Y-215120725D03*
X221348325Y-215120725D03*
X220848325Y-215120725D03*
X220348325Y-215120725D03*
X219848325Y-215120725D03*
D16*
X219148325Y-215120725D03*
X218373325Y-215120725D03*
D18*
X195690551Y-172387325D03*
X195690551Y-173787325D03*
D19*
X179618285Y-200725685D03*
X181739606Y-203624823D03*
X182517423Y-202847006D03*
D20*
X198218087Y-166686334D03*
X198218087Y-167636294D03*
X198218087Y-168586254D03*
X200813967Y-168586254D03*
X200813967Y-166686334D03*
D21*
X179427553Y-153998247D03*
X180541247Y-152884553D03*
D22*
X194398427Y-165070894D03*
X196048427Y-165070894D03*
D23*
X199948800Y-191757800D03*
X199948800Y-193407800D03*
D24*
X222384925Y-172680925D03*
X223344925Y-172680925D03*
D25*
X214901525Y-173447325D03*
X214901525Y-172487325D03*
D26*
X245760525Y-153593125D03*
X246760525Y-153593125D03*
D10*
X219588325Y-185014925D03*
X219588325Y-184364925D03*
X219588325Y-183714925D03*
X219588325Y-183064925D03*
X216788325Y-183064925D03*
X216788325Y-183714925D03*
X216788325Y-184364925D03*
X216788325Y-185014925D03*
D11*
X218188325Y-184039925D03*
D12*
X218513325Y-185327925D03*
X217863325Y-185327925D03*
X218513325Y-182751925D03*
X217863325Y-182751925D03*
D15*
X207441800Y-167080600D03*
X207441800Y-168630600D03*
D27*
X193975947Y-171619325D03*
X193975947Y-172579325D03*
D23*
X208602325Y-182762494D03*
X208602325Y-184412494D03*
D28*
X201588625Y-172985325D03*
X201588625Y-173485325D03*
X201588625Y-173985325D03*
X201588625Y-174485325D03*
X201588625Y-174985325D03*
X201588625Y-175485325D03*
X201588625Y-175985325D03*
X201588625Y-176485325D03*
X201588625Y-176985325D03*
X201588625Y-177485325D03*
X201588625Y-177985325D03*
X201588625Y-178485325D03*
D29*
X203001125Y-179897825D03*
X203501125Y-179897825D03*
X204001125Y-179897825D03*
X204501125Y-179897825D03*
X205001125Y-179897825D03*
X205501125Y-179897825D03*
X206001125Y-179897825D03*
X206501125Y-179897825D03*
X207001125Y-179897825D03*
X207501125Y-179897825D03*
X208001125Y-179897825D03*
X208501125Y-179897825D03*
D28*
X209913625Y-178485325D03*
X209913625Y-177985325D03*
X209913625Y-177485325D03*
X209913625Y-176985325D03*
X209913625Y-176485325D03*
X209913625Y-175985325D03*
X209913625Y-175485325D03*
X209913625Y-174985325D03*
X209913625Y-174485325D03*
X209913625Y-173985325D03*
X209913625Y-173485325D03*
X209913625Y-172985325D03*
D29*
X208501125Y-171572825D03*
X208001125Y-171572825D03*
X207501125Y-171572825D03*
X207001125Y-171572825D03*
X206501125Y-171572825D03*
X206001125Y-171572825D03*
X205501125Y-171572825D03*
X205001125Y-171572825D03*
X204501125Y-171572825D03*
X204001125Y-171572825D03*
X203501125Y-171572825D03*
X203001125Y-171572825D03*
D30*
X195478300Y-179781200D03*
X197053300Y-179781200D03*
D31*
X205188791Y-223378925D03*
X205188791Y-220128925D03*
X210588791Y-223378925D03*
X210588791Y-220128925D03*
D32*
X152631600Y-201276800D03*
X156181600Y-201826800D03*
X156181600Y-200726800D03*
D33*
X180240200Y-135700325D03*
X180240200Y-134700325D03*
D10*
X219582439Y-173942325D03*
X219582439Y-173292325D03*
X219582439Y-172642325D03*
X219582439Y-171992325D03*
X216782439Y-171992325D03*
X216782439Y-172642325D03*
X216782439Y-173292325D03*
X216782439Y-173942325D03*
D11*
X218182439Y-172967325D03*
D12*
X218507439Y-174255325D03*
X217857439Y-174255325D03*
X218507439Y-171679325D03*
X217857439Y-171679325D03*
D25*
X193975947Y-174535125D03*
X193975947Y-173575125D03*
D34*
X196745800Y-181076600D03*
X195785800Y-181076600D03*
D13*
X223487525Y-179437325D03*
X221937525Y-179437325D03*
D26*
X162222975Y-201332325D03*
X161222975Y-201332325D03*
D22*
X195440800Y-175183800D03*
X197090800Y-175183800D03*
D14*
X207078325Y-184415725D03*
X207078325Y-182765725D03*
X205554325Y-184415725D03*
X205554325Y-182765725D03*
D26*
X184427525Y-97891600D03*
X185427525Y-97891600D03*
D24*
X222254925Y-183709725D03*
X223214925Y-183709725D03*
D32*
X255343325Y-153648650D03*
X251793325Y-153098650D03*
X251793325Y-154198650D03*
D15*
X204038200Y-182816200D03*
X204038200Y-184366200D03*
D35*
X205917800Y-168630600D03*
X205917800Y-167080600D03*
D36*
X196010927Y-166696494D03*
X194435927Y-166696494D03*
D37*
X194906285Y-187870694D03*
X194906285Y-188370694D03*
X194906285Y-188870694D03*
X194906285Y-189370694D03*
X194906285Y-189870694D03*
X199306285Y-189870694D03*
X199306285Y-189370694D03*
X199306285Y-188870694D03*
X199306285Y-188370694D03*
X199306285Y-187870694D03*
D14*
X193344800Y-185254400D03*
X193344800Y-183604400D03*
D35*
X206138525Y-193611800D03*
X206138525Y-192061800D03*
D23*
X208991200Y-167030600D03*
X208991200Y-168680600D03*
D15*
X211147393Y-187464400D03*
X211147393Y-189014400D03*
D38*
X228572647Y-153998247D03*
X227458953Y-152884553D03*
D39*
X208034200Y-187839400D03*
X208034200Y-188639400D03*
X207154200Y-187839400D03*
X207154200Y-188639400D03*
D40*
X206094200Y-187239400D03*
D41*
X206094200Y-187639400D03*
X206094200Y-188039400D03*
X206094200Y-188439400D03*
X206094200Y-188839400D03*
D42*
X206094200Y-189239400D03*
D43*
X206594200Y-189739400D03*
D44*
X206994200Y-189739400D03*
X207394200Y-189739400D03*
X207794200Y-189739400D03*
X208194200Y-189739400D03*
D45*
X208594200Y-189739400D03*
D46*
X209094200Y-189239400D03*
D41*
X209094200Y-188839400D03*
X209094200Y-188439400D03*
X209094200Y-188039400D03*
X209094200Y-187639400D03*
D47*
X209094200Y-187239400D03*
D48*
X208594200Y-186739400D03*
D44*
X208194200Y-186739400D03*
X207794200Y-186739400D03*
X207394200Y-186739400D03*
X206994200Y-186739400D03*
D49*
X206594200Y-186739400D03*
D50*
X180295725Y-126117525D03*
X179745725Y-129667525D03*
X180845725Y-129667525D03*
D51*
X202323902Y-188565894D03*
X201303902Y-188565894D03*
D13*
X204405827Y-168601494D03*
X202855827Y-168601494D03*
D21*
X227457000Y-202055047D03*
X228570694Y-200941353D03*
D35*
X211251800Y-171717000D03*
X211251800Y-170167000D03*
D24*
X222232525Y-178091125D03*
X223192525Y-178091125D03*
D25*
X214901525Y-178977525D03*
X214901525Y-178017525D03*
D22*
X202805827Y-166696494D03*
X204455827Y-166696494D03*
D52*
X197090800Y-176707800D03*
X195440800Y-176707800D03*
D32*
X183152525Y-95250600D03*
X186702525Y-95800600D03*
X186702525Y-94700600D03*
D25*
X214914725Y-185022725D03*
X214914725Y-184062725D03*
D33*
X177723800Y-197874000D03*
X177723800Y-198874000D03*
D13*
X223509925Y-185030525D03*
X221959925Y-185030525D03*
D51*
X202323902Y-189658094D03*
X201303902Y-189658094D03*
D53*
X198641525Y-178482094D03*
X199661525Y-178482094D03*
D54*
X194473827Y-168601494D03*
X196023827Y-168601494D03*
M02*
