M48
; DRILL file {KiCad (6.0.9)} date Fri Apr 21 13:17:31 2023
; FORMAT={-:-/ absolute / metric / decimal}
; #@! TF.CreationDate,2023-04-21T13:17:31-03:00
; #@! TF.GenerationSoftware,Kicad,Pcbnew,(6.0.9)
; #@! TF.FileFunction,NonPlated,1,2,NPTH
FMAT,2
METRIC
; #@! TA.AperFunction,NonPlated,NPTH,ComponentDrill
T1C0.500
; #@! TA.AperFunction,NonPlated,NPTH,ComponentDrill
T2C0.650
; #@! TA.AperFunction,NonPlated,NPTH,ComponentDrill
T3C0.991
; #@! TA.AperFunction,NonPlated,NPTH,ComponentDrill
T4C1.200
; #@! TA.AperFunction,NonPlated,NPTH,ComponentDrill
T5C2.200
; #@! TA.AperFunction,NonPlated,NPTH,ComponentDrill
T6C3.000
%
G90
G05
T1
X174.828Y-157.613
X174.828Y-158.363
X174.828Y-159.113
X174.828Y-159.863
X174.828Y-160.613
X174.828Y-161.363
X174.828Y-162.113
X174.83Y-192.813
X174.83Y-193.563
X174.83Y-194.313
X174.83Y-195.063
X174.83Y-195.813
X174.83Y-196.563
X174.83Y-197.313
X176.328Y-157.613
X176.328Y-158.363
X176.328Y-159.113
X176.328Y-159.863
X176.328Y-160.613
X176.328Y-161.363
X176.328Y-162.113
X176.33Y-192.813
X176.33Y-193.563
X176.33Y-194.313
X176.33Y-195.063
X176.33Y-195.813
X176.33Y-196.563
X176.33Y-197.313
X184.148Y-110.703
X184.148Y-112.203
X184.148Y-148.303
X184.148Y-149.803
X184.898Y-110.703
X184.898Y-112.203
X184.898Y-148.303
X184.898Y-149.803
X185.648Y-110.703
X185.648Y-112.203
X185.648Y-148.303
X185.648Y-149.803
X186.398Y-110.703
X186.398Y-112.203
X186.398Y-148.303
X186.398Y-149.803
X187.148Y-110.703
X187.148Y-112.203
X187.148Y-148.303
X187.148Y-149.803
X187.898Y-110.703
X187.898Y-112.203
X187.898Y-148.303
X187.898Y-149.803
X188.648Y-110.703
X188.648Y-112.203
X188.648Y-148.303
X188.648Y-149.803
X201.748Y-205.113
X201.748Y-206.613
X202.498Y-205.113
X202.498Y-206.613
X203.248Y-205.113
X203.248Y-206.613
X203.998Y-205.113
X203.998Y-206.613
X204.748Y-205.113
X204.748Y-206.613
X205.498Y-205.113
X205.498Y-206.613
X206.248Y-205.113
X206.248Y-206.613
X219.348Y-110.703
X219.348Y-112.203
X219.348Y-148.303
X219.348Y-149.803
X220.098Y-110.703
X220.098Y-112.203
X220.098Y-148.303
X220.098Y-149.803
X220.848Y-110.703
X220.848Y-112.203
X220.848Y-148.303
X220.848Y-149.803
X221.598Y-110.703
X221.598Y-112.203
X221.598Y-148.303
X221.598Y-149.803
X222.348Y-110.703
X222.348Y-112.203
X222.348Y-148.303
X222.348Y-149.803
X223.098Y-110.703
X223.098Y-112.203
X223.098Y-148.303
X223.098Y-149.803
X223.848Y-110.703
X223.848Y-112.203
X223.848Y-148.303
X223.848Y-149.803
X231.652Y-157.613
X231.652Y-158.363
X231.652Y-159.113
X231.652Y-159.863
X231.652Y-160.613
X231.652Y-161.363
X231.652Y-162.113
X231.652Y-192.813
X231.652Y-193.563
X231.652Y-194.313
X231.652Y-195.063
X231.652Y-195.813
X231.652Y-196.563
X231.652Y-197.313
X233.152Y-157.613
X233.152Y-158.363
X233.152Y-159.113
X233.152Y-159.863
X233.152Y-160.613
X233.152Y-161.363
X233.152Y-162.113
X233.152Y-192.813
X233.152Y-193.563
X233.152Y-194.313
X233.152Y-195.063
X233.152Y-195.813
X233.152Y-196.563
X233.152Y-197.313
T2
X218.708Y-213.176
X224.488Y-213.176
T3
X201.458Y-161.391
X201.458Y-163.423
X206.538Y-162.407
T4
X187.025Y-62.825
X187.025Y-66.825
T5
X183.648Y-61.089
X183.648Y-101.789
X183.648Y-157.113
X183.648Y-197.813
X190.563Y-164.028
X190.563Y-190.898
X217.433Y-164.028
X217.433Y-190.898
X224.348Y-61.089
X224.348Y-101.789
X224.348Y-157.113
X224.348Y-197.813
T6
X186.99Y-238.36
T0
M30
