%TF.GenerationSoftware,KiCad,Pcbnew,(6.0.9)*%
%TF.CreationDate,2023-04-01T02:53:39-03:00*%
%TF.ProjectId,PANEL-COMPLETE,50414e45-4c2d-4434-9f4d-504c4554452e,Rev 3*%
%TF.SameCoordinates,Original*%
%TF.FileFunction,Drillmap*%
%TF.FilePolarity,Positive*%
%FSLAX45Y45*%
G04 Gerber Fmt 4.5, Leading zero omitted, Abs format (unit mm)*
G04 Created by KiCad (PCBNEW (6.0.9)) date 2023-04-01 02:53:39*
%MOMM*%
%LPD*%
G01*
G04 APERTURE LIST*
%ADD10C,0.100000*%
%ADD11C,0.200000*%
%ADD12C,0.050000*%
%ADD13C,0.065000*%
%ADD14C,0.099060*%
%ADD15C,0.120000*%
%ADD16C,0.220000*%
%ADD17C,0.300000*%
G04 APERTURE END LIST*
D10*
X18089833Y-9553920D02*
G75*
G03*
X17869833Y-9553920I-110000J0D01*
G01*
X22634827Y-20346293D02*
G75*
G03*
X22534832Y-20246293I-99998J3D01*
G01*
X22639832Y-15006272D02*
X22512077Y-15006272D01*
X18089833Y-19156273D02*
G75*
G03*
X17869833Y-19156273I-110000J0D01*
G01*
X22929832Y-9553920D02*
X22929832Y-10253920D01*
X16297517Y-15446272D02*
X15097517Y-15446272D01*
X21684833Y-20486293D02*
X21684833Y-20346293D01*
X17659833Y-19986273D02*
X17659833Y-19857858D01*
X26700832Y-20246273D02*
X26700832Y-19921273D01*
X22699832Y-21846273D02*
X22899832Y-21846273D01*
X22910980Y-14645252D02*
X22910980Y-13645252D01*
X20749829Y-20686273D02*
X21099833Y-20686273D01*
X18224833Y-24046272D02*
X18224833Y-24246272D01*
X19699833Y-20686273D02*
X20049836Y-20686273D01*
X17199833Y-5243920D02*
X23599832Y-5243920D01*
X22509832Y-10673920D02*
X21809833Y-10673920D01*
X17199833Y-11043920D02*
X17199833Y-5243920D01*
X21809500Y-11245252D02*
X21755980Y-11245252D01*
X22599832Y-21896273D02*
G75*
G03*
X22599832Y-21896273I-50000J0D01*
G01*
X23340832Y-16401272D02*
X23500832Y-16401272D01*
X22639832Y-20486273D02*
X23139832Y-19986273D01*
X22509832Y-10673920D02*
G75*
G03*
X22509832Y-10453920I-3J110000D01*
G01*
X26700832Y-15571272D02*
X26700832Y-15446272D01*
X23340832Y-19921273D02*
X23500832Y-19921273D01*
X22639832Y-20486273D02*
X22634832Y-20486293D01*
X23340832Y-15571272D02*
X23500832Y-15571272D01*
X19764833Y-20056268D02*
G75*
G03*
X19764833Y-20276273I-3J-110003D01*
G01*
X22709832Y-19156273D02*
X22709832Y-19856273D01*
X22710980Y-12445252D02*
X22910980Y-12445252D01*
X23139832Y-15634658D02*
X23139832Y-15506272D01*
X18288950Y-14805252D02*
X18235980Y-14805252D01*
X17457518Y-19921273D02*
X17297518Y-19921273D01*
X22899832Y-21846273D02*
X22899832Y-23046272D01*
X18089833Y-6033920D02*
G75*
G03*
X17869833Y-6033920I-110000J0D01*
G01*
X19065980Y-14805252D02*
X18990635Y-14805252D01*
X18289059Y-11245252D02*
X18235980Y-11245252D01*
X22506149Y-11043928D02*
G75*
G03*
X22516304Y-11245252I5081J-100662D01*
G01*
X22509832Y-5833920D02*
G75*
G03*
X22509832Y-5613920I-3J110000D01*
G01*
X19054833Y-24046272D02*
X19054833Y-24246272D01*
X22585980Y-14805252D02*
X22585980Y-14645252D01*
X22929832Y-15636272D02*
G75*
G03*
X22709832Y-15636272I-110000J0D01*
G01*
X23340835Y-16338887D02*
G75*
G03*
X23139832Y-16336320I-100485J2567D01*
G01*
X17869833Y-19156273D02*
X17869833Y-19856273D01*
X23500832Y-19921273D02*
X23500832Y-20246273D01*
X22511365Y-14805247D02*
G75*
G03*
X22512077Y-15006272I355J-100513D01*
G01*
X22929832Y-9553920D02*
G75*
G03*
X22709832Y-9553920I-110000J0D01*
G01*
X14097517Y-19091273D02*
X13897517Y-19091273D01*
X23340832Y-19156680D02*
X23340832Y-19091273D01*
X14097517Y-16401272D02*
X14097517Y-19091273D01*
X15097517Y-20046273D02*
X15097517Y-20246273D01*
X23139832Y-19986273D02*
X23139832Y-19855865D01*
X26700832Y-15446272D02*
X25700832Y-15446272D01*
X18288055Y-11043920D02*
X17199833Y-11043920D01*
X17659833Y-16338388D02*
G75*
G03*
X17457518Y-16338388I-101158J0D01*
G01*
X17457523Y-15634157D02*
G75*
G03*
X17659833Y-15633157I101158J-3D01*
G01*
X19699833Y-20686273D02*
X19699833Y-20846273D01*
X16297517Y-20246273D02*
X16297517Y-20046273D01*
X22709832Y-6733920D02*
G75*
G03*
X22929832Y-6733920I110000J0D01*
G01*
X18224833Y-24046272D02*
X17899833Y-24046272D01*
X26700832Y-15571272D02*
X26900832Y-15571272D01*
X18289833Y-10453920D02*
G75*
G03*
X18289833Y-10673920I-3J-110000D01*
G01*
X17457518Y-19091273D02*
X17297518Y-19091273D01*
X16297517Y-20046273D02*
X17297518Y-20046273D01*
X19065980Y-14645252D02*
X21755980Y-14645252D01*
X22910980Y-11445252D02*
X22585980Y-11445252D01*
X22929832Y-16336272D02*
X22929832Y-15636272D01*
X21809390Y-15006272D02*
X18991635Y-15006272D01*
X17899833Y-20846273D02*
X19699833Y-20846273D01*
X17869833Y-16336272D02*
G75*
G03*
X18089833Y-16336272I110000J0D01*
G01*
X17297518Y-20046273D02*
X17297518Y-19921273D01*
X21099833Y-20686273D02*
X21099833Y-20846273D01*
X20395400Y-22096273D02*
G75*
G03*
X20395400Y-22096273I-50000J0D01*
G01*
X26900832Y-19921273D02*
X26900832Y-19091273D01*
X21809500Y-11245260D02*
G75*
G03*
X21809500Y-11043920I0J100670D01*
G01*
X20395400Y-21896273D02*
G75*
G03*
X20395400Y-21896273I-50000J0D01*
G01*
X17457518Y-19091273D02*
X17457518Y-19156676D01*
X18289833Y-15436272D02*
X18989833Y-15436272D01*
X17910980Y-12445252D02*
X17910980Y-13645252D01*
X14097517Y-19921273D02*
X13897517Y-19921273D01*
X23139832Y-19155865D02*
X23139832Y-16336320D01*
X21809833Y-5613920D02*
X22509832Y-5613920D01*
X18990635Y-14805247D02*
G75*
G03*
X18991635Y-15006272I495J-100513D01*
G01*
X22929832Y-19856273D02*
X22929832Y-19156273D01*
X17910980Y-13645252D02*
X18110980Y-13645252D01*
X18099833Y-21846273D02*
X17899833Y-21846273D01*
X23500832Y-16401272D02*
X23500832Y-19091273D01*
X18089833Y-9553920D02*
X18089833Y-10253920D01*
X23500832Y-20246273D02*
X24500832Y-20246273D01*
X18099833Y-21846273D02*
X18099833Y-23046272D01*
X22699832Y-24046272D02*
X22574832Y-24046272D01*
X17297518Y-15246272D02*
X16297517Y-15246272D01*
X22585980Y-14645252D02*
X22910980Y-14645252D01*
X22509832Y-5833920D02*
X21809833Y-5833920D01*
X26700832Y-19091273D02*
X26700832Y-16401272D01*
X21034833Y-20276268D02*
G75*
G03*
X21034833Y-20056273I-3J109998D01*
G01*
X21755980Y-11445252D02*
X19065980Y-11445252D01*
X17457518Y-16338388D02*
X17457518Y-16401272D01*
X18159833Y-15006272D02*
X17659833Y-15506272D01*
X18089833Y-16336272D02*
X18089833Y-15636272D01*
X17659833Y-19153571D02*
X17659833Y-16338388D01*
X20049836Y-20686268D02*
G75*
G03*
X20049836Y-20486293I4J99988D01*
G01*
X19054833Y-24246272D02*
X18224833Y-24246272D01*
X22585980Y-11445252D02*
X22585980Y-11245252D01*
X22929832Y-6033920D02*
X22929832Y-6733920D01*
X19945820Y-21896273D02*
G75*
G03*
X19945820Y-21896273I-50000J0D01*
G01*
X22534832Y-20246293D02*
X21784833Y-20246293D01*
X17869833Y-6733920D02*
X17869833Y-6033920D01*
X22509832Y-15436267D02*
G75*
G03*
X22509832Y-15216272I-3J109998D01*
G01*
X18299833Y-22096273D02*
G75*
G03*
X18299833Y-22096273I-50000J0D01*
G01*
X13897517Y-15571272D02*
X13897517Y-16401272D01*
X17457518Y-19855869D02*
X17457518Y-19921273D01*
X26700832Y-19921273D02*
X26900832Y-19921273D01*
X22929832Y-19156273D02*
G75*
G03*
X22709832Y-19156273I-110000J0D01*
G01*
X21809833Y-5613920D02*
G75*
G03*
X21809833Y-5833920I-3J-110000D01*
G01*
X22910980Y-12445252D02*
X22910980Y-11445252D01*
X18110980Y-12445252D02*
X17910980Y-12445252D01*
X21784833Y-20246293D02*
G75*
G03*
X21684833Y-20346293I-3J-99998D01*
G01*
X22709832Y-10253920D02*
X22709832Y-9553920D01*
X21744833Y-24046272D02*
X19054833Y-24046272D01*
X23599832Y-11043920D02*
X22506148Y-11043920D01*
X20749836Y-20486288D02*
G75*
G03*
X20749829Y-20686273I4J-99993D01*
G01*
X18235980Y-14805252D02*
X18235980Y-14645252D01*
X17457518Y-15571272D02*
X17297518Y-15571272D01*
X17457518Y-15571272D02*
X17457518Y-15634157D01*
X24500832Y-15446272D02*
X23500832Y-15446272D01*
X15097517Y-15246272D02*
X14097517Y-15246272D01*
X18089833Y-15636272D02*
G75*
G03*
X17869833Y-15636272I-110000J0D01*
G01*
X19764833Y-20276273D02*
X21034833Y-20276273D01*
X23340832Y-19091273D02*
X23500832Y-19091273D01*
X19945820Y-22096273D02*
G75*
G03*
X19945820Y-22096273I-50000J0D01*
G01*
X18989833Y-15436267D02*
G75*
G03*
X18989833Y-15216272I-3J109998D01*
G01*
X26700832Y-16401272D02*
X26900832Y-16401272D01*
X18289059Y-11245260D02*
G75*
G03*
X18288055Y-11043920I-499J100670D01*
G01*
X17869833Y-19856273D02*
G75*
G03*
X18089833Y-19856273I110000J0D01*
G01*
X25700832Y-20046273D02*
X25700832Y-20246273D01*
X18089833Y-19856273D02*
X18089833Y-19156273D01*
X18299833Y-21896273D02*
G75*
G03*
X18299833Y-21896273I-50000J0D01*
G01*
X22910980Y-13645252D02*
X22710980Y-13645252D01*
X18288950Y-15006267D02*
G75*
G03*
X18288950Y-14805252I0J100508D01*
G01*
X22709832Y-10253920D02*
G75*
G03*
X22929832Y-10253920I110000J0D01*
G01*
X14097517Y-19921273D02*
X14097517Y-20046273D01*
X23500832Y-15446272D02*
X23500832Y-15571272D01*
X22709832Y-15636272D02*
X22709832Y-16336272D01*
X21809833Y-10453920D02*
X22509832Y-10453920D01*
X21809390Y-15006267D02*
G75*
G03*
X21809390Y-14805252I0J100508D01*
G01*
X17899833Y-21846273D02*
X17899833Y-20846273D01*
X21755980Y-11445252D02*
X21755980Y-11245252D01*
X17457518Y-16401272D02*
X17297518Y-16401272D01*
X24500832Y-15246272D02*
X24500832Y-15446272D01*
X23139832Y-15506272D02*
X22639832Y-15006272D01*
X17869833Y-6733920D02*
G75*
G03*
X18089833Y-6733920I110000J0D01*
G01*
X17457519Y-19156676D02*
G75*
G03*
X17659833Y-19153571I101181J-14D01*
G01*
X18370000Y-20486293D02*
X18159833Y-20486273D01*
X21099833Y-20846273D02*
X22699832Y-20846273D01*
X18289833Y-15216267D02*
G75*
G03*
X18289833Y-15436272I-3J-110003D01*
G01*
X22699832Y-20846273D02*
X22699832Y-21846273D01*
X26900832Y-16401272D02*
X26900832Y-15571272D01*
X18289833Y-5613920D02*
X18989833Y-5613920D01*
X18989833Y-15216272D02*
X18289833Y-15216272D01*
X24500832Y-20246273D02*
X24500832Y-20046273D01*
X18989833Y-5833920D02*
X18289833Y-5833920D01*
X21744833Y-24046272D02*
X21744833Y-24246272D01*
X23599832Y-5243920D02*
X23599832Y-11043920D01*
X17297518Y-19091273D02*
X17297518Y-16401272D01*
X22599832Y-22096273D02*
G75*
G03*
X22599832Y-22096273I-50000J0D01*
G01*
X18289833Y-5613920D02*
G75*
G03*
X18289833Y-5833920I-3J-110000D01*
G01*
X18289833Y-10453920D02*
X18989833Y-10453920D01*
X21684833Y-20486293D02*
X20749836Y-20486293D01*
X26700832Y-19091273D02*
X26900832Y-19091273D01*
X18989833Y-10673920D02*
G75*
G03*
X18989833Y-10453920I-3J110000D01*
G01*
X22509832Y-15216272D02*
X21809833Y-15216272D01*
X18235980Y-11445252D02*
X18235980Y-11245252D01*
X18110980Y-14645252D02*
X18235980Y-14645252D01*
X21809390Y-14805252D02*
X21755980Y-14805252D01*
X15097517Y-15446272D02*
X15097517Y-15246272D01*
X17869833Y-10253920D02*
X17869833Y-9553920D01*
X21755980Y-14805252D02*
X21755980Y-14645252D01*
X18235980Y-11445252D02*
X18110980Y-11445252D01*
X17869833Y-10253920D02*
G75*
G03*
X18089833Y-10253920I110000J0D01*
G01*
X20049836Y-20486293D02*
X18370000Y-20486293D01*
X17297518Y-15571272D02*
X17297518Y-15246272D01*
X22574832Y-24046272D02*
X22574832Y-24246272D01*
X23340832Y-19855865D02*
G75*
G03*
X23139832Y-19855865I-100500J0D01*
G01*
X22710980Y-13645252D02*
X22710980Y-12445252D01*
X19065980Y-14805252D02*
X19065980Y-14645252D01*
X18990524Y-11043927D02*
G75*
G03*
X18991524Y-11245252I496J-100663D01*
G01*
X22929832Y-6033920D02*
G75*
G03*
X22709832Y-6033920I-110000J0D01*
G01*
X18110980Y-11445252D02*
X18110980Y-12445252D01*
X17899833Y-23046272D02*
X18099833Y-23046272D01*
X21809500Y-11043920D02*
X18990524Y-11043920D01*
X14097517Y-20046273D02*
X15097517Y-20046273D01*
X23139822Y-15634658D02*
G75*
G03*
X23340832Y-15633658I100508J-2D01*
G01*
X17899833Y-24046272D02*
X17899833Y-23046272D01*
X24500832Y-20046273D02*
X25700832Y-20046273D01*
X23139839Y-19155865D02*
G75*
G03*
X23340832Y-19156680I100491J-1815D01*
G01*
X18989833Y-10673920D02*
X18289833Y-10673920D01*
X22574832Y-24246272D02*
X21744833Y-24246272D01*
X14097517Y-16401272D02*
X13897517Y-16401272D01*
X23340832Y-19921273D02*
X23340832Y-19855865D01*
X21809833Y-10453920D02*
G75*
G03*
X21809833Y-10673920I-3J-110000D01*
G01*
X22585980Y-11245252D02*
X22516304Y-11245252D01*
X18288950Y-15006272D02*
X18159833Y-15006272D01*
X22709832Y-16336272D02*
G75*
G03*
X22929832Y-16336272I110000J0D01*
G01*
X17659833Y-15633157D02*
X17659833Y-15506272D01*
X25700832Y-15246272D02*
X24500832Y-15246272D01*
X18989833Y-5833920D02*
G75*
G03*
X18989833Y-5613920I-3J110000D01*
G01*
X22585980Y-14805252D02*
X22511365Y-14805252D01*
X17659833Y-19986273D02*
X18159833Y-20486273D01*
X25700832Y-20246273D02*
X26700832Y-20246273D01*
X14097517Y-15571272D02*
X13897517Y-15571272D01*
X17659842Y-19857858D02*
G75*
G03*
X17457518Y-19855869I-101172J-2D01*
G01*
X17869833Y-15636272D02*
X17869833Y-16336272D01*
X18089833Y-6033920D02*
X18089833Y-6733920D01*
X14097517Y-15246272D02*
X14097517Y-15571272D01*
X22899832Y-23046272D02*
X22699832Y-23046272D01*
X16297517Y-15246272D02*
X16297517Y-15446272D01*
X22709832Y-19856273D02*
G75*
G03*
X22929832Y-19856273I110000J0D01*
G01*
X18110980Y-14645252D02*
X18110980Y-13645252D01*
X22634832Y-20486293D02*
X22634832Y-20346293D01*
X15097517Y-20246273D02*
X16297517Y-20246273D01*
X23340832Y-15633658D02*
X23340832Y-15571272D01*
X23340832Y-16401272D02*
X23340832Y-16338887D01*
X19065980Y-11445252D02*
X19065980Y-11245252D01*
X13897517Y-19091273D02*
X13897517Y-19921273D01*
X21034833Y-20056273D02*
X19764833Y-20056273D01*
X25700832Y-15446272D02*
X25700832Y-15246272D01*
X22699832Y-23046272D02*
X22699832Y-24046272D01*
X21809833Y-15216267D02*
G75*
G03*
X21809833Y-15436272I-3J-110003D01*
G01*
X21809833Y-15436272D02*
X22509832Y-15436272D01*
X19065980Y-11245252D02*
X18991524Y-11245252D01*
X22709832Y-6733920D02*
X22709832Y-6033920D01*
D11*
D12*
X17457833Y-15736272D02*
X17507833Y-15786272D01*
X17507833Y-15736272D02*
X17457833Y-15786272D01*
X17457833Y-15811272D02*
X17507833Y-15861272D01*
X17507833Y-15811272D02*
X17457833Y-15861272D01*
X17457833Y-15886272D02*
X17507833Y-15936272D01*
X17507833Y-15886272D02*
X17457833Y-15936272D01*
X17457833Y-15961272D02*
X17507833Y-16011272D01*
X17507833Y-15961272D02*
X17457833Y-16011272D01*
X17457833Y-16036272D02*
X17507833Y-16086272D01*
X17507833Y-16036272D02*
X17457833Y-16086272D01*
X17457833Y-16111272D02*
X17507833Y-16161272D01*
X17507833Y-16111272D02*
X17457833Y-16161272D01*
X17457833Y-16186272D02*
X17507833Y-16236272D01*
X17507833Y-16186272D02*
X17457833Y-16236272D01*
X17458033Y-19256273D02*
X17508033Y-19306273D01*
X17508033Y-19256273D02*
X17458033Y-19306273D01*
X17458033Y-19331273D02*
X17508033Y-19381273D01*
X17508033Y-19331273D02*
X17458033Y-19381273D01*
X17458033Y-19406273D02*
X17508033Y-19456273D01*
X17508033Y-19406273D02*
X17458033Y-19456273D01*
X17458033Y-19481273D02*
X17508033Y-19531273D01*
X17508033Y-19481273D02*
X17458033Y-19531273D01*
X17458033Y-19556273D02*
X17508033Y-19606273D01*
X17508033Y-19556273D02*
X17458033Y-19606273D01*
X17458033Y-19631273D02*
X17508033Y-19681273D01*
X17508033Y-19631273D02*
X17458033Y-19681273D01*
X17458033Y-19706273D02*
X17508033Y-19756273D01*
X17508033Y-19706273D02*
X17458033Y-19756273D01*
X17607833Y-15736272D02*
X17657833Y-15786272D01*
X17657833Y-15736272D02*
X17607833Y-15786272D01*
X17607833Y-15811272D02*
X17657833Y-15861272D01*
X17657833Y-15811272D02*
X17607833Y-15861272D01*
X17607833Y-15886272D02*
X17657833Y-15936272D01*
X17657833Y-15886272D02*
X17607833Y-15936272D01*
X17607833Y-15961272D02*
X17657833Y-16011272D01*
X17657833Y-15961272D02*
X17607833Y-16011272D01*
X17607833Y-16036272D02*
X17657833Y-16086272D01*
X17657833Y-16036272D02*
X17607833Y-16086272D01*
X17607833Y-16111272D02*
X17657833Y-16161272D01*
X17657833Y-16111272D02*
X17607833Y-16161272D01*
X17607833Y-16186272D02*
X17657833Y-16236272D01*
X17657833Y-16186272D02*
X17607833Y-16236272D01*
X17608033Y-19256273D02*
X17658033Y-19306273D01*
X17658033Y-19256273D02*
X17608033Y-19306273D01*
X17608033Y-19331273D02*
X17658033Y-19381273D01*
X17658033Y-19331273D02*
X17608033Y-19381273D01*
X17608033Y-19406273D02*
X17658033Y-19456273D01*
X17658033Y-19406273D02*
X17608033Y-19456273D01*
X17608033Y-19481273D02*
X17658033Y-19531273D01*
X17658033Y-19481273D02*
X17608033Y-19531273D01*
X17608033Y-19556273D02*
X17658033Y-19606273D01*
X17658033Y-19556273D02*
X17608033Y-19606273D01*
X17608033Y-19631273D02*
X17658033Y-19681273D01*
X17658033Y-19631273D02*
X17608033Y-19681273D01*
X17608033Y-19706273D02*
X17658033Y-19756273D01*
X17658033Y-19706273D02*
X17608033Y-19756273D01*
X18389833Y-11045273D02*
X18439833Y-11095273D01*
X18439833Y-11045273D02*
X18389833Y-11095273D01*
X18389833Y-11195272D02*
X18439833Y-11245272D01*
X18439833Y-11195272D02*
X18389833Y-11245272D01*
X18389833Y-14805272D02*
X18439833Y-14855272D01*
X18439833Y-14805272D02*
X18389833Y-14855272D01*
X18389833Y-14955272D02*
X18439833Y-15005272D01*
X18439833Y-14955272D02*
X18389833Y-15005272D01*
X18464833Y-11045273D02*
X18514833Y-11095273D01*
X18514833Y-11045273D02*
X18464833Y-11095273D01*
X18464833Y-11195272D02*
X18514833Y-11245272D01*
X18514833Y-11195272D02*
X18464833Y-11245272D01*
X18464833Y-14805272D02*
X18514833Y-14855272D01*
X18514833Y-14805272D02*
X18464833Y-14855272D01*
X18464833Y-14955272D02*
X18514833Y-15005272D01*
X18514833Y-14955272D02*
X18464833Y-15005272D01*
X18539833Y-11045273D02*
X18589833Y-11095273D01*
X18589833Y-11045273D02*
X18539833Y-11095273D01*
X18539833Y-11195272D02*
X18589833Y-11245272D01*
X18589833Y-11195272D02*
X18539833Y-11245272D01*
X18539833Y-14805272D02*
X18589833Y-14855272D01*
X18589833Y-14805272D02*
X18539833Y-14855272D01*
X18539833Y-14955272D02*
X18589833Y-15005272D01*
X18589833Y-14955272D02*
X18539833Y-15005272D01*
X18614833Y-11045273D02*
X18664833Y-11095273D01*
X18664833Y-11045273D02*
X18614833Y-11095273D01*
X18614833Y-11195272D02*
X18664833Y-11245272D01*
X18664833Y-11195272D02*
X18614833Y-11245272D01*
X18614833Y-14805272D02*
X18664833Y-14855272D01*
X18664833Y-14805272D02*
X18614833Y-14855272D01*
X18614833Y-14955272D02*
X18664833Y-15005272D01*
X18664833Y-14955272D02*
X18614833Y-15005272D01*
X18689833Y-11045273D02*
X18739833Y-11095273D01*
X18739833Y-11045273D02*
X18689833Y-11095273D01*
X18689833Y-11195272D02*
X18739833Y-11245272D01*
X18739833Y-11195272D02*
X18689833Y-11245272D01*
X18689833Y-14805272D02*
X18739833Y-14855272D01*
X18739833Y-14805272D02*
X18689833Y-14855272D01*
X18689833Y-14955272D02*
X18739833Y-15005272D01*
X18739833Y-14955272D02*
X18689833Y-15005272D01*
X18764833Y-11045273D02*
X18814833Y-11095273D01*
X18814833Y-11045273D02*
X18764833Y-11095273D01*
X18764833Y-11195272D02*
X18814833Y-11245272D01*
X18814833Y-11195272D02*
X18764833Y-11245272D01*
X18764833Y-14805272D02*
X18814833Y-14855272D01*
X18814833Y-14805272D02*
X18764833Y-14855272D01*
X18764833Y-14955272D02*
X18814833Y-15005272D01*
X18814833Y-14955272D02*
X18764833Y-15005272D01*
X18839833Y-11045273D02*
X18889833Y-11095273D01*
X18889833Y-11045273D02*
X18839833Y-11095273D01*
X18839833Y-11195272D02*
X18889833Y-11245272D01*
X18889833Y-11195272D02*
X18839833Y-11245272D01*
X18839833Y-14805272D02*
X18889833Y-14855272D01*
X18889833Y-14805272D02*
X18839833Y-14855272D01*
X18839833Y-14955272D02*
X18889833Y-15005272D01*
X18889833Y-14955272D02*
X18839833Y-15005272D01*
X20149833Y-20486273D02*
X20199833Y-20536273D01*
X20199833Y-20486273D02*
X20149833Y-20536273D01*
X20149833Y-20636273D02*
X20199833Y-20686273D01*
X20199833Y-20636273D02*
X20149833Y-20686273D01*
X20224833Y-20486273D02*
X20274833Y-20536273D01*
X20274833Y-20486273D02*
X20224833Y-20536273D01*
X20224833Y-20636273D02*
X20274833Y-20686273D01*
X20274833Y-20636273D02*
X20224833Y-20686273D01*
X20299833Y-20486273D02*
X20349833Y-20536273D01*
X20349833Y-20486273D02*
X20299833Y-20536273D01*
X20299833Y-20636273D02*
X20349833Y-20686273D01*
X20349833Y-20636273D02*
X20299833Y-20686273D01*
X20374833Y-20486273D02*
X20424833Y-20536273D01*
X20424833Y-20486273D02*
X20374833Y-20536273D01*
X20374833Y-20636273D02*
X20424833Y-20686273D01*
X20424833Y-20636273D02*
X20374833Y-20686273D01*
X20449833Y-20486273D02*
X20499833Y-20536273D01*
X20499833Y-20486273D02*
X20449833Y-20536273D01*
X20449833Y-20636273D02*
X20499833Y-20686273D01*
X20499833Y-20636273D02*
X20449833Y-20686273D01*
X20524833Y-20486273D02*
X20574833Y-20536273D01*
X20574833Y-20486273D02*
X20524833Y-20536273D01*
X20524833Y-20636273D02*
X20574833Y-20686273D01*
X20574833Y-20636273D02*
X20524833Y-20686273D01*
X20599833Y-20486273D02*
X20649833Y-20536273D01*
X20649833Y-20486273D02*
X20599833Y-20536273D01*
X20599833Y-20636273D02*
X20649833Y-20686273D01*
X20649833Y-20636273D02*
X20599833Y-20686273D01*
X21909833Y-11045273D02*
X21959833Y-11095273D01*
X21959833Y-11045273D02*
X21909833Y-11095273D01*
X21909833Y-11195272D02*
X21959833Y-11245272D01*
X21959833Y-11195272D02*
X21909833Y-11245272D01*
X21909833Y-14805272D02*
X21959833Y-14855272D01*
X21959833Y-14805272D02*
X21909833Y-14855272D01*
X21909833Y-14955272D02*
X21959833Y-15005272D01*
X21959833Y-14955272D02*
X21909833Y-15005272D01*
X21984833Y-11045273D02*
X22034833Y-11095273D01*
X22034833Y-11045273D02*
X21984833Y-11095273D01*
X21984833Y-11195272D02*
X22034833Y-11245272D01*
X22034833Y-11195272D02*
X21984833Y-11245272D01*
X21984833Y-14805272D02*
X22034833Y-14855272D01*
X22034833Y-14805272D02*
X21984833Y-14855272D01*
X21984833Y-14955272D02*
X22034833Y-15005272D01*
X22034833Y-14955272D02*
X21984833Y-15005272D01*
X22059833Y-11045273D02*
X22109833Y-11095273D01*
X22109833Y-11045273D02*
X22059833Y-11095273D01*
X22059833Y-11195272D02*
X22109833Y-11245272D01*
X22109833Y-11195272D02*
X22059833Y-11245272D01*
X22059833Y-14805272D02*
X22109833Y-14855272D01*
X22109833Y-14805272D02*
X22059833Y-14855272D01*
X22059833Y-14955272D02*
X22109833Y-15005272D01*
X22109833Y-14955272D02*
X22059833Y-15005272D01*
X22134833Y-11045273D02*
X22184833Y-11095273D01*
X22184833Y-11045273D02*
X22134833Y-11095273D01*
X22134833Y-11195272D02*
X22184833Y-11245272D01*
X22184833Y-11195272D02*
X22134833Y-11245272D01*
X22134833Y-14805272D02*
X22184833Y-14855272D01*
X22184833Y-14805272D02*
X22134833Y-14855272D01*
X22134833Y-14955272D02*
X22184833Y-15005272D01*
X22184833Y-14955272D02*
X22134833Y-15005272D01*
X22209833Y-11045273D02*
X22259833Y-11095273D01*
X22259833Y-11045273D02*
X22209833Y-11095273D01*
X22209833Y-11195272D02*
X22259833Y-11245272D01*
X22259833Y-11195272D02*
X22209833Y-11245272D01*
X22209833Y-14805272D02*
X22259833Y-14855272D01*
X22259833Y-14805272D02*
X22209833Y-14855272D01*
X22209833Y-14955272D02*
X22259833Y-15005272D01*
X22259833Y-14955272D02*
X22209833Y-15005272D01*
X22284833Y-11045273D02*
X22334833Y-11095273D01*
X22334833Y-11045273D02*
X22284833Y-11095273D01*
X22284833Y-11195272D02*
X22334833Y-11245272D01*
X22334833Y-11195272D02*
X22284833Y-11245272D01*
X22284833Y-14805272D02*
X22334833Y-14855272D01*
X22334833Y-14805272D02*
X22284833Y-14855272D01*
X22284833Y-14955272D02*
X22334833Y-15005272D01*
X22334833Y-14955272D02*
X22284833Y-15005272D01*
X22359833Y-11045273D02*
X22409832Y-11095273D01*
X22409832Y-11045273D02*
X22359833Y-11095273D01*
X22359833Y-11195272D02*
X22409832Y-11245272D01*
X22409832Y-11195272D02*
X22359833Y-11245272D01*
X22359833Y-14805272D02*
X22409832Y-14855272D01*
X22409832Y-14805272D02*
X22359833Y-14855272D01*
X22359833Y-14955272D02*
X22409832Y-15005272D01*
X22409832Y-14955272D02*
X22359833Y-15005272D01*
X23140232Y-15736272D02*
X23190232Y-15786272D01*
X23190232Y-15736272D02*
X23140232Y-15786272D01*
X23140232Y-15811272D02*
X23190232Y-15861272D01*
X23190232Y-15811272D02*
X23140232Y-15861272D01*
X23140232Y-15886272D02*
X23190232Y-15936272D01*
X23190232Y-15886272D02*
X23140232Y-15936272D01*
X23140232Y-15961272D02*
X23190232Y-16011272D01*
X23190232Y-15961272D02*
X23140232Y-16011272D01*
X23140232Y-16036272D02*
X23190232Y-16086272D01*
X23190232Y-16036272D02*
X23140232Y-16086272D01*
X23140232Y-16111272D02*
X23190232Y-16161272D01*
X23190232Y-16111272D02*
X23140232Y-16161272D01*
X23140232Y-16186272D02*
X23190232Y-16236272D01*
X23190232Y-16186272D02*
X23140232Y-16236272D01*
X23140232Y-19256273D02*
X23190232Y-19306273D01*
X23190232Y-19256273D02*
X23140232Y-19306273D01*
X23140232Y-19331273D02*
X23190232Y-19381273D01*
X23190232Y-19331273D02*
X23140232Y-19381273D01*
X23140232Y-19406273D02*
X23190232Y-19456273D01*
X23190232Y-19406273D02*
X23140232Y-19456273D01*
X23140232Y-19481273D02*
X23190232Y-19531273D01*
X23190232Y-19481273D02*
X23140232Y-19531273D01*
X23140232Y-19556273D02*
X23190232Y-19606273D01*
X23190232Y-19556273D02*
X23140232Y-19606273D01*
X23140232Y-19631273D02*
X23190232Y-19681273D01*
X23190232Y-19631273D02*
X23140232Y-19681273D01*
X23140232Y-19706273D02*
X23190232Y-19756273D01*
X23190232Y-19706273D02*
X23140232Y-19756273D01*
X23290232Y-15736272D02*
X23340232Y-15786272D01*
X23340232Y-15736272D02*
X23290232Y-15786272D01*
X23290232Y-15811272D02*
X23340232Y-15861272D01*
X23340232Y-15811272D02*
X23290232Y-15861272D01*
X23290232Y-15886272D02*
X23340232Y-15936272D01*
X23340232Y-15886272D02*
X23290232Y-15936272D01*
X23290232Y-15961272D02*
X23340232Y-16011272D01*
X23340232Y-15961272D02*
X23290232Y-16011272D01*
X23290232Y-16036272D02*
X23340232Y-16086272D01*
X23340232Y-16036272D02*
X23290232Y-16086272D01*
X23290232Y-16111272D02*
X23340232Y-16161272D01*
X23340232Y-16111272D02*
X23290232Y-16161272D01*
X23290232Y-16186272D02*
X23340232Y-16236272D01*
X23340232Y-16186272D02*
X23290232Y-16236272D01*
X23290232Y-19256273D02*
X23340232Y-19306273D01*
X23340232Y-19256273D02*
X23290232Y-19306273D01*
X23290232Y-19331273D02*
X23340232Y-19381273D01*
X23340232Y-19331273D02*
X23290232Y-19381273D01*
X23290232Y-19406273D02*
X23340232Y-19456273D01*
X23340232Y-19406273D02*
X23290232Y-19456273D01*
X23290232Y-19481273D02*
X23340232Y-19531273D01*
X23340232Y-19481273D02*
X23290232Y-19531273D01*
X23290232Y-19556273D02*
X23340232Y-19606273D01*
X23340232Y-19556273D02*
X23290232Y-19606273D01*
X23290232Y-19631273D02*
X23340232Y-19681273D01*
X23340232Y-19631273D02*
X23290232Y-19681273D01*
X23290232Y-19706273D02*
X23340232Y-19756273D01*
X23340232Y-19706273D02*
X23290232Y-19756273D01*
D13*
X21903333Y-21317573D02*
G75*
G03*
X21903333Y-21317573I-32500J0D01*
G01*
X22481332Y-21317573D02*
G75*
G03*
X22481332Y-21317573I-32500J0D01*
G01*
D14*
X20145833Y-16089582D02*
X20145833Y-16188642D01*
X20096303Y-16139112D02*
X20195363Y-16139112D01*
X20145833Y-16292782D02*
X20145833Y-16391842D01*
X20096303Y-16342312D02*
X20195363Y-16342312D01*
X20653833Y-16191182D02*
X20653833Y-16290242D01*
X20604303Y-16240712D02*
X20703363Y-16240712D01*
D15*
X18744927Y-6324927D02*
X18744927Y-6240073D01*
X18660073Y-6240073D01*
X18660073Y-6324927D01*
X18744927Y-6324927D01*
X18744927Y-6724927D02*
X18744927Y-6640073D01*
X18660073Y-6640073D01*
X18660073Y-6724927D01*
X18744927Y-6724927D01*
D16*
X18364833Y-6218920D02*
X18474833Y-6108920D01*
X18364833Y-5998920D01*
X18254833Y-6108920D01*
X18364833Y-6218920D01*
X18364833Y-10288920D02*
X18474833Y-10178920D01*
X18364833Y-10068920D01*
X18254833Y-10178920D01*
X18364833Y-10288920D01*
X18364833Y-15821272D02*
X18474833Y-15711272D01*
X18364833Y-15601272D01*
X18254833Y-15711272D01*
X18364833Y-15821272D01*
X18364833Y-19891273D02*
X18474833Y-19781273D01*
X18364833Y-19671273D01*
X18254833Y-19781273D01*
X18364833Y-19891273D01*
X19056330Y-16512770D02*
X19166330Y-16402770D01*
X19056330Y-16292770D01*
X18946330Y-16402770D01*
X19056330Y-16512770D01*
X19056330Y-19199775D02*
X19166330Y-19089775D01*
X19056330Y-18979775D01*
X18946330Y-19089775D01*
X19056330Y-19199775D01*
X21743335Y-16512770D02*
X21853335Y-16402770D01*
X21743335Y-16292770D01*
X21633335Y-16402770D01*
X21743335Y-16512770D01*
X21743335Y-19199775D02*
X21853335Y-19089775D01*
X21743335Y-18979775D01*
X21633335Y-19089775D01*
X21743335Y-19199775D01*
X22434832Y-6218920D02*
X22544832Y-6108920D01*
X22434832Y-5998920D01*
X22324833Y-6108920D01*
X22434832Y-6218920D01*
X22434832Y-10288920D02*
X22544832Y-10178920D01*
X22434832Y-10068920D01*
X22324833Y-10178920D01*
X22434832Y-10288920D01*
X22434832Y-15821272D02*
X22544832Y-15711272D01*
X22434832Y-15601272D01*
X22324833Y-15711272D01*
X22434832Y-15821272D01*
X22434832Y-19891273D02*
X22544832Y-19781273D01*
X22434832Y-19671273D01*
X22324833Y-19781273D01*
X22434832Y-19891273D01*
D17*
X18549000Y-23686000D02*
X18849000Y-23986000D01*
X18849000Y-23686000D02*
X18549000Y-23986000D01*
X18849000Y-23836000D02*
G75*
G03*
X18849000Y-23836000I-150000J0D01*
G01*
D11*
X14150136Y-24561749D02*
X14150136Y-24361749D01*
X14197755Y-24361749D01*
X14226327Y-24371272D01*
X14245375Y-24390320D01*
X14254898Y-24409368D01*
X14264422Y-24447463D01*
X14264422Y-24476034D01*
X14254898Y-24514130D01*
X14245375Y-24533177D01*
X14226327Y-24552225D01*
X14197755Y-24561749D01*
X14150136Y-24561749D01*
X14350136Y-24561749D02*
X14350136Y-24428415D01*
X14350136Y-24466510D02*
X14359660Y-24447463D01*
X14369184Y-24437939D01*
X14388232Y-24428415D01*
X14407279Y-24428415D01*
X14473946Y-24561749D02*
X14473946Y-24428415D01*
X14473946Y-24361749D02*
X14464422Y-24371272D01*
X14473946Y-24380796D01*
X14483470Y-24371272D01*
X14473946Y-24361749D01*
X14473946Y-24380796D01*
X14597755Y-24561749D02*
X14578708Y-24552225D01*
X14569184Y-24533177D01*
X14569184Y-24361749D01*
X14702517Y-24561749D02*
X14683470Y-24552225D01*
X14673946Y-24533177D01*
X14673946Y-24361749D01*
X14931089Y-24561749D02*
X14931089Y-24361749D01*
X14997755Y-24504606D01*
X15064422Y-24361749D01*
X15064422Y-24561749D01*
X15245375Y-24561749D02*
X15245375Y-24456987D01*
X15235851Y-24437939D01*
X15216803Y-24428415D01*
X15178708Y-24428415D01*
X15159660Y-24437939D01*
X15245375Y-24552225D02*
X15226327Y-24561749D01*
X15178708Y-24561749D01*
X15159660Y-24552225D01*
X15150136Y-24533177D01*
X15150136Y-24514130D01*
X15159660Y-24495082D01*
X15178708Y-24485558D01*
X15226327Y-24485558D01*
X15245375Y-24476034D01*
X15340613Y-24428415D02*
X15340613Y-24628415D01*
X15340613Y-24437939D02*
X15359660Y-24428415D01*
X15397755Y-24428415D01*
X15416803Y-24437939D01*
X15426327Y-24447463D01*
X15435851Y-24466510D01*
X15435851Y-24523653D01*
X15426327Y-24542701D01*
X15416803Y-24552225D01*
X15397755Y-24561749D01*
X15359660Y-24561749D01*
X15340613Y-24552225D01*
X15521565Y-24542701D02*
X15531089Y-24552225D01*
X15521565Y-24561749D01*
X15512041Y-24552225D01*
X15521565Y-24542701D01*
X15521565Y-24561749D01*
X15521565Y-24437939D02*
X15531089Y-24447463D01*
X15521565Y-24456987D01*
X15512041Y-24447463D01*
X15521565Y-24437939D01*
X15521565Y-24456987D01*
D12*
X13842517Y-24866272D02*
X13892517Y-24916272D01*
X13892517Y-24866272D02*
X13842517Y-24916272D01*
D11*
X14188232Y-24781749D02*
X14207279Y-24781749D01*
X14226327Y-24791272D01*
X14235851Y-24800796D01*
X14245375Y-24819844D01*
X14254898Y-24857939D01*
X14254898Y-24905558D01*
X14245375Y-24943653D01*
X14235851Y-24962701D01*
X14226327Y-24972225D01*
X14207279Y-24981749D01*
X14188232Y-24981749D01*
X14169184Y-24972225D01*
X14159660Y-24962701D01*
X14150136Y-24943653D01*
X14140613Y-24905558D01*
X14140613Y-24857939D01*
X14150136Y-24819844D01*
X14159660Y-24800796D01*
X14169184Y-24791272D01*
X14188232Y-24781749D01*
X14340613Y-24962701D02*
X14350136Y-24972225D01*
X14340613Y-24981749D01*
X14331089Y-24972225D01*
X14340613Y-24962701D01*
X14340613Y-24981749D01*
X14531089Y-24781749D02*
X14435851Y-24781749D01*
X14426327Y-24876987D01*
X14435851Y-24867463D01*
X14454898Y-24857939D01*
X14502517Y-24857939D01*
X14521565Y-24867463D01*
X14531089Y-24876987D01*
X14540613Y-24896034D01*
X14540613Y-24943653D01*
X14531089Y-24962701D01*
X14521565Y-24972225D01*
X14502517Y-24981749D01*
X14454898Y-24981749D01*
X14435851Y-24972225D01*
X14426327Y-24962701D01*
X14664422Y-24781749D02*
X14683470Y-24781749D01*
X14702517Y-24791272D01*
X14712041Y-24800796D01*
X14721565Y-24819844D01*
X14731089Y-24857939D01*
X14731089Y-24905558D01*
X14721565Y-24943653D01*
X14712041Y-24962701D01*
X14702517Y-24972225D01*
X14683470Y-24981749D01*
X14664422Y-24981749D01*
X14645375Y-24972225D01*
X14635851Y-24962701D01*
X14626327Y-24943653D01*
X14616803Y-24905558D01*
X14616803Y-24857939D01*
X14626327Y-24819844D01*
X14635851Y-24800796D01*
X14645375Y-24791272D01*
X14664422Y-24781749D01*
X14854898Y-24781749D02*
X14873946Y-24781749D01*
X14892994Y-24791272D01*
X14902517Y-24800796D01*
X14912041Y-24819844D01*
X14921565Y-24857939D01*
X14921565Y-24905558D01*
X14912041Y-24943653D01*
X14902517Y-24962701D01*
X14892994Y-24972225D01*
X14873946Y-24981749D01*
X14854898Y-24981749D01*
X14835851Y-24972225D01*
X14826327Y-24962701D01*
X14816803Y-24943653D01*
X14807279Y-24905558D01*
X14807279Y-24857939D01*
X14816803Y-24819844D01*
X14826327Y-24800796D01*
X14835851Y-24791272D01*
X14854898Y-24781749D01*
X15007279Y-24981749D02*
X15007279Y-24848415D01*
X15007279Y-24867463D02*
X15016803Y-24857939D01*
X15035851Y-24848415D01*
X15064422Y-24848415D01*
X15083470Y-24857939D01*
X15092994Y-24876987D01*
X15092994Y-24981749D01*
X15092994Y-24876987D02*
X15102517Y-24857939D01*
X15121565Y-24848415D01*
X15150136Y-24848415D01*
X15169184Y-24857939D01*
X15178708Y-24876987D01*
X15178708Y-24981749D01*
X15273946Y-24981749D02*
X15273946Y-24848415D01*
X15273946Y-24867463D02*
X15283470Y-24857939D01*
X15302517Y-24848415D01*
X15331089Y-24848415D01*
X15350136Y-24857939D01*
X15359660Y-24876987D01*
X15359660Y-24981749D01*
X15359660Y-24876987D02*
X15369184Y-24857939D01*
X15388232Y-24848415D01*
X15416803Y-24848415D01*
X15435851Y-24857939D01*
X15445375Y-24876987D01*
X15445375Y-24981749D01*
X15835851Y-24772225D02*
X15664422Y-25029368D01*
X16092994Y-24781749D02*
X16112041Y-24781749D01*
X16131089Y-24791272D01*
X16140613Y-24800796D01*
X16150136Y-24819844D01*
X16159660Y-24857939D01*
X16159660Y-24905558D01*
X16150136Y-24943653D01*
X16140613Y-24962701D01*
X16131089Y-24972225D01*
X16112041Y-24981749D01*
X16092994Y-24981749D01*
X16073946Y-24972225D01*
X16064422Y-24962701D01*
X16054898Y-24943653D01*
X16045375Y-24905558D01*
X16045375Y-24857939D01*
X16054898Y-24819844D01*
X16064422Y-24800796D01*
X16073946Y-24791272D01*
X16092994Y-24781749D01*
X16245375Y-24962701D02*
X16254898Y-24972225D01*
X16245375Y-24981749D01*
X16235851Y-24972225D01*
X16245375Y-24962701D01*
X16245375Y-24981749D01*
X16378708Y-24781749D02*
X16397755Y-24781749D01*
X16416803Y-24791272D01*
X16426327Y-24800796D01*
X16435851Y-24819844D01*
X16445375Y-24857939D01*
X16445375Y-24905558D01*
X16435851Y-24943653D01*
X16426327Y-24962701D01*
X16416803Y-24972225D01*
X16397755Y-24981749D01*
X16378708Y-24981749D01*
X16359660Y-24972225D01*
X16350136Y-24962701D01*
X16340613Y-24943653D01*
X16331089Y-24905558D01*
X16331089Y-24857939D01*
X16340613Y-24819844D01*
X16350136Y-24800796D01*
X16359660Y-24791272D01*
X16378708Y-24781749D01*
X16635851Y-24981749D02*
X16521565Y-24981749D01*
X16578708Y-24981749D02*
X16578708Y-24781749D01*
X16559660Y-24810320D01*
X16540613Y-24829368D01*
X16521565Y-24838891D01*
X16731089Y-24981749D02*
X16769184Y-24981749D01*
X16788232Y-24972225D01*
X16797756Y-24962701D01*
X16816803Y-24934130D01*
X16826327Y-24896034D01*
X16826327Y-24819844D01*
X16816803Y-24800796D01*
X16807279Y-24791272D01*
X16788232Y-24781749D01*
X16750136Y-24781749D01*
X16731089Y-24791272D01*
X16721565Y-24800796D01*
X16712041Y-24819844D01*
X16712041Y-24867463D01*
X16721565Y-24886510D01*
X16731089Y-24896034D01*
X16750136Y-24905558D01*
X16788232Y-24905558D01*
X16807279Y-24896034D01*
X16816803Y-24886510D01*
X16826327Y-24867463D01*
X16892994Y-24781749D02*
X17026327Y-24781749D01*
X16940613Y-24981749D01*
X17092994Y-24781749D02*
X17092994Y-24819844D01*
X17169184Y-24781749D02*
X17169184Y-24819844D01*
X17464422Y-25057939D02*
X17454898Y-25048415D01*
X17435851Y-25019844D01*
X17426327Y-25000796D01*
X17416803Y-24972225D01*
X17407279Y-24924606D01*
X17407279Y-24886510D01*
X17416803Y-24838891D01*
X17426327Y-24810320D01*
X17435851Y-24791272D01*
X17454898Y-24762701D01*
X17464422Y-24753177D01*
X17645375Y-24981749D02*
X17531089Y-24981749D01*
X17588232Y-24981749D02*
X17588232Y-24781749D01*
X17569184Y-24810320D01*
X17550137Y-24829368D01*
X17531089Y-24838891D01*
X17721565Y-24800796D02*
X17731089Y-24791272D01*
X17750137Y-24781749D01*
X17797756Y-24781749D01*
X17816803Y-24791272D01*
X17826327Y-24800796D01*
X17835851Y-24819844D01*
X17835851Y-24838891D01*
X17826327Y-24867463D01*
X17712041Y-24981749D01*
X17835851Y-24981749D01*
X18007279Y-24781749D02*
X17969184Y-24781749D01*
X17950137Y-24791272D01*
X17940613Y-24800796D01*
X17921565Y-24829368D01*
X17912041Y-24867463D01*
X17912041Y-24943653D01*
X17921565Y-24962701D01*
X17931089Y-24972225D01*
X17950137Y-24981749D01*
X17988232Y-24981749D01*
X18007279Y-24972225D01*
X18016803Y-24962701D01*
X18026327Y-24943653D01*
X18026327Y-24896034D01*
X18016803Y-24876987D01*
X18007279Y-24867463D01*
X17988232Y-24857939D01*
X17950137Y-24857939D01*
X17931089Y-24867463D01*
X17921565Y-24876987D01*
X17912041Y-24896034D01*
X18264422Y-24981749D02*
X18264422Y-24781749D01*
X18350137Y-24981749D02*
X18350137Y-24876987D01*
X18340613Y-24857939D01*
X18321565Y-24848415D01*
X18292994Y-24848415D01*
X18273946Y-24857939D01*
X18264422Y-24867463D01*
X18473946Y-24981749D02*
X18454898Y-24972225D01*
X18445375Y-24962701D01*
X18435851Y-24943653D01*
X18435851Y-24886510D01*
X18445375Y-24867463D01*
X18454898Y-24857939D01*
X18473946Y-24848415D01*
X18502517Y-24848415D01*
X18521565Y-24857939D01*
X18531089Y-24867463D01*
X18540613Y-24886510D01*
X18540613Y-24943653D01*
X18531089Y-24962701D01*
X18521565Y-24972225D01*
X18502517Y-24981749D01*
X18473946Y-24981749D01*
X18654898Y-24981749D02*
X18635851Y-24972225D01*
X18626327Y-24953177D01*
X18626327Y-24781749D01*
X18807279Y-24972225D02*
X18788232Y-24981749D01*
X18750137Y-24981749D01*
X18731089Y-24972225D01*
X18721565Y-24953177D01*
X18721565Y-24876987D01*
X18731089Y-24857939D01*
X18750137Y-24848415D01*
X18788232Y-24848415D01*
X18807279Y-24857939D01*
X18816803Y-24876987D01*
X18816803Y-24896034D01*
X18721565Y-24915082D01*
X18892994Y-24972225D02*
X18912041Y-24981749D01*
X18950137Y-24981749D01*
X18969184Y-24972225D01*
X18978708Y-24953177D01*
X18978708Y-24943653D01*
X18969184Y-24924606D01*
X18950137Y-24915082D01*
X18921565Y-24915082D01*
X18902517Y-24905558D01*
X18892994Y-24886510D01*
X18892994Y-24876987D01*
X18902517Y-24857939D01*
X18921565Y-24848415D01*
X18950137Y-24848415D01*
X18969184Y-24857939D01*
X19045375Y-25057939D02*
X19054898Y-25048415D01*
X19073946Y-25019844D01*
X19083470Y-25000796D01*
X19092994Y-24972225D01*
X19102517Y-24924606D01*
X19102517Y-24886510D01*
X19092994Y-24838891D01*
X19083470Y-24810320D01*
X19073946Y-24791272D01*
X19054898Y-24762701D01*
X19045375Y-24753177D01*
X19407279Y-25057939D02*
X19397756Y-25048415D01*
X19378708Y-25019844D01*
X19369184Y-25000796D01*
X19359660Y-24972225D01*
X19350137Y-24924606D01*
X19350137Y-24886510D01*
X19359660Y-24838891D01*
X19369184Y-24810320D01*
X19378708Y-24791272D01*
X19397756Y-24762701D01*
X19407279Y-24753177D01*
X19483470Y-24848415D02*
X19483470Y-24981749D01*
X19483470Y-24867463D02*
X19492994Y-24857939D01*
X19512041Y-24848415D01*
X19540613Y-24848415D01*
X19559660Y-24857939D01*
X19569184Y-24876987D01*
X19569184Y-24981749D01*
X19692994Y-24981749D02*
X19673946Y-24972225D01*
X19664422Y-24962701D01*
X19654898Y-24943653D01*
X19654898Y-24886510D01*
X19664422Y-24867463D01*
X19673946Y-24857939D01*
X19692994Y-24848415D01*
X19721565Y-24848415D01*
X19740613Y-24857939D01*
X19750137Y-24867463D01*
X19759660Y-24886510D01*
X19759660Y-24943653D01*
X19750137Y-24962701D01*
X19740613Y-24972225D01*
X19721565Y-24981749D01*
X19692994Y-24981749D01*
X19816803Y-24848415D02*
X19892994Y-24848415D01*
X19845375Y-24781749D02*
X19845375Y-24953177D01*
X19854898Y-24972225D01*
X19873946Y-24981749D01*
X19892994Y-24981749D01*
X20112041Y-24848415D02*
X20112041Y-25048415D01*
X20112041Y-24857939D02*
X20131089Y-24848415D01*
X20169184Y-24848415D01*
X20188232Y-24857939D01*
X20197756Y-24867463D01*
X20207279Y-24886510D01*
X20207279Y-24943653D01*
X20197756Y-24962701D01*
X20188232Y-24972225D01*
X20169184Y-24981749D01*
X20131089Y-24981749D01*
X20112041Y-24972225D01*
X20321565Y-24981749D02*
X20302517Y-24972225D01*
X20292994Y-24953177D01*
X20292994Y-24781749D01*
X20483470Y-24981749D02*
X20483470Y-24876987D01*
X20473946Y-24857939D01*
X20454898Y-24848415D01*
X20416803Y-24848415D01*
X20397756Y-24857939D01*
X20483470Y-24972225D02*
X20464422Y-24981749D01*
X20416803Y-24981749D01*
X20397756Y-24972225D01*
X20388232Y-24953177D01*
X20388232Y-24934130D01*
X20397756Y-24915082D01*
X20416803Y-24905558D01*
X20464422Y-24905558D01*
X20483470Y-24896034D01*
X20550137Y-24848415D02*
X20626327Y-24848415D01*
X20578708Y-24781749D02*
X20578708Y-24953177D01*
X20588232Y-24972225D01*
X20607279Y-24981749D01*
X20626327Y-24981749D01*
X20769184Y-24972225D02*
X20750137Y-24981749D01*
X20712041Y-24981749D01*
X20692994Y-24972225D01*
X20683470Y-24953177D01*
X20683470Y-24876987D01*
X20692994Y-24857939D01*
X20712041Y-24848415D01*
X20750137Y-24848415D01*
X20769184Y-24857939D01*
X20778708Y-24876987D01*
X20778708Y-24896034D01*
X20683470Y-24915082D01*
X20950137Y-24981749D02*
X20950137Y-24781749D01*
X20950137Y-24972225D02*
X20931089Y-24981749D01*
X20892994Y-24981749D01*
X20873946Y-24972225D01*
X20864422Y-24962701D01*
X20854898Y-24943653D01*
X20854898Y-24886510D01*
X20864422Y-24867463D01*
X20873946Y-24857939D01*
X20892994Y-24848415D01*
X20931089Y-24848415D01*
X20950137Y-24857939D01*
X21026327Y-25057939D02*
X21035851Y-25048415D01*
X21054898Y-25019844D01*
X21064422Y-25000796D01*
X21073946Y-24972225D01*
X21083470Y-24924606D01*
X21083470Y-24886510D01*
X21073946Y-24838891D01*
X21064422Y-24810320D01*
X21054898Y-24791272D01*
X21035851Y-24762701D01*
X21026327Y-24753177D01*
D13*
X13892517Y-25155272D02*
G75*
G03*
X13892517Y-25155272I-32500J0D01*
G01*
D11*
X14188232Y-25045749D02*
X14207279Y-25045749D01*
X14226327Y-25055272D01*
X14235851Y-25064796D01*
X14245375Y-25083844D01*
X14254898Y-25121939D01*
X14254898Y-25169558D01*
X14245375Y-25207653D01*
X14235851Y-25226701D01*
X14226327Y-25236225D01*
X14207279Y-25245749D01*
X14188232Y-25245749D01*
X14169184Y-25236225D01*
X14159660Y-25226701D01*
X14150136Y-25207653D01*
X14140613Y-25169558D01*
X14140613Y-25121939D01*
X14150136Y-25083844D01*
X14159660Y-25064796D01*
X14169184Y-25055272D01*
X14188232Y-25045749D01*
X14340613Y-25226701D02*
X14350136Y-25236225D01*
X14340613Y-25245749D01*
X14331089Y-25236225D01*
X14340613Y-25226701D01*
X14340613Y-25245749D01*
X14521565Y-25045749D02*
X14483470Y-25045749D01*
X14464422Y-25055272D01*
X14454898Y-25064796D01*
X14435851Y-25093368D01*
X14426327Y-25131463D01*
X14426327Y-25207653D01*
X14435851Y-25226701D01*
X14445375Y-25236225D01*
X14464422Y-25245749D01*
X14502517Y-25245749D01*
X14521565Y-25236225D01*
X14531089Y-25226701D01*
X14540613Y-25207653D01*
X14540613Y-25160034D01*
X14531089Y-25140987D01*
X14521565Y-25131463D01*
X14502517Y-25121939D01*
X14464422Y-25121939D01*
X14445375Y-25131463D01*
X14435851Y-25140987D01*
X14426327Y-25160034D01*
X14721565Y-25045749D02*
X14626327Y-25045749D01*
X14616803Y-25140987D01*
X14626327Y-25131463D01*
X14645375Y-25121939D01*
X14692994Y-25121939D01*
X14712041Y-25131463D01*
X14721565Y-25140987D01*
X14731089Y-25160034D01*
X14731089Y-25207653D01*
X14721565Y-25226701D01*
X14712041Y-25236225D01*
X14692994Y-25245749D01*
X14645375Y-25245749D01*
X14626327Y-25236225D01*
X14616803Y-25226701D01*
X14854898Y-25045749D02*
X14873946Y-25045749D01*
X14892994Y-25055272D01*
X14902517Y-25064796D01*
X14912041Y-25083844D01*
X14921565Y-25121939D01*
X14921565Y-25169558D01*
X14912041Y-25207653D01*
X14902517Y-25226701D01*
X14892994Y-25236225D01*
X14873946Y-25245749D01*
X14854898Y-25245749D01*
X14835851Y-25236225D01*
X14826327Y-25226701D01*
X14816803Y-25207653D01*
X14807279Y-25169558D01*
X14807279Y-25121939D01*
X14816803Y-25083844D01*
X14826327Y-25064796D01*
X14835851Y-25055272D01*
X14854898Y-25045749D01*
X15007279Y-25245749D02*
X15007279Y-25112415D01*
X15007279Y-25131463D02*
X15016803Y-25121939D01*
X15035851Y-25112415D01*
X15064422Y-25112415D01*
X15083470Y-25121939D01*
X15092994Y-25140987D01*
X15092994Y-25245749D01*
X15092994Y-25140987D02*
X15102517Y-25121939D01*
X15121565Y-25112415D01*
X15150136Y-25112415D01*
X15169184Y-25121939D01*
X15178708Y-25140987D01*
X15178708Y-25245749D01*
X15273946Y-25245749D02*
X15273946Y-25112415D01*
X15273946Y-25131463D02*
X15283470Y-25121939D01*
X15302517Y-25112415D01*
X15331089Y-25112415D01*
X15350136Y-25121939D01*
X15359660Y-25140987D01*
X15359660Y-25245749D01*
X15359660Y-25140987D02*
X15369184Y-25121939D01*
X15388232Y-25112415D01*
X15416803Y-25112415D01*
X15435851Y-25121939D01*
X15445375Y-25140987D01*
X15445375Y-25245749D01*
X15835851Y-25036225D02*
X15664422Y-25293368D01*
X16092994Y-25045749D02*
X16112041Y-25045749D01*
X16131089Y-25055272D01*
X16140613Y-25064796D01*
X16150136Y-25083844D01*
X16159660Y-25121939D01*
X16159660Y-25169558D01*
X16150136Y-25207653D01*
X16140613Y-25226701D01*
X16131089Y-25236225D01*
X16112041Y-25245749D01*
X16092994Y-25245749D01*
X16073946Y-25236225D01*
X16064422Y-25226701D01*
X16054898Y-25207653D01*
X16045375Y-25169558D01*
X16045375Y-25121939D01*
X16054898Y-25083844D01*
X16064422Y-25064796D01*
X16073946Y-25055272D01*
X16092994Y-25045749D01*
X16245375Y-25226701D02*
X16254898Y-25236225D01*
X16245375Y-25245749D01*
X16235851Y-25236225D01*
X16245375Y-25226701D01*
X16245375Y-25245749D01*
X16378708Y-25045749D02*
X16397755Y-25045749D01*
X16416803Y-25055272D01*
X16426327Y-25064796D01*
X16435851Y-25083844D01*
X16445375Y-25121939D01*
X16445375Y-25169558D01*
X16435851Y-25207653D01*
X16426327Y-25226701D01*
X16416803Y-25236225D01*
X16397755Y-25245749D01*
X16378708Y-25245749D01*
X16359660Y-25236225D01*
X16350136Y-25226701D01*
X16340613Y-25207653D01*
X16331089Y-25169558D01*
X16331089Y-25121939D01*
X16340613Y-25083844D01*
X16350136Y-25064796D01*
X16359660Y-25055272D01*
X16378708Y-25045749D01*
X16521565Y-25064796D02*
X16531089Y-25055272D01*
X16550136Y-25045749D01*
X16597755Y-25045749D01*
X16616803Y-25055272D01*
X16626327Y-25064796D01*
X16635851Y-25083844D01*
X16635851Y-25102891D01*
X16626327Y-25131463D01*
X16512041Y-25245749D01*
X16635851Y-25245749D01*
X16816803Y-25045749D02*
X16721565Y-25045749D01*
X16712041Y-25140987D01*
X16721565Y-25131463D01*
X16740613Y-25121939D01*
X16788232Y-25121939D01*
X16807279Y-25131463D01*
X16816803Y-25140987D01*
X16826327Y-25160034D01*
X16826327Y-25207653D01*
X16816803Y-25226701D01*
X16807279Y-25236225D01*
X16788232Y-25245749D01*
X16740613Y-25245749D01*
X16721565Y-25236225D01*
X16712041Y-25226701D01*
X16997756Y-25045749D02*
X16959660Y-25045749D01*
X16940613Y-25055272D01*
X16931089Y-25064796D01*
X16912041Y-25093368D01*
X16902518Y-25131463D01*
X16902518Y-25207653D01*
X16912041Y-25226701D01*
X16921565Y-25236225D01*
X16940613Y-25245749D01*
X16978708Y-25245749D01*
X16997756Y-25236225D01*
X17007279Y-25226701D01*
X17016803Y-25207653D01*
X17016803Y-25160034D01*
X17007279Y-25140987D01*
X16997756Y-25131463D01*
X16978708Y-25121939D01*
X16940613Y-25121939D01*
X16921565Y-25131463D01*
X16912041Y-25140987D01*
X16902518Y-25160034D01*
X17092994Y-25045749D02*
X17092994Y-25083844D01*
X17169184Y-25045749D02*
X17169184Y-25083844D01*
X17464422Y-25321939D02*
X17454898Y-25312415D01*
X17435851Y-25283844D01*
X17426327Y-25264796D01*
X17416803Y-25236225D01*
X17407279Y-25188606D01*
X17407279Y-25150510D01*
X17416803Y-25102891D01*
X17426327Y-25074320D01*
X17435851Y-25055272D01*
X17454898Y-25026701D01*
X17464422Y-25017177D01*
X17531089Y-25064796D02*
X17540613Y-25055272D01*
X17559660Y-25045749D01*
X17607279Y-25045749D01*
X17626327Y-25055272D01*
X17635851Y-25064796D01*
X17645375Y-25083844D01*
X17645375Y-25102891D01*
X17635851Y-25131463D01*
X17521565Y-25245749D01*
X17645375Y-25245749D01*
X17883470Y-25245749D02*
X17883470Y-25045749D01*
X17969184Y-25245749D02*
X17969184Y-25140987D01*
X17959660Y-25121939D01*
X17940613Y-25112415D01*
X17912041Y-25112415D01*
X17892994Y-25121939D01*
X17883470Y-25131463D01*
X18092994Y-25245749D02*
X18073946Y-25236225D01*
X18064422Y-25226701D01*
X18054898Y-25207653D01*
X18054898Y-25150510D01*
X18064422Y-25131463D01*
X18073946Y-25121939D01*
X18092994Y-25112415D01*
X18121565Y-25112415D01*
X18140613Y-25121939D01*
X18150137Y-25131463D01*
X18159660Y-25150510D01*
X18159660Y-25207653D01*
X18150137Y-25226701D01*
X18140613Y-25236225D01*
X18121565Y-25245749D01*
X18092994Y-25245749D01*
X18273946Y-25245749D02*
X18254898Y-25236225D01*
X18245375Y-25217177D01*
X18245375Y-25045749D01*
X18426327Y-25236225D02*
X18407279Y-25245749D01*
X18369184Y-25245749D01*
X18350137Y-25236225D01*
X18340613Y-25217177D01*
X18340613Y-25140987D01*
X18350137Y-25121939D01*
X18369184Y-25112415D01*
X18407279Y-25112415D01*
X18426327Y-25121939D01*
X18435851Y-25140987D01*
X18435851Y-25160034D01*
X18340613Y-25179082D01*
X18512041Y-25236225D02*
X18531089Y-25245749D01*
X18569184Y-25245749D01*
X18588232Y-25236225D01*
X18597756Y-25217177D01*
X18597756Y-25207653D01*
X18588232Y-25188606D01*
X18569184Y-25179082D01*
X18540613Y-25179082D01*
X18521565Y-25169558D01*
X18512041Y-25150510D01*
X18512041Y-25140987D01*
X18521565Y-25121939D01*
X18540613Y-25112415D01*
X18569184Y-25112415D01*
X18588232Y-25121939D01*
X18664422Y-25321939D02*
X18673946Y-25312415D01*
X18692994Y-25283844D01*
X18702517Y-25264796D01*
X18712041Y-25236225D01*
X18721565Y-25188606D01*
X18721565Y-25150510D01*
X18712041Y-25102891D01*
X18702517Y-25074320D01*
X18692994Y-25055272D01*
X18673946Y-25026701D01*
X18664422Y-25017177D01*
X19026327Y-25321939D02*
X19016803Y-25312415D01*
X18997756Y-25283844D01*
X18988232Y-25264796D01*
X18978708Y-25236225D01*
X18969184Y-25188606D01*
X18969184Y-25150510D01*
X18978708Y-25102891D01*
X18988232Y-25074320D01*
X18997756Y-25055272D01*
X19016803Y-25026701D01*
X19026327Y-25017177D01*
X19102517Y-25112415D02*
X19102517Y-25245749D01*
X19102517Y-25131463D02*
X19112041Y-25121939D01*
X19131089Y-25112415D01*
X19159660Y-25112415D01*
X19178708Y-25121939D01*
X19188232Y-25140987D01*
X19188232Y-25245749D01*
X19312041Y-25245749D02*
X19292994Y-25236225D01*
X19283470Y-25226701D01*
X19273946Y-25207653D01*
X19273946Y-25150510D01*
X19283470Y-25131463D01*
X19292994Y-25121939D01*
X19312041Y-25112415D01*
X19340613Y-25112415D01*
X19359660Y-25121939D01*
X19369184Y-25131463D01*
X19378708Y-25150510D01*
X19378708Y-25207653D01*
X19369184Y-25226701D01*
X19359660Y-25236225D01*
X19340613Y-25245749D01*
X19312041Y-25245749D01*
X19435851Y-25112415D02*
X19512041Y-25112415D01*
X19464422Y-25045749D02*
X19464422Y-25217177D01*
X19473946Y-25236225D01*
X19492994Y-25245749D01*
X19512041Y-25245749D01*
X19731089Y-25112415D02*
X19731089Y-25312415D01*
X19731089Y-25121939D02*
X19750137Y-25112415D01*
X19788232Y-25112415D01*
X19807279Y-25121939D01*
X19816803Y-25131463D01*
X19826327Y-25150510D01*
X19826327Y-25207653D01*
X19816803Y-25226701D01*
X19807279Y-25236225D01*
X19788232Y-25245749D01*
X19750137Y-25245749D01*
X19731089Y-25236225D01*
X19940613Y-25245749D02*
X19921565Y-25236225D01*
X19912041Y-25217177D01*
X19912041Y-25045749D01*
X20102517Y-25245749D02*
X20102517Y-25140987D01*
X20092994Y-25121939D01*
X20073946Y-25112415D01*
X20035851Y-25112415D01*
X20016803Y-25121939D01*
X20102517Y-25236225D02*
X20083470Y-25245749D01*
X20035851Y-25245749D01*
X20016803Y-25236225D01*
X20007279Y-25217177D01*
X20007279Y-25198130D01*
X20016803Y-25179082D01*
X20035851Y-25169558D01*
X20083470Y-25169558D01*
X20102517Y-25160034D01*
X20169184Y-25112415D02*
X20245375Y-25112415D01*
X20197756Y-25045749D02*
X20197756Y-25217177D01*
X20207279Y-25236225D01*
X20226327Y-25245749D01*
X20245375Y-25245749D01*
X20388232Y-25236225D02*
X20369184Y-25245749D01*
X20331089Y-25245749D01*
X20312041Y-25236225D01*
X20302517Y-25217177D01*
X20302517Y-25140987D01*
X20312041Y-25121939D01*
X20331089Y-25112415D01*
X20369184Y-25112415D01*
X20388232Y-25121939D01*
X20397756Y-25140987D01*
X20397756Y-25160034D01*
X20302517Y-25179082D01*
X20569184Y-25245749D02*
X20569184Y-25045749D01*
X20569184Y-25236225D02*
X20550137Y-25245749D01*
X20512041Y-25245749D01*
X20492994Y-25236225D01*
X20483470Y-25226701D01*
X20473946Y-25207653D01*
X20473946Y-25150510D01*
X20483470Y-25131463D01*
X20492994Y-25121939D01*
X20512041Y-25112415D01*
X20550137Y-25112415D01*
X20569184Y-25121939D01*
X20645375Y-25321939D02*
X20654898Y-25312415D01*
X20673946Y-25283844D01*
X20683470Y-25264796D01*
X20692994Y-25236225D01*
X20702517Y-25188606D01*
X20702517Y-25150510D01*
X20692994Y-25102891D01*
X20683470Y-25074320D01*
X20673946Y-25055272D01*
X20654898Y-25026701D01*
X20645375Y-25017177D01*
D14*
X13842987Y-25369742D02*
X13842987Y-25468802D01*
X13793457Y-25419272D02*
X13892517Y-25419272D01*
D11*
X14188232Y-25309749D02*
X14207279Y-25309749D01*
X14226327Y-25319272D01*
X14235851Y-25328796D01*
X14245375Y-25347844D01*
X14254898Y-25385939D01*
X14254898Y-25433558D01*
X14245375Y-25471653D01*
X14235851Y-25490701D01*
X14226327Y-25500225D01*
X14207279Y-25509749D01*
X14188232Y-25509749D01*
X14169184Y-25500225D01*
X14159660Y-25490701D01*
X14150136Y-25471653D01*
X14140613Y-25433558D01*
X14140613Y-25385939D01*
X14150136Y-25347844D01*
X14159660Y-25328796D01*
X14169184Y-25319272D01*
X14188232Y-25309749D01*
X14340613Y-25490701D02*
X14350136Y-25500225D01*
X14340613Y-25509749D01*
X14331089Y-25500225D01*
X14340613Y-25490701D01*
X14340613Y-25509749D01*
X14445375Y-25509749D02*
X14483470Y-25509749D01*
X14502517Y-25500225D01*
X14512041Y-25490701D01*
X14531089Y-25462130D01*
X14540613Y-25424034D01*
X14540613Y-25347844D01*
X14531089Y-25328796D01*
X14521565Y-25319272D01*
X14502517Y-25309749D01*
X14464422Y-25309749D01*
X14445375Y-25319272D01*
X14435851Y-25328796D01*
X14426327Y-25347844D01*
X14426327Y-25395463D01*
X14435851Y-25414510D01*
X14445375Y-25424034D01*
X14464422Y-25433558D01*
X14502517Y-25433558D01*
X14521565Y-25424034D01*
X14531089Y-25414510D01*
X14540613Y-25395463D01*
X14635851Y-25509749D02*
X14673946Y-25509749D01*
X14692994Y-25500225D01*
X14702517Y-25490701D01*
X14721565Y-25462130D01*
X14731089Y-25424034D01*
X14731089Y-25347844D01*
X14721565Y-25328796D01*
X14712041Y-25319272D01*
X14692994Y-25309749D01*
X14654898Y-25309749D01*
X14635851Y-25319272D01*
X14626327Y-25328796D01*
X14616803Y-25347844D01*
X14616803Y-25395463D01*
X14626327Y-25414510D01*
X14635851Y-25424034D01*
X14654898Y-25433558D01*
X14692994Y-25433558D01*
X14712041Y-25424034D01*
X14721565Y-25414510D01*
X14731089Y-25395463D01*
X14921565Y-25509749D02*
X14807279Y-25509749D01*
X14864422Y-25509749D02*
X14864422Y-25309749D01*
X14845375Y-25338320D01*
X14826327Y-25357368D01*
X14807279Y-25366891D01*
X15007279Y-25509749D02*
X15007279Y-25376415D01*
X15007279Y-25395463D02*
X15016803Y-25385939D01*
X15035851Y-25376415D01*
X15064422Y-25376415D01*
X15083470Y-25385939D01*
X15092994Y-25404987D01*
X15092994Y-25509749D01*
X15092994Y-25404987D02*
X15102517Y-25385939D01*
X15121565Y-25376415D01*
X15150136Y-25376415D01*
X15169184Y-25385939D01*
X15178708Y-25404987D01*
X15178708Y-25509749D01*
X15273946Y-25509749D02*
X15273946Y-25376415D01*
X15273946Y-25395463D02*
X15283470Y-25385939D01*
X15302517Y-25376415D01*
X15331089Y-25376415D01*
X15350136Y-25385939D01*
X15359660Y-25404987D01*
X15359660Y-25509749D01*
X15359660Y-25404987D02*
X15369184Y-25385939D01*
X15388232Y-25376415D01*
X15416803Y-25376415D01*
X15435851Y-25385939D01*
X15445375Y-25404987D01*
X15445375Y-25509749D01*
X15835851Y-25300225D02*
X15664422Y-25557368D01*
X16092994Y-25309749D02*
X16112041Y-25309749D01*
X16131089Y-25319272D01*
X16140613Y-25328796D01*
X16150136Y-25347844D01*
X16159660Y-25385939D01*
X16159660Y-25433558D01*
X16150136Y-25471653D01*
X16140613Y-25490701D01*
X16131089Y-25500225D01*
X16112041Y-25509749D01*
X16092994Y-25509749D01*
X16073946Y-25500225D01*
X16064422Y-25490701D01*
X16054898Y-25471653D01*
X16045375Y-25433558D01*
X16045375Y-25385939D01*
X16054898Y-25347844D01*
X16064422Y-25328796D01*
X16073946Y-25319272D01*
X16092994Y-25309749D01*
X16245375Y-25490701D02*
X16254898Y-25500225D01*
X16245375Y-25509749D01*
X16235851Y-25500225D01*
X16245375Y-25490701D01*
X16245375Y-25509749D01*
X16378708Y-25309749D02*
X16397755Y-25309749D01*
X16416803Y-25319272D01*
X16426327Y-25328796D01*
X16435851Y-25347844D01*
X16445375Y-25385939D01*
X16445375Y-25433558D01*
X16435851Y-25471653D01*
X16426327Y-25490701D01*
X16416803Y-25500225D01*
X16397755Y-25509749D01*
X16378708Y-25509749D01*
X16359660Y-25500225D01*
X16350136Y-25490701D01*
X16340613Y-25471653D01*
X16331089Y-25433558D01*
X16331089Y-25385939D01*
X16340613Y-25347844D01*
X16350136Y-25328796D01*
X16359660Y-25319272D01*
X16378708Y-25309749D01*
X16512041Y-25309749D02*
X16635851Y-25309749D01*
X16569184Y-25385939D01*
X16597755Y-25385939D01*
X16616803Y-25395463D01*
X16626327Y-25404987D01*
X16635851Y-25424034D01*
X16635851Y-25471653D01*
X16626327Y-25490701D01*
X16616803Y-25500225D01*
X16597755Y-25509749D01*
X16540613Y-25509749D01*
X16521565Y-25500225D01*
X16512041Y-25490701D01*
X16731089Y-25509749D02*
X16769184Y-25509749D01*
X16788232Y-25500225D01*
X16797756Y-25490701D01*
X16816803Y-25462130D01*
X16826327Y-25424034D01*
X16826327Y-25347844D01*
X16816803Y-25328796D01*
X16807279Y-25319272D01*
X16788232Y-25309749D01*
X16750136Y-25309749D01*
X16731089Y-25319272D01*
X16721565Y-25328796D01*
X16712041Y-25347844D01*
X16712041Y-25395463D01*
X16721565Y-25414510D01*
X16731089Y-25424034D01*
X16750136Y-25433558D01*
X16788232Y-25433558D01*
X16807279Y-25424034D01*
X16816803Y-25414510D01*
X16826327Y-25395463D01*
X16950137Y-25309749D02*
X16969184Y-25309749D01*
X16988232Y-25319272D01*
X16997756Y-25328796D01*
X17007279Y-25347844D01*
X17016803Y-25385939D01*
X17016803Y-25433558D01*
X17007279Y-25471653D01*
X16997756Y-25490701D01*
X16988232Y-25500225D01*
X16969184Y-25509749D01*
X16950137Y-25509749D01*
X16931089Y-25500225D01*
X16921565Y-25490701D01*
X16912041Y-25471653D01*
X16902518Y-25433558D01*
X16902518Y-25385939D01*
X16912041Y-25347844D01*
X16921565Y-25328796D01*
X16931089Y-25319272D01*
X16950137Y-25309749D01*
X17092994Y-25309749D02*
X17092994Y-25347844D01*
X17169184Y-25309749D02*
X17169184Y-25347844D01*
X17464422Y-25585939D02*
X17454898Y-25576415D01*
X17435851Y-25547844D01*
X17426327Y-25528796D01*
X17416803Y-25500225D01*
X17407279Y-25452606D01*
X17407279Y-25414510D01*
X17416803Y-25366891D01*
X17426327Y-25338320D01*
X17435851Y-25319272D01*
X17454898Y-25290701D01*
X17464422Y-25281177D01*
X17521565Y-25309749D02*
X17645375Y-25309749D01*
X17578708Y-25385939D01*
X17607279Y-25385939D01*
X17626327Y-25395463D01*
X17635851Y-25404987D01*
X17645375Y-25424034D01*
X17645375Y-25471653D01*
X17635851Y-25490701D01*
X17626327Y-25500225D01*
X17607279Y-25509749D01*
X17550137Y-25509749D01*
X17531089Y-25500225D01*
X17521565Y-25490701D01*
X17883470Y-25509749D02*
X17883470Y-25309749D01*
X17969184Y-25509749D02*
X17969184Y-25404987D01*
X17959660Y-25385939D01*
X17940613Y-25376415D01*
X17912041Y-25376415D01*
X17892994Y-25385939D01*
X17883470Y-25395463D01*
X18092994Y-25509749D02*
X18073946Y-25500225D01*
X18064422Y-25490701D01*
X18054898Y-25471653D01*
X18054898Y-25414510D01*
X18064422Y-25395463D01*
X18073946Y-25385939D01*
X18092994Y-25376415D01*
X18121565Y-25376415D01*
X18140613Y-25385939D01*
X18150137Y-25395463D01*
X18159660Y-25414510D01*
X18159660Y-25471653D01*
X18150137Y-25490701D01*
X18140613Y-25500225D01*
X18121565Y-25509749D01*
X18092994Y-25509749D01*
X18273946Y-25509749D02*
X18254898Y-25500225D01*
X18245375Y-25481177D01*
X18245375Y-25309749D01*
X18426327Y-25500225D02*
X18407279Y-25509749D01*
X18369184Y-25509749D01*
X18350137Y-25500225D01*
X18340613Y-25481177D01*
X18340613Y-25404987D01*
X18350137Y-25385939D01*
X18369184Y-25376415D01*
X18407279Y-25376415D01*
X18426327Y-25385939D01*
X18435851Y-25404987D01*
X18435851Y-25424034D01*
X18340613Y-25443082D01*
X18512041Y-25500225D02*
X18531089Y-25509749D01*
X18569184Y-25509749D01*
X18588232Y-25500225D01*
X18597756Y-25481177D01*
X18597756Y-25471653D01*
X18588232Y-25452606D01*
X18569184Y-25443082D01*
X18540613Y-25443082D01*
X18521565Y-25433558D01*
X18512041Y-25414510D01*
X18512041Y-25404987D01*
X18521565Y-25385939D01*
X18540613Y-25376415D01*
X18569184Y-25376415D01*
X18588232Y-25385939D01*
X18664422Y-25585939D02*
X18673946Y-25576415D01*
X18692994Y-25547844D01*
X18702517Y-25528796D01*
X18712041Y-25500225D01*
X18721565Y-25452606D01*
X18721565Y-25414510D01*
X18712041Y-25366891D01*
X18702517Y-25338320D01*
X18692994Y-25319272D01*
X18673946Y-25290701D01*
X18664422Y-25281177D01*
X19026327Y-25585939D02*
X19016803Y-25576415D01*
X18997756Y-25547844D01*
X18988232Y-25528796D01*
X18978708Y-25500225D01*
X18969184Y-25452606D01*
X18969184Y-25414510D01*
X18978708Y-25366891D01*
X18988232Y-25338320D01*
X18997756Y-25319272D01*
X19016803Y-25290701D01*
X19026327Y-25281177D01*
X19102517Y-25376415D02*
X19102517Y-25509749D01*
X19102517Y-25395463D02*
X19112041Y-25385939D01*
X19131089Y-25376415D01*
X19159660Y-25376415D01*
X19178708Y-25385939D01*
X19188232Y-25404987D01*
X19188232Y-25509749D01*
X19312041Y-25509749D02*
X19292994Y-25500225D01*
X19283470Y-25490701D01*
X19273946Y-25471653D01*
X19273946Y-25414510D01*
X19283470Y-25395463D01*
X19292994Y-25385939D01*
X19312041Y-25376415D01*
X19340613Y-25376415D01*
X19359660Y-25385939D01*
X19369184Y-25395463D01*
X19378708Y-25414510D01*
X19378708Y-25471653D01*
X19369184Y-25490701D01*
X19359660Y-25500225D01*
X19340613Y-25509749D01*
X19312041Y-25509749D01*
X19435851Y-25376415D02*
X19512041Y-25376415D01*
X19464422Y-25309749D02*
X19464422Y-25481177D01*
X19473946Y-25500225D01*
X19492994Y-25509749D01*
X19512041Y-25509749D01*
X19731089Y-25376415D02*
X19731089Y-25576415D01*
X19731089Y-25385939D02*
X19750137Y-25376415D01*
X19788232Y-25376415D01*
X19807279Y-25385939D01*
X19816803Y-25395463D01*
X19826327Y-25414510D01*
X19826327Y-25471653D01*
X19816803Y-25490701D01*
X19807279Y-25500225D01*
X19788232Y-25509749D01*
X19750137Y-25509749D01*
X19731089Y-25500225D01*
X19940613Y-25509749D02*
X19921565Y-25500225D01*
X19912041Y-25481177D01*
X19912041Y-25309749D01*
X20102517Y-25509749D02*
X20102517Y-25404987D01*
X20092994Y-25385939D01*
X20073946Y-25376415D01*
X20035851Y-25376415D01*
X20016803Y-25385939D01*
X20102517Y-25500225D02*
X20083470Y-25509749D01*
X20035851Y-25509749D01*
X20016803Y-25500225D01*
X20007279Y-25481177D01*
X20007279Y-25462130D01*
X20016803Y-25443082D01*
X20035851Y-25433558D01*
X20083470Y-25433558D01*
X20102517Y-25424034D01*
X20169184Y-25376415D02*
X20245375Y-25376415D01*
X20197756Y-25309749D02*
X20197756Y-25481177D01*
X20207279Y-25500225D01*
X20226327Y-25509749D01*
X20245375Y-25509749D01*
X20388232Y-25500225D02*
X20369184Y-25509749D01*
X20331089Y-25509749D01*
X20312041Y-25500225D01*
X20302517Y-25481177D01*
X20302517Y-25404987D01*
X20312041Y-25385939D01*
X20331089Y-25376415D01*
X20369184Y-25376415D01*
X20388232Y-25385939D01*
X20397756Y-25404987D01*
X20397756Y-25424034D01*
X20302517Y-25443082D01*
X20569184Y-25509749D02*
X20569184Y-25309749D01*
X20569184Y-25500225D02*
X20550137Y-25509749D01*
X20512041Y-25509749D01*
X20492994Y-25500225D01*
X20483470Y-25490701D01*
X20473946Y-25471653D01*
X20473946Y-25414510D01*
X20483470Y-25395463D01*
X20492994Y-25385939D01*
X20512041Y-25376415D01*
X20550137Y-25376415D01*
X20569184Y-25385939D01*
X20645375Y-25585939D02*
X20654898Y-25576415D01*
X20673946Y-25547844D01*
X20683470Y-25528796D01*
X20692994Y-25500225D01*
X20702517Y-25452606D01*
X20702517Y-25414510D01*
X20692994Y-25366891D01*
X20683470Y-25338320D01*
X20673946Y-25319272D01*
X20654898Y-25290701D01*
X20645375Y-25281177D01*
D15*
X13874944Y-25725699D02*
X13874944Y-25640846D01*
X13790091Y-25640846D01*
X13790091Y-25725699D01*
X13874944Y-25725699D01*
D11*
X14254898Y-25773749D02*
X14140613Y-25773749D01*
X14197755Y-25773749D02*
X14197755Y-25573749D01*
X14178708Y-25602320D01*
X14159660Y-25621368D01*
X14140613Y-25630891D01*
X14340613Y-25754701D02*
X14350136Y-25764225D01*
X14340613Y-25773749D01*
X14331089Y-25764225D01*
X14340613Y-25754701D01*
X14340613Y-25773749D01*
X14426327Y-25592796D02*
X14435851Y-25583272D01*
X14454898Y-25573749D01*
X14502517Y-25573749D01*
X14521565Y-25583272D01*
X14531089Y-25592796D01*
X14540613Y-25611844D01*
X14540613Y-25630891D01*
X14531089Y-25659463D01*
X14416803Y-25773749D01*
X14540613Y-25773749D01*
X14664422Y-25573749D02*
X14683470Y-25573749D01*
X14702517Y-25583272D01*
X14712041Y-25592796D01*
X14721565Y-25611844D01*
X14731089Y-25649939D01*
X14731089Y-25697558D01*
X14721565Y-25735653D01*
X14712041Y-25754701D01*
X14702517Y-25764225D01*
X14683470Y-25773749D01*
X14664422Y-25773749D01*
X14645375Y-25764225D01*
X14635851Y-25754701D01*
X14626327Y-25735653D01*
X14616803Y-25697558D01*
X14616803Y-25649939D01*
X14626327Y-25611844D01*
X14635851Y-25592796D01*
X14645375Y-25583272D01*
X14664422Y-25573749D01*
X14854898Y-25573749D02*
X14873946Y-25573749D01*
X14892994Y-25583272D01*
X14902517Y-25592796D01*
X14912041Y-25611844D01*
X14921565Y-25649939D01*
X14921565Y-25697558D01*
X14912041Y-25735653D01*
X14902517Y-25754701D01*
X14892994Y-25764225D01*
X14873946Y-25773749D01*
X14854898Y-25773749D01*
X14835851Y-25764225D01*
X14826327Y-25754701D01*
X14816803Y-25735653D01*
X14807279Y-25697558D01*
X14807279Y-25649939D01*
X14816803Y-25611844D01*
X14826327Y-25592796D01*
X14835851Y-25583272D01*
X14854898Y-25573749D01*
X15007279Y-25773749D02*
X15007279Y-25640415D01*
X15007279Y-25659463D02*
X15016803Y-25649939D01*
X15035851Y-25640415D01*
X15064422Y-25640415D01*
X15083470Y-25649939D01*
X15092994Y-25668987D01*
X15092994Y-25773749D01*
X15092994Y-25668987D02*
X15102517Y-25649939D01*
X15121565Y-25640415D01*
X15150136Y-25640415D01*
X15169184Y-25649939D01*
X15178708Y-25668987D01*
X15178708Y-25773749D01*
X15273946Y-25773749D02*
X15273946Y-25640415D01*
X15273946Y-25659463D02*
X15283470Y-25649939D01*
X15302517Y-25640415D01*
X15331089Y-25640415D01*
X15350136Y-25649939D01*
X15359660Y-25668987D01*
X15359660Y-25773749D01*
X15359660Y-25668987D02*
X15369184Y-25649939D01*
X15388232Y-25640415D01*
X15416803Y-25640415D01*
X15435851Y-25649939D01*
X15445375Y-25668987D01*
X15445375Y-25773749D01*
X15835851Y-25564225D02*
X15664422Y-25821368D01*
X16092994Y-25573749D02*
X16112041Y-25573749D01*
X16131089Y-25583272D01*
X16140613Y-25592796D01*
X16150136Y-25611844D01*
X16159660Y-25649939D01*
X16159660Y-25697558D01*
X16150136Y-25735653D01*
X16140613Y-25754701D01*
X16131089Y-25764225D01*
X16112041Y-25773749D01*
X16092994Y-25773749D01*
X16073946Y-25764225D01*
X16064422Y-25754701D01*
X16054898Y-25735653D01*
X16045375Y-25697558D01*
X16045375Y-25649939D01*
X16054898Y-25611844D01*
X16064422Y-25592796D01*
X16073946Y-25583272D01*
X16092994Y-25573749D01*
X16245375Y-25754701D02*
X16254898Y-25764225D01*
X16245375Y-25773749D01*
X16235851Y-25764225D01*
X16245375Y-25754701D01*
X16245375Y-25773749D01*
X16378708Y-25573749D02*
X16397755Y-25573749D01*
X16416803Y-25583272D01*
X16426327Y-25592796D01*
X16435851Y-25611844D01*
X16445375Y-25649939D01*
X16445375Y-25697558D01*
X16435851Y-25735653D01*
X16426327Y-25754701D01*
X16416803Y-25764225D01*
X16397755Y-25773749D01*
X16378708Y-25773749D01*
X16359660Y-25764225D01*
X16350136Y-25754701D01*
X16340613Y-25735653D01*
X16331089Y-25697558D01*
X16331089Y-25649939D01*
X16340613Y-25611844D01*
X16350136Y-25592796D01*
X16359660Y-25583272D01*
X16378708Y-25573749D01*
X16616803Y-25640415D02*
X16616803Y-25773749D01*
X16569184Y-25564225D02*
X16521565Y-25707082D01*
X16645375Y-25707082D01*
X16702517Y-25573749D02*
X16835851Y-25573749D01*
X16750136Y-25773749D01*
X16902518Y-25592796D02*
X16912041Y-25583272D01*
X16931089Y-25573749D01*
X16978708Y-25573749D01*
X16997756Y-25583272D01*
X17007279Y-25592796D01*
X17016803Y-25611844D01*
X17016803Y-25630891D01*
X17007279Y-25659463D01*
X16892994Y-25773749D01*
X17016803Y-25773749D01*
X17092994Y-25573749D02*
X17092994Y-25611844D01*
X17169184Y-25573749D02*
X17169184Y-25611844D01*
X17464422Y-25849939D02*
X17454898Y-25840415D01*
X17435851Y-25811844D01*
X17426327Y-25792796D01*
X17416803Y-25764225D01*
X17407279Y-25716606D01*
X17407279Y-25678510D01*
X17416803Y-25630891D01*
X17426327Y-25602320D01*
X17435851Y-25583272D01*
X17454898Y-25554701D01*
X17464422Y-25545177D01*
X17531089Y-25592796D02*
X17540613Y-25583272D01*
X17559660Y-25573749D01*
X17607279Y-25573749D01*
X17626327Y-25583272D01*
X17635851Y-25592796D01*
X17645375Y-25611844D01*
X17645375Y-25630891D01*
X17635851Y-25659463D01*
X17521565Y-25773749D01*
X17645375Y-25773749D01*
X17883470Y-25773749D02*
X17883470Y-25573749D01*
X17969184Y-25773749D02*
X17969184Y-25668987D01*
X17959660Y-25649939D01*
X17940613Y-25640415D01*
X17912041Y-25640415D01*
X17892994Y-25649939D01*
X17883470Y-25659463D01*
X18092994Y-25773749D02*
X18073946Y-25764225D01*
X18064422Y-25754701D01*
X18054898Y-25735653D01*
X18054898Y-25678510D01*
X18064422Y-25659463D01*
X18073946Y-25649939D01*
X18092994Y-25640415D01*
X18121565Y-25640415D01*
X18140613Y-25649939D01*
X18150137Y-25659463D01*
X18159660Y-25678510D01*
X18159660Y-25735653D01*
X18150137Y-25754701D01*
X18140613Y-25764225D01*
X18121565Y-25773749D01*
X18092994Y-25773749D01*
X18273946Y-25773749D02*
X18254898Y-25764225D01*
X18245375Y-25745177D01*
X18245375Y-25573749D01*
X18426327Y-25764225D02*
X18407279Y-25773749D01*
X18369184Y-25773749D01*
X18350137Y-25764225D01*
X18340613Y-25745177D01*
X18340613Y-25668987D01*
X18350137Y-25649939D01*
X18369184Y-25640415D01*
X18407279Y-25640415D01*
X18426327Y-25649939D01*
X18435851Y-25668987D01*
X18435851Y-25688034D01*
X18340613Y-25707082D01*
X18512041Y-25764225D02*
X18531089Y-25773749D01*
X18569184Y-25773749D01*
X18588232Y-25764225D01*
X18597756Y-25745177D01*
X18597756Y-25735653D01*
X18588232Y-25716606D01*
X18569184Y-25707082D01*
X18540613Y-25707082D01*
X18521565Y-25697558D01*
X18512041Y-25678510D01*
X18512041Y-25668987D01*
X18521565Y-25649939D01*
X18540613Y-25640415D01*
X18569184Y-25640415D01*
X18588232Y-25649939D01*
X18664422Y-25849939D02*
X18673946Y-25840415D01*
X18692994Y-25811844D01*
X18702517Y-25792796D01*
X18712041Y-25764225D01*
X18721565Y-25716606D01*
X18721565Y-25678510D01*
X18712041Y-25630891D01*
X18702517Y-25602320D01*
X18692994Y-25583272D01*
X18673946Y-25554701D01*
X18664422Y-25545177D01*
X19026327Y-25849939D02*
X19016803Y-25840415D01*
X18997756Y-25811844D01*
X18988232Y-25792796D01*
X18978708Y-25764225D01*
X18969184Y-25716606D01*
X18969184Y-25678510D01*
X18978708Y-25630891D01*
X18988232Y-25602320D01*
X18997756Y-25583272D01*
X19016803Y-25554701D01*
X19026327Y-25545177D01*
X19102517Y-25640415D02*
X19102517Y-25773749D01*
X19102517Y-25659463D02*
X19112041Y-25649939D01*
X19131089Y-25640415D01*
X19159660Y-25640415D01*
X19178708Y-25649939D01*
X19188232Y-25668987D01*
X19188232Y-25773749D01*
X19312041Y-25773749D02*
X19292994Y-25764225D01*
X19283470Y-25754701D01*
X19273946Y-25735653D01*
X19273946Y-25678510D01*
X19283470Y-25659463D01*
X19292994Y-25649939D01*
X19312041Y-25640415D01*
X19340613Y-25640415D01*
X19359660Y-25649939D01*
X19369184Y-25659463D01*
X19378708Y-25678510D01*
X19378708Y-25735653D01*
X19369184Y-25754701D01*
X19359660Y-25764225D01*
X19340613Y-25773749D01*
X19312041Y-25773749D01*
X19435851Y-25640415D02*
X19512041Y-25640415D01*
X19464422Y-25573749D02*
X19464422Y-25745177D01*
X19473946Y-25764225D01*
X19492994Y-25773749D01*
X19512041Y-25773749D01*
X19731089Y-25640415D02*
X19731089Y-25840415D01*
X19731089Y-25649939D02*
X19750137Y-25640415D01*
X19788232Y-25640415D01*
X19807279Y-25649939D01*
X19816803Y-25659463D01*
X19826327Y-25678510D01*
X19826327Y-25735653D01*
X19816803Y-25754701D01*
X19807279Y-25764225D01*
X19788232Y-25773749D01*
X19750137Y-25773749D01*
X19731089Y-25764225D01*
X19940613Y-25773749D02*
X19921565Y-25764225D01*
X19912041Y-25745177D01*
X19912041Y-25573749D01*
X20102517Y-25773749D02*
X20102517Y-25668987D01*
X20092994Y-25649939D01*
X20073946Y-25640415D01*
X20035851Y-25640415D01*
X20016803Y-25649939D01*
X20102517Y-25764225D02*
X20083470Y-25773749D01*
X20035851Y-25773749D01*
X20016803Y-25764225D01*
X20007279Y-25745177D01*
X20007279Y-25726130D01*
X20016803Y-25707082D01*
X20035851Y-25697558D01*
X20083470Y-25697558D01*
X20102517Y-25688034D01*
X20169184Y-25640415D02*
X20245375Y-25640415D01*
X20197756Y-25573749D02*
X20197756Y-25745177D01*
X20207279Y-25764225D01*
X20226327Y-25773749D01*
X20245375Y-25773749D01*
X20388232Y-25764225D02*
X20369184Y-25773749D01*
X20331089Y-25773749D01*
X20312041Y-25764225D01*
X20302517Y-25745177D01*
X20302517Y-25668987D01*
X20312041Y-25649939D01*
X20331089Y-25640415D01*
X20369184Y-25640415D01*
X20388232Y-25649939D01*
X20397756Y-25668987D01*
X20397756Y-25688034D01*
X20302517Y-25707082D01*
X20569184Y-25773749D02*
X20569184Y-25573749D01*
X20569184Y-25764225D02*
X20550137Y-25773749D01*
X20512041Y-25773749D01*
X20492994Y-25764225D01*
X20483470Y-25754701D01*
X20473946Y-25735653D01*
X20473946Y-25678510D01*
X20483470Y-25659463D01*
X20492994Y-25649939D01*
X20512041Y-25640415D01*
X20550137Y-25640415D01*
X20569184Y-25649939D01*
X20645375Y-25849939D02*
X20654898Y-25840415D01*
X20673946Y-25811844D01*
X20683470Y-25792796D01*
X20692994Y-25764225D01*
X20702517Y-25716606D01*
X20702517Y-25678510D01*
X20692994Y-25630891D01*
X20683470Y-25602320D01*
X20673946Y-25583272D01*
X20654898Y-25554701D01*
X20645375Y-25545177D01*
X13792517Y-26047272D02*
X13892517Y-25947272D01*
X13792517Y-25847272D01*
X13692517Y-25947272D01*
X13792517Y-26047272D01*
X14140613Y-25856796D02*
X14150136Y-25847272D01*
X14169184Y-25837749D01*
X14216803Y-25837749D01*
X14235851Y-25847272D01*
X14245375Y-25856796D01*
X14254898Y-25875844D01*
X14254898Y-25894891D01*
X14245375Y-25923463D01*
X14131089Y-26037749D01*
X14254898Y-26037749D01*
X14340613Y-26018701D02*
X14350136Y-26028225D01*
X14340613Y-26037749D01*
X14331089Y-26028225D01*
X14340613Y-26018701D01*
X14340613Y-26037749D01*
X14426327Y-25856796D02*
X14435851Y-25847272D01*
X14454898Y-25837749D01*
X14502517Y-25837749D01*
X14521565Y-25847272D01*
X14531089Y-25856796D01*
X14540613Y-25875844D01*
X14540613Y-25894891D01*
X14531089Y-25923463D01*
X14416803Y-26037749D01*
X14540613Y-26037749D01*
X14664422Y-25837749D02*
X14683470Y-25837749D01*
X14702517Y-25847272D01*
X14712041Y-25856796D01*
X14721565Y-25875844D01*
X14731089Y-25913939D01*
X14731089Y-25961558D01*
X14721565Y-25999653D01*
X14712041Y-26018701D01*
X14702517Y-26028225D01*
X14683470Y-26037749D01*
X14664422Y-26037749D01*
X14645375Y-26028225D01*
X14635851Y-26018701D01*
X14626327Y-25999653D01*
X14616803Y-25961558D01*
X14616803Y-25913939D01*
X14626327Y-25875844D01*
X14635851Y-25856796D01*
X14645375Y-25847272D01*
X14664422Y-25837749D01*
X14854898Y-25837749D02*
X14873946Y-25837749D01*
X14892994Y-25847272D01*
X14902517Y-25856796D01*
X14912041Y-25875844D01*
X14921565Y-25913939D01*
X14921565Y-25961558D01*
X14912041Y-25999653D01*
X14902517Y-26018701D01*
X14892994Y-26028225D01*
X14873946Y-26037749D01*
X14854898Y-26037749D01*
X14835851Y-26028225D01*
X14826327Y-26018701D01*
X14816803Y-25999653D01*
X14807279Y-25961558D01*
X14807279Y-25913939D01*
X14816803Y-25875844D01*
X14826327Y-25856796D01*
X14835851Y-25847272D01*
X14854898Y-25837749D01*
X15007279Y-26037749D02*
X15007279Y-25904415D01*
X15007279Y-25923463D02*
X15016803Y-25913939D01*
X15035851Y-25904415D01*
X15064422Y-25904415D01*
X15083470Y-25913939D01*
X15092994Y-25932987D01*
X15092994Y-26037749D01*
X15092994Y-25932987D02*
X15102517Y-25913939D01*
X15121565Y-25904415D01*
X15150136Y-25904415D01*
X15169184Y-25913939D01*
X15178708Y-25932987D01*
X15178708Y-26037749D01*
X15273946Y-26037749D02*
X15273946Y-25904415D01*
X15273946Y-25923463D02*
X15283470Y-25913939D01*
X15302517Y-25904415D01*
X15331089Y-25904415D01*
X15350136Y-25913939D01*
X15359660Y-25932987D01*
X15359660Y-26037749D01*
X15359660Y-25932987D02*
X15369184Y-25913939D01*
X15388232Y-25904415D01*
X15416803Y-25904415D01*
X15435851Y-25913939D01*
X15445375Y-25932987D01*
X15445375Y-26037749D01*
X15835851Y-25828225D02*
X15664422Y-26085368D01*
X16092994Y-25837749D02*
X16112041Y-25837749D01*
X16131089Y-25847272D01*
X16140613Y-25856796D01*
X16150136Y-25875844D01*
X16159660Y-25913939D01*
X16159660Y-25961558D01*
X16150136Y-25999653D01*
X16140613Y-26018701D01*
X16131089Y-26028225D01*
X16112041Y-26037749D01*
X16092994Y-26037749D01*
X16073946Y-26028225D01*
X16064422Y-26018701D01*
X16054898Y-25999653D01*
X16045375Y-25961558D01*
X16045375Y-25913939D01*
X16054898Y-25875844D01*
X16064422Y-25856796D01*
X16073946Y-25847272D01*
X16092994Y-25837749D01*
X16245375Y-26018701D02*
X16254898Y-26028225D01*
X16245375Y-26037749D01*
X16235851Y-26028225D01*
X16245375Y-26018701D01*
X16245375Y-26037749D01*
X16378708Y-25837749D02*
X16397755Y-25837749D01*
X16416803Y-25847272D01*
X16426327Y-25856796D01*
X16435851Y-25875844D01*
X16445375Y-25913939D01*
X16445375Y-25961558D01*
X16435851Y-25999653D01*
X16426327Y-26018701D01*
X16416803Y-26028225D01*
X16397755Y-26037749D01*
X16378708Y-26037749D01*
X16359660Y-26028225D01*
X16350136Y-26018701D01*
X16340613Y-25999653D01*
X16331089Y-25961558D01*
X16331089Y-25913939D01*
X16340613Y-25875844D01*
X16350136Y-25856796D01*
X16359660Y-25847272D01*
X16378708Y-25837749D01*
X16559660Y-25923463D02*
X16540613Y-25913939D01*
X16531089Y-25904415D01*
X16521565Y-25885368D01*
X16521565Y-25875844D01*
X16531089Y-25856796D01*
X16540613Y-25847272D01*
X16559660Y-25837749D01*
X16597755Y-25837749D01*
X16616803Y-25847272D01*
X16626327Y-25856796D01*
X16635851Y-25875844D01*
X16635851Y-25885368D01*
X16626327Y-25904415D01*
X16616803Y-25913939D01*
X16597755Y-25923463D01*
X16559660Y-25923463D01*
X16540613Y-25932987D01*
X16531089Y-25942510D01*
X16521565Y-25961558D01*
X16521565Y-25999653D01*
X16531089Y-26018701D01*
X16540613Y-26028225D01*
X16559660Y-26037749D01*
X16597755Y-26037749D01*
X16616803Y-26028225D01*
X16626327Y-26018701D01*
X16635851Y-25999653D01*
X16635851Y-25961558D01*
X16626327Y-25942510D01*
X16616803Y-25932987D01*
X16597755Y-25923463D01*
X16807279Y-25837749D02*
X16769184Y-25837749D01*
X16750136Y-25847272D01*
X16740613Y-25856796D01*
X16721565Y-25885368D01*
X16712041Y-25923463D01*
X16712041Y-25999653D01*
X16721565Y-26018701D01*
X16731089Y-26028225D01*
X16750136Y-26037749D01*
X16788232Y-26037749D01*
X16807279Y-26028225D01*
X16816803Y-26018701D01*
X16826327Y-25999653D01*
X16826327Y-25952034D01*
X16816803Y-25932987D01*
X16807279Y-25923463D01*
X16788232Y-25913939D01*
X16750136Y-25913939D01*
X16731089Y-25923463D01*
X16721565Y-25932987D01*
X16712041Y-25952034D01*
X16997756Y-25837749D02*
X16959660Y-25837749D01*
X16940613Y-25847272D01*
X16931089Y-25856796D01*
X16912041Y-25885368D01*
X16902518Y-25923463D01*
X16902518Y-25999653D01*
X16912041Y-26018701D01*
X16921565Y-26028225D01*
X16940613Y-26037749D01*
X16978708Y-26037749D01*
X16997756Y-26028225D01*
X17007279Y-26018701D01*
X17016803Y-25999653D01*
X17016803Y-25952034D01*
X17007279Y-25932987D01*
X16997756Y-25923463D01*
X16978708Y-25913939D01*
X16940613Y-25913939D01*
X16921565Y-25923463D01*
X16912041Y-25932987D01*
X16902518Y-25952034D01*
X17092994Y-25837749D02*
X17092994Y-25875844D01*
X17169184Y-25837749D02*
X17169184Y-25875844D01*
X17464422Y-26113939D02*
X17454898Y-26104415D01*
X17435851Y-26075844D01*
X17426327Y-26056796D01*
X17416803Y-26028225D01*
X17407279Y-25980606D01*
X17407279Y-25942510D01*
X17416803Y-25894891D01*
X17426327Y-25866320D01*
X17435851Y-25847272D01*
X17454898Y-25818701D01*
X17464422Y-25809177D01*
X17645375Y-26037749D02*
X17531089Y-26037749D01*
X17588232Y-26037749D02*
X17588232Y-25837749D01*
X17569184Y-25866320D01*
X17550137Y-25885368D01*
X17531089Y-25894891D01*
X17721565Y-25856796D02*
X17731089Y-25847272D01*
X17750137Y-25837749D01*
X17797756Y-25837749D01*
X17816803Y-25847272D01*
X17826327Y-25856796D01*
X17835851Y-25875844D01*
X17835851Y-25894891D01*
X17826327Y-25923463D01*
X17712041Y-26037749D01*
X17835851Y-26037749D01*
X18073946Y-26037749D02*
X18073946Y-25837749D01*
X18159660Y-26037749D02*
X18159660Y-25932987D01*
X18150137Y-25913939D01*
X18131089Y-25904415D01*
X18102517Y-25904415D01*
X18083470Y-25913939D01*
X18073946Y-25923463D01*
X18283470Y-26037749D02*
X18264422Y-26028225D01*
X18254898Y-26018701D01*
X18245375Y-25999653D01*
X18245375Y-25942510D01*
X18254898Y-25923463D01*
X18264422Y-25913939D01*
X18283470Y-25904415D01*
X18312041Y-25904415D01*
X18331089Y-25913939D01*
X18340613Y-25923463D01*
X18350137Y-25942510D01*
X18350137Y-25999653D01*
X18340613Y-26018701D01*
X18331089Y-26028225D01*
X18312041Y-26037749D01*
X18283470Y-26037749D01*
X18464422Y-26037749D02*
X18445375Y-26028225D01*
X18435851Y-26009177D01*
X18435851Y-25837749D01*
X18616803Y-26028225D02*
X18597756Y-26037749D01*
X18559660Y-26037749D01*
X18540613Y-26028225D01*
X18531089Y-26009177D01*
X18531089Y-25932987D01*
X18540613Y-25913939D01*
X18559660Y-25904415D01*
X18597756Y-25904415D01*
X18616803Y-25913939D01*
X18626327Y-25932987D01*
X18626327Y-25952034D01*
X18531089Y-25971082D01*
X18702517Y-26028225D02*
X18721565Y-26037749D01*
X18759660Y-26037749D01*
X18778708Y-26028225D01*
X18788232Y-26009177D01*
X18788232Y-25999653D01*
X18778708Y-25980606D01*
X18759660Y-25971082D01*
X18731089Y-25971082D01*
X18712041Y-25961558D01*
X18702517Y-25942510D01*
X18702517Y-25932987D01*
X18712041Y-25913939D01*
X18731089Y-25904415D01*
X18759660Y-25904415D01*
X18778708Y-25913939D01*
X18854898Y-26113939D02*
X18864422Y-26104415D01*
X18883470Y-26075844D01*
X18892994Y-26056796D01*
X18902517Y-26028225D01*
X18912041Y-25980606D01*
X18912041Y-25942510D01*
X18902517Y-25894891D01*
X18892994Y-25866320D01*
X18883470Y-25847272D01*
X18864422Y-25818701D01*
X18854898Y-25809177D01*
X19216803Y-26113939D02*
X19207279Y-26104415D01*
X19188232Y-26075844D01*
X19178708Y-26056796D01*
X19169184Y-26028225D01*
X19159660Y-25980606D01*
X19159660Y-25942510D01*
X19169184Y-25894891D01*
X19178708Y-25866320D01*
X19188232Y-25847272D01*
X19207279Y-25818701D01*
X19216803Y-25809177D01*
X19292994Y-25904415D02*
X19292994Y-26037749D01*
X19292994Y-25923463D02*
X19302517Y-25913939D01*
X19321565Y-25904415D01*
X19350137Y-25904415D01*
X19369184Y-25913939D01*
X19378708Y-25932987D01*
X19378708Y-26037749D01*
X19502517Y-26037749D02*
X19483470Y-26028225D01*
X19473946Y-26018701D01*
X19464422Y-25999653D01*
X19464422Y-25942510D01*
X19473946Y-25923463D01*
X19483470Y-25913939D01*
X19502517Y-25904415D01*
X19531089Y-25904415D01*
X19550137Y-25913939D01*
X19559660Y-25923463D01*
X19569184Y-25942510D01*
X19569184Y-25999653D01*
X19559660Y-26018701D01*
X19550137Y-26028225D01*
X19531089Y-26037749D01*
X19502517Y-26037749D01*
X19626327Y-25904415D02*
X19702517Y-25904415D01*
X19654898Y-25837749D02*
X19654898Y-26009177D01*
X19664422Y-26028225D01*
X19683470Y-26037749D01*
X19702517Y-26037749D01*
X19921565Y-25904415D02*
X19921565Y-26104415D01*
X19921565Y-25913939D02*
X19940613Y-25904415D01*
X19978708Y-25904415D01*
X19997756Y-25913939D01*
X20007279Y-25923463D01*
X20016803Y-25942510D01*
X20016803Y-25999653D01*
X20007279Y-26018701D01*
X19997756Y-26028225D01*
X19978708Y-26037749D01*
X19940613Y-26037749D01*
X19921565Y-26028225D01*
X20131089Y-26037749D02*
X20112041Y-26028225D01*
X20102517Y-26009177D01*
X20102517Y-25837749D01*
X20292994Y-26037749D02*
X20292994Y-25932987D01*
X20283470Y-25913939D01*
X20264422Y-25904415D01*
X20226327Y-25904415D01*
X20207279Y-25913939D01*
X20292994Y-26028225D02*
X20273946Y-26037749D01*
X20226327Y-26037749D01*
X20207279Y-26028225D01*
X20197756Y-26009177D01*
X20197756Y-25990130D01*
X20207279Y-25971082D01*
X20226327Y-25961558D01*
X20273946Y-25961558D01*
X20292994Y-25952034D01*
X20359660Y-25904415D02*
X20435851Y-25904415D01*
X20388232Y-25837749D02*
X20388232Y-26009177D01*
X20397756Y-26028225D01*
X20416803Y-26037749D01*
X20435851Y-26037749D01*
X20578708Y-26028225D02*
X20559660Y-26037749D01*
X20521565Y-26037749D01*
X20502517Y-26028225D01*
X20492994Y-26009177D01*
X20492994Y-25932987D01*
X20502517Y-25913939D01*
X20521565Y-25904415D01*
X20559660Y-25904415D01*
X20578708Y-25913939D01*
X20588232Y-25932987D01*
X20588232Y-25952034D01*
X20492994Y-25971082D01*
X20759660Y-26037749D02*
X20759660Y-25837749D01*
X20759660Y-26028225D02*
X20740613Y-26037749D01*
X20702517Y-26037749D01*
X20683470Y-26028225D01*
X20673946Y-26018701D01*
X20664422Y-25999653D01*
X20664422Y-25942510D01*
X20673946Y-25923463D01*
X20683470Y-25913939D01*
X20702517Y-25904415D01*
X20740613Y-25904415D01*
X20759660Y-25913939D01*
X20835851Y-26113939D02*
X20845375Y-26104415D01*
X20864422Y-26075844D01*
X20873946Y-26056796D01*
X20883470Y-26028225D01*
X20892994Y-25980606D01*
X20892994Y-25942510D01*
X20883470Y-25894891D01*
X20873946Y-25866320D01*
X20864422Y-25847272D01*
X20845375Y-25818701D01*
X20835851Y-25809177D01*
X13692517Y-26167272D02*
X13892517Y-26367272D01*
X13892517Y-26167272D02*
X13692517Y-26367272D01*
X13892517Y-26267272D02*
G75*
G03*
X13892517Y-26267272I-100000J0D01*
G01*
X14131089Y-26157749D02*
X14254898Y-26157749D01*
X14188232Y-26233939D01*
X14216803Y-26233939D01*
X14235851Y-26243463D01*
X14245375Y-26252987D01*
X14254898Y-26272034D01*
X14254898Y-26319653D01*
X14245375Y-26338701D01*
X14235851Y-26348225D01*
X14216803Y-26357749D01*
X14159660Y-26357749D01*
X14140613Y-26348225D01*
X14131089Y-26338701D01*
X14340613Y-26338701D02*
X14350136Y-26348225D01*
X14340613Y-26357749D01*
X14331089Y-26348225D01*
X14340613Y-26338701D01*
X14340613Y-26357749D01*
X14473946Y-26157749D02*
X14492994Y-26157749D01*
X14512041Y-26167272D01*
X14521565Y-26176796D01*
X14531089Y-26195844D01*
X14540613Y-26233939D01*
X14540613Y-26281558D01*
X14531089Y-26319653D01*
X14521565Y-26338701D01*
X14512041Y-26348225D01*
X14492994Y-26357749D01*
X14473946Y-26357749D01*
X14454898Y-26348225D01*
X14445375Y-26338701D01*
X14435851Y-26319653D01*
X14426327Y-26281558D01*
X14426327Y-26233939D01*
X14435851Y-26195844D01*
X14445375Y-26176796D01*
X14454898Y-26167272D01*
X14473946Y-26157749D01*
X14664422Y-26157749D02*
X14683470Y-26157749D01*
X14702517Y-26167272D01*
X14712041Y-26176796D01*
X14721565Y-26195844D01*
X14731089Y-26233939D01*
X14731089Y-26281558D01*
X14721565Y-26319653D01*
X14712041Y-26338701D01*
X14702517Y-26348225D01*
X14683470Y-26357749D01*
X14664422Y-26357749D01*
X14645375Y-26348225D01*
X14635851Y-26338701D01*
X14626327Y-26319653D01*
X14616803Y-26281558D01*
X14616803Y-26233939D01*
X14626327Y-26195844D01*
X14635851Y-26176796D01*
X14645375Y-26167272D01*
X14664422Y-26157749D01*
X14854898Y-26157749D02*
X14873946Y-26157749D01*
X14892994Y-26167272D01*
X14902517Y-26176796D01*
X14912041Y-26195844D01*
X14921565Y-26233939D01*
X14921565Y-26281558D01*
X14912041Y-26319653D01*
X14902517Y-26338701D01*
X14892994Y-26348225D01*
X14873946Y-26357749D01*
X14854898Y-26357749D01*
X14835851Y-26348225D01*
X14826327Y-26338701D01*
X14816803Y-26319653D01*
X14807279Y-26281558D01*
X14807279Y-26233939D01*
X14816803Y-26195844D01*
X14826327Y-26176796D01*
X14835851Y-26167272D01*
X14854898Y-26157749D01*
X15007279Y-26357749D02*
X15007279Y-26224415D01*
X15007279Y-26243463D02*
X15016803Y-26233939D01*
X15035851Y-26224415D01*
X15064422Y-26224415D01*
X15083470Y-26233939D01*
X15092994Y-26252987D01*
X15092994Y-26357749D01*
X15092994Y-26252987D02*
X15102517Y-26233939D01*
X15121565Y-26224415D01*
X15150136Y-26224415D01*
X15169184Y-26233939D01*
X15178708Y-26252987D01*
X15178708Y-26357749D01*
X15273946Y-26357749D02*
X15273946Y-26224415D01*
X15273946Y-26243463D02*
X15283470Y-26233939D01*
X15302517Y-26224415D01*
X15331089Y-26224415D01*
X15350136Y-26233939D01*
X15359660Y-26252987D01*
X15359660Y-26357749D01*
X15359660Y-26252987D02*
X15369184Y-26233939D01*
X15388232Y-26224415D01*
X15416803Y-26224415D01*
X15435851Y-26233939D01*
X15445375Y-26252987D01*
X15445375Y-26357749D01*
X15835851Y-26148225D02*
X15664422Y-26405368D01*
X16092994Y-26157749D02*
X16112041Y-26157749D01*
X16131089Y-26167272D01*
X16140613Y-26176796D01*
X16150136Y-26195844D01*
X16159660Y-26233939D01*
X16159660Y-26281558D01*
X16150136Y-26319653D01*
X16140613Y-26338701D01*
X16131089Y-26348225D01*
X16112041Y-26357749D01*
X16092994Y-26357749D01*
X16073946Y-26348225D01*
X16064422Y-26338701D01*
X16054898Y-26319653D01*
X16045375Y-26281558D01*
X16045375Y-26233939D01*
X16054898Y-26195844D01*
X16064422Y-26176796D01*
X16073946Y-26167272D01*
X16092994Y-26157749D01*
X16245375Y-26338701D02*
X16254898Y-26348225D01*
X16245375Y-26357749D01*
X16235851Y-26348225D01*
X16245375Y-26338701D01*
X16245375Y-26357749D01*
X16445375Y-26357749D02*
X16331089Y-26357749D01*
X16388232Y-26357749D02*
X16388232Y-26157749D01*
X16369184Y-26186320D01*
X16350136Y-26205368D01*
X16331089Y-26214891D01*
X16635851Y-26357749D02*
X16521565Y-26357749D01*
X16578708Y-26357749D02*
X16578708Y-26157749D01*
X16559660Y-26186320D01*
X16540613Y-26205368D01*
X16521565Y-26214891D01*
X16750136Y-26243463D02*
X16731089Y-26233939D01*
X16721565Y-26224415D01*
X16712041Y-26205368D01*
X16712041Y-26195844D01*
X16721565Y-26176796D01*
X16731089Y-26167272D01*
X16750136Y-26157749D01*
X16788232Y-26157749D01*
X16807279Y-26167272D01*
X16816803Y-26176796D01*
X16826327Y-26195844D01*
X16826327Y-26205368D01*
X16816803Y-26224415D01*
X16807279Y-26233939D01*
X16788232Y-26243463D01*
X16750136Y-26243463D01*
X16731089Y-26252987D01*
X16721565Y-26262510D01*
X16712041Y-26281558D01*
X16712041Y-26319653D01*
X16721565Y-26338701D01*
X16731089Y-26348225D01*
X16750136Y-26357749D01*
X16788232Y-26357749D01*
X16807279Y-26348225D01*
X16816803Y-26338701D01*
X16826327Y-26319653D01*
X16826327Y-26281558D01*
X16816803Y-26262510D01*
X16807279Y-26252987D01*
X16788232Y-26243463D01*
X17016803Y-26357749D02*
X16902518Y-26357749D01*
X16959660Y-26357749D02*
X16959660Y-26157749D01*
X16940613Y-26186320D01*
X16921565Y-26205368D01*
X16902518Y-26214891D01*
X17092994Y-26157749D02*
X17092994Y-26195844D01*
X17169184Y-26157749D02*
X17169184Y-26195844D01*
X17464422Y-26433939D02*
X17454898Y-26424415D01*
X17435851Y-26395844D01*
X17426327Y-26376796D01*
X17416803Y-26348225D01*
X17407279Y-26300606D01*
X17407279Y-26262510D01*
X17416803Y-26214891D01*
X17426327Y-26186320D01*
X17435851Y-26167272D01*
X17454898Y-26138701D01*
X17464422Y-26129177D01*
X17645375Y-26357749D02*
X17531089Y-26357749D01*
X17588232Y-26357749D02*
X17588232Y-26157749D01*
X17569184Y-26186320D01*
X17550137Y-26205368D01*
X17531089Y-26214891D01*
X17883470Y-26357749D02*
X17883470Y-26157749D01*
X17969184Y-26357749D02*
X17969184Y-26252987D01*
X17959660Y-26233939D01*
X17940613Y-26224415D01*
X17912041Y-26224415D01*
X17892994Y-26233939D01*
X17883470Y-26243463D01*
X18092994Y-26357749D02*
X18073946Y-26348225D01*
X18064422Y-26338701D01*
X18054898Y-26319653D01*
X18054898Y-26262510D01*
X18064422Y-26243463D01*
X18073946Y-26233939D01*
X18092994Y-26224415D01*
X18121565Y-26224415D01*
X18140613Y-26233939D01*
X18150137Y-26243463D01*
X18159660Y-26262510D01*
X18159660Y-26319653D01*
X18150137Y-26338701D01*
X18140613Y-26348225D01*
X18121565Y-26357749D01*
X18092994Y-26357749D01*
X18273946Y-26357749D02*
X18254898Y-26348225D01*
X18245375Y-26329177D01*
X18245375Y-26157749D01*
X18426327Y-26348225D02*
X18407279Y-26357749D01*
X18369184Y-26357749D01*
X18350137Y-26348225D01*
X18340613Y-26329177D01*
X18340613Y-26252987D01*
X18350137Y-26233939D01*
X18369184Y-26224415D01*
X18407279Y-26224415D01*
X18426327Y-26233939D01*
X18435851Y-26252987D01*
X18435851Y-26272034D01*
X18340613Y-26291082D01*
X18502517Y-26433939D02*
X18512041Y-26424415D01*
X18531089Y-26395844D01*
X18540613Y-26376796D01*
X18550137Y-26348225D01*
X18559660Y-26300606D01*
X18559660Y-26262510D01*
X18550137Y-26214891D01*
X18540613Y-26186320D01*
X18531089Y-26167272D01*
X18512041Y-26138701D01*
X18502517Y-26129177D01*
X18864422Y-26433939D02*
X18854898Y-26424415D01*
X18835851Y-26395844D01*
X18826327Y-26376796D01*
X18816803Y-26348225D01*
X18807279Y-26300606D01*
X18807279Y-26262510D01*
X18816803Y-26214891D01*
X18826327Y-26186320D01*
X18835851Y-26167272D01*
X18854898Y-26138701D01*
X18864422Y-26129177D01*
X18940613Y-26224415D02*
X18940613Y-26357749D01*
X18940613Y-26243463D02*
X18950137Y-26233939D01*
X18969184Y-26224415D01*
X18997756Y-26224415D01*
X19016803Y-26233939D01*
X19026327Y-26252987D01*
X19026327Y-26357749D01*
X19150137Y-26357749D02*
X19131089Y-26348225D01*
X19121565Y-26338701D01*
X19112041Y-26319653D01*
X19112041Y-26262510D01*
X19121565Y-26243463D01*
X19131089Y-26233939D01*
X19150137Y-26224415D01*
X19178708Y-26224415D01*
X19197756Y-26233939D01*
X19207279Y-26243463D01*
X19216803Y-26262510D01*
X19216803Y-26319653D01*
X19207279Y-26338701D01*
X19197756Y-26348225D01*
X19178708Y-26357749D01*
X19150137Y-26357749D01*
X19273946Y-26224415D02*
X19350137Y-26224415D01*
X19302517Y-26157749D02*
X19302517Y-26329177D01*
X19312041Y-26348225D01*
X19331089Y-26357749D01*
X19350137Y-26357749D01*
X19569184Y-26224415D02*
X19569184Y-26424415D01*
X19569184Y-26233939D02*
X19588232Y-26224415D01*
X19626327Y-26224415D01*
X19645375Y-26233939D01*
X19654898Y-26243463D01*
X19664422Y-26262510D01*
X19664422Y-26319653D01*
X19654898Y-26338701D01*
X19645375Y-26348225D01*
X19626327Y-26357749D01*
X19588232Y-26357749D01*
X19569184Y-26348225D01*
X19778708Y-26357749D02*
X19759660Y-26348225D01*
X19750137Y-26329177D01*
X19750137Y-26157749D01*
X19940613Y-26357749D02*
X19940613Y-26252987D01*
X19931089Y-26233939D01*
X19912041Y-26224415D01*
X19873946Y-26224415D01*
X19854898Y-26233939D01*
X19940613Y-26348225D02*
X19921565Y-26357749D01*
X19873946Y-26357749D01*
X19854898Y-26348225D01*
X19845375Y-26329177D01*
X19845375Y-26310130D01*
X19854898Y-26291082D01*
X19873946Y-26281558D01*
X19921565Y-26281558D01*
X19940613Y-26272034D01*
X20007279Y-26224415D02*
X20083470Y-26224415D01*
X20035851Y-26157749D02*
X20035851Y-26329177D01*
X20045375Y-26348225D01*
X20064422Y-26357749D01*
X20083470Y-26357749D01*
X20226327Y-26348225D02*
X20207279Y-26357749D01*
X20169184Y-26357749D01*
X20150137Y-26348225D01*
X20140613Y-26329177D01*
X20140613Y-26252987D01*
X20150137Y-26233939D01*
X20169184Y-26224415D01*
X20207279Y-26224415D01*
X20226327Y-26233939D01*
X20235851Y-26252987D01*
X20235851Y-26272034D01*
X20140613Y-26291082D01*
X20407279Y-26357749D02*
X20407279Y-26157749D01*
X20407279Y-26348225D02*
X20388232Y-26357749D01*
X20350137Y-26357749D01*
X20331089Y-26348225D01*
X20321565Y-26338701D01*
X20312041Y-26319653D01*
X20312041Y-26262510D01*
X20321565Y-26243463D01*
X20331089Y-26233939D01*
X20350137Y-26224415D01*
X20388232Y-26224415D01*
X20407279Y-26233939D01*
X20483470Y-26433939D02*
X20492994Y-26424415D01*
X20512041Y-26395844D01*
X20521565Y-26376796D01*
X20531089Y-26348225D01*
X20540613Y-26300606D01*
X20540613Y-26262510D01*
X20531089Y-26214891D01*
X20521565Y-26186320D01*
X20512041Y-26167272D01*
X20492994Y-26138701D01*
X20483470Y-26129177D01*
M02*
