<svg width="8700" height="6220" viewBox="0 0 8700 6220" fill="none" xmlns="http://www.w3.org/2000/svg">
<rect width="8700" height="6220" fill="white"/>
<text fill="black" xml:space="preserve" style="white-space: pre" font-family="Literata" font-size="50" font-weight="600" letter-spacing="0em"><tspan x="1443.68" y="4415.72">Edson Pavoni</tspan></text>
<text fill="black" xml:space="preserve" style="white-space: pre" font-family="Literata" font-size="70" font-weight="bold" letter-spacing="0em"><tspan x="1339.68" y="4502.42">Templo Orbital</tspan></text>
<path d="M1233.68 4396L1233.68 4399.56L1230.12 4399.56L1230.12 4396L1233.68 4396ZM1233.68 4399.56L1233.68 4403.12L1230.12 4403.12L1230.12 4399.56L1233.68 4399.56ZM1233.68 4403.12L1233.68 4406.68L1230.12 4406.68L1230.12 4403.12L1233.68 4403.12ZM1233.68 4406.68L1233.68 4410.24L1230.12 4410.24L1230.12 4406.68L1233.68 4406.68ZM1233.68 4410.24L1233.68 4413.8L1230.12 4413.8L1230.12 4410.24L1233.68 4410.24ZM1233.68 4413.8L1233.68 4417.36L1230.12 4417.36L1230.12 4413.8L1233.68 4413.8ZM1233.68 4417.36L1233.68 4420.92L1230.12 4420.92L1230.12 4417.36L1233.68 4417.36ZM1233.68 4431.6L1233.68 4435.16L1230.12 4435.16L1230.12 4431.6L1233.68 4431.6ZM1233.68 4438.72L1233.68 4442.28L1230.12 4442.28L1230.12 4438.72L1233.68 4438.72ZM1233.68 4442.28L1233.68 4445.84L1230.12 4445.84L1230.12 4442.28L1233.68 4442.28ZM1233.68 4452.96L1233.68 4456.52L1230.12 4456.52L1230.12 4452.96L1233.68 4452.96ZM1233.68 4460.08L1233.68 4463.64L1230.12 4463.64L1230.12 4460.08L1233.68 4460.08ZM1233.68 4463.64L1233.68 4467.2L1230.12 4467.2L1230.12 4463.64L1233.68 4463.64ZM1233.68 4467.2L1233.68 4470.76L1230.12 4470.76L1230.12 4467.2L1233.68 4467.2ZM1233.68 4470.76L1233.68 4474.32L1230.12 4474.32L1230.12 4470.76L1233.68 4470.76ZM1233.68 4474.32L1233.68 4477.88L1230.12 4477.88L1230.12 4474.32L1233.68 4474.32ZM1233.68 4477.88L1233.68 4481.44L1230.12 4481.44L1230.12 4477.88L1233.68 4477.88ZM1233.68 4481.44L1233.68 4485L1230.12 4485L1230.12 4481.44L1233.68 4481.44ZM1230.12 4396L1230.12 4399.56L1226.56 4399.56L1226.56 4396L1230.12 4396ZM1230.12 4417.36L1230.12 4420.92L1226.56 4420.92L1226.56 4417.36L1230.12 4417.36ZM1230.12 4424.48L1230.12 4428.04L1226.56 4428.04L1226.56 4424.48L1230.12 4424.48ZM1230.12 4431.6L1230.12 4435.16L1226.56 4435.16L1226.56 4431.6L1230.12 4431.6ZM1230.12 4445.84L1230.12 4449.4L1226.56 4449.4L1226.56 4445.84L1230.12 4445.84ZM1230.12 4449.4L1230.12 4452.96L1226.56 4452.96L1226.56 4449.4L1230.12 4449.4ZM1230.12 4452.96L1230.12 4456.52L1226.56 4456.52L1226.56 4452.96L1230.12 4452.96ZM1230.12 4460.08L1230.12 4463.64L1226.56 4463.64L1226.56 4460.08L1230.12 4460.08ZM1230.12 4481.44L1230.12 4485L1226.56 4485L1226.56 4481.44L1230.12 4481.44ZM1226.56 4396L1226.56 4399.56L1223 4399.56L1223 4396L1226.56 4396ZM1226.56 4403.12L1226.56 4406.68L1223 4406.68L1223 4403.12L1226.56 4403.12ZM1226.56 4406.68L1226.56 4410.24L1223 4410.24L1223 4406.68L1226.56 4406.68ZM1226.56 4410.24L1226.56 4413.8L1223 4413.8L1223 4410.24L1226.56 4410.24ZM1226.56 4417.36L1226.56 4420.92L1223 4420.92L1223 4417.36L1226.56 4417.36ZM1226.56 4438.72L1226.56 4442.28L1223 4442.28L1223 4438.72L1226.56 4438.72ZM1226.56 4445.84L1226.56 4449.4L1223 4449.4L1223 4445.84L1226.56 4445.84ZM1226.56 4449.4L1226.56 4452.96L1223 4452.96L1223 4449.4L1226.56 4449.4ZM1226.56 4452.96L1226.56 4456.52L1223 4456.52L1223 4452.96L1226.56 4452.96ZM1226.56 4460.08L1226.56 4463.64L1223 4463.64L1223 4460.08L1226.56 4460.08ZM1226.56 4467.2L1226.56 4470.76L1223 4470.76L1223 4467.2L1226.56 4467.2ZM1226.56 4470.76L1226.56 4474.32L1223 4474.32L1223 4470.76L1226.56 4470.76ZM1226.56 4474.32L1226.56 4477.88L1223 4477.88L1223 4474.32L1226.56 4474.32ZM1226.56 4481.44L1226.56 4485L1223 4485L1223 4481.44L1226.56 4481.44ZM1223 4396L1223 4399.56L1219.44 4399.56L1219.44 4396L1223 4396ZM1223 4403.12L1223 4406.68L1219.44 4406.68L1219.44 4403.12L1223 4403.12ZM1223 4406.68L1223 4410.24L1219.44 4410.24L1219.44 4406.68L1223 4406.68ZM1223 4410.24L1223 4413.8L1219.44 4413.8L1219.44 4410.24L1223 4410.24ZM1223 4417.36L1223 4420.92L1219.44 4420.92L1219.44 4417.36L1223 4417.36ZM1223 4424.48L1223 4428.04L1219.44 4428.04L1219.44 4424.48L1223 4424.48ZM1223 4428.04L1223 4431.6L1219.44 4431.6L1219.44 4428.04L1223 4428.04ZM1223 4431.6L1223 4435.16L1219.44 4435.16L1219.44 4431.6L1223 4431.6ZM1223 4438.72L1223 4442.28L1219.44 4442.28L1219.44 4438.72L1223 4438.72ZM1223 4442.28L1223 4445.84L1219.44 4445.84L1219.44 4442.28L1223 4442.28ZM1223 4445.84L1223 4449.4L1219.44 4449.4L1219.44 4445.84L1223 4445.84ZM1223 4449.4L1223 4452.96L1219.44 4452.96L1219.44 4449.4L1223 4449.4ZM1223 4460.08L1223 4463.64L1219.44 4463.64L1219.44 4460.08L1223 4460.08ZM1223 4467.2L1223 4470.76L1219.44 4470.76L1219.44 4467.2L1223 4467.2ZM1223 4470.76L1223 4474.32L1219.44 4474.32L1219.44 4470.76L1223 4470.76ZM1223 4474.32L1223 4477.88L1219.44 4477.88L1219.44 4474.32L1223 4474.32ZM1223 4481.44L1223 4485L1219.44 4485L1219.44 4481.44L1223 4481.44ZM1219.44 4396L1219.44 4399.56L1215.88 4399.56L1215.88 4396L1219.44 4396ZM1219.44 4403.12L1219.44 4406.68L1215.88 4406.68L1215.88 4403.12L1219.44 4403.12ZM1219.44 4406.68L1219.44 4410.24L1215.88 4410.24L1215.88 4406.68L1219.44 4406.68ZM1219.44 4410.24L1219.44 4413.8L1215.88 4413.8L1215.88 4410.24L1219.44 4410.24ZM1219.44 4417.36L1219.44 4420.92L1215.88 4420.92L1215.88 4417.36L1219.44 4417.36ZM1219.44 4428.04L1219.44 4431.6L1215.88 4431.6L1215.88 4428.04L1219.44 4428.04ZM1219.44 4445.84L1219.44 4449.4L1215.88 4449.4L1215.88 4445.84L1219.44 4445.84ZM1219.44 4452.96L1219.44 4456.52L1215.88 4456.52L1215.88 4452.96L1219.44 4452.96ZM1219.44 4460.08L1219.44 4463.64L1215.88 4463.64L1215.88 4460.08L1219.44 4460.08ZM1219.44 4467.2L1219.44 4470.76L1215.88 4470.76L1215.88 4467.2L1219.44 4467.2ZM1219.44 4470.76L1219.44 4474.32L1215.88 4474.32L1215.88 4470.76L1219.44 4470.76ZM1219.44 4474.32L1219.44 4477.88L1215.88 4477.88L1215.88 4474.32L1219.44 4474.32ZM1219.44 4481.44L1219.44 4485L1215.88 4485L1215.88 4481.44L1219.44 4481.44ZM1215.88 4396L1215.88 4399.56L1212.32 4399.56L1212.32 4396L1215.88 4396ZM1215.88 4417.36L1215.88 4420.92L1212.32 4420.92L1212.32 4417.36L1215.88 4417.36ZM1215.88 4424.48L1215.88 4428.04L1212.32 4428.04L1212.32 4424.48L1215.88 4424.48ZM1215.88 4428.04L1215.88 4431.6L1212.32 4431.6L1212.32 4428.04L1215.88 4428.04ZM1215.88 4435.16L1215.88 4438.72L1212.32 4438.72L1212.32 4435.16L1215.88 4435.16ZM1215.88 4438.72L1215.88 4442.28L1212.32 4442.28L1212.32 4438.72L1215.88 4438.72ZM1215.88 4449.4L1215.88 4452.96L1212.32 4452.96L1212.32 4449.4L1215.88 4449.4ZM1215.88 4460.08L1215.88 4463.64L1212.32 4463.64L1212.32 4460.08L1215.88 4460.08ZM1215.88 4481.44L1215.88 4485L1212.32 4485L1212.32 4481.44L1215.88 4481.44ZM1212.32 4396L1212.32 4399.56L1208.76 4399.56L1208.76 4396L1212.32 4396ZM1212.32 4399.56L1212.32 4403.12L1208.76 4403.12L1208.76 4399.56L1212.32 4399.56ZM1212.32 4403.12L1212.32 4406.68L1208.76 4406.68L1208.76 4403.12L1212.32 4403.12ZM1212.32 4406.68L1212.32 4410.24L1208.76 4410.24L1208.76 4406.68L1212.32 4406.68ZM1212.32 4410.24L1212.32 4413.8L1208.76 4413.8L1208.76 4410.24L1212.32 4410.24ZM1212.32 4413.8L1212.32 4417.36L1208.76 4417.36L1208.76 4413.8L1212.32 4413.8ZM1212.32 4417.36L1212.32 4420.92L1208.76 4420.92L1208.76 4417.36L1212.32 4417.36ZM1212.32 4424.48L1212.32 4428.04L1208.76 4428.04L1208.76 4424.48L1212.32 4424.48ZM1212.32 4431.6L1212.32 4435.16L1208.76 4435.16L1208.76 4431.6L1212.32 4431.6ZM1212.32 4438.72L1212.32 4442.28L1208.76 4442.28L1208.76 4438.72L1212.32 4438.72ZM1212.32 4445.84L1212.32 4449.4L1208.76 4449.4L1208.76 4445.84L1212.32 4445.84ZM1212.32 4452.96L1212.32 4456.52L1208.76 4456.52L1208.76 4452.96L1212.32 4452.96ZM1212.32 4460.08L1212.32 4463.64L1208.76 4463.64L1208.76 4460.08L1212.32 4460.08ZM1212.32 4463.64L1212.32 4467.2L1208.76 4467.2L1208.76 4463.64L1212.32 4463.64ZM1212.32 4467.2L1212.32 4470.76L1208.76 4470.76L1208.76 4467.2L1212.32 4467.2ZM1212.32 4470.76L1212.32 4474.32L1208.76 4474.32L1208.76 4470.76L1212.32 4470.76ZM1212.32 4474.32L1212.32 4477.88L1208.76 4477.88L1208.76 4474.32L1212.32 4474.32ZM1212.32 4477.88L1212.32 4481.44L1208.76 4481.44L1208.76 4477.88L1212.32 4477.88ZM1212.32 4481.44L1212.32 4485L1208.76 4485L1208.76 4481.44L1212.32 4481.44ZM1208.76 4428.04L1208.76 4431.6L1205.2 4431.6L1205.2 4428.04L1208.76 4428.04ZM1208.76 4431.6L1208.76 4435.16L1205.2 4435.16L1205.2 4431.6L1208.76 4431.6ZM1208.76 4435.16L1208.76 4438.72L1205.2 4438.72L1205.2 4435.16L1208.76 4435.16ZM1208.76 4449.4L1208.76 4452.96L1205.2 4452.96L1205.2 4449.4L1208.76 4449.4ZM1208.76 4452.96L1208.76 4456.52L1205.2 4456.52L1205.2 4452.96L1208.76 4452.96ZM1205.2 4396L1205.2 4399.56L1201.64 4399.56L1201.64 4396L1205.2 4396ZM1205.2 4399.56L1205.2 4403.12L1201.64 4403.12L1201.64 4399.56L1205.2 4399.56ZM1205.2 4403.12L1205.2 4406.68L1201.64 4406.68L1201.64 4403.12L1205.2 4403.12ZM1205.2 4406.68L1205.2 4410.24L1201.64 4410.24L1201.64 4406.68L1205.2 4406.68ZM1205.2 4410.24L1205.2 4413.8L1201.64 4413.8L1201.64 4410.24L1205.2 4410.24ZM1205.2 4417.36L1205.2 4420.92L1201.64 4420.92L1201.64 4417.36L1205.2 4417.36ZM1205.2 4420.92L1205.2 4424.48L1201.64 4424.48L1201.64 4420.92L1205.2 4420.92ZM1205.2 4424.48L1205.2 4428.04L1201.64 4428.04L1201.64 4424.48L1205.2 4424.48ZM1205.2 4428.04L1205.2 4431.6L1201.64 4431.6L1201.64 4428.04L1205.2 4428.04ZM1205.2 4435.16L1205.2 4438.72L1201.64 4438.72L1201.64 4435.16L1205.2 4435.16ZM1205.2 4442.28L1205.2 4445.84L1201.64 4445.84L1201.64 4442.28L1205.2 4442.28ZM1205.2 4445.84L1205.2 4449.4L1201.64 4449.4L1201.64 4445.84L1205.2 4445.84ZM1205.2 4449.4L1205.2 4452.96L1201.64 4452.96L1201.64 4449.4L1205.2 4449.4ZM1205.2 4452.96L1205.2 4456.52L1201.64 4456.52L1201.64 4452.96L1205.2 4452.96ZM1205.2 4456.52L1205.2 4460.08L1201.64 4460.08L1201.64 4456.52L1205.2 4456.52ZM1205.2 4463.64L1205.2 4467.2L1201.64 4467.2L1201.64 4463.64L1205.2 4463.64ZM1205.2 4470.76L1205.2 4474.32L1201.64 4474.32L1201.64 4470.76L1205.2 4470.76ZM1205.2 4477.88L1205.2 4481.44L1201.64 4481.44L1201.64 4477.88L1205.2 4477.88ZM1201.64 4396L1201.64 4399.56L1198.08 4399.56L1198.08 4396L1201.64 4396ZM1201.64 4399.56L1201.64 4403.12L1198.08 4403.12L1198.08 4399.56L1201.64 4399.56ZM1201.64 4406.68L1201.64 4410.24L1198.08 4410.24L1198.08 4406.68L1201.64 4406.68ZM1201.64 4420.92L1201.64 4424.48L1198.08 4424.48L1198.08 4420.92L1201.64 4420.92ZM1201.64 4424.48L1201.64 4428.04L1198.08 4428.04L1198.08 4424.48L1201.64 4424.48ZM1201.64 4431.6L1201.64 4435.16L1198.08 4435.16L1198.08 4431.6L1201.64 4431.6ZM1201.64 4438.72L1201.64 4442.28L1198.08 4442.28L1198.08 4438.72L1201.64 4438.72ZM1201.64 4442.28L1201.64 4445.84L1198.08 4445.84L1198.08 4442.28L1201.64 4442.28ZM1201.64 4452.96L1201.64 4456.52L1198.08 4456.52L1198.08 4452.96L1201.64 4452.96ZM1201.64 4456.52L1201.64 4460.08L1198.08 4460.08L1198.08 4456.52L1201.64 4456.52ZM1201.64 4463.64L1201.64 4467.2L1198.08 4467.2L1198.08 4463.64L1201.64 4463.64ZM1201.64 4477.88L1201.64 4481.44L1198.08 4481.44L1198.08 4477.88L1201.64 4477.88ZM1198.08 4396L1198.08 4399.56L1194.52 4399.56L1194.52 4396L1198.08 4396ZM1198.08 4403.12L1198.08 4406.68L1194.52 4406.68L1194.52 4403.12L1198.08 4403.12ZM1198.08 4413.8L1198.08 4417.36L1194.52 4417.36L1194.52 4413.8L1198.08 4413.8ZM1198.08 4417.36L1198.08 4420.92L1194.52 4420.92L1194.52 4417.36L1198.08 4417.36ZM1198.08 4420.92L1198.08 4424.48L1194.52 4424.48L1194.52 4420.92L1198.08 4420.92ZM1198.08 4424.48L1198.08 4428.04L1194.52 4428.04L1194.52 4424.48L1198.08 4424.48ZM1198.08 4431.6L1198.08 4435.16L1194.52 4435.16L1194.52 4431.6L1198.08 4431.6ZM1198.08 4445.84L1198.08 4449.4L1194.52 4449.4L1194.52 4445.84L1198.08 4445.84ZM1198.08 4449.4L1198.08 4452.96L1194.52 4452.96L1194.52 4449.4L1198.08 4449.4ZM1198.08 4460.08L1198.08 4463.64L1194.52 4463.64L1194.52 4460.08L1198.08 4460.08ZM1198.08 4463.64L1198.08 4467.2L1194.52 4467.2L1194.52 4463.64L1198.08 4463.64ZM1198.08 4467.2L1198.08 4470.76L1194.52 4470.76L1194.52 4467.2L1198.08 4467.2ZM1198.08 4470.76L1198.08 4474.32L1194.52 4474.32L1194.52 4470.76L1198.08 4470.76ZM1198.08 4477.88L1198.08 4481.44L1194.52 4481.44L1194.52 4477.88L1198.08 4477.88ZM1198.08 4481.44L1198.08 4485L1194.52 4485L1194.52 4481.44L1198.08 4481.44ZM1194.52 4396L1194.52 4399.56L1190.96 4399.56L1190.96 4396L1194.52 4396ZM1194.52 4399.56L1194.52 4403.12L1190.96 4403.12L1190.96 4399.56L1194.52 4399.56ZM1194.52 4403.12L1194.52 4406.68L1190.96 4406.68L1190.96 4403.12L1194.52 4403.12ZM1194.52 4406.68L1194.52 4410.24L1190.96 4410.24L1190.96 4406.68L1194.52 4406.68ZM1194.52 4413.8L1194.52 4417.36L1190.96 4417.36L1190.96 4413.8L1194.52 4413.8ZM1194.52 4424.48L1194.52 4428.04L1190.96 4428.04L1190.96 4424.48L1194.52 4424.48ZM1194.52 4438.72L1194.52 4442.28L1190.96 4442.28L1190.96 4438.72L1194.52 4438.72ZM1194.52 4449.4L1194.52 4452.96L1190.96 4452.96L1190.96 4449.4L1194.52 4449.4ZM1194.52 4452.96L1194.52 4456.52L1190.96 4456.52L1190.96 4452.96L1194.52 4452.96ZM1194.52 4463.64L1194.52 4467.2L1190.96 4467.2L1190.96 4463.64L1194.52 4463.64ZM1194.52 4467.2L1194.52 4470.76L1190.96 4470.76L1190.96 4467.2L1194.52 4467.2ZM1194.52 4481.44L1194.52 4485L1190.96 4485L1190.96 4481.44L1194.52 4481.44ZM1190.96 4399.56L1190.96 4403.12L1187.4 4403.12L1187.4 4399.56L1190.96 4399.56ZM1190.96 4406.68L1190.96 4410.24L1187.4 4410.24L1187.4 4406.68L1190.96 4406.68ZM1190.96 4413.8L1190.96 4417.36L1187.4 4417.36L1187.4 4413.8L1190.96 4413.8ZM1190.96 4417.36L1190.96 4420.92L1187.4 4420.92L1187.4 4417.36L1190.96 4417.36ZM1190.96 4424.48L1190.96 4428.04L1187.4 4428.04L1187.4 4424.48L1190.96 4424.48ZM1190.96 4428.04L1190.96 4431.6L1187.4 4431.6L1187.4 4428.04L1190.96 4428.04ZM1190.96 4431.6L1190.96 4435.16L1187.4 4435.16L1187.4 4431.6L1190.96 4431.6ZM1190.96 4438.72L1190.96 4442.28L1187.4 4442.28L1187.4 4438.72L1190.96 4438.72ZM1190.96 4442.28L1190.96 4445.84L1187.4 4445.84L1187.4 4442.28L1190.96 4442.28ZM1190.96 4445.84L1190.96 4449.4L1187.4 4449.4L1187.4 4445.84L1190.96 4445.84ZM1190.96 4456.52L1190.96 4460.08L1187.4 4460.08L1187.4 4456.52L1190.96 4456.52ZM1190.96 4460.08L1190.96 4463.64L1187.4 4463.64L1187.4 4460.08L1190.96 4460.08ZM1190.96 4467.2L1190.96 4470.76L1187.4 4470.76L1187.4 4467.2L1190.96 4467.2ZM1190.96 4474.32L1190.96 4477.88L1187.4 4477.88L1187.4 4474.32L1190.96 4474.32ZM1190.96 4477.88L1190.96 4481.44L1187.4 4481.44L1187.4 4477.88L1190.96 4477.88ZM1190.96 4481.44L1190.96 4485L1187.4 4485L1187.4 4481.44L1190.96 4481.44ZM1187.4 4396L1187.4 4399.56L1183.84 4399.56L1183.84 4396L1187.4 4396ZM1187.4 4403.12L1187.4 4406.68L1183.84 4406.68L1183.84 4403.12L1187.4 4403.12ZM1187.4 4410.24L1187.4 4413.8L1183.84 4413.8L1183.84 4410.24L1187.4 4410.24ZM1187.4 4452.96L1187.4 4456.52L1183.84 4456.52L1183.84 4452.96L1187.4 4452.96ZM1187.4 4463.64L1187.4 4467.2L1183.84 4467.2L1183.84 4463.64L1187.4 4463.64ZM1187.4 4470.76L1187.4 4474.32L1183.84 4474.32L1183.84 4470.76L1187.4 4470.76ZM1187.4 4477.88L1187.4 4481.44L1183.84 4481.44L1183.84 4477.88L1187.4 4477.88ZM1183.84 4396L1183.84 4399.56L1180.28 4399.56L1180.28 4396L1183.84 4396ZM1183.84 4413.8L1183.84 4417.36L1180.28 4417.36L1180.28 4413.8L1183.84 4413.8ZM1183.84 4417.36L1183.84 4420.92L1180.28 4420.92L1180.28 4417.36L1183.84 4417.36ZM1183.84 4431.6L1183.84 4435.16L1180.28 4435.16L1180.28 4431.6L1183.84 4431.6ZM1183.84 4435.16L1183.84 4438.72L1180.28 4438.72L1180.28 4435.16L1183.84 4435.16ZM1183.84 4438.72L1183.84 4442.28L1180.28 4442.28L1180.28 4438.72L1183.84 4438.72ZM1183.84 4445.84L1183.84 4449.4L1180.28 4449.4L1180.28 4445.84L1183.84 4445.84ZM1183.84 4449.4L1183.84 4452.96L1180.28 4452.96L1180.28 4449.4L1183.84 4449.4ZM1183.84 4452.96L1183.84 4456.52L1180.28 4456.52L1180.28 4452.96L1183.84 4452.96ZM1183.84 4460.08L1183.84 4463.64L1180.28 4463.64L1180.28 4460.08L1183.84 4460.08ZM1183.84 4463.64L1183.84 4467.2L1180.28 4467.2L1180.28 4463.64L1183.84 4463.64ZM1183.84 4467.2L1183.84 4470.76L1180.28 4470.76L1180.28 4467.2L1183.84 4467.2ZM1183.84 4470.76L1183.84 4474.32L1180.28 4474.32L1180.28 4470.76L1183.84 4470.76ZM1183.84 4477.88L1183.84 4481.44L1180.28 4481.44L1180.28 4477.88L1183.84 4477.88ZM1183.84 4481.44L1183.84 4485L1180.28 4485L1180.28 4481.44L1183.84 4481.44ZM1180.28 4396L1180.28 4399.56L1176.72 4399.56L1176.72 4396L1180.28 4396ZM1180.28 4406.68L1180.28 4410.24L1176.72 4410.24L1176.72 4406.68L1180.28 4406.68ZM1180.28 4410.24L1180.28 4413.8L1176.72 4413.8L1176.72 4410.24L1180.28 4410.24ZM1180.28 4428.04L1180.28 4431.6L1176.72 4431.6L1176.72 4428.04L1180.28 4428.04ZM1180.28 4435.16L1180.28 4438.72L1176.72 4438.72L1176.72 4435.16L1180.28 4435.16ZM1180.28 4445.84L1180.28 4449.4L1176.72 4449.4L1176.72 4445.84L1180.28 4445.84ZM1180.28 4449.4L1180.28 4452.96L1176.72 4452.96L1176.72 4449.4L1180.28 4449.4ZM1180.28 4463.64L1180.28 4467.2L1176.72 4467.2L1176.72 4463.64L1180.28 4463.64ZM1180.28 4467.2L1180.28 4470.76L1176.72 4470.76L1176.72 4467.2L1180.28 4467.2ZM1180.28 4481.44L1180.28 4485L1176.72 4485L1176.72 4481.44L1180.28 4481.44ZM1176.72 4396L1176.72 4399.56L1173.16 4399.56L1173.16 4396L1176.72 4396ZM1176.72 4403.12L1176.72 4406.68L1173.16 4406.68L1173.16 4403.12L1176.72 4403.12ZM1176.72 4406.68L1176.72 4410.24L1173.16 4410.24L1173.16 4406.68L1176.72 4406.68ZM1176.72 4413.8L1176.72 4417.36L1173.16 4417.36L1173.16 4413.8L1176.72 4413.8ZM1176.72 4417.36L1176.72 4420.92L1173.16 4420.92L1173.16 4417.36L1176.72 4417.36ZM1176.72 4435.16L1176.72 4438.72L1173.16 4438.72L1173.16 4435.16L1176.72 4435.16ZM1176.72 4438.72L1176.72 4442.28L1173.16 4442.28L1173.16 4438.72L1176.72 4438.72ZM1176.72 4442.28L1176.72 4445.84L1173.16 4445.84L1173.16 4442.28L1176.72 4442.28ZM1176.72 4449.4L1176.72 4452.96L1173.16 4452.96L1173.16 4449.4L1176.72 4449.4ZM1176.72 4452.96L1176.72 4456.52L1173.16 4456.52L1173.16 4452.96L1176.72 4452.96ZM1176.72 4456.52L1176.72 4460.08L1173.16 4460.08L1173.16 4456.52L1176.72 4456.52ZM1176.72 4460.08L1176.72 4463.64L1173.16 4463.64L1173.16 4460.08L1176.72 4460.08ZM1176.72 4463.64L1176.72 4467.2L1173.16 4467.2L1173.16 4463.64L1176.72 4463.64ZM1176.72 4467.2L1176.72 4470.76L1173.16 4470.76L1173.16 4467.2L1176.72 4467.2ZM1176.72 4474.32L1176.72 4477.88L1173.16 4477.88L1173.16 4474.32L1176.72 4474.32ZM1173.16 4424.48L1173.16 4428.04L1169.6 4428.04L1169.6 4424.48L1173.16 4424.48ZM1173.16 4438.72L1173.16 4442.28L1169.6 4442.28L1169.6 4438.72L1173.16 4438.72ZM1173.16 4442.28L1173.16 4445.84L1169.6 4445.84L1169.6 4442.28L1173.16 4442.28ZM1173.16 4449.4L1173.16 4452.96L1169.6 4452.96L1169.6 4449.4L1173.16 4449.4ZM1173.16 4452.96L1173.16 4456.52L1169.6 4456.52L1169.6 4452.96L1173.16 4452.96ZM1173.16 4467.2L1173.16 4470.76L1169.6 4470.76L1169.6 4467.2L1173.16 4467.2ZM1173.16 4470.76L1173.16 4474.32L1169.6 4474.32L1169.6 4470.76L1173.16 4470.76ZM1169.6 4396L1169.6 4399.56L1166.04 4399.56L1166.04 4396L1169.6 4396ZM1169.6 4399.56L1169.6 4403.12L1166.04 4403.12L1166.04 4399.56L1169.6 4399.56ZM1169.6 4403.12L1169.6 4406.68L1166.04 4406.68L1166.04 4403.12L1169.6 4403.12ZM1169.6 4406.68L1169.6 4410.24L1166.04 4410.24L1166.04 4406.68L1169.6 4406.68ZM1169.6 4410.24L1169.6 4413.8L1166.04 4413.8L1166.04 4410.24L1169.6 4410.24ZM1169.6 4413.8L1169.6 4417.36L1166.04 4417.36L1166.04 4413.8L1169.6 4413.8ZM1169.6 4417.36L1169.6 4420.92L1166.04 4420.92L1166.04 4417.36L1169.6 4417.36ZM1169.6 4424.48L1169.6 4428.04L1166.04 4428.04L1166.04 4424.48L1169.6 4424.48ZM1169.6 4428.04L1169.6 4431.6L1166.04 4431.6L1166.04 4428.04L1169.6 4428.04ZM1169.6 4438.72L1169.6 4442.28L1166.04 4442.28L1166.04 4438.72L1169.6 4438.72ZM1169.6 4442.28L1169.6 4445.84L1166.04 4445.84L1166.04 4442.28L1169.6 4442.28ZM1169.6 4445.84L1169.6 4449.4L1166.04 4449.4L1166.04 4445.84L1169.6 4445.84ZM1169.6 4452.96L1169.6 4456.52L1166.04 4456.52L1166.04 4452.96L1169.6 4452.96ZM1169.6 4460.08L1169.6 4463.64L1166.04 4463.64L1166.04 4460.08L1169.6 4460.08ZM1169.6 4467.2L1169.6 4470.76L1166.04 4470.76L1166.04 4467.2L1169.6 4467.2ZM1169.6 4474.32L1169.6 4477.88L1166.04 4477.88L1166.04 4474.32L1169.6 4474.32ZM1169.6 4477.88L1169.6 4481.44L1166.04 4481.44L1166.04 4477.88L1169.6 4477.88ZM1169.6 4481.44L1169.6 4485L1166.04 4485L1166.04 4481.44L1169.6 4481.44ZM1166.04 4396L1166.04 4399.56L1162.48 4399.56L1162.48 4396L1166.04 4396ZM1166.04 4417.36L1166.04 4420.92L1162.48 4420.92L1162.48 4417.36L1166.04 4417.36ZM1166.04 4452.96L1166.04 4456.52L1162.48 4456.52L1162.48 4452.96L1166.04 4452.96ZM1166.04 4467.2L1166.04 4470.76L1162.48 4470.76L1162.48 4467.2L1166.04 4467.2ZM1166.04 4470.76L1166.04 4474.32L1162.48 4474.32L1162.48 4470.76L1166.04 4470.76ZM1166.04 4477.88L1166.04 4481.44L1162.48 4481.44L1162.48 4477.88L1166.04 4477.88ZM1166.04 4481.44L1166.04 4485L1162.48 4485L1162.48 4481.44L1166.04 4481.44ZM1162.48 4396L1162.48 4399.56L1158.92 4399.56L1158.92 4396L1162.48 4396ZM1162.48 4403.12L1162.48 4406.68L1158.92 4406.68L1158.92 4403.12L1162.48 4403.12ZM1162.48 4406.68L1162.48 4410.24L1158.92 4410.24L1158.92 4406.68L1162.48 4406.68ZM1162.48 4410.24L1162.48 4413.8L1158.92 4413.8L1158.92 4410.24L1162.48 4410.24ZM1162.48 4417.36L1162.48 4420.92L1158.92 4420.92L1158.92 4417.36L1162.48 4417.36ZM1162.48 4424.48L1162.48 4428.04L1158.92 4428.04L1158.92 4424.48L1162.48 4424.48ZM1162.48 4428.04L1162.48 4431.6L1158.92 4431.6L1158.92 4428.04L1162.48 4428.04ZM1162.48 4431.6L1162.48 4435.16L1158.92 4435.16L1158.92 4431.6L1162.48 4431.6ZM1162.48 4442.28L1162.48 4445.84L1158.92 4445.84L1158.92 4442.28L1162.48 4442.28ZM1162.48 4445.84L1162.48 4449.4L1158.92 4449.4L1158.92 4445.84L1162.48 4445.84ZM1162.48 4449.4L1162.48 4452.96L1158.92 4452.96L1158.92 4449.4L1162.48 4449.4ZM1162.48 4452.96L1162.48 4456.52L1158.92 4456.52L1158.92 4452.96L1162.48 4452.96ZM1162.48 4456.52L1162.48 4460.08L1158.92 4460.08L1158.92 4456.52L1162.48 4456.52ZM1162.48 4460.08L1162.48 4463.64L1158.92 4463.64L1158.92 4460.08L1162.48 4460.08ZM1162.48 4463.64L1162.48 4467.2L1158.92 4467.2L1158.92 4463.64L1162.48 4463.64ZM1162.48 4467.2L1162.48 4470.76L1158.92 4470.76L1158.92 4467.2L1162.48 4467.2ZM1162.48 4474.32L1162.48 4477.88L1158.92 4477.88L1158.92 4474.32L1162.48 4474.32ZM1158.92 4396L1158.92 4399.56L1155.36 4399.56L1155.36 4396L1158.92 4396ZM1158.92 4403.12L1158.92 4406.68L1155.36 4406.68L1155.36 4403.12L1158.92 4403.12ZM1158.92 4406.68L1158.92 4410.24L1155.36 4410.24L1155.36 4406.68L1158.92 4406.68ZM1158.92 4410.24L1158.92 4413.8L1155.36 4413.8L1155.36 4410.24L1158.92 4410.24ZM1158.92 4417.36L1158.92 4420.92L1155.36 4420.92L1155.36 4417.36L1158.92 4417.36ZM1158.92 4424.48L1158.92 4428.04L1155.36 4428.04L1155.36 4424.48L1158.92 4424.48ZM1158.92 4431.6L1158.92 4435.16L1155.36 4435.16L1155.36 4431.6L1158.92 4431.6ZM1158.92 4435.16L1158.92 4438.72L1155.36 4438.72L1155.36 4435.16L1158.92 4435.16ZM1158.92 4449.4L1158.92 4452.96L1155.36 4452.96L1155.36 4449.4L1158.92 4449.4ZM1158.92 4456.52L1158.92 4460.08L1155.36 4460.08L1155.36 4456.52L1158.92 4456.52ZM1158.92 4460.08L1158.92 4463.64L1155.36 4463.64L1155.36 4460.08L1158.92 4460.08ZM1158.92 4467.2L1158.92 4470.76L1155.36 4470.76L1155.36 4467.2L1158.92 4467.2ZM1158.92 4470.76L1158.92 4474.32L1155.36 4474.32L1155.36 4470.76L1158.92 4470.76ZM1158.92 4474.32L1158.92 4477.88L1155.36 4477.88L1155.36 4474.32L1158.92 4474.32ZM1158.92 4477.88L1158.92 4481.44L1155.36 4481.44L1155.36 4477.88L1158.92 4477.88ZM1158.92 4481.44L1158.92 4485L1155.36 4485L1155.36 4481.44L1158.92 4481.44ZM1155.36 4396L1155.36 4399.56L1151.8 4399.56L1151.8 4396L1155.36 4396ZM1155.36 4403.12L1155.36 4406.68L1151.8 4406.68L1151.8 4403.12L1155.36 4403.12ZM1155.36 4406.68L1155.36 4410.24L1151.8 4410.24L1151.8 4406.68L1155.36 4406.68ZM1155.36 4410.24L1155.36 4413.8L1151.8 4413.8L1151.8 4410.24L1155.36 4410.24ZM1155.36 4417.36L1155.36 4420.92L1151.8 4420.92L1151.8 4417.36L1155.36 4417.36ZM1155.36 4424.48L1155.36 4428.04L1151.8 4428.04L1151.8 4424.48L1155.36 4424.48ZM1155.36 4431.6L1155.36 4435.16L1151.8 4435.16L1151.8 4431.6L1155.36 4431.6ZM1155.36 4438.72L1155.36 4442.28L1151.8 4442.28L1151.8 4438.72L1155.36 4438.72ZM1155.36 4470.76L1155.36 4474.32L1151.8 4474.32L1151.8 4470.76L1155.36 4470.76ZM1155.36 4474.32L1155.36 4477.88L1151.8 4477.88L1151.8 4474.32L1155.36 4474.32ZM1155.36 4481.44L1155.36 4485L1151.8 4485L1151.8 4481.44L1155.36 4481.44ZM1151.8 4396L1151.8 4399.56L1148.24 4399.56L1148.24 4396L1151.8 4396ZM1151.8 4417.36L1151.8 4420.92L1148.24 4420.92L1148.24 4417.36L1151.8 4417.36ZM1151.8 4424.48L1151.8 4428.04L1148.24 4428.04L1148.24 4424.48L1151.8 4424.48ZM1151.8 4428.04L1151.8 4431.6L1148.24 4431.6L1148.24 4428.04L1151.8 4428.04ZM1151.8 4431.6L1151.8 4435.16L1148.24 4435.16L1148.24 4431.6L1151.8 4431.6ZM1151.8 4435.16L1151.8 4438.72L1148.24 4438.72L1148.24 4435.16L1151.8 4435.16ZM1151.8 4438.72L1151.8 4442.28L1148.24 4442.28L1148.24 4438.72L1151.8 4438.72ZM1151.8 4445.84L1151.8 4449.4L1148.24 4449.4L1148.24 4445.84L1151.8 4445.84ZM1151.8 4452.96L1151.8 4456.52L1148.24 4456.52L1148.24 4452.96L1151.8 4452.96ZM1151.8 4463.64L1151.8 4467.2L1148.24 4467.2L1148.24 4463.64L1151.8 4463.64ZM1151.8 4467.2L1151.8 4470.76L1148.24 4470.76L1148.24 4467.2L1151.8 4467.2ZM1151.8 4470.76L1151.8 4474.32L1148.24 4474.32L1148.24 4470.76L1151.8 4470.76ZM1151.8 4481.44L1151.8 4485L1148.24 4485L1148.24 4481.44L1151.8 4481.44ZM1148.24 4396L1148.24 4399.56L1144.68 4399.56L1144.68 4396L1148.24 4396ZM1148.24 4399.56L1148.24 4403.12L1144.68 4403.12L1144.68 4399.56L1148.24 4399.56ZM1148.24 4403.12L1148.24 4406.68L1144.68 4406.68L1144.68 4403.12L1148.24 4403.12ZM1148.24 4406.68L1148.24 4410.24L1144.68 4410.24L1144.68 4406.68L1148.24 4406.68ZM1148.24 4410.24L1148.24 4413.8L1144.68 4413.8L1144.68 4410.24L1148.24 4410.24ZM1148.24 4413.8L1148.24 4417.36L1144.68 4417.36L1144.68 4413.8L1148.24 4413.8ZM1148.24 4417.36L1148.24 4420.92L1144.68 4420.92L1144.68 4417.36L1148.24 4417.36ZM1148.24 4424.48L1148.24 4428.04L1144.68 4428.04L1144.68 4424.48L1148.24 4424.48ZM1148.24 4431.6L1148.24 4435.16L1144.68 4435.16L1144.68 4431.6L1148.24 4431.6ZM1148.24 4442.28L1148.24 4445.84L1144.68 4445.84L1144.68 4442.28L1148.24 4442.28ZM1148.24 4445.84L1148.24 4449.4L1144.68 4449.4L1144.68 4445.84L1148.24 4445.84ZM1148.24 4456.52L1148.24 4460.08L1144.68 4460.08L1144.68 4456.52L1148.24 4456.52ZM1148.24 4460.08L1148.24 4463.64L1144.68 4463.64L1144.68 4460.08L1148.24 4460.08ZM1148.24 4463.64L1148.24 4467.2L1144.68 4467.2L1144.68 4463.64L1148.24 4463.64ZM1148.24 4467.2L1148.24 4470.76L1144.68 4470.76L1144.68 4467.2L1148.24 4467.2ZM1148.24 4470.76L1148.24 4474.32L1144.68 4474.32L1144.68 4470.76L1148.24 4470.76ZM1148.24 4474.32L1148.24 4477.88L1144.68 4477.88L1144.68 4474.32L1148.24 4474.32ZM1148.24 4477.88L1148.24 4481.44L1144.68 4481.44L1144.68 4477.88L1148.24 4477.88ZM1148.24 4481.44L1148.24 4485L1144.68 4485L1144.68 4481.44L1148.24 4481.44Z" fill="black"/>
<path d="M2277.18 1196.64L2287.23 1202.35L2287.23 1213.12L2277.18 1207.15L2277.18 1196.64Z" stroke="#231F20" stroke-width="2.66667" stroke-miterlimit="10" stroke-linecap="round" stroke-linejoin="round"/>
<path d="M2316.6 1201.86L2295.54 1189.62L2295.54 1226.02L2303.77 1221.12L2303.77 1203.8L2316.6 1211.22L2316.6 1201.86Z" stroke="#231F20" stroke-width="2.66667" stroke-miterlimit="10" stroke-linecap="round" stroke-linejoin="round"/>
<path d="M2277.19 1196.64L2277.18 1207.15L2268.3 1211.54L2268.3 1201.49L2277.19 1196.64Z" stroke="#231F20" stroke-width="2.66667" stroke-miterlimit="10" stroke-linecap="round" stroke-linejoin="round"/>
<path d="M2295.54 1226.02L2295.54 1189.62L2287.23 1194.65L2287.23 1213.12L2277.18 1207.15L2268.3 1211.54L2295.54 1226.02Z" stroke="#231F20" stroke-width="2.66667" stroke-miterlimit="10" stroke-linecap="round" stroke-linejoin="round"/>
<path d="M2343.2 1218.39L2333.15 1212.67L2333.15 1201.91L2343.2 1207.87L2343.2 1218.39Z" stroke="#231F20" stroke-width="2.66667" stroke-miterlimit="10" stroke-linecap="round" stroke-linejoin="round"/>
<path d="M2303.77 1213.16L2324.84 1225.4L2324.84 1189L2316.6 1193.9L2316.6 1211.22L2303.77 1203.8L2303.77 1213.16Z" stroke="#231F20" stroke-width="2.66667" stroke-miterlimit="10" stroke-linecap="round" stroke-linejoin="round"/>
<path d="M2343.19 1218.39L2343.2 1207.87L2352.08 1203.48L2352.08 1213.53L2343.19 1218.39Z" stroke="#231F20" stroke-width="2.66667" stroke-miterlimit="10" stroke-linecap="round" stroke-linejoin="round"/>
<path d="M2324.84 1189L2324.84 1225.4L2333.15 1220.38L2333.15 1201.91L2343.2 1207.88L2352.08 1203.49L2324.84 1189Z" stroke="#231F20" stroke-width="2.66667" stroke-miterlimit="10" stroke-linecap="round" stroke-linejoin="round"/>
<mask id="path-12-inside-1_751_222" fill="white">
<path d="M2356.17 1393.2L2356.17 1302.01L2264.99 1302.01L2264.99 1393.2L2356.17 1393.2Z"/>
</mask>
<path d="M2356.17 1393.2L2356.17 1302.01L2264.99 1302.01L2264.99 1393.2L2356.17 1393.2Z" stroke="black" stroke-width="6" mask="url(#path-12-inside-1_751_222)"/>
<path d="M2304.48 1339.95C2306.11 1340.24 2307.66 1339.15 2307.95 1337.52C2308.24 1335.89 2307.15 1334.34 2305.52 1334.05C2303.89 1333.76 2302.33 1334.85 2302.05 1336.48C2301.76 1338.11 2302.85 1339.66 2304.48 1339.95Z" fill="black"/>
<path d="M2313.47 1372.93C2314.56 1373.12 2315.6 1372.4 2315.79 1371.31C2315.98 1370.22 2315.26 1369.19 2314.17 1368.99C2313.08 1368.8 2312.05 1369.53 2311.85 1370.61C2311.66 1371.7 2312.39 1372.74 2313.47 1372.93Z" fill="black"/>
<path d="M2302.29 1348.14C2303.65 1348.39 2304.95 1347.48 2305.19 1346.12C2305.43 1344.76 2304.52 1343.46 2303.16 1343.22C2301.81 1342.98 2300.51 1343.89 2300.27 1345.25C2300.03 1346.61 2300.93 1347.91 2302.29 1348.14Z" fill="black"/>
<path d="M2311.05 1350.58C2312.14 1350.77 2313.18 1350.05 2313.37 1348.96C2313.56 1347.87 2312.84 1346.84 2311.75 1346.64C2310.66 1346.45 2309.63 1347.18 2309.43 1348.27C2309.24 1349.35 2309.97 1350.39 2311.05 1350.58Z" fill="black"/>
<path d="M2308.48 1375.95C2310.11 1376.24 2311.67 1375.15 2311.95 1373.52C2312.24 1371.89 2311.15 1370.33 2309.52 1370.05C2307.89 1369.76 2306.33 1370.85 2306.05 1372.48C2305.76 1374.11 2306.84 1375.67 2308.48 1375.95Z" fill="black"/>
<path d="M2313.1 1367.06C2315 1367.39 2316.82 1366.12 2317.16 1364.22C2317.49 1362.32 2316.22 1360.5 2314.32 1360.16C2312.42 1359.83 2310.6 1361.1 2310.26 1363C2309.93 1364.9 2311.2 1366.72 2313.1 1367.06Z" fill="black"/>
<path d="M2294.89 1377.95C2296.79 1378.28 2298.61 1377.01 2298.95 1375.11C2299.28 1373.21 2298.01 1371.39 2296.11 1371.05C2294.21 1370.72 2292.39 1371.99 2292.05 1373.89C2291.72 1375.79 2292.99 1377.61 2294.89 1377.95Z" fill="black"/>
<path d="M2312.12 1334.77C2314.29 1335.15 2316.36 1333.7 2316.75 1331.53C2317.13 1329.35 2315.68 1327.28 2313.51 1326.89C2311.33 1326.51 2309.26 1327.96 2308.87 1330.13C2308.49 1332.31 2309.94 1334.39 2312.12 1334.77Z" fill="black"/>
<path d="M2323.61 1333.01C2324.76 1333.77 2326.31 1333.44 2327.06 1332.28C2327.82 1331.13 2327.49 1329.58 2326.33 1328.83C2325.18 1328.07 2323.63 1328.4 2322.88 1329.55C2322.12 1330.71 2322.45 1332.26 2323.61 1333.01Z" fill="black"/>
<path d="M2325.68 1322.67C2327.04 1322.91 2328.34 1322.01 2328.58 1320.64C2328.82 1319.29 2327.91 1317.99 2326.56 1317.75C2325.2 1317.51 2323.9 1318.42 2323.66 1319.78C2323.42 1321.14 2324.32 1322.43 2325.68 1322.67Z" fill="black"/>
<path d="M2316.72 1320.25C2318.35 1320.54 2319.91 1319.45 2320.2 1317.82C2320.49 1316.19 2319.4 1314.63 2317.77 1314.34C2316.14 1314.05 2314.58 1315.14 2314.29 1316.77C2314 1318.4 2315.09 1319.96 2316.72 1320.25Z" fill="black"/>
<line x1="2297.05" y1="1376.13" x2="2313.05" y2="1392.13" stroke="black" stroke-width="3"/>
<line x1="2309.08" y1="1373.16" x2="2327.08" y2="1392.16" stroke="black" stroke-width="3"/>
<line x1="2313.69" y1="1371.28" x2="2335.68" y2="1392.48" stroke="black" stroke-width="2"/>
<line x1="2314.05" y1="1363.13" x2="2343.05" y2="1392.13" stroke="black" stroke-width="3"/>
<path d="M2302.5 1345.5L2349.06 1392.15" stroke="black" stroke-width="2"/>
<line x1="2310.7" y1="1347.49" x2="2354.7" y2="1391.49" stroke="black" stroke-width="2"/>
<path d="M2306.7 1338.49L2354.99 1387.69" stroke="black" stroke-width="3"/>
<path d="M2312.7 1330.49L2354.99 1373.2" stroke="black" stroke-width="3"/>
<path d="M2324.5 1330.5L2355.08 1362.17" stroke="black" stroke-width="2"/>
<path d="M2316.7 1316.49L2355.49 1356.7" stroke="black" stroke-width="3"/>
<path d="M2325.7 1319.49L2355.49 1349.7" stroke="black" stroke-width="2"/>
<path d="M2290.44 52.0002L2267.07 86.7006L2290.27 121.172L2299.1 121.172L2294.88 114.904L2275.89 86.7006L2299.26 52.0002L2290.44 52.0002Z" fill="#3C3C3B"/>
<path d="M2305.84 52.0002L2282.47 86.7006L2305.67 121.172L2313.83 121.172L2313.35 120.461L2290.63 86.7006L2313.35 52.9524L2313.99 52.0002L2305.84 52.0002Z" fill="#3C3C3B"/>
<path d="M2330.31 121.172L2353.68 86.4595L2330.47 52.0002L2321.64 52.0002L2325.86 58.2557L2344.85 86.4595L2321.48 121.172L2330.31 121.172Z" fill="#1A1A1A"/>
<path d="M2300.17 121.172L2300.46 120.738L2303.93 115.579L2323.53 86.4595L2303.93 57.3397L2300.46 52.2051L2300.33 52.0002L2292.18 52.0002L2296.39 58.2557L2299.85 63.4023L2315.39 86.4595L2299.85 109.529L2296.39 114.675L2292.01 121.172L2300.17 121.172Z" fill="#1A1A1A"/>
<path d="M2320.57 52.0002L2320.28 52.4341L2316.81 57.5807L2297.21 86.7006L2316.81 115.832L2320.28 120.967L2320.41 121.172L2328.56 121.172L2324.35 114.904L2320.89 109.77L2305.36 86.7006L2320.89 63.6433L2324.35 58.4967L2328.73 52.0002L2320.57 52.0002Z" fill="#3C3C3B"/>
<path d="M2315.24 121.172L2338.6 86.4595L2315.41 52.0002L2307.25 52.0002L2307.73 52.6993L2330.45 86.4595L2307.73 120.22L2307.08 121.172L2315.24 121.172Z" fill="#1A1A1A"/>
<path d="M2308.99 275C2316.86 285.2 2331.6 294.583 2337.99 298C2329.72 291.6 2321.12 280 2316.49 275L2308.99 275Z" fill="black"/>
<path d="M2275.99 208C2277.99 225.097 2287.49 244.457 2291.99 252L2291.99 240C2284.59 228.334 2278.24 215.375 2275.99 208Z" fill="black"/>
<path d="M2303.99 269L2311.49 269L2317.99 252.5C2311.59 263.3 2301.99 259.333 2297.99 256L2297.99 262.5C2297.99 266.5 2301.99 268.5 2303.99 269Z" fill="black"/>
<path d="M2321.99 247C2321.59 255.8 2317.16 265.333 2314.99 269L2333.49 269C2339.09 269 2340.16 264.667 2339.99 262.5L2339.99 245.5C2335.19 239.5 2325.99 244 2321.99 247Z" fill="black"/>
<path d="M2316.49 208C2320.49 215.6 2322.16 228.167 2322.49 233.5C2331.69 233.5 2337.99 227.167 2339.99 224L2339.99 216C2339.99 209.6 2335.33 208 2332.99 208L2316.49 208Z" fill="black"/>
<path d="M2312.99 208C2317.79 218.4 2319.33 229 2319.49 233C2305.89 231 2299.49 224.167 2297.99 221L2297.99 215.5C2297.99 209.5 2302.66 208 2304.99 208L2312.99 208Z" fill="black"/>
<rect x="3898" y="3820" width="4596" height="2041" fill="black"/>
</svg>
