<svg width="1088" height="400" viewBox="0 0 1088 400" fill="none" xmlns="http://www.w3.org/2000/svg">
<rect width="1088" height="400" fill="#EBEBEB"/>
<rect width="1088" height="400" fill="white"/>
<path d="M480.65 174.998V173.348L483.15 173.098C483.783 173.032 484.2 172.832 484.4 172.498C484.6 172.132 484.7 171.465 484.7 170.498V143.298C484.7 142.465 484.583 141.882 484.35 141.548C484.15 141.215 483.717 141.015 483.05 140.948L480.65 140.748V139.098H504.8L506.35 147.798L504.45 148.248C503.917 146.782 503.4 145.582 502.9 144.648C502.4 143.682 501.85 142.948 501.25 142.448C500.65 141.915 499.933 141.548 499.1 141.348C498.267 141.148 497.25 141.048 496.05 141.048H491.7V155.698H495.55C496.517 155.698 497.25 155.598 497.75 155.398C498.283 155.165 498.683 154.732 498.95 154.098C499.25 153.465 499.567 152.532 499.9 151.298L501.5 151.098V162.048L499.85 162.298C499.617 161.032 499.35 160.082 499.05 159.448C498.783 158.782 498.383 158.332 497.85 158.098C497.317 157.832 496.55 157.698 495.55 157.698H491.7V173.048H497.3C498.467 173.048 499.45 172.948 500.25 172.748C501.083 172.515 501.783 172.132 502.35 171.598C502.917 171.032 503.417 170.265 503.85 169.298C504.317 168.298 504.783 167.032 505.25 165.498H507.2L506.2 174.998H480.65Z" fill="black"/>
<path d="M522.048 175.698C519.848 175.698 517.948 175.215 516.348 174.248C514.781 173.282 513.581 171.848 512.748 169.948C511.914 168.048 511.498 165.715 511.498 162.948C511.498 159.982 511.998 157.432 512.998 155.298C513.998 153.165 515.431 151.515 517.298 150.348C519.164 149.182 521.398 148.598 523.998 148.598C525.098 148.598 526.164 148.748 527.198 149.048C528.264 149.315 529.181 149.682 529.948 150.148V141.598C529.948 140.565 529.814 139.865 529.548 139.498C529.314 139.132 528.764 138.915 527.898 138.848L525.748 138.648L525.898 136.998L536.098 136.648L536.548 137.098V170.948C536.548 171.715 536.648 172.265 536.848 172.598C537.048 172.898 537.481 173.098 538.148 173.198L540.248 173.398V175.048L530.898 175.448L530.298 171.148H530.148C529.614 172.115 528.948 172.948 528.148 173.648C527.381 174.315 526.498 174.815 525.498 175.148C524.498 175.515 523.348 175.698 522.048 175.698ZM524.298 172.548C525.431 172.548 526.414 172.315 527.248 171.848C528.081 171.382 528.731 170.682 529.198 169.748C529.698 168.782 529.948 167.598 529.948 166.198V152.898C529.181 152.265 528.331 151.782 527.398 151.448C526.464 151.082 525.481 150.898 524.448 150.898C523.081 150.898 521.948 151.282 521.048 152.048C520.181 152.815 519.531 154.032 519.098 155.698C518.698 157.332 518.498 159.482 518.498 162.148C518.498 164.582 518.714 166.565 519.148 168.098C519.614 169.632 520.281 170.765 521.148 171.498C522.014 172.198 523.064 172.548 524.298 172.548Z" fill="black"/>
<path d="M544.575 175.748L543.825 166.548L545.725 166.398C546.225 168.165 546.842 169.582 547.575 170.648C548.342 171.682 549.225 172.448 550.225 172.948C551.225 173.415 552.325 173.648 553.525 173.648C555.092 173.648 556.309 173.265 557.175 172.498C558.075 171.698 558.525 170.598 558.525 169.198C558.525 168.265 558.275 167.532 557.775 166.998C557.309 166.465 556.625 166.032 555.725 165.698C554.825 165.332 553.742 164.982 552.475 164.648C551.309 164.315 550.209 163.948 549.175 163.548C548.175 163.148 547.292 162.648 546.525 162.048C545.792 161.448 545.209 160.715 544.775 159.848C544.375 158.948 544.175 157.848 544.175 156.548C544.175 154.982 544.542 153.598 545.275 152.398C546.009 151.198 547.059 150.265 548.425 149.598C549.825 148.932 551.475 148.598 553.375 148.598C554.709 148.598 555.892 148.782 556.925 149.148C557.959 149.515 558.842 149.965 559.575 150.498L560.175 148.598H561.675L562.275 156.848L560.375 156.748C559.775 154.682 558.909 153.132 557.775 152.098C556.642 151.032 555.242 150.498 553.575 150.498C552.142 150.498 551.025 150.815 550.225 151.448C549.425 152.082 549.025 152.998 549.025 154.198C549.025 155.098 549.259 155.832 549.725 156.398C550.225 156.932 550.925 157.365 551.825 157.698C552.725 158.032 553.792 158.382 555.025 158.748C556.259 159.115 557.375 159.515 558.375 159.948C559.409 160.382 560.309 160.898 561.075 161.498C561.842 162.098 562.425 162.848 562.825 163.748C563.225 164.648 563.425 165.732 563.425 166.998C563.425 168.798 563.009 170.348 562.175 171.648C561.375 172.948 560.225 173.948 558.725 174.648C557.259 175.348 555.559 175.698 553.625 175.698C552.259 175.698 550.975 175.515 549.775 175.148C548.609 174.815 547.575 174.315 546.675 173.648L546.075 175.748H544.575Z" fill="black"/>
<path d="M580.011 175.698C577.377 175.698 575.094 175.182 573.161 174.148C571.227 173.115 569.727 171.632 568.661 169.698C567.627 167.765 567.111 165.432 567.111 162.698C567.111 159.698 567.661 157.148 568.761 155.048C569.894 152.948 571.494 151.348 573.561 150.248C575.627 149.148 578.044 148.598 580.811 148.598C583.344 148.598 585.544 149.098 587.411 150.098C589.311 151.098 590.777 152.565 591.811 154.498C592.877 156.432 593.411 158.782 593.411 161.548C593.411 164.448 592.861 166.965 591.761 169.098C590.661 171.198 589.111 172.832 587.111 173.998C585.111 175.132 582.744 175.698 580.011 175.698ZM580.761 173.598C581.994 173.598 583.027 173.232 583.861 172.498C584.694 171.765 585.311 170.598 585.711 168.998C586.111 167.365 586.311 165.248 586.311 162.648C586.311 160.482 586.161 158.648 585.861 157.148C585.594 155.615 585.177 154.382 584.611 153.448C584.077 152.482 583.411 151.782 582.611 151.348C581.844 150.915 580.961 150.698 579.961 150.698C578.727 150.698 577.677 151.048 576.811 151.748C575.944 152.415 575.277 153.515 574.811 155.048C574.377 156.582 574.161 158.632 574.161 161.198C574.161 164.098 574.427 166.465 574.961 168.298C575.494 170.132 576.244 171.482 577.211 172.348C578.211 173.182 579.394 173.598 580.761 173.598Z" fill="black"/>
<path d="M597.19 174.998V173.398L599.34 173.098C599.84 173.032 600.173 172.848 600.34 172.548C600.507 172.215 600.59 171.615 600.59 170.748V154.398C600.59 153.298 600.49 152.548 600.29 152.148C600.09 151.715 599.623 151.465 598.89 151.398L596.74 151.148L596.89 149.548L606.24 148.998L606.69 149.348L606.79 154.148H606.89C607.69 152.348 608.84 150.982 610.34 150.048C611.873 149.082 613.59 148.598 615.49 148.598C617.29 148.598 618.79 148.948 619.99 149.648C621.223 150.315 622.14 151.298 622.74 152.598C623.373 153.898 623.69 155.498 623.69 157.398V171.048C623.69 171.815 623.773 172.332 623.94 172.598C624.14 172.865 624.557 173.048 625.19 173.148L627.24 173.398V174.998H613.84V173.448L615.64 173.198C616.24 173.098 616.623 172.915 616.79 172.648C616.957 172.348 617.04 171.815 617.04 171.048V157.848C617.04 156.348 616.907 155.165 616.64 154.298C616.407 153.398 615.99 152.765 615.39 152.398C614.79 152.032 613.973 151.848 612.94 151.848C611.84 151.848 610.857 152.115 609.99 152.648C609.123 153.148 608.44 153.898 607.94 154.898C607.44 155.865 607.19 157.015 607.19 158.348V170.898C607.19 171.665 607.273 172.198 607.44 172.498C607.607 172.798 607.923 172.998 608.39 173.098L610.54 173.448V174.998H597.19Z" fill="black"/>
<path d="M641.246 174.998V173.348L643.746 173.098C644.379 173.032 644.796 172.832 644.996 172.498C645.196 172.132 645.296 171.465 645.296 170.498V143.298C645.296 142.465 645.179 141.882 644.946 141.548C644.746 141.215 644.312 141.015 643.646 140.948L641.246 140.748V139.098H655.096C656.862 139.098 658.462 139.232 659.896 139.498C661.362 139.732 662.662 140.115 663.796 140.648C664.929 141.148 665.862 141.798 666.596 142.598C667.362 143.398 667.929 144.348 668.296 145.448C668.696 146.515 668.896 147.748 668.896 149.148C668.896 150.715 668.662 152.098 668.196 153.298C667.762 154.498 667.146 155.548 666.346 156.448C665.546 157.315 664.612 158.032 663.546 158.598C662.479 159.165 661.312 159.598 660.046 159.898C658.812 160.165 657.546 160.298 656.246 160.298C655.346 160.298 654.529 160.282 653.796 160.248C653.096 160.182 652.596 160.115 652.296 160.048V170.598C652.296 171.465 652.396 172.098 652.596 172.498C652.829 172.865 653.362 173.065 654.196 173.098L657.446 173.348V174.998H641.246ZM654.646 158.248C656.979 158.248 658.712 157.515 659.846 156.048C661.012 154.548 661.596 152.332 661.596 149.398C661.596 147.365 661.346 145.748 660.846 144.548C660.346 143.315 659.562 142.432 658.496 141.898C657.462 141.332 656.129 141.048 654.496 141.048H652.296V158.048C652.529 158.115 652.862 158.165 653.296 158.198C653.729 158.232 654.179 158.248 654.646 158.248Z" fill="black"/>
<path d="M679.541 175.698C677.274 175.698 675.491 175.098 674.191 173.898C672.924 172.698 672.291 171.032 672.291 168.898C672.291 167.098 672.758 165.648 673.691 164.548C674.624 163.448 676.124 162.615 678.191 162.048C680.291 161.482 683.091 161.132 686.591 160.998V155.898C686.591 154.565 686.424 153.498 686.091 152.698C685.791 151.898 685.291 151.315 684.591 150.948C683.924 150.548 683.024 150.348 681.891 150.348C680.958 150.348 680.008 150.498 679.041 150.798C678.108 151.098 677.391 151.482 676.891 151.948C677.458 152.648 677.891 153.248 678.191 153.748C678.491 154.248 678.691 154.665 678.791 154.998C678.924 155.332 678.991 155.632 678.991 155.898C678.991 156.565 678.708 157.148 678.141 157.648C677.574 158.115 676.791 158.348 675.791 158.348C674.724 158.348 673.908 158.082 673.341 157.548C672.808 157.015 672.541 156.298 672.541 155.398C672.541 154.265 672.991 153.182 673.891 152.148C674.791 151.082 676.024 150.232 677.591 149.598C679.191 148.965 680.974 148.648 682.941 148.648C685.208 148.648 687.091 148.982 688.591 149.648C690.124 150.282 691.274 151.298 692.041 152.698C692.841 154.065 693.241 155.848 693.241 158.048V170.198C693.241 171.032 693.408 171.648 693.741 172.048C694.108 172.415 694.608 172.598 695.241 172.598C695.608 172.598 695.974 172.548 696.341 172.448C696.708 172.348 697.091 172.215 697.491 172.048L697.841 173.298C697.108 174.132 696.241 174.732 695.241 175.098C694.274 175.498 693.324 175.698 692.391 175.698C690.758 175.698 689.508 175.298 688.641 174.498C687.808 173.698 687.291 172.565 687.091 171.098C686.558 172.132 685.941 172.998 685.241 173.698C684.541 174.365 683.724 174.865 682.791 175.198C681.858 175.532 680.774 175.698 679.541 175.698ZM682.391 172.598C683.224 172.598 683.958 172.415 684.591 172.048C685.224 171.648 685.708 171.098 686.041 170.398C686.408 169.665 686.591 168.848 686.591 167.948V162.648C684.791 162.682 683.324 162.882 682.191 163.248C681.058 163.615 680.224 164.198 679.691 164.998C679.191 165.765 678.941 166.832 678.941 168.198C678.941 169.632 679.224 170.732 679.791 171.498C680.391 172.232 681.258 172.598 682.391 172.598Z" fill="black"/>
<path d="M707.827 174.998L699.527 154.048C699.26 153.382 699.044 152.882 698.877 152.548C698.71 152.182 698.494 151.915 698.227 151.748C697.994 151.582 697.66 151.448 697.227 151.348L695.727 150.948L696.027 149.298H709.777V150.948L707.627 151.198C706.96 151.265 706.544 151.482 706.377 151.848C706.244 152.215 706.344 152.848 706.677 153.748L712.577 169.748H712.777L718.327 154.048C718.627 153.215 718.694 152.582 718.527 152.148C718.394 151.682 717.927 151.382 717.127 151.248L715.177 150.898L715.477 149.298H724.877V150.948L723.177 151.248C722.544 151.382 722.077 151.615 721.777 151.948C721.477 152.248 721.144 152.932 720.777 153.998L713.127 174.998H707.827Z" fill="black"/>
<path d="M738.36 175.698C735.727 175.698 733.443 175.182 731.51 174.148C729.577 173.115 728.077 171.632 727.01 169.698C725.977 167.765 725.46 165.432 725.46 162.698C725.46 159.698 726.01 157.148 727.11 155.048C728.244 152.948 729.843 151.348 731.91 150.248C733.977 149.148 736.393 148.598 739.16 148.598C741.693 148.598 743.893 149.098 745.76 150.098C747.66 151.098 749.127 152.565 750.16 154.498C751.227 156.432 751.76 158.782 751.76 161.548C751.76 164.448 751.21 166.965 750.11 169.098C749.01 171.198 747.46 172.832 745.46 173.998C743.46 175.132 741.094 175.698 738.36 175.698ZM739.11 173.598C740.344 173.598 741.377 173.232 742.21 172.498C743.043 171.765 743.66 170.598 744.06 168.998C744.46 167.365 744.66 165.248 744.66 162.648C744.66 160.482 744.51 158.648 744.21 157.148C743.943 155.615 743.527 154.382 742.96 153.448C742.427 152.482 741.76 151.782 740.96 151.348C740.193 150.915 739.31 150.698 738.31 150.698C737.077 150.698 736.027 151.048 735.16 151.748C734.293 152.415 733.627 153.515 733.16 155.048C732.727 156.582 732.51 158.632 732.51 161.198C732.51 164.098 732.777 166.465 733.31 168.298C733.843 170.132 734.593 171.482 735.56 172.348C736.56 173.182 737.744 173.598 739.11 173.598Z" fill="black"/>
<path d="M755.539 174.998V173.398L757.689 173.098C758.189 173.032 758.523 172.848 758.689 172.548C758.856 172.215 758.939 171.615 758.939 170.748V154.398C758.939 153.298 758.839 152.548 758.639 152.148C758.439 151.715 757.973 151.465 757.239 151.398L755.089 151.148L755.239 149.548L764.589 148.998L765.039 149.348L765.139 154.148H765.239C766.039 152.348 767.189 150.982 768.689 150.048C770.223 149.082 771.939 148.598 773.839 148.598C775.639 148.598 777.139 148.948 778.339 149.648C779.573 150.315 780.489 151.298 781.089 152.598C781.723 153.898 782.039 155.498 782.039 157.398V171.048C782.039 171.815 782.123 172.332 782.289 172.598C782.489 172.865 782.906 173.048 783.539 173.148L785.589 173.398V174.998H772.189V173.448L773.989 173.198C774.589 173.098 774.973 172.915 775.139 172.648C775.306 172.348 775.389 171.815 775.389 171.048V157.848C775.389 156.348 775.256 155.165 774.989 154.298C774.756 153.398 774.339 152.765 773.739 152.398C773.139 152.032 772.323 151.848 771.289 151.848C770.189 151.848 769.206 152.115 768.339 152.648C767.473 153.148 766.789 153.898 766.289 154.898C765.789 155.865 765.539 157.015 765.539 158.348V170.898C765.539 171.665 765.623 172.198 765.789 172.498C765.956 172.798 766.273 172.998 766.739 173.098L768.889 173.448V174.998H755.539Z" fill="black"/>
<path d="M788.59 174.998V173.348L790.94 173.048C791.54 172.982 791.907 172.782 792.04 172.448C792.207 172.115 792.29 171.515 792.29 170.648V154.498C792.29 153.365 792.19 152.598 791.99 152.198C791.79 151.765 791.307 151.515 790.54 151.448L788.39 151.198L788.59 149.548L798.44 149.048L798.94 149.348V170.798C798.94 171.532 799.024 172.065 799.19 172.398C799.357 172.732 799.74 172.948 800.34 173.048L802.74 173.398V174.998H788.59ZM794.99 144.398C793.69 144.398 792.657 144.048 791.89 143.348C791.124 142.648 790.74 141.715 790.74 140.548C790.74 139.415 791.107 138.498 791.84 137.798C792.607 137.098 793.657 136.748 794.99 136.748C796.324 136.748 797.357 137.098 798.09 137.798C798.857 138.465 799.24 139.382 799.24 140.548C799.24 141.715 798.84 142.648 798.04 143.348C797.274 144.048 796.257 144.398 794.99 144.398Z" fill="black"/>
<path d="M386.18 260.998V260.018L390.17 259.808C391.103 259.715 391.757 259.412 392.13 258.898C392.55 258.338 392.76 257.405 392.76 256.098V211.298H389.4C387.86 211.298 386.483 211.555 385.27 212.068C384.103 212.535 383.03 213.305 382.05 214.378C381.117 215.452 380.23 216.852 379.39 218.578C378.597 220.305 377.757 222.428 376.87 224.948L375.75 224.598L377.5 209.968H419.64L421.32 224.598L420.13 224.948C419.337 222.428 418.52 220.305 417.68 218.578C416.84 216.852 415.953 215.452 415.02 214.378C414.087 213.305 413.013 212.535 411.8 212.068C410.633 211.555 409.28 211.298 407.74 211.298H404.45V256.378C404.45 257.638 404.66 258.502 405.08 258.968C405.547 259.435 406.247 259.715 407.18 259.808L411.03 260.018V260.998H386.18Z" fill="black"/>
<path d="M438.665 261.978C435.025 261.978 431.875 261.278 429.215 259.878C426.555 258.432 424.502 256.332 423.055 253.578C421.655 250.825 420.955 247.512 420.955 243.638C420.955 239.345 421.795 235.728 423.475 232.788C425.155 229.848 427.442 227.608 430.335 226.068C433.229 224.528 436.472 223.758 440.065 223.758C443.099 223.758 445.712 224.295 447.905 225.368C450.145 226.442 451.872 227.982 453.085 229.988C454.299 231.995 454.905 234.352 454.905 237.058C454.905 237.712 454.882 238.342 454.835 238.948C454.835 239.555 454.789 240.208 454.695 240.908H432.505C432.459 244.035 432.809 246.648 433.555 248.748C434.349 250.802 435.539 252.365 437.125 253.438C438.712 254.465 440.625 254.978 442.865 254.978C444.872 254.978 446.762 254.698 448.535 254.138C450.355 253.578 452.292 252.435 454.345 250.708L455.115 251.338C453.482 254.745 451.265 257.382 448.465 259.248C445.712 261.068 442.445 261.978 438.665 261.978ZM432.505 239.648H444.195C444.242 238.948 444.289 238.248 444.335 237.548C444.382 236.848 444.405 236.125 444.405 235.378C444.405 231.645 444.009 229.008 443.215 227.468C442.422 225.882 441.185 225.088 439.505 225.088C438.199 225.088 437.032 225.508 436.005 226.348C435.025 227.188 434.232 228.682 433.625 230.828C433.019 232.928 432.645 235.868 432.505 239.648Z" fill="black"/>
<path d="M459.232 260.998V260.018L461.962 259.738C462.662 259.645 463.128 259.388 463.362 258.968C463.595 258.548 463.712 257.732 463.712 256.518V230.408C463.712 228.915 463.548 227.865 463.222 227.258C462.942 226.652 462.288 226.302 461.262 226.208L458.532 225.998L458.672 225.018L473.932 224.318L474.422 224.738L474.352 231.808H474.422C475.122 230.082 476.032 228.635 477.152 227.468C478.272 226.255 479.555 225.345 481.002 224.738C482.495 224.085 484.105 223.758 485.832 223.758C488.725 223.758 491.105 224.435 492.972 225.788C494.838 227.142 496.122 229.172 496.822 231.878C497.802 229.265 499.295 227.258 501.302 225.858C503.308 224.458 505.642 223.758 508.302 223.758C510.728 223.758 512.805 224.248 514.532 225.228C516.258 226.208 517.565 227.655 518.452 229.568C519.385 231.435 519.852 233.768 519.852 236.568V256.798C519.852 257.918 519.992 258.665 520.272 259.038C520.552 259.412 521.112 259.645 521.952 259.738L524.472 260.018V260.998H505.152V260.018L507.042 259.808C507.742 259.715 508.208 259.482 508.442 259.108C508.675 258.688 508.792 257.918 508.792 256.798V235.798C508.792 233.512 508.628 231.762 508.302 230.548C508.022 229.335 507.532 228.495 506.832 228.028C506.178 227.515 505.268 227.258 504.102 227.258C502.842 227.258 501.698 227.632 500.672 228.378C499.645 229.125 498.828 230.175 498.222 231.528C497.615 232.835 497.312 234.398 497.312 236.218V256.658C497.312 257.685 497.382 258.432 497.522 258.898C497.662 259.318 498.105 259.575 498.852 259.668L501.022 260.018V260.998H482.612V260.018L484.502 259.808C485.202 259.715 485.668 259.482 485.902 259.108C486.135 258.688 486.252 257.918 486.252 256.798V235.798C486.252 233.512 486.088 231.762 485.762 230.548C485.482 229.288 484.992 228.425 484.292 227.958C483.638 227.492 482.728 227.258 481.562 227.258C480.302 227.258 479.158 227.655 478.132 228.448C477.105 229.242 476.288 230.315 475.682 231.668C475.075 232.975 474.772 234.492 474.772 236.218V256.658C474.772 257.778 474.865 258.548 475.052 258.968C475.238 259.342 475.682 259.575 476.382 259.668L478.482 260.018V260.998H459.232Z" fill="black"/>
<path d="M527.516 276.118V275.138L530.176 274.858C530.876 274.765 531.343 274.532 531.576 274.158C531.856 273.785 531.996 272.968 531.996 271.708V230.408C531.996 228.822 531.833 227.748 531.506 227.188C531.226 226.628 530.549 226.302 529.476 226.208L526.816 225.998L526.886 225.018L542.216 224.318L542.706 224.738V230.618H542.776C543.476 229.265 544.363 228.075 545.436 227.048C546.509 226.022 547.746 225.228 549.146 224.668C550.593 224.062 552.226 223.758 554.046 223.758C557.033 223.758 559.646 224.412 561.886 225.718C564.173 226.978 565.946 228.938 567.206 231.598C568.466 234.258 569.096 237.665 569.096 241.818C569.096 245.878 568.396 249.425 566.996 252.458C565.596 255.445 563.543 257.778 560.836 259.458C558.176 261.138 554.909 261.978 551.036 261.978C549.589 261.978 548.166 261.792 546.766 261.418C545.413 261.092 544.176 260.648 543.056 260.088V271.708C543.056 272.828 543.173 273.598 543.406 274.018C543.639 274.485 544.316 274.765 545.436 274.858L548.866 275.138V276.118H527.516ZM549.986 260.368C551.619 260.368 552.973 259.855 554.046 258.828C555.166 257.755 556.006 255.958 556.566 253.438C557.126 250.918 557.406 247.465 557.406 243.078C557.406 239.205 557.103 236.148 556.496 233.908C555.936 231.622 555.096 229.988 553.976 229.008C552.903 228.028 551.596 227.538 550.056 227.538C548.703 227.538 547.489 227.842 546.416 228.448C545.389 229.055 544.573 229.988 543.966 231.248C543.359 232.462 543.056 234.025 543.056 235.938V257.498C543.896 258.292 544.946 258.968 546.206 259.528C547.466 260.088 548.726 260.368 549.986 260.368Z" fill="black"/>
<path d="M574.005 260.998V260.018L576.665 259.738C577.459 259.692 577.972 259.458 578.205 259.038C578.439 258.572 578.555 257.708 578.555 256.448V213.118C578.555 211.672 578.392 210.668 578.065 210.108C577.785 209.502 577.132 209.152 576.105 209.058L573.375 208.848L573.445 207.868L589.125 207.308L589.615 207.728V256.588C589.615 257.755 589.755 258.548 590.035 258.968C590.315 259.388 590.899 259.645 591.785 259.738L594.445 260.018V260.998H574.005Z" fill="black"/>
<path d="M617.109 261.978C613.329 261.978 610.016 261.278 607.169 259.878C604.369 258.432 602.176 256.355 600.589 253.648C599.049 250.895 598.279 247.582 598.279 243.708C598.279 239.415 599.096 235.798 600.729 232.858C602.409 229.918 604.743 227.678 607.729 226.138C610.763 224.552 614.309 223.758 618.369 223.758C622.056 223.758 625.276 224.458 628.029 225.858C630.829 227.258 632.999 229.312 634.539 232.018C636.079 234.725 636.849 238.062 636.849 242.028C636.849 246.135 636.033 249.682 634.399 252.668C632.813 255.655 630.549 257.965 627.609 259.598C624.669 261.185 621.169 261.978 617.109 261.978ZM618.229 260.578C619.816 260.578 621.099 260.065 622.079 259.038C623.106 257.965 623.853 256.192 624.319 253.718C624.786 251.198 625.019 247.792 625.019 243.498C625.019 239.952 624.833 237.012 624.459 234.678C624.133 232.298 623.619 230.432 622.919 229.078C622.266 227.678 621.449 226.675 620.469 226.068C619.536 225.462 618.463 225.158 617.249 225.158C615.663 225.158 614.333 225.672 613.259 226.698C612.186 227.678 611.369 229.382 610.809 231.808C610.296 234.188 610.039 237.455 610.039 241.608C610.039 246.368 610.389 250.148 611.089 252.948C611.789 255.702 612.746 257.662 613.959 258.828C615.173 259.995 616.596 260.578 618.229 260.578Z" fill="black"/>
<path d="M681.083 261.978C676.23 261.978 672.007 260.928 668.413 258.828C664.82 256.728 662.043 253.765 660.083 249.938C658.17 246.112 657.213 241.608 657.213 236.428C657.213 230.502 658.217 225.508 660.223 221.448C662.277 217.388 665.147 214.308 668.833 212.208C672.567 210.062 676.953 208.988 681.993 208.988C686.66 208.988 690.743 209.992 694.243 211.998C697.743 213.958 700.45 216.805 702.363 220.538C704.323 224.272 705.303 228.845 705.303 234.258C705.303 238.365 704.767 242.145 703.693 245.598C702.62 249.005 701.033 251.922 698.933 254.348C696.88 256.775 694.337 258.665 691.303 260.018C688.317 261.325 684.91 261.978 681.083 261.978ZM682.203 260.578C684.07 260.578 685.68 260.182 687.033 259.388C688.387 258.548 689.483 257.195 690.323 255.328C691.21 253.462 691.863 250.965 692.283 247.838C692.703 244.665 692.913 240.698 692.913 235.938C692.913 231.225 692.657 227.235 692.143 223.968C691.63 220.655 690.86 217.995 689.833 215.988C688.807 213.982 687.547 212.535 686.053 211.648C684.56 210.762 682.81 210.318 680.803 210.318C678.983 210.318 677.373 210.738 675.973 211.578C674.573 212.372 673.383 213.725 672.403 215.638C671.47 217.505 670.747 220.002 670.233 223.128C669.767 226.255 669.533 230.128 669.533 234.748C669.533 239.462 669.813 243.475 670.373 246.788C670.98 250.055 671.82 252.715 672.893 254.768C674.013 256.822 675.343 258.315 676.883 259.248C678.47 260.135 680.243 260.578 682.203 260.578Z" fill="black"/>
<path d="M710.726 260.998V260.018L713.456 259.738C714.156 259.645 714.622 259.388 714.856 258.968C715.089 258.548 715.206 257.732 715.206 256.518V230.408C715.206 228.915 715.066 227.865 714.786 227.258C714.506 226.652 713.829 226.302 712.756 226.208L710.026 225.998L710.166 225.018L725.356 224.318L725.776 224.738L725.846 232.228H725.986C726.919 229.382 728.342 227.258 730.256 225.858C732.169 224.458 734.222 223.758 736.416 223.758C738.889 223.758 740.826 224.482 742.226 225.928C743.672 227.328 744.396 229.195 744.396 231.528C744.396 232.648 744.209 233.698 743.836 234.678C743.462 235.612 742.856 236.358 742.016 236.918C741.176 237.478 740.032 237.758 738.586 237.758C736.906 237.758 735.646 237.385 734.806 236.638C733.966 235.845 733.546 234.888 733.546 233.768C733.546 233.162 733.639 232.555 733.826 231.948C734.059 231.342 734.432 230.618 734.946 229.778C735.506 228.892 736.252 227.842 737.186 226.628C736.019 226.208 734.806 226.162 733.546 226.488C732.286 226.768 731.096 227.375 729.976 228.308C728.902 229.242 728.016 230.455 727.316 231.948C726.616 233.395 726.266 235.098 726.266 237.058V256.588C726.266 257.662 726.359 258.432 726.546 258.898C726.779 259.318 727.339 259.552 728.226 259.598L732.636 260.018V260.998H710.726Z" fill="black"/>
<path d="M751.996 261.908L750.736 261.208V213.258C750.736 211.812 750.596 210.785 750.316 210.178C750.083 209.525 749.383 209.152 748.216 209.058L745.626 208.778L745.696 207.868L761.376 207.308L761.866 207.728V229.848H761.936C762.636 228.588 763.476 227.515 764.456 226.628C765.483 225.695 766.673 224.995 768.026 224.528C769.426 224.015 770.99 223.758 772.716 223.758C775.75 223.758 778.409 224.412 780.696 225.718C782.983 226.978 784.756 228.915 786.016 231.528C787.276 234.142 787.906 237.502 787.906 241.608C787.906 245.762 787.183 249.378 785.736 252.458C784.336 255.492 782.306 257.848 779.646 259.528C776.986 261.162 773.719 261.978 769.846 261.978C767.746 261.978 765.786 261.675 763.966 261.068C762.193 260.462 760.583 259.692 759.136 258.758L751.996 261.908ZM768.586 260.368C770.22 260.368 771.596 259.855 772.716 258.828C773.883 257.755 774.746 255.982 775.306 253.508C775.913 251.035 776.216 247.652 776.216 243.358C776.216 239.485 775.913 236.405 775.306 234.118C774.746 231.785 773.906 230.105 772.786 229.078C771.666 228.052 770.266 227.538 768.586 227.538C767.373 227.538 766.253 227.818 765.226 228.378C764.199 228.892 763.383 229.755 762.776 230.968C762.17 232.135 761.866 233.722 761.866 235.728V257.428C762.753 258.268 763.756 258.968 764.876 259.528C766.043 260.088 767.28 260.368 768.586 260.368Z" fill="black"/>
<path d="M793.099 260.998V260.018L796.039 259.738C796.785 259.645 797.252 259.388 797.439 258.968C797.672 258.502 797.789 257.685 797.789 256.518V230.408C797.789 228.915 797.625 227.865 797.299 227.258C797.019 226.652 796.365 226.302 795.339 226.208L792.609 225.998L792.679 225.018L808.359 224.318L808.849 224.738V256.658C808.849 257.778 808.965 258.548 809.199 258.968C809.479 259.342 810.015 259.575 810.809 259.668L813.679 260.018V260.998H793.099ZM802.549 218.438C800.449 218.438 798.792 217.925 797.579 216.898C796.365 215.825 795.759 214.378 795.759 212.558C795.759 210.785 796.342 209.362 797.509 208.288C798.722 207.215 800.402 206.678 802.549 206.678C804.789 206.678 806.469 207.215 807.589 208.288C808.755 209.315 809.339 210.738 809.339 212.558C809.339 214.332 808.732 215.755 807.519 216.828C806.352 217.902 804.695 218.438 802.549 218.438Z" fill="black"/>
<path d="M830.543 261.978C828.536 261.978 826.786 261.652 825.293 260.998C823.799 260.298 822.633 259.178 821.793 257.638C820.999 256.098 820.603 254.045 820.603 251.478V226.068H815.913V225.158C818.106 224.925 819.809 224.435 821.023 223.688C822.236 222.895 823.169 221.705 823.823 220.118C824.476 218.532 824.989 216.478 825.363 213.958L830.893 213.188L831.663 213.748V224.738H841.113V226.068H831.663V250.008C831.663 252.062 831.989 253.625 832.643 254.698C833.296 255.772 834.393 256.308 835.933 256.308C837.053 256.308 838.149 256.075 839.223 255.608C840.296 255.142 841.276 254.442 842.163 253.508L842.793 254.208C841.253 256.635 839.526 258.548 837.613 259.948C835.746 261.302 833.389 261.978 830.543 261.978Z" fill="black"/>
<path d="M855.622 261.978C852.449 261.978 849.975 261.162 848.202 259.528C846.429 257.848 845.542 255.492 845.542 252.458C845.542 249.985 846.172 248.002 847.432 246.508C848.692 245.015 850.769 243.872 853.662 243.078C856.602 242.285 860.569 241.772 865.562 241.538V232.648C865.562 230.828 865.352 229.382 864.932 228.308C864.512 227.188 863.835 226.395 862.902 225.928C862.015 225.415 860.825 225.158 859.332 225.158C858.025 225.158 856.625 225.392 855.132 225.858C853.685 226.325 852.589 226.932 851.842 227.678C853.009 228.985 853.872 230.058 854.432 230.898C854.992 231.738 855.365 232.438 855.552 232.998C855.739 233.512 855.832 234.002 855.832 234.468C855.832 235.448 855.412 236.312 854.572 237.058C853.779 237.758 852.612 238.108 851.072 238.108C849.345 238.108 848.062 237.688 847.222 236.848C846.429 236.008 846.032 234.912 846.032 233.558C846.032 232.065 846.639 230.572 847.852 229.078C849.112 227.538 850.885 226.278 853.172 225.298C855.505 224.272 858.235 223.758 861.362 223.758C864.582 223.758 867.335 224.202 869.622 225.088C871.909 225.975 873.659 227.422 874.872 229.428C876.085 231.435 876.692 234.142 876.692 237.548V254.908C876.692 256.075 876.902 256.938 877.322 257.498C877.789 258.012 878.442 258.268 879.282 258.268C879.795 258.268 880.285 258.222 880.752 258.128C881.219 257.988 881.732 257.802 882.292 257.568L882.642 258.198C881.382 259.645 880.005 260.625 878.512 261.138C877.019 261.698 875.595 261.978 874.242 261.978C871.769 261.978 869.902 261.395 868.642 260.228C867.382 259.062 866.542 257.428 866.122 255.328C865.469 256.868 864.675 258.128 863.742 259.108C862.809 260.088 861.665 260.812 860.312 261.278C859.005 261.745 857.442 261.978 855.622 261.978ZM860.732 258.058C861.759 258.058 862.622 257.802 863.322 257.288C864.022 256.775 864.559 256.075 864.932 255.188C865.352 254.255 865.562 253.182 865.562 251.968V242.728C863.322 242.775 861.525 243.078 860.172 243.638C858.865 244.152 857.932 245.015 857.372 246.228C856.812 247.442 856.532 249.122 856.532 251.268C856.532 253.602 856.882 255.328 857.582 256.448C858.282 257.522 859.332 258.058 860.732 258.058Z" fill="black"/>
<path d="M884.972 260.998V260.018L887.632 259.738C888.425 259.692 888.939 259.458 889.172 259.038C889.405 258.572 889.522 257.708 889.522 256.448V213.118C889.522 211.672 889.359 210.668 889.032 210.108C888.752 209.502 888.099 209.152 887.072 209.058L884.342 208.848L884.412 207.868L900.092 207.308L900.582 207.728V256.588C900.582 257.755 900.722 258.548 901.002 258.968C901.282 259.388 901.865 259.645 902.752 259.738L905.412 260.018V260.998H884.972Z" fill="black"/>
<path d="M296 127L296 132L291 132L291 127L296 127ZM296 132L296 137L291 137L291 132L296 132ZM296 137L296 142L291 142L291 137L296 137ZM296 142L296 147L291 147L291 142L296 142ZM296 147L296 152L291 152L291 147L296 147ZM296 152L296 157L291 157L291 152L296 152ZM296 157L296 162L291 162L291 157L296 157ZM296 177L296 182L291 182L291 177L296 177ZM296 187L296 192L291 192L291 187L296 187ZM296 192L296 197L291 197L291 192L296 192ZM296 207L296 212L291 212L291 207L296 207ZM296 217L296 222L291 222L291 217L296 217ZM296 222L296 227L291 227L291 222L296 222ZM296 227L296 232L291 232L291 227L296 227ZM296 232L296 237L291 237L291 232L296 232ZM296 237L296 242L291 242L291 237L296 237ZM296 242L296 247L291 247L291 242L296 242ZM296 247L296 252L291 252L291 247L296 247ZM291 127L291 132L286 132L286 127L291 127ZM291 157L291 162L286 162L286 157L291 157ZM291 167L291 172L286 172L286 167L291 167ZM291 177L291 182L286 182L286 177L291 177ZM291 197L291 202L286 202L286 197L291 197ZM291 202L291 207L286 207L286 202L291 202ZM291 207L291 212L286 212L286 207L291 207ZM291 217L291 222L286 222L286 217L291 217ZM291 247L291 252L286 252L286 247L291 247ZM286 127L286 132L281 132L281 127L286 127ZM286 137L286 142L281 142L281 137L286 137ZM286 142L286 147L281 147L281 142L286 142ZM286 147L286 152L281 152L281 147L286 147ZM286 157L286 162L281 162L281 157L286 157ZM286 187L286 192L281 192L281 187L286 187ZM286 197L286 202L281 202L281 197L286 197ZM286 202L286 207L281 207L281 202L286 202ZM286 207L286 212L281 212L281 207L286 207ZM286 217L286 222L281 222L281 217L286 217ZM286 227L286 232L281 232L281 227L286 227ZM286 232L286 237L281 237L281 232L286 232ZM286 237L286 242L281 242L281 237L286 237ZM286 247L286 252L281 252L281 247L286 247ZM281 127L281 132L276 132L276 127L281 127ZM281 137L281 142L276 142L276 137L281 137ZM281 142L281 147L276 147L276 142L281 142ZM281 147L281 152L276 152L276 147L281 147ZM281 157L281 162L276 162L276 157L281 157ZM281 167L281 172L276 172L276 167L281 167ZM281 172L281 177L276 177L276 172L281 172ZM281 177L281 182L276 182L276 177L281 177ZM281 187L281 192L276 192L276 187L281 187ZM281 192L281 197L276 197L276 192L281 192ZM281 197L281 202L276 202L276 197L281 197ZM281 202L281 207L276 207L276 202L281 202ZM281 217L281 222L276 222L276 217L281 217ZM281 227L281 232L276 232L276 227L281 227ZM281 232L281 237L276 237L276 232L281 232ZM281 237L281 242L276 242L276 237L281 237ZM281 247L281 252L276 252L276 247L281 247ZM276 127L276 132L271 132L271 127L276 127ZM276 137L276 142L271 142L271 137L276 137ZM276 142L276 147L271 147L271 142L276 142ZM276 147L276 152L271 152L271 147L276 147ZM276 157L276 162L271 162L271 157L276 157ZM276 172L276 177L271 177L271 172L276 172ZM276 197L276 202L271 202L271 197L276 197ZM276 207L276 212L271 212L271 207L276 207ZM276 217L276 222L271 222L271 217L276 217ZM276 227L276 232L271 232L271 227L276 227ZM276 232L276 237L271 237L271 232L276 232ZM276 237L276 242L271 242L271 237L276 237ZM276 247L276 252L271 252L271 247L276 247ZM271 127L271 132L266 132L266 127L271 127ZM271 157L271 162L266 162L266 157L271 157ZM271 167L271 172L266 172L266 167L271 167ZM271 172L271 177L266 177L266 172L271 172ZM271 182L271 187L266 187L266 182L271 182ZM271 187L271 192L266 192L266 187L271 187ZM271 202L271 207L266 207L266 202L271 202ZM271 217L271 222L266 222L266 217L271 217ZM271 247L271 252L266 252L266 247L271 247ZM266 127L266 132L261 132L261 127L266 127ZM266 132L266 137L261 137L261 132L266 132ZM266 137L266 142L261 142L261 137L266 137ZM266 142L266 147L261 147L261 142L266 142ZM266 147L266 152L261 152L261 147L266 147ZM266 152L266 157L261 157L261 152L266 152ZM266 157L266 162L261 162L261 157L266 157ZM266 167L266 172L261 172L261 167L266 167ZM266 177L266 182L261 182L261 177L266 177ZM266 187L266 192L261 192L261 187L266 187ZM266 197L266 202L261 202L261 197L266 197ZM266 207L266 212L261 212L261 207L266 207ZM266 217L266 222L261 222L261 217L266 217ZM266 222L266 227L261 227L261 222L266 222ZM266 227L266 232L261 232L261 227L266 227ZM266 232L266 237L261 237L261 232L266 232ZM266 237L266 242L261 242L261 237L266 237ZM266 242L266 247L261 247L261 242L266 242ZM266 247L266 252L261 252L261 247L266 247ZM261 172L261 177L256 177L256 172L261 172ZM261 177L261 182L256 182L256 177L261 177ZM261 182L261 187L256 187L256 182L261 182ZM261 202L261 207L256 207L256 202L261 202ZM261 207L261 212L256 212L256 207L261 207ZM256 127L256 132L251 132L251 127L256 127ZM256 132L256 137L251 137L251 132L256 132ZM256 137L256 142L251 142L251 137L256 137ZM256 142L256 147L251 147L251 142L256 142ZM256 147L256 152L251 152L251 147L256 147ZM256 157L256 162L251 162L251 157L256 157ZM256 162L256 167L251 167L251 162L256 162ZM256 167L256 172L251 172L251 167L256 167ZM256 172L256 177L251 177L251 172L256 172ZM256 182L256 187L251 187L251 182L256 182ZM256 192L256 197L251 197L251 192L256 192ZM256 197L256 202L251 202L251 197L256 197ZM256 202L256 207L251 207L251 202L256 202ZM256 207L256 212L251 212L251 207L256 207ZM256 212L256 217L251 217L251 212L256 212ZM256 222L256 227L251 227L251 222L256 222ZM256 232L256 237L251 237L251 232L256 232ZM256 242L256 247L251 247L251 242L256 242ZM251 127L251 132L246 132L246 127L251 127ZM251 132L251 137L246 137L246 132L251 132ZM251 142L251 147L246 147L246 142L251 142ZM251 162L251 167L246 167L246 162L251 162ZM251 167L251 172L246 172L246 167L251 167ZM251 177L251 182L246 182L246 177L251 177ZM251 187L251 192L246 192L246 187L251 187ZM251 192L251 197L246 197L246 192L251 192ZM251 207L251 212L246 212L246 207L251 207ZM251 212L251 217L246 217L246 212L251 212ZM251 222L251 227L246 227L246 222L251 222ZM251 242L251 247L246 247L246 242L251 242ZM246 127L246 132L241 132L241 127L246 127ZM246 137L246 142L241 142L241 137L246 137ZM246 152L246 157L241 157L241 152L246 152ZM246 157L246 162L241 162L241 157L246 157ZM246 162L246 167L241 167L241 162L246 162ZM246 167L246 172L241 172L241 167L246 167ZM246 177L246 182L241 182L241 177L246 177ZM246 197L246 202L241 202L241 197L246 197ZM246 202L246 207L241 207L241 202L246 202ZM246 217L246 222L241 222L241 217L246 217ZM246 222L246 227L241 227L241 222L246 222ZM246 227L246 232L241 232L241 227L246 227ZM246 232L246 237L241 237L241 232L246 232ZM246 242L246 247L241 247L241 242L246 242ZM246 247L246 252L241 252L241 247L246 247ZM241 127L241 132L236 132L236 127L241 127ZM241 132L241 137L236 137L236 132L241 132ZM241 137L241 142L236 142L236 137L241 137ZM241 142L241 147L236 147L236 142L241 142ZM241 152L241 157L236 157L236 152L241 152ZM241 167L241 172L236 172L236 167L241 167ZM241 187L241 192L236 192L236 187L241 187ZM241 202L241 207L236 207L236 202L241 202ZM241 207L241 212L236 212L236 207L241 207ZM241 222L241 227L236 227L236 222L241 222ZM241 227L241 232L236 232L236 227L241 227ZM241 247L241 252L236 252L236 247L241 247ZM236 132L236 137L231 137L231 132L236 132ZM236 142L236 147L231 147L231 142L236 142ZM236 152L236 157L231 157L231 152L236 152ZM236 157L236 162L231 162L231 157L236 157ZM236 167L236 172L231 172L231 167L236 167ZM236 172L236 177L231 177L231 172L236 172ZM236 177L236 182L231 182L231 177L236 177ZM236 187L236 192L231 192L231 187L236 187ZM236 192L236 197L231 197L231 192L236 192ZM236 197L236 202L231 202L231 197L236 197ZM236 212L236 217L231 217L231 212L236 212ZM236 217L236 222L231 222L231 217L236 217ZM236 227L236 232L231 232L231 227L236 227ZM236 237L236 242L231 242L231 237L236 237ZM236 242L236 247L231 247L231 242L236 242ZM236 247L236 252L231 252L231 247L236 247ZM231 127L231 132L226 132L226 127L231 127ZM231 137L231 142L226 142L226 137L231 137ZM231 147L231 152L226 152L226 147L231 147ZM231 207L231 212L226 212L226 207L231 207ZM231 222L231 227L226 227L226 222L231 222ZM231 232L231 237L226 237L226 232L231 232ZM231 242L231 247L226 247L226 242L231 242ZM226 127L226 132L221 132L221 127L226 127ZM226 152L226 157L221 157L221 152L226 152ZM226 157L226 162L221 162L221 157L226 157ZM226 177L226 182L221 182L221 177L226 177ZM226 182L226 187L221 187L221 182L226 182ZM226 187L226 192L221 192L221 187L226 187ZM226 197L226 202L221 202L221 197L226 197ZM226 202L226 207L221 207L221 202L226 202ZM226 207L226 212L221 212L221 207L226 207ZM226 217L226 222L221 222L221 217L226 217ZM226 222L226 227L221 227L221 222L226 222ZM226 227L226 232L221 232L221 227L226 227ZM226 232L226 237L221 237L221 232L226 232ZM226 242L226 247L221 247L221 242L226 242ZM226 247L226 252L221 252L221 247L226 247ZM221 127L221 132L216 132L216 127L221 127ZM221 142L221 147L216 147L216 142L221 142ZM221 147L221 152L216 152L216 147L221 147ZM221 172L221 177L216 177L216 172L221 172ZM221 182L221 187L216 187L216 182L221 182ZM221 197L221 202L216 202L216 197L221 197ZM221 202L221 207L216 207L216 202L221 202ZM221 222L221 227L216 227L216 222L221 222ZM221 227L221 232L216 232L216 227L221 227ZM221 247L221 252L216 252L216 247L221 247ZM216 127L216 132L211 132L211 127L216 127ZM216 137L216 142L211 142L211 137L216 137ZM216 142L216 147L211 147L211 142L216 142ZM216 152L216 157L211 157L211 152L216 152ZM216 157L216 162L211 162L211 157L216 157ZM216 182L216 187L211 187L211 182L216 182ZM216 187L216 192L211 192L211 187L216 187ZM216 192L216 197L211 197L211 192L216 192ZM216 202L216 207L211 207L211 202L216 202ZM216 207L216 212L211 212L211 207L216 207ZM216 212L216 217L211 217L211 212L216 212ZM216 217L216 222L211 222L211 217L216 217ZM216 222L216 227L211 227L211 222L216 222ZM216 227L216 232L211 232L211 227L216 227ZM216 237L216 242L211 242L211 237L216 237ZM211 167L211 172L206 172L206 167L211 167ZM211 187L211 192L206 192L206 187L211 187ZM211 192L211 197L206 197L206 192L211 192ZM211 202L211 207L206 207L206 202L211 202ZM211 207L211 212L206 212L206 207L211 207ZM211 227L211 232L206 232L206 227L211 227ZM211 232L211 237L206 237L206 232L211 232ZM206 127L206 132L201 132L201 127L206 127ZM206 132L206 137L201 137L201 132L206 132ZM206 137L206 142L201 142L201 137L206 137ZM206 142L206 147L201 147L201 142L206 142ZM206 147L206 152L201 152L201 147L206 147ZM206 152L206 157L201 157L201 152L206 152ZM206 157L206 162L201 162L201 157L206 157ZM206 167L206 172L201 172L201 167L206 167ZM206 172L206 177L201 177L201 172L206 172ZM206 187L206 192L201 192L201 187L206 187ZM206 192L206 197L201 197L201 192L206 192ZM206 197L206 202L201 202L201 197L206 197ZM206 207L206 212L201 212L201 207L206 207ZM206 217L206 222L201 222L201 217L206 217ZM206 227L206 232L201 232L201 227L206 227ZM206 237L206 242L201 242L201 237L206 237ZM206 242L206 247L201 247L201 242L206 242ZM206 247L206 252L201 252L201 247L206 247ZM201 127L201 132L196 132L196 127L201 127ZM201 157L201 162L196 162L196 157L201 157ZM201 207L201 212L196 212L196 207L201 207ZM201 227L201 232L196 232L196 227L201 227ZM201 232L201 237L196 237L196 232L201 232ZM201 242L201 247L196 247L196 242L201 242ZM201 247L201 252L196 252L196 247L201 247ZM196 127L196 132L191 132L191 127L196 127ZM196 137L196 142L191 142L191 137L196 137ZM196 142L196 147L191 147L191 142L196 142ZM196 147L196 152L191 152L191 147L196 147ZM196 157L196 162L191 162L191 157L196 157ZM196 167L196 172L191 172L191 167L196 167ZM196 172L196 177L191 177L191 172L196 172ZM196 177L196 182L191 182L191 177L196 177ZM196 192L196 197L191 197L191 192L196 192ZM196 197L196 202L191 202L191 197L196 197ZM196 202L196 207L191 207L191 202L196 202ZM196 207L196 212L191 212L191 207L196 207ZM196 212L196 217L191 217L191 212L196 212ZM196 217L196 222L191 222L191 217L196 217ZM196 222L196 227L191 227L191 222L196 222ZM196 227L196 232L191 232L191 227L196 227ZM196 237L196 242L191 242L191 237L196 237ZM191 127L191 132L186 132L186 127L191 127ZM191 137L191 142L186 142L186 137L191 137ZM191 142L191 147L186 147L186 142L191 142ZM191 147L191 152L186 152L186 147L191 147ZM191 157L191 162L186 162L186 157L191 157ZM191 167L191 172L186 172L186 167L191 167ZM191 177L191 182L186 182L186 177L191 177ZM191 182L191 187L186 187L186 182L191 182ZM191 202L191 207L186 207L186 202L191 202ZM191 212L191 217L186 217L186 212L191 212ZM191 217L191 222L186 222L186 217L191 217ZM191 227L191 232L186 232L186 227L191 227ZM191 232L191 237L186 237L186 232L191 232ZM191 237L191 242L186 242L186 237L191 237ZM191 242L191 247L186 247L186 242L191 242ZM191 247L191 252L186 252L186 247L191 247ZM186 127L186 132L181 132L181 127L186 127ZM186 137L186 142L181 142L181 137L186 137ZM186 142L186 147L181 147L181 142L186 142ZM186 147L186 152L181 152L181 147L186 147ZM186 157L186 162L181 162L181 157L186 157ZM186 167L186 172L181 172L181 167L186 167ZM186 177L186 182L181 182L181 177L186 177ZM186 187L186 192L181 192L181 187L186 187ZM186 232L186 237L181 237L181 232L186 232ZM186 237L186 242L181 242L181 237L186 237ZM186 247L186 252L181 252L181 247L186 247ZM181 127L181 132L176 132L176 127L181 127ZM181 157L181 162L176 162L176 157L181 157ZM181 167L181 172L176 172L176 167L181 167ZM181 172L181 177L176 177L176 172L181 172ZM181 177L181 182L176 182L176 177L181 177ZM181 182L181 187L176 187L176 182L181 182ZM181 187L181 192L176 192L176 187L181 187ZM181 197L181 202L176 202L176 197L181 197ZM181 207L181 212L176 212L176 207L181 207ZM181 222L181 227L176 227L176 222L181 222ZM181 227L181 232L176 232L176 227L181 227ZM181 232L181 237L176 237L176 232L181 232ZM181 247L181 252L176 252L176 247L181 247ZM176 127L176 132L171 132L171 127L176 127ZM176 132L176 137L171 137L171 132L176 132ZM176 137L176 142L171 142L171 137L176 137ZM176 142L176 147L171 147L171 142L176 142ZM176 147L176 152L171 152L171 147L176 147ZM176 152L176 157L171 157L171 152L176 152ZM176 157L176 162L171 162L171 157L176 157ZM176 167L176 172L171 172L171 167L176 167ZM176 177L176 182L171 182L171 177L176 177ZM176 192L176 197L171 197L171 192L176 192ZM176 197L176 202L171 202L171 197L176 197ZM176 212L176 217L171 217L171 212L176 212ZM176 217L176 222L171 222L171 217L176 217ZM176 222L176 227L171 227L171 222L176 222ZM176 227L176 232L171 232L171 227L176 227ZM176 232L176 237L171 237L171 232L176 232ZM176 237L176 242L171 242L171 237L176 237ZM176 242L176 247L171 247L171 242L176 242ZM176 247L176 252L171 252L171 247L176 247Z" fill="black"/>
</svg>
