  0
SECTION
  2
HEADER
  9
$ACADVER
  1
AC1006
  9
$EXTMIN
 10
0.000000
 20
0.000000
 30
0.000000
  9
$EXTMAX
 10
8331.000000
 20
3063.000000
 30
0.000000
  0
ENDSEC
  0
SECTION
  2
ENTITIES
  0
POLYLINE
  8
0
 66
1
 70
1
  0
VERTEX
  8
0
 10
297.000000
 20
2671.000000
 42
0.000000
  0
VERTEX
  8
0
 10
297.000000
 20
2610.000000
 42
0.000000
  0
VERTEX
  8
0
 10
357.500000
 20
2610.000000
 42
0.000000
  0
VERTEX
  8
0
 10
418.000000
 20
2610.000000
 42
0.000000
  0
VERTEX
  8
0
 10
418.000000
 20
2671.000000
 42
0.000000
  0
VERTEX
  8
0
 10
418.000000
 20
2732.000000
 42
0.000000
  0
VERTEX
  8
0
 10
357.500000
 20
2732.000000
 42
0.000000
  0
VERTEX
  8
0
 10
297.000000
 20
2732.000000
 42
0.000000
  0
SEQEND
  0
POLYLINE
  8
0
 66
1
 70
1
  0
VERTEX
  8
0
 10
401.000000
 20
2670.489377
 42
0.000000
  0
VERTEX
  8
0
 10
401.000000
 20
2626.978755
 42
0.000000
  0
VERTEX
  8
0
 10
357.750000
 20
2627.239377
 42
0.000000
  0
VERTEX
  8
0
 10
314.500000
 20
2627.500000
 42
0.000000
  0
VERTEX
  8
0
 10
314.239377
 20
2670.750000
 42
0.000000
  0
VERTEX
  8
0
 10
313.978755
 20
2714.000000
 42
0.000000
  0
VERTEX
  8
0
 10
357.489377
 20
2714.000000
 42
0.000000
  0
VERTEX
  8
0
 10
401.000000
 20
2714.000000
 42
0.000000
  0
SEQEND
  0
POLYLINE
  8
0
 66
1
 70
1
  0
VERTEX
  8
0
 10
436.000000
 20
2723.000000
 42
0.000000
  0
VERTEX
  8
0
 10
436.000000
 20
2714.000000
 42
0.000000
  0
VERTEX
  8
0
 10
470.500000
 20
2714.000000
 42
0.000000
  0
VERTEX
  8
0
 10
505.000000
 20
2714.000000
 42
0.000000
  0
VERTEX
  8
0
 10
505.000000
 20
2705.500000
 42
0.000000
  0
VERTEX
  8
0
 10
505.000000
 20
2697.000000
 42
0.000000
  0
VERTEX
  8
0
 10
496.500000
 20
2697.000000
 42
0.000000
  0
VERTEX
  8
0
 10
488.000000
 20
2697.000000
 42
0.000000
  0
VERTEX
  8
0
 10
488.000000
 20
2688.500000
 42
0.000000
  0
VERTEX
  8
0
 10
488.000000
 20
2680.000000
 42
0.000000
  0
VERTEX
  8
0
 10
496.500000
 20
2680.000000
 42
0.000000
  0
VERTEX
  8
0
 10
505.000000
 20
2680.000000
 42
0.000000
  0
VERTEX
  8
0
 10
505.000000
 20
2671.000000
 42
0.000000
  0
VERTEX
  8
0
 10
505.000000
 20
2662.000000
 42
0.000000
  0
VERTEX
  8
0
 10
496.500000
 20
2662.000000
 42
0.000000
  0
VERTEX
  8
0
 10
488.000000
 20
2662.000000
 42
0.000000
  0
VERTEX
  8
0
 10
488.000000
 20
2653.500000
 42
0.000000
  0
VERTEX
  8
0
 10
488.000000
 20
2645.000000
 42
0.000000
  0
VERTEX
  8
0
 10
479.523614
 20
2645.000000
 42
0.000000
  0
VERTEX
  8
0
 10
471.047228
 20
2645.000000
 42
0.000000
  0
VERTEX
  8
0
 10
470.773614
 20
2662.250000
 42
0.000000
  0
VERTEX
  8
0
 10
470.500000
 20
2679.500000
 42
0.000000
  0
VERTEX
  8
0
 10
461.750000
 20
2679.788933
 42
0.000000
  0
VERTEX
  8
0
 10
453.000000
 20
2680.077866
 42
0.000000
  0
VERTEX
  8
0
 10
453.000000
 20
2688.538933
 42
0.000000
  0
VERTEX
  8
0
 10
453.000000
 20
2697.000000
 42
0.000000
  0
VERTEX
  8
0
 10
444.500000
 20
2697.000000
 42
0.000000
  0
VERTEX
  8
0
 10
436.000000
 20
2697.000000
 42
0.000000
  0
VERTEX
  8
0
 10
436.000000
 20
2679.500000
 42
0.000000
  0
VERTEX
  8
0
 10
436.000000
 20
2662.000000
 42
0.000000
  0
VERTEX
  8
0
 10
444.500000
 20
2662.000000
 42
0.000000
  0
VERTEX
  8
0
 10
453.000000
 20
2662.000000
 42
0.000000
  0
VERTEX
  8
0
 10
453.000000
 20
2653.500000
 42
0.000000
  0
VERTEX
  8
0
 10
453.000000
 20
2645.000000
 42
0.000000
  0
VERTEX
  8
0
 10
444.500000
 20
2645.000000
 42
0.000000
  0
VERTEX
  8
0
 10
436.000000
 20
2645.000000
 42
0.000000
  0
VERTEX
  8
0
 10
436.000000
 20
2627.500000
 42
0.000000
  0
VERTEX
  8
0
 10
436.000000
 20
2610.000000
 42
0.000000
  0
VERTEX
  8
0
 10
444.500000
 20
2610.000000
 42
0.000000
  0
VERTEX
  8
0
 10
453.000000
 20
2610.000000
 42
0.000000
  0
VERTEX
  8
0
 10
453.000000
 20
2627.500000
 42
0.000000
  0
VERTEX
  8
0
 10
453.000000
 20
2645.000000
 42
0.000000
  0
VERTEX
  8
0
 10
462.000000
 20
2645.000000
 42
0.000000
  0
VERTEX
  8
0
 10
471.000000
 20
2645.000000
 42
0.000000
  0
VERTEX
  8
0
 10
471.000000
 20
2627.500000
 42
0.000000
  0
VERTEX
  8
0
 10
471.000000
 20
2610.000000
 42
0.000000
  0
VERTEX
  8
0
 10
479.500000
 20
2610.000000
 42
0.000000
  0
VERTEX
  8
0
 10
488.000000
 20
2610.000000
 42
0.000000
  0
VERTEX
  8
0
 10
488.000000
 20
2627.500000
 42
0.000000
  0
VERTEX
  8
0
 10
488.000000
 20
2645.000000
 42
0.000000
  0
VERTEX
  8
0
 10
496.500000
 20
2645.000000
 42
0.000000
  0
VERTEX
  8
0
 10
505.000000
 20
2645.000000
 42
0.000000
  0
VERTEX
  8
0
 10
505.000000
 20
2627.500000
 42
0.000000
  0
VERTEX
  8
0
 10
505.000000
 20
2610.000000
 42
0.000000
  0
VERTEX
  8
0
 10
514.000000
 20
2610.000000
 42
0.000000
  0
VERTEX
  8
0
 10
523.000000
 20
2610.000000
 42
0.000000
  0
VERTEX
  8
0
 10
523.000000
 20
2618.500000
 42
0.000000
  0
VERTEX
  8
0
 10
523.000000
 20
2627.000000
 42
0.000000
  0
VERTEX
  8
0
 10
531.500000
 20
2627.000000
 42
0.000000
  0
VERTEX
  8
0
 10
540.000000
 20
2627.000000
 42
0.000000
  0
VERTEX
  8
0
 10
540.000000
 20
2610.023614
 42
0.000000
  0
VERTEX
  8
0
 10
540.000000
 20
2593.047228
 42
0.000000
  0
VERTEX
  8
0
 10
522.750000
 20
2592.773614
 42
0.000000
  0
VERTEX
  8
0
 10
505.500000
 20
2592.500000
 42
0.000000
  0
VERTEX
  8
0
 10
505.233118
 20
2566.750000
 42
0.000000
  0
VERTEX
  8
0
 10
504.966235
 20
2541.000000
 42
0.000000
  0
VERTEX
  8
0
 10
513.983118
 20
2541.000000
 42
0.000000
  0
VERTEX
  8
0
 10
523.000000
 20
2541.000000
 42
0.000000
  0
VERTEX
  8
0
 10
523.000000
 20
2558.000000
 42
0.000000
  0
VERTEX
  8
0
 10
523.000000
 20
2575.000000
 42
0.000000
  0
VERTEX
  8
0
 10
549.000000
 20
2575.000000
 42
0.000000
  0
VERTEX
  8
0
 10
575.000000
 20
2575.000000
 42
0.000000
  0
VERTEX
  8
0
 10
575.000000
 20
2566.500000
 42
0.000000
  0
VERTEX
  8
0
 10
575.000000
 20
2558.000000
 42
0.000000
  0
VERTEX
  8
0
 10
557.500000
 20
2558.000000
 42
0.000000
  0
VERTEX
  8
0
 10
540.000000
 20
2558.000000
 42
0.000000
  0
VERTEX
  8
0
 10
540.000000
 20
2549.500000
 42
0.000000
  0
VERTEX
  8
0
 10
540.000000
 20
2541.000000
 42
0.000000
  0
VERTEX
  8
0
 10
557.500000
 20
2541.000000
 42
0.000000
  0
VERTEX
  8
0
 10
575.000000
 20
2541.000000
 42
0.000000
  0
VERTEX
  8
0
 10
575.000000
 20
2532.000000
 42
0.000000
  0
VERTEX
  8
0
 10
575.000000
 20
2523.000000
 42
0.000000
  0
VERTEX
  8
0
 10
566.000000
 20
2523.000000
 42
0.000000
  0
VERTEX
  8
0
 10
557.000000
 20
2523.000000
 42
0.000000
  0
VERTEX
  8
0
 10
557.000000
 20
2505.500000
 42
0.000000
  0
VERTEX
  8
0
 10
557.000000
 20
2488.000000
 42
0.000000
  0
VERTEX
  8
0
 10
548.500000
 20
2488.000000
 42
0.000000
  0
VERTEX
  8
0
 10
540.000000
 20
2488.000000
 42
0.000000
  0
VERTEX
  8
0
 10
540.000000
 20
2479.500000
 42
0.000000
  0
VERTEX
  8
0
 10
540.000000
 20
2471.000000
 42
0.000000
  0
VERTEX
  8
0
 10
531.500000
 20
2471.000000
 42
0.000000
  0
VERTEX
  8
0
 10
523.000000
 20
2471.000000
 42
0.000000
  0
VERTEX
  8
0
 10
523.000000
 20
2488.500000
 42
0.000000
  0
VERTEX
  8
0
 10
523.000000
 20
2506.000000
 42
0.000000
  0
VERTEX
  8
0
 10
531.500000
 20
2506.000000
 42
0.000000
  0
VERTEX
  8
0
 10
540.000000
 20
2506.000000
 42
0.000000
  0
VERTEX
  8
0
 10
540.000000
 20
2514.500000
 42
0.000000
  0
VERTEX
  8
0
 10
540.000000
 20
2523.000000
 42
0.000000
  0
VERTEX
  8
0
 10
522.500000
 20
2523.000000
 42
0.000000
  0
VERTEX
  8
0
 10
505.000000
 20
2523.000000
 42
0.000000
  0
VERTEX
  8
0
 10
505.000000
 20
2497.000000
 42
0.000000
  0
VERTEX
  8
0
 10
505.000000
 20
2471.000000
 42
0.000000
  0
VERTEX
  8
0
 10
514.000000
 20
2471.000000
 42
0.000000
  0
VERTEX
  8
0
 10
523.000000
 20
2471.000000
 42
0.000000
  0
VERTEX
  8
0
 10
523.000000
 20
2453.500000
 42
0.000000
  0
VERTEX
  8
0
 10
523.000000
 20
2436.000000
 42
0.000000
  0
VERTEX
  8
0
 10
514.000000
 20
2436.000000
 42
0.000000
  0
VERTEX
  8
0
 10
505.000000
 20
2436.000000
 42
0.000000
  0
VERTEX
  8
0
 10
505.000000
 20
2445.000000
 42
0.000000
  0
VERTEX
  8
0
 10
505.000000
 20
2454.000000
 42
0.000000
  0
VERTEX
  8
0
 10
496.500000
 20
2454.000000
 42
0.000000
  0
VERTEX
  8
0
 10
488.000000
 20
2454.000000
 42
0.000000
  0
VERTEX
  8
0
 10
488.000000
 20
2471.000000
 42
0.000000
  0
VERTEX
  8
0
 10
488.000000
 20
2488.000000
 42
0.000000
  0
VERTEX
  8
0
 10
470.500000
 20
2488.000000
 42
0.000000
  0
VERTEX
  8
0
 10
453.000000
 20
2488.000000
 42
0.000000
  0
VERTEX
  8
0
 10
453.000000
 20
2505.500000
 42
0.000000
  0
VERTEX
  8
0
 10
453.000000
 20
2523.000000
 42
0.000000
  0
VERTEX
  8
0
 10
462.000000
 20
2523.000000
 42
0.000000
  0
VERTEX
  8
0
 10
471.000000
 20
2523.000000
 42
0.000000
  0
VERTEX
  8
0
 10
471.000000
 20
2514.500000
 42
0.000000
  0
VERTEX
  8
0
 10
471.000000
 20
2506.000000
 42
0.000000
  0
VERTEX
  8
0
 10
479.500000
 20
2506.000000
 42
0.000000
  0
VERTEX
  8
0
 10
488.000000
 20
2506.000000
 42
0.000000
  0
VERTEX
  8
0
 10
488.000000
 20
2532.000000
 42
0.000000
  0
VERTEX
  8
0
 10
488.000000
 20
2558.000000
 42
0.000000
  0
VERTEX
  8
0
 10
479.500000
 20
2558.000000
 42
0.000000
  0
VERTEX
  8
0
 10
471.000000
 20
2558.000000
 42
0.000000
  0
VERTEX
  8
0
 10
471.000000
 20
2566.500000
 42
0.000000
  0
VERTEX
  8
0
 10
471.000000
 20
2575.000000
 42
0.000000
  0
VERTEX
  8
0
 10
462.000000
 20
2575.000000
 42
0.000000
  0
VERTEX
  8
0
 10
453.000000
 20
2575.000000
 42
0.000000
  0
VERTEX
  8
0
 10
453.000000
 20
2566.500000
 42
0.000000
  0
VERTEX
  8
0
 10
453.000000
 20
2558.000000
 42
0.000000
  0
VERTEX
  8
0
 10
462.000000
 20
2558.000000
 42
0.000000
  0
VERTEX
  8
0
 10
471.000000
 20
2558.000000
 42
0.000000
  0
VERTEX
  8
0
 10
471.000000
 20
2549.500000
 42
0.000000
  0
VERTEX
  8
0
 10
471.000000
 20
2541.000000
 42
0.000000
  0
VERTEX
  8
0
 10
453.500000
 20
2541.000000
 42
0.000000
  0
VERTEX
  8
0
 10
436.000000
 20
2541.000000
 42
0.000000
  0
VERTEX
  8
0
 10
436.000000
 20
2532.000000
 42
0.000000
  0
VERTEX
  8
0
 10
436.000000
 20
2523.000000
 42
0.000000
  0
VERTEX
  8
0
 10
418.500000
 20
2523.000000
 42
0.000000
  0
VERTEX
  8
0
 10
401.000000
 20
2523.000000
 42
0.000000
  0
VERTEX
  8
0
 10
401.000000
 20
2497.000000
 42
0.000000
  0
VERTEX
  8
0
 10
401.000000
 20
2471.000000
 42
0.000000
  0
VERTEX
  8
0
 10
409.500000
 20
2471.000000
 42
0.000000
  0
VERTEX
  8
0
 10
418.000000
 20
2471.000000
 42
0.000000
  0
VERTEX
  8
0
 10
418.000000
 20
2462.500000
 42
0.000000
  0
VERTEX
  8
0
 10
418.000000
 20
2454.000000
 42
0.000000
  0
VERTEX
  8
0
 10
401.000000
 20
2454.000000
 42
0.000000
  0
VERTEX
  8
0
 10
384.000000
 20
2454.000000
 42
0.000000
  0
VERTEX
  8
0
 10
384.000000
 20
2480.038933
 42
0.000000
  0
VERTEX
  8
0
 10
384.000000
 20
2506.077866
 42
0.000000
  0
VERTEX
  8
0
 10
375.250000
 20
2505.788933
 42
0.000000
  0
VERTEX
  8
0
 10
366.500000
 20
2505.500000
 42
0.000000
  0
VERTEX
  8
0
 10
366.226386
 20
2488.250000
 42
0.000000
  0
VERTEX
  8
0
 10
365.952772
 20
2471.000000
 42
0.000000
  0
VERTEX
  8
0
 10
357.476386
 20
2471.000000
 42
0.000000
  0
VERTEX
  8
0
 10
349.000000
 20
2471.000000
 42
0.000000
  0
VERTEX
  8
0
 10
349.000000
 20
2462.500000
 42
0.000000
  0
VERTEX
  8
0
 10
349.000000
 20
2454.000000
 42
0.000000
  0
VERTEX
  8
0
 10
357.500000
 20
2454.000000
 42
0.000000
  0
VERTEX
  8
0
 10
366.000000
 20
2454.000000
 42
0.000000
  0
VERTEX
  8
0
 10
366.000000
 20
2445.000000
 42
0.000000
  0
VERTEX
  8
0
 10
366.000000
 20
2436.000000
 42
0.000000
  0
VERTEX
  8
0
 10
357.500000
 20
2436.000000
 42
0.000000
  0
VERTEX
  8
0
 10
349.000000
 20
2436.000000
 42
0.000000
  0
VERTEX
  8
0
 10
349.000000
 20
2419.000000
 42
0.000000
  0
VERTEX
  8
0
 10
349.000000
 20
2402.000000
 42
0.000000
  0
VERTEX
  8
0
 10
357.500000
 20
2402.000000
 42
0.000000
  0
VERTEX
  8
0
 10
366.000000
 20
2402.000000
 42
0.000000
  0
VERTEX
  8
0
 10
366.000000
 20
2393.000000
 42
0.000000
  0
VERTEX
  8
0
 10
366.000000
 20
2384.000000
 42
0.000000
  0
VERTEX
  8
0
 10
357.500000
 20
2384.000000
 42
0.000000
  0
VERTEX
  8
0
 10
349.000000
 20
2384.000000
 42
0.000000
  0
VERTEX
  8
0
 10
349.000000
 20
2375.500000
 42
0.000000
  0
VERTEX
  8
0
 10
349.000000
 20
2367.000000
 42
0.000000
  0
VERTEX
  8
0
 10
340.523614
 20
2367.000000
 42
0.000000
  0
VERTEX
  8
0
 10
332.047228
 20
2367.000000
 42
0.000000
  0
VERTEX
  8
0
 10
331.773614
 20
2384.250000
 42
0.000000
  0
VERTEX
  8
0
 10
331.500000
 20
2401.500000
 42
0.000000
  0
VERTEX
  8
0
 10
322.750000
 20
2401.788933
 42
0.000000
  0
VERTEX
  8
0
 10
314.000000
 20
2402.077866
 42
0.000000
  0
VERTEX
  8
0
 10
314.000000
 20
2419.000000
 42
0.000000
  0
VERTEX
  8
0
 10
314.000000
 20
2435.922134
 42
0.000000
  0
VERTEX
  8
0
 10
322.750000
 20
2436.211067
 42
0.000000
  0
VERTEX
  8
0
 10
331.500000
 20
2436.500000
 42
0.000000
  0
VERTEX
  8
0
 10
331.500000
 20
2445.000000
 42
0.000000
  0
VERTEX
  8
0
 10
331.500000
 20
2453.500000
 42
0.000000
  0
VERTEX
  8
0
 10
323.000000
 20
2453.500000
 42
0.000000
  0
VERTEX
  8
0
 10
314.500000
 20
2453.500000
 42
0.000000
  0
VERTEX
  8
0
 10
314.211067
 20
2444.750000
 42
0.000000
  0
VERTEX
  8
0
 10
313.922134
 20
2436.000000
 42
0.000000
  0
VERTEX
  8
0
 10
305.461067
 20
2436.000000
 42
0.000000
  0
VERTEX
  8
0
 10
297.000000
 20
2436.000000
 42
0.000000
  0
VERTEX
  8
0
 10
297.000000
 20
2366.500000
 42
0.000000
  0
VERTEX
  8
0
 10
297.000000
 20
2297.000000
 42
0.000000
  0
VERTEX
  8
0
 10
331.500000
 20
2297.000000
 42
0.000000
  0
VERTEX
  8
0
 10
366.000000
 20
2297.000000
 42
0.000000
  0
VERTEX
  8
0
 10
366.000000
 20
2314.500000
 42
0.000000
  0
VERTEX
  8
0
 10
366.000000
 20
2332.000000
 42
0.000000
  0
VERTEX
  8
0
 10
375.000000
 20
2332.000000
 42
0.000000
  0
VERTEX
  8
0
 10
384.000000
 20
2332.000000
 42
0.000000
  0
VERTEX
  8
0
 10
384.000000
 20
2314.500000
 42
0.000000
  0
VERTEX
  8
0
 10
384.000000
 20
2297.000000
 42
0.000000
  0
VERTEX
  8
0
 10
401.000000
 20
2297.000000
 42
0.000000
  0
VERTEX
  8
0
 10
418.000000
 20
2297.000000
 42
0.000000
  0
VERTEX
  8
0
 10
418.000000
 20
2323.000000
 42
0.000000
  0
VERTEX
  8
0
 10
418.000000
 20
2349.000000
 42
0.000000
  0
VERTEX
  8
0
 10
427.000000
 20
2349.000000
 42
0.000000
  0
VERTEX
  8
0
 10
436.000000
 20
2349.000000
 42
0.000000
  0
VERTEX
  8
0
 10
436.000000
 20
2340.500000
 42
0.000000
  0
VERTEX
  8
0
 10
436.000000
 20
2332.000000
 42
0.000000
  0
VERTEX
  8
0
 10
444.500000
 20
2332.000000
 42
0.000000
  0
VERTEX
  8
0
 10
453.000000
 20
2332.000000
 42
0.000000
  0
VERTEX
  8
0
 10
453.000000
 20
2340.500000
 42
0.000000
  0
VERTEX
  8
0
 10
453.000000
 20
2349.000000
 42
0.000000
  0
VERTEX
  8
0
 10
444.500000
 20
2349.000000
 42
0.000000
  0
VERTEX
  8
0
 10
436.000000
 20
2349.000000
 42
0.000000
  0
VERTEX
  8
0
 10
436.000000
 20
2358.023614
 42
0.000000
  0
VERTEX
  8
0
 10
436.000000
 20
2367.047228
 42
0.000000
  0
VERTEX
  8
0
 10
453.250000
 20
2366.773614
 42
0.000000
  0
VERTEX
  8
0
 10
470.500000
 20
2366.500000
 42
0.000000
  0
VERTEX
  8
0
 10
470.788933
 20
2357.750000
 42
0.000000
  0
VERTEX
  8
0
 10
471.077866
 20
2349.000000
 42
0.000000
  0
VERTEX
  8
0
 10
488.038933
 20
2349.000000
 42
0.000000
  0
VERTEX
  8
0
 10
505.000000
 20
2349.000000
 42
0.000000
  0
VERTEX
  8
0
 10
505.000000
 20
2340.500000
 42
0.000000
  0
VERTEX
  8
0
 10
505.000000
 20
2332.000000
 42
0.000000
  0
VERTEX
  8
0
 10
488.000000
 20
2332.000000
 42
0.000000
  0
VERTEX
  8
0
 10
471.000000
 20
2332.000000
 42
0.000000
  0
VERTEX
  8
0
 10
471.000000
 20
2323.538933
 42
0.000000
  0
VERTEX
  8
0
 10
471.000000
 20
2315.077866
 42
0.000000
  0
VERTEX
  8
0
 10
462.250000
 20
2314.788933
 42
0.000000
  0
VERTEX
  8
0
 10
453.500000
 20
2314.500000
 42
0.000000
  0
VERTEX
  8
0
 10
453.211067
 20
2305.750000
 42
0.000000
  0
VERTEX
  8
0
 10
452.922134
 20
2297.000000
 42
0.000000
  0
VERTEX
  8
0
 10
470.461067
 20
2297.000000
 42
0.000000
  0
VERTEX
  8
0
 10
488.000000
 20
2297.000000
 42
0.000000
  0
VERTEX
  8
0
 10
488.000000
 20
2306.000000
 42
0.000000
  0
VERTEX
  8
0
 10
488.000000
 20
2315.000000
 42
0.000000
  0
VERTEX
  8
0
 10
496.461067
 20
2315.000000
 42
0.000000
  0
VERTEX
  8
0
 10
504.922134
 20
2315.000000
 42
0.000000
  0
VERTEX
  8
0
 10
505.211067
 20
2306.250000
 42
0.000000
  0
VERTEX
  8
0
 10
505.500000
 20
2297.500000
 42
0.000000
  0
VERTEX
  8
0
 10
531.210822
 20
2297.233197
 42
0.000000
  0
VERTEX
  8
0
 10
556.921644
 20
2296.966394
 42
0.000000
  0
VERTEX
  8
0
 10
557.210822
 20
2305.733197
 42
0.000000
  0
VERTEX
  8
0
 10
557.500000
 20
2314.500000
 42
0.000000
  0
VERTEX
  8
0
 10
574.750000
 20
2314.773614
 42
0.000000
  0
VERTEX
  8
0
 10
592.000000
 20
2315.047228
 42
0.000000
  0
VERTEX
  8
0
 10
592.000000
 20
2323.523614
 42
0.000000
  0
VERTEX
  8
0
 10
592.000000
 20
2332.000000
 42
0.000000
  0
VERTEX
  8
0
 10
566.000000
 20
2332.000000
 42
0.000000
  0
VERTEX
  8
0
 10
540.000000
 20
2332.000000
 42
0.000000
  0
VERTEX
  8
0
 10
540.000000
 20
2323.500000
 42
0.000000
  0
VERTEX
  8
0
 10
540.000000
 20
2315.000000
 42
0.000000
  0
VERTEX
  8
0
 10
531.500000
 20
2315.000000
 42
0.000000
  0
VERTEX
  8
0
 10
523.000000
 20
2315.000000
 42
0.000000
  0
VERTEX
  8
0
 10
523.000000
 20
2332.000000
 42
0.000000
  0
VERTEX
  8
0
 10
523.000000
 20
2349.000000
 42
0.000000
  0
VERTEX
  8
0
 10
514.000000
 20
2349.000000
 42
0.000000
  0
VERTEX
  8
0
 10
505.000000
 20
2349.000000
 42
0.000000
  0
VERTEX
  8
0
 10
505.000000
 20
2358.000000
 42
0.000000
  0
VERTEX
  8
0
 10
505.000000
 20
2367.000000
 42
0.000000
  0
VERTEX
  8
0
 10
522.500000
 20
2367.000000
 42
0.000000
  0
VERTEX
  8
0
 10
540.000000
 20
2367.000000
 42
0.000000
  0
VERTEX
  8
0
 10
540.000000
 20
2358.000000
 42
0.000000
  0
VERTEX
  8
0
 10
540.000000
 20
2349.000000
 42
0.000000
  0
VERTEX
  8
0
 10
548.500000
 20
2349.000000
 42
0.000000
  0
VERTEX
  8
0
 10
557.000000
 20
2349.000000
 42
0.000000
  0
VERTEX
  8
0
 10
557.000000
 20
2366.500000
 42
0.000000
  0
VERTEX
  8
0
 10
557.000000
 20
2384.000000
 42
0.000000
  0
VERTEX
  8
0
 10
574.500000
 20
2384.000000
 42
0.000000
  0
VERTEX
  8
0
 10
592.000000
 20
2384.000000
 42
0.000000
  0
VERTEX
  8
0
 10
592.000000
 20
2393.000000
 42
0.000000
  0
VERTEX
  8
0
 10
592.000000
 20
2402.000000
 42
0.000000
  0
VERTEX
  8
0
 10
574.500000
 20
2402.000000
 42
0.000000
  0
VERTEX
  8
0
 10
557.000000
 20
2402.000000
 42
0.000000
  0
VERTEX
  8
0
 10
557.000000
 20
2410.500000
 42
0.000000
  0
VERTEX
  8
0
 10
557.000000
 20
2419.000000
 42
0.000000
  0
VERTEX
  8
0
 10
574.500000
 20
2419.000000
 42
0.000000
  0
VERTEX
  8
0
 10
592.000000
 20
2419.000000
 42
0.000000
  0
VERTEX
  8
0
 10
592.000000
 20
2427.500000
 42
0.000000
  0
VERTEX
  8
0
 10
592.000000
 20
2436.000000
 42
0.000000
  0
VERTEX
  8
0
 10
609.500000
 20
2436.000000
 42
0.000000
  0
VERTEX
  8
0
 10
627.000000
 20
2436.000000
 42
0.000000
  0
VERTEX
  8
0
 10
627.000000
 20
2445.000000
 42
0.000000
  0
VERTEX
  8
0
 10
627.000000
 20
2454.000000
 42
0.000000
  0
VERTEX
  8
0
 10
635.461067
 20
2454.000000
 42
0.000000
  0
VERTEX
  8
0
 10
643.922134
 20
2454.000000
 42
0.000000
  0
VERTEX
  8
0
 10
644.211067
 20
2445.250000
 42
0.000000
  0
VERTEX
  8
0
 10
644.500000
 20
2436.500000
 42
0.000000
  0
VERTEX
  8
0
 10
653.250000
 20
2436.211067
 42
0.000000
  0
VERTEX
  8
0
 10
662.000000
 20
2435.922134
 42
0.000000
  0
VERTEX
  8
0
 10
662.000000
 20
2444.961067
 42
0.000000
  0
VERTEX
  8
0
 10
662.000000
 20
2454.000000
 42
0.000000
  0
VERTEX
  8
0
 10
670.500000
 20
2454.000000
 42
0.000000
  0
VERTEX
  8
0
 10
679.000000
 20
2454.000000
 42
0.000000
  0
VERTEX
  8
0
 10
679.000000
 20
2445.000000
 42
0.000000
  0
VERTEX
  8
0
 10
679.000000
 20
2436.000000
 42
0.000000
  0
VERTEX
  8
0
 10
705.000000
 20
2436.000000
 42
0.000000
  0
VERTEX
  8
0
 10
731.000000
 20
2436.000000
 42
0.000000
  0
VERTEX
  8
0
 10
731.000000
 20
2445.000000
 42
0.000000
  0
VERTEX
  8
0
 10
731.000000
 20
2454.000000
 42
0.000000
  0
VERTEX
  8
0
 10
722.500000
 20
2454.000000
 42
0.000000
  0
VERTEX
  8
0
 10
714.000000
 20
2454.000000
 42
0.000000
  0
VERTEX
  8
0
 10
714.000000
 20
2471.000000
 42
0.000000
  0
VERTEX
  8
0
 10
714.000000
 20
2488.000000
 42
0.000000
  0
VERTEX
  8
0
 10
722.500000
 20
2488.000000
 42
0.000000
  0
VERTEX
  8
0
 10
731.000000
 20
2488.000000
 42
0.000000
  0
VERTEX
  8
0
 10
731.000000
 20
2505.500000
 42
0.000000
  0
VERTEX
  8
0
 10
731.000000
 20
2523.000000
 42
0.000000
  0
VERTEX
  8
0
 10
722.500000
 20
2523.000000
 42
0.000000
  0
VERTEX
  8
0
 10
714.000000
 20
2523.000000
 42
0.000000
  0
VERTEX
  8
0
 10
714.000000
 20
2505.500000
 42
0.000000
  0
VERTEX
  8
0
 10
714.000000
 20
2488.000000
 42
0.000000
  0
VERTEX
  8
0
 10
696.500000
 20
2488.000000
 42
0.000000
  0
VERTEX
  8
0
 10
679.000000
 20
2488.000000
 42
0.000000
  0
VERTEX
  8
0
 10
679.000000
 20
2497.000000
 42
0.000000
  0
VERTEX
  8
0
 10
679.000000
 20
2506.000000
 42
0.000000
  0
VERTEX
  8
0
 10
687.500000
 20
2506.000000
 42
0.000000
  0
VERTEX
  8
0
 10
696.000000
 20
2506.000000
 42
0.000000
  0
VERTEX
  8
0
 10
696.000000
 20
2514.500000
 42
0.000000
  0
VERTEX
  8
0
 10
696.000000
 20
2523.000000
 42
0.000000
  0
VERTEX
  8
0
 10
679.023614
 20
2523.000000
 42
0.000000
  0
VERTEX
  8
0
 10
662.047228
 20
2523.000000
 42
0.000000
  0
VERTEX
  8
0
 10
661.773614
 20
2505.750000
 42
0.000000
  0
VERTEX
  8
0
 10
661.500000
 20
2488.500000
 42
0.000000
  0
VERTEX
  8
0
 10
652.750000
 20
2488.211067
 42
0.000000
  0
VERTEX
  8
0
 10
644.000000
 20
2487.922134
 42
0.000000
  0
VERTEX
  8
0
 10
644.000000
 20
2479.461067
 42
0.000000
  0
VERTEX
  8
0
 10
644.000000
 20
2471.000000
 42
0.000000
  0
VERTEX
  8
0
 10
635.500000
 20
2471.000000
 42
0.000000
  0
VERTEX
  8
0
 10
627.000000
 20
2471.000000
 42
0.000000
  0
VERTEX
  8
0
 10
627.000000
 20
2479.500000
 42
0.000000
  0
VERTEX
  8
0
 10
627.000000
 20
2488.000000
 42
0.000000
  0
VERTEX
  8
0
 10
618.500000
 20
2488.000000
 42
0.000000
  0
VERTEX
  8
0
 10
610.000000
 20
2488.000000
 42
0.000000
  0
VERTEX
  8
0
 10
610.000000
 20
2479.500000
 42
0.000000
  0
VERTEX
  8
0
 10
610.000000
 20
2471.000000
 42
0.000000
  0
VERTEX
  8
0
 10
601.000000
 20
2471.000000
 42
0.000000
  0
VERTEX
  8
0
 10
592.000000
 20
2471.000000
 42
0.000000
  0
VERTEX
  8
0
 10
592.000000
 20
2488.500000
 42
0.000000
  0
VERTEX
  8
0
 10
592.000000
 20
2506.000000
 42
0.000000
  0
VERTEX
  8
0
 10
583.500000
 20
2506.000000
 42
0.000000
  0
VERTEX
  8
0
 10
575.000000
 20
2506.000000
 42
0.000000
  0
VERTEX
  8
0
 10
575.000000
 20
2514.500000
 42
0.000000
  0
VERTEX
  8
0
 10
575.000000
 20
2523.000000
 42
0.000000
  0
VERTEX
  8
0
 10
592.500000
 20
2523.000000
 42
0.000000
  0
VERTEX
  8
0
 10
610.000000
 20
2523.000000
 42
0.000000
  0
VERTEX
  8
0
 10
610.000000
 20
2514.500000
 42
0.000000
  0
VERTEX
  8
0
 10
610.000000
 20
2506.000000
 42
0.000000
  0
VERTEX
  8
0
 10
627.000000
 20
2506.000000
 42
0.000000
  0
VERTEX
  8
0
 10
644.000000
 20
2506.000000
 42
0.000000
  0
VERTEX
  8
0
 10
644.000000
 20
2523.500000
 42
0.000000
  0
VERTEX
  8
0
 10
644.000000
 20
2541.000000
 42
0.000000
  0
VERTEX
  8
0
 10
635.500000
 20
2541.000000
 42
0.000000
  0
VERTEX
  8
0
 10
627.000000
 20
2541.000000
 42
0.000000
  0
VERTEX
  8
0
 10
627.000000
 20
2549.500000
 42
0.000000
  0
VERTEX
  8
0
 10
627.000000
 20
2558.000000
 42
0.000000
  0
VERTEX
  8
0
 10
644.500000
 20
2558.000000
 42
0.000000
  0
VERTEX
  8
0
 10
662.000000
 20
2558.000000
 42
0.000000
  0
VERTEX
  8
0
 10
662.000000
 20
2549.500000
 42
0.000000
  0
VERTEX
  8
0
 10
662.000000
 20
2541.000000
 42
0.000000
  0
VERTEX
  8
0
 10
670.500000
 20
2541.000000
 42
0.000000
  0
VERTEX
  8
0
 10
679.000000
 20
2541.000000
 42
0.000000
  0
VERTEX
  8
0
 10
679.000000
 20
2567.000000
 42
0.000000
  0
VERTEX
  8
0
 10
679.000000
 20
2593.000000
 42
0.000000
  0
VERTEX
  8
0
 10
670.500000
 20
2593.000000
 42
0.000000
  0
VERTEX
  8
0
 10
662.000000
 20
2593.000000
 42
0.000000
  0
VERTEX
  8
0
 10
662.000000
 20
2583.961067
 42
0.000000
  0
VERTEX
  8
0
 10
662.000000
 20
2574.922134
 42
0.000000
  0
VERTEX
  8
0
 10
653.250000
 20
2575.211067
 42
0.000000
  0
VERTEX
  8
0
 10
644.500000
 20
2575.500000
 42
0.000000
  0
VERTEX
  8
0
 10
644.211067
 20
2584.250000
 42
0.000000
  0
VERTEX
  8
0
 10
643.922134
 20
2593.000000
 42
0.000000
  0
VERTEX
  8
0
 10
626.961067
 20
2593.000000
 42
0.000000
  0
VERTEX
  8
0
 10
610.000000
 20
2593.000000
 42
0.000000
  0
VERTEX
  8
0
 10
610.000000
 20
2584.000000
 42
0.000000
  0
VERTEX
  8
0
 10
610.000000
 20
2575.000000
 42
0.000000
  0
VERTEX
  8
0
 10
601.000000
 20
2575.000000
 42
0.000000
  0
VERTEX
  8
0
 10
592.000000
 20
2575.000000
 42
0.000000
  0
VERTEX
  8
0
 10
592.000000
 20
2601.000000
 42
0.000000
  0
VERTEX
  8
0
 10
592.000000
 20
2627.000000
 42
0.000000
  0
VERTEX
  8
0
 10
583.500000
 20
2627.000000
 42
0.000000
  0
VERTEX
  8
0
 10
575.000000
 20
2627.000000
 42
0.000000
  0
VERTEX
  8
0
 10
575.000000
 20
2618.461067
 42
0.000000
  0
VERTEX
  8
0
 10
575.000000
 20
2609.922134
 42
0.000000
  0
VERTEX
  8
0
 10
566.250000
 20
2610.211067
 42
0.000000
  0
VERTEX
  8
0
 10
557.500000
 20
2610.500000
 42
0.000000
  0
VERTEX
  8
0
 10
557.226386
 20
2627.750000
 42
0.000000
  0
VERTEX
  8
0
 10
556.952772
 20
2645.000000
 42
0.000000
  0
VERTEX
  8
0
 10
530.976386
 20
2645.000000
 42
0.000000
  0
VERTEX
  8
0
 10
505.000000
 20
2645.000000
 42
0.000000
  0
VERTEX
  8
0
 10
505.000000
 20
2653.500000
 42
0.000000
  0
VERTEX
  8
0
 10
505.000000
 20
2662.000000
 42
0.000000
  0
VERTEX
  8
0
 10
522.500000
 20
2662.000000
 42
0.000000
  0
VERTEX
  8
0
 10
540.000000
 20
2662.000000
 42
0.000000
  0
VERTEX
  8
0
 10
540.000000
 20
2671.000000
 42
0.000000
  0
VERTEX
  8
0
 10
540.000000
 20
2680.000000
 42
0.000000
  0
VERTEX
  8
0
 10
548.461067
 20
2680.000000
 42
0.000000
  0
VERTEX
  8
0
 10
556.922134
 20
2680.000000
 42
0.000000
  0
VERTEX
  8
0
 10
557.211067
 20
2671.250000
 42
0.000000
  0
VERTEX
  8
0
 10
557.500000
 20
2662.500000
 42
0.000000
  0
VERTEX
  8
0
 10
566.250000
 20
2662.211067
 42
0.000000
  0
VERTEX
  8
0
 10
575.000000
 20
2661.922134
 42
0.000000
  0
VERTEX
  8
0
 10
575.000000
 20
2653.461067
 42
0.000000
  0
VERTEX
  8
0
 10
575.000000
 20
2645.000000
 42
0.000000
  0
VERTEX
  8
0
 10
583.500000
 20
2645.000000
 42
0.000000
  0
VERTEX
  8
0
 10
592.000000
 20
2645.000000
 42
0.000000
  0
VERTEX
  8
0
 10
592.000000
 20
2688.500000
 42
0.000000
  0
VERTEX
  8
0
 10
592.000000
 20
2732.000000
 42
0.000000
  0
VERTEX
  8
0
 10
557.500000
 20
2732.000000
 42
0.000000
  0
VERTEX
  8
0
 10
523.000000
 20
2732.000000
 42
0.000000
  0
VERTEX
  8
0
 10
523.000000
 20
2723.000000
 42
0.000000
  0
VERTEX
  8
0
 10
523.000000
 20
2714.000000
 42
0.000000
  0
VERTEX
  8
0
 10
514.000000
 20
2714.000000
 42
0.000000
  0
VERTEX
  8
0
 10
505.000000
 20
2714.000000
 42
0.000000
  0
VERTEX
  8
0
 10
505.000000
 20
2723.000000
 42
0.000000
  0
VERTEX
  8
0
 10
505.000000
 20
2732.000000
 42
0.000000
  0
VERTEX
  8
0
 10
470.500000
 20
2732.000000
 42
0.000000
  0
VERTEX
  8
0
 10
436.000000
 20
2732.000000
 42
0.000000
  0
SEQEND
  0
POLYLINE
  8
0
 66
1
 70
1
  0
VERTEX
  8
0
 10
557.000000
 20
2705.500000
 42
0.000000
  0
VERTEX
  8
0
 10
557.000000
 20
2697.000000
 42
0.000000
  0
VERTEX
  8
0
 10
566.000000
 20
2697.000000
 42
0.000000
  0
VERTEX
  8
0
 10
575.000000
 20
2697.000000
 42
0.000000
  0
VERTEX
  8
0
 10
575.000000
 20
2688.500000
 42
0.000000
  0
VERTEX
  8
0
 10
575.000000
 20
2680.000000
 42
0.000000
  0
VERTEX
  8
0
 10
566.000000
 20
2680.000000
 42
0.000000
  0
VERTEX
  8
0
 10
557.000000
 20
2680.000000
 42
0.000000
  0
VERTEX
  8
0
 10
557.000000
 20
2688.500000
 42
0.000000
  0
VERTEX
  8
0
 10
557.000000
 20
2697.000000
 42
0.000000
  0
VERTEX
  8
0
 10
548.500000
 20
2697.000000
 42
0.000000
  0
VERTEX
  8
0
 10
540.000000
 20
2697.000000
 42
0.000000
  0
VERTEX
  8
0
 10
540.000000
 20
2705.500000
 42
0.000000
  0
VERTEX
  8
0
 10
540.000000
 20
2714.000000
 42
0.000000
  0
VERTEX
  8
0
 10
548.500000
 20
2714.000000
 42
0.000000
  0
VERTEX
  8
0
 10
557.000000
 20
2714.000000
 42
0.000000
  0
SEQEND
  0
POLYLINE
  8
0
 66
1
 70
1
  0
VERTEX
  8
0
 10
523.000000
 20
2688.500000
 42
0.000000
  0
VERTEX
  8
0
 10
523.000000
 20
2680.000000
 42
0.000000
  0
VERTEX
  8
0
 10
514.000000
 20
2680.000000
 42
0.000000
  0
VERTEX
  8
0
 10
505.000000
 20
2680.000000
 42
0.000000
  0
VERTEX
  8
0
 10
505.000000
 20
2688.500000
 42
0.000000
  0
VERTEX
  8
0
 10
505.000000
 20
2697.000000
 42
0.000000
  0
VERTEX
  8
0
 10
514.000000
 20
2697.000000
 42
0.000000
  0
VERTEX
  8
0
 10
523.000000
 20
2697.000000
 42
0.000000
  0
SEQEND
  0
POLYLINE
  8
0
 66
1
 70
1
  0
VERTEX
  8
0
 10
627.000000
 20
2566.500000
 42
0.000000
  0
VERTEX
  8
0
 10
627.000000
 20
2558.000000
 42
0.000000
  0
VERTEX
  8
0
 10
618.500000
 20
2558.000000
 42
0.000000
  0
VERTEX
  8
0
 10
610.000000
 20
2558.000000
 42
0.000000
  0
VERTEX
  8
0
 10
610.000000
 20
2566.500000
 42
0.000000
  0
VERTEX
  8
0
 10
610.000000
 20
2575.000000
 42
0.000000
  0
VERTEX
  8
0
 10
618.500000
 20
2575.000000
 42
0.000000
  0
VERTEX
  8
0
 10
627.000000
 20
2575.000000
 42
0.000000
  0
SEQEND
  0
POLYLINE
  8
0
 66
1
 70
1
  0
VERTEX
  8
0
 10
592.000000
 20
2549.500000
 42
0.000000
  0
VERTEX
  8
0
 10
592.000000
 20
2541.000000
 42
0.000000
  0
VERTEX
  8
0
 10
583.500000
 20
2541.000000
 42
0.000000
  0
VERTEX
  8
0
 10
575.000000
 20
2541.000000
 42
0.000000
  0
VERTEX
  8
0
 10
575.000000
 20
2549.500000
 42
0.000000
  0
VERTEX
  8
0
 10
575.000000
 20
2558.000000
 42
0.000000
  0
VERTEX
  8
0
 10
583.500000
 20
2558.000000
 42
0.000000
  0
VERTEX
  8
0
 10
592.000000
 20
2558.000000
 42
0.000000
  0
SEQEND
  0
POLYLINE
  8
0
 66
1
 70
1
  0
VERTEX
  8
0
 10
627.000000
 20
2532.000000
 42
0.000000
  0
VERTEX
  8
0
 10
627.000000
 20
2523.000000
 42
0.000000
  0
VERTEX
  8
0
 10
618.500000
 20
2523.000000
 42
0.000000
  0
VERTEX
  8
0
 10
610.000000
 20
2523.000000
 42
0.000000
  0
VERTEX
  8
0
 10
610.000000
 20
2532.000000
 42
0.000000
  0
VERTEX
  8
0
 10
610.000000
 20
2541.000000
 42
0.000000
  0
VERTEX
  8
0
 10
618.500000
 20
2541.000000
 42
0.000000
  0
VERTEX
  8
0
 10
627.000000
 20
2541.000000
 42
0.000000
  0
SEQEND
  0
POLYLINE
  8
0
 66
1
 70
1
  0
VERTEX
  8
0
 10
453.000000
 20
2479.500000
 42
0.000000
  0
VERTEX
  8
0
 10
453.000000
 20
2471.000000
 42
0.000000
  0
VERTEX
  8
0
 10
435.500000
 20
2471.000000
 42
0.000000
  0
VERTEX
  8
0
 10
418.000000
 20
2471.000000
 42
0.000000
  0
VERTEX
  8
0
 10
418.000000
 20
2479.500000
 42
0.000000
  0
VERTEX
  8
0
 10
418.000000
 20
2488.000000
 42
0.000000
  0
VERTEX
  8
0
 10
435.500000
 20
2488.000000
 42
0.000000
  0
VERTEX
  8
0
 10
453.000000
 20
2488.000000
 42
0.000000
  0
SEQEND
  0
POLYLINE
  8
0
 66
1
 70
1
  0
VERTEX
  8
0
 10
575.000000
 20
2471.000000
 42
0.000000
  0
VERTEX
  8
0
 10
575.000000
 20
2454.000000
 42
0.000000
  0
VERTEX
  8
0
 10
566.000000
 20
2454.000000
 42
0.000000
  0
VERTEX
  8
0
 10
557.000000
 20
2454.000000
 42
0.000000
  0
VERTEX
  8
0
 10
557.000000
 20
2436.500000
 42
0.000000
  0
VERTEX
  8
0
 10
557.000000
 20
2419.000000
 42
0.000000
  0
VERTEX
  8
0
 10
548.500000
 20
2419.000000
 42
0.000000
  0
VERTEX
  8
0
 10
540.000000
 20
2419.000000
 42
0.000000
  0
VERTEX
  8
0
 10
540.000000
 20
2410.500000
 42
0.000000
  0
VERTEX
  8
0
 10
540.000000
 20
2402.000000
 42
0.000000
  0
VERTEX
  8
0
 10
531.500000
 20
2402.000000
 42
0.000000
  0
VERTEX
  8
0
 10
523.000000
 20
2402.000000
 42
0.000000
  0
VERTEX
  8
0
 10
523.000000
 20
2393.000000
 42
0.000000
  0
VERTEX
  8
0
 10
523.000000
 20
2384.000000
 42
0.000000
  0
VERTEX
  8
0
 10
514.000000
 20
2384.000000
 42
0.000000
  0
VERTEX
  8
0
 10
505.000000
 20
2384.000000
 42
0.000000
  0
VERTEX
  8
0
 10
505.000000
 20
2375.500000
 42
0.000000
  0
VERTEX
  8
0
 10
505.000000
 20
2367.000000
 42
0.000000
  0
VERTEX
  8
0
 10
496.500000
 20
2367.000000
 42
0.000000
  0
VERTEX
  8
0
 10
488.000000
 20
2367.000000
 42
0.000000
  0
VERTEX
  8
0
 10
488.000000
 20
2375.500000
 42
0.000000
  0
VERTEX
  8
0
 10
488.000000
 20
2384.000000
 42
0.000000
  0
VERTEX
  8
0
 10
496.500000
 20
2384.000000
 42
0.000000
  0
VERTEX
  8
0
 10
505.000000
 20
2384.000000
 42
0.000000
  0
VERTEX
  8
0
 10
505.000000
 20
2393.000000
 42
0.000000
  0
VERTEX
  8
0
 10
505.000000
 20
2402.000000
 42
0.000000
  0
VERTEX
  8
0
 10
496.500000
 20
2402.000000
 42
0.000000
  0
VERTEX
  8
0
 10
488.000000
 20
2402.000000
 42
0.000000
  0
VERTEX
  8
0
 10
488.000000
 20
2410.500000
 42
0.000000
  0
VERTEX
  8
0
 10
488.000000
 20
2419.000000
 42
0.000000
  0
VERTEX
  8
0
 10
479.500000
 20
2419.000000
 42
0.000000
  0
VERTEX
  8
0
 10
471.000000
 20
2419.000000
 42
0.000000
  0
VERTEX
  8
0
 10
471.000000
 20
2410.500000
 42
0.000000
  0
VERTEX
  8
0
 10
471.000000
 20
2402.000000
 42
0.000000
  0
VERTEX
  8
0
 10
461.983118
 20
2402.000000
 42
0.000000
  0
VERTEX
  8
0
 10
452.966235
 20
2402.000000
 42
0.000000
  0
VERTEX
  8
0
 10
453.233118
 20
2427.750000
 42
0.000000
  0
VERTEX
  8
0
 10
453.500000
 20
2453.500000
 42
0.000000
  0
VERTEX
  8
0
 10
462.000000
 20
2453.500000
 42
0.000000
  0
VERTEX
  8
0
 10
470.500000
 20
2453.500000
 42
0.000000
  0
VERTEX
  8
0
 10
470.788933
 20
2444.750000
 42
0.000000
  0
VERTEX
  8
0
 10
471.077866
 20
2436.000000
 42
0.000000
  0
VERTEX
  8
0
 10
488.038933
 20
2436.000000
 42
0.000000
  0
VERTEX
  8
0
 10
505.000000
 20
2436.000000
 42
0.000000
  0
VERTEX
  8
0
 10
505.000000
 20
2419.000000
 42
0.000000
  0
VERTEX
  8
0
 10
505.000000
 20
2402.000000
 42
0.000000
  0
VERTEX
  8
0
 10
514.000000
 20
2402.000000
 42
0.000000
  0
VERTEX
  8
0
 10
523.000000
 20
2402.000000
 42
0.000000
  0
VERTEX
  8
0
 10
523.000000
 20
2419.000000
 42
0.000000
  0
VERTEX
  8
0
 10
523.000000
 20
2436.000000
 42
0.000000
  0
VERTEX
  8
0
 10
531.500000
 20
2436.000000
 42
0.000000
  0
VERTEX
  8
0
 10
540.000000
 20
2436.000000
 42
0.000000
  0
VERTEX
  8
0
 10
540.000000
 20
2445.000000
 42
0.000000
  0
VERTEX
  8
0
 10
540.000000
 20
2454.000000
 42
0.000000
  0
VERTEX
  8
0
 10
548.500000
 20
2454.000000
 42
0.000000
  0
VERTEX
  8
0
 10
557.000000
 20
2454.000000
 42
0.000000
  0
VERTEX
  8
0
 10
557.000000
 20
2471.000000
 42
0.000000
  0
VERTEX
  8
0
 10
557.000000
 20
2488.000000
 42
0.000000
  0
VERTEX
  8
0
 10
566.000000
 20
2488.000000
 42
0.000000
  0
VERTEX
  8
0
 10
575.000000
 20
2488.000000
 42
0.000000
  0
SEQEND
  0
POLYLINE
  8
0
 66
1
 70
1
  0
VERTEX
  8
0
 10
627.000000
 20
2462.500000
 42
0.000000
  0
VERTEX
  8
0
 10
627.000000
 20
2454.000000
 42
0.000000
  0
VERTEX
  8
0
 10
618.500000
 20
2454.000000
 42
0.000000
  0
VERTEX
  8
0
 10
610.000000
 20
2454.000000
 42
0.000000
  0
VERTEX
  8
0
 10
610.000000
 20
2462.500000
 42
0.000000
  0
VERTEX
  8
0
 10
610.000000
 20
2471.000000
 42
0.000000
  0
VERTEX
  8
0
 10
618.500000
 20
2471.000000
 42
0.000000
  0
VERTEX
  8
0
 10
627.000000
 20
2471.000000
 42
0.000000
  0
SEQEND
  0
POLYLINE
  8
0
 66
1
 70
1
  0
VERTEX
  8
0
 10
662.000000
 20
2462.500000
 42
0.000000
  0
VERTEX
  8
0
 10
662.000000
 20
2454.000000
 42
0.000000
  0
VERTEX
  8
0
 10
653.000000
 20
2454.000000
 42
0.000000
  0
VERTEX
  8
0
 10
644.000000
 20
2454.000000
 42
0.000000
  0
VERTEX
  8
0
 10
644.000000
 20
2462.500000
 42
0.000000
  0
VERTEX
  8
0
 10
644.000000
 20
2471.000000
 42
0.000000
  0
VERTEX
  8
0
 10
653.000000
 20
2471.000000
 42
0.000000
  0
VERTEX
  8
0
 10
662.000000
 20
2471.000000
 42
0.000000
  0
SEQEND
  0
POLYLINE
  8
0
 66
1
 70
1
  0
VERTEX
  8
0
 10
436.000000
 20
2410.000000
 42
0.000000
  0
VERTEX
  8
0
 10
436.000000
 20
2384.000000
 42
0.000000
  0
VERTEX
  8
0
 10
410.000000
 20
2384.000000
 42
0.000000
  0
VERTEX
  8
0
 10
384.000000
 20
2384.000000
 42
0.000000
  0
VERTEX
  8
0
 10
384.000000
 20
2410.000000
 42
0.000000
  0
VERTEX
  8
0
 10
384.000000
 20
2436.000000
 42
0.000000
  0
VERTEX
  8
0
 10
410.000000
 20
2436.000000
 42
0.000000
  0
VERTEX
  8
0
 10
436.000000
 20
2436.000000
 42
0.000000
  0
SEQEND
  0
POLYLINE
  8
0
 66
1
 70
1
  0
VERTEX
  8
0
 10
384.000000
 20
2358.000000
 42
0.000000
  0
VERTEX
  8
0
 10
384.000000
 20
2349.000000
 42
0.000000
  0
VERTEX
  8
0
 10
392.500000
 20
2349.000000
 42
0.000000
  0
VERTEX
  8
0
 10
401.000000
 20
2349.000000
 42
0.000000
  0
VERTEX
  8
0
 10
401.000000
 20
2358.000000
 42
0.000000
  0
VERTEX
  8
0
 10
401.000000
 20
2367.000000
 42
0.000000
  0
VERTEX
  8
0
 10
409.500000
 20
2367.000000
 42
0.000000
  0
VERTEX
  8
0
 10
418.000000
 20
2367.000000
 42
0.000000
  0
VERTEX
  8
0
 10
418.000000
 20
2358.000000
 42
0.000000
  0
VERTEX
  8
0
 10
418.000000
 20
2349.000000
 42
0.000000
  0
VERTEX
  8
0
 10
409.500000
 20
2349.000000
 42
0.000000
  0
VERTEX
  8
0
 10
401.000000
 20
2349.000000
 42
0.000000
  0
VERTEX
  8
0
 10
401.000000
 20
2340.500000
 42
0.000000
  0
VERTEX
  8
0
 10
401.000000
 20
2332.000000
 42
0.000000
  0
VERTEX
  8
0
 10
392.500000
 20
2332.000000
 42
0.000000
  0
VERTEX
  8
0
 10
384.000000
 20
2332.000000
 42
0.000000
  0
VERTEX
  8
0
 10
384.000000
 20
2340.461067
 42
0.000000
  0
VERTEX
  8
0
 10
384.000000
 20
2348.922134
 42
0.000000
  0
VERTEX
  8
0
 10
375.250000
 20
2349.211067
 42
0.000000
  0
VERTEX
  8
0
 10
366.500000
 20
2349.500000
 42
0.000000
  0
VERTEX
  8
0
 10
366.203033
 20
2356.906415
 42
-0.007079
  0
VERTEX
  8
0
 10
366.126964
 20
2359.841003
 42
-0.009185
  0
VERTEX
  8
0
 10
366.144753
 20
2362.531874
 42
-0.007235
  0
VERTEX
  8
0
 10
366.233210
 20
2364.773024
 42
-0.078282
  0
VERTEX
  8
0
 10
366.421649
 20
2365.656415
 42
-0.223977
  0
VERTEX
  8
0
 10
367.090542
 20
2366.296903
 42
-0.043926
  0
VERTEX
  8
0
 10
368.753754
 20
2366.695520
 42
-0.028660
  0
VERTEX
  8
0
 10
371.380218
 20
2366.932889
 42
-0.008207
  0
VERTEX
  8
0
 10
375.468615
 20
2367.000000
 42
0.000000
  0
VERTEX
  8
0
 10
384.000000
 20
2367.000000
 42
0.000000
  0
SEQEND
  0
POLYLINE
  8
0
 66
1
 70
1
  0
VERTEX
  8
0
 10
332.000000
 20
2340.500000
 42
0.000000
  0
VERTEX
  8
0
 10
332.000000
 20
2332.000000
 42
0.000000
  0
VERTEX
  8
0
 10
340.500000
 20
2332.000000
 42
0.000000
  0
VERTEX
  8
0
 10
349.000000
 20
2332.000000
 42
0.000000
  0
VERTEX
  8
0
 10
349.000000
 20
2323.500000
 42
0.000000
  0
VERTEX
  8
0
 10
349.000000
 20
2315.000000
 42
0.000000
  0
VERTEX
  8
0
 10
331.500000
 20
2315.000000
 42
0.000000
  0
VERTEX
  8
0
 10
314.000000
 20
2315.000000
 42
0.000000
  0
VERTEX
  8
0
 10
314.000000
 20
2332.000000
 42
0.000000
  0
VERTEX
  8
0
 10
314.000000
 20
2349.000000
 42
0.000000
  0
VERTEX
  8
0
 10
323.000000
 20
2349.000000
 42
0.000000
  0
VERTEX
  8
0
 10
332.000000
 20
2349.000000
 42
0.000000
  0
SEQEND
  0
POLYLINE
  8
0
 66
1
 70
1
  0
VERTEX
  8
0
 10
610.000000
 20
2671.000000
 42
0.000000
  0
VERTEX
  8
0
 10
610.000000
 20
2610.000000
 42
0.000000
  0
VERTEX
  8
0
 10
670.500000
 20
2610.000000
 42
0.000000
  0
VERTEX
  8
0
 10
731.000000
 20
2610.000000
 42
0.000000
  0
VERTEX
  8
0
 10
731.000000
 20
2671.000000
 42
0.000000
  0
VERTEX
  8
0
 10
731.000000
 20
2732.000000
 42
0.000000
  0
VERTEX
  8
0
 10
670.500000
 20
2732.000000
 42
0.000000
  0
VERTEX
  8
0
 10
610.000000
 20
2732.000000
 42
0.000000
  0
SEQEND
  0
POLYLINE
  8
0
 66
1
 70
1
  0
VERTEX
  8
0
 10
713.760623
 20
2670.750000
 42
0.000000
  0
VERTEX
  8
0
 10
713.500000
 20
2627.500000
 42
0.000000
  0
VERTEX
  8
0
 10
670.250000
 20
2627.239377
 42
0.000000
  0
VERTEX
  8
0
 10
627.000000
 20
2626.978755
 42
0.000000
  0
VERTEX
  8
0
 10
627.000000
 20
2670.489377
 42
0.000000
  0
VERTEX
  8
0
 10
627.000000
 20
2714.000000
 42
0.000000
  0
VERTEX
  8
0
 10
670.510623
 20
2714.000000
 42
0.000000
  0
VERTEX
  8
0
 10
714.021245
 20
2714.000000
 42
0.000000
  0
SEQEND
  0
POLYLINE
  8
0
 66
1
 70
1
  0
VERTEX
  8
0
 10
1533.250000
 20
2696.273987
 42
0.007123
  0
VERTEX
  8
0
 10
1529.244239
 20
2695.979899
 42
0.096135
  0
VERTEX
  8
0
 10
1527.838418
 20
2695.576850
 42
0.219486
  0
VERTEX
  8
0
 10
1527.198010
 20
2694.764825
 42
0.058985
  0
VERTEX
  8
0
 10
1527.000000
 20
2693.092185
 42
0.057871
  0
VERTEX
  8
0
 10
1527.191938
 20
2691.439398
 42
0.203599
  0
VERTEX
  8
0
 10
1527.811707
 20
2690.594584
 42
0.099683
  0
VERTEX
  8
0
 10
1529.159160
 20
2690.121809
 42
0.008973
  0
VERTEX
  8
0
 10
1532.727773
 20
2689.688647
 42
-0.018919
  0
VERTEX
  8
0
 10
1535.299297
 20
2689.324484
 42
-0.035751
  0
VERTEX
  8
0
 10
1537.327452
 20
2688.806647
 42
-0.045456
  0
VERTEX
  8
0
 10
1538.824570
 20
2688.151847
 42
-0.109502
  0
VERTEX
  8
0
 10
1539.727773
 20
2687.357615
 42
-0.127345
  0
VERTEX
  8
0
 10
1540.343506
 20
2685.807223
 42
-0.014508
  0
VERTEX
  8
0
 10
1540.706495
 20
2682.025944
 42
-0.012665
  0
VERTEX
  8
0
 10
1540.934131
 20
2676.525430
 42
-0.004008
  0
VERTEX
  8
0
 10
1541.000000
 20
2668.308870
 42
-0.001353
  0
VERTEX
  8
0
 10
1540.982035
 20
2661.671816
 42
-0.002257
  0
VERTEX
  8
0
 10
1540.926563
 20
2656.084629
 42
-0.000205
  0
VERTEX
  8
0
 10
1540.852535
 20
2651.101283
 42
-0.410339
  0
VERTEX
  8
0
 10
1540.750000
 20
2651.000504
 42
-0.085977
  0
VERTEX
  8
0
 10
1540.562755
 20
2651.033331
 42
-0.000638
  0
VERTEX
  8
0
 10
1539.081429
 20
2651.567949
 42
-0.002377
  0
VERTEX
  8
0
 10
1537.385737
 20
2652.191516
 42
-0.001520
  0
VERTEX
  8
0
 10
1535.420821
 20
2652.931522
 42
0.072074
  0
VERTEX
  8
0
 10
1523.366662
 20
2655.618466
 42
0.070223
  0
VERTEX
  8
0
 10
1510.933401
 20
2654.811712
 42
0.071665
  0
VERTEX
  8
0
 10
1499.433053
 20
2650.638536
 42
0.080696
  0
VERTEX
  8
0
 10
1490.094778
 20
2643.506698
 42
0.047946
  0
VERTEX
  8
0
 10
1484.092051
 20
2635.799523
 42
0.062087
  0
VERTEX
  8
0
 10
1480.263447
 20
2627.706542
 42
0.053992
  0
VERTEX
  8
0
 10
1478.207391
 20
2618.059483
 42
0.026492
  0
VERTEX
  8
0
 10
1477.589780
 20
2605.500000
 42
0.006494
  0
VERTEX
  8
0
 10
1477.709666
 20
2598.375053
 42
0.021988
  0
VERTEX
  8
0
 10
1478.052495
 20
2593.736867
 42
0.030359
  0
VERTEX
  8
0
 10
1478.726620
 20
2589.999325
 42
0.024425
  0
VERTEX
  8
0
 10
1479.886743
 20
2586.082924
 42
0.063857
  0
VERTEX
  8
0
 10
1485.434516
 20
2575.007323
 42
0.096598
  0
VERTEX
  8
0
 10
1493.028941
 20
2567.399335
 42
0.096318
  0
VERTEX
  8
0
 10
1502.942926
 20
2563.188503
 42
0.063168
  0
VERTEX
  8
0
 10
1515.345419
 20
2562.151302
 42
0.040166
  0
VERTEX
  8
0
 10
1522.652958
 20
2563.054870
 42
0.055634
  0
VERTEX
  8
0
 10
1528.926714
 20
2565.095468
 42
0.060667
  0
VERTEX
  8
0
 10
1534.174313
 20
2568.289768
 42
0.062754
  0
VERTEX
  8
0
 10
1538.434791
 20
2572.618392
 42
-0.014275
  0
VERTEX
  8
0
 10
1539.773168
 20
2574.271179
 42
-0.025726
  0
VERTEX
  8
0
 10
1540.974730
 20
2575.533713
 42
-0.026345
  0
VERTEX
  8
0
 10
1541.940276
 20
2576.356968
 42
-0.448843
  0
VERTEX
  8
0
 10
1542.304479
 20
2576.286758
 42
-0.087707
  0
VERTEX
  8
0
 10
1542.518858
 20
2575.719976
 42
-0.005127
  0
VERTEX
  8
0
 10
1542.844110
 20
2573.895173
 42
-0.007637
  0
VERTEX
  8
0
 10
1543.177594
 20
2571.701424
 42
-0.005540
  0
VERTEX
  8
0
 10
1543.484401
 20
2569.250000
 42
0.000000
  0
VERTEX
  8
0
 10
1544.196374
 20
2563.000000
 42
0.000000
  0
VERTEX
  8
0
 10
1552.947309
 20
2563.000000
 42
0.005983
  0
VERTEX
  8
0
 10
1556.854436
 20
2563.046755
 42
0.003870
  0
VERTEX
  8
0
 10
1561.375103
 20
2563.189979
 42
0.003890
  0
VERTEX
  8
0
 10
1565.791230
 20
2563.398529
 42
0.007341
  0
VERTEX
  8
0
 10
1569.349122
 20
2563.646736
 42
0.005302
  0
VERTEX
  8
0
 10
1574.299618
 20
2564.118127
 42
0.077572
  0
VERTEX
  8
0
 10
1575.989040
 20
2564.568223
 42
0.213856
  0
VERTEX
  8
0
 10
1576.745590
 20
2565.406453
 42
0.078375
  0
VERTEX
  8
0
 10
1577.000000
 20
2567.019507
 42
0.056792
  0
VERTEX
  8
0
 10
1576.820908
 20
2568.591156
 42
0.197029
  0
VERTEX
  8
0
 10
1576.241482
 20
2569.409688
 42
0.106491
  0
VERTEX
  8
0
 10
1575.002523
 20
2569.866920
 42
0.011391
  0
VERTEX
  8
0
 10
1571.941137
 20
2570.231634
 42
-0.019265
  0
VERTEX
  8
0
 10
1569.917062
 20
2570.505151
 42
-0.022320
  0
VERTEX
  8
0
 10
1568.018418
 20
2570.924696
 42
-0.022072
  0
VERTEX
  8
0
 10
1566.461591
 20
2571.416954
 42
-0.109135
  0
VERTEX
  8
0
 10
1565.691137
 20
2571.908395
 42
-0.190399
  0
VERTEX
  8
0
 10
1565.045594
 20
2573.396507
 42
-0.001531
  0
VERTEX
  8
0
 10
1564.653073
 20
2586.500809
 42
-0.003765
  0
VERTEX
  8
0
 10
1564.299014
 20
2604.792104
 42
-0.000930
  0
VERTEX
  8
0
 10
1564.000000
 20
2634.799532
 42
0.000000
  0
VERTEX
  8
0
 10
1563.500000
 20
2696.500000
 42
0.000000
  0
VERTEX
  8
0
 10
1551.500000
 20
2696.571705
 42
0.002953
  0
VERTEX
  8
0
 10
1546.447385
 20
2696.572059
 42
0.002619
  0
VERTEX
  8
0
 10
1541.189063
 20
2696.513828
 42
0.002629
  0
VERTEX
  8
0
 10
1536.456092
 20
2696.411721
 42
0.008053
  0
SEQEND
  0
POLYLINE
  8
0
 66
1
 70
1
  0
VERTEX
  8
0
 10
1534.421163
 20
2644.932054
 42
-0.013344
  0
VERTEX
  8
0
 10
1536.215601
 20
2644.029344
 42
-0.014598
  0
VERTEX
  8
0
 10
1537.905394
 20
2643.057399
 42
-0.014146
  0
VERTEX
  8
0
 10
1539.297815
 20
2642.146207
 42
-0.067684
  0
VERTEX
  8
0
 10
1539.995490
 20
2641.505434
 42
-0.162667
  0
VERTEX
  8
0
 10
1540.519940
 20
2640.154147
 42
-0.004819
  0
VERTEX
  8
0
 10
1540.754649
 20
2633.991641
 42
-0.007360
  0
VERTEX
  8
0
 10
1540.870100
 20
2625.570665
 42
-0.002508
  0
VERTEX
  8
0
 10
1540.796397
 20
2613.341632
 42
-0.001786
  0
VERTEX
  8
0
 10
1540.568259
 20
2597.730910
 42
-0.013265
  0
VERTEX
  8
0
 10
1540.236255
 20
2590.310635
 42
-0.028349
  0
VERTEX
  8
0
 10
1539.660850
 20
2585.837162
 42
-0.069213
  0
VERTEX
  8
0
 10
1538.609273
 20
2582.693554
 42
-0.060202
  0
VERTEX
  8
0
 10
1535.994887
 20
2578.714239
 42
-0.076931
  0
VERTEX
  8
0
 10
1532.688719
 20
2575.839555
 42
-0.073976
  0
VERTEX
  8
0
 10
1528.561065
 20
2574.023629
 42
-0.050840
  0
VERTEX
  8
0
 10
1523.509235
 20
2573.181485
 42
-0.091993
  0
VERTEX
  8
0
 10
1514.671392
 20
2574.246067
 42
-0.146789
  0
VERTEX
  8
0
 10
1508.417120
 20
2578.477671
 42
-0.108483
  0
VERTEX
  8
0
 10
1504.328145
 20
2586.560676
 42
-0.037239
  0
VERTEX
  8
0
 10
1501.995376
 20
2599.544592
 42
-0.033538
  0
VERTEX
  8
0
 10
1501.517491
 20
2612.713254
 42
-0.033976
  0
VERTEX
  8
0
 10
1502.810417
 20
2625.769694
 42
-0.035347
  0
VERTEX
  8
0
 10
1505.465561
 20
2636.748131
 42
-0.127852
  0
VERTEX
  8
0
 10
1509.267363
 20
2642.781449
 42
-0.091676
  0
VERTEX
  8
0
 10
1514.363172
 20
2646.057406
 42
-0.075950
  0
VERTEX
  8
0
 10
1520.643057
 20
2647.573577
 42
-0.070309
  0
VERTEX
  8
0
 10
1527.538942
 20
2647.193252
 42
-0.061056
  0
SEQEND
  0
POLYLINE
  8
0
 66
1
 70
1
  0
VERTEX
  8
0
 10
2453.269695
 20
2695.517413
 42
0.152445
  0
VERTEX
  8
0
 10
2448.267487
 20
2691.194845
 42
0.127532
  0
VERTEX
  8
0
 10
2446.172605
 20
2684.467974
 42
0.125985
  0
VERTEX
  8
0
 10
2447.601452
 20
2677.506653
 42
0.147082
  0
VERTEX
  8
0
 10
2452.162288
 20
2672.563205
 42
0.085317
  0
VERTEX
  8
0
 10
2455.676414
 20
2671.227054
 42
0.045462
  0
VERTEX
  8
0
 10
2460.316749
 20
2670.750879
 42
0.045221
  0
VERTEX
  8
0
 10
2465.024008
 20
2671.123453
 42
0.077123
  0
VERTEX
  8
0
 10
2468.756478
 20
2672.374070
 42
0.128091
  0
VERTEX
  8
0
 10
2472.563711
 20
2675.795268
 42
0.093738
  0
VERTEX
  8
0
 10
2474.770499
 20
2681.058353
 42
0.093506
  0
VERTEX
  8
0
 10
2474.905633
 20
2686.775929
 42
0.126589
  0
VERTEX
  8
0
 10
2472.832100
 20
2691.486321
 42
0.098878
  0
VERTEX
  8
0
 10
2469.091747
 20
2694.682868
 42
0.076859
  0
VERTEX
  8
0
 10
2464.065287
 20
2696.555552
 42
0.073984
  0
VERTEX
  8
0
 10
2458.518027
 20
2696.863852
 42
0.079643
  0
SEQEND
  0
POLYLINE
  8
0
 66
1
 70
1
  0
VERTEX
  8
0
 10
1370.000000
 20
2686.129166
 42
0.057424
  0
VERTEX
  8
0
 10
1370.196027
 20
2684.427950
 42
0.204424
  0
VERTEX
  8
0
 10
1370.830722
 20
2683.562432
 42
0.097541
  0
VERTEX
  8
0
 10
1372.219433
 20
2683.070721
 42
0.008295
  0
VERTEX
  8
0
 10
1375.990837
 20
2682.580546
 42
-0.015547
  0
VERTEX
  8
0
 10
1378.888806
 20
2682.161069
 42
-0.044077
  0
VERTEX
  8
0
 10
1380.859374
 20
2681.630649
 42
-0.066418
  0
VERTEX
  8
0
 10
1382.178713
 20
2680.937607
 42
-0.116290
  0
VERTEX
  8
0
 10
1382.990837
 20
2680.017122
 42
-0.117494
  0
VERTEX
  8
0
 10
1383.457497
 20
2678.244945
 42
-0.001178
  0
VERTEX
  8
0
 10
1383.735983
 20
2665.117007
 42
-0.003309
  0
VERTEX
  8
0
 10
1383.937875
 20
2648.618149
 42
-0.001404
  0
VERTEX
  8
0
 10
1384.000000
 20
2626.500000
 42
-0.001404
  0
VERTEX
  8
0
 10
1383.937875
 20
2604.381851
 42
-0.003309
  0
VERTEX
  8
0
 10
1383.735983
 20
2587.882993
 42
-0.001178
  0
VERTEX
  8
0
 10
1383.457497
 20
2574.755055
 42
-0.117494
  0
VERTEX
  8
0
 10
1382.990837
 20
2572.982878
 42
-0.116290
  0
VERTEX
  8
0
 10
1382.178713
 20
2572.062393
 42
-0.066418
  0
VERTEX
  8
0
 10
1380.859374
 20
2571.369351
 42
-0.044077
  0
VERTEX
  8
0
 10
1378.888806
 20
2570.838931
 42
-0.015547
  0
VERTEX
  8
0
 10
1375.990837
 20
2570.419454
 42
0.008295
  0
VERTEX
  8
0
 10
1372.219433
 20
2569.929279
 42
0.097541
  0
VERTEX
  8
0
 10
1370.830722
 20
2569.437568
 42
0.204424
  0
VERTEX
  8
0
 10
1370.196027
 20
2568.572050
 42
0.057424
  0
VERTEX
  8
0
 10
1370.000000
 20
2566.870834
 42
0.000000
  0
VERTEX
  8
0
 10
1370.000000
 20
2564.000000
 42
0.000000
  0
VERTEX
  8
0
 10
1414.500000
 20
2564.000000
 42
0.000729
  0
VERTEX
  8
0
 10
1441.979380
 20
2564.040063
 42
0.009095
  0
VERTEX
  8
0
 10
1452.392914
 20
2564.259888
 42
0.016120
  0
VERTEX
  8
0
 10
1458.025111
 20
2564.663474
 42
0.382499
  0
VERTEX
  8
0
 10
1459.009990
 20
2565.750000
 42
-0.022440
  0
VERTEX
  8
0
 10
1459.070436
 20
2566.944021
 42
-0.001146
  0
VERTEX
  8
0
 10
1459.449005
 20
2570.804688
 42
-0.001827
  0
VERTEX
  8
0
 10
1459.926452
 20
2575.392707
 42
-0.001323
  0
VERTEX
  8
0
 10
1460.490482
 20
2580.500000
 42
0.001618
  0
VERTEX
  8
0
 10
1461.800553
 20
2592.427218
 42
0.052881
  0
VERTEX
  8
0
 10
1461.802002
 20
2595.326740
 42
0.270986
  0
VERTEX
  8
0
 10
1460.902878
 20
2596.548520
 42
0.102973
  0
VERTEX
  8
0
 10
1458.750000
 20
2596.989163
 42
0.063788
  0
VERTEX
  8
0
 10
1456.778960
 20
2596.729993
 42
0.158357
  0
VERTEX
  8
0
 10
1455.569760
 20
2595.951093
 42
0.074473
  0
VERTEX
  8
0
 10
1454.540672
 20
2594.217733
 42
0.007145
  0
VERTEX
  8
0
 10
1452.748016
 20
2589.634102
 42
-0.017789
  0
VERTEX
  8
0
 10
1450.202286
 20
2583.512320
 42
-0.039943
  0
VERTEX
  8
0
 10
1447.749750
 20
2579.122722
 42
-0.051553
  0
VERTEX
  8
0
 10
1445.103891
 20
2575.932342
 42
-0.061145
  0
VERTEX
  8
0
 10
1441.996602
 20
2573.554066
 42
-0.059327
  0
VERTEX
  8
0
 10
1439.472028
 20
2572.448925
 42
-0.041800
  0
VERTEX
  8
0
 10
1436.438784
 20
2571.800643
 42
-0.022204
  0
VERTEX
  8
0
 10
1431.843916
 20
2571.420214
 42
-0.003983
  0
VERTEX
  8
0
 10
1423.250000
 20
2571.160251
 42
0.000000
  0
VERTEX
  8
0
 10
1408.000000
 20
2570.820502
 42
0.000000
  0
VERTEX
  8
0
 10
1408.000000
 20
2597.410251
 42
0.000000
  0
VERTEX
  8
0
 10
1408.000000
 20
2624.000000
 42
0.000000
  0
VERTEX
  8
0
 10
1417.549660
 20
2624.000000
 42
-0.019197
  0
VERTEX
  8
0
 10
1425.035178
 20
2623.712490
 42
-0.079299
  0
VERTEX
  8
0
 10
1429.426712
 20
2622.660838
 42
-0.121921
  0
VERTEX
  8
0
 10
1432.268662
 20
2620.562687
 42
-0.078054
  0
VERTEX
  8
0
 10
1434.376049
 20
2617.018181
 42
-0.014529
  0
VERTEX
  8
0
 10
1434.997678
 20
2615.323406
 42
-0.014327
  0
VERTEX
  8
0
 10
1435.522964
 20
2613.587537
 42
-0.014343
  0
VERTEX
  8
0
 10
1435.895304
 20
2612.042690
 42
-0.052003
  0
VERTEX
  8
0
 10
1436.000000
 20
2611.038781
 42
0.072655
  0
VERTEX
  8
0
 10
1436.219620
 20
2609.535365
 42
0.183366
  0
VERTEX
  8
0
 10
1436.880532
 20
2608.671033
 42
0.155362
  0
VERTEX
  8
0
 10
1438.038409
 20
2608.379051
 42
0.048673
  0
VERTEX
  8
0
 10
1439.826459
 20
2608.664869
 42
0.206551
  0
VERTEX
  8
0
 10
1441.082434
 20
2609.645996
 42
0.097556
  0
VERTEX
  8
0
 10
1441.713699
 20
2611.645728
 42
0.026181
  0
VERTEX
  8
0
 10
1441.959517
 20
2615.812309
 42
0.001645
  0
VERTEX
  8
0
 10
1442.000000
 20
2628.116631
 42
0.000000
  0
VERTEX
  8
0
 10
1442.000000
 20
2647.000000
 42
0.000000
  0
VERTEX
  8
0
 10
1439.633991
 20
2647.000000
 42
0.108256
  0
VERTEX
  8
0
 10
1438.321439
 20
2646.712448
 42
0.121462
  0
VERTEX
  8
0
 10
1437.312145
 20
2645.907752
 42
0.064132
  0
VERTEX
  8
0
 10
1436.371336
 20
2644.294229
 42
0.012540
  0
VERTEX
  8
0
 10
1435.138158
 20
2641.158759
 42
-0.033313
  0
VERTEX
  8
0
 10
1432.675354
 20
2635.587680
 42
-0.140437
  0
VERTEX
  8
0
 10
1430.178305
 20
2632.970377
 42
-0.114307
  0
VERTEX
  8
0
 10
1426.388922
 20
2631.788904
 42
-0.018654
  0
VERTEX
  8
0
 10
1418.647948
 20
2631.500000
 42
0.000000
  0
VERTEX
  8
0
 10
1408.500000
 20
2631.500000
 42
0.000000
  0
VERTEX
  8
0
 10
1408.232584
 20
2656.866338
 42
0.000000
  0
VERTEX
  8
0
 10
1407.965169
 20
2682.232676
 42
0.000000
  0
VERTEX
  8
0
 10
1421.232584
 20
2681.812465
 42
-0.025262
  0
VERTEX
  8
0
 10
1432.982243
 20
2680.844751
 42
-0.103437
  0
VERTEX
  8
0
 10
1439.692921
 20
2678.479768
 42
-0.114445
  0
VERTEX
  8
0
 10
1444.535109
 20
2673.757429
 42
-0.034318
  0
VERTEX
  8
0
 10
1449.519119
 20
2664.664992
 42
0.009207
  0
VERTEX
  8
0
 10
1451.343691
 20
2660.899626
 42
0.036630
  0
VERTEX
  8
0
 10
1452.669208
 20
2658.702634
 42
0.068375
  0
VERTEX
  8
0
 10
1453.735299
 20
2657.564285
 42
0.268174
  0
VERTEX
  8
0
 10
1454.649496
 20
2657.418994
 42
-0.027538
  0
VERTEX
  8
0
 10
1455.341515
 20
2657.641693
 42
-0.017164
  0
VERTEX
  8
0
 10
1456.172958
 20
2657.829329
 42
-0.017212
  0
VERTEX
  8
0
 10
1457.008021
 20
2657.958281
 42
-0.029706
  0
VERTEX
  8
0
 10
1457.709596
 20
2658.000000
 42
0.342960
  0
VERTEX
  8
0
 10
1458.608944
 20
2658.699112
 42
0.085973
  0
VERTEX
  8
0
 10
1458.763196
 20
2660.679974
 42
0.020943
  0
VERTEX
  8
0
 10
1458.172439
 20
2665.006922
 42
0.001298
  0
VERTEX
  8
0
 10
1455.851382
 20
2677.750000
 42
0.000000
  0
VERTEX
  8
0
 10
1453.772083
 20
2689.000000
 42
0.000000
  0
VERTEX
  8
0
 10
1411.886041
 20
2689.000000
 42
0.000000
  0
VERTEX
  8
0
 10
1370.000000
 20
2689.000000
 42
0.000000
  0
SEQEND
  0
POLYLINE
  8
0
 66
1
 70
1
  0
VERTEX
  8
0
 10
1927.000000
 20
2686.224683
 42
0.052661
  0
VERTEX
  8
0
 10
1927.187646
 20
2684.447987
 42
0.206319
  0
VERTEX
  8
0
 10
1927.812022
 20
2683.568534
 42
0.100622
  0
VERTEX
  8
0
 10
1929.182558
 20
2683.074576
 42
0.008174
  0
VERTEX
  8
0
 10
1932.990837
 20
2682.580546
 42
-0.015547
  0
VERTEX
  8
0
 10
1935.888806
 20
2682.161069
 42
-0.044077
  0
VERTEX
  8
0
 10
1937.859374
 20
2681.630649
 42
-0.066418
  0
VERTEX
  8
0
 10
1939.178713
 20
2680.937607
 42
-0.116290
  0
VERTEX
  8
0
 10
1939.990837
 20
2680.017122
 42
-0.117595
  0
VERTEX
  8
0
 10
1940.458061
 20
2678.241363
 42
-0.001148
  0
VERTEX
  8
0
 10
1940.736200
 20
2664.915490
 42
-0.003263
  0
VERTEX
  8
0
 10
1940.937957
 20
2648.168041
 42
-0.001380
  0
VERTEX
  8
0
 10
1941.000000
 20
2625.688186
 42
-0.000944
  0
VERTEX
  8
0
 10
1940.948196
 20
2598.240389
 42
-0.005200
  0
VERTEX
  8
0
 10
1940.738521
 20
2583.449052
 42
-0.003408
  0
VERTEX
  8
0
 10
1940.431394
 20
2573.668142
 42
-0.213107
  0
VERTEX
  8
0
 10
1939.684140
 20
2572.152822
 42
-0.095319
  0
VERTEX
  8
0
 10
1938.840682
 20
2571.689122
 42
-0.016566
  0
VERTEX
  8
0
 10
1937.085097
 20
2571.185308
 42
-0.017473
  0
VERTEX
  8
0
 10
1934.956814
 20
2570.728568
 42
-0.014867
  0
VERTEX
  8
0
 10
1932.684140
 20
2570.392696
 42
0.009220
  0
VERTEX
  8
0
 10
1929.144667
 20
2569.910383
 42
0.100818
  0
VERTEX
  8
0
 10
1927.804812
 20
2569.413954
 42
0.200606
  0
VERTEX
  8
0
 10
1927.189003
 20
2568.549639
 42
0.055832
  0
VERTEX
  8
0
 10
1927.000000
 20
2566.862319
 42
0.000000
  0
VERTEX
  8
0
 10
1927.000000
 20
2564.000000
 42
0.000000
  0
VERTEX
  8
0
 10
1955.000000
 20
2564.000000
 42
0.000000
  0
VERTEX
  8
0
 10
1983.000000
 20
2564.000000
 42
0.000000
  0
VERTEX
  8
0
 10
1983.000000
 20
2566.870790
 42
0.066269
  0
VERTEX
  8
0
 10
1982.770873
 20
2568.591971
 42
0.214939
  0
VERTEX
  8
0
 10
1982.056433
 20
2569.460923
 42
0.084701
  0
VERTEX
  8
0
 10
1980.463826
 20
2569.936595
 42
0.005758
  0
VERTEX
  8
0
 10
1975.750000
 20
2570.455920
 42
-0.011514
  0
VERTEX
  8
0
 10
1972.882271
 20
2570.805315
 42
-0.014743
  0
VERTEX
  8
0
 10
1970.262500
 20
2571.265134
 42
-0.012625
  0
VERTEX
  8
0
 10
1968.115617
 20
2571.764375
 42
-0.110180
  0
VERTEX
  8
0
 10
1967.250000
 20
2572.207575
 42
-0.197153
  0
VERTEX
  8
0
 10
1966.613368
 20
2573.404584
 42
-0.010868
  0
VERTEX
  8
0
 10
1966.276907
 20
2577.722962
 42
-0.011120
  0
VERTEX
  8
0
 10
1966.059736
 20
2584.148824
 42
-0.002886
  0
VERTEX
  8
0
 10
1966.000000
 20
2594.496896
 42
0.000000
  0
VERTEX
  8
0
 10
1966.000000
 20
2615.748902
 42
0.000000
  0
VERTEX
  8
0
 10
1974.750000
 20
2615.278913
 42
0.054625
  0
VERTEX
  8
0
 10
1989.696082
 20
2616.108975
 42
0.073289
  0
VERTEX
  8
0
 10
2002.596051
 20
2620.254545
 42
0.081293
  0
VERTEX
  8
0
 10
2012.746361
 20
2627.493044
 42
0.089282
  0
VERTEX
  8
0
 10
2019.672930
 20
2637.382570
 42
0.020832
  0
VERTEX
  8
0
 10
2021.215655
 20
2641.122454
 42
0.044015
  0
VERTEX
  8
0
 10
2022.026387
 20
2644.150438
 42
0.034647
  0
VERTEX
  8
0
 10
2022.398176
 20
2647.699639
 42
0.008777
  0
VERTEX
  8
0
 10
2022.500000
 20
2653.500000
 42
0.008776
  0
VERTEX
  8
0
 10
2022.403806
 20
2658.979924
 42
0.029289
  0
VERTEX
  8
0
 10
2022.067469
 20
2662.560216
 42
0.039773
  0
VERTEX
  8
0
 10
2021.384450
 20
2665.454712
 42
0.030035
  0
VERTEX
  8
0
 10
2020.198776
 20
2668.500000
 42
0.059853
  0
VERTEX
  8
0
 10
2016.313272
 20
2674.824579
 42
0.065498
  0
VERTEX
  8
0
 10
2011.141802
 20
2679.834365
 42
0.059134
  0
VERTEX
  8
0
 10
2004.389327
 20
2683.705756
 42
0.037198
  0
VERTEX
  8
0
 10
1995.769157
 20
2686.639950
 42
0.037155
  0
VERTEX
  8
0
 10
1991.165704
 20
2687.475017
 42
0.012393
  0
VERTEX
  8
0
 10
1984.336127
 20
2688.025223
 42
0.008059
  0
VERTEX
  8
0
 10
1974.288317
 20
2688.422176
 42
0.002141
  0
VERTEX
  8
0
 10
1958.250000
 20
2688.728329
 42
0.000000
  0
VERTEX
  8
0
 10
1927.000000
 20
2689.191034
 42
0.000000
  0
SEQEND
  0
POLYLINE
  8
0
 66
1
 70
1
  0
VERTEX
  8
0
 10
1987.040960
 20
2678.940237
 42
-0.034714
  0
VERTEX
  8
0
 10
1989.400241
 20
2677.427566
 42
-0.051921
  0
VERTEX
  8
0
 10
1991.201577
 20
2675.771907
 42
-0.045277
  0
VERTEX
  8
0
 10
1992.785855
 20
2673.613893
 42
-0.019786
  0
VERTEX
  8
0
 10
1994.500000
 20
2670.500000
 42
-0.021042
  0
VERTEX
  8
0
 10
1996.206320
 20
2666.695123
 42
-0.051340
  0
VERTEX
  8
0
 10
1997.045162
 20
2663.743540
 42
-0.036935
  0
VERTEX
  8
0
 10
1997.406918
 20
2660.155149
 42
-0.006804
  0
VERTEX
  8
0
 10
1997.493637
 20
2653.500000
 42
-0.027810
  0
VERTEX
  8
0
 10
1996.935725
 20
2643.580321
 42
-0.059677
  0
VERTEX
  8
0
 10
1995.184064
 20
2636.132823
 42
-0.075919
  0
VERTEX
  8
0
 10
1992.092782
 20
2630.497900
 42
-0.079355
  0
VERTEX
  8
0
 10
1987.499887
 20
2626.140357
 42
-0.067885
  0
VERTEX
  8
0
 10
1983.903215
 20
2624.335175
 42
-0.031282
  0
VERTEX
  8
0
 10
1978.840102
 20
2622.949909
 42
-0.031291
  0
VERTEX
  8
0
 10
1973.631454
 20
2622.205484
 42
-0.066308
  0
VERTEX
  8
0
 10
1969.568897
 20
2622.421097
 42
0.000000
  0
VERTEX
  8
0
 10
1966.000000
 20
2623.090626
 42
0.000000
  0
VERTEX
  8
0
 10
1966.000000
 20
2652.670715
 42
0.000000
  0
VERTEX
  8
0
 10
1966.000000
 20
2682.250803
 42
0.000000
  0
VERTEX
  8
0
 10
1974.290960
 20
2681.815639
 42
-0.013036
  0
VERTEX
  8
0
 10
1978.559818
 20
2681.479801
 42
-0.029316
  0
VERTEX
  8
0
 10
1981.763572
 20
2680.952269
 42
-0.035993
  0
VERTEX
  8
0
 10
1984.444179
 20
2680.141335
 42
-0.033766
  0
SEQEND
  0
POLYLINE
  8
0
 66
1
 70
1
  0
VERTEX
  8
0
 10
1612.248151
 20
2654.621553
 42
0.041651
  0
VERTEX
  8
0
 10
1606.747438
 20
2652.722932
 42
0.045605
  0
VERTEX
  8
0
 10
1601.812125
 20
2649.983308
 42
0.047881
  0
VERTEX
  8
0
 10
1597.670662
 20
2646.540128
 42
0.057007
  0
VERTEX
  8
0
 10
1594.526436
 20
2642.551984
 42
0.025172
  0
VERTEX
  8
0
 10
1592.801748
 20
2639.420307
 42
0.062064
  0
VERTEX
  8
0
 10
1591.955191
 20
2636.941467
 42
0.043646
  0
VERTEX
  8
0
 10
1591.589667
 20
2633.855265
 42
0.007664
  0
VERTEX
  8
0
 10
1591.500000
 20
2628.005391
 42
0.007327
  0
VERTEX
  8
0
 10
1591.584464
 20
2622.242073
 42
0.041971
  0
VERTEX
  8
0
 10
1591.929531
 20
2619.206843
 42
0.064588
  0
VERTEX
  8
0
 10
1592.716145
 20
2616.880695
 42
0.032391
  0
VERTEX
  8
0
 10
1594.260111
 20
2614.183133
 42
0.064908
  0
VERTEX
  8
0
 10
1597.762188
 20
2610.143485
 42
0.055100
  0
VERTEX
  8
0
 10
1602.371334
 20
2606.874959
 42
0.036446
  0
VERTEX
  8
0
 10
1609.155484
 20
2603.731648
 42
0.010742
  0
VERTEX
  8
0
 10
1619.970232
 20
2599.911645
 42
-0.005357
  0
VERTEX
  8
0
 10
1627.710969
 20
2597.270859
 42
-0.022771
  0
VERTEX
  8
0
 10
1632.242776
 20
2595.434362
 42
-0.038478
  0
VERTEX
  8
0
 10
1635.204964
 20
2593.787253
 42
-0.064387
  0
VERTEX
  8
0
 10
1637.357659
 20
2591.925740
 42
-0.030207
  0
VERTEX
  8
0
 10
1638.948521
 20
2589.912835
 42
-0.086499
  0
VERTEX
  8
0
 10
1639.698623
 20
2588.302227
 42
-0.069297
  0
VERTEX
  8
0
 10
1639.945629
 20
2586.335092
 42
-0.014688
  0
VERTEX
  8
0
 10
1639.797315
 20
2582.874658
 42
-0.048949
  0
VERTEX
  8
0
 10
1639.039673
 20
2578.461683
 42
-0.082695
  0
VERTEX
  8
0
 10
1637.469331
 20
2575.063327
 42
-0.085941
  0
VERTEX
  8
0
 10
1634.932701
 20
2572.443878
 42
-0.056861
  0
VERTEX
  8
0
 10
1631.282119
 20
2570.371121
 42
-0.064038
  0
VERTEX
  8
0
 10
1627.901180
 20
2569.417575
 42
-0.032750
  0
VERTEX
  8
0
 10
1623.499920
 20
2569.057997
 42
-0.031698
  0
VERTEX
  8
0
 10
1618.808062
 20
2569.280241
 42
-0.038895
  0
VERTEX
  8
0
 10
1614.500000
 20
2570.101881
 42
-0.093968
  0
VERTEX
  8
0
 10
1609.944310
 20
2572.322768
 42
-0.045164
  0
VERTEX
  8
0
 10
1605.087525
 20
2576.680115
 42
-0.043596
  0
VERTEX
  8
0
 10
1600.809935
 20
2582.167386
 42
-0.056402
  0
VERTEX
  8
0
 10
1597.964579
 20
2587.876992
 42
0.010468
  0
VERTEX
  8
0
 10
1596.585352
 20
2591.426920
 42
0.074420
  0
VERTEX
  8
0
 10
1595.638750
 20
2593.005825
 42
0.144073
  0
VERTEX
  8
0
 10
1594.546199
 20
2593.746850
 42
0.077606
  0
VERTEX
  8
0
 10
1592.925026
 20
2594.000000
 42
0.024866
  0
VERTEX
  8
0
 10
1591.821414
 20
2593.945082
 42
0.032697
  0
VERTEX
  8
0
 10
1590.826981
 20
2593.779687
 42
0.034334
  0
VERTEX
  8
0
 10
1590.050828
 20
2593.540596
 42
0.181992
  0
VERTEX
  8
0
 10
1589.724478
 20
2593.250000
 42
0.134286
  0
VERTEX
  8
0
 10
1589.591649
 20
2592.645427
 42
0.001517
  0
VERTEX
  8
0
 10
1589.816730
 20
2588.460938
 42
0.004548
  0
VERTEX
  8
0
 10
1590.136593
 20
2583.611787
 42
0.002934
  0
VERTEX
  8
0
 10
1590.591183
 20
2578.000000
 42
-0.000219
  0
VERTEX
  8
0
 10
1591.079476
 20
2572.353240
 42
-0.000322
  0
VERTEX
  8
0
 10
1591.503062
 20
2567.392188
 42
-0.000147
  0
VERTEX
  8
0
 10
1591.860397
 20
2563.160197
 42
-0.006148
  0
VERTEX
  8
0
 10
1591.925722
 20
2562.250000
 42
0.182084
  0
VERTEX
  8
0
 10
1592.138799
 20
2561.772315
 42
0.083382
  0
VERTEX
  8
0
 10
1592.700764
 20
2561.367188
 42
0.066068
  0
VERTEX
  8
0
 10
1593.513105
 20
2561.092294
 42
0.048627
  0
VERTEX
  8
0
 10
1594.459858
 20
2561.000000
 42
0.073404
  0
VERTEX
  8
0
 10
1595.748691
 20
2561.190237
 42
0.130240
  0
VERTEX
  8
0
 10
1596.656880
 20
2561.749696
 42
0.092414
  0
VERTEX
  8
0
 10
1597.362805
 20
2562.838159
 42
0.024994
  0
VERTEX
  8
0
 10
1598.053202
 20
2564.783236
 42
0.000000
  0
VERTEX
  8
0
 10
1599.186687
 20
2568.566473
 42
0.000000
  0
VERTEX
  8
0
 10
1605.224802
 20
2565.573705
 42
0.021690
  0
VERTEX
  8
0
 10
1608.787717
 20
2563.996323
 42
0.038633
  0
VERTEX
  8
0
 10
1611.853358
 20
2563.060811
 42
0.032601
  0
VERTEX
  8
0
 10
1615.361143
 20
2562.517099
 42
0.011223
  0
VERTEX
  8
0
 10
1620.486977
 20
2562.177508
 42
0.065913
  0
VERTEX
  8
0
 10
1635.074637
 20
2563.463465
 42
0.106709
  0
VERTEX
  8
0
 10
1646.339385
 20
2568.659411
 42
0.119380
  0
VERTEX
  8
0
 10
1653.636567
 20
2577.530293
 42
0.096964
  0
VERTEX
  8
0
 10
1656.779787
 20
2589.470291
 42
0.046987
  0
VERTEX
  8
0
 10
1656.541556
 20
2597.457869
 42
0.078137
  0
VERTEX
  8
0
 10
1654.686627
 20
2603.916408
 42
0.085088
  0
VERTEX
  8
0
 10
1651.087080
 20
2609.117327
 42
0.066481
  0
VERTEX
  8
0
 10
1645.664389
 20
2613.350794
 42
0.030719
  0
VERTEX
  8
0
 10
1643.125443
 20
2614.636256
 42
0.006491
  0
VERTEX
  8
0
 10
1638.538628
 20
2616.544644
 42
0.006775
  0
VERTEX
  8
0
 10
1633.152523
 20
2618.619743
 42
0.006382
  0
VERTEX
  8
0
 10
1627.604408
 20
2620.591248
 42
-0.006599
  0
VERTEX
  8
0
 10
1622.199224
 20
2622.514606
 42
-0.008289
  0
VERTEX
  8
0
 10
1617.245554
 20
2624.445299
 42
-0.006835
  0
VERTEX
  8
0
 10
1613.154020
 20
2626.184279
 42
-0.062822
  0
VERTEX
  8
0
 10
1611.503120
 20
2627.176206
 42
-0.134375
  0
VERTEX
  8
0
 10
1608.484967
 20
2631.254291
 42
-0.102414
  0
VERTEX
  8
0
 10
1607.563709
 20
2636.757625
 42
-0.100475
  0
VERTEX
  8
0
 10
1608.902581
 20
2642.263748
 42
-0.124025
  0
VERTEX
  8
0
 10
1612.236562
 20
2646.339706
 42
-0.099747
  0
VERTEX
  8
0
 10
1615.577732
 20
2647.910920
 42
-0.037817
  0
VERTEX
  8
0
 10
1620.686472
 20
2648.762322
 42
-0.037766
  0
VERTEX
  8
0
 10
1626.107870
 20
2648.838462
 42
-0.064419
  0
VERTEX
  8
0
 10
1630.549063
 20
2647.983808
 42
-0.079494
  0
VERTEX
  8
0
 10
1634.602840
 20
2645.886595
 42
-0.044824
  0
VERTEX
  8
0
 10
1638.754838
 20
2642.203129
 42
-0.043551
  0
VERTEX
  8
0
 10
1642.352103
 20
2637.648455
 42
-0.056436
  0
VERTEX
  8
0
 10
1644.754587
 20
2632.903441
 42
0.013907
  0
VERTEX
  8
0
 10
1646.011663
 20
2629.790054
 42
0.082848
  0
VERTEX
  8
0
 10
1646.964105
 20
2628.326368
 42
0.129223
  0
VERTEX
  8
0
 10
1648.142397
 20
2627.568493
 42
0.053899
  0
VERTEX
  8
0
 10
1650.006114
 20
2627.177363
 42
0.000000
  0
VERTEX
  8
0
 10
1653.248804
 20
2626.854727
 42
0.000000
  0
VERTEX
  8
0
 10
1652.589663
 20
2637.677363
 42
0.003418
  0
VERTEX
  8
0
 10
1651.843476
 20
2648.688400
 42
0.036163
  0
VERTEX
  8
0
 10
1651.185293
 20
2653.139901
 42
0.118644
  0
VERTEX
  8
0
 10
1650.166562
 20
2655.220756
 42
0.223446
  0
VERTEX
  8
0
 10
1648.509927
 20
2656.000000
 42
0.077524
  0
VERTEX
  8
0
 10
1647.380018
 20
2655.823750
 42
0.105227
  0
VERTEX
  8
0
 10
1646.486151
 20
2655.312951
 42
0.087301
  0
VERTEX
  8
0
 10
1645.765570
 20
2654.399284
 42
0.039572
  0
VERTEX
  8
0
 10
1645.149845
 20
2653.000000
 42
-0.011996
  0
VERTEX
  8
0
 10
1644.717842
 20
2651.850259
 42
-0.018523
  0
VERTEX
  8
0
 10
1644.284586
 20
2650.881250
 42
-0.013320
  0
VERTEX
  8
0
 10
1643.887207
 20
2650.125592
 42
-0.271390
  0
VERTEX
  8
0
 10
1643.672862
 20
2650.000000
 42
-0.098962
  0
VERTEX
  8
0
 10
1643.364796
 20
2650.061577
 42
-0.001679
  0
VERTEX
  8
0
 10
1641.764873
 20
2650.734093
 42
-0.004225
  0
VERTEX
  8
0
 10
1639.906203
 20
2651.541326
 42
-0.002789
  0
VERTEX
  8
0
 10
1637.783060
 20
2652.499041
 42
0.052407
  0
VERTEX
  8
0
 10
1632.117680
 20
2654.405551
 42
0.034255
  0
VERTEX
  8
0
 10
1625.296325
 20
2655.446364
 42
0.034078
  0
VERTEX
  8
0
 10
1618.337136
 20
2655.549382
 42
0.048983
  0
SEQEND
  0
POLYLINE
  8
0
 66
1
 70
1
  0
VERTEX
  8
0
 10
1705.058796
 20
2654.511251
 42
0.085693
  0
VERTEX
  8
0
 10
1689.578969
 20
2648.068319
 42
0.102317
  0
VERTEX
  8
0
 10
1678.245735
 20
2637.094233
 42
0.096461
  0
VERTEX
  8
0
 10
1671.756664
 20
2621.967809
 42
0.068330
  0
VERTEX
  8
0
 10
1670.341668
 20
2603.500000
 42
0.027520
  0
VERTEX
  8
0
 10
1671.263121
 20
2595.522949
 42
0.039530
  0
VERTEX
  8
0
 10
1673.015522
 20
2588.632640
 42
0.042873
  0
VERTEX
  8
0
 10
1675.688093
 20
2582.546313
 42
0.042524
  0
VERTEX
  8
0
 10
1679.365748
 20
2576.987179
 42
0.063297
  0
VERTEX
  8
0
 10
1686.058259
 20
2570.433462
 42
0.062645
  0
VERTEX
  8
0
 10
1694.199827
 20
2565.735429
 42
0.057828
  0
VERTEX
  8
0
 10
1703.836018
 20
2562.936160
 42
0.042169
  0
VERTEX
  8
0
 10
1714.960099
 20
2562.011869
 42
0.069580
  0
VERTEX
  8
0
 10
1730.935012
 20
2564.268402
 42
0.094068
  0
VERTEX
  8
0
 10
1743.930567
 20
2570.818243
 42
0.094867
  0
VERTEX
  8
0
 10
1753.546222
 20
2581.623796
 42
0.071932
  0
VERTEX
  8
0
 10
1759.656335
 20
2596.303774
 42
0.049796
  0
VERTEX
  8
0
 10
1760.805033
 20
2603.838727
 42
0.024289
  0
VERTEX
  8
0
 10
1760.836244
 20
2613.574041
 42
0.024177
  0
VERTEX
  8
0
 10
1759.938254
 20
2623.128953
 42
0.057928
  0
VERTEX
  8
0
 10
1758.126740
 20
2630.000000
 42
0.049961
  0
VERTEX
  8
0
 10
1754.114171
 20
2637.834280
 42
0.056951
  0
VERTEX
  8
0
 10
1748.772776
 20
2644.346244
 42
0.057165
  0
VERTEX
  8
0
 10
1742.118728
 20
2649.466350
 42
0.050958
  0
VERTEX
  8
0
 10
1734.221975
 20
2653.182185
 42
0.046878
  0
VERTEX
  8
0
 10
1727.885970
 20
2654.761610
 42
0.026274
  0
VERTEX
  8
0
 10
1719.979110
 20
2655.539587
 42
0.026132
  0
VERTEX
  8
0
 10
1711.912411
 20
2655.485460
 42
0.041142
  0
SEQEND
  0
POLYLINE
  8
0
 66
1
 70
1
  0
VERTEX
  8
0
 10
1723.634170
 20
2646.081401
 42
-0.083949
  0
VERTEX
  8
0
 10
1728.435721
 20
2641.911752
 42
-0.069347
  0
VERTEX
  8
0
 10
1731.981554
 20
2636.125004
 42
-0.052781
  0
VERTEX
  8
0
 10
1734.487710
 20
2628.186843
 42
-0.023819
  0
VERTEX
  8
0
 10
1736.150450
 20
2617.383714
 42
-0.024755
  0
VERTEX
  8
0
 10
1736.625381
 20
2608.848336
 42
-0.017046
  0
VERTEX
  8
0
 10
1736.354098
 20
2599.163433
 42
-0.017202
  0
VERTEX
  8
0
 10
1735.459784
 20
2589.924029
 42
-0.036404
  0
VERTEX
  8
0
 10
1734.005446
 20
2582.882369
 42
-0.094310
  0
VERTEX
  8
0
 10
1730.238900
 20
2575.365482
 42
-0.121387
  0
VERTEX
  8
0
 10
1724.233748
 20
2570.542722
 42
-0.124483
  0
VERTEX
  8
0
 10
1716.797470
 20
2569.133024
 42
-0.102336
  0
VERTEX
  8
0
 10
1708.975265
 20
2571.250000
 42
-0.112950
  0
VERTEX
  8
0
 10
1702.703828
 20
2576.460006
 42
-0.079684
  0
VERTEX
  8
0
 10
1698.346286
 20
2584.559086
 42
-0.057873
  0
VERTEX
  8
0
 10
1695.798617
 20
2596.007927
 42
-0.025841
  0
VERTEX
  8
0
 10
1695.000000
 20
2611.449864
 42
-0.020438
  0
VERTEX
  8
0
 10
1695.549482
 20
2624.887077
 42
-0.052125
  0
VERTEX
  8
0
 10
1697.349397
 20
2634.457688
 42
-0.074400
  0
VERTEX
  8
0
 10
1700.526393
 20
2641.231031
 42
-0.103878
  0
VERTEX
  8
0
 10
1705.284283
 20
2645.906658
 42
-0.092244
  0
VERTEX
  8
0
 10
1709.187773
 20
2647.491603
 42
-0.048089
  0
VERTEX
  8
0
 10
1714.428540
 20
2648.047230
 42
-0.048071
  0
VERTEX
  8
0
 10
1719.684040
 20
2647.591253
 42
-0.091494
  0
SEQEND
  0
POLYLINE
  8
0
 66
1
 70
1
  0
VERTEX
  8
0
 10
1828.950561
 20
2654.701535
 42
0.051906
  0
VERTEX
  8
0
 10
1823.130639
 20
2652.376165
 42
0.045652
  0
VERTEX
  8
0
 10
1817.639466
 20
2648.817012
 42
0.046692
  0
VERTEX
  8
0
 10
1813.013923
 20
2644.423862
 42
0.062060
  0
VERTEX
  8
0
 10
1809.771139
 20
2639.621114
 42
-0.041347
  0
VERTEX
  8
0
 10
1808.885682
 20
2638.185183
 42
-0.589257
  0
VERTEX
  8
0
 10
1808.411931
 20
2638.246822
 42
-0.071213
  0
VERTEX
  8
0
 10
1808.098824
 20
2639.558836
 42
-0.002219
  0
VERTEX
  8
0
 10
1807.613833
 20
2645.078472
 42
0.004361
  0
VERTEX
  8
0
 10
1807.316452
 20
2648.304346
 42
0.006695
  0
VERTEX
  8
0
 10
1806.997215
 20
2651.091567
 42
0.002717
  0
VERTEX
  8
0
 10
1806.680443
 20
2653.461706
 42
0.163201
  0
VERTEX
  8
0
 10
1806.490968
 20
2653.842365
 42
0.205067
  0
VERTEX
  8
0
 10
1806.087639
 20
2654.003868
 42
0.000928
  0
VERTEX
  8
0
 10
1801.406204
 20
2653.884421
 42
0.004151
  0
VERTEX
  8
0
 10
1796.054224
 20
2653.693457
 42
0.002584
  0
VERTEX
  8
0
 10
1789.781660
 20
2653.385007
 42
0.000000
  0
VERTEX
  8
0
 10
1773.500000
 20
2652.500000
 42
0.000000
  0
VERTEX
  8
0
 10
1773.190353
 20
2649.820217
 42
0.054787
  0
VERTEX
  8
0
 10
1773.181678
 20
2648.264234
 42
0.208909
  0
VERTEX
  8
0
 10
1773.649614
 20
2647.438914
 42
0.113745
  0
VERTEX
  8
0
 10
1774.785759
 20
2646.936164
 42
0.011770
  0
VERTEX
  8
0
 10
1777.690353
 20
2646.447890
 42
-0.093753
  0
VERTEX
  8
0
 10
1782.781626
 20
2644.704189
 42
-0.213454
  0
VERTEX
  8
0
 10
1785.135657
 20
2641.497681
 42
-0.051354
  0
VERTEX
  8
0
 10
1785.901011
 20
2634.571825
 42
-0.001860
  0
VERTEX
  8
0
 10
1786.000000
 20
2607.967457
 42
-0.001603
  0
VERTEX
  8
0
 10
1785.944371
 20
2590.613409
 42
-0.007136
  0
VERTEX
  8
0
 10
1785.733634
 20
2580.426009
 42
-0.005254
  0
VERTEX
  8
0
 10
1785.420369
 20
2573.540120
 42
-0.210259
  0
VERTEX
  8
0
 10
1784.750000
 20
2572.221876
 42
-0.075685
  0
VERTEX
  8
0
 10
1783.989852
 20
2571.771593
 42
-0.016192
  0
VERTEX
  8
0
 10
1782.545312
 20
2571.242127
 42
-0.016572
  0
VERTEX
  8
0
 10
1780.814441
 20
2570.733513
 42
-0.015116
  0
VERTEX
  8
0
 10
1779.000000
 20
2570.323129
 42
0.018316
  0
VERTEX
  8
0
 10
1776.504572
 20
2569.741911
 42
0.094360
  0
VERTEX
  8
0
 10
1775.234761
 20
2569.122837
 42
0.142329
  0
VERTEX
  8
0
 10
1774.546831
 20
2568.210831
 42
0.062038
  0
VERTEX
  8
0
 10
1774.183578
 20
2566.723697
 42
0.000000
  0
VERTEX
  8
0
 10
1773.867155
 20
2564.000000
 42
0.000000
  0
VERTEX
  8
0
 10
1797.500000
 20
2564.000000
 42
0.000000
  0
VERTEX
  8
0
 10
1821.132845
 20
2564.000000
 42
0.000000
  0
VERTEX
  8
0
 10
1820.816422
 20
2566.723697
 42
0.061718
  0
VERTEX
  8
0
 10
1820.453842
 20
2568.212196
 42
0.143500
  0
VERTEX
  8
0
 10
1819.767884
 20
2569.119665
 42
0.094969
  0
VERTEX
  8
0
 10
1818.500568
 20
2569.730449
 42
0.018213
  0
VERTEX
  8
0
 10
1816.000000
 20
2570.298327
 42
-0.026751
  0
VERTEX
  8
0
 10
1814.185666
 20
2570.743052
 42
-0.027879
  0
VERTEX
  8
0
 10
1812.454688
 20
2571.374144
 42
-0.028986
  0
VERTEX
  8
0
 10
1811.030007
 20
2572.085884
 42
-0.098138
  0
VERTEX
  8
0
 10
1810.250000
 20
2572.765759
 42
-0.163255
  0
VERTEX
  8
0
 10
1809.152349
 20
2575.923127
 42
-0.001693
  0
VERTEX
  8
0
 10
1808.973630
 20
2599.633097
 42
-0.003433
  0
VERTEX
  8
0
 10
1809.034770
 20
2622.167550
 42
-0.065434
  0
VERTEX
  8
0
 10
1810.016032
 20
2629.117631
 42
-0.044955
  0
VERTEX
  8
0
 10
1811.306391
 20
2632.537562
 42
-0.035794
  0
VERTEX
  8
0
 10
1813.274563
 20
2635.957607
 42
-0.036103
  0
VERTEX
  8
0
 10
1815.685366
 20
2639.026161
 42
-0.048798
  0
VERTEX
  8
0
 10
1818.300734
 20
2641.391181
 42
-0.056948
  0
VERTEX
  8
0
 10
1820.036296
 20
2642.393865
 42
-0.043605
  0
VERTEX
  8
0
 10
1822.115999
 20
2643.089885
 42
-0.032753
  0
VERTEX
  8
0
 10
1824.808267
 20
2643.552916
 42
-0.013596
  0
VERTEX
  8
0
 10
1828.489957
 20
2643.839360
 42
-0.008738
  0
VERTEX
  8
0
 10
1832.901688
 20
2643.984907
 42
-0.056492
  0
VERTEX
  8
0
 10
1835.114505
 20
2643.768781
 42
-0.095226
  0
VERTEX
  8
0
 10
1836.692054
 20
2643.101608
 42
-0.048892
  0
VERTEX
  8
0
 10
1838.356953
 20
2641.733956
 42
-0.044395
  0
VERTEX
  8
0
 10
1839.384693
 20
2640.505491
 42
-0.024495
  0
VERTEX
  8
0
 10
1840.423677
 20
2638.844430
 42
-0.024244
  0
VERTEX
  8
0
 10
1841.319250
 20
2637.043609
 42
-0.035560
  0
VERTEX
  8
0
 10
1841.912153
 20
2635.377725
 42
-0.064994
  0
VERTEX
  8
0
 10
1842.773006
 20
2629.314328
 42
-0.001817
  0
VERTEX
  8
0
 10
1842.974118
 20
2602.828893
 42
-0.000936
  0
VERTEX
  8
0
 10
1843.031736
 20
2575.222216
 42
-0.142386
  0
VERTEX
  8
0
 10
1842.162168
 20
2572.228152
 42
-0.132151
  0
VERTEX
  8
0
 10
1841.574458
 20
2571.688829
 42
-0.027763
  0
VERTEX
  8
0
 10
1840.291506
 20
2571.109424
 42
-0.027297
  0
VERTEX
  8
0
 10
1838.681658
 20
2570.586448
 42
-0.022902
  0
VERTEX
  8
0
 10
1836.927480
 20
2570.205714
 42
0.018410
  0
VERTEX
  8
0
 10
1834.456749
 20
2569.692645
 42
0.098085
  0
VERTEX
  8
0
 10
1833.213788
 20
2569.111868
 42
0.146926
  0
VERTEX
  8
0
 10
1832.541046
 20
2568.220240
 42
0.059852
  0
VERTEX
  8
0
 10
1832.183578
 20
2566.727561
 42
0.000000
  0
VERTEX
  8
0
 10
1831.867155
 20
2564.000000
 42
0.000000
  0
VERTEX
  8
0
 10
1855.500000
 20
2564.000000
 42
0.000000
  0
VERTEX
  8
0
 10
1879.132845
 20
2564.000000
 42
0.000000
  0
VERTEX
  8
0
 10
1878.816422
 20
2566.745648
 42
0.064716
  0
VERTEX
  8
0
 10
1878.431715
 20
2568.290964
 42
0.158809
  0
VERTEX
  8
0
 10
1877.696837
 20
2569.184579
 42
0.090162
  0
VERTEX
  8
0
 10
1876.287533
 20
2569.760160
 42
0.012745
  0
VERTEX
  8
0
 10
1873.192787
 20
2570.331029
 42
-0.016830
  0
VERTEX
  8
0
 10
1870.381239
 20
2570.873437
 42
-0.066094
  0
VERTEX
  8
0
 10
1868.729745
 20
2571.487969
 42
-0.102235
  0
VERTEX
  8
0
 10
1867.682817
 20
2572.355542
 42
-0.078089
  0
VERTEX
  8
0
 10
1866.942787
 20
2573.650481
 42
-0.081098
  0
VERTEX
  8
0
 10
1866.565421
 20
2575.498045
 42
-0.002243
  0
VERTEX
  8
0
 10
1866.276944
 20
2583.701218
 42
-0.004559
  0
VERTEX
  8
0
 10
1866.068399
 20
2593.377799
 42
-0.003107
  0
VERTEX
  8
0
 10
1866.000000
 20
2604.383598
 42
0.004686
  0
VERTEX
  8
0
 10
1865.803546
 20
2625.344699
 42
0.034722
  0
VERTEX
  8
0
 10
1864.924966
 20
2635.284550
 42
0.072937
  0
VERTEX
  8
0
 10
1862.935839
 20
2641.642857
 42
0.071222
  0
VERTEX
  8
0
 10
1859.193564
 20
2647.219800
 42
0.028603
  0
VERTEX
  8
0
 10
1857.467171
 20
2648.928975
 42
0.019530
  0
VERTEX
  8
0
 10
1855.327216
 20
2650.674177
 42
0.019728
  0
VERTEX
  8
0
 10
1853.124361
 20
2652.199521
 42
0.037122
  0
VERTEX
  8
0
 10
1851.218236
 20
2653.221058
 42
0.057698
  0
VERTEX
  8
0
 10
1846.436767
 20
2654.713210
 42
0.030218
  0
VERTEX
  8
0
 10
1840.244452
 20
2655.502669
 42
0.030197
  0
VERTEX
  8
0
 10
1833.976250
 20
2655.540358
 42
0.055567
  0
SEQEND
  0
POLYLINE
  8
0
 66
1
 70
1
  0
VERTEX
  8
0
 10
2064.147616
 20
2654.997739
 42
0.054427
  0
VERTEX
  8
0
 10
2053.384106
 20
2652.158748
 42
0.074516
  0
VERTEX
  8
0
 10
2044.677395
 20
2647.226746
 42
0.087263
  0
VERTEX
  8
0
 10
2038.798771
 20
2640.691609
 42
0.116190
  0
VERTEX
  8
0
 10
2036.240664
 20
2633.152842
 42
0.021526
  0
VERTEX
  8
0
 10
2036.099588
 20
2630.480738
 42
0.067817
  0
VERTEX
  8
0
 10
2036.324153
 20
2628.704019
 42
0.077777
  0
VERTEX
  8
0
 10
2036.994731
 20
2627.187749
 42
0.034696
  0
VERTEX
  8
0
 10
2038.303791
 20
2625.433210
 42
0.038495
  0
VERTEX
  8
0
 10
2039.930964
 20
2623.812268
 42
0.094099
  0
VERTEX
  8
0
 10
2041.393374
 20
2622.977116
 42
0.068949
  0
VERTEX
  8
0
 10
2043.327787
 20
2622.597950
 42
0.013970
  0
VERTEX
  8
0
 10
2046.832852
 20
2622.500000
 42
0.015585
  0
VERTEX
  8
0
 10
2050.098794
 20
2622.601822
 42
0.053261
  0
VERTEX
  8
0
 10
2052.191274
 20
2622.958328
 42
0.072014
  0
VERTEX
  8
0
 10
2053.809978
 20
2623.679168
 42
0.047900
  0
VERTEX
  8
0
 10
2055.419436
 20
2624.924314
 42
0.100065
  0
VERTEX
  8
0
 10
2057.397036
 20
2627.711224
 42
0.121603
  0
VERTEX
  8
0
 10
2057.955076
 20
2630.855304
 42
0.092528
  0
VERTEX
  8
0
 10
2057.007488
 20
2634.552678
 42
0.039251
  0
VERTEX
  8
0
 10
2054.482289
 20
2639.026318
 42
-0.006934
  0
VERTEX
  8
0
 10
2052.375935
 20
2642.252042
 42
-0.075855
  0
VERTEX
  8
0
 10
2051.755868
 20
2643.666357
 42
-0.202423
  0
VERTEX
  8
0
 10
2051.889038
 20
2644.627452
 42
-0.099788
  0
VERTEX
  8
0
 10
2052.732289
 20
2645.558321
 42
-0.096483
  0
VERTEX
  8
0
 10
2058.048900
 20
2648.083768
 42
-0.044801
  0
VERTEX
  8
0
 10
2065.621568
 20
2649.317851
 42
-0.044547
  0
VERTEX
  8
0
 10
2073.049549
 20
2649.191324
 42
-0.134419
  0
VERTEX
  8
0
 10
2077.723023
 20
2647.360862
 42
-0.064935
  0
VERTEX
  8
0
 10
2081.016445
 20
2644.165861
 42
-0.088392
  0
VERTEX
  8
0
 10
2082.976886
 20
2640.530349
 42
-0.055887
  0
VERTEX
  8
0
 10
2084.080488
 20
2635.263917
 42
-0.012616
  0
VERTEX
  8
0
 10
2084.718214
 20
2626.125954
 42
0.000000
  0
VERTEX
  8
0
 10
2085.293949
 20
2613.180639
 42
0.000000
  0
VERTEX
  8
0
 10
2079.396974
 20
2612.583925
 42
0.011166
  0
VERTEX
  8
0
 10
2064.334133
 20
2610.719091
 42
0.034028
  0
VERTEX
  8
0
 10
2054.266013
 20
2608.535885
 42
0.050261
  0
VERTEX
  8
0
 10
2047.072842
 20
2605.646098
 42
0.071173
  0
VERTEX
  8
0
 10
2041.483622
 20
2601.617386
 42
0.047696
  0
VERTEX
  8
0
 10
2038.495832
 20
2598.133003
 42
0.061033
  0
VERTEX
  8
0
 10
2036.502187
 20
2594.409543
 42
0.057026
  0
VERTEX
  8
0
 10
2035.379178
 20
2590.114536
 42
0.035165
  0
VERTEX
  8
0
 10
2035.005577
 20
2584.899223
 42
0.060983
  0
VERTEX
  8
0
 10
2035.823019
 20
2578.154124
 42
0.077767
  0
VERTEX
  8
0
 10
2038.245697
 20
2572.385999
 42
0.079631
  0
VERTEX
  8
0
 10
2042.258549
 20
2567.734152
 42
0.067791
  0
VERTEX
  8
0
 10
2047.739970
 20
2564.261508
 42
0.022699
  0
VERTEX
  8
0
 10
2051.059455
 20
2562.920458
 42
0.048259
  0
VERTEX
  8
0
 10
2053.746177
 20
2562.256956
 42
0.038408
  0
VERTEX
  8
0
 10
2056.872333
 20
2562.041251
 42
0.009972
  0
VERTEX
  8
0
 10
2061.916709
 20
2562.181675
 42
0.036514
  0
VERTEX
  8
0
 10
2069.085014
 20
2563.051623
 42
0.066937
  0
VERTEX
  8
0
 10
2074.646994
 20
2564.940842
 42
0.073436
  0
VERTEX
  8
0
 10
2079.168738
 20
2568.085870
 42
0.053507
  0
VERTEX
  8
0
 10
2083.163728
 20
2572.737970
 42
0.000000
  0
VERTEX
  8
0
 10
2086.391257
 20
2577.429023
 42
0.000000
  0
VERTEX
  8
0
 10
2087.279535
 20
2574.001046
 42
0.049993
  0
VERTEX
  8
0
 10
2088.560362
 20
2570.529460
 42
0.053164
  0
VERTEX
  8
0
 10
2090.484408
 20
2567.457715
 42
0.056186
  0
VERTEX
  8
0
 10
2092.895468
 20
2565.011034
 42
0.071295
  0
VERTEX
  8
0
 10
2095.616538
 20
2563.386861
 42
0.105478
  0
VERTEX
  8
0
 10
2103.614167
 20
2561.885209
 42
0.067933
  0
VERTEX
  8
0
 10
2112.960151
 20
2563.395704
 42
0.075606
  0
VERTEX
  8
0
 10
2120.500230
 20
2567.008412
 42
0.248179
  0
VERTEX
  8
0
 10
2123.000000
 20
2571.734443
 42
0.039306
  0
VERTEX
  8
0
 10
2122.892275
 20
2573.102667
 42
0.236905
  0
VERTEX
  8
0
 10
2122.489046
 20
2573.664658
 42
0.160076
  0
VERTEX
  8
0
 10
2121.678992
 20
2573.800149
 42
0.016521
  0
VERTEX
  8
0
 10
2119.750000
 20
2573.439613
 42
-0.030567
  0
VERTEX
  8
0
 10
2116.140598
 20
2572.869356
 42
-0.052259
  0
VERTEX
  8
0
 10
2113.093451
 20
2572.896295
 42
-0.067145
  0
VERTEX
  8
0
 10
2110.752352
 20
2573.487479
 42
-0.140407
  0
VERTEX
  8
0
 10
2109.280936
 20
2574.630475
 42
-0.135049
  0
VERTEX
  8
0
 10
2108.633088
 20
2576.336614
 42
-0.010767
  0
VERTEX
  8
0
 10
2108.278288
 20
2581.195478
 42
-0.009966
  0
VERTEX
  8
0
 10
2108.051002
 20
2588.425276
 42
-0.002661
  0
VERTEX
  8
0
 10
2107.979893
 20
2599.941130
 42
0.003516
  0
VERTEX
  8
0
 10
2107.905116
 20
2609.424985
 42
0.004091
  0
VERTEX
  8
0
 10
2107.696878
 20
2618.438742
 42
0.003643
  0
VERTEX
  8
0
 10
2107.402845
 20
2626.059089
 42
0.024441
  0
VERTEX
  8
0
 10
2107.044671
 20
2629.829057
 42
0.076148
  0
VERTEX
  8
0
 10
2103.818726
 20
2640.422685
 42
0.109334
  0
VERTEX
  8
0
 10
2097.783182
 20
2648.113291
 42
0.099461
  0
VERTEX
  8
0
 10
2088.592319
 20
2653.007619
 42
0.054545
  0
VERTEX
  8
0
 10
2076.000000
 20
2655.326022
 42
0.015023
  0
VERTEX
  8
0
 10
2073.121038
 20
2655.450031
 42
0.010174
  0
VERTEX
  8
0
 10
2069.837112
 20
2655.425915
 42
0.010257
  0
VERTEX
  8
0
 10
2066.662481
 20
2655.272768
 42
0.020108
  0
SEQEND
  0
POLYLINE
  8
0
 66
1
 70
1
  0
VERTEX
  8
0
 10
2084.784188
 20
2595.093947
 42
-0.006717
  0
VERTEX
  8
0
 10
2084.451148
 20
2588.999950
 42
-0.022080
  0
VERTEX
  8
0
 10
2084.000205
 20
2584.997133
 42
-0.033519
  0
VERTEX
  8
0
 10
2083.353070
 20
2582.148064
 42
-0.059917
  0
VERTEX
  8
0
 10
2082.396920
 20
2579.948478
 42
-0.049183
  0
VERTEX
  8
0
 10
2080.064207
 20
2576.735833
 42
-0.074374
  0
VERTEX
  8
0
 10
2077.416664
 20
2574.523860
 42
-0.076850
  0
VERTEX
  8
0
 10
2074.305553
 20
2573.229972
 42
-0.056464
  0
VERTEX
  8
0
 10
2070.595001
 20
2572.752696
 42
-0.062526
  0
VERTEX
  8
0
 10
2066.594665
 20
2573.193599
 42
-0.091910
  0
VERTEX
  8
0
 10
2063.370290
 20
2574.625664
 42
-0.093477
  0
VERTEX
  8
0
 10
2060.910730
 20
2577.096498
 42
-0.066763
  0
VERTEX
  8
0
 10
2059.162436
 20
2580.595512
 42
-0.066471
  0
VERTEX
  8
0
 10
2058.282367
 20
2584.998190
 42
-0.038100
  0
VERTEX
  8
0
 10
2058.345383
 20
2590.422992
 42
-0.038119
  0
VERTEX
  8
0
 10
2059.193769
 20
2595.550270
 42
-0.100412
  0
VERTEX
  8
0
 10
2060.773585
 20
2598.903100
 42
-0.081744
  0
VERTEX
  8
0
 10
2064.159526
 20
2602.167888
 42
-0.058666
  0
VERTEX
  8
0
 10
2068.813142
 20
2604.631344
 42
-0.050613
  0
VERTEX
  8
0
 10
2074.605168
 20
2606.225143
 42
-0.034816
  0
VERTEX
  8
0
 10
2081.387269
 20
2606.890434
 42
0.000000
  0
VERTEX
  8
0
 10
2085.274537
 20
2607.000000
 42
0.000000
  0
SEQEND
  0
POLYLINE
  8
0
 66
1
 70
1
  0
VERTEX
  8
0
 10
2256.000000
 20
2654.857632
 42
0.057255
  0
VERTEX
  8
0
 10
2247.386337
 20
2652.398456
 42
0.046797
  0
VERTEX
  8
0
 10
2238.908939
 20
2647.920092
 42
0.047707
  0
VERTEX
  8
0
 10
2231.596495
 20
2642.068547
 42
0.067726
  0
VERTEX
  8
0
 10
2226.461639
 20
2635.524753
 42
0.064512
  0
VERTEX
  8
0
 10
2221.820136
 20
2624.584575
 42
0.050718
  0
VERTEX
  8
0
 10
2219.626010
 20
2611.882676
 42
0.049899
  0
VERTEX
  8
0
 10
2220.019677
 20
2598.769301
 42
0.057136
  0
VERTEX
  8
0
 10
2223.046275
 20
2586.605866
 42
0.073667
  0
VERTEX
  8
0
 10
2227.424644
 20
2578.687424
 42
0.059296
  0
VERTEX
  8
0
 10
2234.208444
 20
2571.700021
 42
0.057229
  0
VERTEX
  8
0
 10
2242.712078
 20
2566.280663
 42
0.058596
  0
VERTEX
  8
0
 10
2252.156477
 20
2562.982238
 42
0.046664
  0
VERTEX
  8
0
 10
2259.169627
 20
2562.096119
 42
0.023982
  0
VERTEX
  8
0
 10
2268.032480
 20
2562.233780
 42
0.023892
  0
VERTEX
  8
0
 10
2276.688204
 20
2563.200828
 42
0.055864
  0
VERTEX
  8
0
 10
2282.957637
 20
2564.940329
 42
0.093729
  0
VERTEX
  8
0
 10
2295.803520
 20
2573.159147
 42
0.087568
  0
VERTEX
  8
0
 10
2305.125822
 20
2585.679368
 42
0.081979
  0
VERTEX
  8
0
 10
2310.017246
 20
2601.394977
 42
0.069169
  0
VERTEX
  8
0
 10
2310.017817
 20
2618.833354
 42
0.094556
  0
VERTEX
  8
0
 10
2304.131756
 20
2636.208057
 42
0.117396
  0
VERTEX
  8
0
 10
2292.544616
 20
2648.673165
 42
0.110896
  0
VERTEX
  8
0
 10
2276.018824
 20
2655.031111
 42
0.077680
  0
SEQEND
  0
POLYLINE
  8
0
 66
1
 70
1
  0
VERTEX
  8
0
 10
2273.015602
 20
2646.157028
 42
-0.091536
  0
VERTEX
  8
0
 10
2276.353990
 20
2643.517181
 42
-0.044040
  0
VERTEX
  8
0
 10
2279.585293
 20
2639.095889
 42
-0.040800
  0
VERTEX
  8
0
 10
2282.302570
 20
2633.632785
 42
-0.040454
  0
VERTEX
  8
0
 10
2284.105819
 20
2627.785517
 42
-0.028445
  0
VERTEX
  8
0
 10
2284.691213
 20
2624.190100
 42
-0.010347
  0
VERTEX
  8
0
 10
2285.123744
 20
2619.042809
 42
-0.009328
  0
VERTEX
  8
0
 10
2285.398070
 20
2612.880430
 42
-0.006729
  0
VERTEX
  8
0
 10
2285.483219
 20
2606.000000
 42
-0.013541
  0
VERTEX
  8
0
 10
2285.161065
 20
2594.564157
 42
-0.035809
  0
VERTEX
  8
0
 10
2284.126184
 20
2586.448388
 42
-0.049447
  0
VERTEX
  8
0
 10
2282.238699
 20
2580.286250
 42
-0.063173
  0
VERTEX
  8
0
 10
2279.279206
 20
2575.143895
 42
-0.092284
  0
VERTEX
  8
0
 10
2275.162246
 20
2571.397165
 42
-0.091349
  0
VERTEX
  8
0
 10
2269.958453
 20
2569.366152
 42
-0.086812
  0
VERTEX
  8
0
 10
2264.145077
 20
2569.268888
 42
-0.073728
  0
VERTEX
  8
0
 10
2258.279116
 20
2571.106928
 42
-0.065238
  0
VERTEX
  8
0
 10
2254.592266
 20
2573.528404
 42
-0.061359
  0
VERTEX
  8
0
 10
2251.566403
 20
2576.863593
 42
-0.050614
  0
VERTEX
  8
0
 10
2249.008107
 20
2581.404106
 42
-0.026289
  0
VERTEX
  8
0
 10
2246.717822
 20
2587.500000
 42
-0.024146
  0
VERTEX
  8
0
 10
2245.536270
 20
2591.967748
 42
-0.029537
  0
VERTEX
  8
0
 10
2244.885556
 20
2596.238446
 42
-0.018886
  0
VERTEX
  8
0
 10
2244.580163
 20
2601.848863
 42
-0.004153
  0
VERTEX
  8
0
 10
2244.500000
 20
2611.500000
 42
-0.016956
  0
VERTEX
  8
0
 10
2244.990971
 20
2625.973464
 42
-0.059468
  0
VERTEX
  8
0
 10
2246.718680
 20
2635.123953
 42
-0.091878
  0
VERTEX
  8
0
 10
2250.036021
 20
2641.363594
 42
-0.088055
  0
VERTEX
  8
0
 10
2255.411303
 20
2646.109054
 42
-0.089731
  0
VERTEX
  8
0
 10
2259.087776
 20
2647.529136
 42
-0.046759
  0
VERTEX
  8
0
 10
2263.994940
 20
2648.002543
 42
-0.046329
  0
VERTEX
  8
0
 10
2269.004289
 20
2647.551149
 42
-0.076161
  0
SEQEND
  0
POLYLINE
  8
0
 66
1
 70
1
  0
VERTEX
  8
0
 10
2377.623988
 20
2654.427443
 42
0.045066
  0
VERTEX
  8
0
 10
2371.473305
 20
2651.827102
 42
0.047571
  0
VERTEX
  8
0
 10
2366.006658
 20
2648.205357
 42
0.050335
  0
VERTEX
  8
0
 10
2361.607554
 20
2643.846691
 42
0.066388
  0
VERTEX
  8
0
 10
2358.627000
 20
2639.059172
 42
-0.128937
  0
VERTEX
  8
0
 10
2358.046452
 20
2638.342322
 42
-0.526493
  0
VERTEX
  8
0
 10
2357.610398
 20
2638.494425
 42
-0.048353
  0
VERTEX
  8
0
 10
2357.318382
 20
2640.202623
 42
-0.003426
  0
VERTEX
  8
0
 10
2357.000000
 20
2645.032075
 42
0.000000
  0
VERTEX
  8
0
 10
2356.500000
 20
2653.500000
 42
0.000000
  0
VERTEX
  8
0
 10
2340.000000
 20
2653.160222
 42
0.000901
  0
VERTEX
  8
0
 10
2333.661556
 20
2653.018271
 42
0.001479
  0
VERTEX
  8
0
 10
2328.297315
 20
2652.872586
 42
0.000130
  0
VERTEX
  8
0
 10
2323.494062
 20
2652.726664
 42
0.185924
  0
VERTEX
  8
0
 10
2323.331284
 20
2652.658172
 42
0.127178
  0
VERTEX
  8
0
 10
2323.244602
 20
2652.517382
 42
0.002843
  0
VERTEX
  8
0
 10
2323.013014
 20
2651.750237
 42
0.006240
  0
VERTEX
  8
0
 10
2322.756712
 20
2650.841901
 42
0.004158
  0
VERTEX
  8
0
 10
2322.484735
 20
2649.795201
 42
0.045754
  0
VERTEX
  8
0
 10
2322.231153
 20
2648.166556
 42
0.247234
  0
VERTEX
  8
0
 10
2322.585779
 20
2647.376128
 42
0.124534
  0
VERTEX
  8
0
 10
2323.638136
 20
2646.910551
 42
0.009213
  0
VERTEX
  8
0
 10
2326.775402
 20
2646.435406
 42
-0.019810
  0
VERTEX
  8
0
 10
2330.994617
 20
2645.704632
 42
-0.115104
  0
VERTEX
  8
0
 10
2333.023389
 20
2644.748745
 42
-0.142476
  0
VERTEX
  8
0
 10
2334.201282
 20
2643.092652
 42
-0.036111
  0
VERTEX
  8
0
 10
2335.068458
 20
2639.871757
 42
-0.045532
  0
VERTEX
  8
0
 10
2335.745487
 20
2633.110851
 42
-0.001744
  0
VERTEX
  8
0
 10
2335.879771
 20
2607.851482
 42
-0.001858
  0
VERTEX
  8
0
 10
2335.832337
 20
2582.720650
 42
-0.041849
  0
VERTEX
  8
0
 10
2335.186161
 20
2575.500000
 42
-0.027158
  0
VERTEX
  8
0
 10
2334.616405
 20
2573.035609
 42
-0.150238
  0
VERTEX
  8
0
 10
2333.879566
 20
2571.910342
 42
-0.116271
  0
VERTEX
  8
0
 10
2332.543850
 20
2571.246404
 42
-0.013452
  0
VERTEX
  8
0
 10
2329.243790
 20
2570.567511
 42
0.011663
  0
VERTEX
  8
0
 10
2326.100862
 20
2569.932657
 42
0.099873
  0
VERTEX
  8
0
 10
2324.798026
 20
2569.348151
 42
0.181034
  0
VERTEX
  8
0
 10
2324.190968
 20
2568.445008
 42
0.058469
  0
VERTEX
  8
0
 10
2324.000000
 20
2566.817511
 42
0.000000
  0
VERTEX
  8
0
 10
2324.000000
 20
2564.000000
 42
0.000000
  0
VERTEX
  8
0
 10
2347.000000
 20
2564.000000
 42
0.000000
  0
VERTEX
  8
0
 10
2370.000000
 20
2564.000000
 42
0.000000
  0
VERTEX
  8
0
 10
2370.000000
 20
2566.868331
 42
0.045808
  0
VERTEX
  8
0
 10
2369.850000
 20
2568.502169
 42
0.175903
  0
VERTEX
  8
0
 10
2369.341003
 20
2569.368210
 42
0.122456
  0
VERTEX
  8
0
 10
2368.271234
 20
2569.881683
 42
0.017621
  0
VERTEX
  8
0
 10
2365.862417
 20
2570.291628
 42
-0.089696
  0
VERTEX
  8
0
 10
2361.540383
 20
2571.686800
 42
-0.201528
  0
VERTEX
  8
0
 10
2359.409072
 20
2574.312130
 42
-0.063823
  0
VERTEX
  8
0
 10
2358.545720
 20
2579.776268
 42
-0.003765
  0
VERTEX
  8
0
 10
2358.180704
 20
2596.591008
 42
-0.004498
  0
VERTEX
  8
0
 10
2358.133538
 20
2605.696312
 42
-0.005096
  0
VERTEX
  8
0
 10
2358.255867
 20
2614.429455
 42
-0.004661
  0
VERTEX
  8
0
 10
2358.504518
 20
2621.844784
 42
-0.027908
  0
VERTEX
  8
0
 10
2358.884950
 20
2625.688912
 42
-0.065476
  0
VERTEX
  8
0
 10
2361.213195
 20
2633.629568
 42
-0.101378
  0
VERTEX
  8
0
 10
2365.339681
 20
2639.433668
 42
-0.107437
  0
VERTEX
  8
0
 10
2371.219085
 20
2642.931104
 42
-0.080821
  0
VERTEX
  8
0
 10
2378.666687
 20
2644.142857
 42
-0.043814
  0
VERTEX
  8
0
 10
2383.066578
 20
2643.756558
 42
-0.086630
  0
VERTEX
  8
0
 10
2386.352053
 20
2642.564802
 42
-0.095200
  0
VERTEX
  8
0
 10
2388.841646
 20
2640.422189
 42
-0.062010
  0
VERTEX
  8
0
 10
2390.818496
 20
2637.172219
 42
-0.073800
  0
VERTEX
  8
0
 10
2391.713300
 20
2634.004249
 42
-0.019699
  0
VERTEX
  8
0
 10
2392.178097
 20
2628.769344
 42
-0.010500
  0
VERTEX
  8
0
 10
2392.420343
 20
2620.170264
 42
-0.001667
  0
VERTEX
  8
0
 10
2392.484970
 20
2603.302176
 42
-0.002157
  0
VERTEX
  8
0
 10
2392.431714
 20
2589.345902
 42
-0.006853
  0
VERTEX
  8
0
 10
2392.227974
 20
2580.016307
 42
-0.004090
  0
VERTEX
  8
0
 10
2391.931254
 20
2573.233834
 42
-0.185209
  0
VERTEX
  8
0
 10
2391.371084
 20
2571.973261
 42
-0.095942
  0
VERTEX
  8
0
 10
2390.672861
 20
2571.500625
 42
-0.023353
  0
VERTEX
  8
0
 10
2389.363219
 20
2571.012056
 42
-0.023087
  0
VERTEX
  8
0
 10
2387.781539
 20
2570.584170
 42
-0.021179
  0
VERTEX
  8
0
 10
2386.121084
 20
2570.289415
 42
0.017767
  0
VERTEX
  8
0
 10
2383.724060
 20
2569.880758
 42
0.122726
  0
VERTEX
  8
0
 10
2382.657366
 20
2569.367298
 42
0.175583
  0
VERTEX
  8
0
 10
2382.149586
 20
2568.501296
 42
0.045706
  0
VERTEX
  8
0
 10
2382.000000
 20
2566.868331
 42
0.000000
  0
VERTEX
  8
0
 10
2382.000000
 20
2564.000000
 42
0.000000
  0
VERTEX
  8
0
 10
2405.000000
 20
2564.000000
 42
0.000000
  0
VERTEX
  8
0
 10
2428.000000
 20
2564.000000
 42
0.000000
  0
VERTEX
  8
0
 10
2428.000000
 20
2567.000000
 42
0.031514
  0
VERTEX
  8
0
 10
2427.891824
 20
2568.714622
 42
0.176015
  0
VERTEX
  8
0
 10
2427.477938
 20
2569.520465
 42
0.161668
  0
VERTEX
  8
0
 10
2426.621360
 20
2569.910516
 42
0.025557
  0
VERTEX
  8
0
 10
2424.750000
 20
2570.014742
 42
-0.031867
  0
VERTEX
  8
0
 10
2423.323084
 20
2570.112277
 42
-0.021683
  0
VERTEX
  8
0
 10
2421.720313
 20
2570.396189
 42
-0.021902
  0
VERTEX
  8
0
 10
2420.191299
 20
2570.806996
 42
-0.040412
  0
VERTEX
  8
0
 10
2419.000000
 20
2571.292585
 42
0.000000
  0
VERTEX
  8
0
 10
2416.500000
 20
2572.555687
 42
0.000000
  0
VERTEX
  8
0
 10
2415.972632
 20
2603.027843
 42
0.003142
  0
VERTEX
  8
0
 10
2415.471928
 20
2624.250540
 42
0.026750
  0
VERTEX
  8
0
 10
2414.679007
 20
2633.740674
 42
0.058647
  0
VERTEX
  8
0
 10
2413.095412
 20
2639.840499
 42
0.056414
  0
VERTEX
  8
0
 10
2410.125003
 20
2645.492543
 42
0.108964
  0
VERTEX
  8
0
 10
2404.457270
 20
2650.848698
 42
0.068051
  0
VERTEX
  8
0
 10
2396.024234
 20
2654.455726
 42
0.065197
  0
VERTEX
  8
0
 10
2386.503411
 20
2655.778731
 42
0.079612
  0
SEQEND
  0
POLYLINE
  8
0
 66
1
 70
1
  0
VERTEX
  8
0
 10
2448.500000
 20
2653.056334
 42
0.004014
  0
VERTEX
  8
0
 10
2442.184659
 20
2652.654112
 42
0.051482
  0
VERTEX
  8
0
 10
2439.854708
 20
2652.243349
 42
0.162110
  0
VERTEX
  8
0
 10
2438.732093
 20
2651.477303
 42
0.128224
  0
VERTEX
  8
0
 10
2438.162508
 20
2650.113090
 42
0.103963
  0
VERTEX
  8
0
 10
2438.285485
 20
2648.272616
 42
0.167571
  0
VERTEX
  8
0
 10
2439.171384
 20
2646.994111
 42
0.118036
  0
VERTEX
  8
0
 10
2440.939123
 20
2646.251310
 42
0.039546
  0
VERTEX
  8
0
 10
2443.750000
 20
2646.015313
 42
-0.048764
  0
VERTEX
  8
0
 10
2445.187376
 20
2645.867954
 42
-0.041752
  0
VERTEX
  8
0
 10
2446.649053
 20
2645.442783
 42
-0.042884
  0
VERTEX
  8
0
 10
2447.973805
 20
2644.799194
 42
-0.061940
  0
VERTEX
  8
0
 10
2449.000000
 20
2644.000000
 42
-0.149345
  0
VERTEX
  8
0
 10
2450.188406
 20
2641.766051
 42
-0.034383
  0
VERTEX
  8
0
 10
2450.720911
 20
2637.481894
 42
-0.012764
  0
VERTEX
  8
0
 10
2450.957802
 20
2629.425943
 42
-0.000968
  0
VERTEX
  8
0
 10
2451.000000
 20
2607.622445
 42
-0.001585
  0
VERTEX
  8
0
 10
2450.944877
 20
2590.234947
 42
-0.007406
  0
VERTEX
  8
0
 10
2450.733033
 20
2580.221516
 42
-0.005891
  0
VERTEX
  8
0
 10
2450.414117
 20
2573.547389
 42
-0.207541
  0
VERTEX
  8
0
 10
2449.725002
 20
2572.186735
 42
-0.090771
  0
VERTEX
  8
0
 10
2448.919697
 20
2571.734506
 42
-0.016865
  0
VERTEX
  8
0
 10
2447.289690
 20
2571.235809
 42
-0.017581
  0
VERTEX
  8
0
 10
2445.318868
 20
2570.778468
 42
-0.015246
  0
VERTEX
  8
0
 10
2443.225002
 20
2570.435460
 42
0.011034
  0
VERTEX
  8
0
 10
2440.031631
 20
2569.939911
 42
0.106053
  0
VERTEX
  8
0
 10
2438.765306
 20
2569.423320
 42
0.192474
  0
VERTEX
  8
0
 10
2438.178247
 20
2568.550025
 42
0.052937
  0
VERTEX
  8
0
 10
2438.000000
 20
2566.871169
 42
0.000000
  0
VERTEX
  8
0
 10
2438.000000
 20
2564.000000
 42
0.000000
  0
VERTEX
  8
0
 10
2462.500000
 20
2564.000000
 42
0.000000
  0
VERTEX
  8
0
 10
2487.000000
 20
2564.000000
 42
0.000000
  0
VERTEX
  8
0
 10
2487.000000
 20
2566.859357
 42
0.055747
  0
VERTEX
  8
0
 10
2486.814303
 20
2568.519698
 42
0.183389
  0
VERTEX
  8
0
 10
2486.215327
 20
2569.423039
 42
0.102199
  0
VERTEX
  8
0
 10
2484.926627
 20
2569.996760
 42
0.011578
  0
VERTEX
  8
0
 10
2481.775363
 20
2570.609357
 42
-0.019415
  0
VERTEX
  8
0
 10
2479.103548
 20
2571.172332
 42
-0.058879
  0
VERTEX
  8
0
 10
2477.370493
 20
2571.832818
 42
-0.082804
  0
VERTEX
  8
0
 10
2476.183312
 20
2572.729655
 42
-0.073018
  0
VERTEX
  8
0
 10
2475.290105
 20
2574.000000
 42
-0.103662
  0
VERTEX
  8
0
 10
2474.637947
 20
2576.447052
 42
-0.005740
  0
VERTEX
  8
0
 10
2474.300837
 20
2584.395280
 42
-0.006092
  0
VERTEX
  8
0
 10
2474.080849
 20
2596.143114
 42
-0.001540
  0
VERTEX
  8
0
 10
2474.014742
 20
2615.250000
 42
0.000000
  0
VERTEX
  8
0
 10
2474.000000
 20
2654.000000
 42
0.000000
  0
VERTEX
  8
0
 10
2466.250000
 20
2653.806334
 42
0.002920
  0
VERTEX
  8
0
 10
2462.571256
 20
2653.692901
 42
0.001391
  0
VERTEX
  8
0
 10
2457.839063
 20
2653.506134
 42
0.001378
  0
VERTEX
  8
0
 10
2452.894488
 20
2653.283551
 42
0.001959
  0
SEQEND
  0
POLYLINE
  8
0
 66
1
 70
1
  0
VERTEX
  8
0
 10
2117.000000
 20
2651.000000
 42
-0.000210
  0
VERTEX
  8
0
 10
2116.999656
 20
2650.179297
 42
-0.000216
  0
VERTEX
  8
0
 10
2116.998624
 20
2649.367188
 42
-0.000209
  0
VERTEX
  8
0
 10
2116.997132
 20
2648.663512
 42
-0.000927
  0
VERTEX
  8
0
 10
2116.995316
 20
2648.250000
 42
0.257846
  0
VERTEX
  8
0
 10
2117.178978
 20
2647.912568
 42
0.030949
  0
VERTEX
  8
0
 10
2117.948071
 20
2647.486636
 42
0.030621
  0
VERTEX
  8
0
 10
2118.998668
 20
2647.063767
 42
0.020434
  0
VERTEX
  8
0
 10
2120.245316
 20
2646.704507
 42
-0.043547
  0
VERTEX
  8
0
 10
2121.644476
 20
2646.230330
 42
-0.028721
  0
VERTEX
  8
0
 10
2123.158920
 20
2645.458724
 42
-0.028895
  0
VERTEX
  8
0
 10
2124.555972
 20
2644.530549
 42
-0.048604
  0
VERTEX
  8
0
 10
2125.593559
 20
2643.580617
 42
-0.084487
  0
VERTEX
  8
0
 10
2127.390156
 20
2640.738843
 42
-0.001345
  0
VERTEX
  8
0
 10
2134.707673
 20
2623.062983
 42
-0.002948
  0
VERTEX
  8
0
 10
2144.027936
 20
2599.990794
 42
-0.001125
  0
VERTEX
  8
0
 10
2156.747464
 20
2567.750000
 42
0.000000
  0
VERTEX
  8
0
 10
2158.217159
 20
2564.000000
 42
0.000000
  0
VERTEX
  8
0
 10
2167.388371
 20
2564.000000
 42
0.000000
  0
VERTEX
  8
0
 10
2176.559583
 20
2564.000000
 42
0.000000
  0
VERTEX
  8
0
 10
2185.896182
 20
2589.750000
 42
-0.000543
  0
VERTEX
  8
0
 10
2196.927236
 20
2620.070434
 42
-0.004515
  0
VERTEX
  8
0
 10
2202.067588
 20
2633.766582
 42
-0.006383
  0
VERTEX
  8
0
 10
2205.281624
 20
2641.793866
 42
-0.093887
  0
VERTEX
  8
0
 10
2206.943266
 20
2644.325473
 42
-0.074579
  0
VERTEX
  8
0
 10
2207.909415
 20
2645.065841
 42
-0.030483
  0
VERTEX
  8
0
 10
2209.406659
 20
2645.778096
 42
-0.029322
  0
VERTEX
  8
0
 10
2211.136319
 20
2646.359853
 42
-0.033136
  0
VERTEX
  8
0
 10
2212.853251
 20
2646.707142
 42
0.017514
  0
VERTEX
  8
0
 10
2215.274593
 20
2647.118689
 42
0.123232
  0
VERTEX
  8
0
 10
2216.343607
 20
2647.633249
 42
0.176180
  0
VERTEX
  8
0
 10
2216.851325
 20
2648.503414
 42
0.044880
  0
VERTEX
  8
0
 10
2217.000000
 20
2650.156440
 42
0.000000
  0
VERTEX
  8
0
 10
2217.000000
 20
2653.049543
 42
0.000000
  0
VERTEX
  8
0
 10
2200.750000
 20
2652.774771
 42
0.000000
  0
VERTEX
  8
0
 10
2184.500000
 20
2652.500000
 42
0.000000
  0
VERTEX
  8
0
 10
2184.500000
 20
2650.027676
 42
0.072183
  0
VERTEX
  8
0
 10
2184.695886
 20
2648.677869
 42
0.166208
  0
VERTEX
  8
0
 10
2185.282481
 20
2647.852078
 42
0.097884
  0
VERTEX
  8
0
 10
2186.487443
 20
2647.301480
 42
0.016224
  0
VERTEX
  8
0
 10
2189.000000
 20
2646.789487
 42
-0.049878
  0
VERTEX
  8
0
 10
2192.333740
 20
2645.873124
 42
-0.110870
  0
VERTEX
  8
0
 10
2194.511814
 20
2644.418683
 42
-0.143265
  0
VERTEX
  8
0
 10
2195.531279
 20
2642.444124
 42
-0.109269
  0
VERTEX
  8
0
 10
2195.468538
 20
2640.000000
 42
-0.024110
  0
VERTEX
  8
0
 10
2193.445886
 20
2633.260071
 42
-0.000994
  0
VERTEX
  8
0
 10
2184.987132
 20
2609.479749
 42
-0.000117
  0
VERTEX
  8
0
 10
2175.648889
 20
2583.410526
 42
-0.316636
  0
VERTEX
  8
0
 10
2175.065620
 20
2583.000000
 42
-0.314361
  0
VERTEX
  8
0
 10
2174.244113
 20
2583.573140
 42
-0.000187
  0
VERTEX
  8
0
 10
2163.697782
 20
2612.277454
 42
-0.000486
  0
VERTEX
  8
0
 10
2153.484744
 20
2640.190669
 42
-0.091205
  0
VERTEX
  8
0
 10
2152.976274
 20
2643.190983
 42
-0.132872
  0
VERTEX
  8
0
 10
2153.394443
 20
2644.654979
 42
-0.134378
  0
VERTEX
  8
0
 10
2154.492372
 20
2645.701051
 42
-0.075198
  0
VERTEX
  8
0
 10
2156.533196
 20
2646.432039
 42
-0.019373
  0
VERTEX
  8
0
 10
2160.000000
 20
2646.974059
 42
0.016705
  0
VERTEX
  8
0
 10
2162.577587
 20
2647.362979
 42
0.103902
  0
VERTEX
  8
0
 10
2163.806737
 20
2647.868550
 42
0.160031
  0
VERTEX
  8
0
 10
2164.464106
 20
2648.722348
 42
0.056111
  0
VERTEX
  8
0
 10
2164.816422
 20
2650.250000
 42
0.000000
  0
VERTEX
  8
0
 10
2165.132845
 20
2653.000000
 42
0.000000
  0
VERTEX
  8
0
 10
2141.066422
 20
2653.000000
 42
0.001237
  0
VERTEX
  8
0
 10
2125.544113
 20
2652.961586
 42
0.019493
  0
VERTEX
  8
0
 10
2120.258303
 20
2652.729224
 42
0.071227
  0
VERTEX
  8
0
 10
2117.800995
 20
2652.166480
 42
0.310283
  0
SEQEND
  0
POLYLINE
  8
0
 66
1
 70
1
  0
VERTEX
  8
0
 10
297.000000
 20
2584.010623
 42
0.000000
  0
VERTEX
  8
0
 10
297.000000
 20
2575.000000
 42
0.000000
  0
VERTEX
  8
0
 10
305.500000
 20
2575.000000
 42
0.000000
  0
VERTEX
  8
0
 10
314.000000
 20
2575.000000
 42
0.000000
  0
VERTEX
  8
0
 10
314.000000
 20
2566.500000
 42
0.000000
  0
VERTEX
  8
0
 10
314.000000
 20
2558.000000
 42
0.000000
  0
VERTEX
  8
0
 10
305.500000
 20
2558.000000
 42
0.000000
  0
VERTEX
  8
0
 10
297.000000
 20
2558.000000
 42
0.000000
  0
VERTEX
  8
0
 10
297.000000
 20
2549.500000
 42
0.000000
  0
VERTEX
  8
0
 10
297.000000
 20
2541.000000
 42
0.000000
  0
VERTEX
  8
0
 10
305.500000
 20
2541.000000
 42
0.000000
  0
VERTEX
  8
0
 10
314.000000
 20
2541.000000
 42
0.000000
  0
VERTEX
  8
0
 10
314.000000
 20
2523.500000
 42
0.000000
  0
VERTEX
  8
0
 10
314.000000
 20
2506.000000
 42
0.000000
  0
VERTEX
  8
0
 10
305.500000
 20
2506.000000
 42
0.000000
  0
VERTEX
  8
0
 10
297.000000
 20
2506.000000
 42
0.000000
  0
VERTEX
  8
0
 10
297.000000
 20
2488.500000
 42
0.000000
  0
VERTEX
  8
0
 10
297.000000
 20
2471.000000
 42
0.000000
  0
VERTEX
  8
0
 10
314.500000
 20
2471.000000
 42
0.000000
  0
VERTEX
  8
0
 10
332.000000
 20
2471.000000
 42
0.000000
  0
VERTEX
  8
0
 10
332.000000
 20
2479.461067
 42
0.000000
  0
VERTEX
  8
0
 10
332.000000
 20
2487.922134
 42
0.000000
  0
VERTEX
  8
0
 10
323.250000
 20
2488.211067
 42
0.000000
  0
VERTEX
  8
0
 10
314.500000
 20
2488.500000
 42
0.000000
  0
VERTEX
  8
0
 10
314.211067
 20
2497.250000
 42
0.000000
  0
VERTEX
  8
0
 10
313.922134
 20
2506.000000
 42
0.000000
  0
VERTEX
  8
0
 10
331.461067
 20
2506.000000
 42
0.000000
  0
VERTEX
  8
0
 10
349.000000
 20
2506.000000
 42
0.000000
  0
VERTEX
  8
0
 10
349.000000
 20
2514.500000
 42
0.000000
  0
VERTEX
  8
0
 10
349.000000
 20
2523.000000
 42
0.000000
  0
VERTEX
  8
0
 10
357.461067
 20
2523.000000
 42
0.000000
  0
VERTEX
  8
0
 10
365.922134
 20
2523.000000
 42
0.000000
  0
VERTEX
  8
0
 10
366.211067
 20
2531.750000
 42
0.000000
  0
VERTEX
  8
0
 10
366.500000
 20
2540.500000
 42
0.000000
  0
VERTEX
  8
0
 10
375.266803
 20
2540.789178
 42
0.000000
  0
VERTEX
  8
0
 10
384.033606
 20
2541.078356
 42
0.000000
  0
VERTEX
  8
0
 10
383.766803
 20
2566.789178
 42
0.000000
  0
VERTEX
  8
0
 10
383.500000
 20
2592.500000
 42
0.000000
  0
VERTEX
  8
0
 10
340.250000
 20
2592.760623
 42
0.000000
  0
VERTEX
  8
0
 10
297.000000
 20
2593.021245
 42
0.000000
  0
SEQEND
  0
POLYLINE
  8
0
 66
1
 70
1
  0
VERTEX
  8
0
 10
366.000000
 20
2566.500000
 42
0.000000
  0
VERTEX
  8
0
 10
366.000000
 20
2558.000000
 42
0.000000
  0
VERTEX
  8
0
 10
349.000000
 20
2558.000000
 42
0.000000
  0
VERTEX
  8
0
 10
332.000000
 20
2558.000000
 42
0.000000
  0
VERTEX
  8
0
 10
332.000000
 20
2566.500000
 42
0.000000
  0
VERTEX
  8
0
 10
332.000000
 20
2575.000000
 42
0.000000
  0
VERTEX
  8
0
 10
349.000000
 20
2575.000000
 42
0.000000
  0
VERTEX
  8
0
 10
366.000000
 20
2575.000000
 42
0.000000
  0
SEQEND
  0
POLYLINE
  8
0
 66
1
 70
1
  0
VERTEX
  8
0
 10
349.000000
 20
2532.000000
 42
0.000000
  0
VERTEX
  8
0
 10
349.000000
 20
2523.000000
 42
0.000000
  0
VERTEX
  8
0
 10
340.500000
 20
2523.000000
 42
0.000000
  0
VERTEX
  8
0
 10
332.000000
 20
2523.000000
 42
0.000000
  0
VERTEX
  8
0
 10
332.000000
 20
2532.000000
 42
0.000000
  0
VERTEX
  8
0
 10
332.000000
 20
2541.000000
 42
0.000000
  0
VERTEX
  8
0
 10
340.500000
 20
2541.000000
 42
0.000000
  0
VERTEX
  8
0
 10
349.000000
 20
2541.000000
 42
0.000000
  0
SEQEND
  0
POLYLINE
  8
0
 66
1
 70
1
  0
VERTEX
  8
0
 10
401.000000
 20
2575.500000
 42
0.000000
  0
VERTEX
  8
0
 10
401.000000
 20
2558.000000
 42
0.000000
  0
VERTEX
  8
0
 10
409.500000
 20
2558.000000
 42
0.000000
  0
VERTEX
  8
0
 10
418.000000
 20
2558.000000
 42
0.000000
  0
VERTEX
  8
0
 10
418.000000
 20
2566.500000
 42
0.000000
  0
VERTEX
  8
0
 10
418.000000
 20
2575.000000
 42
0.000000
  0
VERTEX
  8
0
 10
427.000000
 20
2575.000000
 42
0.000000
  0
VERTEX
  8
0
 10
436.000000
 20
2575.000000
 42
0.000000
  0
VERTEX
  8
0
 10
436.000000
 20
2584.000000
 42
0.000000
  0
VERTEX
  8
0
 10
436.000000
 20
2593.000000
 42
0.000000
  0
VERTEX
  8
0
 10
418.500000
 20
2593.000000
 42
0.000000
  0
VERTEX
  8
0
 10
401.000000
 20
2593.000000
 42
0.000000
  0
SEQEND
  0
POLYLINE
  8
0
 66
1
 70
1
  0
VERTEX
  8
0
 10
696.421649
 20
2591.656415
 42
0.078282
  0
VERTEX
  8
0
 10
696.233210
 20
2590.773024
 42
0.007235
  0
VERTEX
  8
0
 10
696.144753
 20
2588.531874
 42
0.009185
  0
VERTEX
  8
0
 10
696.126964
 20
2585.841003
 42
0.007079
  0
VERTEX
  8
0
 10
696.203033
 20
2582.906415
 42
0.000000
  0
VERTEX
  8
0
 10
696.500000
 20
2575.500000
 42
0.000000
  0
VERTEX
  8
0
 10
705.250000
 20
2575.211067
 42
0.000000
  0
VERTEX
  8
0
 10
714.000000
 20
2574.922134
 42
0.000000
  0
VERTEX
  8
0
 10
714.000000
 20
2583.961067
 42
0.000000
  0
VERTEX
  8
0
 10
714.000000
 20
2593.000000
 42
0.000000
  0
VERTEX
  8
0
 10
705.468615
 20
2593.000000
 42
0.008207
  0
VERTEX
  8
0
 10
701.380218
 20
2592.932889
 42
0.028660
  0
VERTEX
  8
0
 10
698.753754
 20
2592.695520
 42
0.043926
  0
VERTEX
  8
0
 10
697.090542
 20
2592.296903
 42
0.223977
  0
SEQEND
  0
POLYLINE
  8
0
 66
1
 70
1
  0
VERTEX
  8
0
 10
696.666667
 20
2557.333333
 42
0.171300
  0
VERTEX
  8
0
 10
696.401615
 20
2556.779115
 42
0.007128
  0
VERTEX
  8
0
 10
696.195833
 20
2554.561458
 42
0.011637
  0
VERTEX
  8
0
 10
696.048382
 20
2551.883150
 42
0.007932
  0
VERTEX
  8
0
 10
696.000000
 20
2548.833333
 42
0.000000
  0
VERTEX
  8
0
 10
696.000000
 20
2541.000000
 42
0.000000
  0
VERTEX
  8
0
 10
713.500000
 20
2541.000000
 42
0.000000
  0
VERTEX
  8
0
 10
731.000000
 20
2541.000000
 42
0.000000
  0
VERTEX
  8
0
 10
731.000000
 20
2549.500000
 42
0.000000
  0
VERTEX
  8
0
 10
731.000000
 20
2558.000000
 42
0.000000
  0
VERTEX
  8
0
 10
714.166667
 20
2558.000000
 42
0.003703
  0
VERTEX
  8
0
 10
707.666162
 20
2557.951860
 42
0.005817
  0
VERTEX
  8
0
 10
702.082292
 20
2557.804167
 42
0.001897
  0
VERTEX
  8
0
 10
697.277547
 20
2557.602868
 42
0.187071
  0
SEQEND
  0
POLYLINE
  8
0
 66
1
 70
1
  0
VERTEX
  8
0
 10
2477.764045
 20
2453.004287
 42
0.046549
  0
VERTEX
  8
0
 10
2474.116937
 20
2451.524271
 42
0.043791
  0
VERTEX
  8
0
 10
2470.726073
 20
2449.369647
 42
0.045703
  0
VERTEX
  8
0
 10
2467.913716
 20
2446.776197
 42
0.065791
  0
VERTEX
  8
0
 10
2465.995405
 20
2443.990994
 42
0.138163
  0
VERTEX
  8
0
 10
2463.503240
 20
2431.514618
 42
0.165634
  0
VERTEX
  8
0
 10
2468.206483
 20
2420.565425
 42
0.151305
  0
VERTEX
  8
0
 10
2479.066864
 20
2414.107579
 42
0.112116
  0
VERTEX
  8
0
 10
2493.117576
 20
2413.927372
 42
0.065332
  0
VERTEX
  8
0
 10
2500.400425
 20
2416.511411
 42
0.097162
  0
VERTEX
  8
0
 10
2505.707735
 20
2420.674405
 42
0.101494
  0
VERTEX
  8
0
 10
2508.899079
 20
2426.384631
 42
0.076987
  0
VERTEX
  8
0
 10
2510.000000
 20
2433.492281
 42
0.061842
  0
VERTEX
  8
0
 10
2509.183112
 20
2440.071657
 42
0.087674
  0
VERTEX
  8
0
 10
2506.772601
 20
2445.441254
 42
0.090076
  0
VERTEX
  8
0
 10
2502.727525
 20
2449.558787
 42
0.068965
  0
VERTEX
  8
0
 10
2497.110101
 20
2452.461154
 42
0.053786
  0
VERTEX
  8
0
 10
2492.983412
 20
2453.434866
 42
0.024050
  0
VERTEX
  8
0
 10
2487.413716
 20
2453.859862
 42
0.024008
  0
VERTEX
  8
0
 10
2481.851335
 20
2453.748931
 42
0.056189
  0
SEQEND
  0
POLYLINE
  8
0
 66
1
 70
1
  0
VERTEX
  8
0
 10
1720.500000
 20
2450.976018
 42
-0.000779
  0
VERTEX
  8
0
 10
1713.916015
 20
2450.696126
 42
-0.000791
  0
VERTEX
  8
0
 10
1707.364063
 20
2450.438213
 42
-0.000769
  0
VERTEX
  8
0
 10
1701.664167
 20
2450.231649
 42
-0.003256
  0
VERTEX
  8
0
 10
1698.250000
 20
2450.135426
 42
0.008240
  0
VERTEX
  8
0
 10
1694.646652
 20
2449.997911
 42
0.068760
  0
VERTEX
  8
0
 10
1693.048178
 20
2449.687295
 42
0.180568
  0
VERTEX
  8
0
 10
1692.286873
 20
2449.063405
 42
0.132516
  0
VERTEX
  8
0
 10
1692.000000
 20
2448.000000
 42
0.114711
  0
VERTEX
  8
0
 10
1692.244136
 20
2446.949872
 42
0.189086
  0
VERTEX
  8
0
 10
1692.908093
 20
2446.343390
 42
0.080412
  0
VERTEX
  8
0
 10
1694.279000
 20
2446.056991
 42
0.010666
  0
VERTEX
  8
0
 10
1697.250000
 20
2445.985258
 42
-0.036316
  0
VERTEX
  8
0
 10
1701.859738
 20
2445.636987
 42
-0.090173
  0
VERTEX
  8
0
 10
1705.051815
 20
2444.551222
 42
-0.111495
  0
VERTEX
  8
0
 10
1707.249624
 20
2442.585159
 42
-0.075449
  0
VERTEX
  8
0
 10
1708.772643
 20
2439.574312
 42
-0.079981
  0
VERTEX
  8
0
 10
1710.094699
 20
2431.280715
 42
-0.000484
  0
VERTEX
  8
0
 10
1709.901337
 20
2354.367771
 42
-0.000243
  0
VERTEX
  8
0
 10
1709.588643
 20
2275.579080
 42
-0.173820
  0
VERTEX
  8
0
 10
1708.188112
 20
2271.726236
 42
-0.117542
  0
VERTEX
  8
0
 10
1707.254073
 20
2271.025083
 42
-0.031263
  0
VERTEX
  8
0
 10
1705.490966
 20
2270.386664
 42
-0.027403
  0
VERTEX
  8
0
 10
1703.184081
 20
2269.846246
 42
-0.017161
  0
VERTEX
  8
0
 10
1700.438112
 20
2269.456469
 42
0.009540
  0
VERTEX
  8
0
 10
1696.942686
 20
2269.014542
 42
0.058908
  0
VERTEX
  8
0
 10
1695.196053
 20
2268.545181
 42
0.139338
  0
VERTEX
  8
0
 10
1694.326639
 20
2267.874463
 42
0.160561
  0
VERTEX
  8
0
 10
1694.000000
 20
2266.883503
 42
0.361775
  0
VERTEX
  8
0
 10
1694.954536
 20
2265.736926
 42
0.032333
  0
VERTEX
  8
0
 10
1698.961965
 20
2265.263264
 42
0.012401
  0
VERTEX
  8
0
 10
1706.931752
 20
2265.038413
 42
0.000851
  0
VERTEX
  8
0
 10
1729.500000
 20
2265.000000
 42
0.000851
  0
VERTEX
  8
0
 10
1752.068248
 20
2265.038413
 42
0.012401
  0
VERTEX
  8
0
 10
1760.038035
 20
2265.263264
 42
0.032333
  0
VERTEX
  8
0
 10
1764.045464
 20
2265.736926
 42
0.361775
  0
VERTEX
  8
0
 10
1765.000000
 20
2266.883503
 42
0.160066
  0
VERTEX
  8
0
 10
1764.674591
 20
2267.873946
 42
0.139530
  0
VERTEX
  8
0
 10
1763.808351
 20
2268.544367
 42
0.059134
  0
VERTEX
  8
0
 10
1762.068824
 20
2269.013177
 42
0.009609
  0
VERTEX
  8
0
 10
1758.591859
 20
2269.453260
 42
-0.165255
  0
VERTEX
  8
0
 10
1752.339449
 20
2272.352855
 42
-0.175801
  0
VERTEX
  8
0
 10
1749.342872
 20
2278.386415
 42
-0.026257
  0
VERTEX
  8
0
 10
1748.475374
 20
2292.727216
 42
-0.000569
  0
VERTEX
  8
0
 10
1748.000000
 20
2362.854646
 42
0.000000
  0
VERTEX
  8
0
 10
1747.500000
 20
2451.500000
 42
0.000000
  0
VERTEX
  8
0
 10
1742.000000
 20
2451.590592
 42
0.009368
  0
VERTEX
  8
0
 10
1738.907093
 20
2451.583585
 42
0.001894
  0
VERTEX
  8
0
 10
1733.415625
 20
2451.447430
 42
0.001998
  0
VERTEX
  8
0
 10
1727.028932
 20
2451.239321
 42
0.001869
  0
SEQEND
  0
POLYLINE
  8
0
 66
1
 70
1
  0
VERTEX
  8
0
 10
2312.519368
 20
2450.816665
 42
0.003951
  0
VERTEX
  8
0
 10
2299.671870
 20
2450.201807
 42
0.021875
  0
VERTEX
  8
0
 10
2292.789237
 20
2449.514944
 42
0.056733
  0
VERTEX
  8
0
 10
2289.461059
 20
2448.641843
 42
0.541862
  0
VERTEX
  8
0
 10
2289.211020
 20
2447.455647
 42
0.135378
  0
VERTEX
  8
0
 10
2289.674259
 20
2447.192699
 42
0.007206
  0
VERTEX
  8
0
 10
2291.339107
 20
2446.798060
 42
0.010881
  0
VERTEX
  8
0
 10
2293.359037
 20
2446.395801
 42
0.007678
  0
VERTEX
  8
0
 10
2295.644353
 20
2446.028272
 42
-0.011324
  0
VERTEX
  8
0
 10
2300.792730
 20
2445.161750
 42
-0.070904
  0
VERTEX
  8
0
 10
2303.310674
 20
2444.296576
 42
-0.124547
  0
VERTEX
  8
0
 10
2304.810381
 20
2442.980293
 42
-0.066898
  0
VERTEX
  8
0
 10
2305.930124
 20
2440.770602
 42
-0.080167
  0
VERTEX
  8
0
 10
2306.456590
 20
2437.800564
 42
-0.000881
  0
VERTEX
  8
0
 10
2306.738064
 20
2417.228712
 42
-0.002219
  0
VERTEX
  8
0
 10
2306.940385
 20
2390.185412
 42
-0.000761
  0
VERTEX
  8
0
 10
2307.000000
 20
2351.011292
 42
0.000000
  0
VERTEX
  8
0
 10
2307.000000
 20
2264.321030
 42
0.000000
  0
VERTEX
  8
0
 10
2309.260959
 20
2263.290868
 42
0.131450
  0
VERTEX
  8
0
 10
2310.981881
 20
2263.002321
 42
0.049402
  0
VERTEX
  8
0
 10
2313.399965
 20
2263.477404
 42
0.025982
  0
VERTEX
  8
0
 10
2317.099709
 20
2264.805632
 42
0.004963
  0
VERTEX
  8
0
 10
2323.662882
 20
2267.631332
 42
0.000000
  0
VERTEX
  8
0
 10
2335.803845
 20
2273.001958
 42
0.000000
  0
VERTEX
  8
0
 10
2344.151922
 20
2268.998859
 42
0.038910
  0
VERTEX
  8
0
 10
2354.959355
 20
2264.815105
 42
0.042726
  0
VERTEX
  8
0
 10
2365.952584
 20
2262.515931
 42
0.042593
  0
VERTEX
  8
0
 10
2377.207025
 20
2262.114673
 42
0.038226
  0
VERTEX
  8
0
 10
2388.792158
 20
2263.581138
 42
0.070046
  0
VERTEX
  8
0
 10
2404.169308
 20
2269.058534
 42
0.077523
  0
VERTEX
  8
0
 10
2416.849282
 20
2278.436216
 42
0.073634
  0
VERTEX
  8
0
 10
2426.548893
 20
2291.676327
 42
0.055375
  0
VERTEX
  8
0
 10
2433.163875
 20
2308.500000
 42
0.045564
  0
VERTEX
  8
0
 10
2434.865968
 20
2318.244705
 42
0.017521
  0
VERTEX
  8
0
 10
2435.509702
 20
2331.983319
 42
0.017466
  0
VERTEX
  8
0
 10
2435.192258
 20
2345.696177
 42
0.047191
  0
VERTEX
  8
0
 10
2433.715519
 20
2355.311803
 42
0.070243
  0
VERTEX
  8
0
 10
2426.844691
 20
2372.172738
 42
0.095857
  0
VERTEX
  8
0
 10
2416.071406
 20
2384.497227
 42
0.095995
  0
VERTEX
  8
0
 10
2401.491412
 20
2391.901957
 42
0.070636
  0
VERTEX
  8
0
 10
2383.500000
 20
2394.391143
 42
0.042600
  0
VERTEX
  8
0
 10
2372.841993
 20
2393.443218
 42
0.061866
  0
VERTEX
  8
0
 10
2363.823944
 20
2390.678984
 42
0.066585
  0
VERTEX
  8
0
 10
2356.247231
 20
2385.992098
 42
0.060293
  0
VERTEX
  8
0
 10
2349.877380
 20
2379.335721
 42
0.000000
  0
VERTEX
  8
0
 10
2346.500000
 20
2374.827526
 42
0.000000
  0
VERTEX
  8
0
 10
2346.237666
 20
2412.076161
 42
0.001802
  0
VERTEX
  8
0
 10
2346.057776
 20
2428.971561
 42
0.005326
  0
VERTEX
  8
0
 10
2345.768767
 20
2440.574889
 42
0.002639
  0
VERTEX
  8
0
 10
2345.414619
 20
2449.243473
 42
0.163077
  0
VERTEX
  8
0
 10
2344.865222
 20
2450.662398
 42
0.127194
  0
VERTEX
  8
0
 10
2344.113197
 20
2451.205020
 42
0.042116
  0
VERTEX
  8
0
 10
2342.797868
 20
2451.594426
 42
0.035761
  0
VERTEX
  8
0
 10
2341.101108
 20
2451.819981
 42
0.023418
  0
VERTEX
  8
0
 10
2339.127555
 20
2451.847297
 42
0.001297
  0
VERTEX
  8
0
 10
2336.225231
 20
2451.743986
 42
0.000135
  0
VERTEX
  8
0
 10
2329.402534
 20
2451.481559
 42
0.000167
  0
VERTEX
  8
0
 10
2321.274956
 20
2451.164022
 42
0.000134
  0
SEQEND
  0
POLYLINE
  8
0
 66
1
 70
1
  0
VERTEX
  8
0
 10
2377.726430
 20
2379.880142
 42
-0.127285
  0
VERTEX
  8
0
 10
2383.076653
 20
2376.530907
 42
-0.065098
  0
VERTEX
  8
0
 10
2387.763846
 20
2370.078704
 42
-0.052623
  0
VERTEX
  8
0
 10
2391.501531
 20
2361.065230
 42
-0.033727
  0
VERTEX
  8
0
 10
2393.981956
 20
2350.000000
 42
-0.031933
  0
VERTEX
  8
0
 10
2394.770149
 20
2341.191836
 42
-0.006614
  0
VERTEX
  8
0
 10
2394.959629
 20
2325.630317
 42
-0.006881
  0
VERTEX
  8
0
 10
2394.728076
 20
2310.000873
 42
-0.027413
  0
VERTEX
  8
0
 10
2393.929837
 20
2300.450534
 42
-0.038080
  0
VERTEX
  8
0
 10
2390.722311
 20
2285.714608
 42
-0.090599
  0
VERTEX
  8
0
 10
2385.652185
 20
2275.761797
 42
-0.122638
  0
VERTEX
  8
0
 10
2378.506978
 20
2270.043974
 42
-0.108125
  0
VERTEX
  8
0
 10
2369.165565
 20
2268.000000
 42
-0.035250
  0
VERTEX
  8
0
 10
2364.126946
 20
2268.355662
 42
-0.042593
  0
VERTEX
  8
0
 10
2359.507108
 20
2269.418261
 42
-0.041613
  0
VERTEX
  8
0
 10
2355.048082
 20
2271.274082
 42
-0.031278
  0
VERTEX
  8
0
 10
2350.489016
 20
2274.007557
 42
0.000000
  0
VERTEX
  8
0
 10
2346.000000
 20
2277.096081
 42
0.000000
  0
VERTEX
  8
0
 10
2346.000000
 20
2319.510528
 42
-0.000898
  0
VERTEX
  8
0
 10
2346.047515
 20
2345.970872
 42
-0.009793
  0
VERTEX
  8
0
 10
2346.294363
 20
2356.619230
 42
-0.025026
  0
VERTEX
  8
0
 10
2346.868251
 20
2362.785264
 42
-0.053846
  0
VERTEX
  8
0
 10
2348.049278
 20
2367.402162
 42
-0.056166
  0
VERTEX
  8
0
 10
2350.688931
 20
2372.595611
 42
-0.078682
  0
VERTEX
  8
0
 10
2354.190119
 20
2376.433949
 42
-0.071553
  0
VERTEX
  8
0
 10
2358.970506
 20
2379.243854
 42
-0.038345
  0
VERTEX
  8
0
 10
2365.500000
 20
2381.349018
 42
-0.065135
  0
VERTEX
  8
0
 10
2367.709586
 20
2381.582213
 42
-0.023662
  0
VERTEX
  8
0
 10
2370.858583
 20
2381.354296
 42
-0.022797
  0
VERTEX
  8
0
 10
2374.352776
 20
2380.771916
 42
-0.023847
  0
SEQEND
  0
POLYLINE
  8
0
 66
1
 70
1
  0
VERTEX
  8
0
 10
2799.500000
 20
2450.976018
 42
-0.000779
  0
VERTEX
  8
0
 10
2792.916015
 20
2450.696126
 42
-0.000791
  0
VERTEX
  8
0
 10
2786.364062
 20
2450.438213
 42
-0.000769
  0
VERTEX
  8
0
 10
2780.664167
 20
2450.231649
 42
-0.003256
  0
VERTEX
  8
0
 10
2777.250000
 20
2450.135426
 42
0.008622
  0
VERTEX
  8
0
 10
2773.737195
 20
2449.998680
 42
0.064162
  0
VERTEX
  8
0
 10
2772.097546
 20
2449.693025
 42
0.166406
  0
VERTEX
  8
0
 10
2771.303212
 20
2449.098840
 42
0.150820
  0
VERTEX
  8
0
 10
2771.000000
 20
2448.116496
 42
0.158721
  0
VERTEX
  8
0
 10
2771.321875
 20
2447.128076
 42
0.151625
  0
VERTEX
  8
0
 10
2772.169451
 20
2446.496749
 42
0.060267
  0
VERTEX
  8
0
 10
2773.901231
 20
2446.111565
 42
0.008720
  0
VERTEX
  8
0
 10
2777.512473
 20
2445.818308
 42
-0.033044
  0
VERTEX
  8
0
 10
2782.579657
 20
2445.157622
 42
-0.128271
  0
VERTEX
  8
0
 10
2785.405366
 20
2443.789625
 42
-0.139732
  0
VERTEX
  8
0
 10
2787.069682
 20
2441.288334
 42
-0.042045
  0
VERTEX
  8
0
 10
2788.101125
 20
2436.790158
 42
-0.035031
  0
VERTEX
  8
0
 10
2788.808749
 20
2426.886975
 42
-0.000353
  0
VERTEX
  8
0
 10
2788.850684
 20
2356.365412
 42
-0.000309
  0
VERTEX
  8
0
 10
2788.798930
 20
2285.342688
 42
-0.040404
  0
VERTEX
  8
0
 10
2788.083349
 20
2276.647371
 42
-0.023068
  0
VERTEX
  8
0
 10
2787.675798
 20
2274.725852
 42
-0.027619
  0
VERTEX
  8
0
 10
2787.110983
 20
2272.964754
 42
-0.028131
  0
VERTEX
  8
0
 10
2786.482110
 20
2271.563413
 42
-0.134460
  0
VERTEX
  8
0
 10
2785.892960
 20
2270.925131
 42
-0.075002
  0
VERTEX
  8
0
 10
2785.023851
 20
2270.549076
 42
-0.012025
  0
VERTEX
  8
0
 10
2783.220120
 20
2270.117995
 42
-0.013067
  0
VERTEX
  8
0
 10
2781.053574
 20
2269.713866
 42
-0.011132
  0
VERTEX
  8
0
 10
2778.750000
 20
2269.398593
 42
0.011521
  0
VERTEX
  8
0
 10
2775.687699
 20
2268.977049
 42
0.064139
  0
VERTEX
  8
0
 10
2774.100345
 20
2268.506921
 42
0.141238
  0
VERTEX
  8
0
 10
2773.299273
 20
2267.836744
 42
0.149477
  0
VERTEX
  8
0
 10
2773.000000
 20
2266.858041
 42
0.362587
  0
VERTEX
  8
0
 10
2773.951600
 20
2265.718323
 42
0.033376
  0
VERTEX
  8
0
 10
2777.891814
 20
2265.272397
 42
0.012513
  0
VERTEX
  8
0
 10
2785.764217
 20
2265.107517
 42
0.000843
  0
VERTEX
  8
0
 10
2808.236563
 20
2265.237207
 42
0.001082
  0
VERTEX
  8
0
 10
2828.938656
 20
2265.436387
 42
0.010340
  0
VERTEX
  8
0
 10
2837.767118
 20
2265.723084
 42
0.016303
  0
VERTEX
  8
0
 10
2842.735600
 20
2266.150156
 42
0.326498
  0
VERTEX
  8
0
 10
2843.786423
 20
2267.128163
 42
0.216023
  0
VERTEX
  8
0
 10
2843.585311
 20
2267.966642
 42
0.138049
  0
VERTEX
  8
0
 10
2842.765238
 20
2268.571529
 42
0.054258
  0
VERTEX
  8
0
 10
2841.023859
 20
2269.021271
 42
0.009413
  0
VERTEX
  8
0
 10
2837.646257
 20
2269.447434
 42
-0.154452
  0
VERTEX
  8
0
 10
2831.302086
 20
2272.228727
 42
-0.186319
  0
VERTEX
  8
0
 10
2828.301401
 20
2277.954246
 42
-0.026671
  0
VERTEX
  8
0
 10
2827.467744
 20
2291.606153
 42
-0.000516
  0
VERTEX
  8
0
 10
2827.000000
 20
2362.169155
 42
0.000000
  0
VERTEX
  8
0
 10
2826.500000
 20
2451.500000
 42
0.000000
  0
VERTEX
  8
0
 10
2821.000000
 20
2451.590592
 42
0.009368
  0
VERTEX
  8
0
 10
2817.907093
 20
2451.583585
 42
0.001894
  0
VERTEX
  8
0
 10
2812.415625
 20
2451.447430
 42
0.001998
  0
VERTEX
  8
0
 10
2806.028932
 20
2451.239321
 42
0.001869
  0
SEQEND
  0
POLYLINE
  8
0
 66
1
 70
1
  0
VERTEX
  8
0
 10
2052.798418
 20
2444.986580
 42
0.046307
  0
VERTEX
  8
0
 10
2035.682518
 20
2440.624466
 42
0.055077
  0
VERTEX
  8
0
 10
2020.695287
 20
2433.345275
 42
0.056657
  0
VERTEX
  8
0
 10
2007.998481
 20
2423.174661
 42
0.053858
  0
VERTEX
  8
0
 10
1997.662592
 20
2410.251540
 42
0.039541
  0
VERTEX
  8
0
 10
1990.966826
 20
2397.636531
 42
0.041309
  0
VERTEX
  8
0
 10
1986.454856
 20
2384.305477
 42
0.037260
  0
VERTEX
  8
0
 10
1983.880939
 20
2369.247432
 42
0.023330
  0
VERTEX
  8
0
 10
1983.019809
 20
2351.380990
 42
0.016140
  0
VERTEX
  8
0
 10
1983.351538
 20
2340.602652
 42
0.021879
  0
VERTEX
  8
0
 10
1984.389656
 20
2330.919148
 42
0.023412
  0
VERTEX
  8
0
 10
1986.189589
 20
2321.917965
 42
0.023990
  0
VERTEX
  8
0
 10
1988.811885
 20
2313.198904
 42
0.024159
  0
VERTEX
  8
0
 10
1992.159132
 20
2305.019313
 42
0.035037
  0
VERTEX
  8
0
 10
1995.945125
 20
2298.199460
 42
0.033114
  0
VERTEX
  8
0
 10
2000.813489
 20
2291.701973
 42
0.018725
  0
VERTEX
  8
0
 10
2007.499748
 20
2284.476859
 42
0.028523
  0
VERTEX
  8
0
 10
2015.225705
 20
2277.567803
 42
0.037107
  0
VERTEX
  8
0
 10
2023.065928
 20
2272.222110
 42
0.037041
  0
VERTEX
  8
0
 10
2031.621849
 20
2268.087041
 42
0.028263
  0
VERTEX
  8
0
 10
2041.500000
 20
2264.817473
 42
0.045655
  0
VERTEX
  8
0
 10
2051.693443
 20
2263.047927
 42
0.019866
  0
VERTEX
  8
0
 10
2065.439755
 20
2262.485243
 42
0.019824
  0
VERTEX
  8
0
 10
2079.137729
 20
2263.012312
 42
0.047566
  0
VERTEX
  8
0
 10
2089.135651
 20
2264.761077
 42
0.066854
  0
VERTEX
  8
0
 10
2109.221033
 20
2273.294022
 42
0.074738
  0
VERTEX
  8
0
 10
2125.501492
 20
2286.579319
 42
0.070639
  0
VERTEX
  8
0
 10
2137.824762
 20
2304.743134
 42
0.051596
  0
VERTEX
  8
0
 10
2146.241369
 20
2327.660089
 42
0.019094
  0
VERTEX
  8
0
 10
2147.457230
 20
2333.345393
 42
0.025123
  0
VERTEX
  8
0
 10
2148.104067
 20
2338.609380
 42
0.015604
  0
VERTEX
  8
0
 10
2148.387274
 20
2345.542476
 42
0.003072
  0
VERTEX
  8
0
 10
2148.430579
 20
2358.000000
 42
0.009960
  0
VERTEX
  8
0
 10
2148.067478
 20
2374.072919
 42
0.034510
  0
VERTEX
  8
0
 10
2146.910534
 20
2384.406245
 42
0.043460
  0
VERTEX
  8
0
 10
2144.504158
 20
2393.191440
 42
0.023628
  0
VERTEX
  8
0
 10
2140.127934
 20
2403.500000
 42
0.050550
  0
VERTEX
  8
0
 10
2131.548598
 20
2417.501820
 42
0.057458
  0
VERTEX
  8
0
 10
2120.650493
 20
2428.841783
 42
0.057517
  0
VERTEX
  8
0
 10
2107.467911
 20
2437.395320
 42
0.050820
  0
VERTEX
  8
0
 10
2092.129567
 20
2443.153085
 42
0.038486
  0
VERTEX
  8
0
 10
2084.106645
 20
2444.618153
 42
0.014277
  0
VERTEX
  8
0
 10
2072.653622
 20
2445.480294
 42
0.014342
  0
VERTEX
  8
0
 10
2061.124711
 20
2445.686703
 42
0.036571
  0
SEQEND
  0
POLYLINE
  8
0
 66
1
 70
1
  0
VERTEX
  8
0
 10
2080.563455
 20
2437.766382
 42
-0.101599
  0
VERTEX
  8
0
 10
2089.567762
 20
2430.505777
 42
-0.066218
  0
VERTEX
  8
0
 10
2096.655927
 20
2419.135655
 42
-0.052159
  0
VERTEX
  8
0
 10
2101.820347
 20
2403.602665
 42
-0.028528
  0
VERTEX
  8
0
 10
2105.015448
 20
2383.768493
 42
-0.023441
  0
VERTEX
  8
0
 10
2105.910194
 20
2367.751338
 42
-0.007016
  0
VERTEX
  8
0
 10
2105.785396
 20
2343.295389
 42
-0.006411
  0
VERTEX
  8
0
 10
2105.013469
 20
2319.148031
 42
-0.033908
  0
VERTEX
  8
0
 10
2103.527136
 20
2306.000000
 42
-0.044783
  0
VERTEX
  8
0
 10
2098.452214
 20
2287.653317
 42
-0.100823
  0
VERTEX
  8
0
 10
2090.815977
 20
2275.482436
 42
-0.126088
  0
VERTEX
  8
0
 10
2080.268970
 20
2268.889932
 42
-0.093741
  0
VERTEX
  8
0
 10
2066.579384
 20
2267.227378
 42
-0.113537
  0
VERTEX
  8
0
 10
2051.697401
 20
2271.703808
 42
-0.112203
  0
VERTEX
  8
0
 10
2040.192417
 20
2282.246158
 42
-0.082811
  0
VERTEX
  8
0
 10
2032.003618
 20
2299.626069
 42
-0.036902
  0
VERTEX
  8
0
 10
2026.927781
 20
2324.500000
 42
-0.026021
  0
VERTEX
  8
0
 10
2025.927031
 20
2337.729902
 42
-0.007449
  0
VERTEX
  8
0
 10
2025.750713
 20
2358.301380
 42
-0.007538
  0
VERTEX
  8
0
 10
2026.192623
 20
2378.944770
 42
-0.024284
  0
VERTEX
  8
0
 10
2027.358870
 20
2392.626182
 42
-0.026759
  0
VERTEX
  8
0
 10
2030.394212
 20
2408.659445
 42
-0.046356
  0
VERTEX
  8
0
 10
2034.826371
 20
2421.463132
 42
-0.058000
  0
VERTEX
  8
0
 10
2040.520597
 20
2430.924580
 42
-0.103520
  0
VERTEX
  8
0
 10
2047.398444
 20
2436.798762
 42
-0.022510
  0
VERTEX
  8
0
 10
2051.982664
 20
2439.044579
 42
-0.051399
  0
VERTEX
  8
0
 10
2055.648513
 20
2440.210029
 42
-0.045026
  0
VERTEX
  8
0
 10
2059.762199
 20
2440.685680
 42
-0.013940
  0
VERTEX
  8
0
 10
2066.000000
 20
2440.668496
 42
-0.009838
  0
VERTEX
  8
0
 10
2071.223271
 20
2440.405506
 42
-0.031689
  0
VERTEX
  8
0
 10
2074.669690
 20
2439.943219
 42
-0.041440
  0
VERTEX
  8
0
 10
2077.505167
 20
2439.129306
 42
-0.028441
  0
SEQEND
  0
POLYLINE
  8
0
 66
1
 70
1
  0
VERTEX
  8
0
 10
1012.480009
 20
2441.756540
 42
0.059899
  0
VERTEX
  8
0
 10
1011.455664
 20
2437.437134
 42
0.001290
  0
VERTEX
  8
0
 10
1009.052583
 20
2415.800640
 42
0.000433
  0
VERTEX
  8
0
 10
1006.595032
 20
2392.956681
 42
0.217571
  0
VERTEX
  8
0
 10
1007.042133
 20
2391.617217
 42
0.278507
  0
VERTEX
  8
0
 10
1008.453156
 20
2391.216170
 42
0.165297
  0
VERTEX
  8
0
 10
1009.949398
 20
2392.226585
 42
0.059691
  0
VERTEX
  8
0
 10
1011.679961
 20
2395.180410
 42
0.013154
  0
VERTEX
  8
0
 10
1013.887018
 20
2400.636052
 42
-0.020835
  0
VERTEX
  8
0
 10
1019.314820
 20
2413.482040
 42
-0.044087
  0
VERTEX
  8
0
 10
1024.770280
 20
2422.802482
 42
-0.056156
  0
VERTEX
  8
0
 10
1030.747651
 20
2429.483489
 42
-0.067921
  0
VERTEX
  8
0
 10
1037.718257
 20
2434.182062
 42
-0.018424
  0
VERTEX
  8
0
 10
1041.790770
 20
2436.003784
 42
-0.042833
  0
VERTEX
  8
0
 10
1044.984841
 20
2436.985417
 42
-0.034973
  0
VERTEX
  8
0
 10
1048.669057
 20
2437.514515
 42
-0.008930
  0
VERTEX
  8
0
 10
1054.692104
 20
2437.845269
 42
0.000000
  0
VERTEX
  8
0
 10
1065.000000
 20
2438.226839
 42
0.000000
  0
VERTEX
  8
0
 10
1065.000000
 20
2357.678519
 42
-0.000943
  0
VERTEX
  8
0
 10
1064.937504
 20
2324.526037
 42
-0.001923
  0
VERTEX
  8
0
 10
1064.739272
 20
2298.501437
 42
-0.000483
  0
VERTEX
  8
0
 10
1064.470035
 20
2276.840640
 42
-0.087706
  0
VERTEX
  8
0
 10
1064.047868
 20
2274.625901
 42
-0.107408
  0
VERTEX
  8
0
 10
1062.549850
 20
2272.326002
 42
-0.098128
  0
VERTEX
  8
0
 10
1060.187162
 20
2270.764995
 42
-0.060998
  0
VERTEX
  8
0
 10
1056.469294
 20
2269.750517
 42
-0.017552
  0
VERTEX
  8
0
 10
1050.532036
 20
2269.098165
 42
0.008033
  0
VERTEX
  8
0
 10
1046.491673
 20
2268.731918
 42
0.037280
  0
VERTEX
  8
0
 10
1044.188367
 20
2268.310431
 42
0.076500
  0
VERTEX
  8
0
 10
1042.921439
 20
2267.762467
 42
0.257973
  0
VERTEX
  8
0
 10
1042.500000
 20
2267.000000
 42
0.394238
  0
VERTEX
  8
0
 10
1043.340694
 20
2266.099490
 42
0.008452
  0
VERTEX
  8
0
 10
1049.916667
 20
2265.758721
 42
0.007792
  0
VERTEX
  8
0
 10
1060.975396
 20
2265.545411
 42
0.000926
  0
VERTEX
  8
0
 10
1085.500000
 20
2265.500000
 42
0.000926
  0
VERTEX
  8
0
 10
1110.024604
 20
2265.545411
 42
0.007792
  0
VERTEX
  8
0
 10
1121.083333
 20
2265.758721
 42
0.008452
  0
VERTEX
  8
0
 10
1127.659306
 20
2266.099490
 42
0.394238
  0
VERTEX
  8
0
 10
1128.500000
 20
2267.000000
 42
0.169554
  0
VERTEX
  8
0
 10
1128.267173
 20
2267.666848
 42
0.109295
  0
VERTEX
  8
0
 10
1127.625097
 20
2268.187390
 42
0.069797
  0
VERTEX
  8
0
 10
1126.543387
 20
2268.550842
 42
0.028417
  0
VERTEX
  8
0
 10
1125.000000
 20
2268.749421
 42
-0.007255
  0
VERTEX
  8
0
 10
1117.656423
 20
2269.379957
 42
-0.031029
  0
VERTEX
  8
0
 10
1113.319356
 20
2270.089667
 42
-0.053569
  0
VERTEX
  8
0
 10
1110.461871
 20
2271.072503
 42
-0.086990
  0
VERTEX
  8
0
 10
1108.365825
 20
2272.543266
 42
0.000000
  0
VERTEX
  8
0
 10
1106.000000
 20
2274.909091
 42
0.000000
  0
VERTEX
  8
0
 10
1106.000000
 20
2356.567965
 42
0.000000
  0
VERTEX
  8
0
 10
1106.000000
 20
2438.226839
 42
0.000000
  0
VERTEX
  8
0
 10
1116.250000
 20
2437.802232
 42
-0.009877
  0
VERTEX
  8
0
 10
1121.540366
 20
2437.478303
 42
-0.023545
  0
VERTEX
  8
0
 10
1125.444715
 20
2436.975845
 42
-0.029824
  0
VERTEX
  8
0
 10
1128.670266
 20
2436.204592
 42
-0.030123
  0
VERTEX
  8
0
 10
1131.770111
 20
2435.057017
 42
-0.081656
  0
VERTEX
  8
0
 10
1138.809312
 20
2430.467880
 42
-0.052202
  0
VERTEX
  8
0
 10
1145.305006
 20
2423.147778
 42
-0.042077
  0
VERTEX
  8
0
 10
1151.358311
 20
2412.989132
 42
-0.023455
  0
VERTEX
  8
0
 10
1157.055484
 20
2399.750000
 42
0.015859
  0
VERTEX
  8
0
 10
1159.238864
 20
2394.456257
 42
0.075677
  0
VERTEX
  8
0
 10
1161.009711
 20
2391.717487
 42
0.287269
  0
VERTEX
  8
0
 10
1162.414770
 20
2391.303874
 42
0.237100
  0
VERTEX
  8
0
 10
1163.590243
 20
2392.374574
 42
0.112804
  0
VERTEX
  8
0
 10
1163.743506
 20
2393.448548
 42
0.001364
  0
VERTEX
  8
0
 10
1163.137669
 20
2400.505649
 42
0.003997
  0
VERTEX
  8
0
 10
1162.347267
 20
2408.682832
 42
0.002593
  0
VERTEX
  8
0
 10
1161.308859
 20
2418.124574
 42
0.000000
  0
VERTEX
  8
0
 10
1158.500000
 20
2442.500000
 42
0.000000
  0
VERTEX
  8
0
 10
1085.721125
 20
2442.756540
 42
0.000677
  0
VERTEX
  8
0
 10
1048.124365
 20
2442.838128
 42
0.003617
  0
VERTEX
  8
0
 10
1027.600366
 20
2442.706389
 42
0.001331
  0
VERTEX
  8
0
 10
1013.490967
 20
2442.476189
 42
0.309149
  0
SEQEND
  0
POLYLINE
  8
0
 66
1
 70
1
  0
VERTEX
  8
0
 10
2573.037069
 20
2429.852945
 42
0.003143
  0
VERTEX
  8
0
 10
2570.541084
 20
2429.471761
 42
0.004900
  0
VERTEX
  8
0
 10
2568.396224
 20
2429.108805
 42
0.001593
  0
VERTEX
  8
0
 10
2566.550181
 20
2428.771701
 42
0.151543
  0
VERTEX
  8
0
 10
2566.314053
 20
2428.647386
 42
0.137442
  0
VERTEX
  8
0
 10
2566.181172
 20
2428.411062
 42
0.001220
  0
VERTEX
  8
0
 10
2565.696338
 20
2426.400401
 42
0.004093
  0
VERTEX
  8
0
 10
2565.161552
 20
2424.074392
 42
0.002617
  0
VERTEX
  8
0
 10
2564.576423
 20
2421.363302
 42
-0.031652
  0
VERTEX
  8
0
 10
2561.299422
 20
2409.550968
 42
-0.071898
  0
VERTEX
  8
0
 10
2557.051651
 20
2401.340699
 42
-0.089391
  0
VERTEX
  8
0
 10
2551.329413
 20
2395.775458
 42
-0.073942
  0
VERTEX
  8
0
 10
2543.644665
 20
2392.105227
 42
-0.007080
  0
VERTEX
  8
0
 10
2540.881080
 20
2391.299186
 42
-0.008381
  0
VERTEX
  8
0
 10
2538.246527
 20
2390.618410
 42
-0.007449
  0
VERTEX
  8
0
 10
2536.010286
 20
2390.115495
 42
-0.051625
  0
VERTEX
  8
0
 10
2534.894665
 20
2390.000000
 42
0.077656
  0
VERTEX
  8
0
 10
2534.170865
 20
2389.886904
 42
0.090157
  0
VERTEX
  8
0
 10
2533.556558
 20
2389.559375
 42
0.100779
  0
VERTEX
  8
0
 10
2533.145882
 20
2389.072061
 42
0.125498
  0
VERTEX
  8
0
 10
2533.000000
 20
2388.500000
 42
0.258593
  0
VERTEX
  8
0
 10
2533.413981
 20
2387.753078
 42
0.093584
  0
VERTEX
  8
0
 10
2534.583333
 20
2387.296875
 42
0.039364
  0
VERTEX
  8
0
 10
2536.808516
 20
2387.058630
 42
0.006994
  0
VERTEX
  8
0
 10
2541.000000
 20
2387.000000
 42
0.000000
  0
VERTEX
  8
0
 10
2549.000000
 20
2387.000000
 42
0.000000
  0
VERTEX
  8
0
 10
2549.017766
 20
2343.750000
 42
0.002489
  0
VERTEX
  8
0
 10
2549.183579
 20
2312.979291
 42
0.012803
  0
VERTEX
  8
0
 10
2549.796857
 20
2295.937797
 42
0.022409
  0
VERTEX
  8
0
 10
2550.947151
 20
2285.166388
 42
0.075051
  0
VERTEX
  8
0
 10
2553.046718
 20
2278.403494
 42
0.069420
  0
VERTEX
  8
0
 10
2557.317575
 20
2272.017353
 42
0.073581
  0
VERTEX
  8
0
 10
2563.098920
 20
2267.188908
 42
0.068057
  0
VERTEX
  8
0
 10
2570.430716
 20
2263.975896
 42
0.048234
  0
VERTEX
  8
0
 10
2579.278655
 20
2262.359221
 42
0.043074
  0
VERTEX
  8
0
 10
2589.143705
 20
2262.376626
 42
0.055604
  0
VERTEX
  8
0
 10
2598.017190
 20
2264.165704
 42
0.056986
  0
VERTEX
  8
0
 10
2606.107735
 20
2267.816602
 42
0.048679
  0
VERTEX
  8
0
 10
2613.642897
 20
2273.368843
 42
0.029243
  0
VERTEX
  8
0
 10
2618.360700
 20
2278.137702
 42
0.028864
  0
VERTEX
  8
0
 10
2622.511982
 20
2283.444431
 42
0.023450
  0
VERTEX
  8
0
 10
2625.523026
 20
2288.255334
 42
0.336318
  0
VERTEX
  8
0
 10
2625.264756
 20
2290.135244
 42
0.190945
  0
VERTEX
  8
0
 10
2624.529193
 20
2290.453239
 42
0.103534
  0
VERTEX
  8
0
 10
2623.544193
 20
2290.278442
 42
0.056817
  0
VERTEX
  8
0
 10
2622.205402
 20
2289.554903
 42
0.016749
  0
VERTEX
  8
0
 10
2620.334761
 20
2288.154902
 42
-0.043805
  0
VERTEX
  8
0
 10
2616.362337
 20
2285.504219
 42
-0.043131
  0
VERTEX
  8
0
 10
2611.968667
 20
2283.570209
 42
-0.042447
  0
VERTEX
  8
0
 10
2607.240549
 20
2282.395066
 42
-0.039712
  0
VERTEX
  8
0
 10
2602.274273
 20
2282.000000
 42
-0.019066
  0
VERTEX
  8
0
 10
2599.107545
 20
2282.120796
 42
-0.070941
  0
VERTEX
  8
0
 10
2597.163976
 20
2282.551129
 42
-0.079169
  0
VERTEX
  8
0
 10
2595.529618
 20
2283.481591
 42
-0.027467
  0
VERTEX
  8
0
 10
2593.503076
 20
2285.296924
 42
-0.035865
  0
VERTEX
  8
0
 10
2592.160219
 20
2286.847604
 42
-0.024276
  0
VERTEX
  8
0
 10
2590.852233
 20
2288.786593
 42
-0.024510
  0
VERTEX
  8
0
 10
2589.765996
 20
2290.794443
 42
-0.044049
  0
VERTEX
  8
0
 10
2589.108653
 20
2292.546924
 42
-0.059283
  0
VERTEX
  8
0
 10
2588.601028
 20
2295.852345
 42
-0.002885
  0
VERTEX
  8
0
 10
2588.287799
 20
2306.962824
 42
-0.003945
  0
VERTEX
  8
0
 10
2588.073181
 20
2321.738448
 42
-0.001627
  0
VERTEX
  8
0
 10
2588.005577
 20
2341.750000
 42
0.000000
  0
VERTEX
  8
0
 10
2588.000000
 20
2387.000000
 42
0.000000
  0
VERTEX
  8
0
 10
2604.500000
 20
2387.000000
 42
0.001966
  0
VERTEX
  8
0
 10
2614.970405
 20
2387.041173
 42
0.028197
  0
VERTEX
  8
0
 10
2618.687500
 20
2387.280303
 42
0.109374
  0
VERTEX
  8
0
 10
2620.374388
 20
2387.874181
 42
0.259183
  0
VERTEX
  8
0
 10
2621.000000
 20
2389.000000
 42
0.258997
  0
VERTEX
  8
0
 10
2620.374964
 20
2390.125704
 42
0.109511
  0
VERTEX
  8
0
 10
2618.690142
 20
2390.719658
 42
0.028232
  0
VERTEX
  8
0
 10
2614.977433
 20
2390.958816
 42
0.001969
  0
VERTEX
  8
0
 10
2604.521140
 20
2391.000000
 42
0.000000
  0
VERTEX
  8
0
 10
2588.042280
 20
2391.000000
 42
0.000000
  0
VERTEX
  8
0
 10
2587.771140
 20
2410.750000
 42
0.000000
  0
VERTEX
  8
0
 10
2587.500000
 20
2430.500000
 42
0.000000
  0
VERTEX
  8
0
 10
2583.500000
 20
2430.649209
 42
0.020429
  0
VERTEX
  8
0
 10
2581.519421
 20
2430.642145
 42
0.007885
  0
VERTEX
  8
0
 10
2578.776514
 20
2430.476855
 42
0.007791
  0
VERTEX
  8
0
 10
2575.804595
 20
2430.204047
 42
0.009535
  0
SEQEND
  0
POLYLINE
  8
0
 66
1
 70
1
  0
VERTEX
  8
0
 10
610.000000
 20
2358.000000
 42
0.000000
  0
VERTEX
  8
0
 10
610.000000
 20
2297.000000
 42
0.000000
  0
VERTEX
  8
0
 10
670.500000
 20
2297.000000
 42
0.000000
  0
VERTEX
  8
0
 10
731.000000
 20
2297.000000
 42
0.000000
  0
VERTEX
  8
0
 10
731.000000
 20
2358.000000
 42
0.000000
  0
VERTEX
  8
0
 10
731.000000
 20
2419.000000
 42
0.000000
  0
VERTEX
  8
0
 10
670.500000
 20
2419.000000
 42
0.000000
  0
VERTEX
  8
0
 10
610.000000
 20
2419.000000
 42
0.000000
  0
SEQEND
  0
POLYLINE
  8
0
 66
1
 70
1
  0
VERTEX
  8
0
 10
713.760623
 20
2358.250000
 42
0.000000
  0
VERTEX
  8
0
 10
714.021245
 20
2315.000000
 42
0.000000
  0
VERTEX
  8
0
 10
670.510623
 20
2315.000000
 42
0.000000
  0
VERTEX
  8
0
 10
627.000000
 20
2315.000000
 42
0.000000
  0
VERTEX
  8
0
 10
627.000000
 20
2358.510623
 42
0.000000
  0
VERTEX
  8
0
 10
627.000000
 20
2402.021245
 42
0.000000
  0
VERTEX
  8
0
 10
670.250000
 20
2401.760623
 42
0.000000
  0
VERTEX
  8
0
 10
713.500000
 20
2401.500000
 42
0.000000
  0
SEQEND
  0
POLYLINE
  8
0
 66
1
 70
1
  0
VERTEX
  8
0
 10
1217.756256
 20
2393.980837
 42
0.038214
  0
VERTEX
  8
0
 10
1207.034690
 20
2391.435732
 42
0.041596
  0
VERTEX
  8
0
 10
1197.138950
 20
2387.337886
 42
0.042565
  0
VERTEX
  8
0
 10
1188.260179
 20
2381.761109
 42
0.044028
  0
VERTEX
  8
0
 10
1180.562226
 20
2374.817757
 42
0.026639
  0
VERTEX
  8
0
 10
1175.537811
 20
2368.799348
 42
0.033308
  0
VERTEX
  8
0
 10
1171.576863
 20
2362.697506
 42
0.032953
  0
VERTEX
  8
0
 10
1168.429488
 20
2356.068869
 42
0.025186
  0
VERTEX
  8
0
 10
1165.849933
 20
2348.464888
 42
0.045824
  0
VERTEX
  8
0
 10
1164.105050
 20
2339.146572
 42
0.020116
  0
VERTEX
  8
0
 10
1163.435534
 20
2326.597058
 42
0.020055
  0
VERTEX
  8
0
 10
1163.773437
 20
2314.099357
 42
0.048599
  0
VERTEX
  8
0
 10
1165.281656
 20
2305.000000
 42
0.071477
  0
VERTEX
  8
0
 10
1172.796608
 20
2287.426197
 42
0.090655
  0
VERTEX
  8
0
 10
1184.517780
 20
2274.265712
 42
0.088505
  0
VERTEX
  8
0
 10
1200.377554
 20
2265.891377
 42
0.064831
  0
VERTEX
  8
0
 10
1220.000000
 20
2262.325101
 42
0.055803
  0
VERTEX
  8
0
 10
1237.298014
 20
2263.384865
 42
0.070950
  0
VERTEX
  8
0
 10
1252.492353
 20
2268.324868
 42
0.072487
  0
VERTEX
  8
0
 10
1265.454161
 20
2277.206349
 42
0.061645
  0
VERTEX
  8
0
 10
1276.175660
 20
2289.878305
 42
0.007564
  0
VERTEX
  8
0
 10
1278.023722
 20
2292.800278
 42
0.010520
  0
VERTEX
  8
0
 10
1279.582850
 20
2295.474832
 42
0.007263
  0
VERTEX
  8
0
 10
1280.798515
 20
2297.741821
 42
0.119995
  0
VERTEX
  8
0
 10
1281.000000
 20
2298.569288
 42
0.172123
  0
VERTEX
  8
0
 10
1280.522545
 20
2299.915155
 42
0.262142
  0
VERTEX
  8
0
 10
1279.397494
 20
2300.359614
 42
0.099587
  0
VERTEX
  8
0
 10
1277.397104
 20
2299.663172
 42
0.021274
  0
VERTEX
  8
0
 10
1274.295403
 20
2297.648322
 42
-0.032467
  0
VERTEX
  8
0
 10
1265.956134
 20
2292.492682
 42
-0.045680
  0
VERTEX
  8
0
 10
1257.897295
 20
2289.109057
 42
-0.045554
  0
VERTEX
  8
0
 10
1249.340860
 20
2287.239004
 42
-0.032048
  0
VERTEX
  8
0
 10
1239.500000
 20
2286.647341
 42
-0.031336
  0
VERTEX
  8
0
 10
1231.179972
 20
2287.202913
 42
-0.060803
  0
VERTEX
  8
0
 10
1224.735739
 20
2288.853779
 42
-0.067222
  0
VERTEX
  8
0
 10
1219.304908
 20
2291.866525
 42
-0.047437
  0
VERTEX
  8
0
 10
1214.123295
 20
2296.555474
 42
-0.060315
  0
VERTEX
  8
0
 10
1209.407792
 20
2303.160913
 42
-0.047549
  0
VERTEX
  8
0
 10
1205.947185
 20
2311.245029
 42
-0.042936
  0
VERTEX
  8
0
 10
1203.805333
 20
2320.662679
 42
-0.032404
  0
VERTEX
  8
0
 10
1203.030876
 20
2331.250000
 42
0.000000
  0
VERTEX
  8
0
 10
1203.000000
 20
2335.000000
 42
0.000000
  0
VERTEX
  8
0
 10
1241.428044
 20
2335.000000
 42
0.000000
  0
VERTEX
  8
0
 10
1279.856087
 20
2335.000000
 42
0.000000
  0
VERTEX
  8
0
 10
1280.583354
 20
2340.750000
 42
0.040331
  0
VERTEX
  8
0
 10
1280.897879
 20
2347.704582
 42
0.029125
  0
VERTEX
  8
0
 10
1280.171577
 20
2355.436748
 42
0.029237
  0
VERTEX
  8
0
 10
1278.559633
 20
2362.986595
 42
0.042245
  0
VERTEX
  8
0
 10
1276.199956
 20
2369.386398
 42
0.063620
  0
VERTEX
  8
0
 10
1271.106989
 20
2377.424638
 42
0.055395
  0
VERTEX
  8
0
 10
1263.936846
 20
2384.353641
 42
0.054175
  0
VERTEX
  8
0
 10
1255.248312
 20
2389.673160
 42
0.055223
  0
VERTEX
  8
0
 10
1245.674963
 20
2392.960790
 42
0.031583
  0
VERTEX
  8
0
 10
1239.619027
 20
2393.921429
 42
0.014414
  0
VERTEX
  8
0
 10
1231.623311
 20
2394.444661
 42
0.014364
  0
VERTEX
  8
0
 10
1223.662396
 20
2394.506711
 42
0.033949
  0
SEQEND
  0
POLYLINE
  8
0
 66
1
 70
1
  0
VERTEX
  8
0
 10
1234.709663
 20
2388.035491
 42
-0.119006
  0
VERTEX
  8
0
 10
1238.989310
 20
2383.764023
 42
-0.070958
  0
VERTEX
  8
0
 10
1241.857815
 20
2377.123872
 42
-0.048227
  0
VERTEX
  8
0
 10
1243.501782
 20
2367.530831
 42
-0.018338
  0
VERTEX
  8
0
 10
1244.000000
 20
2353.950779
 42
0.000000
  0
VERTEX
  8
0
 10
1244.000000
 20
2340.000000
 42
0.000000
  0
VERTEX
  8
0
 10
1223.500000
 20
2340.000000
 42
-0.002055
  0
VERTEX
  8
0
 10
1211.891611
 20
2340.047718
 42
-0.016684
  0
VERTEX
  8
0
 10
1206.579189
 20
2340.268773
 42
-0.033415
  0
VERTEX
  8
0
 10
1203.696413
 20
2340.680187
 42
-0.354366
  0
VERTEX
  8
0
 10
1203.000000
 20
2341.539414
 42
-0.028261
  0
VERTEX
  8
0
 10
1203.265763
 20
2346.237653
 42
-0.005333
  0
VERTEX
  8
0
 10
1204.326302
 20
2354.768777
 42
-0.005636
  0
VERTEX
  8
0
 10
1205.579323
 20
2363.312743
 42
-0.023248
  0
VERTEX
  8
0
 10
1206.634355
 20
2368.428602
 42
-0.024990
  0
VERTEX
  8
0
 10
1208.207230
 20
2373.516275
 42
-0.024244
  0
VERTEX
  8
0
 10
1210.293568
 20
2378.474663
 42
-0.025172
  0
VERTEX
  8
0
 10
1212.566288
 20
2382.663744
 42
-0.072281
  0
VERTEX
  8
0
 10
1214.671668
 20
2385.205667
 42
-0.081382
  0
VERTEX
  8
0
 10
1219.171339
 20
2388.104697
 42
-0.067512
  0
VERTEX
  8
0
 10
1224.660615
 20
2389.654170
 42
-0.069854
  0
VERTEX
  8
0
 10
1230.166015
 20
2389.658646
 42
-0.102576
  0
SEQEND
  0
POLYLINE
  8
0
 66
1
 70
1
  0
VERTEX
  8
0
 10
1379.000000
 20
2393.607483
 42
0.056338
  0
VERTEX
  8
0
 10
1370.658799
 20
2390.734662
 42
0.053375
  0
VERTEX
  8
0
 10
1363.003889
 20
2386.031983
 42
0.052140
  0
VERTEX
  8
0
 10
1356.362003
 20
2379.697339
 42
0.049017
  0
VERTEX
  8
0
 10
1351.017279
 20
2372.000000
 42
0.000000
  0
VERTEX
  8
0
 10
1347.948198
 20
2366.500000
 42
0.000000
  0
VERTEX
  8
0
 10
1348.142417
 20
2378.781682
 42
0.007080
  0
VERTEX
  8
0
 10
1348.150301
 20
2383.551161
 42
0.010624
  0
VERTEX
  8
0
 10
1348.009829
 20
2387.711224
 42
0.005820
  0
VERTEX
  8
0
 10
1347.778380
 20
2391.179101
 42
0.185599
  0
VERTEX
  8
0
 10
1347.418318
 20
2391.933508
 42
0.193237
  0
VERTEX
  8
0
 10
1346.557074
 20
2392.274209
 42
0.001681
  0
VERTEX
  8
0
 10
1339.353829
 20
2392.213475
 42
0.005393
  0
VERTEX
  8
0
 10
1330.871778
 20
2392.021928
 42
0.003134
  0
VERTEX
  8
0
 10
1320.692812
 20
2391.618311
 42
0.002114
  0
VERTEX
  8
0
 10
1307.232725
 20
2390.943040
 42
0.011140
  0
VERTEX
  8
0
 10
1299.858217
 20
2390.376805
 42
0.013058
  0
VERTEX
  8
0
 10
1295.229468
 20
2389.795060
 42
0.218775
  0
VERTEX
  8
0
 10
1293.970024
 20
2388.966484
 42
0.257820
  0
VERTEX
  8
0
 10
1293.928278
 20
2388.186659
 42
0.182762
  0
VERTEX
  8
0
 10
1294.578184
 20
2387.571307
 42
0.053176
  0
VERTEX
  8
0
 10
1296.335617
 20
2387.046278
 42
0.007407
  0
VERTEX
  8
0
 10
1300.086079
 20
2386.405420
 42
-0.017223
  0
VERTEX
  8
0
 10
1302.961754
 20
2385.855747
 42
-0.021442
  0
VERTEX
  8
0
 10
1305.586847
 20
2385.139997
 42
-0.021958
  0
VERTEX
  8
0
 10
1307.709597
 20
2384.357975
 42
-0.097394
  0
VERTEX
  8
0
 10
1308.808866
 20
2383.620271
 42
-0.179256
  0
VERTEX
  8
0
 10
1309.843413
 20
2381.369372
 42
-0.010212
  0
VERTEX
  8
0
 10
1310.275421
 20
2373.614795
 42
-0.006847
  0
VERTEX
  8
0
 10
1310.566743
 20
2360.089188
 42
-0.000688
  0
VERTEX
  8
0
 10
1310.775378
 20
2327.821634
 42
-0.001060
  0
VERTEX
  8
0
 10
1310.900881
 20
2285.546810
 42
-0.038021
  0
VERTEX
  8
0
 10
1310.166755
 20
2275.797279
 42
-0.205387
  0
VERTEX
  8
0
 10
1307.516957
 20
2271.535847
 42
-0.124816
  0
VERTEX
  8
0
 10
1301.877398
 20
2269.406619
 42
0.011105
  0
VERTEX
  8
0
 10
1298.734940
 20
2268.980219
 42
0.063128
  0
VERTEX
  8
0
 10
1297.118001
 20
2268.509720
 42
0.140995
  0
VERTEX
  8
0
 10
1296.304338
 20
2267.839004
 42
0.151458
  0
VERTEX
  8
0
 10
1296.000000
 20
2266.857353
 42
0.358030
  0
VERTEX
  8
0
 10
1296.929671
 20
2265.725464
 42
0.036723
  0
VERTEX
  8
0
 10
1300.624683
 20
2265.271892
 42
0.013265
  0
VERTEX
  8
0
 10
1308.062384
 20
2265.106754
 42
0.000899
  0
VERTEX
  8
0
 10
1329.236592
 20
2265.236519
 42
0.001139
  0
VERTEX
  8
0
 10
1348.849452
 20
2265.436680
 42
0.011112
  0
VERTEX
  8
0
 10
1357.138684
 20
2265.724481
 42
0.018912
  0
VERTEX
  8
0
 10
1361.745507
 20
2266.162283
 42
0.322573
  0
VERTEX
  8
0
 10
1362.790419
 20
2267.148759
 42
0.179682
  0
VERTEX
  8
0
 10
1362.651267
 20
2267.981947
 42
0.149039
  0
VERTEX
  8
0
 10
1361.991775
 20
2268.601077
 42
0.066703
  0
VERTEX
  8
0
 10
1360.596332
 20
2269.070853
 42
0.013713
  0
VERTEX
  8
0
 10
1358.027844
 20
2269.496170
 42
-0.120768
  0
VERTEX
  8
0
 10
1353.078986
 20
2271.455896
 42
-0.200926
  0
VERTEX
  8
0
 10
1350.744876
 20
2275.205437
 42
-0.040420
  0
VERTEX
  8
0
 10
1350.077341
 20
2283.591096
 42
-0.001277
  0
VERTEX
  8
0
 10
1350.211392
 20
2317.860036
 42
0.000000
  0
VERTEX
  8
0
 10
1350.500000
 20
2362.500000
 42
0.000000
  0
VERTEX
  8
0
 10
1352.864221
 20
2367.000000
 42
-0.038050
  0
VERTEX
  8
0
 10
1357.285965
 20
2374.055770
 42
-0.074560
  0
VERTEX
  8
0
 10
1361.960299
 20
2378.736461
 42
-0.087513
  0
VERTEX
  8
0
 10
1367.257092
 20
2381.378270
 42
-0.072143
  0
VERTEX
  8
0
 10
1373.513590
 20
2382.285714
 42
-0.175568
  0
VERTEX
  8
0
 10
1382.443232
 20
2379.050466
 42
-0.163717
  0
VERTEX
  8
0
 10
1387.545652
 20
2370.747849
 42
-0.053082
  0
VERTEX
  8
0
 10
1389.685676
 20
2353.064749
 42
-0.005643
  0
VERTEX
  8
0
 10
1389.813728
 20
2311.554951
 42
-0.001390
  0
VERTEX
  8
0
 10
1389.596373
 20
2291.762891
 42
-0.007017
  0
VERTEX
  8
0
 10
1389.289201
 20
2280.714366
 42
-0.006721
  0
VERTEX
  8
0
 10
1388.892249
 20
2273.539664
 42
-0.157393
  0
VERTEX
  8
0
 10
1388.144529
 20
2271.672693
 42
-0.103074
  0
VERTEX
  8
0
 10
1387.299620
 20
2271.000262
 42
-0.029219
  0
VERTEX
  8
0
 10
1385.749459
 20
2270.329515
 42
-0.028111
  0
VERTEX
  8
0
 10
1383.867636
 20
2269.760276
 42
-0.026419
  0
VERTEX
  8
0
 10
1381.894529
 20
2269.391621
 42
0.015367
  0
VERTEX
  8
0
 10
1379.374773
 20
2268.978218
 42
0.071234
  0
VERTEX
  8
0
 10
1377.985169
 20
2268.493570
 42
0.139191
  0
VERTEX
  8
0
 10
1377.265624
 20
2267.817296
 42
0.135771
  0
VERTEX
  8
0
 10
1377.000000
 20
2266.857122
 42
0.354162
  0
VERTEX
  8
0
 10
1377.911929
 20
2265.731162
 42
0.039582
  0
VERTEX
  8
0
 10
1381.423602
 20
2265.271480
 42
0.013894
  0
VERTEX
  8
0
 10
1388.534445
 20
2265.106112
 42
0.000946
  0
VERTEX
  8
0
 10
1408.736616
 20
2265.235953
 42
0.001202
  0
VERTEX
  8
0
 10
1427.433081
 20
2265.436455
 42
0.011620
  0
VERTEX
  8
0
 10
1435.366203
 20
2265.725076
 42
0.020342
  0
VERTEX
  8
0
 10
1439.759366
 20
2266.167115
 42
0.320263
  0
VERTEX
  8
0
 10
1440.790443
 20
2267.148759
 42
0.179682
  0
VERTEX
  8
0
 10
1440.651278
 20
2267.981946
 42
0.149036
  0
VERTEX
  8
0
 10
1439.991774
 20
2268.601075
 42
0.066702
  0
VERTEX
  8
0
 10
1438.596323
 20
2269.070854
 42
0.013713
  0
VERTEX
  8
0
 10
1436.027844
 20
2269.496170
 42
-0.022210
  0
VERTEX
  8
0
 10
1433.975057
 20
2269.872027
 42
-0.023656
  0
VERTEX
  8
0
 10
1432.007236
 20
2270.422586
 42
-0.024104
  0
VERTEX
  8
0
 10
1430.370606
 20
2271.054194
 42
-0.092485
  0
VERTEX
  8
0
 10
1429.474017
 20
2271.668840
 42
-0.198033
  0
VERTEX
  8
0
 10
1427.858667
 20
2275.550048
 42
-0.001164
  0
VERTEX
  8
0
 10
1427.816637
 20
2315.289078
 42
-0.002685
  0
VERTEX
  8
0
 10
1428.066629
 20
2352.934991
 42
-0.069276
  0
VERTEX
  8
0
 10
1429.589963
 20
2362.990982
 42
-0.056283
  0
VERTEX
  8
0
 10
1433.097296
 20
2371.260761
 42
-0.084536
  0
VERTEX
  8
0
 10
1438.027962
 20
2377.330249
 42
-0.093864
  0
VERTEX
  8
0
 10
1444.263563
 20
2381.006515
 42
-0.086598
  0
VERTEX
  8
0
 10
1451.594055
 20
2382.285714
 42
-0.077147
  0
VERTEX
  8
0
 10
1457.974616
 20
2381.295340
 42
-0.138823
  0
VERTEX
  8
0
 10
1462.359657
 20
2378.398143
 42
-0.108527
  0
VERTEX
  8
0
 10
1465.246023
 20
2373.049323
 42
-0.036578
  0
VERTEX
  8
0
 10
1467.064645
 20
2364.325066
 42
-0.032716
  0
VERTEX
  8
0
 10
1468.013828
 20
2350.175288
 42
-0.002876
  0
VERTEX
  8
0
 10
1467.863724
 20
2314.259513
 42
-0.000783
  0
VERTEX
  8
0
 10
1467.413708
 20
2275.116864
 42
-0.171666
  0
VERTEX
  8
0
 10
1466.144529
 20
2271.672902
 42
-0.103078
  0
VERTEX
  8
0
 10
1465.299613
 20
2271.000390
 42
-0.029223
  0
VERTEX
  8
0
 10
1463.749459
 20
2270.329576
 42
-0.028115
  0
VERTEX
  8
0
 10
1461.867636
 20
2269.760291
 42
-0.026423
  0
VERTEX
  8
0
 10
1459.894529
 20
2269.391621
 42
0.015440
  0
VERTEX
  8
0
 10
1457.383630
 20
2268.979292
 42
0.070591
  0
VERTEX
  8
0
 10
1455.990688
 20
2268.495020
 42
0.137705
  0
VERTEX
  8
0
 10
1455.267210
 20
2267.822076
 42
0.137834
  0
VERTEX
  8
0
 10
1455.000000
 20
2266.871169
 42
0.358485
  0
VERTEX
  8
0
 10
1455.930290
 20
2265.740387
 42
0.034550
  0
VERTEX
  8
0
 10
1459.725811
 20
2265.263964
 42
0.013034
  0
VERTEX
  8
0
 10
1467.295351
 20
2265.038848
 42
0.000916
  0
VERTEX
  8
0
 10
1488.500000
 20
2265.000000
 42
0.000897
  0
VERTEX
  8
0
 10
1509.857417
 20
2265.038336
 42
0.013281
  0
VERTEX
  8
0
 10
1517.346308
 20
2265.264193
 42
0.036854
  0
VERTEX
  8
0
 10
1521.063455
 20
2265.751616
 42
0.355633
  0
VERTEX
  8
0
 10
1522.000000
 20
2266.901813
 42
0.149855
  0
VERTEX
  8
0
 10
1521.695082
 20
2267.896341
 42
0.141971
  0
VERTEX
  8
0
 10
1520.879652
 20
2268.574496
 42
0.063206
  0
VERTEX
  8
0
 10
1519.253382
 20
2269.051740
 42
0.010914
  0
VERTEX
  8
0
 10
1516.067577
 20
2269.492157
 42
-0.090120
  0
VERTEX
  8
0
 10
1510.056063
 20
2271.320827
 42
-0.226499
  0
VERTEX
  8
0
 10
1507.352459
 20
2274.875341
 42
-0.046993
  0
VERTEX
  8
0
 10
1506.469052
 20
2282.811376
 42
-0.001248
  0
VERTEX
  8
0
 10
1505.958203
 20
2318.168259
 42
0.001706
  0
VERTEX
  8
0
 10
1505.462061
 20
2350.460874
 42
0.021978
  0
VERTEX
  8
0
 10
1504.705921
 20
2362.500205
 42
0.057074
  0
VERTEX
  8
0
 10
1503.018973
 20
2370.019440
 42
0.048881
  0
VERTEX
  8
0
 10
1499.616677
 20
2377.391118
 42
0.107770
  0
VERTEX
  8
0
 10
1490.366933
 20
2387.424078
 42
0.091409
  0
VERTEX
  8
0
 10
1477.231877
 20
2393.431724
 42
0.086429
  0
VERTEX
  8
0
 10
1462.146450
 20
2394.553555
 42
0.082973
  0
VERTEX
  8
0
 10
1447.337568
 20
2390.554267
 42
0.054542
  0
VERTEX
  8
0
 10
1442.239307
 20
2387.509912
 42
0.032495
  0
VERTEX
  8
0
 10
1436.883288
 20
2382.885226
 42
0.032373
  0
VERTEX
  8
0
 10
1432.131275
 20
2377.562937
 42
0.050940
  0
VERTEX
  8
0
 10
1428.867155
 20
2372.383496
 42
0.000000
  0
VERTEX
  8
0
 10
1426.328733
 20
2367.266992
 42
0.000000
  0
VERTEX
  8
0
 10
1423.561568
 20
2373.618841
 42
0.060810
  0
VERTEX
  8
0
 10
1419.049671
 20
2381.278523
 42
0.068566
  0
VERTEX
  8
0
 10
1412.981738
 20
2387.282282
 42
0.066790
  0
VERTEX
  8
0
 10
1405.373450
 20
2391.535874
 42
0.053568
  0
VERTEX
  8
0
 10
1396.320768
 20
2394.035116
 42
0.014805
  0
VERTEX
  8
0
 10
1391.368866
 20
2394.696248
 42
0.031961
  0
VERTEX
  8
0
 10
1387.528665
 20
2394.846925
 42
0.032600
  0
VERTEX
  8
0
 10
1383.748025
 20
2394.506278
 42
0.016025
  0
SEQEND
  0
POLYLINE
  8
0
 66
1
 70
1
  0
VERTEX
  8
0
 10
1615.000000
 20
2393.699746
 42
0.044301
  0
VERTEX
  8
0
 10
1607.009750
 20
2391.111843
 42
0.049230
  0
VERTEX
  8
0
 10
1599.896251
 20
2387.224381
 42
0.050171
  0
VERTEX
  8
0
 10
1593.792936
 20
2382.096315
 42
0.049386
  0
VERTEX
  8
0
 10
1588.797113
 20
2375.830034
 42
0.000000
  0
VERTEX
  8
0
 10
1585.500000
 20
2370.735260
 42
0.000000
  0
VERTEX
  8
0
 10
1585.212394
 20
2381.105236
 42
0.006232
  0
VERTEX
  8
0
 10
1585.050569
 20
2385.129387
 42
0.009372
  0
VERTEX
  8
0
 10
1584.800006
 20
2388.632734
 42
0.004824
  0
VERTEX
  8
0
 10
1584.506244
 20
2391.566747
 42
0.174085
  0
VERTEX
  8
0
 10
1584.212394
 20
2392.168668
 42
0.204157
  0
VERTEX
  8
0
 10
1582.983161
 20
2392.644237
 42
0.000421
  0
VERTEX
  8
0
 10
1561.999698
 20
2391.920562
 42
0.002588
  0
VERTEX
  8
0
 10
1543.160063
 20
2391.157270
 42
0.019369
  0
VERTEX
  8
0
 10
1534.250000
 20
2390.403444
 42
0.039254
  0
VERTEX
  8
0
 10
1530.414975
 20
2389.619641
 42
0.488115
  0
VERTEX
  8
0
 10
1529.935393
 20
2388.427713
 42
0.214922
  0
VERTEX
  8
0
 10
1531.630068
 20
2387.213407
 42
0.022918
  0
VERTEX
  8
0
 10
1536.538126
 20
2386.459014
 42
-0.018862
  0
VERTEX
  8
0
 10
1539.334454
 20
2386.052386
 42
-0.023811
  0
VERTEX
  8
0
 10
1541.879612
 20
2385.457164
 42
-0.026070
  0
VERTEX
  8
0
 10
1543.969574
 20
2384.742519
 42
-0.074887
  0
VERTEX
  8
0
 10
1545.288126
 20
2383.968007
 42
0.000000
  0
VERTEX
  8
0
 10
1547.500000
 20
2382.177173
 42
0.000000
  0
VERTEX
  8
0
 10
1547.767289
 20
2301.803361
 42
-0.000625
  0
VERTEX
  8
0
 10
1547.853517
 20
2260.254629
 42
-0.003261
  0
VERTEX
  8
0
 10
1547.723084
 20
2237.357380
 42
-0.001676
  0
VERTEX
  8
0
 10
1547.481124
 20
2221.819172
 42
-0.154320
  0
VERTEX
  8
0
 10
1546.764009
 20
2219.691941
 42
-0.097219
  0
VERTEX
  8
0
 10
1545.999773
 20
2218.986242
 42
-0.035848
  0
VERTEX
  8
0
 10
1544.692633
 20
2218.305559
 42
-0.033879
  0
VERTEX
  8
0
 10
1543.119903
 20
2217.747976
 42
-0.034563
  0
VERTEX
  8
0
 10
1541.496720
 20
2217.412387
 42
0.006495
  0
VERTEX
  8
0
 10
1536.839499
 20
2216.719161
 42
0.042893
  0
VERTEX
  8
0
 10
1534.558380
 20
2216.145223
 42
0.107475
  0
VERTEX
  8
0
 10
1533.415797
 20
2215.450425
 42
0.205397
  0
VERTEX
  8
0
 10
1533.000000
 20
2214.480948
 42
0.390463
  0
VERTEX
  8
0
 10
1533.805342
 20
2213.606910
 42
0.010441
  0
VERTEX
  8
0
 10
1539.495999
 20
2213.260006
 42
0.008893
  0
VERTEX
  8
0
 10
1549.111588
 20
2213.046318
 42
0.001109
  0
VERTEX
  8
0
 10
1570.000000
 20
2213.000000
 42
0.001212
  0
VERTEX
  8
0
 10
1590.086509
 20
2213.048702
 42
0.008131
  0
VERTEX
  8
0
 10
1600.063424
 20
2213.259347
 42
0.007510
  0
VERTEX
  8
0
 10
1606.252695
 20
2213.583909
 42
0.394604
  0
VERTEX
  8
0
 10
1607.000000
 20
2214.383369
 42
0.241704
  0
VERTEX
  8
0
 10
1606.433121
 20
2215.487534
 42
0.082935
  0
VERTEX
  8
0
 10
1604.770597
 20
2216.304375
 42
0.051404
  0
VERTEX
  8
0
 10
1602.072619
 20
2216.818986
 42
0.020627
  0
VERTEX
  8
0
 10
1598.315100
 20
2216.986345
 42
-0.035771
  0
VERTEX
  8
0
 10
1594.929743
 20
2217.239956
 42
-0.039944
  0
VERTEX
  8
0
 10
1591.741413
 20
2217.973483
 42
-0.043747
  0
VERTEX
  8
0
 10
1589.172121
 20
2219.039873
 42
-0.131647
  0
VERTEX
  8
0
 10
1587.785665
 20
2220.312561
 42
-0.132919
  0
VERTEX
  8
0
 10
1587.480418
 20
2221.292125
 42
-0.001604
  0
VERTEX
  8
0
 10
1587.247920
 20
2228.012305
 42
-0.004664
  0
VERTEX
  8
0
 10
1587.075765
 20
2235.818986
 42
-0.003017
  0
VERTEX
  8
0
 10
1587.015313
 20
2244.856989
 42
-0.001372
  0
VERTEX
  8
0
 10
1587.045425
 20
2259.275922
 42
-0.017924
  0
VERTEX
  8
0
 10
1587.263087
 20
2264.623979
 42
-0.063499
  0
VERTEX
  8
0
 10
1587.760778
 20
2267.037630
 42
-0.433666
  0
VERTEX
  8
0
 10
1588.750000
 20
2267.482053
 42
0.039882
  0
VERTEX
  8
0
 10
1598.328133
 20
2264.346075
 42
0.033836
  0
VERTEX
  8
0
 10
1608.825749
 20
2262.554449
 42
0.034161
  0
VERTEX
  8
0
 10
1619.348882
 20
2262.206008
 42
0.043305
  0
VERTEX
  8
0
 10
1629.000000
 20
2263.386877
 42
0.068290
  0
VERTEX
  8
0
 10
1644.634118
 20
2268.999596
 42
0.074774
  0
VERTEX
  8
0
 10
1657.646712
 20
2278.493492
 42
0.072629
  0
VERTEX
  8
0
 10
1667.573679
 20
2291.654994
 42
0.059491
  0
VERTEX
  8
0
 10
1674.154785
 20
2308.019425
 42
0.017876
  0
VERTEX
  8
0
 10
1675.349865
 20
2313.175068
 42
0.024723
  0
VERTEX
  8
0
 10
1676.024524
 20
2317.874256
 42
0.018137
  0
VERTEX
  8
0
 10
1676.350463
 20
2323.597400
 42
0.005168
  0
VERTEX
  8
0
 10
1676.442018
 20
2332.500000
 42
0.004975
  0
VERTEX
  8
0
 10
1676.352959
 20
2341.404971
 42
0.018436
  0
VERTEX
  8
0
 10
1676.034056
 20
2347.011677
 42
0.026100
  0
VERTEX
  8
0
 10
1675.373595
 20
2351.507131
 42
0.020133
  0
VERTEX
  8
0
 10
1674.203574
 20
2356.323205
 42
0.030014
  0
VERTEX
  8
0
 10
1670.746279
 20
2366.140674
 42
0.045069
  0
VERTEX
  8
0
 10
1666.485316
 20
2374.154555
 42
0.049892
  0
VERTEX
  8
0
 10
1661.242875
 20
2380.657844
 42
0.051010
  0
VERTEX
  8
0
 10
1654.852011
 20
2385.939988
 42
0.056016
  0
VERTEX
  8
0
 10
1645.935586
 20
2390.546370
 42
0.043184
  0
VERTEX
  8
0
 10
1635.402699
 20
2393.559446
 42
0.043561
  0
VERTEX
  8
0
 10
1624.628999
 20
2394.697497
 42
0.060788
  0
SEQEND
  0
POLYLINE
  8
0
 66
1
 70
1
  0
VERTEX
  8
0
 10
1620.020785
 20
2379.474604
 42
-0.051054
  0
VERTEX
  8
0
 10
1622.584145
 20
2377.814615
 42
-0.027980
  0
VERTEX
  8
0
 10
1625.368450
 20
2375.309621
 42
-0.027936
  0
VERTEX
  8
0
 10
1627.871239
 20
2372.492343
 42
-0.048349
  0
VERTEX
  8
0
 10
1629.570352
 20
2369.863954
 42
-0.029208
  0
VERTEX
  8
0
 10
1630.246419
 20
2368.345369
 42
-0.006477
  0
VERTEX
  8
0
 10
1631.215807
 20
2365.668957
 42
-0.006709
  0
VERTEX
  8
0
 10
1632.255874
 20
2362.542269
 42
-0.006423
  0
VERTEX
  8
0
 10
1633.227500
 20
2359.343169
 42
-0.025023
  0
VERTEX
  8
0
 10
1634.498470
 20
2353.963122
 42
-0.028975
  0
VERTEX
  8
0
 10
1635.149568
 20
2348.739946
 42
-0.014819
  0
VERTEX
  8
0
 10
1635.423560
 20
2341.225798
 42
-0.002018
  0
VERTEX
  8
0
 10
1635.467206
 20
2325.500000
 42
-0.005499
  0
VERTEX
  8
0
 10
1635.246280
 20
2307.480873
 42
-0.025380
  0
VERTEX
  8
0
 10
1634.475217
 20
2297.081152
 42
-0.039658
  0
VERTEX
  8
0
 10
1632.843550
 20
2289.195229
 42
-0.030748
  0
VERTEX
  8
0
 10
1629.879160
 20
2280.940738
 42
-0.054693
  0
VERTEX
  8
0
 10
1627.439716
 20
2276.635681
 42
-0.048418
  0
VERTEX
  8
0
 10
1624.034319
 20
2272.765250
 42
-0.051077
  0
VERTEX
  8
0
 10
1620.207796
 20
2269.853890
 42
-0.090972
  0
VERTEX
  8
0
 10
1616.525425
 20
2268.438792
 42
-0.046300
  0
VERTEX
  8
0
 10
1611.529041
 20
2267.973233
 42
-0.035766
  0
VERTEX
  8
0
 10
1606.070149
 20
2268.362161
 42
-0.035690
  0
VERTEX
  8
0
 10
1600.707841
 20
2269.527424
 42
-0.045396
  0
VERTEX
  8
0
 10
1596.000000
 20
2271.386323
 42
-0.060811
  0
VERTEX
  8
0
 10
1590.132685
 20
2275.300076
 42
-0.173078
  0
VERTEX
  8
0
 10
1587.734649
 20
2279.504895
 42
-0.044375
  0
VERTEX
  8
0
 10
1587.067635
 20
2287.165851
 42
-0.001199
  0
VERTEX
  8
0
 10
1587.210860
 20
2320.940408
 42
-0.000760
  0
VERTEX
  8
0
 10
1587.440219
 20
2349.056653
 42
-0.010517
  0
VERTEX
  8
0
 10
1587.752461
 20
2359.220494
 42
-0.030034
  0
VERTEX
  8
0
 10
1588.378320
 20
2364.795388
 42
-0.080075
  0
VERTEX
  8
0
 10
1589.677583
 20
2368.568214
 42
-0.050046
  0
VERTEX
  8
0
 10
1592.454865
 20
2372.702990
 42
-0.043253
  0
VERTEX
  8
0
 10
1596.126140
 20
2376.429492
 42
-0.045473
  0
VERTEX
  8
0
 10
1600.082799
 20
2379.227559
 42
-0.089895
  0
VERTEX
  8
0
 10
1603.690335
 20
2380.525387
 42
0.004511
  0
VERTEX
  8
0
 10
1605.222229
 20
2380.796323
 42
0.005235
  0
VERTEX
  8
0
 10
1606.674661
 20
2381.082506
 42
0.004688
  0
VERTEX
  8
0
 10
1607.898348
 20
2381.348948
 42
0.030833
  0
VERTEX
  8
0
 10
1608.500000
 20
2381.525487
 42
-0.113433
  0
VERTEX
  8
0
 10
1610.306210
 20
2381.745402
 42
-0.017859
  0
VERTEX
  8
0
 10
1613.874729
 20
2381.240859
 42
-0.020771
  0
VERTEX
  8
0
 10
1617.510444
 20
2380.436591
 42
-0.053403
  0
SEQEND
  0
POLYLINE
  8
0
 66
1
 70
1
  0
VERTEX
  8
0
 10
1835.127734
 20
2393.985961
 42
0.066490
  0
VERTEX
  8
0
 10
1815.758956
 20
2388.588168
 42
0.077637
  0
VERTEX
  8
0
 10
1799.591764
 20
2378.462598
 42
0.079689
  0
VERTEX
  8
0
 10
1787.595665
 20
2364.140733
 42
0.075146
  0
VERTEX
  8
0
 10
1780.381393
 20
2346.500000
 42
0.041740
  0
VERTEX
  8
0
 10
1779.011913
 20
2337.721778
 42
0.017894
  0
VERTEX
  8
0
 10
1778.589872
 20
2325.853751
 42
0.017684
  0
VERTEX
  8
0
 10
1779.007262
 20
2314.135102
 42
0.048799
  0
VERTEX
  8
0
 10
1780.391043
 20
2306.000000
 42
0.060762
  0
VERTEX
  8
0
 10
1786.382856
 20
2291.314146
 42
0.070924
  0
VERTEX
  8
0
 10
1795.496684
 20
2279.334688
 42
0.070631
  0
VERTEX
  8
0
 10
1807.629864
 20
2270.342653
 42
0.059569
  0
VERTEX
  8
0
 10
1822.500000
 20
2264.441865
 42
0.036396
  0
VERTEX
  8
0
 10
1830.627804
 20
2262.912362
 42
0.021816
  0
VERTEX
  8
0
 10
1840.433441
 20
2262.228564
 42
0.021534
  0
VERTEX
  8
0
 10
1850.516954
 20
2262.400639
 42
0.029514
  0
VERTEX
  8
0
 10
1859.526152
 20
2263.479055
 42
0.090066
  0
VERTEX
  8
0
 10
1881.956787
 20
2271.865506
 42
0.101249
  0
VERTEX
  8
0
 10
1898.954953
 20
2287.362932
 42
0.096270
  0
VERTEX
  8
0
 10
1909.075763
 20
2308.984694
 42
0.073846
  0
VERTEX
  8
0
 10
1911.644464
 20
2335.000000
 42
0.029727
  0
VERTEX
  8
0
 10
1910.181990
 20
2348.433421
 42
0.052514
  0
VERTEX
  8
0
 10
1907.179962
 20
2359.163243
 42
0.057205
  0
VERTEX
  8
0
 10
1902.229405
 20
2368.399511
 42
0.043370
  0
VERTEX
  8
0
 10
1894.879839
 20
2377.250311
 42
0.035667
  0
VERTEX
  8
0
 10
1889.106810
 20
2382.311733
 42
0.034972
  0
VERTEX
  8
0
 10
1882.636424
 20
2386.537928
 42
0.034057
  0
VERTEX
  8
0
 10
1875.472955
 20
2389.915506
 42
0.030264
  0
VERTEX
  8
0
 10
1867.631703
 20
2392.444498
 42
0.036268
  0
VERTEX
  8
0
 10
1860.939455
 20
2393.655204
 42
0.014772
  0
VERTEX
  8
0
 10
1851.709292
 20
2394.366684
 42
0.014869
  0
VERTEX
  8
0
 10
1842.342534
 20
2394.532040
 42
0.031741
  0
SEQEND
  0
POLYLINE
  8
0
 66
1
 70
1
  0
VERTEX
  8
0
 10
1855.102391
 20
2386.550938
 42
-0.083188
  0
VERTEX
  8
0
 10
1859.835539
 20
2382.136259
 42
-0.054282
  0
VERTEX
  8
0
 10
1863.721141
 20
2375.737734
 42
-0.043735
  0
VERTEX
  8
0
 10
1866.816332
 20
2367.255026
 42
-0.024385
  0
VERTEX
  8
0
 10
1869.150281
 20
2356.500000
 42
-0.035429
  0
VERTEX
  8
0
 10
1870.286592
 20
2344.461093
 42
-0.007625
  0
VERTEX
  8
0
 10
1870.454894
 20
2323.501957
 42
-0.007230
  0
VERTEX
  8
0
 10
1870.001665
 20
2302.597799
 42
-0.041962
  0
VERTEX
  8
0
 10
1868.682154
 20
2291.655716
 42
-0.034893
  0
VERTEX
  8
0
 10
1865.582037
 20
2280.610818
 42
-0.086117
  0
VERTEX
  8
0
 10
1861.449140
 20
2273.311681
 42
-0.113699
  0
VERTEX
  8
0
 10
1855.908160
 20
2269.034766
 42
-0.093022
  0
VERTEX
  8
0
 10
1848.629956
 20
2267.211836
 42
-0.115463
  0
VERTEX
  8
0
 10
1838.961140
 20
2268.871567
 42
-0.120649
  0
VERTEX
  8
0
 10
1831.212565
 20
2274.641285
 42
-0.088403
  0
VERTEX
  8
0
 10
1825.357683
 20
2285.004449
 42
-0.038585
  0
VERTEX
  8
0
 10
1821.270541
 20
2300.320008
 42
-0.036455
  0
VERTEX
  8
0
 10
1819.857858
 20
2313.020481
 42
-0.009621
  0
VERTEX
  8
0
 10
1819.476364
 20
2333.465351
 42
-0.009063
  0
VERTEX
  8
0
 10
1819.856287
 20
2353.769623
 42
-0.046037
  0
VERTEX
  8
0
 10
1821.308249
 20
2364.976365
 42
-0.034349
  0
VERTEX
  8
0
 10
1824.034182
 20
2374.127091
 42
-0.059906
  0
VERTEX
  8
0
 10
1827.669667
 20
2381.146801
 42
-0.073459
  0
VERTEX
  8
0
 10
1832.222176
 20
2386.090901
 42
-0.092634
  0
VERTEX
  8
0
 10
1837.684977
 20
2389.041388
 42
-0.071413
  0
VERTEX
  8
0
 10
1841.703800
 20
2389.722521
 42
-0.041857
  0
VERTEX
  8
0
 10
1846.584175
 20
2389.437386
 42
-0.041771
  0
VERTEX
  8
0
 10
1851.369191
 20
2388.339606
 42
-0.069007
  0
SEQEND
  0
POLYLINE
  8
0
 66
1
 70
1
  0
VERTEX
  8
0
 10
2250.343746
 20
2394.016662
 42
0.065426
  0
VERTEX
  8
0
 10
2242.722036
 20
2391.325756
 42
0.054797
  0
VERTEX
  8
0
 10
2235.541758
 20
2386.626118
 42
0.052824
  0
VERTEX
  8
0
 10
2229.312396
 20
2380.281289
 42
0.051745
  0
VERTEX
  8
0
 10
2224.501342
 20
2372.730056
 42
0.000000
  0
VERTEX
  8
0
 10
2221.000000
 20
2365.731286
 42
0.000000
  0
VERTEX
  8
0
 10
2221.000000
 20
2377.674514
 42
0.006730
  0
VERTEX
  8
0
 10
2220.927337
 20
2383.072908
 42
0.016272
  0
VERTEX
  8
0
 10
2220.690234
 20
2387.055846
 42
0.018306
  0
VERTEX
  8
0
 10
2220.319094
 20
2389.925739
 42
0.124743
  0
VERTEX
  8
0
 10
2219.750000
 20
2391.222959
 42
0.197224
  0
VERTEX
  8
0
 10
2218.202067
 20
2392.108675
 42
0.029871
  0
VERTEX
  8
0
 10
2214.570547
 20
2392.365294
 42
0.013863
  0
VERTEX
  8
0
 10
2207.990839
 20
2392.254081
 42
0.001432
  0
VERTEX
  8
0
 10
2192.500000
 20
2391.517887
 42
0.000328
  0
VERTEX
  8
0
 10
2182.513225
 20
2391.008035
 42
0.000539
  0
VERTEX
  8
0
 10
2174.064062
 20
2390.562005
 42
0.000035
  0
VERTEX
  8
0
 10
2166.461478
 20
2390.151923
 42
0.085100
  0
VERTEX
  8
0
 10
2166.250000
 20
2390.103799
 42
0.236505
  0
VERTEX
  8
0
 10
2166.152044
 20
2389.990475
 42
0.021437
  0
VERTEX
  8
0
 10
2166.073438
 20
2389.613247
 42
0.024193
  0
VERTEX
  8
0
 10
2166.018164
 20
2389.131333
 42
0.016456
  0
VERTEX
  8
0
 10
2166.000000
 20
2388.579594
 42
0.252074
  0
VERTEX
  8
0
 10
2166.374462
 20
2387.884027
 42
0.068151
  0
VERTEX
  8
0
 10
2167.541978
 20
2387.324385
 42
0.039407
  0
VERTEX
  8
0
 10
2169.529281
 20
2386.854619
 42
0.011667
  0
VERTEX
  8
0
 10
2172.630469
 20
2386.449125
 42
-0.032535
  0
VERTEX
  8
0
 10
2177.674850
 20
2385.574227
 42
-0.109138
  0
VERTEX
  8
0
 10
2180.670996
 20
2384.111390
 42
-0.131933
  0
VERTEX
  8
0
 10
2182.454810
 20
2381.699639
 42
-0.057618
  0
VERTEX
  8
0
 10
2183.483727
 20
2377.822082
 42
-0.033787
  0
VERTEX
  8
0
 10
2183.726838
 20
2374.659363
 42
-0.000819
  0
VERTEX
  8
0
 10
2183.837344
 20
2359.984821
 42
-0.001782
  0
VERTEX
  8
0
 10
2183.877448
 20
2342.768151
 42
-0.001210
  0
VERTEX
  8
0
 10
2183.805809
 20
2323.168799
 42
-0.001088
  0
VERTEX
  8
0
 10
2183.480641
 20
2283.767059
 42
-0.043384
  0
VERTEX
  8
0
 10
2182.640903
 20
2275.149965
 42
-0.224296
  0
VERTEX
  8
0
 10
2179.889023
 20
2271.336947
 42
-0.098240
  0
VERTEX
  8
0
 10
2173.806809
 20
2269.398633
 42
0.010859
  0
VERTEX
  8
0
 10
2170.769574
 20
2268.988029
 42
0.057969
  0
VERTEX
  8
0
 10
2169.160544
 20
2268.539420
 42
0.140668
  0
VERTEX
  8
0
 10
2168.397448
 20
2267.938307
 42
0.206408
  0
VERTEX
  8
0
 10
2168.216051
 20
2267.115469
 42
0.330028
  0
VERTEX
  8
0
 10
2169.277926
 20
2266.139765
 42
0.014071
  0
VERTEX
  8
0
 10
2174.662765
 20
2265.721893
 42
0.009581
  0
VERTEX
  8
0
 10
2184.132684
 20
2265.436341
 42
0.001010
  0
VERTEX
  8
0
 10
2206.263467
 20
2265.237975
 42
0.000768
  0
VERTEX
  8
0
 10
2230.512523
 20
2265.106851
 42
0.011883
  0
VERTEX
  8
0
 10
2238.846330
 20
2265.272656
 42
0.031593
  0
VERTEX
  8
0
 10
2243.016536
 20
2265.719831
 42
0.365257
  0
VERTEX
  8
0
 10
2244.000000
 20
2266.886483
 42
0.168081
  0
VERTEX
  8
0
 10
2243.647280
 20
2267.906094
 42
0.142124
  0
VERTEX
  8
0
 10
2242.715745
 20
2268.574422
 42
0.054915
  0
VERTEX
  8
0
 10
2240.803188
 20
2269.022765
 42
0.007648
  0
VERTEX
  8
0
 10
2236.750000
 20
2269.450935
 42
-0.006035
  0
VERTEX
  8
0
 10
2229.417724
 20
2270.201597
 42
-0.045431
  0
VERTEX
  8
0
 10
2226.007010
 20
2270.910368
 42
-0.106608
  0
VERTEX
  8
0
 10
2224.116273
 20
2271.963264
 42
-0.122345
  0
VERTEX
  8
0
 10
2222.940033
 20
2273.657726
 42
-0.090344
  0
VERTEX
  8
0
 10
2222.063366
 20
2278.391398
 42
-0.000843
  0
VERTEX
  8
0
 10
2222.019216
 20
2314.020949
 42
-0.001522
  0
VERTEX
  8
0
 10
2222.138762
 20
2348.261067
 42
-0.045252
  0
VERTEX
  8
0
 10
2222.977237
 20
2356.879972
 42
-0.087569
  0
VERTEX
  8
0
 10
2227.671034
 20
2369.270664
 42
-0.086633
  0
VERTEX
  8
0
 10
2236.335936
 20
2379.359019
 42
-0.096042
  0
VERTEX
  8
0
 10
2247.049309
 20
2385.167670
 42
-0.142823
  0
VERTEX
  8
0
 10
2257.647107
 20
2385.396621
 42
-0.176400
  0
VERTEX
  8
0
 10
2258.581753
 20
2384.741521
 42
-0.246537
  0
VERTEX
  8
0
 10
2258.708417
 20
2383.748119
 42
-0.054627
  0
VERTEX
  8
0
 10
2257.761218
 20
2381.863676
 42
-0.003737
  0
VERTEX
  8
0
 10
2254.468050
 20
2376.863194
 42
0.038597
  0
VERTEX
  8
0
 10
2249.790379
 20
2368.553247
 42
0.080787
  0
VERTEX
  8
0
 10
2247.786166
 20
2361.431109
 42
0.107965
  0
VERTEX
  8
0
 10
2248.400472
 20
2355.429909
 42
0.117611
  0
VERTEX
  8
0
 10
2251.467319
 20
2350.441772
 42
0.122027
  0
VERTEX
  8
0
 10
2256.410998
 20
2347.461250
 42
0.064306
  0
VERTEX
  8
0
 10
2263.518330
 20
2346.232013
 42
0.062649
  0
VERTEX
  8
0
 10
2270.964923
 20
2346.846323
 42
0.094571
  0
VERTEX
  8
0
 10
2276.952266
 20
2349.349713
 42
0.068148
  0
VERTEX
  8
0
 10
2280.510769
 20
2352.475106
 42
0.082754
  0
VERTEX
  8
0
 10
2282.823837
 20
2356.257234
 42
0.066937
  0
VERTEX
  8
0
 10
2284.090193
 20
2361.214970
 42
0.029311
  0
VERTEX
  8
0
 10
2284.482823
 20
2368.000000
 42
0.010945
  0
VERTEX
  8
0
 10
2284.380738
 20
2372.498138
 42
0.031589
  0
VERTEX
  8
0
 10
2284.045634
 20
2375.596518
 42
0.042298
  0
VERTEX
  8
0
 10
2283.397859
 20
2378.077059
 42
0.038340
  0
VERTEX
  8
0
 10
2282.325630
 20
2380.500000
 42
0.042215
  0
VERTEX
  8
0
 10
2279.891858
 20
2384.233858
 42
0.037137
  0
VERTEX
  8
0
 10
2276.767429
 20
2387.681439
 42
0.038123
  0
VERTEX
  8
0
 10
2273.274968
 20
2390.529309
 42
0.053229
  0
VERTEX
  8
0
 10
2269.743897
 20
2392.465289
 42
0.052019
  0
VERTEX
  8
0
 10
2265.637509
 20
2393.696109
 42
0.026874
  0
VERTEX
  8
0
 10
2260.318465
 20
2394.410626
 42
0.026788
  0
VERTEX
  8
0
 10
2254.871409
 20
2394.553558
 42
0.045382
  0
SEQEND
  0
POLYLINE
  8
0
 66
1
 70
1
  0
VERTEX
  8
0
 10
2678.869528
 20
2393.992322
 42
0.057842
  0
VERTEX
  8
0
 10
2662.786711
 20
2389.499338
 42
0.075215
  0
VERTEX
  8
0
 10
2649.669920
 20
2381.670160
 42
0.088872
  0
VERTEX
  8
0
 10
2641.065551
 20
2371.562796
 42
0.131669
  0
VERTEX
  8
0
 10
2638.021962
 20
2360.397883
 42
0.093030
  0
VERTEX
  8
0
 10
2639.185275
 20
2354.049015
 42
0.117415
  0
VERTEX
  8
0
 10
2642.549765
 20
2349.136498
 42
0.110125
  0
VERTEX
  8
0
 10
2647.959903
 20
2346.059194
 42
0.074588
  0
VERTEX
  8
0
 10
2655.000000
 20
2345.003108
 42
0.070123
  0
VERTEX
  8
0
 10
2661.572981
 20
2345.929494
 42
0.096442
  0
VERTEX
  8
0
 10
2666.873164
 20
2348.637307
 42
0.111577
  0
VERTEX
  8
0
 10
2670.248958
 20
2352.778294
 42
0.122591
  0
VERTEX
  8
0
 10
2671.365814
 20
2357.826055
 42
0.069339
  0
VERTEX
  8
0
 10
2670.744876
 20
2361.562660
 42
0.041393
  0
VERTEX
  8
0
 10
2669.046033
 20
2365.744615
 42
0.034003
  0
VERTEX
  8
0
 10
2666.271955
 20
2370.408517
 42
0.019743
  0
VERTEX
  8
0
 10
2662.357058
 20
2375.622453
 42
-0.019593
  0
VERTEX
  8
0
 10
2659.147715
 20
2379.894056
 42
-0.237449
  0
VERTEX
  8
0
 10
2658.872024
 20
2381.866077
 42
-0.196800
  0
VERTEX
  8
0
 10
2660.278236
 20
2383.482400
 42
-0.013241
  0
VERTEX
  8
0
 10
2665.928732
 20
2386.140382
 42
-0.056860
  0
VERTEX
  8
0
 10
2675.260605
 20
2389.023060
 42
-0.058577
  0
VERTEX
  8
0
 10
2684.907112
 20
2389.689615
 42
-0.064809
  0
VERTEX
  8
0
 10
2693.430673
 20
2388.160853
 42
-0.120196
  0
VERTEX
  8
0
 10
2699.401999
 20
2384.531334
 42
-0.085513
  0
VERTEX
  8
0
 10
2702.318997
 20
2380.400011
 42
-0.067681
  0
VERTEX
  8
0
 10
2703.984578
 20
2375.182793
 42
-0.036429
  0
VERTEX
  8
0
 10
2704.795030
 20
2367.188784
 42
-0.007053
  0
VERTEX
  8
0
 10
2705.000000
 20
2352.658671
 42
0.000000
  0
VERTEX
  8
0
 10
2705.000000
 20
2333.202983
 42
0.000000
  0
VERTEX
  8
0
 10
2697.750000
 20
2332.544617
 42
0.016746
  0
VERTEX
  8
0
 10
2673.100973
 20
2329.471136
 42
0.051922
  0
VERTEX
  8
0
 10
2656.929430
 20
2325.146811
 42
0.080293
  0
VERTEX
  8
0
 10
2646.244251
 20
2318.953684
 42
0.107611
  0
VERTEX
  8
0
 10
2639.302958
 20
2310.207914
 42
0.022539
  0
VERTEX
  8
0
 10
2637.759296
 20
2306.669848
 42
0.048185
  0
VERTEX
  8
0
 10
2636.964846
 20
2303.799703
 42
0.036336
  0
VERTEX
  8
0
 10
2636.615965
 20
2300.360647
 42
0.008267
  0
VERTEX
  8
0
 10
2636.546058
 20
2294.500000
 42
0.043309
  0
VERTEX
  8
0
 10
2637.479837
 20
2284.286208
 42
0.084439
  0
VERTEX
  8
0
 10
2640.247818
 20
2276.613174
 42
0.091522
  0
VERTEX
  8
0
 10
2645.214679
 20
2270.682998
 42
0.058458
  0
VERTEX
  8
0
 10
2652.785357
 20
2265.784904
 42
0.017340
  0
VERTEX
  8
0
 10
2657.078375
 20
2263.853371
 42
0.053257
  0
VERTEX
  8
0
 10
2660.136344
 20
2262.968405
 42
0.039021
  0
VERTEX
  8
0
 10
2663.783049
 20
2262.612515
 42
0.006182
  0
VERTEX
  8
0
 10
2670.978973
 20
2262.562731
 42
0.033426
  0
VERTEX
  8
0
 10
2682.387566
 20
2263.388690
 42
0.074547
  0
VERTEX
  8
0
 10
2690.711065
 20
2265.853665
 42
0.084600
  0
VERTEX
  8
0
 10
2697.289478
 20
2270.407848
 42
0.053767
  0
VERTEX
  8
0
 10
2703.227014
 20
2277.616106
 42
0.000000
  0
VERTEX
  8
0
 10
2707.351147
 20
2283.888914
 42
0.000000
  0
VERTEX
  8
0
 10
2709.619536
 20
2278.307667
 42
0.035431
  0
VERTEX
  8
0
 10
2711.809797
 20
2273.851888
 42
0.047412
  0
VERTEX
  8
0
 10
2714.434430
 20
2270.194470
 42
0.049032
  0
VERTEX
  8
0
 10
2717.623889
 20
2267.189622
 42
0.042033
  0
VERTEX
  8
0
 10
2721.500000
 20
2264.685423
 42
0.039781
  0
VERTEX
  8
0
 10
2723.998202
 20
2263.599440
 42
0.044155
  0
VERTEX
  8
0
 10
2726.551745
 20
2262.968343
 42
0.030644
  0
VERTEX
  8
0
 10
2729.858011
 20
2262.660743
 42
0.008804
  0
VERTEX
  8
0
 10
2735.000000
 20
2262.589307
 42
0.029150
  0
VERTEX
  8
0
 10
2742.716151
 20
2263.068311
 42
0.047859
  0
VERTEX
  8
0
 10
2749.102714
 20
2264.469185
 42
0.052767
  0
VERTEX
  8
0
 10
2754.653027
 20
2266.927918
 42
0.046408
  0
VERTEX
  8
0
 10
2759.829347
 20
2270.585923
 42
0.029797
  0
VERTEX
  8
0
 10
2762.674693
 20
2273.331322
 42
0.107875
  0
VERTEX
  8
0
 10
2763.936664
 20
2275.491208
 42
0.409235
  0
VERTEX
  8
0
 10
2763.438706
 20
2276.488676
 42
0.162579
  0
VERTEX
  8
0
 10
2761.750000
 20
2276.503112
 42
-0.032975
  0
VERTEX
  8
0
 10
2758.672251
 20
2275.724232
 42
-0.023770
  0
VERTEX
  8
0
 10
2755.160907
 20
2275.249423
 42
-0.023991
  0
VERTEX
  8
0
 10
2751.838885
 20
2275.120126
 42
-0.059278
  0
VERTEX
  8
0
 10
2749.424365
 20
2275.429627
 42
-0.213720
  0
VERTEX
  8
0
 10
2746.398123
 20
2277.812487
 42
-0.089646
  0
VERTEX
  8
0
 10
2744.812358
 20
2282.869486
 42
-0.028635
  0
VERTEX
  8
0
 10
2744.124490
 20
2292.999540
 42
-0.002515
  0
VERTEX
  8
0
 10
2743.982636
 20
2318.717881
 42
0.003414
  0
VERTEX
  8
0
 10
2743.800469
 20
2343.624672
 42
0.020205
  0
VERTEX
  8
0
 10
2743.089883
 20
2356.638982
 42
0.038588
  0
VERTEX
  8
0
 10
2741.583374
 20
2365.306675
 42
0.050446
  0
VERTEX
  8
0
 10
2738.826477
 20
2372.858450
 42
0.065250
  0
VERTEX
  8
0
 10
2734.533204
 20
2379.394892
 42
0.058636
  0
VERTEX
  8
0
 10
2728.557824
 20
2384.874973
 42
0.053410
  0
VERTEX
  8
0
 10
2720.933205
 20
2389.223680
 42
0.039438
  0
VERTEX
  8
0
 10
2711.744910
 20
2392.399474
 42
0.037810
  0
VERTEX
  8
0
 10
2705.041700
 20
2393.607908
 42
0.013592
  0
VERTEX
  8
0
 10
2695.366206
 20
2394.340722
 42
0.013594
  0
VERTEX
  8
0
 10
2685.663962
 20
2394.546698
 42
0.037744
  0
SEQEND
  0
POLYLINE
  8
0
 66
1
 70
1
  0
VERTEX
  8
0
 10
2705.000000
 20
2309.211890
 42
-0.002412
  0
VERTEX
  8
0
 10
2704.941601
 20
2297.107173
 42
-0.020728
  0
VERTEX
  8
0
 10
2704.665305
 20
2291.704807
 42
-0.045779
  0
VERTEX
  8
0
 10
2704.016438
 20
2288.219093
 42
-0.048099
  0
VERTEX
  8
0
 10
2702.750000
 20
2284.969961
 42
-0.056646
  0
VERTEX
  8
0
 10
2700.140310
 20
2280.995032
 42
-0.078982
  0
VERTEX
  8
0
 10
2696.944533
 20
2278.197586
 42
-0.080189
  0
VERTEX
  8
0
 10
2693.078098
 20
2276.556680
 42
-0.060404
  0
VERTEX
  8
0
 10
2688.486975
 20
2276.000000
 42
-0.101921
  0
VERTEX
  8
0
 10
2682.633163
 20
2277.205780
 42
-0.134645
  0
VERTEX
  8
0
 10
2678.397243
 20
2280.589110
 42
-0.099953
  0
VERTEX
  8
0
 10
2675.669077
 20
2286.539178
 42
-0.039247
  0
VERTEX
  8
0
 10
2674.294514
 20
2295.500000
 42
-0.039158
  0
VERTEX
  8
0
 10
2674.336386
 20
2304.765352
 42
-0.054435
  0
VERTEX
  8
0
 10
2675.915041
 20
2312.905414
 42
-0.064134
  0
VERTEX
  8
0
 10
2678.864988
 20
2319.364658
 42
-0.107837
  0
VERTEX
  8
0
 10
2683.003201
 20
2323.620816
 42
-0.058724
  0
VERTEX
  8
0
 10
2686.488166
 20
2325.379200
 42
-0.020324
  0
VERTEX
  8
0
 10
2691.864758
 20
2327.097539
 42
-0.020730
  0
VERTEX
  8
0
 10
2697.565074
 20
2328.415657
 42
-0.039242
  0
VERTEX
  8
0
 10
2702.250000
 20
2328.920500
 42
0.000000
  0
VERTEX
  8
0
 10
2705.000000
 20
2329.000000
 42
0.000000
  0
SEQEND
  0
POLYLINE
  8
0
 66
1
 70
1
  0
VERTEX
  8
0
 10
2478.000000
 20
2391.595968
 42
0.002968
  0
VERTEX
  8
0
 10
2468.902895
 20
2391.116017
 42
0.004563
  0
VERTEX
  8
0
 10
2461.035937
 20
2390.582041
 42
0.001634
  0
VERTEX
  8
0
 10
2454.277679
 20
2390.039090
 42
0.123077
  0
VERTEX
  8
0
 10
2453.250000
 20
2389.688971
 42
0.137100
  0
VERTEX
  8
0
 10
2452.288518
 20
2388.603755
 42
0.386424
  0
VERTEX
  8
0
 10
2452.549831
 20
2387.711765
 42
0.096919
  0
VERTEX
  8
0
 10
2454.432807
 20
2387.013557
 42
0.013792
  0
VERTEX
  8
0
 10
2458.538126
 20
2386.459014
 42
-0.018863
  0
VERTEX
  8
0
 10
2461.334178
 20
2386.052416
 42
-0.023803
  0
VERTEX
  8
0
 10
2463.879457
 20
2385.457190
 42
-0.026057
  0
VERTEX
  8
0
 10
2465.969654
 20
2384.742582
 42
-0.074890
  0
VERTEX
  8
0
 10
2467.288126
 20
2383.968241
 42
0.000000
  0
VERTEX
  8
0
 10
2469.500000
 20
2382.177641
 42
0.000000
  0
VERTEX
  8
0
 10
2469.774973
 20
2328.230444
 42
-0.001132
  0
VERTEX
  8
0
 10
2469.895654
 20
2285.629421
 42
-0.040259
  0
VERTEX
  8
0
 10
2469.106143
 20
2275.769980
 42
-0.212763
  0
VERTEX
  8
0
 10
2466.286672
 20
2271.463316
 42
-0.118169
  0
VERTEX
  8
0
 10
2460.250000
 20
2269.350853
 42
0.010015
  0
VERTEX
  8
0
 10
2456.884279
 20
2268.940227
 42
0.059608
  0
VERTEX
  8
0
 10
2455.176730
 20
2268.485055
 42
0.138744
  0
VERTEX
  8
0
 10
2454.321327
 20
2267.827575
 42
0.161317
  0
VERTEX
  8
0
 10
2454.000000
 20
2266.857544
 42
0.363984
  0
VERTEX
  8
0
 10
2454.948161
 20
2265.727626
 42
0.030561
  0
VERTEX
  8
0
 10
2459.027815
 20
2265.263081
 42
0.012204
  0
VERTEX
  8
0
 10
2467.070906
 20
2265.038854
 42
0.000866
  0
VERTEX
  8
0
 10
2489.500000
 20
2265.000000
 42
0.000826
  0
VERTEX
  8
0
 10
2512.300284
 20
2265.037679
 42
0.012739
  0
VERTEX
  8
0
 10
2520.146889
 20
2265.263578
 42
0.035503
  0
VERTEX
  8
0
 10
2524.035652
 20
2265.753147
 42
0.357845
  0
VERTEX
  8
0
 10
2525.000000
 20
2266.928044
 42
0.142954
  0
VERTEX
  8
0
 10
2524.705661
 20
2267.936493
 42
0.145340
  0
VERTEX
  8
0
 10
2523.916533
 20
2268.620514
 42
0.065748
  0
VERTEX
  8
0
 10
2522.340598
 20
2269.098018
 42
0.011389
  0
VERTEX
  8
0
 10
2519.250000
 20
2269.533934
 42
-0.017571
  0
VERTEX
  8
0
 10
2516.883600
 20
2269.897592
 42
-0.017128
  0
VERTEX
  8
0
 10
2514.528125
 20
2270.428955
 42
-0.017307
  0
VERTEX
  8
0
 10
2512.494278
 20
2271.037509
 42
-0.059253
  0
VERTEX
  8
0
 10
2511.250000
 20
2271.628943
 42
0.000000
  0
VERTEX
  8
0
 10
2509.000000
 20
2273.046106
 42
0.000000
  0
VERTEX
  8
0
 10
2509.000000
 20
2331.823053
 42
0.000944
  0
VERTEX
  8
0
 10
2508.945216
 20
2360.839601
 42
0.004057
  0
VERTEX
  8
0
 10
2508.739792
 20
2378.115011
 42
0.001849
  0
VERTEX
  8
0
 10
2508.451221
 20
2390.286794
 42
0.191800
  0
VERTEX
  8
0
 10
2507.800000
 20
2391.800000
 42
0.087476
  0
VERTEX
  8
0
 10
2507.157915
 20
2392.249617
 42
0.040991
  0
VERTEX
  8
0
 10
2506.203437
 20
2392.602844
 42
0.038959
  0
VERTEX
  8
0
 10
2505.114367
 20
2392.817528
 42
0.044103
  0
VERTEX
  8
0
 10
2504.050000
 20
2392.847980
 42
-0.002780
  0
VERTEX
  8
0
 10
2502.247475
 20
2392.750576
 42
-0.000100
  0
VERTEX
  8
0
 10
2495.345938
 20
2392.417493
 42
-0.000184
  0
VERTEX
  8
0
 10
2487.188696
 20
2392.028447
 42
-0.000129
  0
SEQEND
  0
POLYLINE
  8
0
 66
1
 70
1
  0
VERTEX
  8
0
 10
575.000000
 20
2358.000000
 42
0.000000
  0
VERTEX
  8
0
 10
575.000000
 20
2349.000000
 42
0.000000
  0
VERTEX
  8
0
 10
583.500000
 20
2349.000000
 42
0.000000
  0
VERTEX
  8
0
 10
592.000000
 20
2349.000000
 42
0.000000
  0
VERTEX
  8
0
 10
592.000000
 20
2358.000000
 42
0.000000
  0
VERTEX
  8
0
 10
592.000000
 20
2367.000000
 42
0.000000
  0
VERTEX
  8
0
 10
583.500000
 20
2367.000000
 42
0.000000
  0
VERTEX
  8
0
 10
575.000000
 20
2367.000000
 42
0.000000
  0
SEQEND
  0
POLYLINE
  8
0
 66
1
 70
1
  0
VERTEX
  8
0
 10
2475.000000
 20
864.500268
 42
0.000000
  0
VERTEX
  8
0
 10
2475.000000
 20
344.000000
 42
0.000000
  0
VERTEX
  8
0
 10
4337.500954
 20
344.000000
 42
0.000000
  0
VERTEX
  8
0
 10
6200.001908
 20
344.000000
 42
0.000000
  0
VERTEX
  8
0
 10
6199.750954
 20
864.250000
 42
0.000000
  0
VERTEX
  8
0
 10
6199.500000
 20
1384.500000
 42
0.000000
  0
VERTEX
  8
0
 10
4337.250000
 20
1384.750268
 42
0.000000
  0
VERTEX
  8
0
 10
2475.000000
 20
1385.000536
 42
0.000000
  0
SEQEND
  0
POLYLINE
  8
0
 66
1
 70
1
  0
VERTEX
  8
0
 10
332.000000
 20
2671.000000
 42
0.000000
  0
VERTEX
  8
0
 10
332.000000
 20
2645.000000
 42
0.000000
  0
VERTEX
  8
0
 10
358.000000
 20
2645.000000
 42
0.000000
  0
VERTEX
  8
0
 10
384.000000
 20
2645.000000
 42
0.000000
  0
VERTEX
  8
0
 10
384.000000
 20
2671.000000
 42
0.000000
  0
VERTEX
  8
0
 10
384.000000
 20
2697.000000
 42
0.000000
  0
VERTEX
  8
0
 10
358.000000
 20
2697.000000
 42
0.000000
  0
VERTEX
  8
0
 10
332.000000
 20
2697.000000
 42
0.000000
  0
SEQEND
  0
POLYLINE
  8
0
 66
1
 70
1
  0
VERTEX
  8
0
 10
401.000000
 20
2410.500000
 42
0.000000
  0
VERTEX
  8
0
 10
401.000000
 20
2402.000000
 42
0.000000
  0
VERTEX
  8
0
 10
409.500000
 20
2402.000000
 42
0.000000
  0
VERTEX
  8
0
 10
418.000000
 20
2402.000000
 42
0.000000
  0
VERTEX
  8
0
 10
418.000000
 20
2410.500000
 42
0.000000
  0
VERTEX
  8
0
 10
418.000000
 20
2419.000000
 42
0.000000
  0
VERTEX
  8
0
 10
409.500000
 20
2419.000000
 42
0.000000
  0
VERTEX
  8
0
 10
401.000000
 20
2419.000000
 42
0.000000
  0
SEQEND
  0
POLYLINE
  8
0
 66
1
 70
1
  0
VERTEX
  8
0
 10
644.000000
 20
2671.000000
 42
0.000000
  0
VERTEX
  8
0
 10
644.000000
 20
2645.000000
 42
0.000000
  0
VERTEX
  8
0
 10
670.000000
 20
2645.000000
 42
0.000000
  0
VERTEX
  8
0
 10
696.000000
 20
2645.000000
 42
0.000000
  0
VERTEX
  8
0
 10
696.000000
 20
2671.000000
 42
0.000000
  0
VERTEX
  8
0
 10
696.000000
 20
2697.000000
 42
0.000000
  0
VERTEX
  8
0
 10
670.000000
 20
2697.000000
 42
0.000000
  0
VERTEX
  8
0
 10
644.000000
 20
2697.000000
 42
0.000000
  0
SEQEND
  0
POLYLINE
  8
0
 66
1
 70
1
  0
VERTEX
  8
0
 10
644.000000
 20
2358.000000
 42
0.000000
  0
VERTEX
  8
0
 10
644.000000
 20
2332.000000
 42
0.000000
  0
VERTEX
  8
0
 10
670.000000
 20
2332.000000
 42
0.000000
  0
VERTEX
  8
0
 10
696.000000
 20
2332.000000
 42
0.000000
  0
VERTEX
  8
0
 10
696.000000
 20
2358.000000
 42
0.000000
  0
VERTEX
  8
0
 10
696.000000
 20
2384.000000
 42
0.000000
  0
VERTEX
  8
0
 10
670.000000
 20
2384.000000
 42
0.000000
  0
VERTEX
  8
0
 10
644.000000
 20
2384.000000
 42
0.000000
  0
SEQEND
  0
ENDSEC
  0
EOF
