<svg width="1088" height="400" viewBox="0 0 1088 400" fill="none" xmlns="http://www.w3.org/2000/svg">
<rect width="1088" height="400" fill="white"/>
<path d="M480.65 174.998V173.348L483.15 173.098C483.783 173.032 484.2 172.832 484.4 172.498C484.6 172.132 484.7 171.465 484.7 170.498V143.298C484.7 142.465 484.583 141.882 484.35 141.548C484.15 141.215 483.717 141.015 483.05 140.948L480.65 140.748V139.098H504.8L506.35 147.798L504.45 148.248C503.917 146.782 503.4 145.582 502.9 144.648C502.4 143.682 501.85 142.948 501.25 142.448C500.65 141.915 499.933 141.548 499.1 141.348C498.267 141.148 497.25 141.048 496.05 141.048H491.7V155.698H495.55C496.517 155.698 497.25 155.598 497.75 155.398C498.283 155.165 498.683 154.732 498.95 154.098C499.25 153.465 499.567 152.532 499.9 151.298L501.5 151.098V162.048L499.85 162.298C499.617 161.032 499.35 160.082 499.05 159.448C498.783 158.782 498.383 158.332 497.85 158.098C497.317 157.832 496.55 157.698 495.55 157.698H491.7V173.048H497.3C498.467 173.048 499.45 172.948 500.25 172.748C501.083 172.515 501.783 172.132 502.35 171.598C502.917 171.032 503.417 170.265 503.85 169.298C504.317 168.298 504.783 167.032 505.25 165.498H507.2L506.2 174.998H480.65Z" fill="black"/>
<path d="M522.048 175.698C519.848 175.698 517.948 175.215 516.348 174.248C514.781 173.282 513.581 171.848 512.748 169.948C511.914 168.048 511.498 165.715 511.498 162.948C511.498 159.982 511.998 157.432 512.998 155.298C513.998 153.165 515.431 151.515 517.298 150.348C519.164 149.182 521.398 148.598 523.998 148.598C525.098 148.598 526.164 148.748 527.198 149.048C528.264 149.315 529.181 149.682 529.948 150.148V141.598C529.948 140.565 529.814 139.865 529.548 139.498C529.314 139.132 528.764 138.915 527.898 138.848L525.748 138.648L525.898 136.998L536.098 136.648L536.548 137.098V170.948C536.548 171.715 536.648 172.265 536.848 172.598C537.048 172.898 537.481 173.098 538.148 173.198L540.248 173.398V175.048L530.898 175.448L530.298 171.148H530.148C529.614 172.115 528.948 172.948 528.148 173.648C527.381 174.315 526.498 174.815 525.498 175.148C524.498 175.515 523.348 175.698 522.048 175.698ZM524.298 172.548C525.431 172.548 526.414 172.315 527.248 171.848C528.081 171.382 528.731 170.682 529.198 169.748C529.698 168.782 529.948 167.598 529.948 166.198V152.898C529.181 152.265 528.331 151.782 527.398 151.448C526.464 151.082 525.481 150.898 524.448 150.898C523.081 150.898 521.948 151.282 521.048 152.048C520.181 152.815 519.531 154.032 519.098 155.698C518.698 157.332 518.498 159.482 518.498 162.148C518.498 164.582 518.714 166.565 519.148 168.098C519.614 169.632 520.281 170.765 521.148 171.498C522.014 172.198 523.064 172.548 524.298 172.548Z" fill="black"/>
<path d="M544.575 175.748L543.825 166.548L545.725 166.398C546.225 168.165 546.842 169.582 547.575 170.648C548.342 171.682 549.225 172.448 550.225 172.948C551.225 173.415 552.325 173.648 553.525 173.648C555.092 173.648 556.309 173.265 557.175 172.498C558.075 171.698 558.525 170.598 558.525 169.198C558.525 168.265 558.275 167.532 557.775 166.998C557.309 166.465 556.625 166.032 555.725 165.698C554.825 165.332 553.742 164.982 552.475 164.648C551.309 164.315 550.209 163.948 549.175 163.548C548.175 163.148 547.292 162.648 546.525 162.048C545.792 161.448 545.209 160.715 544.775 159.848C544.375 158.948 544.175 157.848 544.175 156.548C544.175 154.982 544.542 153.598 545.275 152.398C546.009 151.198 547.059 150.265 548.425 149.598C549.825 148.932 551.475 148.598 553.375 148.598C554.709 148.598 555.892 148.782 556.925 149.148C557.959 149.515 558.842 149.965 559.575 150.498L560.175 148.598H561.675L562.275 156.848L560.375 156.748C559.775 154.682 558.909 153.132 557.775 152.098C556.642 151.032 555.242 150.498 553.575 150.498C552.142 150.498 551.025 150.815 550.225 151.448C549.425 152.082 549.025 152.998 549.025 154.198C549.025 155.098 549.259 155.832 549.725 156.398C550.225 156.932 550.925 157.365 551.825 157.698C552.725 158.032 553.792 158.382 555.025 158.748C556.259 159.115 557.375 159.515 558.375 159.948C559.409 160.382 560.309 160.898 561.075 161.498C561.842 162.098 562.425 162.848 562.825 163.748C563.225 164.648 563.425 165.732 563.425 166.998C563.425 168.798 563.009 170.348 562.175 171.648C561.375 172.948 560.225 173.948 558.725 174.648C557.259 175.348 555.559 175.698 553.625 175.698C552.259 175.698 550.975 175.515 549.775 175.148C548.609 174.815 547.575 174.315 546.675 173.648L546.075 175.748H544.575Z" fill="black"/>
<path d="M580.01 175.698C577.377 175.698 575.094 175.182 573.16 174.148C571.227 173.115 569.727 171.632 568.66 169.698C567.627 167.765 567.11 165.432 567.11 162.698C567.11 159.698 567.66 157.148 568.76 155.048C569.894 152.948 571.494 151.348 573.56 150.248C575.627 149.148 578.044 148.598 580.81 148.598C583.344 148.598 585.544 149.098 587.41 150.098C589.31 151.098 590.777 152.565 591.81 154.498C592.877 156.432 593.41 158.782 593.41 161.548C593.41 164.448 592.86 166.965 591.76 169.098C590.66 171.198 589.11 172.832 587.11 173.998C585.11 175.132 582.744 175.698 580.01 175.698ZM580.76 173.598C581.994 173.598 583.027 173.232 583.86 172.498C584.694 171.765 585.31 170.598 585.71 168.998C586.11 167.365 586.31 165.248 586.31 162.648C586.31 160.482 586.16 158.648 585.86 157.148C585.594 155.615 585.177 154.382 584.61 153.448C584.077 152.482 583.41 151.782 582.61 151.348C581.844 150.915 580.96 150.698 579.96 150.698C578.727 150.698 577.677 151.048 576.81 151.748C575.944 152.415 575.277 153.515 574.81 155.048C574.377 156.582 574.16 158.632 574.16 161.198C574.16 164.098 574.427 166.465 574.96 168.298C575.494 170.132 576.244 171.482 577.21 172.348C578.21 173.182 579.394 173.598 580.76 173.598Z" fill="black"/>
<path d="M597.19 174.998V173.398L599.34 173.098C599.84 173.032 600.173 172.848 600.34 172.548C600.506 172.215 600.59 171.615 600.59 170.748V154.398C600.59 153.298 600.49 152.548 600.29 152.148C600.09 151.715 599.623 151.465 598.89 151.398L596.74 151.148L596.89 149.548L606.24 148.998L606.69 149.348L606.79 154.148H606.89C607.69 152.348 608.84 150.982 610.34 150.048C611.873 149.082 613.59 148.598 615.49 148.598C617.29 148.598 618.79 148.948 619.99 149.648C621.223 150.315 622.14 151.298 622.74 152.598C623.373 153.898 623.69 155.498 623.69 157.398V171.048C623.69 171.815 623.773 172.332 623.94 172.598C624.14 172.865 624.556 173.048 625.19 173.148L627.24 173.398V174.998H613.84V173.448L615.64 173.198C616.24 173.098 616.623 172.915 616.79 172.648C616.956 172.348 617.04 171.815 617.04 171.048V157.848C617.04 156.348 616.906 155.165 616.64 154.298C616.406 153.398 615.99 152.765 615.39 152.398C614.79 152.032 613.973 151.848 612.94 151.848C611.84 151.848 610.856 152.115 609.99 152.648C609.123 153.148 608.44 153.898 607.94 154.898C607.44 155.865 607.19 157.015 607.19 158.348V170.898C607.19 171.665 607.273 172.198 607.44 172.498C607.606 172.798 607.923 172.998 608.39 173.098L610.54 173.448V174.998H597.19Z" fill="black"/>
<path d="M641.246 174.998V173.348L643.746 173.098C644.379 173.032 644.796 172.832 644.996 172.498C645.196 172.132 645.296 171.465 645.296 170.498V143.298C645.296 142.465 645.179 141.882 644.946 141.548C644.746 141.215 644.312 141.015 643.646 140.948L641.246 140.748V139.098H655.096C656.862 139.098 658.462 139.232 659.896 139.498C661.362 139.732 662.662 140.115 663.796 140.648C664.929 141.148 665.862 141.798 666.596 142.598C667.362 143.398 667.929 144.348 668.296 145.448C668.696 146.515 668.896 147.748 668.896 149.148C668.896 150.715 668.662 152.098 668.196 153.298C667.762 154.498 667.146 155.548 666.346 156.448C665.546 157.315 664.612 158.032 663.546 158.598C662.479 159.165 661.312 159.598 660.046 159.898C658.812 160.165 657.546 160.298 656.246 160.298C655.346 160.298 654.529 160.282 653.796 160.248C653.096 160.182 652.596 160.115 652.296 160.048V170.598C652.296 171.465 652.396 172.098 652.596 172.498C652.829 172.865 653.362 173.065 654.196 173.098L657.446 173.348V174.998H641.246ZM654.646 158.248C656.979 158.248 658.712 157.515 659.846 156.048C661.012 154.548 661.596 152.332 661.596 149.398C661.596 147.365 661.346 145.748 660.846 144.548C660.346 143.315 659.562 142.432 658.496 141.898C657.462 141.332 656.129 141.048 654.496 141.048H652.296V158.048C652.529 158.115 652.862 158.165 653.296 158.198C653.729 158.232 654.179 158.248 654.646 158.248Z" fill="black"/>
<path d="M679.541 175.698C677.274 175.698 675.491 175.098 674.191 173.898C672.924 172.698 672.291 171.032 672.291 168.898C672.291 167.098 672.758 165.648 673.691 164.548C674.624 163.448 676.124 162.615 678.191 162.048C680.291 161.482 683.091 161.132 686.591 160.998V155.898C686.591 154.565 686.424 153.498 686.091 152.698C685.791 151.898 685.291 151.315 684.591 150.948C683.924 150.548 683.024 150.348 681.891 150.348C680.958 150.348 680.008 150.498 679.041 150.798C678.108 151.098 677.391 151.482 676.891 151.948C677.458 152.648 677.891 153.248 678.191 153.748C678.491 154.248 678.691 154.665 678.791 154.998C678.924 155.332 678.991 155.632 678.991 155.898C678.991 156.565 678.708 157.148 678.141 157.648C677.574 158.115 676.791 158.348 675.791 158.348C674.724 158.348 673.908 158.082 673.341 157.548C672.808 157.015 672.541 156.298 672.541 155.398C672.541 154.265 672.991 153.182 673.891 152.148C674.791 151.082 676.024 150.232 677.591 149.598C679.191 148.965 680.974 148.648 682.941 148.648C685.208 148.648 687.091 148.982 688.591 149.648C690.124 150.282 691.274 151.298 692.041 152.698C692.841 154.065 693.241 155.848 693.241 158.048V170.198C693.241 171.032 693.408 171.648 693.741 172.048C694.108 172.415 694.608 172.598 695.241 172.598C695.608 172.598 695.974 172.548 696.341 172.448C696.708 172.348 697.091 172.215 697.491 172.048L697.841 173.298C697.108 174.132 696.241 174.732 695.241 175.098C694.274 175.498 693.324 175.698 692.391 175.698C690.758 175.698 689.508 175.298 688.641 174.498C687.808 173.698 687.291 172.565 687.091 171.098C686.558 172.132 685.941 172.998 685.241 173.698C684.541 174.365 683.724 174.865 682.791 175.198C681.858 175.532 680.774 175.698 679.541 175.698ZM682.391 172.598C683.224 172.598 683.958 172.415 684.591 172.048C685.224 171.648 685.708 171.098 686.041 170.398C686.408 169.665 686.591 168.848 686.591 167.948V162.648C684.791 162.682 683.324 162.882 682.191 163.248C681.058 163.615 680.224 164.198 679.691 164.998C679.191 165.765 678.941 166.832 678.941 168.198C678.941 169.632 679.224 170.732 679.791 171.498C680.391 172.232 681.258 172.598 682.391 172.598Z" fill="black"/>
<path d="M707.827 174.998L699.527 154.048C699.26 153.382 699.044 152.882 698.877 152.548C698.71 152.182 698.494 151.915 698.227 151.748C697.994 151.582 697.66 151.448 697.227 151.348L695.727 150.948L696.027 149.298H709.777V150.948L707.627 151.198C706.96 151.265 706.544 151.482 706.377 151.848C706.244 152.215 706.344 152.848 706.677 153.748L712.577 169.748H712.777L718.327 154.048C718.627 153.215 718.694 152.582 718.527 152.148C718.394 151.682 717.927 151.382 717.127 151.248L715.177 150.898L715.477 149.298H724.877V150.948L723.177 151.248C722.544 151.382 722.077 151.615 721.777 151.948C721.477 152.248 721.144 152.932 720.777 153.998L713.127 174.998H707.827Z" fill="black"/>
<path d="M738.36 175.698C735.727 175.698 733.443 175.182 731.51 174.148C729.577 173.115 728.077 171.632 727.01 169.698C725.977 167.765 725.46 165.432 725.46 162.698C725.46 159.698 726.01 157.148 727.11 155.048C728.243 152.948 729.843 151.348 731.91 150.248C733.977 149.148 736.393 148.598 739.16 148.598C741.693 148.598 743.893 149.098 745.76 150.098C747.66 151.098 749.127 152.565 750.16 154.498C751.227 156.432 751.76 158.782 751.76 161.548C751.76 164.448 751.21 166.965 750.11 169.098C749.01 171.198 747.46 172.832 745.46 173.998C743.46 175.132 741.093 175.698 738.36 175.698ZM739.11 173.598C740.343 173.598 741.377 173.232 742.21 172.498C743.043 171.765 743.66 170.598 744.06 168.998C744.46 167.365 744.66 165.248 744.66 162.648C744.66 160.482 744.51 158.648 744.21 157.148C743.943 155.615 743.527 154.382 742.96 153.448C742.427 152.482 741.76 151.782 740.96 151.348C740.193 150.915 739.31 150.698 738.31 150.698C737.077 150.698 736.027 151.048 735.16 151.748C734.293 152.415 733.627 153.515 733.16 155.048C732.727 156.582 732.51 158.632 732.51 161.198C732.51 164.098 732.777 166.465 733.31 168.298C733.843 170.132 734.593 171.482 735.56 172.348C736.56 173.182 737.743 173.598 739.11 173.598Z" fill="black"/>
<path d="M755.539 174.998V173.398L757.689 173.098C758.189 173.032 758.523 172.848 758.689 172.548C758.856 172.215 758.939 171.615 758.939 170.748V154.398C758.939 153.298 758.839 152.548 758.639 152.148C758.439 151.715 757.973 151.465 757.239 151.398L755.089 151.148L755.239 149.548L764.589 148.998L765.039 149.348L765.139 154.148H765.239C766.039 152.348 767.189 150.982 768.689 150.048C770.223 149.082 771.939 148.598 773.839 148.598C775.639 148.598 777.139 148.948 778.339 149.648C779.573 150.315 780.489 151.298 781.089 152.598C781.723 153.898 782.039 155.498 782.039 157.398V171.048C782.039 171.815 782.123 172.332 782.289 172.598C782.489 172.865 782.906 173.048 783.539 173.148L785.589 173.398V174.998H772.189V173.448L773.989 173.198C774.589 173.098 774.973 172.915 775.139 172.648C775.306 172.348 775.389 171.815 775.389 171.048V157.848C775.389 156.348 775.256 155.165 774.989 154.298C774.756 153.398 774.339 152.765 773.739 152.398C773.139 152.032 772.323 151.848 771.289 151.848C770.189 151.848 769.206 152.115 768.339 152.648C767.473 153.148 766.789 153.898 766.289 154.898C765.789 155.865 765.539 157.015 765.539 158.348V170.898C765.539 171.665 765.623 172.198 765.789 172.498C765.956 172.798 766.273 172.998 766.739 173.098L768.889 173.448V174.998H755.539Z" fill="black"/>
<path d="M788.59 174.998V173.348L790.94 173.048C791.54 172.982 791.907 172.782 792.04 172.448C792.207 172.115 792.29 171.515 792.29 170.648V154.498C792.29 153.365 792.19 152.598 791.99 152.198C791.79 151.765 791.307 151.515 790.54 151.448L788.39 151.198L788.59 149.548L798.44 149.048L798.94 149.348V170.798C798.94 171.532 799.023 172.065 799.19 172.398C799.357 172.732 799.74 172.948 800.34 173.048L802.74 173.398V174.998H788.59ZM794.99 144.398C793.69 144.398 792.657 144.048 791.89 143.348C791.123 142.648 790.74 141.715 790.74 140.548C790.74 139.415 791.107 138.498 791.84 137.798C792.607 137.098 793.657 136.748 794.99 136.748C796.323 136.748 797.357 137.098 798.09 137.798C798.857 138.465 799.24 139.382 799.24 140.548C799.24 141.715 798.84 142.648 798.04 143.348C797.273 144.048 796.257 144.398 794.99 144.398Z" fill="black"/>
<path d="M386.18 261V260.02L390.17 259.81C391.103 259.716 391.757 259.413 392.13 258.9C392.55 258.34 392.76 257.406 392.76 256.1V211.3H389.4C387.86 211.3 386.483 211.556 385.27 212.07C384.103 212.536 383.03 213.306 382.05 214.38C381.117 215.453 380.23 216.853 379.39 218.58C378.597 220.306 377.757 222.43 376.87 224.95L375.75 224.6L377.5 209.97H419.64L421.32 224.6L420.13 224.95C419.337 222.43 418.52 220.306 417.68 218.58C416.84 216.853 415.953 215.453 415.02 214.38C414.087 213.306 413.013 212.536 411.8 212.07C410.633 211.556 409.28 211.3 407.74 211.3H404.45V256.38C404.45 257.64 404.66 258.503 405.08 258.97C405.547 259.436 406.247 259.716 407.18 259.81L411.03 260.02V261H386.18Z" fill="black"/>
<path d="M438.665 261.98C435.025 261.98 431.875 261.28 429.215 259.88C426.555 258.433 424.502 256.333 423.055 253.58C421.655 250.826 420.955 247.513 420.955 243.64C420.955 239.346 421.795 235.73 423.475 232.79C425.155 229.85 427.442 227.61 430.335 226.07C433.229 224.53 436.472 223.76 440.065 223.76C443.099 223.76 445.712 224.296 447.905 225.37C450.145 226.443 451.872 227.983 453.085 229.99C454.299 231.996 454.905 234.353 454.905 237.06C454.905 237.713 454.882 238.343 454.835 238.95C454.835 239.556 454.789 240.21 454.695 240.91H432.505C432.459 244.036 432.809 246.65 433.555 248.75C434.349 250.803 435.539 252.366 437.125 253.44C438.712 254.466 440.625 254.98 442.865 254.98C444.872 254.98 446.762 254.7 448.535 254.14C450.355 253.58 452.292 252.436 454.345 250.71L455.115 251.34C453.482 254.746 451.265 257.383 448.465 259.25C445.712 261.07 442.445 261.98 438.665 261.98ZM432.505 239.65H444.195C444.242 238.95 444.289 238.25 444.335 237.55C444.382 236.85 444.405 236.126 444.405 235.38C444.405 231.646 444.009 229.01 443.215 227.47C442.422 225.883 441.185 225.09 439.505 225.09C438.199 225.09 437.032 225.51 436.005 226.35C435.025 227.19 434.232 228.683 433.625 230.83C433.019 232.93 432.645 235.87 432.505 239.65Z" fill="black"/>
<path d="M459.232 261V260.02L461.962 259.74C462.662 259.646 463.128 259.39 463.362 258.97C463.595 258.55 463.712 257.733 463.712 256.52V230.41C463.712 228.916 463.548 227.866 463.222 227.26C462.942 226.653 462.288 226.303 461.262 226.21L458.532 226L458.672 225.02L473.932 224.32L474.422 224.74L474.352 231.81H474.422C475.122 230.083 476.032 228.636 477.152 227.47C478.272 226.256 479.555 225.346 481.002 224.74C482.495 224.086 484.105 223.76 485.832 223.76C488.725 223.76 491.105 224.436 492.972 225.79C494.838 227.143 496.122 229.173 496.822 231.88C497.802 229.266 499.295 227.26 501.302 225.86C503.308 224.46 505.642 223.76 508.302 223.76C510.728 223.76 512.805 224.25 514.532 225.23C516.258 226.21 517.565 227.656 518.452 229.57C519.385 231.436 519.852 233.77 519.852 236.57V256.8C519.852 257.92 519.992 258.666 520.272 259.04C520.552 259.413 521.112 259.646 521.952 259.74L524.472 260.02V261H505.152V260.02L507.042 259.81C507.742 259.716 508.208 259.483 508.442 259.11C508.675 258.69 508.792 257.92 508.792 256.8V235.8C508.792 233.513 508.628 231.763 508.302 230.55C508.022 229.336 507.532 228.496 506.832 228.03C506.178 227.516 505.268 227.26 504.102 227.26C502.842 227.26 501.698 227.633 500.672 228.38C499.645 229.126 498.828 230.176 498.222 231.53C497.615 232.836 497.312 234.4 497.312 236.22V256.66C497.312 257.686 497.382 258.433 497.522 258.9C497.662 259.32 498.105 259.576 498.852 259.67L501.022 260.02V261H482.612V260.02L484.502 259.81C485.202 259.716 485.668 259.483 485.902 259.11C486.135 258.69 486.252 257.92 486.252 256.8V235.8C486.252 233.513 486.088 231.763 485.762 230.55C485.482 229.29 484.992 228.426 484.292 227.96C483.638 227.493 482.728 227.26 481.562 227.26C480.302 227.26 479.158 227.656 478.132 228.45C477.105 229.243 476.288 230.316 475.682 231.67C475.075 232.976 474.772 234.493 474.772 236.22V256.66C474.772 257.78 474.865 258.55 475.052 258.97C475.238 259.343 475.682 259.576 476.382 259.67L478.482 260.02V261H459.232Z" fill="black"/>
<path d="M527.516 276.12V275.14L530.176 274.86C530.876 274.766 531.343 274.533 531.576 274.16C531.856 273.786 531.996 272.97 531.996 271.71V230.41C531.996 228.823 531.833 227.75 531.506 227.19C531.226 226.63 530.549 226.303 529.476 226.21L526.816 226L526.886 225.02L542.216 224.32L542.706 224.74V230.62H542.776C543.476 229.266 544.363 228.076 545.436 227.05C546.509 226.023 547.746 225.23 549.146 224.67C550.593 224.063 552.226 223.76 554.046 223.76C557.033 223.76 559.646 224.413 561.886 225.72C564.173 226.98 565.946 228.94 567.206 231.6C568.466 234.26 569.096 237.666 569.096 241.82C569.096 245.88 568.396 249.426 566.996 252.46C565.596 255.446 563.543 257.78 560.836 259.46C558.176 261.14 554.909 261.98 551.036 261.98C549.589 261.98 548.166 261.793 546.766 261.42C545.413 261.093 544.176 260.65 543.056 260.09V271.71C543.056 272.83 543.173 273.6 543.406 274.02C543.639 274.486 544.316 274.766 545.436 274.86L548.866 275.14V276.12H527.516ZM549.986 260.37C551.619 260.37 552.973 259.856 554.046 258.83C555.166 257.756 556.006 255.96 556.566 253.44C557.126 250.92 557.406 247.466 557.406 243.08C557.406 239.206 557.103 236.15 556.496 233.91C555.936 231.623 555.096 229.99 553.976 229.01C552.903 228.03 551.596 227.54 550.056 227.54C548.703 227.54 547.489 227.843 546.416 228.45C545.389 229.056 544.573 229.99 543.966 231.25C543.359 232.463 543.056 234.026 543.056 235.94V257.5C543.896 258.293 544.946 258.97 546.206 259.53C547.466 260.09 548.726 260.37 549.986 260.37Z" fill="black"/>
<path d="M574.005 261V260.02L576.665 259.74C577.459 259.693 577.972 259.46 578.205 259.04C578.439 258.573 578.555 257.71 578.555 256.45V213.12C578.555 211.673 578.392 210.67 578.065 210.11C577.785 209.503 577.132 209.153 576.105 209.06L573.375 208.85L573.445 207.87L589.125 207.31L589.615 207.73V256.59C589.615 257.756 589.755 258.55 590.035 258.97C590.315 259.39 590.899 259.646 591.785 259.74L594.445 260.02V261H574.005Z" fill="black"/>
<path d="M617.109 261.98C613.329 261.98 610.016 261.28 607.169 259.88C604.369 258.433 602.176 256.356 600.589 253.65C599.049 250.896 598.279 247.583 598.279 243.71C598.279 239.416 599.096 235.8 600.729 232.86C602.409 229.92 604.743 227.68 607.729 226.14C610.763 224.553 614.309 223.76 618.369 223.76C622.056 223.76 625.276 224.46 628.029 225.86C630.829 227.26 632.999 229.313 634.539 232.02C636.079 234.726 636.849 238.063 636.849 242.03C636.849 246.136 636.033 249.683 634.399 252.67C632.813 255.656 630.549 257.966 627.609 259.6C624.669 261.186 621.169 261.98 617.109 261.98ZM618.229 260.58C619.816 260.58 621.099 260.066 622.079 259.04C623.106 257.966 623.853 256.193 624.319 253.72C624.786 251.2 625.019 247.793 625.019 243.5C625.019 239.953 624.833 237.013 624.459 234.68C624.133 232.3 623.619 230.433 622.919 229.08C622.266 227.68 621.449 226.676 620.469 226.07C619.536 225.463 618.463 225.16 617.249 225.16C615.663 225.16 614.333 225.673 613.259 226.7C612.186 227.68 611.369 229.383 610.809 231.81C610.296 234.19 610.039 237.456 610.039 241.61C610.039 246.37 610.389 250.15 611.089 252.95C611.789 255.703 612.746 257.663 613.959 258.83C615.173 259.996 616.596 260.58 618.229 260.58Z" fill="black"/>
<path d="M681.083 261.98C676.23 261.98 672.007 260.93 668.413 258.83C664.82 256.73 662.043 253.766 660.083 249.94C658.17 246.113 657.213 241.61 657.213 236.43C657.213 230.503 658.217 225.51 660.223 221.45C662.277 217.39 665.147 214.31 668.833 212.21C672.567 210.063 676.953 208.99 681.993 208.99C686.66 208.99 690.743 209.993 694.243 212C697.743 213.96 700.45 216.806 702.363 220.54C704.323 224.273 705.303 228.846 705.303 234.26C705.303 238.366 704.767 242.146 703.693 245.6C702.62 249.006 701.033 251.923 698.933 254.35C696.88 256.776 694.337 258.666 691.303 260.02C688.317 261.326 684.91 261.98 681.083 261.98ZM682.203 260.58C684.07 260.58 685.68 260.183 687.033 259.39C688.387 258.55 689.483 257.196 690.323 255.33C691.21 253.463 691.863 250.966 692.283 247.84C692.703 244.666 692.913 240.7 692.913 235.94C692.913 231.226 692.657 227.236 692.143 223.97C691.63 220.656 690.86 217.996 689.833 215.99C688.807 213.983 687.547 212.536 686.053 211.65C684.56 210.763 682.81 210.32 680.803 210.32C678.983 210.32 677.373 210.74 675.973 211.58C674.573 212.373 673.383 213.726 672.403 215.64C671.47 217.506 670.747 220.003 670.233 223.13C669.767 226.256 669.533 230.13 669.533 234.75C669.533 239.463 669.813 243.476 670.373 246.79C670.98 250.056 671.82 252.716 672.893 254.77C674.013 256.823 675.343 258.316 676.883 259.25C678.47 260.136 680.243 260.58 682.203 260.58Z" fill="black"/>
<path d="M710.726 261V260.02L713.456 259.74C714.156 259.646 714.622 259.39 714.856 258.97C715.089 258.55 715.206 257.733 715.206 256.52V230.41C715.206 228.916 715.066 227.866 714.786 227.26C714.506 226.653 713.829 226.303 712.756 226.21L710.026 226L710.166 225.02L725.356 224.32L725.776 224.74L725.846 232.23H725.986C726.919 229.383 728.342 227.26 730.256 225.86C732.169 224.46 734.222 223.76 736.416 223.76C738.889 223.76 740.826 224.483 742.226 225.93C743.672 227.33 744.396 229.196 744.396 231.53C744.396 232.65 744.209 233.7 743.836 234.68C743.462 235.613 742.856 236.36 742.016 236.92C741.176 237.48 740.032 237.76 738.586 237.76C736.906 237.76 735.646 237.386 734.806 236.64C733.966 235.846 733.546 234.89 733.546 233.77C733.546 233.163 733.639 232.556 733.826 231.95C734.059 231.343 734.432 230.62 734.946 229.78C735.506 228.893 736.252 227.843 737.186 226.63C736.019 226.21 734.806 226.163 733.546 226.49C732.286 226.77 731.096 227.376 729.976 228.31C728.902 229.243 728.016 230.456 727.316 231.95C726.616 233.396 726.266 235.1 726.266 237.06V256.59C726.266 257.663 726.359 258.433 726.546 258.9C726.779 259.32 727.339 259.553 728.226 259.6L732.636 260.02V261H710.726Z" fill="black"/>
<path d="M751.996 261.91L750.736 261.21V213.26C750.736 211.813 750.596 210.786 750.316 210.18C750.083 209.526 749.383 209.153 748.216 209.06L745.626 208.78L745.696 207.87L761.376 207.31L761.866 207.73V229.85H761.936C762.636 228.59 763.476 227.516 764.456 226.63C765.483 225.696 766.673 224.996 768.026 224.53C769.426 224.016 770.99 223.76 772.716 223.76C775.75 223.76 778.409 224.413 780.696 225.72C782.983 226.98 784.756 228.916 786.016 231.53C787.276 234.143 787.906 237.503 787.906 241.61C787.906 245.763 787.183 249.38 785.736 252.46C784.336 255.493 782.306 257.85 779.646 259.53C776.986 261.163 773.719 261.98 769.846 261.98C767.746 261.98 765.786 261.676 763.966 261.07C762.193 260.463 760.583 259.693 759.136 258.76L751.996 261.91ZM768.586 260.37C770.22 260.37 771.596 259.856 772.716 258.83C773.883 257.756 774.746 255.983 775.306 253.51C775.913 251.036 776.216 247.653 776.216 243.36C776.216 239.486 775.913 236.406 775.306 234.12C774.746 231.786 773.906 230.106 772.786 229.08C771.666 228.053 770.266 227.54 768.586 227.54C767.373 227.54 766.253 227.82 765.226 228.38C764.199 228.893 763.383 229.756 762.776 230.97C762.17 232.136 761.866 233.723 761.866 235.73V257.43C762.753 258.27 763.756 258.97 764.876 259.53C766.043 260.09 767.28 260.37 768.586 260.37Z" fill="black"/>
<path d="M793.099 261V260.02L796.039 259.74C796.785 259.646 797.252 259.39 797.439 258.97C797.672 258.503 797.789 257.686 797.789 256.52V230.41C797.789 228.916 797.625 227.866 797.299 227.26C797.019 226.653 796.365 226.303 795.339 226.21L792.609 226L792.679 225.02L808.359 224.32L808.849 224.74V256.66C808.849 257.78 808.965 258.55 809.199 258.97C809.479 259.343 810.015 259.576 810.809 259.67L813.679 260.02V261H793.099ZM802.549 218.44C800.449 218.44 798.792 217.926 797.579 216.9C796.365 215.826 795.759 214.38 795.759 212.56C795.759 210.786 796.342 209.363 797.509 208.29C798.722 207.216 800.402 206.68 802.549 206.68C804.789 206.68 806.469 207.216 807.589 208.29C808.755 209.316 809.339 210.74 809.339 212.56C809.339 214.333 808.732 215.756 807.519 216.83C806.352 217.903 804.695 218.44 802.549 218.44Z" fill="black"/>
<path d="M830.543 261.98C828.536 261.98 826.786 261.653 825.293 261C823.799 260.3 822.633 259.18 821.793 257.64C820.999 256.1 820.603 254.046 820.603 251.48V226.07H815.913V225.16C818.106 224.926 819.809 224.436 821.023 223.69C822.236 222.896 823.169 221.706 823.823 220.12C824.476 218.533 824.989 216.48 825.363 213.96L830.893 213.19L831.663 213.75V224.74H841.113V226.07H831.663V250.01C831.663 252.063 831.989 253.626 832.643 254.7C833.296 255.773 834.393 256.31 835.933 256.31C837.053 256.31 838.149 256.076 839.223 255.61C840.296 255.143 841.276 254.443 842.163 253.51L842.793 254.21C841.253 256.636 839.526 258.55 837.613 259.95C835.746 261.303 833.389 261.98 830.543 261.98Z" fill="black"/>
<path d="M855.622 261.98C852.449 261.98 849.975 261.163 848.202 259.53C846.429 257.85 845.542 255.493 845.542 252.46C845.542 249.986 846.172 248.003 847.432 246.51C848.692 245.016 850.769 243.873 853.662 243.08C856.602 242.286 860.569 241.773 865.562 241.54V232.65C865.562 230.83 865.352 229.383 864.932 228.31C864.512 227.19 863.835 226.396 862.902 225.93C862.015 225.416 860.825 225.16 859.332 225.16C858.025 225.16 856.625 225.393 855.132 225.86C853.685 226.326 852.589 226.933 851.842 227.68C853.009 228.986 853.872 230.06 854.432 230.9C854.992 231.74 855.365 232.44 855.552 233C855.739 233.513 855.832 234.003 855.832 234.47C855.832 235.45 855.412 236.313 854.572 237.06C853.779 237.76 852.612 238.11 851.072 238.11C849.345 238.11 848.062 237.69 847.222 236.85C846.429 236.01 846.032 234.913 846.032 233.56C846.032 232.066 846.639 230.573 847.852 229.08C849.112 227.54 850.885 226.28 853.172 225.3C855.505 224.273 858.235 223.76 861.362 223.76C864.582 223.76 867.335 224.203 869.622 225.09C871.909 225.976 873.659 227.423 874.872 229.43C876.085 231.436 876.692 234.143 876.692 237.55V254.91C876.692 256.076 876.902 256.94 877.322 257.5C877.789 258.013 878.442 258.27 879.282 258.27C879.795 258.27 880.285 258.223 880.752 258.13C881.219 257.99 881.732 257.803 882.292 257.57L882.642 258.2C881.382 259.646 880.005 260.626 878.512 261.14C877.019 261.7 875.595 261.98 874.242 261.98C871.769 261.98 869.902 261.396 868.642 260.23C867.382 259.063 866.542 257.43 866.122 255.33C865.469 256.87 864.675 258.13 863.742 259.11C862.809 260.09 861.665 260.813 860.312 261.28C859.005 261.746 857.442 261.98 855.622 261.98ZM860.732 258.06C861.759 258.06 862.622 257.803 863.322 257.29C864.022 256.776 864.559 256.076 864.932 255.19C865.352 254.256 865.562 253.183 865.562 251.97V242.73C863.322 242.776 861.525 243.08 860.172 243.64C858.865 244.153 857.932 245.016 857.372 246.23C856.812 247.443 856.532 249.123 856.532 251.27C856.532 253.603 856.882 255.33 857.582 256.45C858.282 257.523 859.332 258.06 860.732 258.06Z" fill="black"/>
<path d="M884.972 261V260.02L887.632 259.74C888.425 259.693 888.939 259.46 889.172 259.04C889.405 258.573 889.522 257.71 889.522 256.45V213.12C889.522 211.673 889.359 210.67 889.032 210.11C888.752 209.503 888.099 209.153 887.072 209.06L884.342 208.85L884.412 207.87L900.092 207.31L900.582 207.73V256.59C900.582 257.756 900.722 258.55 901.002 258.97C901.282 259.39 901.865 259.646 902.752 259.74L905.412 260.02V261H884.972Z" fill="black"/>
<path d="M268 155L268 158.56L264.44 158.56L264.44 155L268 155ZM268 158.56L268 162.12L264.44 162.12L264.44 158.56L268 158.56ZM268 162.12L268 165.68L264.44 165.68L264.44 162.12L268 162.12ZM268 165.68L268 169.24L264.44 169.24L264.44 165.68L268 165.68ZM268 169.24L268 172.8L264.44 172.8L264.44 169.24L268 169.24ZM268 172.8L268 176.36L264.44 176.36L264.44 172.8L268 172.8ZM268 176.36L268 179.92L264.44 179.92L264.44 176.36L268 176.36ZM268 190.6L268 194.16L264.44 194.16L264.44 190.6L268 190.6ZM268 197.72L268 201.28L264.44 201.28L264.44 197.72L268 197.72ZM268 201.28L268 204.84L264.44 204.84L264.44 201.28L268 201.28ZM268 211.96L268 215.52L264.44 215.52L264.44 211.96L268 211.96ZM268 219.08L268 222.64L264.44 222.64L264.44 219.08L268 219.08ZM268 222.64L268 226.2L264.44 226.2L264.44 222.64L268 222.64ZM268 226.2L268 229.76L264.44 229.76L264.44 226.2L268 226.2ZM268 229.76L268 233.32L264.44 233.32L264.44 229.76L268 229.76ZM268 233.32L268 236.88L264.44 236.88L264.44 233.32L268 233.32ZM268 236.88L268 240.44L264.44 240.44L264.44 236.88L268 236.88ZM268 240.44L268 244L264.44 244L264.44 240.44L268 240.44ZM264.44 155L264.44 158.56L260.88 158.56L260.88 155L264.44 155ZM264.44 176.36L264.44 179.92L260.88 179.92L260.88 176.36L264.44 176.36ZM264.44 183.48L264.44 187.04L260.88 187.04L260.88 183.48L264.44 183.48ZM264.44 190.6L264.44 194.16L260.88 194.16L260.88 190.6L264.44 190.6ZM264.44 204.84L264.44 208.4L260.88 208.4L260.88 204.84L264.44 204.84ZM264.44 208.4L264.44 211.96L260.88 211.96L260.88 208.4L264.44 208.4ZM264.44 211.96L264.44 215.52L260.88 215.52L260.88 211.96L264.44 211.96ZM264.44 219.08L264.44 222.64L260.88 222.64L260.88 219.08L264.44 219.08ZM264.44 240.44L264.44 244L260.88 244L260.88 240.44L264.44 240.44ZM260.88 155L260.88 158.56L257.32 158.56L257.32 155L260.88 155ZM260.88 162.12L260.88 165.68L257.32 165.68L257.32 162.12L260.88 162.12ZM260.88 165.68L260.88 169.24L257.32 169.24L257.32 165.68L260.88 165.68ZM260.88 169.24L260.88 172.8L257.32 172.8L257.32 169.24L260.88 169.24ZM260.88 176.36L260.88 179.92L257.32 179.92L257.32 176.36L260.88 176.36ZM260.88 197.72L260.88 201.28L257.32 201.28L257.32 197.72L260.88 197.72ZM260.88 204.84L260.88 208.4L257.32 208.4L257.32 204.84L260.88 204.84ZM260.88 208.4L260.88 211.96L257.32 211.96L257.32 208.4L260.88 208.4ZM260.88 211.96L260.88 215.52L257.32 215.52L257.32 211.96L260.88 211.96ZM260.88 219.08L260.88 222.64L257.32 222.64L257.32 219.08L260.88 219.08ZM260.88 226.2L260.88 229.76L257.32 229.76L257.32 226.2L260.88 226.2ZM260.88 229.76L260.88 233.32L257.32 233.32L257.32 229.76L260.88 229.76ZM260.88 233.32L260.88 236.88L257.32 236.88L257.32 233.32L260.88 233.32ZM260.88 240.44L260.88 244L257.32 244L257.32 240.44L260.88 240.44ZM257.32 155L257.32 158.56L253.76 158.56L253.76 155L257.32 155ZM257.32 162.12L257.32 165.68L253.76 165.68L253.76 162.12L257.32 162.12ZM257.32 165.68L257.32 169.24L253.76 169.24L253.76 165.68L257.32 165.68ZM257.32 169.24L257.32 172.8L253.76 172.8L253.76 169.24L257.32 169.24ZM257.32 176.36L257.32 179.92L253.76 179.92L253.76 176.36L257.32 176.36ZM257.32 183.48L257.32 187.04L253.76 187.04L253.76 183.48L257.32 183.48ZM257.32 187.04L257.32 190.6L253.76 190.6L253.76 187.04L257.32 187.04ZM257.32 190.6L257.32 194.16L253.76 194.16L253.76 190.6L257.32 190.6ZM257.32 197.72L257.32 201.28L253.76 201.28L253.76 197.72L257.32 197.72ZM257.32 201.28L257.32 204.84L253.76 204.84L253.76 201.28L257.32 201.28ZM257.32 204.84L257.32 208.4L253.76 208.4L253.76 204.84L257.32 204.84ZM257.32 208.4L257.32 211.96L253.76 211.96L253.76 208.4L257.32 208.4ZM257.32 219.08L257.32 222.64L253.76 222.64L253.76 219.08L257.32 219.08ZM257.32 226.2L257.32 229.76L253.76 229.76L253.76 226.2L257.32 226.2ZM257.32 229.76L257.32 233.32L253.76 233.32L253.76 229.76L257.32 229.76ZM257.32 233.32L257.32 236.88L253.76 236.88L253.76 233.32L257.32 233.32ZM257.32 240.44L257.32 244L253.76 244L253.76 240.44L257.32 240.44ZM253.76 155L253.76 158.56L250.2 158.56L250.2 155L253.76 155ZM253.76 162.12L253.76 165.68L250.2 165.68L250.2 162.12L253.76 162.12ZM253.76 165.68L253.76 169.24L250.2 169.24L250.2 165.68L253.76 165.68ZM253.76 169.24L253.76 172.8L250.2 172.8L250.2 169.24L253.76 169.24ZM253.76 176.36L253.76 179.92L250.2 179.92L250.2 176.36L253.76 176.36ZM253.76 187.04L253.76 190.6L250.2 190.6L250.2 187.04L253.76 187.04ZM253.76 204.84L253.76 208.4L250.2 208.4L250.2 204.84L253.76 204.84ZM253.76 211.96L253.76 215.52L250.2 215.52L250.2 211.96L253.76 211.96ZM253.76 219.08L253.76 222.64L250.2 222.64L250.2 219.08L253.76 219.08ZM253.76 226.2L253.76 229.76L250.2 229.76L250.2 226.2L253.76 226.2ZM253.76 229.76L253.76 233.32L250.2 233.32L250.2 229.76L253.76 229.76ZM253.76 233.32L253.76 236.88L250.2 236.88L250.2 233.32L253.76 233.32ZM253.76 240.44L253.76 244L250.2 244L250.2 240.44L253.76 240.44ZM250.2 155L250.2 158.56L246.64 158.56L246.64 155L250.2 155ZM250.2 176.36L250.2 179.92L246.64 179.92L246.64 176.36L250.2 176.36ZM250.2 183.48L250.2 187.04L246.64 187.04L246.64 183.48L250.2 183.48ZM250.2 187.04L250.2 190.6L246.64 190.6L246.64 187.04L250.2 187.04ZM250.2 194.16L250.2 197.72L246.64 197.72L246.64 194.16L250.2 194.16ZM250.2 197.72L250.2 201.28L246.64 201.28L246.64 197.72L250.2 197.72ZM250.2 208.4L250.2 211.96L246.64 211.96L246.64 208.4L250.2 208.4ZM250.2 219.08L250.2 222.64L246.64 222.64L246.64 219.08L250.2 219.08ZM250.2 240.44L250.2 244L246.64 244L246.64 240.44L250.2 240.44ZM246.64 155L246.64 158.56L243.08 158.56L243.08 155L246.64 155ZM246.64 158.56L246.64 162.12L243.08 162.12L243.08 158.56L246.64 158.56ZM246.64 162.12L246.64 165.68L243.08 165.68L243.08 162.12L246.64 162.12ZM246.64 165.68L246.64 169.24L243.08 169.24L243.08 165.68L246.64 165.68ZM246.64 169.24L246.64 172.8L243.08 172.8L243.08 169.24L246.64 169.24ZM246.64 172.8L246.64 176.36L243.08 176.36L243.08 172.8L246.64 172.8ZM246.64 176.36L246.64 179.92L243.08 179.92L243.08 176.36L246.64 176.36ZM246.64 183.48L246.64 187.04L243.08 187.04L243.08 183.48L246.64 183.48ZM246.64 190.6L246.64 194.16L243.08 194.16L243.08 190.6L246.64 190.6ZM246.64 197.72L246.64 201.28L243.08 201.28L243.08 197.72L246.64 197.72ZM246.64 204.84L246.64 208.4L243.08 208.4L243.08 204.84L246.64 204.84ZM246.64 211.96L246.64 215.52L243.08 215.52L243.08 211.96L246.64 211.96ZM246.64 219.08L246.64 222.64L243.08 222.64L243.08 219.08L246.64 219.08ZM246.64 222.64L246.64 226.2L243.08 226.2L243.08 222.64L246.64 222.64ZM246.64 226.2L246.64 229.76L243.08 229.76L243.08 226.2L246.64 226.2ZM246.64 229.76L246.64 233.32L243.08 233.32L243.08 229.76L246.64 229.76ZM246.64 233.32L246.64 236.88L243.08 236.88L243.08 233.32L246.64 233.32ZM246.64 236.88L246.64 240.44L243.08 240.44L243.08 236.88L246.64 236.88ZM246.64 240.44L246.64 244L243.08 244L243.08 240.44L246.64 240.44ZM243.08 187.04L243.08 190.6L239.52 190.6L239.52 187.04L243.08 187.04ZM243.08 190.6L243.08 194.16L239.52 194.16L239.52 190.6L243.08 190.6ZM243.08 194.16L243.08 197.72L239.52 197.72L239.52 194.16L243.08 194.16ZM243.08 208.4L243.08 211.96L239.52 211.96L239.52 208.4L243.08 208.4ZM243.08 211.96L243.08 215.52L239.52 215.52L239.52 211.96L243.08 211.96ZM239.52 155L239.52 158.56L235.96 158.56L235.96 155L239.52 155ZM239.52 158.56L239.52 162.12L235.96 162.12L235.96 158.56L239.52 158.56ZM239.52 162.12L239.52 165.68L235.96 165.68L235.96 162.12L239.52 162.12ZM239.52 165.68L239.52 169.24L235.96 169.24L235.96 165.68L239.52 165.68ZM239.52 169.24L239.52 172.8L235.96 172.8L235.96 169.24L239.52 169.24ZM239.52 176.36L239.52 179.92L235.96 179.92L235.96 176.36L239.52 176.36ZM239.52 179.92L239.52 183.48L235.96 183.48L235.96 179.92L239.52 179.92ZM239.52 183.48L239.52 187.04L235.96 187.04L235.96 183.48L239.52 183.48ZM239.52 187.04L239.52 190.6L235.96 190.6L235.96 187.04L239.52 187.04ZM239.52 194.16L239.52 197.72L235.96 197.72L235.96 194.16L239.52 194.16ZM239.52 201.28L239.52 204.84L235.96 204.84L235.96 201.28L239.52 201.28ZM239.52 204.84L239.52 208.4L235.96 208.4L235.96 204.84L239.52 204.84ZM239.52 208.4L239.52 211.96L235.96 211.96L235.96 208.4L239.52 208.4ZM239.52 211.96L239.52 215.52L235.96 215.52L235.96 211.96L239.52 211.96ZM239.52 215.52L239.52 219.08L235.96 219.08L235.96 215.52L239.52 215.52ZM239.52 222.64L239.52 226.2L235.96 226.2L235.96 222.64L239.52 222.64ZM239.52 229.76L239.52 233.32L235.96 233.32L235.96 229.76L239.52 229.76ZM239.52 236.88L239.52 240.44L235.96 240.44L235.96 236.88L239.52 236.88ZM235.96 155L235.96 158.56L232.4 158.56L232.4 155L235.96 155ZM235.96 158.56L235.96 162.12L232.4 162.12L232.4 158.56L235.96 158.56ZM235.96 165.68L235.96 169.24L232.4 169.24L232.4 165.68L235.96 165.68ZM235.96 179.92L235.96 183.48L232.4 183.48L232.4 179.92L235.96 179.92ZM235.96 183.48L235.96 187.04L232.4 187.04L232.4 183.48L235.96 183.48ZM235.96 190.6L235.96 194.16L232.4 194.16L232.4 190.6L235.96 190.6ZM235.96 197.72L235.96 201.28L232.4 201.28L232.4 197.72L235.96 197.72ZM235.96 201.28L235.96 204.84L232.4 204.84L232.4 201.28L235.96 201.28ZM235.96 211.96L235.96 215.52L232.4 215.52L232.4 211.96L235.96 211.96ZM235.96 215.52L235.96 219.08L232.4 219.08L232.4 215.52L235.96 215.52ZM235.96 222.64L235.96 226.2L232.4 226.2L232.4 222.64L235.96 222.64ZM235.96 236.88L235.96 240.44L232.4 240.44L232.4 236.88L235.96 236.88ZM232.4 155L232.4 158.56L228.84 158.56L228.84 155L232.4 155ZM232.4 162.12L232.4 165.68L228.84 165.68L228.84 162.12L232.4 162.12ZM232.4 172.8L232.4 176.36L228.84 176.36L228.84 172.8L232.4 172.8ZM232.4 176.36L232.4 179.92L228.84 179.92L228.84 176.36L232.4 176.36ZM232.4 179.92L232.4 183.48L228.84 183.48L228.84 179.92L232.4 179.92ZM232.4 183.48L232.4 187.04L228.84 187.04L228.84 183.48L232.4 183.48ZM232.4 190.6L232.4 194.16L228.84 194.16L228.84 190.6L232.4 190.6ZM232.4 204.84L232.4 208.4L228.84 208.4L228.84 204.84L232.4 204.84ZM232.4 208.4L232.4 211.96L228.84 211.96L228.84 208.4L232.4 208.4ZM232.4 219.08L232.4 222.64L228.84 222.64L228.84 219.08L232.4 219.08ZM232.4 222.64L232.4 226.2L228.84 226.2L228.84 222.64L232.4 222.64ZM232.4 226.2L232.4 229.76L228.84 229.76L228.84 226.2L232.4 226.2ZM232.4 229.76L232.4 233.32L228.84 233.32L228.84 229.76L232.4 229.76ZM232.4 236.88L232.4 240.44L228.84 240.44L228.84 236.88L232.4 236.88ZM232.4 240.44L232.4 244L228.84 244L228.84 240.44L232.4 240.44ZM228.84 155L228.84 158.56L225.28 158.56L225.28 155L228.84 155ZM228.84 158.56L228.84 162.12L225.28 162.12L225.28 158.56L228.84 158.56ZM228.84 162.12L228.84 165.68L225.28 165.68L225.28 162.12L228.84 162.12ZM228.84 165.68L228.84 169.24L225.28 169.24L225.28 165.68L228.84 165.68ZM228.84 172.8L228.84 176.36L225.28 176.36L225.28 172.8L228.84 172.8ZM228.84 183.48L228.84 187.04L225.28 187.04L225.28 183.48L228.84 183.48ZM228.84 197.72L228.84 201.28L225.28 201.28L225.28 197.72L228.84 197.72ZM228.84 208.4L228.84 211.96L225.28 211.96L225.28 208.4L228.84 208.4ZM228.84 211.96L228.84 215.52L225.28 215.52L225.28 211.96L228.84 211.96ZM228.84 222.64L228.84 226.2L225.28 226.2L225.28 222.64L228.84 222.64ZM228.84 226.2L228.84 229.76L225.28 229.76L225.28 226.2L228.84 226.2ZM228.84 240.44L228.84 244L225.28 244L225.28 240.44L228.84 240.44ZM225.28 158.56L225.28 162.12L221.72 162.12L221.72 158.56L225.28 158.56ZM225.28 165.68L225.28 169.24L221.72 169.24L221.72 165.68L225.28 165.68ZM225.28 172.8L225.28 176.36L221.72 176.36L221.72 172.8L225.28 172.8ZM225.28 176.36L225.28 179.92L221.72 179.92L221.72 176.36L225.28 176.36ZM225.28 183.48L225.28 187.04L221.72 187.04L221.72 183.48L225.28 183.48ZM225.28 187.04L225.28 190.6L221.72 190.6L221.72 187.04L225.28 187.04ZM225.28 190.6L225.28 194.16L221.72 194.16L221.72 190.6L225.28 190.6ZM225.28 197.72L225.28 201.28L221.72 201.28L221.72 197.72L225.28 197.72ZM225.28 201.28L225.28 204.84L221.72 204.84L221.72 201.28L225.28 201.28ZM225.28 204.84L225.28 208.4L221.72 208.4L221.72 204.84L225.28 204.84ZM225.28 215.52L225.28 219.08L221.72 219.08L221.72 215.52L225.28 215.52ZM225.28 219.08L225.28 222.64L221.72 222.64L221.72 219.08L225.28 219.08ZM225.28 226.2L225.28 229.76L221.72 229.76L221.72 226.2L225.28 226.2ZM225.28 233.32L225.28 236.88L221.72 236.88L221.72 233.32L225.28 233.32ZM225.28 236.88L225.28 240.44L221.72 240.44L221.72 236.88L225.28 236.88ZM225.28 240.44L225.28 244L221.72 244L221.72 240.44L225.28 240.44ZM221.72 155L221.72 158.56L218.16 158.56L218.16 155L221.72 155ZM221.72 162.12L221.72 165.68L218.16 165.68L218.16 162.12L221.72 162.12ZM221.72 169.24L221.72 172.8L218.16 172.8L218.16 169.24L221.72 169.24ZM221.72 211.96L221.72 215.52L218.16 215.52L218.16 211.96L221.72 211.96ZM221.72 222.64L221.72 226.2L218.16 226.2L218.16 222.64L221.72 222.64ZM221.72 229.76L221.72 233.32L218.16 233.32L218.16 229.76L221.72 229.76ZM221.72 236.88L221.72 240.44L218.16 240.44L218.16 236.88L221.72 236.88ZM218.16 155L218.16 158.56L214.6 158.56L214.6 155L218.16 155ZM218.16 172.8L218.16 176.36L214.6 176.36L214.6 172.8L218.16 172.8ZM218.16 176.36L218.16 179.92L214.6 179.92L214.6 176.36L218.16 176.36ZM218.16 190.6L218.16 194.16L214.6 194.16L214.6 190.6L218.16 190.6ZM218.16 194.16L218.16 197.72L214.6 197.72L214.6 194.16L218.16 194.16ZM218.16 197.72L218.16 201.28L214.6 201.28L214.6 197.72L218.16 197.72ZM218.16 204.84L218.16 208.4L214.6 208.4L214.6 204.84L218.16 204.84ZM218.16 208.4L218.16 211.96L214.6 211.96L214.6 208.4L218.16 208.4ZM218.16 211.96L218.16 215.52L214.6 215.52L214.6 211.96L218.16 211.96ZM218.16 219.08L218.16 222.64L214.6 222.64L214.6 219.08L218.16 219.08ZM218.16 222.64L218.16 226.2L214.6 226.2L214.6 222.64L218.16 222.64ZM218.16 226.2L218.16 229.76L214.6 229.76L214.6 226.2L218.16 226.2ZM218.16 229.76L218.16 233.32L214.6 233.32L214.6 229.76L218.16 229.76ZM218.16 236.88L218.16 240.44L214.6 240.44L214.6 236.88L218.16 236.88ZM218.16 240.44L218.16 244L214.6 244L214.6 240.44L218.16 240.44ZM214.6 155L214.6 158.56L211.04 158.56L211.04 155L214.6 155ZM214.6 165.68L214.6 169.24L211.04 169.24L211.04 165.68L214.6 165.68ZM214.6 169.24L214.6 172.8L211.04 172.8L211.04 169.24L214.6 169.24ZM214.6 187.04L214.6 190.6L211.04 190.6L211.04 187.04L214.6 187.04ZM214.6 194.16L214.6 197.72L211.04 197.72L211.04 194.16L214.6 194.16ZM214.6 204.84L214.6 208.4L211.04 208.4L211.04 204.84L214.6 204.84ZM214.6 208.4L214.6 211.96L211.04 211.96L211.04 208.4L214.6 208.4ZM214.6 222.64L214.6 226.2L211.04 226.2L211.04 222.64L214.6 222.64ZM214.6 226.2L214.6 229.76L211.04 229.76L211.04 226.2L214.6 226.2ZM214.6 240.44L214.6 244L211.04 244L211.04 240.44L214.6 240.44ZM211.04 155L211.04 158.56L207.48 158.56L207.48 155L211.04 155ZM211.04 162.12L211.04 165.68L207.48 165.68L207.48 162.12L211.04 162.12ZM211.04 165.68L211.04 169.24L207.48 169.24L207.48 165.68L211.04 165.68ZM211.04 172.8L211.04 176.36L207.48 176.36L207.48 172.8L211.04 172.8ZM211.04 176.36L211.04 179.92L207.48 179.92L207.48 176.36L211.04 176.36ZM211.04 194.16L211.04 197.72L207.48 197.72L207.48 194.16L211.04 194.16ZM211.04 197.72L211.04 201.28L207.48 201.28L207.48 197.72L211.04 197.72ZM211.04 201.28L211.04 204.84L207.48 204.84L207.48 201.28L211.04 201.28ZM211.04 208.4L211.04 211.96L207.48 211.96L207.48 208.4L211.04 208.4ZM211.04 211.96L211.04 215.52L207.48 215.52L207.48 211.96L211.04 211.96ZM211.04 215.52L211.04 219.08L207.48 219.08L207.48 215.52L211.04 215.52ZM211.04 219.08L211.04 222.64L207.48 222.64L207.48 219.08L211.04 219.08ZM211.04 222.64L211.04 226.2L207.48 226.2L207.48 222.64L211.04 222.64ZM211.04 226.2L211.04 229.76L207.48 229.76L207.48 226.2L211.04 226.2ZM211.04 233.32L211.04 236.88L207.48 236.88L207.48 233.32L211.04 233.32ZM207.48 183.48L207.48 187.04L203.92 187.04L203.92 183.48L207.48 183.48ZM207.48 197.72L207.48 201.28L203.92 201.28L203.92 197.72L207.48 197.72ZM207.48 201.28L207.48 204.84L203.92 204.84L203.92 201.28L207.48 201.28ZM207.48 208.4L207.48 211.96L203.92 211.96L203.92 208.4L207.48 208.4ZM207.48 211.96L207.48 215.52L203.92 215.52L203.92 211.96L207.48 211.96ZM207.48 226.2L207.48 229.76L203.92 229.76L203.92 226.2L207.48 226.2ZM207.48 229.76L207.48 233.32L203.92 233.32L203.92 229.76L207.48 229.76ZM203.92 155L203.92 158.56L200.36 158.56L200.36 155L203.92 155ZM203.92 158.56L203.92 162.12L200.36 162.12L200.36 158.56L203.92 158.56ZM203.92 162.12L203.92 165.68L200.36 165.68L200.36 162.12L203.92 162.12ZM203.92 165.68L203.92 169.24L200.36 169.24L200.36 165.68L203.92 165.68ZM203.92 169.24L203.92 172.8L200.36 172.8L200.36 169.24L203.92 169.24ZM203.92 172.8L203.92 176.36L200.36 176.36L200.36 172.8L203.92 172.8ZM203.92 176.36L203.92 179.92L200.36 179.92L200.36 176.36L203.92 176.36ZM203.92 183.48L203.92 187.04L200.36 187.04L200.36 183.48L203.92 183.48ZM203.92 187.04L203.92 190.6L200.36 190.6L200.36 187.04L203.92 187.04ZM203.92 197.72L203.92 201.28L200.36 201.28L200.36 197.72L203.92 197.72ZM203.92 201.28L203.92 204.84L200.36 204.84L200.36 201.28L203.92 201.28ZM203.92 204.84L203.92 208.4L200.36 208.4L200.36 204.84L203.92 204.84ZM203.92 211.96L203.92 215.52L200.36 215.52L200.36 211.96L203.92 211.96ZM203.92 219.08L203.92 222.64L200.36 222.64L200.36 219.08L203.92 219.08ZM203.92 226.2L203.92 229.76L200.36 229.76L200.36 226.2L203.92 226.2ZM203.92 233.32L203.92 236.88L200.36 236.88L200.36 233.32L203.92 233.32ZM203.92 236.88L203.92 240.44L200.36 240.44L200.36 236.88L203.92 236.88ZM203.92 240.44L203.92 244L200.36 244L200.36 240.44L203.92 240.44ZM200.36 155L200.36 158.56L196.8 158.56L196.8 155L200.36 155ZM200.36 176.36L200.36 179.92L196.8 179.92L196.8 176.36L200.36 176.36ZM200.36 211.96L200.36 215.52L196.8 215.52L196.8 211.96L200.36 211.96ZM200.36 226.2L200.36 229.76L196.8 229.76L196.8 226.2L200.36 226.2ZM200.36 229.76L200.36 233.32L196.8 233.32L196.8 229.76L200.36 229.76ZM200.36 236.88L200.36 240.44L196.8 240.44L196.8 236.88L200.36 236.88ZM200.36 240.44L200.36 244L196.8 244L196.8 240.44L200.36 240.44ZM196.8 155L196.8 158.56L193.24 158.56L193.24 155L196.8 155ZM196.8 162.12L196.8 165.68L193.24 165.68L193.24 162.12L196.8 162.12ZM196.8 165.68L196.8 169.24L193.24 169.24L193.24 165.68L196.8 165.68ZM196.8 169.24L196.8 172.8L193.24 172.8L193.24 169.24L196.8 169.24ZM196.8 176.36L196.8 179.92L193.24 179.92L193.24 176.36L196.8 176.36ZM196.8 183.48L196.8 187.04L193.24 187.04L193.24 183.48L196.8 183.48ZM196.8 187.04L196.8 190.6L193.24 190.6L193.24 187.04L196.8 187.04ZM196.8 190.6L196.8 194.16L193.24 194.16L193.24 190.6L196.8 190.6ZM196.8 201.28L196.8 204.84L193.24 204.84L193.24 201.28L196.8 201.28ZM196.8 204.84L196.8 208.4L193.24 208.4L193.24 204.84L196.8 204.84ZM196.8 208.4L196.8 211.96L193.24 211.96L193.24 208.4L196.8 208.4ZM196.8 211.96L196.8 215.52L193.24 215.52L193.24 211.96L196.8 211.96ZM196.8 215.52L196.8 219.08L193.24 219.08L193.24 215.52L196.8 215.52ZM196.8 219.08L196.8 222.64L193.24 222.64L193.24 219.08L196.8 219.08ZM196.8 222.64L196.8 226.2L193.24 226.2L193.24 222.64L196.8 222.64ZM196.8 226.2L196.8 229.76L193.24 229.76L193.24 226.2L196.8 226.2ZM196.8 233.32L196.8 236.88L193.24 236.88L193.24 233.32L196.8 233.32ZM193.24 155L193.24 158.56L189.68 158.56L189.68 155L193.24 155ZM193.24 162.12L193.24 165.68L189.68 165.68L189.68 162.12L193.24 162.12ZM193.24 165.68L193.24 169.24L189.68 169.24L189.68 165.68L193.24 165.68ZM193.24 169.24L193.24 172.8L189.68 172.8L189.68 169.24L193.24 169.24ZM193.24 176.36L193.24 179.92L189.68 179.92L189.68 176.36L193.24 176.36ZM193.24 183.48L193.24 187.04L189.68 187.04L189.68 183.48L193.24 183.48ZM193.24 190.6L193.24 194.16L189.68 194.16L189.68 190.6L193.24 190.6ZM193.24 194.16L193.24 197.72L189.68 197.72L189.68 194.16L193.24 194.16ZM193.24 208.4L193.24 211.96L189.68 211.96L189.68 208.4L193.24 208.4ZM193.24 215.52L193.24 219.08L189.68 219.08L189.68 215.52L193.24 215.52ZM193.24 219.08L193.24 222.64L189.68 222.64L189.68 219.08L193.24 219.08ZM193.24 226.2L193.24 229.76L189.68 229.76L189.68 226.2L193.24 226.2ZM193.24 229.76L193.24 233.32L189.68 233.32L189.68 229.76L193.24 229.76ZM193.24 233.32L193.24 236.88L189.68 236.88L189.68 233.32L193.24 233.32ZM193.24 236.88L193.24 240.44L189.68 240.44L189.68 236.88L193.24 236.88ZM193.24 240.44L193.24 244L189.68 244L189.68 240.44L193.24 240.44ZM189.68 155L189.68 158.56L186.12 158.56L186.12 155L189.68 155ZM189.68 162.12L189.68 165.68L186.12 165.68L186.12 162.12L189.68 162.12ZM189.68 165.68L189.68 169.24L186.12 169.24L186.12 165.68L189.68 165.68ZM189.68 169.24L189.68 172.8L186.12 172.8L186.12 169.24L189.68 169.24ZM189.68 176.36L189.68 179.92L186.12 179.92L186.12 176.36L189.68 176.36ZM189.68 183.48L189.68 187.04L186.12 187.04L186.12 183.48L189.68 183.48ZM189.68 190.6L189.68 194.16L186.12 194.16L186.12 190.6L189.68 190.6ZM189.68 197.72L189.68 201.28L186.12 201.28L186.12 197.72L189.68 197.72ZM189.68 229.76L189.68 233.32L186.12 233.32L186.12 229.76L189.68 229.76ZM189.68 233.32L189.68 236.88L186.12 236.88L186.12 233.32L189.68 233.32ZM189.68 240.44L189.68 244L186.12 244L186.12 240.44L189.68 240.44ZM186.12 155L186.12 158.56L182.56 158.56L182.56 155L186.12 155ZM186.12 176.36L186.12 179.92L182.56 179.92L182.56 176.36L186.12 176.36ZM186.12 183.48L186.12 187.04L182.56 187.04L182.56 183.48L186.12 183.48ZM186.12 187.04L186.12 190.6L182.56 190.6L182.56 187.04L186.12 187.04ZM186.12 190.6L186.12 194.16L182.56 194.16L182.56 190.6L186.12 190.6ZM186.12 194.16L186.12 197.72L182.56 197.72L182.56 194.16L186.12 194.16ZM186.12 197.72L186.12 201.28L182.56 201.28L182.56 197.72L186.12 197.72ZM186.12 204.84L186.12 208.4L182.56 208.4L182.56 204.84L186.12 204.84ZM186.12 211.96L186.12 215.52L182.56 215.52L182.56 211.96L186.12 211.96ZM186.12 222.64L186.12 226.2L182.56 226.2L182.56 222.64L186.12 222.64ZM186.12 226.2L186.12 229.76L182.56 229.76L182.56 226.2L186.12 226.2ZM186.12 229.76L186.12 233.32L182.56 233.32L182.56 229.76L186.12 229.76ZM186.12 240.44L186.12 244L182.56 244L182.56 240.44L186.12 240.44ZM182.56 155L182.56 158.56L179 158.56L179 155L182.56 155ZM182.56 158.56L182.56 162.12L179 162.12L179 158.56L182.56 158.56ZM182.56 162.12L182.56 165.68L179 165.68L179 162.12L182.56 162.12ZM182.56 165.68L182.56 169.24L179 169.24L179 165.68L182.56 165.68ZM182.56 169.24L182.56 172.8L179 172.8L179 169.24L182.56 169.24ZM182.56 172.8L182.56 176.36L179 176.36L179 172.8L182.56 172.8ZM182.56 176.36L182.56 179.92L179 179.92L179 176.36L182.56 176.36ZM182.56 183.48L182.56 187.04L179 187.04L179 183.48L182.56 183.48ZM182.56 190.6L182.56 194.16L179 194.16L179 190.6L182.56 190.6ZM182.56 201.28L182.56 204.84L179 204.84L179 201.28L182.56 201.28ZM182.56 204.84L182.56 208.4L179 208.4L179 204.84L182.56 204.84ZM182.56 215.52L182.56 219.08L179 219.08L179 215.52L182.56 215.52ZM182.56 219.08L182.56 222.64L179 222.64L179 219.08L182.56 219.08ZM182.56 222.64L182.56 226.2L179 226.2L179 222.64L182.56 222.64ZM182.56 226.2L182.56 229.76L179 229.76L179 226.2L182.56 226.2ZM182.56 229.76L182.56 233.32L179 233.32L179 229.76L182.56 229.76ZM182.56 233.32L182.56 236.88L179 236.88L179 233.32L182.56 233.32ZM182.56 236.88L182.56 240.44L179 240.44L179 236.88L182.56 236.88ZM182.56 240.44L182.56 244L179 244L179 240.44L182.56 240.44Z" fill="black"/>
</svg>
