%TF.GenerationSoftware,KiCad,Pcbnew,6.0.9-1.fc36*%
%TF.CreationDate,2022-11-14T14:18:19-03:00*%
%TF.ProjectId,bs_transceiver,62735f74-7261-46e7-9363-65697665722e,Rev 2*%
%TF.SameCoordinates,Original*%
%TF.FileFunction,Drillmap*%
%TF.FilePolarity,Positive*%
%FSLAX45Y45*%
G04 Gerber Fmt 4.5, Leading zero omitted, Abs format (unit mm)*
G04 Created by KiCad (PCBNEW 6.0.9-1.fc36) date 2022-11-14 14:18:19*
%MOMM*%
%LPD*%
G01*
G04 APERTURE LIST*
%ADD10C,0.100000*%
%ADD11C,0.200000*%
%ADD12C,0.030000*%
%ADD13C,0.060000*%
%ADD14C,0.150000*%
%ADD15C,0.160000*%
%ADD16C,0.320000*%
G04 APERTURE END LIST*
D10*
X250000Y0D02*
G75*
G03*
X0Y-250000I0J-250000D01*
G01*
X250000Y-6750000D02*
X5250000Y-6750000D01*
X0Y-250000D02*
X2Y-6500000D01*
X5500000Y-250000D02*
G75*
G03*
X5250000Y0I-250000J0D01*
G01*
X2Y-6500000D02*
G75*
G03*
X250000Y-6750000I249999J-1D01*
G01*
X5250000Y-6750000D02*
G75*
G03*
X5500000Y-6500000I0J250000D01*
G01*
X5250000Y0D02*
X250000Y0D01*
X5500000Y-6500000D02*
X5500000Y-250000D01*
D11*
D12*
X401560Y-3218420D02*
X431560Y-3248420D01*
X431560Y-3218420D02*
X401560Y-3248420D01*
X642860Y-1646160D02*
X672860Y-1676160D01*
X672860Y-1646160D02*
X642860Y-1676160D01*
X828280Y-6418820D02*
X858280Y-6448820D01*
X858280Y-6418820D02*
X828280Y-6448820D01*
X1237220Y-6172440D02*
X1267220Y-6202440D01*
X1267220Y-6172440D02*
X1237220Y-6202440D01*
X1237220Y-6242390D02*
X1267220Y-6272390D01*
X1267220Y-6242390D02*
X1237220Y-6272390D01*
X1491220Y-4706860D02*
X1521220Y-4736860D01*
X1521220Y-4706860D02*
X1491220Y-4736860D01*
X1646160Y-1549640D02*
X1676160Y-1579640D01*
X1676160Y-1549640D02*
X1646160Y-1579640D01*
X2004300Y-3220960D02*
X2034300Y-3250960D01*
X2034300Y-3220960D02*
X2004300Y-3250960D01*
X2110980Y-4209020D02*
X2140980Y-4239020D01*
X2140980Y-4209020D02*
X2110980Y-4239020D01*
X2248140Y-5768580D02*
X2278140Y-5798580D01*
X2278140Y-5768580D02*
X2248140Y-5798580D01*
X2273540Y-5954000D02*
X2303540Y-5984000D01*
X2303540Y-5954000D02*
X2273540Y-5984000D01*
X2471660Y-6114990D02*
X2501660Y-6144990D01*
X2501660Y-6114990D02*
X2471660Y-6144990D01*
X2725760Y-6568580D02*
X2755760Y-6598580D01*
X2755760Y-6568580D02*
X2725760Y-6598580D01*
X2801860Y-4546840D02*
X2831860Y-4576840D01*
X2831860Y-4546840D02*
X2801860Y-4576840D01*
X2923780Y-2547860D02*
X2953780Y-2577860D01*
X2953780Y-2547860D02*
X2923780Y-2577860D01*
X2923780Y-2784080D02*
X2953780Y-2814080D01*
X2953780Y-2784080D02*
X2923780Y-2814080D01*
X3025380Y-2179560D02*
X3055380Y-2209560D01*
X3055380Y-2179560D02*
X3025380Y-2209560D01*
X3073640Y-4005820D02*
X3103640Y-4035820D01*
X3103640Y-4005820D02*
X3073640Y-4035820D01*
X3106660Y-5711130D02*
X3136660Y-5741130D01*
X3136660Y-5711130D02*
X3106660Y-5741130D01*
X3223500Y-5768580D02*
X3253500Y-5798580D01*
X3253500Y-5768580D02*
X3223500Y-5798580D01*
X3358120Y-6114020D02*
X3388120Y-6144020D01*
X3388120Y-6114020D02*
X3358120Y-6144020D01*
X3612120Y-3314940D02*
X3642120Y-3344940D01*
X3642120Y-3314940D02*
X3612120Y-3344940D01*
X3614660Y-4539220D02*
X3644660Y-4569220D01*
X3644660Y-4539220D02*
X3614660Y-4569220D01*
X3614660Y-6241020D02*
X3644660Y-6271020D01*
X3644660Y-6241020D02*
X3614660Y-6271020D01*
X3689678Y-892176D02*
X3719678Y-922176D01*
X3719678Y-892176D02*
X3689678Y-922176D01*
X3741643Y-5550157D02*
X3771643Y-5580157D01*
X3771643Y-5550157D02*
X3741643Y-5580157D01*
X3746584Y-1801256D02*
X3776584Y-1831256D01*
X3776584Y-1801256D02*
X3746584Y-1831256D01*
X3802620Y-2984740D02*
X3832620Y-3014740D01*
X3832620Y-2984740D02*
X3802620Y-3014740D01*
X3837150Y-889240D02*
X3867150Y-919240D01*
X3867150Y-889240D02*
X3837150Y-919240D01*
X3868660Y-5758420D02*
X3898660Y-5788420D01*
X3898660Y-5758420D02*
X3868660Y-5788420D01*
X3906760Y-2956800D02*
X3936760Y-2986800D01*
X3936760Y-2956800D02*
X3906760Y-2986800D01*
X3957560Y-4744960D02*
X3987560Y-4774960D01*
X3987560Y-4744960D02*
X3957560Y-4774960D01*
X3995660Y-6172440D02*
X4025660Y-6202440D01*
X4025660Y-6172440D02*
X3995660Y-6202440D01*
X4112500Y-2677400D02*
X4142500Y-2707400D01*
X4142500Y-2677400D02*
X4112500Y-2707400D01*
X4122660Y-4059600D02*
X4152660Y-4089600D01*
X4152660Y-4059600D02*
X4122660Y-4089600D01*
X4122660Y-6147040D02*
X4152660Y-6177040D01*
X4152660Y-6147040D02*
X4122660Y-6177040D01*
X4239500Y-2217660D02*
X4269500Y-2247660D01*
X4269500Y-2217660D02*
X4239500Y-2247660D01*
X4239500Y-2677400D02*
X4269500Y-2707400D01*
X4269500Y-2677400D02*
X4239500Y-2707400D01*
X4254740Y-3027920D02*
X4284740Y-3057920D01*
X4284740Y-3027920D02*
X4254740Y-3057920D01*
X4320780Y-5603480D02*
X4350780Y-5633480D01*
X4350780Y-5603480D02*
X4320780Y-5633480D01*
X4351260Y-1628380D02*
X4381260Y-1658380D01*
X4381260Y-1628380D02*
X4351260Y-1658380D01*
X4361420Y-2225280D02*
X4391420Y-2255280D01*
X4391420Y-2225280D02*
X4361420Y-2255280D01*
X4615420Y-2751060D02*
X4645420Y-2781060D01*
X4645420Y-2751060D02*
X4615420Y-2781060D01*
X4943080Y-1425180D02*
X4973080Y-1455180D01*
X4973080Y-1425180D02*
X4943080Y-1455180D01*
X5176760Y-3157460D02*
X5206760Y-3187460D01*
X5206760Y-3157460D02*
X5176760Y-3187460D01*
D13*
X3382600Y-162180D02*
G75*
G03*
X3382600Y-162180I-30000J0D01*
G01*
D11*
X3382600Y-192180D02*
X3382600Y-132180D01*
X3322600Y-192180D02*
X3322600Y-132180D01*
X3382600Y-132180D02*
G75*
G03*
X3322600Y-132180I-30000J0D01*
G01*
X3322600Y-192180D02*
G75*
G03*
X3382600Y-192180I30000J0D01*
G01*
D13*
X3382600Y-580180D02*
G75*
G03*
X3382600Y-580180I-30000J0D01*
G01*
D11*
X3382600Y-635180D02*
X3382600Y-525180D01*
X3322600Y-635180D02*
X3322600Y-525180D01*
X3382600Y-525180D02*
G75*
G03*
X3322600Y-525180I-30000J0D01*
G01*
X3322600Y-635180D02*
G75*
G03*
X3382600Y-635180I30000J0D01*
G01*
D13*
X4246600Y-162180D02*
G75*
G03*
X4246600Y-162180I-30000J0D01*
G01*
D11*
X4246600Y-192180D02*
X4246600Y-132180D01*
X4186600Y-192180D02*
X4186600Y-132180D01*
X4246600Y-132180D02*
G75*
G03*
X4186600Y-132180I-30000J0D01*
G01*
X4186600Y-192180D02*
G75*
G03*
X4246600Y-192180I30000J0D01*
G01*
D13*
X4246600Y-580180D02*
G75*
G03*
X4246600Y-580180I-30000J0D01*
G01*
D11*
X4246600Y-635180D02*
X4246600Y-525180D01*
X4186600Y-635180D02*
X4186600Y-525180D01*
X4246600Y-525180D02*
G75*
G03*
X4186600Y-525180I-30000J0D01*
G01*
X4186600Y-635180D02*
G75*
G03*
X4246600Y-635180I30000J0D01*
G01*
D10*
X888000Y-5797080D02*
X888000Y-5897080D01*
X838000Y-5847080D02*
X938000Y-5847080D01*
X1142000Y-5797080D02*
X1142000Y-5897080D01*
X1092000Y-5847080D02*
X1192000Y-5847080D01*
X1396000Y-5797080D02*
X1396000Y-5897080D01*
X1346000Y-5847080D02*
X1446000Y-5847080D01*
X1650000Y-5797080D02*
X1650000Y-5897080D01*
X1600000Y-5847080D02*
X1700000Y-5847080D01*
D14*
X2156154Y-507693D02*
X2156154Y-401626D01*
X2050086Y-401626D01*
X2050086Y-507693D01*
X2156154Y-507693D01*
D15*
X1849120Y-280660D02*
X1929120Y-200660D01*
X1849120Y-120660D01*
X1769120Y-200660D01*
X1849120Y-280660D01*
X1849120Y-788660D02*
X1929120Y-708660D01*
X1849120Y-628660D01*
X1769120Y-708660D01*
X1849120Y-788660D01*
X2357120Y-280660D02*
X2437120Y-200660D01*
X2357120Y-120660D01*
X2277120Y-200660D01*
X2357120Y-280660D01*
X2357120Y-788660D02*
X2437120Y-708660D01*
X2357120Y-628660D01*
X2277120Y-708660D01*
X2357120Y-788660D01*
D16*
X190000Y-190000D02*
X510000Y-510000D01*
X510000Y-190000D02*
X190000Y-510000D01*
X510000Y-350000D02*
G75*
G03*
X510000Y-350000I-160000J0D01*
G01*
X190000Y-6240000D02*
X510000Y-6560000D01*
X510000Y-6240000D02*
X190000Y-6560000D01*
X510000Y-6400000D02*
G75*
G03*
X510000Y-6400000I-160000J0D01*
G01*
X4990000Y-190000D02*
X5310000Y-510000D01*
X5310000Y-190000D02*
X4990000Y-510000D01*
X5310000Y-350000D02*
G75*
G03*
X5310000Y-350000I-160000J0D01*
G01*
D11*
X252619Y-7065476D02*
X252619Y-6865476D01*
X300238Y-6865476D01*
X328810Y-6875000D01*
X347857Y-6894048D01*
X357381Y-6913095D01*
X366905Y-6951190D01*
X366905Y-6979762D01*
X357381Y-7017857D01*
X347857Y-7036905D01*
X328810Y-7055952D01*
X300238Y-7065476D01*
X252619Y-7065476D01*
X452619Y-7065476D02*
X452619Y-6932143D01*
X452619Y-6970238D02*
X462143Y-6951190D01*
X471667Y-6941667D01*
X490714Y-6932143D01*
X509762Y-6932143D01*
X576429Y-7065476D02*
X576429Y-6932143D01*
X576429Y-6865476D02*
X566905Y-6875000D01*
X576429Y-6884524D01*
X585952Y-6875000D01*
X576429Y-6865476D01*
X576429Y-6884524D01*
X700238Y-7065476D02*
X681190Y-7055952D01*
X671667Y-7036905D01*
X671667Y-6865476D01*
X805000Y-7065476D02*
X785952Y-7055952D01*
X776428Y-7036905D01*
X776428Y-6865476D01*
X1033571Y-7065476D02*
X1033571Y-6865476D01*
X1100238Y-7008333D01*
X1166905Y-6865476D01*
X1166905Y-7065476D01*
X1347857Y-7065476D02*
X1347857Y-6960714D01*
X1338333Y-6941667D01*
X1319286Y-6932143D01*
X1281190Y-6932143D01*
X1262143Y-6941667D01*
X1347857Y-7055952D02*
X1328810Y-7065476D01*
X1281190Y-7065476D01*
X1262143Y-7055952D01*
X1252619Y-7036905D01*
X1252619Y-7017857D01*
X1262143Y-6998809D01*
X1281190Y-6989286D01*
X1328810Y-6989286D01*
X1347857Y-6979762D01*
X1443095Y-6932143D02*
X1443095Y-7132143D01*
X1443095Y-6941667D02*
X1462143Y-6932143D01*
X1500238Y-6932143D01*
X1519286Y-6941667D01*
X1528809Y-6951190D01*
X1538333Y-6970238D01*
X1538333Y-7027381D01*
X1528809Y-7046428D01*
X1519286Y-7055952D01*
X1500238Y-7065476D01*
X1462143Y-7065476D01*
X1443095Y-7055952D01*
X1624048Y-7046428D02*
X1633571Y-7055952D01*
X1624048Y-7065476D01*
X1614524Y-7055952D01*
X1624048Y-7046428D01*
X1624048Y-7065476D01*
X1624048Y-6941667D02*
X1633571Y-6951190D01*
X1624048Y-6960714D01*
X1614524Y-6951190D01*
X1624048Y-6941667D01*
X1624048Y-6960714D01*
D12*
X-35000Y-7380000D02*
X-5000Y-7410000D01*
X-5000Y-7380000D02*
X-35000Y-7410000D01*
D11*
X290714Y-7285476D02*
X309762Y-7285476D01*
X328810Y-7295000D01*
X338333Y-7304524D01*
X347857Y-7323571D01*
X357381Y-7361667D01*
X357381Y-7409286D01*
X347857Y-7447381D01*
X338333Y-7466428D01*
X328810Y-7475952D01*
X309762Y-7485476D01*
X290714Y-7485476D01*
X271667Y-7475952D01*
X262143Y-7466428D01*
X252619Y-7447381D01*
X243095Y-7409286D01*
X243095Y-7361667D01*
X252619Y-7323571D01*
X262143Y-7304524D01*
X271667Y-7295000D01*
X290714Y-7285476D01*
X443095Y-7466428D02*
X452619Y-7475952D01*
X443095Y-7485476D01*
X433571Y-7475952D01*
X443095Y-7466428D01*
X443095Y-7485476D01*
X519286Y-7285476D02*
X643095Y-7285476D01*
X576429Y-7361667D01*
X605000Y-7361667D01*
X624048Y-7371190D01*
X633571Y-7380714D01*
X643095Y-7399762D01*
X643095Y-7447381D01*
X633571Y-7466428D01*
X624048Y-7475952D01*
X605000Y-7485476D01*
X547857Y-7485476D01*
X528810Y-7475952D01*
X519286Y-7466428D01*
X766905Y-7285476D02*
X785952Y-7285476D01*
X805000Y-7295000D01*
X814524Y-7304524D01*
X824048Y-7323571D01*
X833571Y-7361667D01*
X833571Y-7409286D01*
X824048Y-7447381D01*
X814524Y-7466428D01*
X805000Y-7475952D01*
X785952Y-7485476D01*
X766905Y-7485476D01*
X747857Y-7475952D01*
X738333Y-7466428D01*
X728809Y-7447381D01*
X719286Y-7409286D01*
X719286Y-7361667D01*
X728809Y-7323571D01*
X738333Y-7304524D01*
X747857Y-7295000D01*
X766905Y-7285476D01*
X957381Y-7285476D02*
X976428Y-7285476D01*
X995476Y-7295000D01*
X1005000Y-7304524D01*
X1014524Y-7323571D01*
X1024048Y-7361667D01*
X1024048Y-7409286D01*
X1014524Y-7447381D01*
X1005000Y-7466428D01*
X995476Y-7475952D01*
X976428Y-7485476D01*
X957381Y-7485476D01*
X938333Y-7475952D01*
X928809Y-7466428D01*
X919286Y-7447381D01*
X909762Y-7409286D01*
X909762Y-7361667D01*
X919286Y-7323571D01*
X928809Y-7304524D01*
X938333Y-7295000D01*
X957381Y-7285476D01*
X1109762Y-7485476D02*
X1109762Y-7352143D01*
X1109762Y-7371190D02*
X1119286Y-7361667D01*
X1138333Y-7352143D01*
X1166905Y-7352143D01*
X1185952Y-7361667D01*
X1195476Y-7380714D01*
X1195476Y-7485476D01*
X1195476Y-7380714D02*
X1205000Y-7361667D01*
X1224048Y-7352143D01*
X1252619Y-7352143D01*
X1271667Y-7361667D01*
X1281190Y-7380714D01*
X1281190Y-7485476D01*
X1376429Y-7485476D02*
X1376429Y-7352143D01*
X1376429Y-7371190D02*
X1385952Y-7361667D01*
X1405000Y-7352143D01*
X1433571Y-7352143D01*
X1452619Y-7361667D01*
X1462143Y-7380714D01*
X1462143Y-7485476D01*
X1462143Y-7380714D02*
X1471667Y-7361667D01*
X1490714Y-7352143D01*
X1519286Y-7352143D01*
X1538333Y-7361667D01*
X1547857Y-7380714D01*
X1547857Y-7485476D01*
X1938333Y-7275952D02*
X1766905Y-7533095D01*
X2195476Y-7285476D02*
X2214524Y-7285476D01*
X2233571Y-7295000D01*
X2243095Y-7304524D01*
X2252619Y-7323571D01*
X2262143Y-7361667D01*
X2262143Y-7409286D01*
X2252619Y-7447381D01*
X2243095Y-7466428D01*
X2233571Y-7475952D01*
X2214524Y-7485476D01*
X2195476Y-7485476D01*
X2176429Y-7475952D01*
X2166905Y-7466428D01*
X2157381Y-7447381D01*
X2147857Y-7409286D01*
X2147857Y-7361667D01*
X2157381Y-7323571D01*
X2166905Y-7304524D01*
X2176429Y-7295000D01*
X2195476Y-7285476D01*
X2347857Y-7466428D02*
X2357381Y-7475952D01*
X2347857Y-7485476D01*
X2338333Y-7475952D01*
X2347857Y-7466428D01*
X2347857Y-7485476D01*
X2481190Y-7285476D02*
X2500238Y-7285476D01*
X2519286Y-7295000D01*
X2528810Y-7304524D01*
X2538333Y-7323571D01*
X2547857Y-7361667D01*
X2547857Y-7409286D01*
X2538333Y-7447381D01*
X2528810Y-7466428D01*
X2519286Y-7475952D01*
X2500238Y-7485476D01*
X2481190Y-7485476D01*
X2462143Y-7475952D01*
X2452619Y-7466428D01*
X2443095Y-7447381D01*
X2433571Y-7409286D01*
X2433571Y-7361667D01*
X2443095Y-7323571D01*
X2452619Y-7304524D01*
X2462143Y-7295000D01*
X2481190Y-7285476D01*
X2738333Y-7485476D02*
X2624048Y-7485476D01*
X2681190Y-7485476D02*
X2681190Y-7285476D01*
X2662143Y-7314048D01*
X2643095Y-7333095D01*
X2624048Y-7342619D01*
X2928809Y-7485476D02*
X2814524Y-7485476D01*
X2871667Y-7485476D02*
X2871667Y-7285476D01*
X2852619Y-7314048D01*
X2833571Y-7333095D01*
X2814524Y-7342619D01*
X3043095Y-7371190D02*
X3024048Y-7361667D01*
X3014524Y-7352143D01*
X3005000Y-7333095D01*
X3005000Y-7323571D01*
X3014524Y-7304524D01*
X3024048Y-7295000D01*
X3043095Y-7285476D01*
X3081190Y-7285476D01*
X3100238Y-7295000D01*
X3109762Y-7304524D01*
X3119286Y-7323571D01*
X3119286Y-7333095D01*
X3109762Y-7352143D01*
X3100238Y-7361667D01*
X3081190Y-7371190D01*
X3043095Y-7371190D01*
X3024048Y-7380714D01*
X3014524Y-7390238D01*
X3005000Y-7409286D01*
X3005000Y-7447381D01*
X3014524Y-7466428D01*
X3024048Y-7475952D01*
X3043095Y-7485476D01*
X3081190Y-7485476D01*
X3100238Y-7475952D01*
X3109762Y-7466428D01*
X3119286Y-7447381D01*
X3119286Y-7409286D01*
X3109762Y-7390238D01*
X3100238Y-7380714D01*
X3081190Y-7371190D01*
X3195476Y-7285476D02*
X3195476Y-7323571D01*
X3271667Y-7285476D02*
X3271667Y-7323571D01*
X3566905Y-7561667D02*
X3557381Y-7552143D01*
X3538333Y-7523571D01*
X3528809Y-7504524D01*
X3519286Y-7475952D01*
X3509762Y-7428333D01*
X3509762Y-7390238D01*
X3519286Y-7342619D01*
X3528809Y-7314048D01*
X3538333Y-7295000D01*
X3557381Y-7266428D01*
X3566905Y-7256905D01*
X3728809Y-7352143D02*
X3728809Y-7485476D01*
X3681190Y-7275952D02*
X3633571Y-7418809D01*
X3757381Y-7418809D01*
X3928809Y-7285476D02*
X3833571Y-7285476D01*
X3824048Y-7380714D01*
X3833571Y-7371190D01*
X3852619Y-7361667D01*
X3900238Y-7361667D01*
X3919286Y-7371190D01*
X3928809Y-7380714D01*
X3938333Y-7399762D01*
X3938333Y-7447381D01*
X3928809Y-7466428D01*
X3919286Y-7475952D01*
X3900238Y-7485476D01*
X3852619Y-7485476D01*
X3833571Y-7475952D01*
X3824048Y-7466428D01*
X4176428Y-7485476D02*
X4176428Y-7285476D01*
X4262143Y-7485476D02*
X4262143Y-7380714D01*
X4252619Y-7361667D01*
X4233571Y-7352143D01*
X4205000Y-7352143D01*
X4185952Y-7361667D01*
X4176428Y-7371190D01*
X4385952Y-7485476D02*
X4366905Y-7475952D01*
X4357381Y-7466428D01*
X4347857Y-7447381D01*
X4347857Y-7390238D01*
X4357381Y-7371190D01*
X4366905Y-7361667D01*
X4385952Y-7352143D01*
X4414524Y-7352143D01*
X4433571Y-7361667D01*
X4443095Y-7371190D01*
X4452619Y-7390238D01*
X4452619Y-7447381D01*
X4443095Y-7466428D01*
X4433571Y-7475952D01*
X4414524Y-7485476D01*
X4385952Y-7485476D01*
X4566905Y-7485476D02*
X4547857Y-7475952D01*
X4538333Y-7456905D01*
X4538333Y-7285476D01*
X4719286Y-7475952D02*
X4700238Y-7485476D01*
X4662143Y-7485476D01*
X4643095Y-7475952D01*
X4633571Y-7456905D01*
X4633571Y-7380714D01*
X4643095Y-7361667D01*
X4662143Y-7352143D01*
X4700238Y-7352143D01*
X4719286Y-7361667D01*
X4728810Y-7380714D01*
X4728810Y-7399762D01*
X4633571Y-7418809D01*
X4805000Y-7475952D02*
X4824048Y-7485476D01*
X4862143Y-7485476D01*
X4881190Y-7475952D01*
X4890714Y-7456905D01*
X4890714Y-7447381D01*
X4881190Y-7428333D01*
X4862143Y-7418809D01*
X4833571Y-7418809D01*
X4814524Y-7409286D01*
X4805000Y-7390238D01*
X4805000Y-7380714D01*
X4814524Y-7361667D01*
X4833571Y-7352143D01*
X4862143Y-7352143D01*
X4881190Y-7361667D01*
X4957381Y-7561667D02*
X4966905Y-7552143D01*
X4985952Y-7523571D01*
X4995476Y-7504524D01*
X5005000Y-7475952D01*
X5014524Y-7428333D01*
X5014524Y-7390238D01*
X5005000Y-7342619D01*
X4995476Y-7314048D01*
X4985952Y-7295000D01*
X4966905Y-7266428D01*
X4957381Y-7256905D01*
D13*
X-5000Y-7659000D02*
G75*
G03*
X-5000Y-7659000I-30000J0D01*
G01*
D11*
X290714Y-7549476D02*
X309762Y-7549476D01*
X328810Y-7559000D01*
X338333Y-7568524D01*
X347857Y-7587571D01*
X357381Y-7625667D01*
X357381Y-7673286D01*
X347857Y-7711381D01*
X338333Y-7730428D01*
X328810Y-7739952D01*
X309762Y-7749476D01*
X290714Y-7749476D01*
X271667Y-7739952D01*
X262143Y-7730428D01*
X252619Y-7711381D01*
X243095Y-7673286D01*
X243095Y-7625667D01*
X252619Y-7587571D01*
X262143Y-7568524D01*
X271667Y-7559000D01*
X290714Y-7549476D01*
X443095Y-7730428D02*
X452619Y-7739952D01*
X443095Y-7749476D01*
X433571Y-7739952D01*
X443095Y-7730428D01*
X443095Y-7749476D01*
X624048Y-7549476D02*
X585952Y-7549476D01*
X566905Y-7559000D01*
X557381Y-7568524D01*
X538333Y-7597095D01*
X528810Y-7635190D01*
X528810Y-7711381D01*
X538333Y-7730428D01*
X547857Y-7739952D01*
X566905Y-7749476D01*
X605000Y-7749476D01*
X624048Y-7739952D01*
X633571Y-7730428D01*
X643095Y-7711381D01*
X643095Y-7663762D01*
X633571Y-7644714D01*
X624048Y-7635190D01*
X605000Y-7625667D01*
X566905Y-7625667D01*
X547857Y-7635190D01*
X538333Y-7644714D01*
X528810Y-7663762D01*
X766905Y-7549476D02*
X785952Y-7549476D01*
X805000Y-7559000D01*
X814524Y-7568524D01*
X824048Y-7587571D01*
X833571Y-7625667D01*
X833571Y-7673286D01*
X824048Y-7711381D01*
X814524Y-7730428D01*
X805000Y-7739952D01*
X785952Y-7749476D01*
X766905Y-7749476D01*
X747857Y-7739952D01*
X738333Y-7730428D01*
X728809Y-7711381D01*
X719286Y-7673286D01*
X719286Y-7625667D01*
X728809Y-7587571D01*
X738333Y-7568524D01*
X747857Y-7559000D01*
X766905Y-7549476D01*
X957381Y-7549476D02*
X976428Y-7549476D01*
X995476Y-7559000D01*
X1005000Y-7568524D01*
X1014524Y-7587571D01*
X1024048Y-7625667D01*
X1024048Y-7673286D01*
X1014524Y-7711381D01*
X1005000Y-7730428D01*
X995476Y-7739952D01*
X976428Y-7749476D01*
X957381Y-7749476D01*
X938333Y-7739952D01*
X928809Y-7730428D01*
X919286Y-7711381D01*
X909762Y-7673286D01*
X909762Y-7625667D01*
X919286Y-7587571D01*
X928809Y-7568524D01*
X938333Y-7559000D01*
X957381Y-7549476D01*
X1109762Y-7749476D02*
X1109762Y-7616143D01*
X1109762Y-7635190D02*
X1119286Y-7625667D01*
X1138333Y-7616143D01*
X1166905Y-7616143D01*
X1185952Y-7625667D01*
X1195476Y-7644714D01*
X1195476Y-7749476D01*
X1195476Y-7644714D02*
X1205000Y-7625667D01*
X1224048Y-7616143D01*
X1252619Y-7616143D01*
X1271667Y-7625667D01*
X1281190Y-7644714D01*
X1281190Y-7749476D01*
X1376429Y-7749476D02*
X1376429Y-7616143D01*
X1376429Y-7635190D02*
X1385952Y-7625667D01*
X1405000Y-7616143D01*
X1433571Y-7616143D01*
X1452619Y-7625667D01*
X1462143Y-7644714D01*
X1462143Y-7749476D01*
X1462143Y-7644714D02*
X1471667Y-7625667D01*
X1490714Y-7616143D01*
X1519286Y-7616143D01*
X1538333Y-7625667D01*
X1547857Y-7644714D01*
X1547857Y-7749476D01*
X1938333Y-7539952D02*
X1766905Y-7797095D01*
X2195476Y-7549476D02*
X2214524Y-7549476D01*
X2233571Y-7559000D01*
X2243095Y-7568524D01*
X2252619Y-7587571D01*
X2262143Y-7625667D01*
X2262143Y-7673286D01*
X2252619Y-7711381D01*
X2243095Y-7730428D01*
X2233571Y-7739952D01*
X2214524Y-7749476D01*
X2195476Y-7749476D01*
X2176429Y-7739952D01*
X2166905Y-7730428D01*
X2157381Y-7711381D01*
X2147857Y-7673286D01*
X2147857Y-7625667D01*
X2157381Y-7587571D01*
X2166905Y-7568524D01*
X2176429Y-7559000D01*
X2195476Y-7549476D01*
X2347857Y-7730428D02*
X2357381Y-7739952D01*
X2347857Y-7749476D01*
X2338333Y-7739952D01*
X2347857Y-7730428D01*
X2347857Y-7749476D01*
X2481190Y-7549476D02*
X2500238Y-7549476D01*
X2519286Y-7559000D01*
X2528810Y-7568524D01*
X2538333Y-7587571D01*
X2547857Y-7625667D01*
X2547857Y-7673286D01*
X2538333Y-7711381D01*
X2528810Y-7730428D01*
X2519286Y-7739952D01*
X2500238Y-7749476D01*
X2481190Y-7749476D01*
X2462143Y-7739952D01*
X2452619Y-7730428D01*
X2443095Y-7711381D01*
X2433571Y-7673286D01*
X2433571Y-7625667D01*
X2443095Y-7587571D01*
X2452619Y-7568524D01*
X2462143Y-7559000D01*
X2481190Y-7549476D01*
X2624048Y-7568524D02*
X2633571Y-7559000D01*
X2652619Y-7549476D01*
X2700238Y-7549476D01*
X2719286Y-7559000D01*
X2728810Y-7568524D01*
X2738333Y-7587571D01*
X2738333Y-7606619D01*
X2728810Y-7635190D01*
X2614524Y-7749476D01*
X2738333Y-7749476D01*
X2805000Y-7549476D02*
X2928809Y-7549476D01*
X2862143Y-7625667D01*
X2890714Y-7625667D01*
X2909762Y-7635190D01*
X2919286Y-7644714D01*
X2928809Y-7663762D01*
X2928809Y-7711381D01*
X2919286Y-7730428D01*
X2909762Y-7739952D01*
X2890714Y-7749476D01*
X2833571Y-7749476D01*
X2814524Y-7739952D01*
X2805000Y-7730428D01*
X3100238Y-7549476D02*
X3062143Y-7549476D01*
X3043095Y-7559000D01*
X3033571Y-7568524D01*
X3014524Y-7597095D01*
X3005000Y-7635190D01*
X3005000Y-7711381D01*
X3014524Y-7730428D01*
X3024048Y-7739952D01*
X3043095Y-7749476D01*
X3081190Y-7749476D01*
X3100238Y-7739952D01*
X3109762Y-7730428D01*
X3119286Y-7711381D01*
X3119286Y-7663762D01*
X3109762Y-7644714D01*
X3100238Y-7635190D01*
X3081190Y-7625667D01*
X3043095Y-7625667D01*
X3024048Y-7635190D01*
X3014524Y-7644714D01*
X3005000Y-7663762D01*
X3195476Y-7549476D02*
X3195476Y-7587571D01*
X3271667Y-7549476D02*
X3271667Y-7587571D01*
X3566905Y-7825667D02*
X3557381Y-7816143D01*
X3538333Y-7787571D01*
X3528809Y-7768524D01*
X3519286Y-7739952D01*
X3509762Y-7692333D01*
X3509762Y-7654238D01*
X3519286Y-7606619D01*
X3528809Y-7578048D01*
X3538333Y-7559000D01*
X3557381Y-7530428D01*
X3566905Y-7520905D01*
X3681190Y-7549476D02*
X3700238Y-7549476D01*
X3719286Y-7559000D01*
X3728809Y-7568524D01*
X3738333Y-7587571D01*
X3747857Y-7625667D01*
X3747857Y-7673286D01*
X3738333Y-7711381D01*
X3728809Y-7730428D01*
X3719286Y-7739952D01*
X3700238Y-7749476D01*
X3681190Y-7749476D01*
X3662143Y-7739952D01*
X3652619Y-7730428D01*
X3643095Y-7711381D01*
X3633571Y-7673286D01*
X3633571Y-7625667D01*
X3643095Y-7587571D01*
X3652619Y-7568524D01*
X3662143Y-7559000D01*
X3681190Y-7549476D01*
X3985952Y-7749476D02*
X3985952Y-7549476D01*
X4071667Y-7749476D02*
X4071667Y-7644714D01*
X4062143Y-7625667D01*
X4043095Y-7616143D01*
X4014524Y-7616143D01*
X3995476Y-7625667D01*
X3985952Y-7635190D01*
X4195476Y-7749476D02*
X4176428Y-7739952D01*
X4166905Y-7730428D01*
X4157381Y-7711381D01*
X4157381Y-7654238D01*
X4166905Y-7635190D01*
X4176428Y-7625667D01*
X4195476Y-7616143D01*
X4224048Y-7616143D01*
X4243095Y-7625667D01*
X4252619Y-7635190D01*
X4262143Y-7654238D01*
X4262143Y-7711381D01*
X4252619Y-7730428D01*
X4243095Y-7739952D01*
X4224048Y-7749476D01*
X4195476Y-7749476D01*
X4376429Y-7749476D02*
X4357381Y-7739952D01*
X4347857Y-7720905D01*
X4347857Y-7549476D01*
X4528810Y-7739952D02*
X4509762Y-7749476D01*
X4471667Y-7749476D01*
X4452619Y-7739952D01*
X4443095Y-7720905D01*
X4443095Y-7644714D01*
X4452619Y-7625667D01*
X4471667Y-7616143D01*
X4509762Y-7616143D01*
X4528810Y-7625667D01*
X4538333Y-7644714D01*
X4538333Y-7663762D01*
X4443095Y-7682809D01*
X4614524Y-7739952D02*
X4633571Y-7749476D01*
X4671667Y-7749476D01*
X4690714Y-7739952D01*
X4700238Y-7720905D01*
X4700238Y-7711381D01*
X4690714Y-7692333D01*
X4671667Y-7682809D01*
X4643095Y-7682809D01*
X4624048Y-7673286D01*
X4614524Y-7654238D01*
X4614524Y-7644714D01*
X4624048Y-7625667D01*
X4643095Y-7616143D01*
X4671667Y-7616143D01*
X4690714Y-7625667D01*
X4938333Y-7673286D02*
X5090714Y-7673286D01*
X5014524Y-7749476D02*
X5014524Y-7597095D01*
X5424048Y-7616143D02*
X5424048Y-7749476D01*
X5376429Y-7539952D02*
X5328810Y-7682809D01*
X5452619Y-7682809D01*
X5671667Y-7739952D02*
X5690714Y-7749476D01*
X5728809Y-7749476D01*
X5747857Y-7739952D01*
X5757381Y-7720905D01*
X5757381Y-7711381D01*
X5747857Y-7692333D01*
X5728809Y-7682809D01*
X5700238Y-7682809D01*
X5681190Y-7673286D01*
X5671667Y-7654238D01*
X5671667Y-7644714D01*
X5681190Y-7625667D01*
X5700238Y-7616143D01*
X5728809Y-7616143D01*
X5747857Y-7625667D01*
X5871667Y-7749476D02*
X5852619Y-7739952D01*
X5843095Y-7720905D01*
X5843095Y-7549476D01*
X5976428Y-7749476D02*
X5957381Y-7739952D01*
X5947857Y-7730428D01*
X5938333Y-7711381D01*
X5938333Y-7654238D01*
X5947857Y-7635190D01*
X5957381Y-7625667D01*
X5976428Y-7616143D01*
X6005000Y-7616143D01*
X6024048Y-7625667D01*
X6033571Y-7635190D01*
X6043095Y-7654238D01*
X6043095Y-7711381D01*
X6033571Y-7730428D01*
X6024048Y-7739952D01*
X6005000Y-7749476D01*
X5976428Y-7749476D01*
X6100238Y-7616143D02*
X6176428Y-7616143D01*
X6128809Y-7549476D02*
X6128809Y-7720905D01*
X6138333Y-7739952D01*
X6157381Y-7749476D01*
X6176428Y-7749476D01*
X6233571Y-7739952D02*
X6252619Y-7749476D01*
X6290714Y-7749476D01*
X6309762Y-7739952D01*
X6319286Y-7720905D01*
X6319286Y-7711381D01*
X6309762Y-7692333D01*
X6290714Y-7682809D01*
X6262143Y-7682809D01*
X6243095Y-7673286D01*
X6233571Y-7654238D01*
X6233571Y-7644714D01*
X6243095Y-7625667D01*
X6262143Y-7616143D01*
X6290714Y-7616143D01*
X6309762Y-7625667D01*
X6385952Y-7825667D02*
X6395476Y-7816143D01*
X6414524Y-7787571D01*
X6424048Y-7768524D01*
X6433571Y-7739952D01*
X6443095Y-7692333D01*
X6443095Y-7654238D01*
X6433571Y-7606619D01*
X6424048Y-7578048D01*
X6414524Y-7559000D01*
X6395476Y-7530428D01*
X6385952Y-7520905D01*
D10*
X-55000Y-7873000D02*
X-55000Y-7973000D01*
X-105000Y-7923000D02*
X-5000Y-7923000D01*
D11*
X357381Y-8013476D02*
X243095Y-8013476D01*
X300238Y-8013476D02*
X300238Y-7813476D01*
X281190Y-7842048D01*
X262143Y-7861095D01*
X243095Y-7870619D01*
X443095Y-7994428D02*
X452619Y-8003952D01*
X443095Y-8013476D01*
X433571Y-8003952D01*
X443095Y-7994428D01*
X443095Y-8013476D01*
X576429Y-7813476D02*
X595476Y-7813476D01*
X614524Y-7823000D01*
X624048Y-7832524D01*
X633571Y-7851571D01*
X643095Y-7889667D01*
X643095Y-7937286D01*
X633571Y-7975381D01*
X624048Y-7994428D01*
X614524Y-8003952D01*
X595476Y-8013476D01*
X576429Y-8013476D01*
X557381Y-8003952D01*
X547857Y-7994428D01*
X538333Y-7975381D01*
X528810Y-7937286D01*
X528810Y-7889667D01*
X538333Y-7851571D01*
X547857Y-7832524D01*
X557381Y-7823000D01*
X576429Y-7813476D01*
X766905Y-7813476D02*
X785952Y-7813476D01*
X805000Y-7823000D01*
X814524Y-7832524D01*
X824048Y-7851571D01*
X833571Y-7889667D01*
X833571Y-7937286D01*
X824048Y-7975381D01*
X814524Y-7994428D01*
X805000Y-8003952D01*
X785952Y-8013476D01*
X766905Y-8013476D01*
X747857Y-8003952D01*
X738333Y-7994428D01*
X728809Y-7975381D01*
X719286Y-7937286D01*
X719286Y-7889667D01*
X728809Y-7851571D01*
X738333Y-7832524D01*
X747857Y-7823000D01*
X766905Y-7813476D01*
X957381Y-7813476D02*
X976428Y-7813476D01*
X995476Y-7823000D01*
X1005000Y-7832524D01*
X1014524Y-7851571D01*
X1024048Y-7889667D01*
X1024048Y-7937286D01*
X1014524Y-7975381D01*
X1005000Y-7994428D01*
X995476Y-8003952D01*
X976428Y-8013476D01*
X957381Y-8013476D01*
X938333Y-8003952D01*
X928809Y-7994428D01*
X919286Y-7975381D01*
X909762Y-7937286D01*
X909762Y-7889667D01*
X919286Y-7851571D01*
X928809Y-7832524D01*
X938333Y-7823000D01*
X957381Y-7813476D01*
X1109762Y-8013476D02*
X1109762Y-7880143D01*
X1109762Y-7899190D02*
X1119286Y-7889667D01*
X1138333Y-7880143D01*
X1166905Y-7880143D01*
X1185952Y-7889667D01*
X1195476Y-7908714D01*
X1195476Y-8013476D01*
X1195476Y-7908714D02*
X1205000Y-7889667D01*
X1224048Y-7880143D01*
X1252619Y-7880143D01*
X1271667Y-7889667D01*
X1281190Y-7908714D01*
X1281190Y-8013476D01*
X1376429Y-8013476D02*
X1376429Y-7880143D01*
X1376429Y-7899190D02*
X1385952Y-7889667D01*
X1405000Y-7880143D01*
X1433571Y-7880143D01*
X1452619Y-7889667D01*
X1462143Y-7908714D01*
X1462143Y-8013476D01*
X1462143Y-7908714D02*
X1471667Y-7889667D01*
X1490714Y-7880143D01*
X1519286Y-7880143D01*
X1538333Y-7889667D01*
X1547857Y-7908714D01*
X1547857Y-8013476D01*
X1938333Y-7803952D02*
X1766905Y-8061095D01*
X2195476Y-7813476D02*
X2214524Y-7813476D01*
X2233571Y-7823000D01*
X2243095Y-7832524D01*
X2252619Y-7851571D01*
X2262143Y-7889667D01*
X2262143Y-7937286D01*
X2252619Y-7975381D01*
X2243095Y-7994428D01*
X2233571Y-8003952D01*
X2214524Y-8013476D01*
X2195476Y-8013476D01*
X2176429Y-8003952D01*
X2166905Y-7994428D01*
X2157381Y-7975381D01*
X2147857Y-7937286D01*
X2147857Y-7889667D01*
X2157381Y-7851571D01*
X2166905Y-7832524D01*
X2176429Y-7823000D01*
X2195476Y-7813476D01*
X2347857Y-7994428D02*
X2357381Y-8003952D01*
X2347857Y-8013476D01*
X2338333Y-8003952D01*
X2347857Y-7994428D01*
X2347857Y-8013476D01*
X2481190Y-7813476D02*
X2500238Y-7813476D01*
X2519286Y-7823000D01*
X2528810Y-7832524D01*
X2538333Y-7851571D01*
X2547857Y-7889667D01*
X2547857Y-7937286D01*
X2538333Y-7975381D01*
X2528810Y-7994428D01*
X2519286Y-8003952D01*
X2500238Y-8013476D01*
X2481190Y-8013476D01*
X2462143Y-8003952D01*
X2452619Y-7994428D01*
X2443095Y-7975381D01*
X2433571Y-7937286D01*
X2433571Y-7889667D01*
X2443095Y-7851571D01*
X2452619Y-7832524D01*
X2462143Y-7823000D01*
X2481190Y-7813476D01*
X2614524Y-7813476D02*
X2738333Y-7813476D01*
X2671667Y-7889667D01*
X2700238Y-7889667D01*
X2719286Y-7899190D01*
X2728810Y-7908714D01*
X2738333Y-7927762D01*
X2738333Y-7975381D01*
X2728810Y-7994428D01*
X2719286Y-8003952D01*
X2700238Y-8013476D01*
X2643095Y-8013476D01*
X2624048Y-8003952D01*
X2614524Y-7994428D01*
X2833571Y-8013476D02*
X2871667Y-8013476D01*
X2890714Y-8003952D01*
X2900238Y-7994428D01*
X2919286Y-7965857D01*
X2928809Y-7927762D01*
X2928809Y-7851571D01*
X2919286Y-7832524D01*
X2909762Y-7823000D01*
X2890714Y-7813476D01*
X2852619Y-7813476D01*
X2833571Y-7823000D01*
X2824048Y-7832524D01*
X2814524Y-7851571D01*
X2814524Y-7899190D01*
X2824048Y-7918238D01*
X2833571Y-7927762D01*
X2852619Y-7937286D01*
X2890714Y-7937286D01*
X2909762Y-7927762D01*
X2919286Y-7918238D01*
X2928809Y-7899190D01*
X3100238Y-7880143D02*
X3100238Y-8013476D01*
X3052619Y-7803952D02*
X3005000Y-7946809D01*
X3128809Y-7946809D01*
X3195476Y-7813476D02*
X3195476Y-7851571D01*
X3271667Y-7813476D02*
X3271667Y-7851571D01*
X3566905Y-8089667D02*
X3557381Y-8080143D01*
X3538333Y-8051571D01*
X3528809Y-8032524D01*
X3519286Y-8003952D01*
X3509762Y-7956333D01*
X3509762Y-7918238D01*
X3519286Y-7870619D01*
X3528809Y-7842048D01*
X3538333Y-7823000D01*
X3557381Y-7794428D01*
X3566905Y-7784905D01*
X3728809Y-7880143D02*
X3728809Y-8013476D01*
X3681190Y-7803952D02*
X3633571Y-7946809D01*
X3757381Y-7946809D01*
X3985952Y-8013476D02*
X3985952Y-7813476D01*
X4071667Y-8013476D02*
X4071667Y-7908714D01*
X4062143Y-7889667D01*
X4043095Y-7880143D01*
X4014524Y-7880143D01*
X3995476Y-7889667D01*
X3985952Y-7899190D01*
X4195476Y-8013476D02*
X4176428Y-8003952D01*
X4166905Y-7994428D01*
X4157381Y-7975381D01*
X4157381Y-7918238D01*
X4166905Y-7899190D01*
X4176428Y-7889667D01*
X4195476Y-7880143D01*
X4224048Y-7880143D01*
X4243095Y-7889667D01*
X4252619Y-7899190D01*
X4262143Y-7918238D01*
X4262143Y-7975381D01*
X4252619Y-7994428D01*
X4243095Y-8003952D01*
X4224048Y-8013476D01*
X4195476Y-8013476D01*
X4376429Y-8013476D02*
X4357381Y-8003952D01*
X4347857Y-7984905D01*
X4347857Y-7813476D01*
X4528810Y-8003952D02*
X4509762Y-8013476D01*
X4471667Y-8013476D01*
X4452619Y-8003952D01*
X4443095Y-7984905D01*
X4443095Y-7908714D01*
X4452619Y-7889667D01*
X4471667Y-7880143D01*
X4509762Y-7880143D01*
X4528810Y-7889667D01*
X4538333Y-7908714D01*
X4538333Y-7927762D01*
X4443095Y-7946809D01*
X4614524Y-8003952D02*
X4633571Y-8013476D01*
X4671667Y-8013476D01*
X4690714Y-8003952D01*
X4700238Y-7984905D01*
X4700238Y-7975381D01*
X4690714Y-7956333D01*
X4671667Y-7946809D01*
X4643095Y-7946809D01*
X4624048Y-7937286D01*
X4614524Y-7918238D01*
X4614524Y-7908714D01*
X4624048Y-7889667D01*
X4643095Y-7880143D01*
X4671667Y-7880143D01*
X4690714Y-7889667D01*
X4766905Y-8089667D02*
X4776429Y-8080143D01*
X4795476Y-8051571D01*
X4805000Y-8032524D01*
X4814524Y-8003952D01*
X4824048Y-7956333D01*
X4824048Y-7918238D01*
X4814524Y-7870619D01*
X4805000Y-7842048D01*
X4795476Y-7823000D01*
X4776429Y-7794428D01*
X4766905Y-7784905D01*
D14*
X-26966Y-8240033D02*
X-26966Y-8133966D01*
X-133034Y-8133966D01*
X-133034Y-8240033D01*
X-26966Y-8240033D01*
D11*
X357381Y-8277476D02*
X243095Y-8277476D01*
X300238Y-8277476D02*
X300238Y-8077476D01*
X281190Y-8106048D01*
X262143Y-8125095D01*
X243095Y-8134619D01*
X443095Y-8258428D02*
X452619Y-8267952D01*
X443095Y-8277476D01*
X433571Y-8267952D01*
X443095Y-8258428D01*
X443095Y-8277476D01*
X633571Y-8077476D02*
X538333Y-8077476D01*
X528810Y-8172714D01*
X538333Y-8163190D01*
X557381Y-8153667D01*
X605000Y-8153667D01*
X624048Y-8163190D01*
X633571Y-8172714D01*
X643095Y-8191762D01*
X643095Y-8239381D01*
X633571Y-8258428D01*
X624048Y-8267952D01*
X605000Y-8277476D01*
X557381Y-8277476D01*
X538333Y-8267952D01*
X528810Y-8258428D01*
X766905Y-8077476D02*
X785952Y-8077476D01*
X805000Y-8087000D01*
X814524Y-8096524D01*
X824048Y-8115571D01*
X833571Y-8153667D01*
X833571Y-8201286D01*
X824048Y-8239381D01*
X814524Y-8258428D01*
X805000Y-8267952D01*
X785952Y-8277476D01*
X766905Y-8277476D01*
X747857Y-8267952D01*
X738333Y-8258428D01*
X728809Y-8239381D01*
X719286Y-8201286D01*
X719286Y-8153667D01*
X728809Y-8115571D01*
X738333Y-8096524D01*
X747857Y-8087000D01*
X766905Y-8077476D01*
X957381Y-8077476D02*
X976428Y-8077476D01*
X995476Y-8087000D01*
X1005000Y-8096524D01*
X1014524Y-8115571D01*
X1024048Y-8153667D01*
X1024048Y-8201286D01*
X1014524Y-8239381D01*
X1005000Y-8258428D01*
X995476Y-8267952D01*
X976428Y-8277476D01*
X957381Y-8277476D01*
X938333Y-8267952D01*
X928809Y-8258428D01*
X919286Y-8239381D01*
X909762Y-8201286D01*
X909762Y-8153667D01*
X919286Y-8115571D01*
X928809Y-8096524D01*
X938333Y-8087000D01*
X957381Y-8077476D01*
X1109762Y-8277476D02*
X1109762Y-8144143D01*
X1109762Y-8163190D02*
X1119286Y-8153667D01*
X1138333Y-8144143D01*
X1166905Y-8144143D01*
X1185952Y-8153667D01*
X1195476Y-8172714D01*
X1195476Y-8277476D01*
X1195476Y-8172714D02*
X1205000Y-8153667D01*
X1224048Y-8144143D01*
X1252619Y-8144143D01*
X1271667Y-8153667D01*
X1281190Y-8172714D01*
X1281190Y-8277476D01*
X1376429Y-8277476D02*
X1376429Y-8144143D01*
X1376429Y-8163190D02*
X1385952Y-8153667D01*
X1405000Y-8144143D01*
X1433571Y-8144143D01*
X1452619Y-8153667D01*
X1462143Y-8172714D01*
X1462143Y-8277476D01*
X1462143Y-8172714D02*
X1471667Y-8153667D01*
X1490714Y-8144143D01*
X1519286Y-8144143D01*
X1538333Y-8153667D01*
X1547857Y-8172714D01*
X1547857Y-8277476D01*
X1938333Y-8067952D02*
X1766905Y-8325095D01*
X2195476Y-8077476D02*
X2214524Y-8077476D01*
X2233571Y-8087000D01*
X2243095Y-8096524D01*
X2252619Y-8115571D01*
X2262143Y-8153667D01*
X2262143Y-8201286D01*
X2252619Y-8239381D01*
X2243095Y-8258428D01*
X2233571Y-8267952D01*
X2214524Y-8277476D01*
X2195476Y-8277476D01*
X2176429Y-8267952D01*
X2166905Y-8258428D01*
X2157381Y-8239381D01*
X2147857Y-8201286D01*
X2147857Y-8153667D01*
X2157381Y-8115571D01*
X2166905Y-8096524D01*
X2176429Y-8087000D01*
X2195476Y-8077476D01*
X2347857Y-8258428D02*
X2357381Y-8267952D01*
X2347857Y-8277476D01*
X2338333Y-8267952D01*
X2347857Y-8258428D01*
X2347857Y-8277476D01*
X2481190Y-8077476D02*
X2500238Y-8077476D01*
X2519286Y-8087000D01*
X2528810Y-8096524D01*
X2538333Y-8115571D01*
X2547857Y-8153667D01*
X2547857Y-8201286D01*
X2538333Y-8239381D01*
X2528810Y-8258428D01*
X2519286Y-8267952D01*
X2500238Y-8277476D01*
X2481190Y-8277476D01*
X2462143Y-8267952D01*
X2452619Y-8258428D01*
X2443095Y-8239381D01*
X2433571Y-8201286D01*
X2433571Y-8153667D01*
X2443095Y-8115571D01*
X2452619Y-8096524D01*
X2462143Y-8087000D01*
X2481190Y-8077476D01*
X2728810Y-8077476D02*
X2633571Y-8077476D01*
X2624048Y-8172714D01*
X2633571Y-8163190D01*
X2652619Y-8153667D01*
X2700238Y-8153667D01*
X2719286Y-8163190D01*
X2728810Y-8172714D01*
X2738333Y-8191762D01*
X2738333Y-8239381D01*
X2728810Y-8258428D01*
X2719286Y-8267952D01*
X2700238Y-8277476D01*
X2652619Y-8277476D01*
X2633571Y-8267952D01*
X2624048Y-8258428D01*
X2833571Y-8277476D02*
X2871667Y-8277476D01*
X2890714Y-8267952D01*
X2900238Y-8258428D01*
X2919286Y-8229857D01*
X2928809Y-8191762D01*
X2928809Y-8115571D01*
X2919286Y-8096524D01*
X2909762Y-8087000D01*
X2890714Y-8077476D01*
X2852619Y-8077476D01*
X2833571Y-8087000D01*
X2824048Y-8096524D01*
X2814524Y-8115571D01*
X2814524Y-8163190D01*
X2824048Y-8182238D01*
X2833571Y-8191762D01*
X2852619Y-8201286D01*
X2890714Y-8201286D01*
X2909762Y-8191762D01*
X2919286Y-8182238D01*
X2928809Y-8163190D01*
X3119286Y-8277476D02*
X3005000Y-8277476D01*
X3062143Y-8277476D02*
X3062143Y-8077476D01*
X3043095Y-8106048D01*
X3024048Y-8125095D01*
X3005000Y-8134619D01*
X3195476Y-8077476D02*
X3195476Y-8115571D01*
X3271667Y-8077476D02*
X3271667Y-8115571D01*
X3566905Y-8353667D02*
X3557381Y-8344143D01*
X3538333Y-8315571D01*
X3528809Y-8296524D01*
X3519286Y-8267952D01*
X3509762Y-8220333D01*
X3509762Y-8182238D01*
X3519286Y-8134619D01*
X3528809Y-8106048D01*
X3538333Y-8087000D01*
X3557381Y-8058428D01*
X3566905Y-8048905D01*
X3747857Y-8277476D02*
X3633571Y-8277476D01*
X3690714Y-8277476D02*
X3690714Y-8077476D01*
X3671667Y-8106048D01*
X3652619Y-8125095D01*
X3633571Y-8134619D01*
X3985952Y-8277476D02*
X3985952Y-8077476D01*
X4071667Y-8277476D02*
X4071667Y-8172714D01*
X4062143Y-8153667D01*
X4043095Y-8144143D01*
X4014524Y-8144143D01*
X3995476Y-8153667D01*
X3985952Y-8163190D01*
X4195476Y-8277476D02*
X4176428Y-8267952D01*
X4166905Y-8258428D01*
X4157381Y-8239381D01*
X4157381Y-8182238D01*
X4166905Y-8163190D01*
X4176428Y-8153667D01*
X4195476Y-8144143D01*
X4224048Y-8144143D01*
X4243095Y-8153667D01*
X4252619Y-8163190D01*
X4262143Y-8182238D01*
X4262143Y-8239381D01*
X4252619Y-8258428D01*
X4243095Y-8267952D01*
X4224048Y-8277476D01*
X4195476Y-8277476D01*
X4376429Y-8277476D02*
X4357381Y-8267952D01*
X4347857Y-8248905D01*
X4347857Y-8077476D01*
X4528810Y-8267952D02*
X4509762Y-8277476D01*
X4471667Y-8277476D01*
X4452619Y-8267952D01*
X4443095Y-8248905D01*
X4443095Y-8172714D01*
X4452619Y-8153667D01*
X4471667Y-8144143D01*
X4509762Y-8144143D01*
X4528810Y-8153667D01*
X4538333Y-8172714D01*
X4538333Y-8191762D01*
X4443095Y-8210809D01*
X4605000Y-8353667D02*
X4614524Y-8344143D01*
X4633571Y-8315571D01*
X4643095Y-8296524D01*
X4652619Y-8267952D01*
X4662143Y-8220333D01*
X4662143Y-8182238D01*
X4652619Y-8134619D01*
X4643095Y-8106048D01*
X4633571Y-8087000D01*
X4614524Y-8058428D01*
X4605000Y-8048905D01*
D15*
X-85000Y-8537000D02*
X-5000Y-8457000D01*
X-85000Y-8377000D01*
X-165000Y-8457000D01*
X-85000Y-8537000D01*
D11*
X357381Y-8547476D02*
X243095Y-8547476D01*
X300238Y-8547476D02*
X300238Y-8347476D01*
X281190Y-8376048D01*
X262143Y-8395095D01*
X243095Y-8404619D01*
X443095Y-8528429D02*
X452619Y-8537952D01*
X443095Y-8547476D01*
X433571Y-8537952D01*
X443095Y-8528429D01*
X443095Y-8547476D01*
X624048Y-8347476D02*
X585952Y-8347476D01*
X566905Y-8357000D01*
X557381Y-8366524D01*
X538333Y-8395095D01*
X528810Y-8433190D01*
X528810Y-8509381D01*
X538333Y-8528429D01*
X547857Y-8537952D01*
X566905Y-8547476D01*
X605000Y-8547476D01*
X624048Y-8537952D01*
X633571Y-8528429D01*
X643095Y-8509381D01*
X643095Y-8461762D01*
X633571Y-8442714D01*
X624048Y-8433190D01*
X605000Y-8423667D01*
X566905Y-8423667D01*
X547857Y-8433190D01*
X538333Y-8442714D01*
X528810Y-8461762D01*
X766905Y-8347476D02*
X785952Y-8347476D01*
X805000Y-8357000D01*
X814524Y-8366524D01*
X824048Y-8385571D01*
X833571Y-8423667D01*
X833571Y-8471286D01*
X824048Y-8509381D01*
X814524Y-8528429D01*
X805000Y-8537952D01*
X785952Y-8547476D01*
X766905Y-8547476D01*
X747857Y-8537952D01*
X738333Y-8528429D01*
X728809Y-8509381D01*
X719286Y-8471286D01*
X719286Y-8423667D01*
X728809Y-8385571D01*
X738333Y-8366524D01*
X747857Y-8357000D01*
X766905Y-8347476D01*
X957381Y-8347476D02*
X976428Y-8347476D01*
X995476Y-8357000D01*
X1005000Y-8366524D01*
X1014524Y-8385571D01*
X1024048Y-8423667D01*
X1024048Y-8471286D01*
X1014524Y-8509381D01*
X1005000Y-8528429D01*
X995476Y-8537952D01*
X976428Y-8547476D01*
X957381Y-8547476D01*
X938333Y-8537952D01*
X928809Y-8528429D01*
X919286Y-8509381D01*
X909762Y-8471286D01*
X909762Y-8423667D01*
X919286Y-8385571D01*
X928809Y-8366524D01*
X938333Y-8357000D01*
X957381Y-8347476D01*
X1109762Y-8547476D02*
X1109762Y-8414143D01*
X1109762Y-8433190D02*
X1119286Y-8423667D01*
X1138333Y-8414143D01*
X1166905Y-8414143D01*
X1185952Y-8423667D01*
X1195476Y-8442714D01*
X1195476Y-8547476D01*
X1195476Y-8442714D02*
X1205000Y-8423667D01*
X1224048Y-8414143D01*
X1252619Y-8414143D01*
X1271667Y-8423667D01*
X1281190Y-8442714D01*
X1281190Y-8547476D01*
X1376429Y-8547476D02*
X1376429Y-8414143D01*
X1376429Y-8433190D02*
X1385952Y-8423667D01*
X1405000Y-8414143D01*
X1433571Y-8414143D01*
X1452619Y-8423667D01*
X1462143Y-8442714D01*
X1462143Y-8547476D01*
X1462143Y-8442714D02*
X1471667Y-8423667D01*
X1490714Y-8414143D01*
X1519286Y-8414143D01*
X1538333Y-8423667D01*
X1547857Y-8442714D01*
X1547857Y-8547476D01*
X1938333Y-8337952D02*
X1766905Y-8595095D01*
X2195476Y-8347476D02*
X2214524Y-8347476D01*
X2233571Y-8357000D01*
X2243095Y-8366524D01*
X2252619Y-8385571D01*
X2262143Y-8423667D01*
X2262143Y-8471286D01*
X2252619Y-8509381D01*
X2243095Y-8528429D01*
X2233571Y-8537952D01*
X2214524Y-8547476D01*
X2195476Y-8547476D01*
X2176429Y-8537952D01*
X2166905Y-8528429D01*
X2157381Y-8509381D01*
X2147857Y-8471286D01*
X2147857Y-8423667D01*
X2157381Y-8385571D01*
X2166905Y-8366524D01*
X2176429Y-8357000D01*
X2195476Y-8347476D01*
X2347857Y-8528429D02*
X2357381Y-8537952D01*
X2347857Y-8547476D01*
X2338333Y-8537952D01*
X2347857Y-8528429D01*
X2347857Y-8547476D01*
X2481190Y-8347476D02*
X2500238Y-8347476D01*
X2519286Y-8357000D01*
X2528810Y-8366524D01*
X2538333Y-8385571D01*
X2547857Y-8423667D01*
X2547857Y-8471286D01*
X2538333Y-8509381D01*
X2528810Y-8528429D01*
X2519286Y-8537952D01*
X2500238Y-8547476D01*
X2481190Y-8547476D01*
X2462143Y-8537952D01*
X2452619Y-8528429D01*
X2443095Y-8509381D01*
X2433571Y-8471286D01*
X2433571Y-8423667D01*
X2443095Y-8385571D01*
X2452619Y-8366524D01*
X2462143Y-8357000D01*
X2481190Y-8347476D01*
X2719286Y-8347476D02*
X2681190Y-8347476D01*
X2662143Y-8357000D01*
X2652619Y-8366524D01*
X2633571Y-8395095D01*
X2624048Y-8433190D01*
X2624048Y-8509381D01*
X2633571Y-8528429D01*
X2643095Y-8537952D01*
X2662143Y-8547476D01*
X2700238Y-8547476D01*
X2719286Y-8537952D01*
X2728810Y-8528429D01*
X2738333Y-8509381D01*
X2738333Y-8461762D01*
X2728810Y-8442714D01*
X2719286Y-8433190D01*
X2700238Y-8423667D01*
X2662143Y-8423667D01*
X2643095Y-8433190D01*
X2633571Y-8442714D01*
X2624048Y-8461762D01*
X2805000Y-8347476D02*
X2928809Y-8347476D01*
X2862143Y-8423667D01*
X2890714Y-8423667D01*
X2909762Y-8433190D01*
X2919286Y-8442714D01*
X2928809Y-8461762D01*
X2928809Y-8509381D01*
X2919286Y-8528429D01*
X2909762Y-8537952D01*
X2890714Y-8547476D01*
X2833571Y-8547476D01*
X2814524Y-8537952D01*
X2805000Y-8528429D01*
X3052619Y-8347476D02*
X3071667Y-8347476D01*
X3090714Y-8357000D01*
X3100238Y-8366524D01*
X3109762Y-8385571D01*
X3119286Y-8423667D01*
X3119286Y-8471286D01*
X3109762Y-8509381D01*
X3100238Y-8528429D01*
X3090714Y-8537952D01*
X3071667Y-8547476D01*
X3052619Y-8547476D01*
X3033571Y-8537952D01*
X3024048Y-8528429D01*
X3014524Y-8509381D01*
X3005000Y-8471286D01*
X3005000Y-8423667D01*
X3014524Y-8385571D01*
X3024048Y-8366524D01*
X3033571Y-8357000D01*
X3052619Y-8347476D01*
X3195476Y-8347476D02*
X3195476Y-8385571D01*
X3271667Y-8347476D02*
X3271667Y-8385571D01*
X3566905Y-8623667D02*
X3557381Y-8614143D01*
X3538333Y-8585571D01*
X3528809Y-8566524D01*
X3519286Y-8537952D01*
X3509762Y-8490333D01*
X3509762Y-8452238D01*
X3519286Y-8404619D01*
X3528809Y-8376048D01*
X3538333Y-8357000D01*
X3557381Y-8328428D01*
X3566905Y-8318905D01*
X3728809Y-8414143D02*
X3728809Y-8547476D01*
X3681190Y-8337952D02*
X3633571Y-8480810D01*
X3757381Y-8480810D01*
X3985952Y-8547476D02*
X3985952Y-8347476D01*
X4071667Y-8547476D02*
X4071667Y-8442714D01*
X4062143Y-8423667D01*
X4043095Y-8414143D01*
X4014524Y-8414143D01*
X3995476Y-8423667D01*
X3985952Y-8433190D01*
X4195476Y-8547476D02*
X4176428Y-8537952D01*
X4166905Y-8528429D01*
X4157381Y-8509381D01*
X4157381Y-8452238D01*
X4166905Y-8433190D01*
X4176428Y-8423667D01*
X4195476Y-8414143D01*
X4224048Y-8414143D01*
X4243095Y-8423667D01*
X4252619Y-8433190D01*
X4262143Y-8452238D01*
X4262143Y-8509381D01*
X4252619Y-8528429D01*
X4243095Y-8537952D01*
X4224048Y-8547476D01*
X4195476Y-8547476D01*
X4376429Y-8547476D02*
X4357381Y-8537952D01*
X4347857Y-8518905D01*
X4347857Y-8347476D01*
X4528810Y-8537952D02*
X4509762Y-8547476D01*
X4471667Y-8547476D01*
X4452619Y-8537952D01*
X4443095Y-8518905D01*
X4443095Y-8442714D01*
X4452619Y-8423667D01*
X4471667Y-8414143D01*
X4509762Y-8414143D01*
X4528810Y-8423667D01*
X4538333Y-8442714D01*
X4538333Y-8461762D01*
X4443095Y-8480810D01*
X4614524Y-8537952D02*
X4633571Y-8547476D01*
X4671667Y-8547476D01*
X4690714Y-8537952D01*
X4700238Y-8518905D01*
X4700238Y-8509381D01*
X4690714Y-8490333D01*
X4671667Y-8480810D01*
X4643095Y-8480810D01*
X4624048Y-8471286D01*
X4614524Y-8452238D01*
X4614524Y-8442714D01*
X4624048Y-8423667D01*
X4643095Y-8414143D01*
X4671667Y-8414143D01*
X4690714Y-8423667D01*
X4766905Y-8623667D02*
X4776429Y-8614143D01*
X4795476Y-8585571D01*
X4805000Y-8566524D01*
X4814524Y-8537952D01*
X4824048Y-8490333D01*
X4824048Y-8452238D01*
X4814524Y-8404619D01*
X4805000Y-8376048D01*
X4795476Y-8357000D01*
X4776429Y-8328428D01*
X4766905Y-8318905D01*
X-205000Y-8637000D02*
X-5000Y-8837000D01*
X-5000Y-8637000D02*
X-205000Y-8837000D01*
X-5000Y-8737000D02*
G75*
G03*
X-5000Y-8737000I-100000J0D01*
G01*
X233571Y-8627476D02*
X357381Y-8627476D01*
X290714Y-8703667D01*
X319286Y-8703667D01*
X338333Y-8713190D01*
X347857Y-8722714D01*
X357381Y-8741762D01*
X357381Y-8789381D01*
X347857Y-8808429D01*
X338333Y-8817952D01*
X319286Y-8827476D01*
X262143Y-8827476D01*
X243095Y-8817952D01*
X233571Y-8808429D01*
X443095Y-8808429D02*
X452619Y-8817952D01*
X443095Y-8827476D01*
X433571Y-8817952D01*
X443095Y-8808429D01*
X443095Y-8827476D01*
X528810Y-8646524D02*
X538333Y-8637000D01*
X557381Y-8627476D01*
X605000Y-8627476D01*
X624048Y-8637000D01*
X633571Y-8646524D01*
X643095Y-8665571D01*
X643095Y-8684619D01*
X633571Y-8713190D01*
X519286Y-8827476D01*
X643095Y-8827476D01*
X766905Y-8627476D02*
X785952Y-8627476D01*
X805000Y-8637000D01*
X814524Y-8646524D01*
X824048Y-8665571D01*
X833571Y-8703667D01*
X833571Y-8751286D01*
X824048Y-8789381D01*
X814524Y-8808429D01*
X805000Y-8817952D01*
X785952Y-8827476D01*
X766905Y-8827476D01*
X747857Y-8817952D01*
X738333Y-8808429D01*
X728809Y-8789381D01*
X719286Y-8751286D01*
X719286Y-8703667D01*
X728809Y-8665571D01*
X738333Y-8646524D01*
X747857Y-8637000D01*
X766905Y-8627476D01*
X957381Y-8627476D02*
X976428Y-8627476D01*
X995476Y-8637000D01*
X1005000Y-8646524D01*
X1014524Y-8665571D01*
X1024048Y-8703667D01*
X1024048Y-8751286D01*
X1014524Y-8789381D01*
X1005000Y-8808429D01*
X995476Y-8817952D01*
X976428Y-8827476D01*
X957381Y-8827476D01*
X938333Y-8817952D01*
X928809Y-8808429D01*
X919286Y-8789381D01*
X909762Y-8751286D01*
X909762Y-8703667D01*
X919286Y-8665571D01*
X928809Y-8646524D01*
X938333Y-8637000D01*
X957381Y-8627476D01*
X1109762Y-8827476D02*
X1109762Y-8694143D01*
X1109762Y-8713190D02*
X1119286Y-8703667D01*
X1138333Y-8694143D01*
X1166905Y-8694143D01*
X1185952Y-8703667D01*
X1195476Y-8722714D01*
X1195476Y-8827476D01*
X1195476Y-8722714D02*
X1205000Y-8703667D01*
X1224048Y-8694143D01*
X1252619Y-8694143D01*
X1271667Y-8703667D01*
X1281190Y-8722714D01*
X1281190Y-8827476D01*
X1376429Y-8827476D02*
X1376429Y-8694143D01*
X1376429Y-8713190D02*
X1385952Y-8703667D01*
X1405000Y-8694143D01*
X1433571Y-8694143D01*
X1452619Y-8703667D01*
X1462143Y-8722714D01*
X1462143Y-8827476D01*
X1462143Y-8722714D02*
X1471667Y-8703667D01*
X1490714Y-8694143D01*
X1519286Y-8694143D01*
X1538333Y-8703667D01*
X1547857Y-8722714D01*
X1547857Y-8827476D01*
X1938333Y-8617952D02*
X1766905Y-8875095D01*
X2195476Y-8627476D02*
X2214524Y-8627476D01*
X2233571Y-8637000D01*
X2243095Y-8646524D01*
X2252619Y-8665571D01*
X2262143Y-8703667D01*
X2262143Y-8751286D01*
X2252619Y-8789381D01*
X2243095Y-8808429D01*
X2233571Y-8817952D01*
X2214524Y-8827476D01*
X2195476Y-8827476D01*
X2176429Y-8817952D01*
X2166905Y-8808429D01*
X2157381Y-8789381D01*
X2147857Y-8751286D01*
X2147857Y-8703667D01*
X2157381Y-8665571D01*
X2166905Y-8646524D01*
X2176429Y-8637000D01*
X2195476Y-8627476D01*
X2347857Y-8808429D02*
X2357381Y-8817952D01*
X2347857Y-8827476D01*
X2338333Y-8817952D01*
X2347857Y-8808429D01*
X2347857Y-8827476D01*
X2547857Y-8827476D02*
X2433571Y-8827476D01*
X2490714Y-8827476D02*
X2490714Y-8627476D01*
X2471667Y-8656048D01*
X2452619Y-8675095D01*
X2433571Y-8684619D01*
X2624048Y-8646524D02*
X2633571Y-8637000D01*
X2652619Y-8627476D01*
X2700238Y-8627476D01*
X2719286Y-8637000D01*
X2728810Y-8646524D01*
X2738333Y-8665571D01*
X2738333Y-8684619D01*
X2728810Y-8713190D01*
X2614524Y-8827476D01*
X2738333Y-8827476D01*
X2909762Y-8627476D02*
X2871667Y-8627476D01*
X2852619Y-8637000D01*
X2843095Y-8646524D01*
X2824048Y-8675095D01*
X2814524Y-8713190D01*
X2814524Y-8789381D01*
X2824048Y-8808429D01*
X2833571Y-8817952D01*
X2852619Y-8827476D01*
X2890714Y-8827476D01*
X2909762Y-8817952D01*
X2919286Y-8808429D01*
X2928809Y-8789381D01*
X2928809Y-8741762D01*
X2919286Y-8722714D01*
X2909762Y-8713190D01*
X2890714Y-8703667D01*
X2852619Y-8703667D01*
X2833571Y-8713190D01*
X2824048Y-8722714D01*
X2814524Y-8741762D01*
X3052619Y-8627476D02*
X3071667Y-8627476D01*
X3090714Y-8637000D01*
X3100238Y-8646524D01*
X3109762Y-8665571D01*
X3119286Y-8703667D01*
X3119286Y-8751286D01*
X3109762Y-8789381D01*
X3100238Y-8808429D01*
X3090714Y-8817952D01*
X3071667Y-8827476D01*
X3052619Y-8827476D01*
X3033571Y-8817952D01*
X3024048Y-8808429D01*
X3014524Y-8789381D01*
X3005000Y-8751286D01*
X3005000Y-8703667D01*
X3014524Y-8665571D01*
X3024048Y-8646524D01*
X3033571Y-8637000D01*
X3052619Y-8627476D01*
X3195476Y-8627476D02*
X3195476Y-8665571D01*
X3271667Y-8627476D02*
X3271667Y-8665571D01*
X3566905Y-8903667D02*
X3557381Y-8894143D01*
X3538333Y-8865571D01*
X3528809Y-8846524D01*
X3519286Y-8817952D01*
X3509762Y-8770333D01*
X3509762Y-8732238D01*
X3519286Y-8684619D01*
X3528809Y-8656048D01*
X3538333Y-8637000D01*
X3557381Y-8608429D01*
X3566905Y-8598905D01*
X3624048Y-8627476D02*
X3747857Y-8627476D01*
X3681190Y-8703667D01*
X3709762Y-8703667D01*
X3728809Y-8713190D01*
X3738333Y-8722714D01*
X3747857Y-8741762D01*
X3747857Y-8789381D01*
X3738333Y-8808429D01*
X3728809Y-8817952D01*
X3709762Y-8827476D01*
X3652619Y-8827476D01*
X3633571Y-8817952D01*
X3624048Y-8808429D01*
X3985952Y-8827476D02*
X3985952Y-8627476D01*
X4071667Y-8827476D02*
X4071667Y-8722714D01*
X4062143Y-8703667D01*
X4043095Y-8694143D01*
X4014524Y-8694143D01*
X3995476Y-8703667D01*
X3985952Y-8713190D01*
X4195476Y-8827476D02*
X4176428Y-8817952D01*
X4166905Y-8808429D01*
X4157381Y-8789381D01*
X4157381Y-8732238D01*
X4166905Y-8713190D01*
X4176428Y-8703667D01*
X4195476Y-8694143D01*
X4224048Y-8694143D01*
X4243095Y-8703667D01*
X4252619Y-8713190D01*
X4262143Y-8732238D01*
X4262143Y-8789381D01*
X4252619Y-8808429D01*
X4243095Y-8817952D01*
X4224048Y-8827476D01*
X4195476Y-8827476D01*
X4376429Y-8827476D02*
X4357381Y-8817952D01*
X4347857Y-8798905D01*
X4347857Y-8627476D01*
X4528810Y-8817952D02*
X4509762Y-8827476D01*
X4471667Y-8827476D01*
X4452619Y-8817952D01*
X4443095Y-8798905D01*
X4443095Y-8722714D01*
X4452619Y-8703667D01*
X4471667Y-8694143D01*
X4509762Y-8694143D01*
X4528810Y-8703667D01*
X4538333Y-8722714D01*
X4538333Y-8741762D01*
X4443095Y-8760810D01*
X4614524Y-8817952D02*
X4633571Y-8827476D01*
X4671667Y-8827476D01*
X4690714Y-8817952D01*
X4700238Y-8798905D01*
X4700238Y-8789381D01*
X4690714Y-8770333D01*
X4671667Y-8760810D01*
X4643095Y-8760810D01*
X4624048Y-8751286D01*
X4614524Y-8732238D01*
X4614524Y-8722714D01*
X4624048Y-8703667D01*
X4643095Y-8694143D01*
X4671667Y-8694143D01*
X4690714Y-8703667D01*
X4766905Y-8903667D02*
X4776429Y-8894143D01*
X4795476Y-8865571D01*
X4805000Y-8846524D01*
X4814524Y-8817952D01*
X4824048Y-8770333D01*
X4824048Y-8732238D01*
X4814524Y-8684619D01*
X4805000Y-8656048D01*
X4795476Y-8637000D01*
X4776429Y-8608429D01*
X4766905Y-8598905D01*
M02*
