%TF.GenerationSoftware,KiCad,Pcbnew,6.0.9-1.fc36*%
%TF.CreationDate,2022-11-14T14:18:19-03:00*%
%TF.ProjectId,bs_transceiver,62735f74-7261-46e7-9363-65697665722e,Rev 2*%
%TF.SameCoordinates,Original*%
%TF.FileFunction,Drillmap*%
%TF.FilePolarity,Positive*%
%FSLAX45Y45*%
G04 Gerber Fmt 4.5, Leading zero omitted, Abs format (unit mm)*
G04 Created by KiCad (PCBNEW 6.0.9-1.fc36) date 2022-11-14 14:18:19*
%MOMM*%
%LPD*%
G01*
G04 APERTURE LIST*
%ADD10C,0.100000*%
%ADD11C,0.200000*%
%ADD12C,0.065000*%
%ADD13C,0.320000*%
G04 APERTURE END LIST*
D10*
X250000Y0D02*
G75*
G03*
X0Y-250000I0J-250000D01*
G01*
X250000Y-6750000D02*
X5250000Y-6750000D01*
X0Y-250000D02*
X2Y-6500000D01*
X5500000Y-250000D02*
G75*
G03*
X5250000Y0I-250000J0D01*
G01*
X2Y-6500000D02*
G75*
G03*
X250000Y-6750000I249999J-1D01*
G01*
X5250000Y-6750000D02*
G75*
G03*
X5500000Y-6500000I0J250000D01*
G01*
X5250000Y0D02*
X250000Y0D01*
X5500000Y-6500000D02*
X5500000Y-250000D01*
D11*
D12*
X3463100Y-494680D02*
X3528100Y-559680D01*
X3528100Y-494680D02*
X3463100Y-559680D01*
X4041100Y-494680D02*
X4106100Y-559680D01*
X4106100Y-494680D02*
X4041100Y-559680D01*
D13*
X5310000Y-6400000D02*
G75*
G03*
X5310000Y-6400000I-160000J0D01*
G01*
D11*
X252619Y-7065476D02*
X252619Y-6865476D01*
X300238Y-6865476D01*
X328810Y-6875000D01*
X347857Y-6894048D01*
X357381Y-6913095D01*
X366905Y-6951190D01*
X366905Y-6979762D01*
X357381Y-7017857D01*
X347857Y-7036905D01*
X328810Y-7055952D01*
X300238Y-7065476D01*
X252619Y-7065476D01*
X452619Y-7065476D02*
X452619Y-6932143D01*
X452619Y-6970238D02*
X462143Y-6951190D01*
X471667Y-6941667D01*
X490714Y-6932143D01*
X509762Y-6932143D01*
X576429Y-7065476D02*
X576429Y-6932143D01*
X576429Y-6865476D02*
X566905Y-6875000D01*
X576429Y-6884524D01*
X585952Y-6875000D01*
X576429Y-6865476D01*
X576429Y-6884524D01*
X700238Y-7065476D02*
X681190Y-7055952D01*
X671667Y-7036905D01*
X671667Y-6865476D01*
X805000Y-7065476D02*
X785952Y-7055952D01*
X776428Y-7036905D01*
X776428Y-6865476D01*
X1033571Y-7065476D02*
X1033571Y-6865476D01*
X1100238Y-7008333D01*
X1166905Y-6865476D01*
X1166905Y-7065476D01*
X1347857Y-7065476D02*
X1347857Y-6960714D01*
X1338333Y-6941667D01*
X1319286Y-6932143D01*
X1281190Y-6932143D01*
X1262143Y-6941667D01*
X1347857Y-7055952D02*
X1328810Y-7065476D01*
X1281190Y-7065476D01*
X1262143Y-7055952D01*
X1252619Y-7036905D01*
X1252619Y-7017857D01*
X1262143Y-6998809D01*
X1281190Y-6989286D01*
X1328810Y-6989286D01*
X1347857Y-6979762D01*
X1443095Y-6932143D02*
X1443095Y-7132143D01*
X1443095Y-6941667D02*
X1462143Y-6932143D01*
X1500238Y-6932143D01*
X1519286Y-6941667D01*
X1528809Y-6951190D01*
X1538333Y-6970238D01*
X1538333Y-7027381D01*
X1528809Y-7046428D01*
X1519286Y-7055952D01*
X1500238Y-7065476D01*
X1462143Y-7065476D01*
X1443095Y-7055952D01*
X1624048Y-7046428D02*
X1633571Y-7055952D01*
X1624048Y-7065476D01*
X1614524Y-7055952D01*
X1624048Y-7046428D01*
X1624048Y-7065476D01*
X1624048Y-6941667D02*
X1633571Y-6951190D01*
X1624048Y-6960714D01*
X1614524Y-6951190D01*
X1624048Y-6941667D01*
X1624048Y-6960714D01*
D12*
X-70000Y-7362500D02*
X-5000Y-7427500D01*
X-5000Y-7362500D02*
X-70000Y-7427500D01*
D11*
X290714Y-7285476D02*
X309762Y-7285476D01*
X328810Y-7295000D01*
X338333Y-7304524D01*
X347857Y-7323571D01*
X357381Y-7361667D01*
X357381Y-7409286D01*
X347857Y-7447381D01*
X338333Y-7466428D01*
X328810Y-7475952D01*
X309762Y-7485476D01*
X290714Y-7485476D01*
X271667Y-7475952D01*
X262143Y-7466428D01*
X252619Y-7447381D01*
X243095Y-7409286D01*
X243095Y-7361667D01*
X252619Y-7323571D01*
X262143Y-7304524D01*
X271667Y-7295000D01*
X290714Y-7285476D01*
X443095Y-7466428D02*
X452619Y-7475952D01*
X443095Y-7485476D01*
X433571Y-7475952D01*
X443095Y-7466428D01*
X443095Y-7485476D01*
X624048Y-7285476D02*
X585952Y-7285476D01*
X566905Y-7295000D01*
X557381Y-7304524D01*
X538333Y-7333095D01*
X528810Y-7371190D01*
X528810Y-7447381D01*
X538333Y-7466428D01*
X547857Y-7475952D01*
X566905Y-7485476D01*
X605000Y-7485476D01*
X624048Y-7475952D01*
X633571Y-7466428D01*
X643095Y-7447381D01*
X643095Y-7399762D01*
X633571Y-7380714D01*
X624048Y-7371190D01*
X605000Y-7361667D01*
X566905Y-7361667D01*
X547857Y-7371190D01*
X538333Y-7380714D01*
X528810Y-7399762D01*
X824048Y-7285476D02*
X728809Y-7285476D01*
X719286Y-7380714D01*
X728809Y-7371190D01*
X747857Y-7361667D01*
X795476Y-7361667D01*
X814524Y-7371190D01*
X824048Y-7380714D01*
X833571Y-7399762D01*
X833571Y-7447381D01*
X824048Y-7466428D01*
X814524Y-7475952D01*
X795476Y-7485476D01*
X747857Y-7485476D01*
X728809Y-7475952D01*
X719286Y-7466428D01*
X957381Y-7285476D02*
X976428Y-7285476D01*
X995476Y-7295000D01*
X1005000Y-7304524D01*
X1014524Y-7323571D01*
X1024048Y-7361667D01*
X1024048Y-7409286D01*
X1014524Y-7447381D01*
X1005000Y-7466428D01*
X995476Y-7475952D01*
X976428Y-7485476D01*
X957381Y-7485476D01*
X938333Y-7475952D01*
X928809Y-7466428D01*
X919286Y-7447381D01*
X909762Y-7409286D01*
X909762Y-7361667D01*
X919286Y-7323571D01*
X928809Y-7304524D01*
X938333Y-7295000D01*
X957381Y-7285476D01*
X1109762Y-7485476D02*
X1109762Y-7352143D01*
X1109762Y-7371190D02*
X1119286Y-7361667D01*
X1138333Y-7352143D01*
X1166905Y-7352143D01*
X1185952Y-7361667D01*
X1195476Y-7380714D01*
X1195476Y-7485476D01*
X1195476Y-7380714D02*
X1205000Y-7361667D01*
X1224048Y-7352143D01*
X1252619Y-7352143D01*
X1271667Y-7361667D01*
X1281190Y-7380714D01*
X1281190Y-7485476D01*
X1376429Y-7485476D02*
X1376429Y-7352143D01*
X1376429Y-7371190D02*
X1385952Y-7361667D01*
X1405000Y-7352143D01*
X1433571Y-7352143D01*
X1452619Y-7361667D01*
X1462143Y-7380714D01*
X1462143Y-7485476D01*
X1462143Y-7380714D02*
X1471667Y-7361667D01*
X1490714Y-7352143D01*
X1519286Y-7352143D01*
X1538333Y-7361667D01*
X1547857Y-7380714D01*
X1547857Y-7485476D01*
X1938333Y-7275952D02*
X1766905Y-7533095D01*
X2195476Y-7285476D02*
X2214524Y-7285476D01*
X2233571Y-7295000D01*
X2243095Y-7304524D01*
X2252619Y-7323571D01*
X2262143Y-7361667D01*
X2262143Y-7409286D01*
X2252619Y-7447381D01*
X2243095Y-7466428D01*
X2233571Y-7475952D01*
X2214524Y-7485476D01*
X2195476Y-7485476D01*
X2176429Y-7475952D01*
X2166905Y-7466428D01*
X2157381Y-7447381D01*
X2147857Y-7409286D01*
X2147857Y-7361667D01*
X2157381Y-7323571D01*
X2166905Y-7304524D01*
X2176429Y-7295000D01*
X2195476Y-7285476D01*
X2347857Y-7466428D02*
X2357381Y-7475952D01*
X2347857Y-7485476D01*
X2338333Y-7475952D01*
X2347857Y-7466428D01*
X2347857Y-7485476D01*
X2481190Y-7285476D02*
X2500238Y-7285476D01*
X2519286Y-7295000D01*
X2528810Y-7304524D01*
X2538333Y-7323571D01*
X2547857Y-7361667D01*
X2547857Y-7409286D01*
X2538333Y-7447381D01*
X2528810Y-7466428D01*
X2519286Y-7475952D01*
X2500238Y-7485476D01*
X2481190Y-7485476D01*
X2462143Y-7475952D01*
X2452619Y-7466428D01*
X2443095Y-7447381D01*
X2433571Y-7409286D01*
X2433571Y-7361667D01*
X2443095Y-7323571D01*
X2452619Y-7304524D01*
X2462143Y-7295000D01*
X2481190Y-7285476D01*
X2624048Y-7304524D02*
X2633571Y-7295000D01*
X2652619Y-7285476D01*
X2700238Y-7285476D01*
X2719286Y-7295000D01*
X2728810Y-7304524D01*
X2738333Y-7323571D01*
X2738333Y-7342619D01*
X2728810Y-7371190D01*
X2614524Y-7485476D01*
X2738333Y-7485476D01*
X2919286Y-7285476D02*
X2824048Y-7285476D01*
X2814524Y-7380714D01*
X2824048Y-7371190D01*
X2843095Y-7361667D01*
X2890714Y-7361667D01*
X2909762Y-7371190D01*
X2919286Y-7380714D01*
X2928809Y-7399762D01*
X2928809Y-7447381D01*
X2919286Y-7466428D01*
X2909762Y-7475952D01*
X2890714Y-7485476D01*
X2843095Y-7485476D01*
X2824048Y-7475952D01*
X2814524Y-7466428D01*
X3100238Y-7285476D02*
X3062143Y-7285476D01*
X3043095Y-7295000D01*
X3033571Y-7304524D01*
X3014524Y-7333095D01*
X3005000Y-7371190D01*
X3005000Y-7447381D01*
X3014524Y-7466428D01*
X3024048Y-7475952D01*
X3043095Y-7485476D01*
X3081190Y-7485476D01*
X3100238Y-7475952D01*
X3109762Y-7466428D01*
X3119286Y-7447381D01*
X3119286Y-7399762D01*
X3109762Y-7380714D01*
X3100238Y-7371190D01*
X3081190Y-7361667D01*
X3043095Y-7361667D01*
X3024048Y-7371190D01*
X3014524Y-7380714D01*
X3005000Y-7399762D01*
X3195476Y-7285476D02*
X3195476Y-7323571D01*
X3271667Y-7285476D02*
X3271667Y-7323571D01*
X3566905Y-7561667D02*
X3557381Y-7552143D01*
X3538333Y-7523571D01*
X3528809Y-7504524D01*
X3519286Y-7475952D01*
X3509762Y-7428333D01*
X3509762Y-7390238D01*
X3519286Y-7342619D01*
X3528809Y-7314048D01*
X3538333Y-7295000D01*
X3557381Y-7266428D01*
X3566905Y-7256905D01*
X3633571Y-7304524D02*
X3643095Y-7295000D01*
X3662143Y-7285476D01*
X3709762Y-7285476D01*
X3728809Y-7295000D01*
X3738333Y-7304524D01*
X3747857Y-7323571D01*
X3747857Y-7342619D01*
X3738333Y-7371190D01*
X3624048Y-7485476D01*
X3747857Y-7485476D01*
X3985952Y-7485476D02*
X3985952Y-7285476D01*
X4071667Y-7485476D02*
X4071667Y-7380714D01*
X4062143Y-7361667D01*
X4043095Y-7352143D01*
X4014524Y-7352143D01*
X3995476Y-7361667D01*
X3985952Y-7371190D01*
X4195476Y-7485476D02*
X4176428Y-7475952D01*
X4166905Y-7466428D01*
X4157381Y-7447381D01*
X4157381Y-7390238D01*
X4166905Y-7371190D01*
X4176428Y-7361667D01*
X4195476Y-7352143D01*
X4224048Y-7352143D01*
X4243095Y-7361667D01*
X4252619Y-7371190D01*
X4262143Y-7390238D01*
X4262143Y-7447381D01*
X4252619Y-7466428D01*
X4243095Y-7475952D01*
X4224048Y-7485476D01*
X4195476Y-7485476D01*
X4376429Y-7485476D02*
X4357381Y-7475952D01*
X4347857Y-7456905D01*
X4347857Y-7285476D01*
X4528810Y-7475952D02*
X4509762Y-7485476D01*
X4471667Y-7485476D01*
X4452619Y-7475952D01*
X4443095Y-7456905D01*
X4443095Y-7380714D01*
X4452619Y-7361667D01*
X4471667Y-7352143D01*
X4509762Y-7352143D01*
X4528810Y-7361667D01*
X4538333Y-7380714D01*
X4538333Y-7399762D01*
X4443095Y-7418809D01*
X4614524Y-7475952D02*
X4633571Y-7485476D01*
X4671667Y-7485476D01*
X4690714Y-7475952D01*
X4700238Y-7456905D01*
X4700238Y-7447381D01*
X4690714Y-7428333D01*
X4671667Y-7418809D01*
X4643095Y-7418809D01*
X4624048Y-7409286D01*
X4614524Y-7390238D01*
X4614524Y-7380714D01*
X4624048Y-7361667D01*
X4643095Y-7352143D01*
X4671667Y-7352143D01*
X4690714Y-7361667D01*
X4766905Y-7561667D02*
X4776429Y-7552143D01*
X4795476Y-7523571D01*
X4805000Y-7504524D01*
X4814524Y-7475952D01*
X4824048Y-7428333D01*
X4824048Y-7390238D01*
X4814524Y-7342619D01*
X4805000Y-7314048D01*
X4795476Y-7295000D01*
X4776429Y-7266428D01*
X4766905Y-7256905D01*
X5128810Y-7561667D02*
X5119286Y-7552143D01*
X5100238Y-7523571D01*
X5090714Y-7504524D01*
X5081190Y-7475952D01*
X5071667Y-7428333D01*
X5071667Y-7390238D01*
X5081190Y-7342619D01*
X5090714Y-7314048D01*
X5100238Y-7295000D01*
X5119286Y-7266428D01*
X5128810Y-7256905D01*
X5205000Y-7352143D02*
X5205000Y-7485476D01*
X5205000Y-7371190D02*
X5214524Y-7361667D01*
X5233571Y-7352143D01*
X5262143Y-7352143D01*
X5281190Y-7361667D01*
X5290714Y-7380714D01*
X5290714Y-7485476D01*
X5414524Y-7485476D02*
X5395476Y-7475952D01*
X5385952Y-7466428D01*
X5376429Y-7447381D01*
X5376429Y-7390238D01*
X5385952Y-7371190D01*
X5395476Y-7361667D01*
X5414524Y-7352143D01*
X5443095Y-7352143D01*
X5462143Y-7361667D01*
X5471667Y-7371190D01*
X5481190Y-7390238D01*
X5481190Y-7447381D01*
X5471667Y-7466428D01*
X5462143Y-7475952D01*
X5443095Y-7485476D01*
X5414524Y-7485476D01*
X5538333Y-7352143D02*
X5614524Y-7352143D01*
X5566905Y-7285476D02*
X5566905Y-7456905D01*
X5576429Y-7475952D01*
X5595476Y-7485476D01*
X5614524Y-7485476D01*
X5833571Y-7352143D02*
X5833571Y-7552143D01*
X5833571Y-7361667D02*
X5852619Y-7352143D01*
X5890714Y-7352143D01*
X5909762Y-7361667D01*
X5919286Y-7371190D01*
X5928809Y-7390238D01*
X5928809Y-7447381D01*
X5919286Y-7466428D01*
X5909762Y-7475952D01*
X5890714Y-7485476D01*
X5852619Y-7485476D01*
X5833571Y-7475952D01*
X6043095Y-7485476D02*
X6024048Y-7475952D01*
X6014524Y-7456905D01*
X6014524Y-7285476D01*
X6205000Y-7485476D02*
X6205000Y-7380714D01*
X6195476Y-7361667D01*
X6176428Y-7352143D01*
X6138333Y-7352143D01*
X6119286Y-7361667D01*
X6205000Y-7475952D02*
X6185952Y-7485476D01*
X6138333Y-7485476D01*
X6119286Y-7475952D01*
X6109762Y-7456905D01*
X6109762Y-7437857D01*
X6119286Y-7418809D01*
X6138333Y-7409286D01*
X6185952Y-7409286D01*
X6205000Y-7399762D01*
X6271667Y-7352143D02*
X6347857Y-7352143D01*
X6300238Y-7285476D02*
X6300238Y-7456905D01*
X6309762Y-7475952D01*
X6328809Y-7485476D01*
X6347857Y-7485476D01*
X6490714Y-7475952D02*
X6471667Y-7485476D01*
X6433571Y-7485476D01*
X6414524Y-7475952D01*
X6405000Y-7456905D01*
X6405000Y-7380714D01*
X6414524Y-7361667D01*
X6433571Y-7352143D01*
X6471667Y-7352143D01*
X6490714Y-7361667D01*
X6500238Y-7380714D01*
X6500238Y-7399762D01*
X6405000Y-7418809D01*
X6671667Y-7485476D02*
X6671667Y-7285476D01*
X6671667Y-7475952D02*
X6652619Y-7485476D01*
X6614524Y-7485476D01*
X6595476Y-7475952D01*
X6585952Y-7466428D01*
X6576428Y-7447381D01*
X6576428Y-7390238D01*
X6585952Y-7371190D01*
X6595476Y-7361667D01*
X6614524Y-7352143D01*
X6652619Y-7352143D01*
X6671667Y-7361667D01*
X6747857Y-7561667D02*
X6757381Y-7552143D01*
X6776428Y-7523571D01*
X6785952Y-7504524D01*
X6795476Y-7475952D01*
X6805000Y-7428333D01*
X6805000Y-7390238D01*
X6795476Y-7342619D01*
X6785952Y-7314048D01*
X6776428Y-7295000D01*
X6757381Y-7266428D01*
X6747857Y-7256905D01*
X-5000Y-7659000D02*
G75*
G03*
X-5000Y-7659000I-100000J0D01*
G01*
X233571Y-7549476D02*
X357381Y-7549476D01*
X290714Y-7625667D01*
X319286Y-7625667D01*
X338333Y-7635190D01*
X347857Y-7644714D01*
X357381Y-7663762D01*
X357381Y-7711381D01*
X347857Y-7730428D01*
X338333Y-7739952D01*
X319286Y-7749476D01*
X262143Y-7749476D01*
X243095Y-7739952D01*
X233571Y-7730428D01*
X443095Y-7730428D02*
X452619Y-7739952D01*
X443095Y-7749476D01*
X433571Y-7739952D01*
X443095Y-7730428D01*
X443095Y-7749476D01*
X528810Y-7568524D02*
X538333Y-7559000D01*
X557381Y-7549476D01*
X605000Y-7549476D01*
X624048Y-7559000D01*
X633571Y-7568524D01*
X643095Y-7587571D01*
X643095Y-7606619D01*
X633571Y-7635190D01*
X519286Y-7749476D01*
X643095Y-7749476D01*
X766905Y-7549476D02*
X785952Y-7549476D01*
X805000Y-7559000D01*
X814524Y-7568524D01*
X824048Y-7587571D01*
X833571Y-7625667D01*
X833571Y-7673286D01*
X824048Y-7711381D01*
X814524Y-7730428D01*
X805000Y-7739952D01*
X785952Y-7749476D01*
X766905Y-7749476D01*
X747857Y-7739952D01*
X738333Y-7730428D01*
X728809Y-7711381D01*
X719286Y-7673286D01*
X719286Y-7625667D01*
X728809Y-7587571D01*
X738333Y-7568524D01*
X747857Y-7559000D01*
X766905Y-7549476D01*
X957381Y-7549476D02*
X976428Y-7549476D01*
X995476Y-7559000D01*
X1005000Y-7568524D01*
X1014524Y-7587571D01*
X1024048Y-7625667D01*
X1024048Y-7673286D01*
X1014524Y-7711381D01*
X1005000Y-7730428D01*
X995476Y-7739952D01*
X976428Y-7749476D01*
X957381Y-7749476D01*
X938333Y-7739952D01*
X928809Y-7730428D01*
X919286Y-7711381D01*
X909762Y-7673286D01*
X909762Y-7625667D01*
X919286Y-7587571D01*
X928809Y-7568524D01*
X938333Y-7559000D01*
X957381Y-7549476D01*
X1109762Y-7749476D02*
X1109762Y-7616143D01*
X1109762Y-7635190D02*
X1119286Y-7625667D01*
X1138333Y-7616143D01*
X1166905Y-7616143D01*
X1185952Y-7625667D01*
X1195476Y-7644714D01*
X1195476Y-7749476D01*
X1195476Y-7644714D02*
X1205000Y-7625667D01*
X1224048Y-7616143D01*
X1252619Y-7616143D01*
X1271667Y-7625667D01*
X1281190Y-7644714D01*
X1281190Y-7749476D01*
X1376429Y-7749476D02*
X1376429Y-7616143D01*
X1376429Y-7635190D02*
X1385952Y-7625667D01*
X1405000Y-7616143D01*
X1433571Y-7616143D01*
X1452619Y-7625667D01*
X1462143Y-7644714D01*
X1462143Y-7749476D01*
X1462143Y-7644714D02*
X1471667Y-7625667D01*
X1490714Y-7616143D01*
X1519286Y-7616143D01*
X1538333Y-7625667D01*
X1547857Y-7644714D01*
X1547857Y-7749476D01*
X1938333Y-7539952D02*
X1766905Y-7797095D01*
X2195476Y-7549476D02*
X2214524Y-7549476D01*
X2233571Y-7559000D01*
X2243095Y-7568524D01*
X2252619Y-7587571D01*
X2262143Y-7625667D01*
X2262143Y-7673286D01*
X2252619Y-7711381D01*
X2243095Y-7730428D01*
X2233571Y-7739952D01*
X2214524Y-7749476D01*
X2195476Y-7749476D01*
X2176429Y-7739952D01*
X2166905Y-7730428D01*
X2157381Y-7711381D01*
X2147857Y-7673286D01*
X2147857Y-7625667D01*
X2157381Y-7587571D01*
X2166905Y-7568524D01*
X2176429Y-7559000D01*
X2195476Y-7549476D01*
X2347857Y-7730428D02*
X2357381Y-7739952D01*
X2347857Y-7749476D01*
X2338333Y-7739952D01*
X2347857Y-7730428D01*
X2347857Y-7749476D01*
X2547857Y-7749476D02*
X2433571Y-7749476D01*
X2490714Y-7749476D02*
X2490714Y-7549476D01*
X2471667Y-7578048D01*
X2452619Y-7597095D01*
X2433571Y-7606619D01*
X2624048Y-7568524D02*
X2633571Y-7559000D01*
X2652619Y-7549476D01*
X2700238Y-7549476D01*
X2719286Y-7559000D01*
X2728810Y-7568524D01*
X2738333Y-7587571D01*
X2738333Y-7606619D01*
X2728810Y-7635190D01*
X2614524Y-7749476D01*
X2738333Y-7749476D01*
X2909762Y-7549476D02*
X2871667Y-7549476D01*
X2852619Y-7559000D01*
X2843095Y-7568524D01*
X2824048Y-7597095D01*
X2814524Y-7635190D01*
X2814524Y-7711381D01*
X2824048Y-7730428D01*
X2833571Y-7739952D01*
X2852619Y-7749476D01*
X2890714Y-7749476D01*
X2909762Y-7739952D01*
X2919286Y-7730428D01*
X2928809Y-7711381D01*
X2928809Y-7663762D01*
X2919286Y-7644714D01*
X2909762Y-7635190D01*
X2890714Y-7625667D01*
X2852619Y-7625667D01*
X2833571Y-7635190D01*
X2824048Y-7644714D01*
X2814524Y-7663762D01*
X3052619Y-7549476D02*
X3071667Y-7549476D01*
X3090714Y-7559000D01*
X3100238Y-7568524D01*
X3109762Y-7587571D01*
X3119286Y-7625667D01*
X3119286Y-7673286D01*
X3109762Y-7711381D01*
X3100238Y-7730428D01*
X3090714Y-7739952D01*
X3071667Y-7749476D01*
X3052619Y-7749476D01*
X3033571Y-7739952D01*
X3024048Y-7730428D01*
X3014524Y-7711381D01*
X3005000Y-7673286D01*
X3005000Y-7625667D01*
X3014524Y-7587571D01*
X3024048Y-7568524D01*
X3033571Y-7559000D01*
X3052619Y-7549476D01*
X3195476Y-7549476D02*
X3195476Y-7587571D01*
X3271667Y-7549476D02*
X3271667Y-7587571D01*
X3566905Y-7825667D02*
X3557381Y-7816143D01*
X3538333Y-7787571D01*
X3528809Y-7768524D01*
X3519286Y-7739952D01*
X3509762Y-7692333D01*
X3509762Y-7654238D01*
X3519286Y-7606619D01*
X3528809Y-7578048D01*
X3538333Y-7559000D01*
X3557381Y-7530428D01*
X3566905Y-7520905D01*
X3747857Y-7749476D02*
X3633571Y-7749476D01*
X3690714Y-7749476D02*
X3690714Y-7549476D01*
X3671667Y-7578048D01*
X3652619Y-7597095D01*
X3633571Y-7606619D01*
X3985952Y-7749476D02*
X3985952Y-7549476D01*
X4071667Y-7749476D02*
X4071667Y-7644714D01*
X4062143Y-7625667D01*
X4043095Y-7616143D01*
X4014524Y-7616143D01*
X3995476Y-7625667D01*
X3985952Y-7635190D01*
X4195476Y-7749476D02*
X4176428Y-7739952D01*
X4166905Y-7730428D01*
X4157381Y-7711381D01*
X4157381Y-7654238D01*
X4166905Y-7635190D01*
X4176428Y-7625667D01*
X4195476Y-7616143D01*
X4224048Y-7616143D01*
X4243095Y-7625667D01*
X4252619Y-7635190D01*
X4262143Y-7654238D01*
X4262143Y-7711381D01*
X4252619Y-7730428D01*
X4243095Y-7739952D01*
X4224048Y-7749476D01*
X4195476Y-7749476D01*
X4376429Y-7749476D02*
X4357381Y-7739952D01*
X4347857Y-7720905D01*
X4347857Y-7549476D01*
X4528810Y-7739952D02*
X4509762Y-7749476D01*
X4471667Y-7749476D01*
X4452619Y-7739952D01*
X4443095Y-7720905D01*
X4443095Y-7644714D01*
X4452619Y-7625667D01*
X4471667Y-7616143D01*
X4509762Y-7616143D01*
X4528810Y-7625667D01*
X4538333Y-7644714D01*
X4538333Y-7663762D01*
X4443095Y-7682809D01*
X4605000Y-7825667D02*
X4614524Y-7816143D01*
X4633571Y-7787571D01*
X4643095Y-7768524D01*
X4652619Y-7739952D01*
X4662143Y-7692333D01*
X4662143Y-7654238D01*
X4652619Y-7606619D01*
X4643095Y-7578048D01*
X4633571Y-7559000D01*
X4614524Y-7530428D01*
X4605000Y-7520905D01*
X4966905Y-7825667D02*
X4957381Y-7816143D01*
X4938333Y-7787571D01*
X4928810Y-7768524D01*
X4919286Y-7739952D01*
X4909762Y-7692333D01*
X4909762Y-7654238D01*
X4919286Y-7606619D01*
X4928810Y-7578048D01*
X4938333Y-7559000D01*
X4957381Y-7530428D01*
X4966905Y-7520905D01*
X5043095Y-7616143D02*
X5043095Y-7749476D01*
X5043095Y-7635190D02*
X5052619Y-7625667D01*
X5071667Y-7616143D01*
X5100238Y-7616143D01*
X5119286Y-7625667D01*
X5128810Y-7644714D01*
X5128810Y-7749476D01*
X5252619Y-7749476D02*
X5233571Y-7739952D01*
X5224048Y-7730428D01*
X5214524Y-7711381D01*
X5214524Y-7654238D01*
X5224048Y-7635190D01*
X5233571Y-7625667D01*
X5252619Y-7616143D01*
X5281190Y-7616143D01*
X5300238Y-7625667D01*
X5309762Y-7635190D01*
X5319286Y-7654238D01*
X5319286Y-7711381D01*
X5309762Y-7730428D01*
X5300238Y-7739952D01*
X5281190Y-7749476D01*
X5252619Y-7749476D01*
X5376429Y-7616143D02*
X5452619Y-7616143D01*
X5405000Y-7549476D02*
X5405000Y-7720905D01*
X5414524Y-7739952D01*
X5433571Y-7749476D01*
X5452619Y-7749476D01*
X5671667Y-7616143D02*
X5671667Y-7816143D01*
X5671667Y-7625667D02*
X5690714Y-7616143D01*
X5728809Y-7616143D01*
X5747857Y-7625667D01*
X5757381Y-7635190D01*
X5766905Y-7654238D01*
X5766905Y-7711381D01*
X5757381Y-7730428D01*
X5747857Y-7739952D01*
X5728809Y-7749476D01*
X5690714Y-7749476D01*
X5671667Y-7739952D01*
X5881190Y-7749476D02*
X5862143Y-7739952D01*
X5852619Y-7720905D01*
X5852619Y-7549476D01*
X6043095Y-7749476D02*
X6043095Y-7644714D01*
X6033571Y-7625667D01*
X6014524Y-7616143D01*
X5976428Y-7616143D01*
X5957381Y-7625667D01*
X6043095Y-7739952D02*
X6024048Y-7749476D01*
X5976428Y-7749476D01*
X5957381Y-7739952D01*
X5947857Y-7720905D01*
X5947857Y-7701857D01*
X5957381Y-7682809D01*
X5976428Y-7673286D01*
X6024048Y-7673286D01*
X6043095Y-7663762D01*
X6109762Y-7616143D02*
X6185952Y-7616143D01*
X6138333Y-7549476D02*
X6138333Y-7720905D01*
X6147857Y-7739952D01*
X6166905Y-7749476D01*
X6185952Y-7749476D01*
X6328809Y-7739952D02*
X6309762Y-7749476D01*
X6271667Y-7749476D01*
X6252619Y-7739952D01*
X6243095Y-7720905D01*
X6243095Y-7644714D01*
X6252619Y-7625667D01*
X6271667Y-7616143D01*
X6309762Y-7616143D01*
X6328809Y-7625667D01*
X6338333Y-7644714D01*
X6338333Y-7663762D01*
X6243095Y-7682809D01*
X6509762Y-7749476D02*
X6509762Y-7549476D01*
X6509762Y-7739952D02*
X6490714Y-7749476D01*
X6452619Y-7749476D01*
X6433571Y-7739952D01*
X6424048Y-7730428D01*
X6414524Y-7711381D01*
X6414524Y-7654238D01*
X6424048Y-7635190D01*
X6433571Y-7625667D01*
X6452619Y-7616143D01*
X6490714Y-7616143D01*
X6509762Y-7625667D01*
X6585952Y-7825667D02*
X6595476Y-7816143D01*
X6614524Y-7787571D01*
X6624048Y-7768524D01*
X6633571Y-7739952D01*
X6643095Y-7692333D01*
X6643095Y-7654238D01*
X6633571Y-7606619D01*
X6624048Y-7578048D01*
X6614524Y-7559000D01*
X6595476Y-7530428D01*
X6585952Y-7520905D01*
M02*
