G04 #@! TF.GenerationSoftware,KiCad,Pcbnew,6.0.9-1.fc36*
G04 #@! TF.CreationDate,2022-11-14T14:18:14-03:00*
G04 #@! TF.ProjectId,bs_transceiver,62735f74-7261-46e7-9363-65697665722e,Rev 2*
G04 #@! TF.SameCoordinates,Original*
G04 #@! TF.FileFunction,Paste,Top*
G04 #@! TF.FilePolarity,Positive*
%FSLAX46Y46*%
G04 Gerber Fmt 4.6, Leading zero omitted, Abs format (unit mm)*
G04 Created by KiCad (PCBNEW 6.0.9-1.fc36) date 2022-11-14 14:18:14*
%MOMM*%
%LPD*%
G01*
G04 APERTURE LIST*
G04 Aperture macros list*
%AMRoundRect*
0 Rectangle with rounded corners*
0 $1 Rounding radius*
0 $2 $3 $4 $5 $6 $7 $8 $9 X,Y pos of 4 corners*
0 Add a 4 corners polygon primitive as box body*
4,1,4,$2,$3,$4,$5,$6,$7,$8,$9,$2,$3,0*
0 Add four circle primitives for the rounded corners*
1,1,$1+$1,$2,$3*
1,1,$1+$1,$4,$5*
1,1,$1+$1,$6,$7*
1,1,$1+$1,$8,$9*
0 Add four rect primitives between the rounded corners*
20,1,$1+$1,$2,$3,$4,$5,0*
20,1,$1+$1,$4,$5,$6,$7,0*
20,1,$1+$1,$6,$7,$8,$9,0*
20,1,$1+$1,$8,$9,$2,$3,0*%
G04 Aperture macros list end*
%ADD10RoundRect,0.150000X-0.150000X0.587500X-0.150000X-0.587500X0.150000X-0.587500X0.150000X0.587500X0*%
%ADD11RoundRect,0.225000X-0.250000X0.225000X-0.250000X-0.225000X0.250000X-0.225000X0.250000X0.225000X0*%
%ADD12R,0.900000X2.000000*%
%ADD13R,2.000000X0.900000*%
%ADD14R,5.000000X5.000000*%
%ADD15R,2.180000X1.600000*%
%ADD16RoundRect,0.225000X0.250000X-0.225000X0.250000X0.225000X-0.250000X0.225000X-0.250000X-0.225000X0*%
%ADD17R,4.500000X2.000000*%
%ADD18RoundRect,0.200000X0.275000X-0.200000X0.275000X0.200000X-0.275000X0.200000X-0.275000X-0.200000X0*%
%ADD19RoundRect,0.225000X0.225000X0.250000X-0.225000X0.250000X-0.225000X-0.250000X0.225000X-0.250000X0*%
%ADD20RoundRect,0.200000X-0.275000X0.200000X-0.275000X-0.200000X0.275000X-0.200000X0.275000X0.200000X0*%
%ADD21RoundRect,0.150000X-0.150000X0.825000X-0.150000X-0.825000X0.150000X-0.825000X0.150000X0.825000X0*%
%ADD22R,1.300000X2.000000*%
%ADD23RoundRect,0.250000X0.787500X1.025000X-0.787500X1.025000X-0.787500X-1.025000X0.787500X-1.025000X0*%
%ADD24RoundRect,0.150000X-0.150000X0.512500X-0.150000X-0.512500X0.150000X-0.512500X0.150000X0.512500X0*%
%ADD25R,0.600000X2.450000*%
%ADD26R,0.300000X2.450000*%
G04 APERTURE END LIST*
D10*
X44587200Y-31701500D03*
X42687200Y-31701500D03*
X43637200Y-33576500D03*
D11*
X46837600Y-22313600D03*
X46837600Y-23863600D03*
D12*
X42646600Y-42681000D03*
X41376600Y-42681000D03*
X40106600Y-42681000D03*
X38836600Y-42681000D03*
X37566600Y-42681000D03*
X36296600Y-42681000D03*
X35026600Y-42681000D03*
X33756600Y-42681000D03*
X32486600Y-42681000D03*
X31216600Y-42681000D03*
X29946600Y-42681000D03*
X28676600Y-42681000D03*
X27406600Y-42681000D03*
X26136600Y-42681000D03*
D13*
X25136600Y-45466000D03*
X25136600Y-46736000D03*
X25136600Y-48006000D03*
X25136600Y-49276000D03*
X25136600Y-50546000D03*
X25136600Y-51816000D03*
X25136600Y-53086000D03*
X25136600Y-54356000D03*
X25136600Y-55626000D03*
X25136600Y-56896000D03*
D12*
X26136600Y-59681000D03*
X27406600Y-59681000D03*
X28676600Y-59681000D03*
X29946600Y-59681000D03*
X31216600Y-59681000D03*
X32486600Y-59681000D03*
X33756600Y-59681000D03*
X35026600Y-59681000D03*
X36296600Y-59681000D03*
X37566600Y-59681000D03*
X38836600Y-59681000D03*
X40106600Y-59681000D03*
X41376600Y-59681000D03*
X42646600Y-59681000D03*
D14*
X35146600Y-50181000D03*
D15*
X30911400Y-64185800D03*
X40091400Y-64185800D03*
D16*
X29210000Y-16421400D03*
X29210000Y-14871400D03*
D17*
X41080000Y-16433800D03*
X32580000Y-16433800D03*
D18*
X28592600Y-65835800D03*
X28592600Y-64185800D03*
D19*
X30162800Y-30835600D03*
X28612800Y-30835600D03*
D11*
X44450000Y-14871400D03*
X44450000Y-16421400D03*
D15*
X40091400Y-38074600D03*
X30911400Y-38074600D03*
D20*
X42672000Y-27750000D03*
X42672000Y-29400000D03*
X28422600Y-23051000D03*
X28422600Y-24701000D03*
X41148000Y-27750000D03*
X41148000Y-29400000D03*
X39116000Y-9995400D03*
X39116000Y-11645400D03*
D21*
X45085000Y-20600600D03*
X43815000Y-20600600D03*
X42545000Y-20600600D03*
X41275000Y-20600600D03*
X40005000Y-20600600D03*
X38735000Y-20600600D03*
X37465000Y-20600600D03*
X36195000Y-20600600D03*
X36195000Y-25550600D03*
X37465000Y-25550600D03*
X38735000Y-25550600D03*
X40005000Y-25550600D03*
X41275000Y-25550600D03*
X42545000Y-25550600D03*
X43815000Y-25550600D03*
X45085000Y-25550600D03*
D10*
X41107400Y-31699200D03*
X39207400Y-31699200D03*
X40157400Y-33574200D03*
D22*
X21046200Y-10389200D03*
X19046200Y-10389200D03*
X17046200Y-10389200D03*
X15046200Y-10389200D03*
X13046200Y-10389200D03*
X11046200Y-10389200D03*
X9046200Y-10389200D03*
X7046200Y-10389200D03*
X7046200Y-45389200D03*
X9046200Y-45389200D03*
X11046200Y-45389200D03*
X13046200Y-45389200D03*
X15046200Y-45389200D03*
X17046200Y-45389200D03*
X19046200Y-45389200D03*
X21046200Y-45389200D03*
D23*
X14720300Y-5410200D03*
X8495300Y-5410200D03*
D18*
X42359400Y-39763200D03*
X42359400Y-38113200D03*
D24*
X30337800Y-26751700D03*
X29387800Y-26751700D03*
X28437800Y-26751700D03*
X28437800Y-29026700D03*
X30337800Y-29026700D03*
D16*
X30353000Y-24651000D03*
X30353000Y-23101000D03*
D20*
X36093400Y-9995400D03*
X36093400Y-11645400D03*
D25*
X41071000Y-7216800D03*
X40296000Y-7216800D03*
D26*
X39596000Y-7216800D03*
X39096000Y-7216800D03*
X38596000Y-7216800D03*
X38096000Y-7216800D03*
X37596000Y-7216800D03*
X37096000Y-7216800D03*
X36596000Y-7216800D03*
X36096000Y-7216800D03*
D25*
X35396000Y-7216800D03*
X34621000Y-7216800D03*
D19*
X30162800Y-32359600D03*
X28612800Y-32359600D03*
M02*
