M48
; DRILL file {KiCad 6.0.9-1.fc36} date seg 14 nov 2022 14:18:19
; FORMAT={-:-/ absolute / metric / decimal}
; #@! TF.CreationDate,2022-11-14T14:18:19-03:00
; #@! TF.GenerationSoftware,Kicad,Pcbnew,6.0.9-1.fc36
; #@! TF.FileFunction,Plated,1,2,PTH
FMAT,2
METRIC
; #@! TA.AperFunction,Plated,PTH,ViaDrill
T1C0.300
; #@! TA.AperFunction,Plated,PTH,ComponentDrill
T2C0.600
; #@! TA.AperFunction,Plated,PTH,ComponentDrill
T3C1.000
; #@! TA.AperFunction,Plated,PTH,ComponentDrill
T4C1.500
; #@! TA.AperFunction,Plated,PTH,ComponentDrill
T5C1.600
; #@! TA.AperFunction,Plated,PTH,ComponentDrill
T6C3.200
%
G90
G05
T1
X4.166Y-32.334
X6.579Y-16.612
X8.433Y-64.338
X12.522Y-61.874
X12.522Y-62.574
X15.062Y-47.219
X16.612Y-15.646
X20.193Y-32.36
X21.26Y-42.24
X22.631Y-57.836
X22.885Y-59.69
X24.867Y-61.3
X27.408Y-65.836
X28.169Y-45.618
X29.388Y-25.629
X29.388Y-27.991
X30.404Y-21.946
X30.886Y-40.208
X31.217Y-57.261
X32.385Y-57.836
X33.731Y-61.29
X36.271Y-33.299
X36.297Y-45.542
X36.297Y-62.56
X37.047Y-9.072
X37.566Y-55.652
X37.616Y-18.163
X38.176Y-29.997
X38.521Y-9.042
X38.837Y-57.734
X39.218Y-29.718
X39.726Y-47.6
X40.107Y-61.874
X41.275Y-26.924
X41.377Y-40.746
X41.377Y-61.62
X42.545Y-22.327
X42.545Y-26.924
X42.697Y-30.429
X43.358Y-56.185
X43.663Y-16.434
X43.764Y-22.403
X46.304Y-27.661
X49.581Y-14.402
X51.918Y-31.725
T3
X8.88Y-58.471
X11.42Y-58.471
X13.96Y-58.471
X16.5Y-58.471
T4
X21.031Y-4.547
T5
X18.491Y-2.007
X18.491Y-7.087
X23.571Y-2.007
X23.571Y-7.087
T6
X3.5Y-3.5
X3.5Y-64.0
X51.5Y-3.5
T2
X33.526Y-1.922G85X33.526Y-1.322
G05
X33.526Y-6.352G85X33.526Y-5.252
G05
X42.166Y-1.922G85X42.166Y-1.322
G05
X42.166Y-6.352G85X42.166Y-5.252
G05
T0
M30
