G04 #@! TF.GenerationSoftware,KiCad,Pcbnew,6.0.9-1.fc36*
G04 #@! TF.CreationDate,2022-11-14T14:18:14-03:00*
G04 #@! TF.ProjectId,bs_transceiver,62735f74-7261-46e7-9363-65697665722e,Rev 2*
G04 #@! TF.SameCoordinates,Original*
G04 #@! TF.FileFunction,Legend,Top*
G04 #@! TF.FilePolarity,Positive*
%FSLAX46Y46*%
G04 Gerber Fmt 4.6, Leading zero omitted, Abs format (unit mm)*
G04 Created by KiCad (PCBNEW 6.0.9-1.fc36) date 2022-11-14 14:18:14*
%MOMM*%
%LPD*%
G01*
G04 APERTURE LIST*
G04 Aperture macros list*
%AMRoundRect*
0 Rectangle with rounded corners*
0 $1 Rounding radius*
0 $2 $3 $4 $5 $6 $7 $8 $9 X,Y pos of 4 corners*
0 Add a 4 corners polygon primitive as box body*
4,1,4,$2,$3,$4,$5,$6,$7,$8,$9,$2,$3,0*
0 Add four circle primitives for the rounded corners*
1,1,$1+$1,$2,$3*
1,1,$1+$1,$4,$5*
1,1,$1+$1,$6,$7*
1,1,$1+$1,$8,$9*
0 Add four rect primitives between the rounded corners*
20,1,$1+$1,$2,$3,$4,$5,0*
20,1,$1+$1,$4,$5,$6,$7,0*
20,1,$1+$1,$6,$7,$8,$9,0*
20,1,$1+$1,$8,$9,$2,$3,0*%
%AMFreePoly0*
4,1,22,0.500000,-0.750000,0.000000,-0.750000,0.000000,-0.745033,-0.079941,-0.743568,-0.215256,-0.701293,-0.333266,-0.622738,-0.424486,-0.514219,-0.481581,-0.384460,-0.499164,-0.250000,-0.500000,-0.250000,-0.500000,0.250000,-0.499164,0.250000,-0.499963,0.256109,-0.478152,0.396186,-0.417904,0.524511,-0.324060,0.630769,-0.204165,0.706417,-0.067858,0.745374,0.000000,0.744959,0.000000,0.750000,
0.500000,0.750000,0.500000,-0.750000,0.500000,-0.750000,$1*%
%AMFreePoly1*
4,1,20,0.000000,0.744959,0.073905,0.744508,0.209726,0.703889,0.328688,0.626782,0.421226,0.519385,0.479903,0.390333,0.500000,0.250000,0.500000,-0.250000,0.499851,-0.262216,0.476331,-0.402017,0.414519,-0.529596,0.319384,-0.634700,0.198574,-0.708877,0.061801,-0.746166,0.000000,-0.745033,0.000000,-0.750000,-0.500000,-0.750000,-0.500000,0.750000,0.000000,0.750000,0.000000,0.744959,
0.000000,0.744959,$1*%
G04 Aperture macros list end*
%ADD10C,0.200000*%
%ADD11C,0.150000*%
%ADD12C,0.120000*%
%ADD13C,0.010000*%
%ADD14C,0.127000*%
%ADD15C,0.100000*%
%ADD16RoundRect,0.150000X-0.150000X0.587500X-0.150000X-0.587500X0.150000X-0.587500X0.150000X0.587500X0*%
%ADD17C,5.600000*%
%ADD18C,3.600000*%
%ADD19RoundRect,0.225000X-0.250000X0.225000X-0.250000X-0.225000X0.250000X-0.225000X0.250000X0.225000X0*%
%ADD20R,0.900000X2.000000*%
%ADD21R,2.000000X0.900000*%
%ADD22R,5.000000X5.000000*%
%ADD23R,2.180000X1.600000*%
%ADD24RoundRect,0.225000X0.250000X-0.225000X0.250000X0.225000X-0.250000X0.225000X-0.250000X-0.225000X0*%
%ADD25R,4.500000X2.000000*%
%ADD26FreePoly0,270.000000*%
%ADD27FreePoly1,270.000000*%
%ADD28RoundRect,0.200000X0.275000X-0.200000X0.275000X0.200000X-0.275000X0.200000X-0.275000X-0.200000X0*%
%ADD29RoundRect,0.225000X0.225000X0.250000X-0.225000X0.250000X-0.225000X-0.250000X0.225000X-0.250000X0*%
%ADD30RoundRect,0.200000X-0.275000X0.200000X-0.275000X-0.200000X0.275000X-0.200000X0.275000X0.200000X0*%
%ADD31RoundRect,0.150000X-0.150000X0.825000X-0.150000X-0.825000X0.150000X-0.825000X0.150000X0.825000X0*%
%ADD32C,3.200000*%
%ADD33RoundRect,0.063500X0.650000X-1.000000X0.650000X1.000000X-0.650000X1.000000X-0.650000X-1.000000X0*%
%ADD34RoundRect,0.063500X2.350000X-5.750000X2.350000X5.750000X-2.350000X5.750000X-2.350000X-5.750000X0*%
%ADD35RoundRect,0.250000X0.787500X1.025000X-0.787500X1.025000X-0.787500X-1.025000X0.787500X-1.025000X0*%
%ADD36RoundRect,0.150000X-0.150000X0.512500X-0.150000X-0.512500X0.150000X-0.512500X0.150000X0.512500X0*%
%ADD37C,2.500000*%
%ADD38C,2.600000*%
%ADD39R,1.700000X1.700000*%
%ADD40O,1.700000X1.700000*%
%ADD41C,0.650000*%
%ADD42R,0.600000X2.450000*%
%ADD43R,0.300000X2.450000*%
G04 APERTURE END LIST*
D10*
X53030380Y-52717409D02*
X53030380Y-53193600D01*
X52030380Y-53193600D01*
X53030380Y-52384076D02*
X52363714Y-52384076D01*
X52030380Y-52384076D02*
X52078000Y-52431695D01*
X52125619Y-52384076D01*
X52078000Y-52336457D01*
X52030380Y-52384076D01*
X52125619Y-52384076D01*
X52982761Y-51479314D02*
X53030380Y-51574552D01*
X53030380Y-51765028D01*
X52982761Y-51860266D01*
X52935142Y-51907885D01*
X52839904Y-51955504D01*
X52554190Y-51955504D01*
X52458952Y-51907885D01*
X52411333Y-51860266D01*
X52363714Y-51765028D01*
X52363714Y-51574552D01*
X52411333Y-51479314D01*
X52982761Y-50669790D02*
X53030380Y-50765028D01*
X53030380Y-50955504D01*
X52982761Y-51050742D01*
X52887523Y-51098361D01*
X52506571Y-51098361D01*
X52411333Y-51050742D01*
X52363714Y-50955504D01*
X52363714Y-50765028D01*
X52411333Y-50669790D01*
X52506571Y-50622171D01*
X52601809Y-50622171D01*
X52697047Y-51098361D01*
X52363714Y-50193600D02*
X53030380Y-50193600D01*
X52458952Y-50193600D02*
X52411333Y-50145980D01*
X52363714Y-50050742D01*
X52363714Y-49907885D01*
X52411333Y-49812647D01*
X52506571Y-49765028D01*
X53030380Y-49765028D01*
X52982761Y-49336457D02*
X53030380Y-49241219D01*
X53030380Y-49050742D01*
X52982761Y-48955504D01*
X52887523Y-48907885D01*
X52839904Y-48907885D01*
X52744666Y-48955504D01*
X52697047Y-49050742D01*
X52697047Y-49193600D01*
X52649428Y-49288838D01*
X52554190Y-49336457D01*
X52506571Y-49336457D01*
X52411333Y-49288838D01*
X52363714Y-49193600D01*
X52363714Y-49050742D01*
X52411333Y-48955504D01*
X52982761Y-48098361D02*
X53030380Y-48193600D01*
X53030380Y-48384076D01*
X52982761Y-48479314D01*
X52887523Y-48526933D01*
X52506571Y-48526933D01*
X52411333Y-48479314D01*
X52363714Y-48384076D01*
X52363714Y-48193600D01*
X52411333Y-48098361D01*
X52506571Y-48050742D01*
X52601809Y-48050742D01*
X52697047Y-48526933D01*
X53030380Y-47193600D02*
X52030380Y-47193600D01*
X52982761Y-47193600D02*
X53030380Y-47288838D01*
X53030380Y-47479314D01*
X52982761Y-47574552D01*
X52935142Y-47622171D01*
X52839904Y-47669790D01*
X52554190Y-47669790D01*
X52458952Y-47622171D01*
X52411333Y-47574552D01*
X52363714Y-47479314D01*
X52363714Y-47288838D01*
X52411333Y-47193600D01*
X52363714Y-45526933D02*
X53030380Y-45526933D01*
X52363714Y-45955504D02*
X52887523Y-45955504D01*
X52982761Y-45907885D01*
X53030380Y-45812647D01*
X53030380Y-45669790D01*
X52982761Y-45574552D01*
X52935142Y-45526933D01*
X52363714Y-45050742D02*
X53030380Y-45050742D01*
X52458952Y-45050742D02*
X52411333Y-45003123D01*
X52363714Y-44907885D01*
X52363714Y-44765028D01*
X52411333Y-44669790D01*
X52506571Y-44622171D01*
X53030380Y-44622171D01*
X53030380Y-43717409D02*
X52030380Y-43717409D01*
X52982761Y-43717409D02*
X53030380Y-43812647D01*
X53030380Y-44003123D01*
X52982761Y-44098361D01*
X52935142Y-44145980D01*
X52839904Y-44193600D01*
X52554190Y-44193600D01*
X52458952Y-44145980D01*
X52411333Y-44098361D01*
X52363714Y-44003123D01*
X52363714Y-43812647D01*
X52411333Y-43717409D01*
X52982761Y-42860266D02*
X53030380Y-42955504D01*
X53030380Y-43145980D01*
X52982761Y-43241219D01*
X52887523Y-43288838D01*
X52506571Y-43288838D01*
X52411333Y-43241219D01*
X52363714Y-43145980D01*
X52363714Y-42955504D01*
X52411333Y-42860266D01*
X52506571Y-42812647D01*
X52601809Y-42812647D01*
X52697047Y-43288838D01*
X53030380Y-42384076D02*
X52363714Y-42384076D01*
X52554190Y-42384076D02*
X52458952Y-42336457D01*
X52411333Y-42288838D01*
X52363714Y-42193600D01*
X52363714Y-42098361D01*
X52935142Y-40431695D02*
X52982761Y-40479314D01*
X53030380Y-40622171D01*
X53030380Y-40717409D01*
X52982761Y-40860266D01*
X52887523Y-40955504D01*
X52792285Y-41003123D01*
X52601809Y-41050742D01*
X52458952Y-41050742D01*
X52268476Y-41003123D01*
X52173238Y-40955504D01*
X52078000Y-40860266D01*
X52030380Y-40717409D01*
X52030380Y-40622171D01*
X52078000Y-40479314D01*
X52125619Y-40431695D01*
X52506571Y-40003123D02*
X52506571Y-39669790D01*
X53030380Y-39526933D02*
X53030380Y-40003123D01*
X52030380Y-40003123D01*
X52030380Y-39526933D01*
X53030380Y-38526933D02*
X52554190Y-38860266D01*
X53030380Y-39098361D02*
X52030380Y-39098361D01*
X52030380Y-38717409D01*
X52078000Y-38622171D01*
X52125619Y-38574552D01*
X52220857Y-38526933D01*
X52363714Y-38526933D01*
X52458952Y-38574552D01*
X52506571Y-38622171D01*
X52554190Y-38717409D01*
X52554190Y-39098361D01*
X53030380Y-38098361D02*
X52030380Y-38098361D01*
X53030380Y-37526933D01*
X52030380Y-37526933D01*
X52649428Y-37050742D02*
X52649428Y-36288838D01*
X52030380Y-35622171D02*
X52030380Y-35431695D01*
X52078000Y-35336457D01*
X52173238Y-35241219D01*
X52363714Y-35193600D01*
X52697047Y-35193600D01*
X52887523Y-35241219D01*
X52982761Y-35336457D01*
X53030380Y-35431695D01*
X53030380Y-35622171D01*
X52982761Y-35717409D01*
X52887523Y-35812647D01*
X52697047Y-35860266D01*
X52363714Y-35860266D01*
X52173238Y-35812647D01*
X52078000Y-35717409D01*
X52030380Y-35622171D01*
X53030380Y-34765028D02*
X52030380Y-34765028D01*
X52506571Y-34765028D02*
X52506571Y-34193600D01*
X53030380Y-34193600D02*
X52030380Y-34193600D01*
X53030380Y-33241219D02*
X53030380Y-33717409D01*
X52030380Y-33717409D01*
X52649428Y-32907885D02*
X52649428Y-32145980D01*
X52982761Y-31717409D02*
X53030380Y-31574552D01*
X53030380Y-31336457D01*
X52982761Y-31241219D01*
X52935142Y-31193600D01*
X52839904Y-31145980D01*
X52744666Y-31145980D01*
X52649428Y-31193600D01*
X52601809Y-31241219D01*
X52554190Y-31336457D01*
X52506571Y-31526933D01*
X52458952Y-31622171D01*
X52411333Y-31669790D01*
X52316095Y-31717409D01*
X52220857Y-31717409D01*
X52125619Y-31669790D01*
X52078000Y-31622171D01*
X52030380Y-31526933D01*
X52030380Y-31288838D01*
X52078000Y-31145980D01*
X52363714Y-30050742D02*
X53030380Y-29812647D01*
X52363714Y-29574552D01*
X52125619Y-29241219D02*
X52078000Y-29193600D01*
X52030380Y-29098361D01*
X52030380Y-28860266D01*
X52078000Y-28765028D01*
X52125619Y-28717409D01*
X52220857Y-28669790D01*
X52316095Y-28669790D01*
X52458952Y-28717409D01*
X53030380Y-29288838D01*
X53030380Y-28669790D01*
X53030380Y-27336457D02*
X52982761Y-27431695D01*
X52935142Y-27479314D01*
X52839904Y-27526933D01*
X52554190Y-27526933D01*
X52458952Y-27479314D01*
X52411333Y-27431695D01*
X52363714Y-27336457D01*
X52363714Y-27193600D01*
X52411333Y-27098361D01*
X52458952Y-27050742D01*
X52554190Y-27003123D01*
X52839904Y-27003123D01*
X52935142Y-27050742D01*
X52982761Y-27098361D01*
X53030380Y-27193600D01*
X53030380Y-27336457D01*
X53030380Y-26574552D02*
X52363714Y-26574552D01*
X52554190Y-26574552D02*
X52458952Y-26526933D01*
X52411333Y-26479314D01*
X52363714Y-26384076D01*
X52363714Y-26288838D01*
X53030380Y-25050742D02*
X52982761Y-25145980D01*
X52887523Y-25193600D01*
X52030380Y-25193600D01*
X53030380Y-24241219D02*
X52506571Y-24241219D01*
X52411333Y-24288838D01*
X52363714Y-24384076D01*
X52363714Y-24574552D01*
X52411333Y-24669790D01*
X52982761Y-24241219D02*
X53030380Y-24336457D01*
X53030380Y-24574552D01*
X52982761Y-24669790D01*
X52887523Y-24717409D01*
X52792285Y-24717409D01*
X52697047Y-24669790D01*
X52649428Y-24574552D01*
X52649428Y-24336457D01*
X52601809Y-24241219D01*
X52363714Y-23907885D02*
X52363714Y-23526933D01*
X52030380Y-23765028D02*
X52887523Y-23765028D01*
X52982761Y-23717409D01*
X53030380Y-23622171D01*
X53030380Y-23526933D01*
X52982761Y-22812647D02*
X53030380Y-22907885D01*
X53030380Y-23098361D01*
X52982761Y-23193600D01*
X52887523Y-23241219D01*
X52506571Y-23241219D01*
X52411333Y-23193600D01*
X52363714Y-23098361D01*
X52363714Y-22907885D01*
X52411333Y-22812647D01*
X52506571Y-22765028D01*
X52601809Y-22765028D01*
X52697047Y-23241219D01*
X53030380Y-22336457D02*
X52363714Y-22336457D01*
X52554190Y-22336457D02*
X52458952Y-22288838D01*
X52411333Y-22241219D01*
X52363714Y-22145980D01*
X52363714Y-22050742D01*
X8665104Y-52014171D02*
X8807961Y-52061790D01*
X8855580Y-52109409D01*
X8903199Y-52204647D01*
X8903199Y-52347504D01*
X8855580Y-52442742D01*
X8807961Y-52490361D01*
X8712723Y-52537980D01*
X8331771Y-52537980D01*
X8331771Y-51537980D01*
X8665104Y-51537980D01*
X8760342Y-51585600D01*
X8807961Y-51633219D01*
X8855580Y-51728457D01*
X8855580Y-51823695D01*
X8807961Y-51918933D01*
X8760342Y-51966552D01*
X8665104Y-52014171D01*
X8331771Y-52014171D01*
X9760342Y-52537980D02*
X9760342Y-52014171D01*
X9712723Y-51918933D01*
X9617485Y-51871314D01*
X9427009Y-51871314D01*
X9331771Y-51918933D01*
X9760342Y-52490361D02*
X9665104Y-52537980D01*
X9427009Y-52537980D01*
X9331771Y-52490361D01*
X9284152Y-52395123D01*
X9284152Y-52299885D01*
X9331771Y-52204647D01*
X9427009Y-52157028D01*
X9665104Y-52157028D01*
X9760342Y-52109409D01*
X10188914Y-52490361D02*
X10284152Y-52537980D01*
X10474628Y-52537980D01*
X10569866Y-52490361D01*
X10617485Y-52395123D01*
X10617485Y-52347504D01*
X10569866Y-52252266D01*
X10474628Y-52204647D01*
X10331771Y-52204647D01*
X10236533Y-52157028D01*
X10188914Y-52061790D01*
X10188914Y-52014171D01*
X10236533Y-51918933D01*
X10331771Y-51871314D01*
X10474628Y-51871314D01*
X10569866Y-51918933D01*
X11427009Y-52490361D02*
X11331771Y-52537980D01*
X11141295Y-52537980D01*
X11046057Y-52490361D01*
X10998438Y-52395123D01*
X10998438Y-52014171D01*
X11046057Y-51918933D01*
X11141295Y-51871314D01*
X11331771Y-51871314D01*
X11427009Y-51918933D01*
X11474628Y-52014171D01*
X11474628Y-52109409D01*
X10998438Y-52204647D01*
X12617485Y-52490361D02*
X12760342Y-52537980D01*
X12998438Y-52537980D01*
X13093676Y-52490361D01*
X13141295Y-52442742D01*
X13188914Y-52347504D01*
X13188914Y-52252266D01*
X13141295Y-52157028D01*
X13093676Y-52109409D01*
X12998438Y-52061790D01*
X12807961Y-52014171D01*
X12712723Y-51966552D01*
X12665104Y-51918933D01*
X12617485Y-51823695D01*
X12617485Y-51728457D01*
X12665104Y-51633219D01*
X12712723Y-51585600D01*
X12807961Y-51537980D01*
X13046057Y-51537980D01*
X13188914Y-51585600D01*
X13474628Y-51871314D02*
X13855580Y-51871314D01*
X13617485Y-51537980D02*
X13617485Y-52395123D01*
X13665104Y-52490361D01*
X13760342Y-52537980D01*
X13855580Y-52537980D01*
X14617485Y-52537980D02*
X14617485Y-52014171D01*
X14569866Y-51918933D01*
X14474628Y-51871314D01*
X14284152Y-51871314D01*
X14188914Y-51918933D01*
X14617485Y-52490361D02*
X14522247Y-52537980D01*
X14284152Y-52537980D01*
X14188914Y-52490361D01*
X14141295Y-52395123D01*
X14141295Y-52299885D01*
X14188914Y-52204647D01*
X14284152Y-52157028D01*
X14522247Y-52157028D01*
X14617485Y-52109409D01*
X14950819Y-51871314D02*
X15331771Y-51871314D01*
X15093676Y-51537980D02*
X15093676Y-52395123D01*
X15141295Y-52490361D01*
X15236533Y-52537980D01*
X15331771Y-52537980D01*
X15665104Y-52537980D02*
X15665104Y-51871314D01*
X15665104Y-51537980D02*
X15617485Y-51585600D01*
X15665104Y-51633219D01*
X15712723Y-51585600D01*
X15665104Y-51537980D01*
X15665104Y-51633219D01*
X16284152Y-52537980D02*
X16188914Y-52490361D01*
X16141295Y-52442742D01*
X16093676Y-52347504D01*
X16093676Y-52061790D01*
X16141295Y-51966552D01*
X16188914Y-51918933D01*
X16284152Y-51871314D01*
X16427009Y-51871314D01*
X16522247Y-51918933D01*
X16569866Y-51966552D01*
X16617485Y-52061790D01*
X16617485Y-52347504D01*
X16569866Y-52442742D01*
X16522247Y-52490361D01*
X16427009Y-52537980D01*
X16284152Y-52537980D01*
X17046057Y-51871314D02*
X17046057Y-52537980D01*
X17046057Y-51966552D02*
X17093676Y-51918933D01*
X17188914Y-51871314D01*
X17331771Y-51871314D01*
X17427009Y-51918933D01*
X17474628Y-52014171D01*
X17474628Y-52537980D01*
X8784152Y-53147980D02*
X9355580Y-53147980D01*
X9069866Y-54147980D02*
X9069866Y-53147980D01*
X9688914Y-54147980D02*
X9688914Y-53481314D01*
X9688914Y-53671790D02*
X9736533Y-53576552D01*
X9784152Y-53528933D01*
X9879390Y-53481314D01*
X9974628Y-53481314D01*
X10736533Y-54147980D02*
X10736533Y-53624171D01*
X10688914Y-53528933D01*
X10593676Y-53481314D01*
X10403200Y-53481314D01*
X10307961Y-53528933D01*
X10736533Y-54100361D02*
X10641295Y-54147980D01*
X10403200Y-54147980D01*
X10307961Y-54100361D01*
X10260342Y-54005123D01*
X10260342Y-53909885D01*
X10307961Y-53814647D01*
X10403200Y-53767028D01*
X10641295Y-53767028D01*
X10736533Y-53719409D01*
X11212723Y-53481314D02*
X11212723Y-54147980D01*
X11212723Y-53576552D02*
X11260342Y-53528933D01*
X11355580Y-53481314D01*
X11498438Y-53481314D01*
X11593676Y-53528933D01*
X11641295Y-53624171D01*
X11641295Y-54147980D01*
X12069866Y-54100361D02*
X12165104Y-54147980D01*
X12355580Y-54147980D01*
X12450819Y-54100361D01*
X12498438Y-54005123D01*
X12498438Y-53957504D01*
X12450819Y-53862266D01*
X12355580Y-53814647D01*
X12212723Y-53814647D01*
X12117485Y-53767028D01*
X12069866Y-53671790D01*
X12069866Y-53624171D01*
X12117485Y-53528933D01*
X12212723Y-53481314D01*
X12355580Y-53481314D01*
X12450819Y-53528933D01*
X13355580Y-54100361D02*
X13260342Y-54147980D01*
X13069866Y-54147980D01*
X12974628Y-54100361D01*
X12927009Y-54052742D01*
X12879390Y-53957504D01*
X12879390Y-53671790D01*
X12927009Y-53576552D01*
X12974628Y-53528933D01*
X13069866Y-53481314D01*
X13260342Y-53481314D01*
X13355580Y-53528933D01*
X14165104Y-54100361D02*
X14069866Y-54147980D01*
X13879390Y-54147980D01*
X13784152Y-54100361D01*
X13736533Y-54005123D01*
X13736533Y-53624171D01*
X13784152Y-53528933D01*
X13879390Y-53481314D01*
X14069866Y-53481314D01*
X14165104Y-53528933D01*
X14212723Y-53624171D01*
X14212723Y-53719409D01*
X13736533Y-53814647D01*
X14641295Y-54147980D02*
X14641295Y-53481314D01*
X14641295Y-53147980D02*
X14593676Y-53195600D01*
X14641295Y-53243219D01*
X14688914Y-53195600D01*
X14641295Y-53147980D01*
X14641295Y-53243219D01*
X15022247Y-53481314D02*
X15260342Y-54147980D01*
X15498438Y-53481314D01*
X16260342Y-54100361D02*
X16165104Y-54147980D01*
X15974628Y-54147980D01*
X15879390Y-54100361D01*
X15831771Y-54005123D01*
X15831771Y-53624171D01*
X15879390Y-53528933D01*
X15974628Y-53481314D01*
X16165104Y-53481314D01*
X16260342Y-53528933D01*
X16307961Y-53624171D01*
X16307961Y-53719409D01*
X15831771Y-53814647D01*
X16736533Y-54147980D02*
X16736533Y-53481314D01*
X16736533Y-53671790D02*
X16784152Y-53576552D01*
X16831771Y-53528933D01*
X16927009Y-53481314D01*
X17022247Y-53481314D01*
X11165104Y-55757980D02*
X11165104Y-55091314D01*
X11165104Y-55281790D02*
X11212723Y-55186552D01*
X11260342Y-55138933D01*
X11355580Y-55091314D01*
X11450819Y-55091314D01*
X12165104Y-55710361D02*
X12069866Y-55757980D01*
X11879390Y-55757980D01*
X11784152Y-55710361D01*
X11736533Y-55615123D01*
X11736533Y-55234171D01*
X11784152Y-55138933D01*
X11879390Y-55091314D01*
X12069866Y-55091314D01*
X12165104Y-55138933D01*
X12212723Y-55234171D01*
X12212723Y-55329409D01*
X11736533Y-55424647D01*
X12546057Y-55091314D02*
X12784152Y-55757980D01*
X13022247Y-55091314D01*
X14117485Y-54853219D02*
X14165104Y-54805600D01*
X14260342Y-54757980D01*
X14498438Y-54757980D01*
X14593676Y-54805600D01*
X14641295Y-54853219D01*
X14688914Y-54948457D01*
X14688914Y-55043695D01*
X14641295Y-55186552D01*
X14069866Y-55757980D01*
X14688914Y-55757980D01*
D11*
X46584819Y-32734238D02*
X46537200Y-32829476D01*
X46441961Y-32924714D01*
X46299104Y-33067571D01*
X46251485Y-33162809D01*
X46251485Y-33258047D01*
X46489580Y-33210428D02*
X46441961Y-33305666D01*
X46346723Y-33400904D01*
X46156247Y-33448523D01*
X45822914Y-33448523D01*
X45632438Y-33400904D01*
X45537200Y-33305666D01*
X45489580Y-33210428D01*
X45489580Y-33019952D01*
X45537200Y-32924714D01*
X45632438Y-32829476D01*
X45822914Y-32781857D01*
X46156247Y-32781857D01*
X46346723Y-32829476D01*
X46441961Y-32924714D01*
X46489580Y-33019952D01*
X46489580Y-33210428D01*
X46489580Y-31829476D02*
X46489580Y-32400904D01*
X46489580Y-32115190D02*
X45489580Y-32115190D01*
X45632438Y-32210428D01*
X45727676Y-32305666D01*
X45775295Y-32400904D01*
X48624742Y-23255266D02*
X48672361Y-23302885D01*
X48719980Y-23445742D01*
X48719980Y-23540980D01*
X48672361Y-23683838D01*
X48577123Y-23779076D01*
X48481885Y-23826695D01*
X48291409Y-23874314D01*
X48148552Y-23874314D01*
X47958076Y-23826695D01*
X47862838Y-23779076D01*
X47767600Y-23683838D01*
X47719980Y-23540980D01*
X47719980Y-23445742D01*
X47767600Y-23302885D01*
X47815219Y-23255266D01*
X47719980Y-22921933D02*
X47719980Y-22302885D01*
X48100933Y-22636219D01*
X48100933Y-22493361D01*
X48148552Y-22398123D01*
X48196171Y-22350504D01*
X48291409Y-22302885D01*
X48529504Y-22302885D01*
X48624742Y-22350504D01*
X48672361Y-22398123D01*
X48719980Y-22493361D01*
X48719980Y-22779076D01*
X48672361Y-22874314D01*
X48624742Y-22921933D01*
X25199695Y-40023380D02*
X25199695Y-40832904D01*
X25247314Y-40928142D01*
X25294933Y-40975761D01*
X25390171Y-41023380D01*
X25580647Y-41023380D01*
X25675885Y-40975761D01*
X25723504Y-40928142D01*
X25771123Y-40832904D01*
X25771123Y-40023380D01*
X26675885Y-40356714D02*
X26675885Y-41023380D01*
X26437790Y-39975761D02*
X26199695Y-40690047D01*
X26818742Y-40690047D01*
X28137142Y-15813066D02*
X28184761Y-15860685D01*
X28232380Y-16003542D01*
X28232380Y-16098780D01*
X28184761Y-16241638D01*
X28089523Y-16336876D01*
X27994285Y-16384495D01*
X27803809Y-16432114D01*
X27660952Y-16432114D01*
X27470476Y-16384495D01*
X27375238Y-16336876D01*
X27280000Y-16241638D01*
X27232380Y-16098780D01*
X27232380Y-16003542D01*
X27280000Y-15860685D01*
X27327619Y-15813066D01*
X27565714Y-14955923D02*
X28232380Y-14955923D01*
X27184761Y-15194019D02*
X27899047Y-15432114D01*
X27899047Y-14813066D01*
X30435609Y-19813590D02*
X30435609Y-20289780D01*
X30102276Y-19289780D02*
X30435609Y-19813590D01*
X30768942Y-19289780D01*
X31626085Y-20289780D02*
X31054657Y-20289780D01*
X31340371Y-20289780D02*
X31340371Y-19289780D01*
X31245133Y-19432638D01*
X31149895Y-19527876D01*
X31054657Y-19575495D01*
X8288180Y-49336933D02*
X9002466Y-49336933D01*
X9145323Y-49384552D01*
X9240561Y-49479790D01*
X9288180Y-49622647D01*
X9288180Y-49717885D01*
X9288180Y-48860742D02*
X8288180Y-48860742D01*
X8288180Y-48479790D01*
X8335800Y-48384552D01*
X8383419Y-48336933D01*
X8478657Y-48289314D01*
X8621514Y-48289314D01*
X8716752Y-48336933D01*
X8764371Y-48384552D01*
X8811990Y-48479790D01*
X8811990Y-48860742D01*
X9288180Y-47336933D02*
X9288180Y-47908361D01*
X9288180Y-47622647D02*
X8288180Y-47622647D01*
X8431038Y-47717885D01*
X8526276Y-47813123D01*
X8573895Y-47908361D01*
X27614980Y-65177466D02*
X27138790Y-65510800D01*
X27614980Y-65748895D02*
X26614980Y-65748895D01*
X26614980Y-65367942D01*
X26662600Y-65272704D01*
X26710219Y-65225085D01*
X26805457Y-65177466D01*
X26948314Y-65177466D01*
X27043552Y-65225085D01*
X27091171Y-65272704D01*
X27138790Y-65367942D01*
X27138790Y-65748895D01*
X26614980Y-64844133D02*
X26614980Y-64177466D01*
X27614980Y-64606038D01*
X31608733Y-31192742D02*
X31561114Y-31240361D01*
X31418257Y-31287980D01*
X31323019Y-31287980D01*
X31180161Y-31240361D01*
X31084923Y-31145123D01*
X31037304Y-31049885D01*
X30989685Y-30859409D01*
X30989685Y-30716552D01*
X31037304Y-30526076D01*
X31084923Y-30430838D01*
X31180161Y-30335600D01*
X31323019Y-30287980D01*
X31418257Y-30287980D01*
X31561114Y-30335600D01*
X31608733Y-30383219D01*
X32513495Y-30287980D02*
X32037304Y-30287980D01*
X31989685Y-30764171D01*
X32037304Y-30716552D01*
X32132542Y-30668933D01*
X32370638Y-30668933D01*
X32465876Y-30716552D01*
X32513495Y-30764171D01*
X32561114Y-30859409D01*
X32561114Y-31097504D01*
X32513495Y-31192742D01*
X32465876Y-31240361D01*
X32370638Y-31287980D01*
X32132542Y-31287980D01*
X32037304Y-31240361D01*
X31989685Y-31192742D01*
X46237142Y-15813066D02*
X46284761Y-15860685D01*
X46332380Y-16003542D01*
X46332380Y-16098780D01*
X46284761Y-16241638D01*
X46189523Y-16336876D01*
X46094285Y-16384495D01*
X45903809Y-16432114D01*
X45760952Y-16432114D01*
X45570476Y-16384495D01*
X45475238Y-16336876D01*
X45380000Y-16241638D01*
X45332380Y-16098780D01*
X45332380Y-16003542D01*
X45380000Y-15860685D01*
X45427619Y-15813066D01*
X46332380Y-14860685D02*
X46332380Y-15432114D01*
X46332380Y-15146400D02*
X45332380Y-15146400D01*
X45475238Y-15241638D01*
X45570476Y-15336876D01*
X45618095Y-15432114D01*
X34168066Y-41079361D02*
X34310923Y-41126980D01*
X34549019Y-41126980D01*
X34644257Y-41079361D01*
X34691876Y-41031742D01*
X34739495Y-40936504D01*
X34739495Y-40841266D01*
X34691876Y-40746028D01*
X34644257Y-40698409D01*
X34549019Y-40650790D01*
X34358542Y-40603171D01*
X34263304Y-40555552D01*
X34215685Y-40507933D01*
X34168066Y-40412695D01*
X34168066Y-40317457D01*
X34215685Y-40222219D01*
X34263304Y-40174600D01*
X34358542Y-40126980D01*
X34596638Y-40126980D01*
X34739495Y-40174600D01*
X35072828Y-40126980D02*
X35310923Y-41126980D01*
X35501400Y-40412695D01*
X35691876Y-41126980D01*
X35929971Y-40126980D01*
X36834733Y-41126980D02*
X36263304Y-41126980D01*
X36549019Y-41126980D02*
X36549019Y-40126980D01*
X36453780Y-40269838D01*
X36358542Y-40365076D01*
X36263304Y-40412695D01*
X44554380Y-28741666D02*
X44078190Y-29075000D01*
X44554380Y-29313095D02*
X43554380Y-29313095D01*
X43554380Y-28932142D01*
X43602000Y-28836904D01*
X43649619Y-28789285D01*
X43744857Y-28741666D01*
X43887714Y-28741666D01*
X43982952Y-28789285D01*
X44030571Y-28836904D01*
X44078190Y-28932142D01*
X44078190Y-29313095D01*
X43887714Y-27884523D02*
X44554380Y-27884523D01*
X43506761Y-28122619D02*
X44221047Y-28360714D01*
X44221047Y-27741666D01*
X27452580Y-24042666D02*
X26976390Y-24376000D01*
X27452580Y-24614095D02*
X26452580Y-24614095D01*
X26452580Y-24233142D01*
X26500200Y-24137904D01*
X26547819Y-24090285D01*
X26643057Y-24042666D01*
X26785914Y-24042666D01*
X26881152Y-24090285D01*
X26928771Y-24137904D01*
X26976390Y-24233142D01*
X26976390Y-24614095D01*
X27452580Y-23090285D02*
X27452580Y-23661714D01*
X27452580Y-23376000D02*
X26452580Y-23376000D01*
X26595438Y-23471238D01*
X26690676Y-23566476D01*
X26738295Y-23661714D01*
X40279580Y-28741666D02*
X39803390Y-29075000D01*
X40279580Y-29313095D02*
X39279580Y-29313095D01*
X39279580Y-28932142D01*
X39327200Y-28836904D01*
X39374819Y-28789285D01*
X39470057Y-28741666D01*
X39612914Y-28741666D01*
X39708152Y-28789285D01*
X39755771Y-28836904D01*
X39803390Y-28932142D01*
X39803390Y-29313095D01*
X39279580Y-27836904D02*
X39279580Y-28313095D01*
X39755771Y-28360714D01*
X39708152Y-28313095D01*
X39660533Y-28217857D01*
X39660533Y-27979761D01*
X39708152Y-27884523D01*
X39755771Y-27836904D01*
X39851009Y-27789285D01*
X40089104Y-27789285D01*
X40184342Y-27836904D01*
X40231961Y-27884523D01*
X40279580Y-27979761D01*
X40279580Y-28217857D01*
X40231961Y-28313095D01*
X40184342Y-28360714D01*
X40998380Y-10987066D02*
X40522190Y-11320400D01*
X40998380Y-11558495D02*
X39998380Y-11558495D01*
X39998380Y-11177542D01*
X40046000Y-11082304D01*
X40093619Y-11034685D01*
X40188857Y-10987066D01*
X40331714Y-10987066D01*
X40426952Y-11034685D01*
X40474571Y-11082304D01*
X40522190Y-11177542D01*
X40522190Y-11558495D01*
X40093619Y-10606114D02*
X40046000Y-10558495D01*
X39998380Y-10463257D01*
X39998380Y-10225161D01*
X40046000Y-10129923D01*
X40093619Y-10082304D01*
X40188857Y-10034685D01*
X40284095Y-10034685D01*
X40426952Y-10082304D01*
X40998380Y-10653733D01*
X40998380Y-10034685D01*
X34275780Y-23825104D02*
X35085304Y-23825104D01*
X35180542Y-23777485D01*
X35228161Y-23729866D01*
X35275780Y-23634628D01*
X35275780Y-23444152D01*
X35228161Y-23348914D01*
X35180542Y-23301295D01*
X35085304Y-23253676D01*
X34275780Y-23253676D01*
X34371019Y-22825104D02*
X34323400Y-22777485D01*
X34275780Y-22682247D01*
X34275780Y-22444152D01*
X34323400Y-22348914D01*
X34371019Y-22301295D01*
X34466257Y-22253676D01*
X34561495Y-22253676D01*
X34704352Y-22301295D01*
X35275780Y-22872723D01*
X35275780Y-22253676D01*
X38317419Y-32731938D02*
X38269800Y-32827176D01*
X38174561Y-32922414D01*
X38031704Y-33065271D01*
X37984085Y-33160509D01*
X37984085Y-33255747D01*
X38222180Y-33208128D02*
X38174561Y-33303366D01*
X38079323Y-33398604D01*
X37888847Y-33446223D01*
X37555514Y-33446223D01*
X37365038Y-33398604D01*
X37269800Y-33303366D01*
X37222180Y-33208128D01*
X37222180Y-33017652D01*
X37269800Y-32922414D01*
X37365038Y-32827176D01*
X37555514Y-32779557D01*
X37888847Y-32779557D01*
X38079323Y-32827176D01*
X38174561Y-32922414D01*
X38222180Y-33017652D01*
X38222180Y-33208128D01*
X37317419Y-32398604D02*
X37269800Y-32350985D01*
X37222180Y-32255747D01*
X37222180Y-32017652D01*
X37269800Y-31922414D01*
X37317419Y-31874795D01*
X37412657Y-31827176D01*
X37507895Y-31827176D01*
X37650752Y-31874795D01*
X38222180Y-32446223D01*
X38222180Y-31827176D01*
X11441133Y-8867342D02*
X11393514Y-8914961D01*
X11250657Y-8962580D01*
X11155419Y-8962580D01*
X11012561Y-8914961D01*
X10917323Y-8819723D01*
X10869704Y-8724485D01*
X10822085Y-8534009D01*
X10822085Y-8391152D01*
X10869704Y-8200676D01*
X10917323Y-8105438D01*
X11012561Y-8010200D01*
X11155419Y-7962580D01*
X11250657Y-7962580D01*
X11393514Y-8010200D01*
X11441133Y-8057819D01*
X11774466Y-7962580D02*
X12441133Y-7962580D01*
X12012561Y-8962580D01*
X42811780Y-36717266D02*
X42335590Y-37050600D01*
X42811780Y-37288695D02*
X41811780Y-37288695D01*
X41811780Y-36907742D01*
X41859400Y-36812504D01*
X41907019Y-36764885D01*
X42002257Y-36717266D01*
X42145114Y-36717266D01*
X42240352Y-36764885D01*
X42287971Y-36812504D01*
X42335590Y-36907742D01*
X42335590Y-37288695D01*
X41811780Y-35860123D02*
X41811780Y-36050600D01*
X41859400Y-36145838D01*
X41907019Y-36193457D01*
X42049876Y-36288695D01*
X42240352Y-36336314D01*
X42621304Y-36336314D01*
X42716542Y-36288695D01*
X42764161Y-36241076D01*
X42811780Y-36145838D01*
X42811780Y-35955361D01*
X42764161Y-35860123D01*
X42716542Y-35812504D01*
X42621304Y-35764885D01*
X42383209Y-35764885D01*
X42287971Y-35812504D01*
X42240352Y-35860123D01*
X42192733Y-35955361D01*
X42192733Y-36145838D01*
X42240352Y-36241076D01*
X42287971Y-36288695D01*
X42383209Y-36336314D01*
X31240180Y-28651104D02*
X32049704Y-28651104D01*
X32144942Y-28603485D01*
X32192561Y-28555866D01*
X32240180Y-28460628D01*
X32240180Y-28270152D01*
X32192561Y-28174914D01*
X32144942Y-28127295D01*
X32049704Y-28079676D01*
X31240180Y-28079676D01*
X32240180Y-27079676D02*
X32240180Y-27651104D01*
X32240180Y-27365390D02*
X31240180Y-27365390D01*
X31383038Y-27460628D01*
X31478276Y-27555866D01*
X31525895Y-27651104D01*
X32030942Y-24042666D02*
X32078561Y-24090285D01*
X32126180Y-24233142D01*
X32126180Y-24328380D01*
X32078561Y-24471238D01*
X31983323Y-24566476D01*
X31888085Y-24614095D01*
X31697609Y-24661714D01*
X31554752Y-24661714D01*
X31364276Y-24614095D01*
X31269038Y-24566476D01*
X31173800Y-24471238D01*
X31126180Y-24328380D01*
X31126180Y-24233142D01*
X31173800Y-24090285D01*
X31221419Y-24042666D01*
X31221419Y-23661714D02*
X31173800Y-23614095D01*
X31126180Y-23518857D01*
X31126180Y-23280761D01*
X31173800Y-23185523D01*
X31221419Y-23137904D01*
X31316657Y-23090285D01*
X31411895Y-23090285D01*
X31554752Y-23137904D01*
X32126180Y-23709333D01*
X32126180Y-23090285D01*
X25676266Y-3998980D02*
X25676266Y-4713266D01*
X25628647Y-4856123D01*
X25533409Y-4951361D01*
X25390552Y-4998980D01*
X25295314Y-4998980D01*
X26104838Y-4094219D02*
X26152457Y-4046600D01*
X26247695Y-3998980D01*
X26485790Y-3998980D01*
X26581028Y-4046600D01*
X26628647Y-4094219D01*
X26676266Y-4189457D01*
X26676266Y-4284695D01*
X26628647Y-4427552D01*
X26057219Y-4998980D01*
X26676266Y-4998980D01*
X25614380Y-21280333D02*
X26328666Y-21280333D01*
X26471523Y-21327952D01*
X26566761Y-21423190D01*
X26614380Y-21566047D01*
X26614380Y-21661285D01*
X26614380Y-20804142D02*
X25614380Y-20804142D01*
X25614380Y-20423190D01*
X25662000Y-20327952D01*
X25709619Y-20280333D01*
X25804857Y-20232714D01*
X25947714Y-20232714D01*
X26042952Y-20280333D01*
X26090571Y-20327952D01*
X26138190Y-20423190D01*
X26138190Y-20804142D01*
X25709619Y-19851761D02*
X25662000Y-19804142D01*
X25614380Y-19708904D01*
X25614380Y-19470809D01*
X25662000Y-19375571D01*
X25709619Y-19327952D01*
X25804857Y-19280333D01*
X25900095Y-19280333D01*
X26042952Y-19327952D01*
X26614380Y-19899380D01*
X26614380Y-19280333D01*
X18282380Y-58804133D02*
X18996666Y-58804133D01*
X19139523Y-58851752D01*
X19234761Y-58946990D01*
X19282380Y-59089847D01*
X19282380Y-59185085D01*
X19282380Y-57804133D02*
X19282380Y-58375561D01*
X19282380Y-58089847D02*
X18282380Y-58089847D01*
X18425238Y-58185085D01*
X18520476Y-58280323D01*
X18568095Y-58375561D01*
X37975780Y-10987066D02*
X37499590Y-11320400D01*
X37975780Y-11558495D02*
X36975780Y-11558495D01*
X36975780Y-11177542D01*
X37023400Y-11082304D01*
X37071019Y-11034685D01*
X37166257Y-10987066D01*
X37309114Y-10987066D01*
X37404352Y-11034685D01*
X37451971Y-11082304D01*
X37499590Y-11177542D01*
X37499590Y-11558495D01*
X36975780Y-10653733D02*
X36975780Y-10034685D01*
X37356733Y-10368019D01*
X37356733Y-10225161D01*
X37404352Y-10129923D01*
X37451971Y-10082304D01*
X37547209Y-10034685D01*
X37785304Y-10034685D01*
X37880542Y-10082304D01*
X37928161Y-10129923D01*
X37975780Y-10225161D01*
X37975780Y-10510876D01*
X37928161Y-10606114D01*
X37880542Y-10653733D01*
X31608733Y-32691342D02*
X31561114Y-32738961D01*
X31418257Y-32786580D01*
X31323019Y-32786580D01*
X31180161Y-32738961D01*
X31084923Y-32643723D01*
X31037304Y-32548485D01*
X30989685Y-32358009D01*
X30989685Y-32215152D01*
X31037304Y-32024676D01*
X31084923Y-31929438D01*
X31180161Y-31834200D01*
X31323019Y-31786580D01*
X31418257Y-31786580D01*
X31561114Y-31834200D01*
X31608733Y-31881819D01*
X32465876Y-31786580D02*
X32275400Y-31786580D01*
X32180161Y-31834200D01*
X32132542Y-31881819D01*
X32037304Y-32024676D01*
X31989685Y-32215152D01*
X31989685Y-32596104D01*
X32037304Y-32691342D01*
X32084923Y-32738961D01*
X32180161Y-32786580D01*
X32370638Y-32786580D01*
X32465876Y-32738961D01*
X32513495Y-32691342D01*
X32561114Y-32596104D01*
X32561114Y-32358009D01*
X32513495Y-32262771D01*
X32465876Y-32215152D01*
X32370638Y-32167533D01*
X32180161Y-32167533D01*
X32084923Y-32215152D01*
X32037304Y-32262771D01*
X31989685Y-32358009D01*
D12*
X45197200Y-32639000D02*
X45197200Y-30964000D01*
X42077200Y-32639000D02*
X42077200Y-33289000D01*
X45197200Y-32639000D02*
X45197200Y-33289000D01*
X42077200Y-32639000D02*
X42077200Y-31989000D01*
X47347600Y-22948020D02*
X47347600Y-23229180D01*
X46327600Y-22948020D02*
X46327600Y-23229180D01*
G36*
X2484741Y-56354133D02*
G01*
X2486670Y-56311800D01*
X2545048Y-56210238D01*
X2874020Y-56210238D01*
X2874676Y-56212233D01*
X2878197Y-56213892D01*
X2885499Y-56215245D01*
X2897499Y-56216322D01*
X2915115Y-56217153D01*
X2939263Y-56217768D01*
X2970861Y-56218197D01*
X3010824Y-56218469D01*
X3060071Y-56218615D01*
X3119517Y-56218666D01*
X3131869Y-56218667D01*
X3391543Y-56218667D01*
X3402389Y-56203144D01*
X3407371Y-56195266D01*
X3417468Y-56178672D01*
X3432072Y-56154379D01*
X3450579Y-56123404D01*
X3472381Y-56086763D01*
X3496874Y-56045472D01*
X3523452Y-56000549D01*
X3551507Y-55953009D01*
X3552953Y-55950556D01*
X3580966Y-55903041D01*
X3607431Y-55858188D01*
X3631754Y-55816996D01*
X3653345Y-55780466D01*
X3671612Y-55749598D01*
X3685963Y-55725393D01*
X3695806Y-55708851D01*
X3700551Y-55700973D01*
X3700666Y-55700789D01*
X3708661Y-55688089D01*
X3439008Y-55688277D01*
X3169356Y-55688465D01*
X3022600Y-55945137D01*
X2994395Y-55994564D01*
X2967903Y-56041179D01*
X2943652Y-56084037D01*
X2922173Y-56122192D01*
X2903995Y-56154700D01*
X2889648Y-56180616D01*
X2879662Y-56198995D01*
X2874565Y-56208892D01*
X2874020Y-56210238D01*
X2545048Y-56210238D01*
X2665114Y-56001356D01*
X2843557Y-55690911D01*
X2636745Y-55688089D01*
X2579760Y-55687278D01*
X2532872Y-55686423D01*
X2494892Y-55685340D01*
X2464629Y-55683839D01*
X2440894Y-55681736D01*
X2422495Y-55678844D01*
X2408244Y-55674974D01*
X2396949Y-55669942D01*
X2387422Y-55663560D01*
X2378470Y-55655642D01*
X2368994Y-55646091D01*
X2363650Y-55638832D01*
X2353041Y-55622866D01*
X2337750Y-55599142D01*
X2318362Y-55568609D01*
X2295461Y-55532215D01*
X2269629Y-55490909D01*
X2241451Y-55445640D01*
X2211510Y-55397357D01*
X2180390Y-55347009D01*
X2148675Y-55295543D01*
X2116949Y-55243910D01*
X2085795Y-55193057D01*
X2055797Y-55143934D01*
X2027539Y-55097489D01*
X2001604Y-55054671D01*
X1983242Y-55024177D01*
X2315999Y-55024177D01*
X2319520Y-55030590D01*
X2328277Y-55045539D01*
X2341614Y-55067931D01*
X2358875Y-55096675D01*
X2379404Y-55130678D01*
X2402543Y-55168847D01*
X2427637Y-55210090D01*
X2433015Y-55218910D01*
X2547046Y-55405867D01*
X3267423Y-55405991D01*
X3372353Y-55406011D01*
X3466592Y-55406041D01*
X3550736Y-55406090D01*
X3625384Y-55406166D01*
X3691134Y-55406280D01*
X3748582Y-55406441D01*
X3798326Y-55406658D01*
X3840964Y-55406939D01*
X3877093Y-55407296D01*
X3907311Y-55407736D01*
X3932215Y-55408269D01*
X3952403Y-55408905D01*
X3968472Y-55409653D01*
X3981020Y-55410521D01*
X3990644Y-55411521D01*
X3997942Y-55412659D01*
X4003511Y-55413947D01*
X4007949Y-55415394D01*
X4011853Y-55417008D01*
X4013200Y-55417612D01*
X4045741Y-55437031D01*
X4070187Y-55462992D01*
X4084415Y-55487711D01*
X4095106Y-55521417D01*
X4097402Y-55557051D01*
X4091201Y-55590660D01*
X4087288Y-55600600D01*
X4082792Y-55609023D01*
X4073006Y-55626348D01*
X4058404Y-55651765D01*
X4039455Y-55684468D01*
X4016632Y-55723649D01*
X3990405Y-55768500D01*
X3961248Y-55818214D01*
X3929630Y-55871982D01*
X3896024Y-55928998D01*
X3860900Y-55988453D01*
X3858812Y-55991984D01*
X3823930Y-56051023D01*
X3790771Y-56107273D01*
X3759779Y-56159976D01*
X3731396Y-56208371D01*
X3706065Y-56251699D01*
X3684229Y-56289200D01*
X3666332Y-56320116D01*
X3652817Y-56343686D01*
X3644126Y-56359152D01*
X3640703Y-56365753D01*
X3640667Y-56365907D01*
X3643066Y-56371730D01*
X3649824Y-56386179D01*
X3660285Y-56407935D01*
X3673794Y-56435678D01*
X3689694Y-56468090D01*
X3707329Y-56503849D01*
X3726043Y-56541639D01*
X3745181Y-56580137D01*
X3764084Y-56618027D01*
X3782099Y-56653987D01*
X3798568Y-56686699D01*
X3812835Y-56714843D01*
X3824245Y-56737100D01*
X3832141Y-56752150D01*
X3835867Y-56758674D01*
X3836062Y-56758834D01*
X3838785Y-56753818D01*
X3846551Y-56739347D01*
X3859093Y-56715929D01*
X3876138Y-56684069D01*
X3897417Y-56644272D01*
X3922659Y-56597044D01*
X3951595Y-56542891D01*
X3983954Y-56482319D01*
X4019466Y-56415833D01*
X4057861Y-56343940D01*
X4098869Y-56267145D01*
X4142219Y-56185954D01*
X4187641Y-56100873D01*
X4234866Y-56012407D01*
X4283622Y-55921063D01*
X4300500Y-55889440D01*
X4349713Y-55797219D01*
X4397475Y-55707690D01*
X4443515Y-55621362D01*
X4487565Y-55538741D01*
X4529355Y-55460332D01*
X4568615Y-55386644D01*
X4605075Y-55318183D01*
X4638465Y-55255454D01*
X4668517Y-55198966D01*
X4694960Y-55149223D01*
X4717525Y-55106734D01*
X4735942Y-55072005D01*
X4749941Y-55045541D01*
X4759253Y-55027851D01*
X4763608Y-55019440D01*
X4763912Y-55018785D01*
X4758353Y-55018557D01*
X4742018Y-55018336D01*
X4715419Y-55018122D01*
X4679071Y-55017915D01*
X4633485Y-55017717D01*
X4579175Y-55017529D01*
X4516653Y-55017352D01*
X4446432Y-55017187D01*
X4369025Y-55017035D01*
X4284945Y-55016897D01*
X4194704Y-55016773D01*
X4098817Y-55016666D01*
X3997794Y-55016575D01*
X3892151Y-55016502D01*
X3782398Y-55016448D01*
X3669050Y-55016413D01*
X3552618Y-55016400D01*
X3538463Y-55016400D01*
X3397639Y-55016408D01*
X3267691Y-55016435D01*
X3148206Y-55016482D01*
X3038771Y-55016554D01*
X2938973Y-55016651D01*
X2848400Y-55016777D01*
X2766639Y-55016935D01*
X2693277Y-55017126D01*
X2627900Y-55017355D01*
X2570097Y-55017623D01*
X2519454Y-55017932D01*
X2475558Y-55018287D01*
X2437996Y-55018688D01*
X2406356Y-55019140D01*
X2380225Y-55019644D01*
X2359190Y-55020203D01*
X2342837Y-55020819D01*
X2330755Y-55021496D01*
X2322530Y-55022236D01*
X2317750Y-55023042D01*
X2316000Y-55023916D01*
X2315999Y-55024177D01*
X1983242Y-55024177D01*
X1978576Y-55016429D01*
X1959040Y-54983712D01*
X1943578Y-54957467D01*
X1932775Y-54938645D01*
X1927214Y-54928194D01*
X1926984Y-54927681D01*
X1920895Y-54904265D01*
X1919181Y-54875717D01*
X1921712Y-54847006D01*
X1928358Y-54823097D01*
X1929804Y-54820031D01*
X1933836Y-54812821D01*
X1943239Y-54796413D01*
X1957692Y-54771359D01*
X1976876Y-54738209D01*
X1980856Y-54731344D01*
X2308578Y-54731344D01*
X2314137Y-54731614D01*
X2330471Y-54731878D01*
X2357067Y-54732133D01*
X2393410Y-54732379D01*
X2438988Y-54732614D01*
X2493286Y-54732837D01*
X2555791Y-54733048D01*
X2625990Y-54733244D01*
X2703368Y-54733425D01*
X2787412Y-54733590D01*
X2877608Y-54733736D01*
X2973443Y-54733864D01*
X3074402Y-54733972D01*
X3179973Y-54734058D01*
X3289641Y-54734122D01*
X3402894Y-54734162D01*
X3519216Y-54734178D01*
X4751845Y-54734178D01*
X4528131Y-54358822D01*
X3848743Y-54356000D01*
X3169356Y-54353178D01*
X3146393Y-54340886D01*
X3113722Y-54317625D01*
X3089377Y-54288217D01*
X3073927Y-54254390D01*
X3067944Y-54217868D01*
X3071997Y-54180377D01*
X3083281Y-54149978D01*
X3087821Y-54141638D01*
X3097544Y-54124296D01*
X3112005Y-54098734D01*
X3130758Y-54065734D01*
X3153355Y-54026078D01*
X3179351Y-53980548D01*
X3208298Y-53929927D01*
X3239752Y-53874997D01*
X3273265Y-53816540D01*
X3308391Y-53755338D01*
X3323251Y-53729467D01*
X3358632Y-53667883D01*
X3392395Y-53609112D01*
X3424119Y-53553891D01*
X3453379Y-53502957D01*
X3479751Y-53457048D01*
X3502814Y-53416899D01*
X3522143Y-53383248D01*
X3537315Y-53356832D01*
X3547906Y-53338388D01*
X3553493Y-53328654D01*
X3554269Y-53327300D01*
X3549378Y-53326354D01*
X3534407Y-53325481D01*
X3510565Y-53324707D01*
X3479059Y-53324054D01*
X3441100Y-53323548D01*
X3397895Y-53323211D01*
X3350653Y-53323070D01*
X3342542Y-53323067D01*
X3128416Y-53323067D01*
X2718497Y-54025788D01*
X2670678Y-54107783D01*
X2624442Y-54187103D01*
X2580105Y-54263201D01*
X2537985Y-54335530D01*
X2498400Y-54403545D01*
X2461668Y-54466698D01*
X2428105Y-54524444D01*
X2398030Y-54576236D01*
X2371759Y-54621527D01*
X2349610Y-54659771D01*
X2331901Y-54690421D01*
X2318949Y-54712932D01*
X2311072Y-54726756D01*
X2308578Y-54731344D01*
X1980856Y-54731344D01*
X2000469Y-54697515D01*
X2028152Y-54649828D01*
X2059604Y-54595699D01*
X2094505Y-54535679D01*
X2132533Y-54470320D01*
X2173370Y-54400172D01*
X2216693Y-54325788D01*
X2262184Y-54247717D01*
X2309521Y-54166512D01*
X2358384Y-54082723D01*
X2370186Y-54062489D01*
X2799876Y-53325889D01*
X2581038Y-53323067D01*
X2525443Y-53322328D01*
X2479977Y-53321637D01*
X2443481Y-53320923D01*
X2414796Y-53320114D01*
X2392763Y-53319137D01*
X2376222Y-53317921D01*
X2364015Y-53316393D01*
X2354982Y-53314481D01*
X2347964Y-53312114D01*
X2341802Y-53309219D01*
X2339623Y-53308061D01*
X2321601Y-53296429D01*
X2305273Y-53282890D01*
X2302283Y-53279839D01*
X2297009Y-53272419D01*
X2286483Y-53256098D01*
X2271200Y-53231688D01*
X2251656Y-53200003D01*
X2228348Y-53161859D01*
X2201770Y-53118067D01*
X2172420Y-53069443D01*
X2140792Y-53016800D01*
X2107382Y-52960952D01*
X2079328Y-52913880D01*
X1929863Y-52662667D01*
X2258556Y-52662667D01*
X2370413Y-52850344D01*
X2482270Y-53038022D01*
X3161657Y-53040844D01*
X3841045Y-53043667D01*
X3864008Y-53055958D01*
X3893775Y-53077306D01*
X3917751Y-53105234D01*
X3934618Y-53137309D01*
X3943056Y-53171100D01*
X3942429Y-53200508D01*
X3941533Y-53205952D01*
X3940545Y-53211079D01*
X3939117Y-53216530D01*
X3936898Y-53222946D01*
X3933536Y-53230968D01*
X3928683Y-53241236D01*
X3921987Y-53254391D01*
X3913097Y-53271075D01*
X3901665Y-53291927D01*
X3887338Y-53317590D01*
X3869767Y-53348703D01*
X3848600Y-53385909D01*
X3823489Y-53429846D01*
X3794082Y-53481157D01*
X3760028Y-53540482D01*
X3720978Y-53608463D01*
X3687130Y-53667378D01*
X3651749Y-53728961D01*
X3617986Y-53787732D01*
X3586263Y-53842953D01*
X3557004Y-53893887D01*
X3530632Y-53939796D01*
X3507571Y-53979945D01*
X3488243Y-54013596D01*
X3473073Y-54040012D01*
X3462483Y-54058456D01*
X3456896Y-54068191D01*
X3456122Y-54069544D01*
X3461015Y-54070490D01*
X3475988Y-54071363D01*
X3499833Y-54072138D01*
X3531340Y-54072790D01*
X3569301Y-54073297D01*
X3612507Y-54073633D01*
X3659749Y-54073775D01*
X3667859Y-54073778D01*
X3881984Y-54073778D01*
X4291903Y-53371056D01*
X4339723Y-53289061D01*
X4385959Y-53209741D01*
X4430296Y-53133643D01*
X4472416Y-53061314D01*
X4512000Y-52993299D01*
X4548733Y-52930146D01*
X4582296Y-52872400D01*
X4612371Y-52820609D01*
X4638642Y-52775318D01*
X4660791Y-52737074D01*
X4678500Y-52706423D01*
X4691451Y-52683913D01*
X4699329Y-52670088D01*
X4701823Y-52665501D01*
X4696264Y-52665230D01*
X4679930Y-52664967D01*
X4653334Y-52664711D01*
X4616991Y-52664466D01*
X4571413Y-52664230D01*
X4517115Y-52664007D01*
X4454609Y-52663796D01*
X4384411Y-52663600D01*
X4307033Y-52663419D01*
X4222989Y-52663255D01*
X4132793Y-52663108D01*
X4036958Y-52662980D01*
X3935999Y-52662872D01*
X3830428Y-52662786D01*
X3720759Y-52662722D01*
X3607507Y-52662682D01*
X3491184Y-52662667D01*
X2258556Y-52662667D01*
X1929863Y-52662667D01*
X1871134Y-52563959D01*
X1871134Y-52521591D01*
X1871838Y-52497112D01*
X1874759Y-52478737D01*
X1881106Y-52461326D01*
X1889082Y-52445356D01*
X1926288Y-52375212D01*
X2247430Y-52375212D01*
X2252807Y-52375802D01*
X2269175Y-52376363D01*
X2296234Y-52376894D01*
X2333687Y-52377393D01*
X2381234Y-52377859D01*
X2438576Y-52378291D01*
X2505416Y-52378687D01*
X2581455Y-52379047D01*
X2666394Y-52379368D01*
X2759935Y-52379650D01*
X2861778Y-52379891D01*
X2971626Y-52380091D01*
X3089180Y-52380247D01*
X3214141Y-52380359D01*
X3346211Y-52380425D01*
X3470863Y-52380444D01*
X3587624Y-52380428D01*
X3701363Y-52380379D01*
X3811568Y-52380299D01*
X3917725Y-52380191D01*
X4019322Y-52380054D01*
X4115846Y-52379892D01*
X4206784Y-52379705D01*
X4291623Y-52379495D01*
X4369851Y-52379263D01*
X4440953Y-52379012D01*
X4504419Y-52378742D01*
X4559733Y-52378455D01*
X4606384Y-52378153D01*
X4643860Y-52377837D01*
X4671645Y-52377509D01*
X4689229Y-52377170D01*
X4696098Y-52376822D01*
X4696178Y-52376780D01*
X4693337Y-52371312D01*
X4685232Y-52357264D01*
X4672491Y-52335686D01*
X4655741Y-52307626D01*
X4635609Y-52274135D01*
X4612723Y-52236263D01*
X4587710Y-52195058D01*
X4579789Y-52182047D01*
X4463400Y-51990978D01*
X3743000Y-51990854D01*
X3638068Y-51990833D01*
X3543828Y-51990803D01*
X3459682Y-51990755D01*
X3385032Y-51990678D01*
X3319281Y-51990564D01*
X3261831Y-51990403D01*
X3212086Y-51990187D01*
X3169446Y-51989905D01*
X3133316Y-51989549D01*
X3103097Y-51989109D01*
X3078191Y-51988575D01*
X3058003Y-51987939D01*
X3041933Y-51987192D01*
X3029384Y-51986323D01*
X3019759Y-51985324D01*
X3012461Y-51984185D01*
X3006891Y-51982897D01*
X3002453Y-51981451D01*
X2998549Y-51979837D01*
X2997200Y-51979232D01*
X2964660Y-51959813D01*
X2940213Y-51933852D01*
X2925986Y-51909133D01*
X2915295Y-51875428D01*
X2912999Y-51839792D01*
X2919199Y-51806180D01*
X2923109Y-51796244D01*
X2927605Y-51787821D01*
X2937391Y-51770497D01*
X2951996Y-51745081D01*
X2970947Y-51712381D01*
X2972995Y-51708865D01*
X3301668Y-51708865D01*
X3840702Y-51705933D01*
X3986057Y-51449111D01*
X4013967Y-51399671D01*
X4040124Y-51353094D01*
X4064007Y-51310322D01*
X4085097Y-51272295D01*
X4102877Y-51239955D01*
X4116826Y-51214244D01*
X4126427Y-51196101D01*
X4131159Y-51186469D01*
X4131572Y-51185233D01*
X4129362Y-51183501D01*
X4122112Y-51182056D01*
X4109024Y-51180879D01*
X4089299Y-51179946D01*
X4062139Y-51179235D01*
X4026746Y-51178725D01*
X3982321Y-51178394D01*
X3928065Y-51178219D01*
X3875296Y-51178178D01*
X3618858Y-51178178D01*
X3608012Y-51193700D01*
X3603029Y-51201578D01*
X3592933Y-51218172D01*
X3578329Y-51242465D01*
X3559822Y-51273440D01*
X3538019Y-51310082D01*
X3513526Y-51351372D01*
X3486949Y-51396296D01*
X3458894Y-51443835D01*
X3457447Y-51446289D01*
X3429433Y-51493805D01*
X3402966Y-51538663D01*
X3378639Y-51579860D01*
X3357043Y-51616398D01*
X3338771Y-51647274D01*
X3324414Y-51671488D01*
X3314565Y-51688039D01*
X3309814Y-51695926D01*
X3309699Y-51696110D01*
X3301668Y-51708865D01*
X2972995Y-51708865D01*
X2993774Y-51673203D01*
X3020004Y-51628355D01*
X3049166Y-51578646D01*
X3080788Y-51524883D01*
X3114399Y-51467874D01*
X3149527Y-51408426D01*
X3151585Y-51404947D01*
X3186476Y-51345881D01*
X3219636Y-51289567D01*
X3250620Y-51236770D01*
X3278987Y-51188253D01*
X3304292Y-51144779D01*
X3326093Y-51107111D01*
X3343948Y-51076012D01*
X3357412Y-51052246D01*
X3366044Y-51036576D01*
X3369399Y-51029765D01*
X3369427Y-51029592D01*
X3366902Y-51023218D01*
X3359838Y-51007908D01*
X3348789Y-50984802D01*
X3334309Y-50955038D01*
X3316954Y-50919755D01*
X3297278Y-50880092D01*
X3275836Y-50837187D01*
X3272027Y-50829598D01*
X3174933Y-50636240D01*
X2712122Y-51503110D01*
X2662906Y-51595304D01*
X2615122Y-51684834D01*
X2569043Y-51771189D01*
X2524939Y-51853861D01*
X2483081Y-51932341D01*
X2443742Y-52006119D01*
X2407192Y-52074686D01*
X2373702Y-52137533D01*
X2343545Y-52194150D01*
X2316991Y-52244029D01*
X2294312Y-52286660D01*
X2275778Y-52321534D01*
X2261662Y-52348141D01*
X2252235Y-52365973D01*
X2247768Y-52374521D01*
X2247430Y-52375212D01*
X1926288Y-52375212D01*
X1931082Y-52366174D01*
X1975446Y-52282664D01*
X2021905Y-52195326D01*
X2070187Y-52104664D01*
X2120023Y-52011180D01*
X2171144Y-51915377D01*
X2223279Y-51817756D01*
X2276158Y-51718821D01*
X2329512Y-51619074D01*
X2383070Y-51519017D01*
X2436562Y-51419153D01*
X2489719Y-51319984D01*
X2542271Y-51222012D01*
X2593947Y-51125741D01*
X2644478Y-51031673D01*
X2693593Y-50940309D01*
X2741023Y-50852153D01*
X2786498Y-50767707D01*
X2829748Y-50687474D01*
X2870503Y-50611956D01*
X2908493Y-50541654D01*
X2943447Y-50477073D01*
X2948921Y-50466978D01*
X3410161Y-50466978D01*
X3515364Y-50681467D01*
X3620568Y-50895956D01*
X4141968Y-50895956D01*
X4025373Y-50681587D01*
X3908778Y-50467219D01*
X3659470Y-50467098D01*
X3410161Y-50466978D01*
X2948921Y-50466978D01*
X2975097Y-50418714D01*
X3003172Y-50367080D01*
X3027402Y-50322673D01*
X3047517Y-50285996D01*
X3063247Y-50257551D01*
X3074323Y-50237840D01*
X3080473Y-50227367D01*
X3081549Y-50225815D01*
X3087806Y-50218982D01*
X3093258Y-50213012D01*
X3098667Y-50207846D01*
X3104796Y-50203428D01*
X3112409Y-50199699D01*
X3122267Y-50196601D01*
X3135134Y-50194076D01*
X3151772Y-50192066D01*
X3172944Y-50190513D01*
X3199412Y-50189358D01*
X3231939Y-50188545D01*
X3271288Y-50188015D01*
X3318221Y-50187710D01*
X3373502Y-50187571D01*
X3437892Y-50187542D01*
X3512155Y-50187563D01*
X3584223Y-50187578D01*
X4032956Y-50187578D01*
X4055534Y-50199761D01*
X4073658Y-50211414D01*
X4090182Y-50224970D01*
X4093187Y-50227983D01*
X4098276Y-50235441D01*
X4108294Y-50252014D01*
X4122787Y-50276893D01*
X4141300Y-50309273D01*
X4163380Y-50348344D01*
X4188571Y-50393298D01*
X4216419Y-50443329D01*
X4246471Y-50497628D01*
X4278271Y-50555388D01*
X4311366Y-50615801D01*
X4313321Y-50619378D01*
X4518378Y-50994733D01*
X4518378Y-51037067D01*
X4516594Y-51069446D01*
X4511328Y-51092133D01*
X4509407Y-51096333D01*
X4505057Y-51104211D01*
X4495656Y-51120996D01*
X4481720Y-51145776D01*
X4463763Y-51177638D01*
X4442302Y-51215668D01*
X4417851Y-51258953D01*
X4390925Y-51306580D01*
X4362041Y-51357636D01*
X4333018Y-51408904D01*
X4303056Y-51461844D01*
X4274812Y-51511808D01*
X4248767Y-51557941D01*
X4225402Y-51599389D01*
X4205198Y-51635297D01*
X4188635Y-51664811D01*
X4176194Y-51687077D01*
X4168355Y-51701240D01*
X4165601Y-51706446D01*
X4165600Y-51706450D01*
X4171037Y-51706926D01*
X4186516Y-51707445D01*
X4210790Y-51707986D01*
X4242614Y-51708529D01*
X4280740Y-51709051D01*
X4323922Y-51709532D01*
X4370914Y-51709951D01*
X4373034Y-51709968D01*
X4430074Y-51710442D01*
X4477014Y-51711015D01*
X4515042Y-51711868D01*
X4545348Y-51713180D01*
X4569119Y-51715133D01*
X4587545Y-51717908D01*
X4601814Y-51721685D01*
X4613114Y-51726644D01*
X4622634Y-51732967D01*
X4631562Y-51740833D01*
X4641088Y-51750424D01*
X4641407Y-51750753D01*
X4646751Y-51758012D01*
X4657360Y-51773978D01*
X4672650Y-51797702D01*
X4692038Y-51828236D01*
X4714940Y-51864629D01*
X4740772Y-51905935D01*
X4768950Y-51951204D01*
X4798891Y-51999487D01*
X4830011Y-52049836D01*
X4861726Y-52101301D01*
X4893452Y-52152934D01*
X4924606Y-52203787D01*
X4954604Y-52252910D01*
X4982862Y-52299355D01*
X5008797Y-52342173D01*
X5031824Y-52380415D01*
X5051361Y-52413133D01*
X5066823Y-52439377D01*
X5077626Y-52458199D01*
X5083187Y-52468650D01*
X5083417Y-52469163D01*
X5089506Y-52492580D01*
X5091219Y-52521127D01*
X5088688Y-52549839D01*
X5082043Y-52573747D01*
X5080596Y-52576814D01*
X5076565Y-52584023D01*
X5067162Y-52600431D01*
X5052709Y-52625485D01*
X5033525Y-52658635D01*
X5009932Y-52699329D01*
X4982249Y-52747016D01*
X4950797Y-52801145D01*
X4915896Y-52861165D01*
X4877867Y-52926524D01*
X4837031Y-52996672D01*
X4793707Y-53071057D01*
X4748217Y-53149127D01*
X4700880Y-53230333D01*
X4652017Y-53314121D01*
X4640214Y-53334356D01*
X4210525Y-54070956D01*
X4429363Y-54073778D01*
X4484958Y-54074517D01*
X4530424Y-54075207D01*
X4566920Y-54075921D01*
X4595605Y-54076730D01*
X4617638Y-54077707D01*
X4634179Y-54078923D01*
X4646386Y-54080451D01*
X4655419Y-54082363D01*
X4662437Y-54084731D01*
X4668598Y-54087626D01*
X4670778Y-54088783D01*
X4688800Y-54100415D01*
X4705127Y-54113954D01*
X4708117Y-54117005D01*
X4713392Y-54124425D01*
X4723918Y-54140747D01*
X4739201Y-54165157D01*
X4758744Y-54196841D01*
X4782053Y-54234986D01*
X4808630Y-54278777D01*
X4837981Y-54327401D01*
X4869609Y-54380044D01*
X4903019Y-54435892D01*
X4931073Y-54482965D01*
X5139267Y-54832885D01*
X5139267Y-54875254D01*
X5138563Y-54899732D01*
X5135642Y-54918105D01*
X5129297Y-54935513D01*
X5121317Y-54951489D01*
X5079001Y-55031258D01*
X5034347Y-55115307D01*
X4987626Y-55203135D01*
X4939105Y-55294241D01*
X4889056Y-55388121D01*
X4837746Y-55484275D01*
X4785446Y-55582202D01*
X4732426Y-55681399D01*
X4678954Y-55781366D01*
X4625300Y-55881600D01*
X4571734Y-55981599D01*
X4518525Y-56080863D01*
X4465943Y-56178890D01*
X4414257Y-56275178D01*
X4363737Y-56369225D01*
X4314651Y-56460530D01*
X4267271Y-56548592D01*
X4221864Y-56632908D01*
X4178701Y-56712977D01*
X4138051Y-56788298D01*
X4100183Y-56858369D01*
X4065367Y-56922688D01*
X4033873Y-56980754D01*
X4005970Y-57032065D01*
X3981928Y-57076120D01*
X3962015Y-57112416D01*
X3946502Y-57140453D01*
X3935658Y-57159729D01*
X3929752Y-57169742D01*
X3928845Y-57171029D01*
X3922535Y-57177913D01*
X3917022Y-57183919D01*
X3911537Y-57189109D01*
X3905308Y-57193543D01*
X3897564Y-57197284D01*
X3887535Y-57200393D01*
X3874449Y-57202930D01*
X3857537Y-57204956D01*
X3836027Y-57206534D01*
X3809148Y-57207723D01*
X3776130Y-57208586D01*
X3736202Y-57209183D01*
X3688593Y-57209576D01*
X3632532Y-57209826D01*
X3567248Y-57209994D01*
X3491972Y-57210141D01*
X3434645Y-57210261D01*
X3364828Y-57210363D01*
X3298066Y-57210353D01*
X3235250Y-57210238D01*
X3177273Y-57210024D01*
X3125028Y-57209719D01*
X3079408Y-57209327D01*
X3041306Y-57208857D01*
X3011613Y-57208315D01*
X2991223Y-57207707D01*
X2981028Y-57207041D01*
X2980231Y-57206883D01*
X2946111Y-57191676D01*
X2918192Y-57169880D01*
X2917209Y-57168848D01*
X2912102Y-57161423D01*
X2902005Y-57144909D01*
X2887375Y-57120107D01*
X2868668Y-57087818D01*
X2846340Y-57048840D01*
X2820847Y-57003976D01*
X2792646Y-56954024D01*
X2762192Y-56899785D01*
X2729943Y-56842059D01*
X2696353Y-56781647D01*
X2692470Y-56774644D01*
X2542728Y-56504541D01*
X2867378Y-56504541D01*
X2870033Y-56510093D01*
X2877622Y-56524472D01*
X2889581Y-56546646D01*
X2905346Y-56575581D01*
X2924354Y-56610246D01*
X2946040Y-56649606D01*
X2969840Y-56692630D01*
X2984488Y-56719030D01*
X3101598Y-56929867D01*
X3600240Y-56929867D01*
X3495036Y-56715378D01*
X3389833Y-56500889D01*
X3128606Y-56500889D01*
X3075515Y-56500965D01*
X3026044Y-56501184D01*
X2981303Y-56501529D01*
X2942403Y-56501986D01*
X2910455Y-56502538D01*
X2886570Y-56503171D01*
X2871858Y-56503868D01*
X2867378Y-56504541D01*
X2542728Y-56504541D01*
X2482812Y-56396467D01*
X2484741Y-56354133D01*
G37*
D13*
X2484741Y-56354133D02*
X2486670Y-56311800D01*
X2545048Y-56210238D01*
X2874020Y-56210238D01*
X2874676Y-56212233D01*
X2878197Y-56213892D01*
X2885499Y-56215245D01*
X2897499Y-56216322D01*
X2915115Y-56217153D01*
X2939263Y-56217768D01*
X2970861Y-56218197D01*
X3010824Y-56218469D01*
X3060071Y-56218615D01*
X3119517Y-56218666D01*
X3131869Y-56218667D01*
X3391543Y-56218667D01*
X3402389Y-56203144D01*
X3407371Y-56195266D01*
X3417468Y-56178672D01*
X3432072Y-56154379D01*
X3450579Y-56123404D01*
X3472381Y-56086763D01*
X3496874Y-56045472D01*
X3523452Y-56000549D01*
X3551507Y-55953009D01*
X3552953Y-55950556D01*
X3580966Y-55903041D01*
X3607431Y-55858188D01*
X3631754Y-55816996D01*
X3653345Y-55780466D01*
X3671612Y-55749598D01*
X3685963Y-55725393D01*
X3695806Y-55708851D01*
X3700551Y-55700973D01*
X3700666Y-55700789D01*
X3708661Y-55688089D01*
X3439008Y-55688277D01*
X3169356Y-55688465D01*
X3022600Y-55945137D01*
X2994395Y-55994564D01*
X2967903Y-56041179D01*
X2943652Y-56084037D01*
X2922173Y-56122192D01*
X2903995Y-56154700D01*
X2889648Y-56180616D01*
X2879662Y-56198995D01*
X2874565Y-56208892D01*
X2874020Y-56210238D01*
X2545048Y-56210238D01*
X2665114Y-56001356D01*
X2843557Y-55690911D01*
X2636745Y-55688089D01*
X2579760Y-55687278D01*
X2532872Y-55686423D01*
X2494892Y-55685340D01*
X2464629Y-55683839D01*
X2440894Y-55681736D01*
X2422495Y-55678844D01*
X2408244Y-55674974D01*
X2396949Y-55669942D01*
X2387422Y-55663560D01*
X2378470Y-55655642D01*
X2368994Y-55646091D01*
X2363650Y-55638832D01*
X2353041Y-55622866D01*
X2337750Y-55599142D01*
X2318362Y-55568609D01*
X2295461Y-55532215D01*
X2269629Y-55490909D01*
X2241451Y-55445640D01*
X2211510Y-55397357D01*
X2180390Y-55347009D01*
X2148675Y-55295543D01*
X2116949Y-55243910D01*
X2085795Y-55193057D01*
X2055797Y-55143934D01*
X2027539Y-55097489D01*
X2001604Y-55054671D01*
X1983242Y-55024177D01*
X2315999Y-55024177D01*
X2319520Y-55030590D01*
X2328277Y-55045539D01*
X2341614Y-55067931D01*
X2358875Y-55096675D01*
X2379404Y-55130678D01*
X2402543Y-55168847D01*
X2427637Y-55210090D01*
X2433015Y-55218910D01*
X2547046Y-55405867D01*
X3267423Y-55405991D01*
X3372353Y-55406011D01*
X3466592Y-55406041D01*
X3550736Y-55406090D01*
X3625384Y-55406166D01*
X3691134Y-55406280D01*
X3748582Y-55406441D01*
X3798326Y-55406658D01*
X3840964Y-55406939D01*
X3877093Y-55407296D01*
X3907311Y-55407736D01*
X3932215Y-55408269D01*
X3952403Y-55408905D01*
X3968472Y-55409653D01*
X3981020Y-55410521D01*
X3990644Y-55411521D01*
X3997942Y-55412659D01*
X4003511Y-55413947D01*
X4007949Y-55415394D01*
X4011853Y-55417008D01*
X4013200Y-55417612D01*
X4045741Y-55437031D01*
X4070187Y-55462992D01*
X4084415Y-55487711D01*
X4095106Y-55521417D01*
X4097402Y-55557051D01*
X4091201Y-55590660D01*
X4087288Y-55600600D01*
X4082792Y-55609023D01*
X4073006Y-55626348D01*
X4058404Y-55651765D01*
X4039455Y-55684468D01*
X4016632Y-55723649D01*
X3990405Y-55768500D01*
X3961248Y-55818214D01*
X3929630Y-55871982D01*
X3896024Y-55928998D01*
X3860900Y-55988453D01*
X3858812Y-55991984D01*
X3823930Y-56051023D01*
X3790771Y-56107273D01*
X3759779Y-56159976D01*
X3731396Y-56208371D01*
X3706065Y-56251699D01*
X3684229Y-56289200D01*
X3666332Y-56320116D01*
X3652817Y-56343686D01*
X3644126Y-56359152D01*
X3640703Y-56365753D01*
X3640667Y-56365907D01*
X3643066Y-56371730D01*
X3649824Y-56386179D01*
X3660285Y-56407935D01*
X3673794Y-56435678D01*
X3689694Y-56468090D01*
X3707329Y-56503849D01*
X3726043Y-56541639D01*
X3745181Y-56580137D01*
X3764084Y-56618027D01*
X3782099Y-56653987D01*
X3798568Y-56686699D01*
X3812835Y-56714843D01*
X3824245Y-56737100D01*
X3832141Y-56752150D01*
X3835867Y-56758674D01*
X3836062Y-56758834D01*
X3838785Y-56753818D01*
X3846551Y-56739347D01*
X3859093Y-56715929D01*
X3876138Y-56684069D01*
X3897417Y-56644272D01*
X3922659Y-56597044D01*
X3951595Y-56542891D01*
X3983954Y-56482319D01*
X4019466Y-56415833D01*
X4057861Y-56343940D01*
X4098869Y-56267145D01*
X4142219Y-56185954D01*
X4187641Y-56100873D01*
X4234866Y-56012407D01*
X4283622Y-55921063D01*
X4300500Y-55889440D01*
X4349713Y-55797219D01*
X4397475Y-55707690D01*
X4443515Y-55621362D01*
X4487565Y-55538741D01*
X4529355Y-55460332D01*
X4568615Y-55386644D01*
X4605075Y-55318183D01*
X4638465Y-55255454D01*
X4668517Y-55198966D01*
X4694960Y-55149223D01*
X4717525Y-55106734D01*
X4735942Y-55072005D01*
X4749941Y-55045541D01*
X4759253Y-55027851D01*
X4763608Y-55019440D01*
X4763912Y-55018785D01*
X4758353Y-55018557D01*
X4742018Y-55018336D01*
X4715419Y-55018122D01*
X4679071Y-55017915D01*
X4633485Y-55017717D01*
X4579175Y-55017529D01*
X4516653Y-55017352D01*
X4446432Y-55017187D01*
X4369025Y-55017035D01*
X4284945Y-55016897D01*
X4194704Y-55016773D01*
X4098817Y-55016666D01*
X3997794Y-55016575D01*
X3892151Y-55016502D01*
X3782398Y-55016448D01*
X3669050Y-55016413D01*
X3552618Y-55016400D01*
X3538463Y-55016400D01*
X3397639Y-55016408D01*
X3267691Y-55016435D01*
X3148206Y-55016482D01*
X3038771Y-55016554D01*
X2938973Y-55016651D01*
X2848400Y-55016777D01*
X2766639Y-55016935D01*
X2693277Y-55017126D01*
X2627900Y-55017355D01*
X2570097Y-55017623D01*
X2519454Y-55017932D01*
X2475558Y-55018287D01*
X2437996Y-55018688D01*
X2406356Y-55019140D01*
X2380225Y-55019644D01*
X2359190Y-55020203D01*
X2342837Y-55020819D01*
X2330755Y-55021496D01*
X2322530Y-55022236D01*
X2317750Y-55023042D01*
X2316000Y-55023916D01*
X2315999Y-55024177D01*
X1983242Y-55024177D01*
X1978576Y-55016429D01*
X1959040Y-54983712D01*
X1943578Y-54957467D01*
X1932775Y-54938645D01*
X1927214Y-54928194D01*
X1926984Y-54927681D01*
X1920895Y-54904265D01*
X1919181Y-54875717D01*
X1921712Y-54847006D01*
X1928358Y-54823097D01*
X1929804Y-54820031D01*
X1933836Y-54812821D01*
X1943239Y-54796413D01*
X1957692Y-54771359D01*
X1976876Y-54738209D01*
X1980856Y-54731344D01*
X2308578Y-54731344D01*
X2314137Y-54731614D01*
X2330471Y-54731878D01*
X2357067Y-54732133D01*
X2393410Y-54732379D01*
X2438988Y-54732614D01*
X2493286Y-54732837D01*
X2555791Y-54733048D01*
X2625990Y-54733244D01*
X2703368Y-54733425D01*
X2787412Y-54733590D01*
X2877608Y-54733736D01*
X2973443Y-54733864D01*
X3074402Y-54733972D01*
X3179973Y-54734058D01*
X3289641Y-54734122D01*
X3402894Y-54734162D01*
X3519216Y-54734178D01*
X4751845Y-54734178D01*
X4528131Y-54358822D01*
X3848743Y-54356000D01*
X3169356Y-54353178D01*
X3146393Y-54340886D01*
X3113722Y-54317625D01*
X3089377Y-54288217D01*
X3073927Y-54254390D01*
X3067944Y-54217868D01*
X3071997Y-54180377D01*
X3083281Y-54149978D01*
X3087821Y-54141638D01*
X3097544Y-54124296D01*
X3112005Y-54098734D01*
X3130758Y-54065734D01*
X3153355Y-54026078D01*
X3179351Y-53980548D01*
X3208298Y-53929927D01*
X3239752Y-53874997D01*
X3273265Y-53816540D01*
X3308391Y-53755338D01*
X3323251Y-53729467D01*
X3358632Y-53667883D01*
X3392395Y-53609112D01*
X3424119Y-53553891D01*
X3453379Y-53502957D01*
X3479751Y-53457048D01*
X3502814Y-53416899D01*
X3522143Y-53383248D01*
X3537315Y-53356832D01*
X3547906Y-53338388D01*
X3553493Y-53328654D01*
X3554269Y-53327300D01*
X3549378Y-53326354D01*
X3534407Y-53325481D01*
X3510565Y-53324707D01*
X3479059Y-53324054D01*
X3441100Y-53323548D01*
X3397895Y-53323211D01*
X3350653Y-53323070D01*
X3342542Y-53323067D01*
X3128416Y-53323067D01*
X2718497Y-54025788D01*
X2670678Y-54107783D01*
X2624442Y-54187103D01*
X2580105Y-54263201D01*
X2537985Y-54335530D01*
X2498400Y-54403545D01*
X2461668Y-54466698D01*
X2428105Y-54524444D01*
X2398030Y-54576236D01*
X2371759Y-54621527D01*
X2349610Y-54659771D01*
X2331901Y-54690421D01*
X2318949Y-54712932D01*
X2311072Y-54726756D01*
X2308578Y-54731344D01*
X1980856Y-54731344D01*
X2000469Y-54697515D01*
X2028152Y-54649828D01*
X2059604Y-54595699D01*
X2094505Y-54535679D01*
X2132533Y-54470320D01*
X2173370Y-54400172D01*
X2216693Y-54325788D01*
X2262184Y-54247717D01*
X2309521Y-54166512D01*
X2358384Y-54082723D01*
X2370186Y-54062489D01*
X2799876Y-53325889D01*
X2581038Y-53323067D01*
X2525443Y-53322328D01*
X2479977Y-53321637D01*
X2443481Y-53320923D01*
X2414796Y-53320114D01*
X2392763Y-53319137D01*
X2376222Y-53317921D01*
X2364015Y-53316393D01*
X2354982Y-53314481D01*
X2347964Y-53312114D01*
X2341802Y-53309219D01*
X2339623Y-53308061D01*
X2321601Y-53296429D01*
X2305273Y-53282890D01*
X2302283Y-53279839D01*
X2297009Y-53272419D01*
X2286483Y-53256098D01*
X2271200Y-53231688D01*
X2251656Y-53200003D01*
X2228348Y-53161859D01*
X2201770Y-53118067D01*
X2172420Y-53069443D01*
X2140792Y-53016800D01*
X2107382Y-52960952D01*
X2079328Y-52913880D01*
X1929863Y-52662667D01*
X2258556Y-52662667D01*
X2370413Y-52850344D01*
X2482270Y-53038022D01*
X3161657Y-53040844D01*
X3841045Y-53043667D01*
X3864008Y-53055958D01*
X3893775Y-53077306D01*
X3917751Y-53105234D01*
X3934618Y-53137309D01*
X3943056Y-53171100D01*
X3942429Y-53200508D01*
X3941533Y-53205952D01*
X3940545Y-53211079D01*
X3939117Y-53216530D01*
X3936898Y-53222946D01*
X3933536Y-53230968D01*
X3928683Y-53241236D01*
X3921987Y-53254391D01*
X3913097Y-53271075D01*
X3901665Y-53291927D01*
X3887338Y-53317590D01*
X3869767Y-53348703D01*
X3848600Y-53385909D01*
X3823489Y-53429846D01*
X3794082Y-53481157D01*
X3760028Y-53540482D01*
X3720978Y-53608463D01*
X3687130Y-53667378D01*
X3651749Y-53728961D01*
X3617986Y-53787732D01*
X3586263Y-53842953D01*
X3557004Y-53893887D01*
X3530632Y-53939796D01*
X3507571Y-53979945D01*
X3488243Y-54013596D01*
X3473073Y-54040012D01*
X3462483Y-54058456D01*
X3456896Y-54068191D01*
X3456122Y-54069544D01*
X3461015Y-54070490D01*
X3475988Y-54071363D01*
X3499833Y-54072138D01*
X3531340Y-54072790D01*
X3569301Y-54073297D01*
X3612507Y-54073633D01*
X3659749Y-54073775D01*
X3667859Y-54073778D01*
X3881984Y-54073778D01*
X4291903Y-53371056D01*
X4339723Y-53289061D01*
X4385959Y-53209741D01*
X4430296Y-53133643D01*
X4472416Y-53061314D01*
X4512000Y-52993299D01*
X4548733Y-52930146D01*
X4582296Y-52872400D01*
X4612371Y-52820609D01*
X4638642Y-52775318D01*
X4660791Y-52737074D01*
X4678500Y-52706423D01*
X4691451Y-52683913D01*
X4699329Y-52670088D01*
X4701823Y-52665501D01*
X4696264Y-52665230D01*
X4679930Y-52664967D01*
X4653334Y-52664711D01*
X4616991Y-52664466D01*
X4571413Y-52664230D01*
X4517115Y-52664007D01*
X4454609Y-52663796D01*
X4384411Y-52663600D01*
X4307033Y-52663419D01*
X4222989Y-52663255D01*
X4132793Y-52663108D01*
X4036958Y-52662980D01*
X3935999Y-52662872D01*
X3830428Y-52662786D01*
X3720759Y-52662722D01*
X3607507Y-52662682D01*
X3491184Y-52662667D01*
X2258556Y-52662667D01*
X1929863Y-52662667D01*
X1871134Y-52563959D01*
X1871134Y-52521591D01*
X1871838Y-52497112D01*
X1874759Y-52478737D01*
X1881106Y-52461326D01*
X1889082Y-52445356D01*
X1926288Y-52375212D01*
X2247430Y-52375212D01*
X2252807Y-52375802D01*
X2269175Y-52376363D01*
X2296234Y-52376894D01*
X2333687Y-52377393D01*
X2381234Y-52377859D01*
X2438576Y-52378291D01*
X2505416Y-52378687D01*
X2581455Y-52379047D01*
X2666394Y-52379368D01*
X2759935Y-52379650D01*
X2861778Y-52379891D01*
X2971626Y-52380091D01*
X3089180Y-52380247D01*
X3214141Y-52380359D01*
X3346211Y-52380425D01*
X3470863Y-52380444D01*
X3587624Y-52380428D01*
X3701363Y-52380379D01*
X3811568Y-52380299D01*
X3917725Y-52380191D01*
X4019322Y-52380054D01*
X4115846Y-52379892D01*
X4206784Y-52379705D01*
X4291623Y-52379495D01*
X4369851Y-52379263D01*
X4440953Y-52379012D01*
X4504419Y-52378742D01*
X4559733Y-52378455D01*
X4606384Y-52378153D01*
X4643860Y-52377837D01*
X4671645Y-52377509D01*
X4689229Y-52377170D01*
X4696098Y-52376822D01*
X4696178Y-52376780D01*
X4693337Y-52371312D01*
X4685232Y-52357264D01*
X4672491Y-52335686D01*
X4655741Y-52307626D01*
X4635609Y-52274135D01*
X4612723Y-52236263D01*
X4587710Y-52195058D01*
X4579789Y-52182047D01*
X4463400Y-51990978D01*
X3743000Y-51990854D01*
X3638068Y-51990833D01*
X3543828Y-51990803D01*
X3459682Y-51990755D01*
X3385032Y-51990678D01*
X3319281Y-51990564D01*
X3261831Y-51990403D01*
X3212086Y-51990187D01*
X3169446Y-51989905D01*
X3133316Y-51989549D01*
X3103097Y-51989109D01*
X3078191Y-51988575D01*
X3058003Y-51987939D01*
X3041933Y-51987192D01*
X3029384Y-51986323D01*
X3019759Y-51985324D01*
X3012461Y-51984185D01*
X3006891Y-51982897D01*
X3002453Y-51981451D01*
X2998549Y-51979837D01*
X2997200Y-51979232D01*
X2964660Y-51959813D01*
X2940213Y-51933852D01*
X2925986Y-51909133D01*
X2915295Y-51875428D01*
X2912999Y-51839792D01*
X2919199Y-51806180D01*
X2923109Y-51796244D01*
X2927605Y-51787821D01*
X2937391Y-51770497D01*
X2951996Y-51745081D01*
X2970947Y-51712381D01*
X2972995Y-51708865D01*
X3301668Y-51708865D01*
X3840702Y-51705933D01*
X3986057Y-51449111D01*
X4013967Y-51399671D01*
X4040124Y-51353094D01*
X4064007Y-51310322D01*
X4085097Y-51272295D01*
X4102877Y-51239955D01*
X4116826Y-51214244D01*
X4126427Y-51196101D01*
X4131159Y-51186469D01*
X4131572Y-51185233D01*
X4129362Y-51183501D01*
X4122112Y-51182056D01*
X4109024Y-51180879D01*
X4089299Y-51179946D01*
X4062139Y-51179235D01*
X4026746Y-51178725D01*
X3982321Y-51178394D01*
X3928065Y-51178219D01*
X3875296Y-51178178D01*
X3618858Y-51178178D01*
X3608012Y-51193700D01*
X3603029Y-51201578D01*
X3592933Y-51218172D01*
X3578329Y-51242465D01*
X3559822Y-51273440D01*
X3538019Y-51310082D01*
X3513526Y-51351372D01*
X3486949Y-51396296D01*
X3458894Y-51443835D01*
X3457447Y-51446289D01*
X3429433Y-51493805D01*
X3402966Y-51538663D01*
X3378639Y-51579860D01*
X3357043Y-51616398D01*
X3338771Y-51647274D01*
X3324414Y-51671488D01*
X3314565Y-51688039D01*
X3309814Y-51695926D01*
X3309699Y-51696110D01*
X3301668Y-51708865D01*
X2972995Y-51708865D01*
X2993774Y-51673203D01*
X3020004Y-51628355D01*
X3049166Y-51578646D01*
X3080788Y-51524883D01*
X3114399Y-51467874D01*
X3149527Y-51408426D01*
X3151585Y-51404947D01*
X3186476Y-51345881D01*
X3219636Y-51289567D01*
X3250620Y-51236770D01*
X3278987Y-51188253D01*
X3304292Y-51144779D01*
X3326093Y-51107111D01*
X3343948Y-51076012D01*
X3357412Y-51052246D01*
X3366044Y-51036576D01*
X3369399Y-51029765D01*
X3369427Y-51029592D01*
X3366902Y-51023218D01*
X3359838Y-51007908D01*
X3348789Y-50984802D01*
X3334309Y-50955038D01*
X3316954Y-50919755D01*
X3297278Y-50880092D01*
X3275836Y-50837187D01*
X3272027Y-50829598D01*
X3174933Y-50636240D01*
X2712122Y-51503110D01*
X2662906Y-51595304D01*
X2615122Y-51684834D01*
X2569043Y-51771189D01*
X2524939Y-51853861D01*
X2483081Y-51932341D01*
X2443742Y-52006119D01*
X2407192Y-52074686D01*
X2373702Y-52137533D01*
X2343545Y-52194150D01*
X2316991Y-52244029D01*
X2294312Y-52286660D01*
X2275778Y-52321534D01*
X2261662Y-52348141D01*
X2252235Y-52365973D01*
X2247768Y-52374521D01*
X2247430Y-52375212D01*
X1926288Y-52375212D01*
X1931082Y-52366174D01*
X1975446Y-52282664D01*
X2021905Y-52195326D01*
X2070187Y-52104664D01*
X2120023Y-52011180D01*
X2171144Y-51915377D01*
X2223279Y-51817756D01*
X2276158Y-51718821D01*
X2329512Y-51619074D01*
X2383070Y-51519017D01*
X2436562Y-51419153D01*
X2489719Y-51319984D01*
X2542271Y-51222012D01*
X2593947Y-51125741D01*
X2644478Y-51031673D01*
X2693593Y-50940309D01*
X2741023Y-50852153D01*
X2786498Y-50767707D01*
X2829748Y-50687474D01*
X2870503Y-50611956D01*
X2908493Y-50541654D01*
X2943447Y-50477073D01*
X2948921Y-50466978D01*
X3410161Y-50466978D01*
X3515364Y-50681467D01*
X3620568Y-50895956D01*
X4141968Y-50895956D01*
X4025373Y-50681587D01*
X3908778Y-50467219D01*
X3659470Y-50467098D01*
X3410161Y-50466978D01*
X2948921Y-50466978D01*
X2975097Y-50418714D01*
X3003172Y-50367080D01*
X3027402Y-50322673D01*
X3047517Y-50285996D01*
X3063247Y-50257551D01*
X3074323Y-50237840D01*
X3080473Y-50227367D01*
X3081549Y-50225815D01*
X3087806Y-50218982D01*
X3093258Y-50213012D01*
X3098667Y-50207846D01*
X3104796Y-50203428D01*
X3112409Y-50199699D01*
X3122267Y-50196601D01*
X3135134Y-50194076D01*
X3151772Y-50192066D01*
X3172944Y-50190513D01*
X3199412Y-50189358D01*
X3231939Y-50188545D01*
X3271288Y-50188015D01*
X3318221Y-50187710D01*
X3373502Y-50187571D01*
X3437892Y-50187542D01*
X3512155Y-50187563D01*
X3584223Y-50187578D01*
X4032956Y-50187578D01*
X4055534Y-50199761D01*
X4073658Y-50211414D01*
X4090182Y-50224970D01*
X4093187Y-50227983D01*
X4098276Y-50235441D01*
X4108294Y-50252014D01*
X4122787Y-50276893D01*
X4141300Y-50309273D01*
X4163380Y-50348344D01*
X4188571Y-50393298D01*
X4216419Y-50443329D01*
X4246471Y-50497628D01*
X4278271Y-50555388D01*
X4311366Y-50615801D01*
X4313321Y-50619378D01*
X4518378Y-50994733D01*
X4518378Y-51037067D01*
X4516594Y-51069446D01*
X4511328Y-51092133D01*
X4509407Y-51096333D01*
X4505057Y-51104211D01*
X4495656Y-51120996D01*
X4481720Y-51145776D01*
X4463763Y-51177638D01*
X4442302Y-51215668D01*
X4417851Y-51258953D01*
X4390925Y-51306580D01*
X4362041Y-51357636D01*
X4333018Y-51408904D01*
X4303056Y-51461844D01*
X4274812Y-51511808D01*
X4248767Y-51557941D01*
X4225402Y-51599389D01*
X4205198Y-51635297D01*
X4188635Y-51664811D01*
X4176194Y-51687077D01*
X4168355Y-51701240D01*
X4165601Y-51706446D01*
X4165600Y-51706450D01*
X4171037Y-51706926D01*
X4186516Y-51707445D01*
X4210790Y-51707986D01*
X4242614Y-51708529D01*
X4280740Y-51709051D01*
X4323922Y-51709532D01*
X4370914Y-51709951D01*
X4373034Y-51709968D01*
X4430074Y-51710442D01*
X4477014Y-51711015D01*
X4515042Y-51711868D01*
X4545348Y-51713180D01*
X4569119Y-51715133D01*
X4587545Y-51717908D01*
X4601814Y-51721685D01*
X4613114Y-51726644D01*
X4622634Y-51732967D01*
X4631562Y-51740833D01*
X4641088Y-51750424D01*
X4641407Y-51750753D01*
X4646751Y-51758012D01*
X4657360Y-51773978D01*
X4672650Y-51797702D01*
X4692038Y-51828236D01*
X4714940Y-51864629D01*
X4740772Y-51905935D01*
X4768950Y-51951204D01*
X4798891Y-51999487D01*
X4830011Y-52049836D01*
X4861726Y-52101301D01*
X4893452Y-52152934D01*
X4924606Y-52203787D01*
X4954604Y-52252910D01*
X4982862Y-52299355D01*
X5008797Y-52342173D01*
X5031824Y-52380415D01*
X5051361Y-52413133D01*
X5066823Y-52439377D01*
X5077626Y-52458199D01*
X5083187Y-52468650D01*
X5083417Y-52469163D01*
X5089506Y-52492580D01*
X5091219Y-52521127D01*
X5088688Y-52549839D01*
X5082043Y-52573747D01*
X5080596Y-52576814D01*
X5076565Y-52584023D01*
X5067162Y-52600431D01*
X5052709Y-52625485D01*
X5033525Y-52658635D01*
X5009932Y-52699329D01*
X4982249Y-52747016D01*
X4950797Y-52801145D01*
X4915896Y-52861165D01*
X4877867Y-52926524D01*
X4837031Y-52996672D01*
X4793707Y-53071057D01*
X4748217Y-53149127D01*
X4700880Y-53230333D01*
X4652017Y-53314121D01*
X4640214Y-53334356D01*
X4210525Y-54070956D01*
X4429363Y-54073778D01*
X4484958Y-54074517D01*
X4530424Y-54075207D01*
X4566920Y-54075921D01*
X4595605Y-54076730D01*
X4617638Y-54077707D01*
X4634179Y-54078923D01*
X4646386Y-54080451D01*
X4655419Y-54082363D01*
X4662437Y-54084731D01*
X4668598Y-54087626D01*
X4670778Y-54088783D01*
X4688800Y-54100415D01*
X4705127Y-54113954D01*
X4708117Y-54117005D01*
X4713392Y-54124425D01*
X4723918Y-54140747D01*
X4739201Y-54165157D01*
X4758744Y-54196841D01*
X4782053Y-54234986D01*
X4808630Y-54278777D01*
X4837981Y-54327401D01*
X4869609Y-54380044D01*
X4903019Y-54435892D01*
X4931073Y-54482965D01*
X5139267Y-54832885D01*
X5139267Y-54875254D01*
X5138563Y-54899732D01*
X5135642Y-54918105D01*
X5129297Y-54935513D01*
X5121317Y-54951489D01*
X5079001Y-55031258D01*
X5034347Y-55115307D01*
X4987626Y-55203135D01*
X4939105Y-55294241D01*
X4889056Y-55388121D01*
X4837746Y-55484275D01*
X4785446Y-55582202D01*
X4732426Y-55681399D01*
X4678954Y-55781366D01*
X4625300Y-55881600D01*
X4571734Y-55981599D01*
X4518525Y-56080863D01*
X4465943Y-56178890D01*
X4414257Y-56275178D01*
X4363737Y-56369225D01*
X4314651Y-56460530D01*
X4267271Y-56548592D01*
X4221864Y-56632908D01*
X4178701Y-56712977D01*
X4138051Y-56788298D01*
X4100183Y-56858369D01*
X4065367Y-56922688D01*
X4033873Y-56980754D01*
X4005970Y-57032065D01*
X3981928Y-57076120D01*
X3962015Y-57112416D01*
X3946502Y-57140453D01*
X3935658Y-57159729D01*
X3929752Y-57169742D01*
X3928845Y-57171029D01*
X3922535Y-57177913D01*
X3917022Y-57183919D01*
X3911537Y-57189109D01*
X3905308Y-57193543D01*
X3897564Y-57197284D01*
X3887535Y-57200393D01*
X3874449Y-57202930D01*
X3857537Y-57204956D01*
X3836027Y-57206534D01*
X3809148Y-57207723D01*
X3776130Y-57208586D01*
X3736202Y-57209183D01*
X3688593Y-57209576D01*
X3632532Y-57209826D01*
X3567248Y-57209994D01*
X3491972Y-57210141D01*
X3434645Y-57210261D01*
X3364828Y-57210363D01*
X3298066Y-57210353D01*
X3235250Y-57210238D01*
X3177273Y-57210024D01*
X3125028Y-57209719D01*
X3079408Y-57209327D01*
X3041306Y-57208857D01*
X3011613Y-57208315D01*
X2991223Y-57207707D01*
X2981028Y-57207041D01*
X2980231Y-57206883D01*
X2946111Y-57191676D01*
X2918192Y-57169880D01*
X2917209Y-57168848D01*
X2912102Y-57161423D01*
X2902005Y-57144909D01*
X2887375Y-57120107D01*
X2868668Y-57087818D01*
X2846340Y-57048840D01*
X2820847Y-57003976D01*
X2792646Y-56954024D01*
X2762192Y-56899785D01*
X2729943Y-56842059D01*
X2696353Y-56781647D01*
X2692470Y-56774644D01*
X2542728Y-56504541D01*
X2867378Y-56504541D01*
X2870033Y-56510093D01*
X2877622Y-56524472D01*
X2889581Y-56546646D01*
X2905346Y-56575581D01*
X2924354Y-56610246D01*
X2946040Y-56649606D01*
X2969840Y-56692630D01*
X2984488Y-56719030D01*
X3101598Y-56929867D01*
X3600240Y-56929867D01*
X3495036Y-56715378D01*
X3389833Y-56500889D01*
X3128606Y-56500889D01*
X3075515Y-56500965D01*
X3026044Y-56501184D01*
X2981303Y-56501529D01*
X2942403Y-56501986D01*
X2910455Y-56502538D01*
X2886570Y-56503171D01*
X2871858Y-56503868D01*
X2867378Y-56504541D01*
X2542728Y-56504541D01*
X2482812Y-56396467D01*
X2484741Y-56354133D01*
D12*
X24511600Y-60301000D02*
X24511600Y-59301000D01*
X25291600Y-42061000D02*
X24511600Y-42061000D01*
X25291600Y-60301000D02*
X24511600Y-60301000D01*
X50256600Y-60301000D02*
X43836600Y-60301000D01*
X24511600Y-42061000D02*
X24511600Y-43061000D01*
X43836600Y-42061000D02*
X43836600Y-41681000D01*
X50256600Y-42061000D02*
X43836600Y-42061000D01*
X50256600Y-42061000D02*
X50256600Y-60301000D01*
X38561400Y-62375800D02*
X38561400Y-65995800D01*
X38561400Y-65995800D02*
X32441400Y-65995800D01*
X32441400Y-65995800D02*
X32441400Y-62375800D01*
X32441400Y-62375800D02*
X38561400Y-62375800D01*
X28700000Y-15786980D02*
X28700000Y-15505820D01*
X29720000Y-15786980D02*
X29720000Y-15505820D01*
X30930000Y-18983800D02*
X43530000Y-18983800D01*
X43530000Y-13883800D02*
X30930000Y-13883800D01*
X43530000Y-18983800D02*
X43530000Y-13883800D01*
X7335800Y-49903600D02*
X6735800Y-49903600D01*
X6735800Y-47103600D02*
X7335800Y-47103600D01*
X6035800Y-49203600D02*
X6035800Y-47803600D01*
X8035800Y-47803600D02*
X8035800Y-49203600D01*
X6735800Y-47103600D02*
G75*
G03*
X6035800Y-47803600I-1J-699999D01*
G01*
X6035800Y-49203600D02*
G75*
G03*
X6735800Y-49903600I700000J0D01*
G01*
X8035800Y-47803600D02*
G75*
G03*
X7335800Y-47103600I-699999J1D01*
G01*
X7335800Y-49903600D02*
G75*
G03*
X8035800Y-49203600I0J700000D01*
G01*
X28070100Y-65248058D02*
X28070100Y-64773542D01*
X29115100Y-65248058D02*
X29115100Y-64773542D01*
X29528380Y-31345600D02*
X29247220Y-31345600D01*
X29528380Y-30325600D02*
X29247220Y-30325600D01*
X43940000Y-15505820D02*
X43940000Y-15786980D01*
X44960000Y-15505820D02*
X44960000Y-15786980D01*
X38561400Y-36264600D02*
X38561400Y-39884600D01*
X38561400Y-39884600D02*
X32441400Y-39884600D01*
X32441400Y-36264600D02*
X38561400Y-36264600D01*
X32441400Y-39884600D02*
X32441400Y-36264600D01*
X42149500Y-28337742D02*
X42149500Y-28812258D01*
X43194500Y-28337742D02*
X43194500Y-28812258D01*
X27900100Y-23638742D02*
X27900100Y-24113258D01*
X28945100Y-23638742D02*
X28945100Y-24113258D01*
X41670500Y-28337742D02*
X41670500Y-28812258D01*
X40625500Y-28337742D02*
X40625500Y-28812258D01*
X38593500Y-10583142D02*
X38593500Y-11057658D01*
X39638500Y-10583142D02*
X39638500Y-11057658D01*
X45700000Y-23075600D02*
X45700000Y-19625600D01*
X35580000Y-23075600D02*
X35580000Y-25025600D01*
X35580000Y-23075600D02*
X35580000Y-21125600D01*
X45700000Y-23075600D02*
X45700000Y-25025600D01*
X41717400Y-32636700D02*
X41717400Y-33286700D01*
X38597400Y-32636700D02*
X38597400Y-33286700D01*
X38597400Y-32636700D02*
X38597400Y-31986700D01*
X41717400Y-32636700D02*
X41717400Y-30961700D01*
D14*
X6046200Y-10289200D02*
X5046200Y-10289200D01*
X5046200Y-45689200D02*
X5046200Y-10289200D01*
X6046200Y-45689200D02*
X5046200Y-45689200D01*
X23046200Y-10289200D02*
X22046200Y-10289200D01*
X23046200Y-45689200D02*
X23046200Y-10289200D01*
X22046200Y-45689200D02*
X23046200Y-45689200D01*
D12*
X16017800Y-3150200D02*
X7957800Y-3150200D01*
X16017800Y-7670200D02*
X16017800Y-3150200D01*
X7957800Y-7670200D02*
X16017800Y-7670200D01*
X41836900Y-39175458D02*
X41836900Y-38700942D01*
X42881900Y-39175458D02*
X42881900Y-38700942D01*
X27827800Y-27889200D02*
X27827800Y-27089200D01*
X27827800Y-27889200D02*
X27827800Y-28689200D01*
X30947800Y-27889200D02*
X30947800Y-26089200D01*
X30947800Y-27889200D02*
X30947800Y-28689200D01*
X29843000Y-24016580D02*
X29843000Y-23735420D01*
X30863000Y-24016580D02*
X30863000Y-23735420D01*
D15*
X21031200Y-1046600D02*
X20631200Y-1046600D01*
X24331200Y-4246600D02*
X24331200Y-4846600D01*
X21031200Y-1046600D02*
X21431200Y-1046600D01*
X17731200Y-4246600D02*
X17731200Y-4846600D01*
D12*
X27397200Y-21147000D02*
X27397200Y-19747000D01*
X28097200Y-19047000D02*
X28697200Y-19047000D01*
X29397200Y-19747000D02*
X29397200Y-21147000D01*
X28697200Y-21847000D02*
X28097200Y-21847000D01*
X29397200Y-19747000D02*
G75*
G03*
X28697200Y-19047000I-699999J1D01*
G01*
X28097200Y-19047000D02*
G75*
G03*
X27397200Y-19747000I-1J-699999D01*
G01*
X28697200Y-21847000D02*
G75*
G03*
X29397200Y-21147000I0J700000D01*
G01*
X27397200Y-21147000D02*
G75*
G03*
X28097200Y-21847000I700000J0D01*
G01*
X7550000Y-57140800D02*
X7550000Y-59800800D01*
X17830000Y-57140800D02*
X17830000Y-58470800D01*
X16500000Y-57140800D02*
X17830000Y-57140800D01*
X15230000Y-59800800D02*
X7550000Y-59800800D01*
X15230000Y-57140800D02*
X15230000Y-59800800D01*
X15230000Y-57140800D02*
X7550000Y-57140800D01*
X35570900Y-10583142D02*
X35570900Y-11057658D01*
X36615900Y-10583142D02*
X36615900Y-11057658D01*
X29528380Y-32869600D02*
X29247220Y-32869600D01*
X29528380Y-31849600D02*
X29247220Y-31849600D01*
%LPC*%
D16*
X44587200Y-31701500D03*
X42687200Y-31701500D03*
X43637200Y-33576500D03*
D17*
X3500000Y-3500000D03*
D18*
X3500000Y-3500000D03*
D19*
X46837600Y-22313600D03*
X46837600Y-23863600D03*
D20*
X42646600Y-42681000D03*
X41376600Y-42681000D03*
X40106600Y-42681000D03*
X38836600Y-42681000D03*
X37566600Y-42681000D03*
X36296600Y-42681000D03*
X35026600Y-42681000D03*
X33756600Y-42681000D03*
X32486600Y-42681000D03*
X31216600Y-42681000D03*
X29946600Y-42681000D03*
X28676600Y-42681000D03*
X27406600Y-42681000D03*
X26136600Y-42681000D03*
D21*
X25136600Y-45466000D03*
X25136600Y-46736000D03*
X25136600Y-48006000D03*
X25136600Y-49276000D03*
X25136600Y-50546000D03*
X25136600Y-51816000D03*
X25136600Y-53086000D03*
X25136600Y-54356000D03*
X25136600Y-55626000D03*
X25136600Y-56896000D03*
D20*
X26136600Y-59681000D03*
X27406600Y-59681000D03*
X28676600Y-59681000D03*
X29946600Y-59681000D03*
X31216600Y-59681000D03*
X32486600Y-59681000D03*
X33756600Y-59681000D03*
X35026600Y-59681000D03*
X36296600Y-59681000D03*
X37566600Y-59681000D03*
X38836600Y-59681000D03*
X40106600Y-59681000D03*
X41376600Y-59681000D03*
X42646600Y-59681000D03*
D22*
X35146600Y-50181000D03*
D23*
X30911400Y-64185800D03*
X40091400Y-64185800D03*
D24*
X29210000Y-16421400D03*
X29210000Y-14871400D03*
D25*
X41080000Y-16433800D03*
X32580000Y-16433800D03*
D26*
X7035800Y-47853600D03*
D27*
X7035800Y-49153600D03*
D28*
X28592600Y-65835800D03*
X28592600Y-64185800D03*
D29*
X30162800Y-30835600D03*
X28612800Y-30835600D03*
D19*
X44450000Y-14871400D03*
X44450000Y-16421400D03*
D23*
X40091400Y-38074600D03*
X30911400Y-38074600D03*
D30*
X42672000Y-27750000D03*
X42672000Y-29400000D03*
X28422600Y-23051000D03*
X28422600Y-24701000D03*
X41148000Y-27750000D03*
X41148000Y-29400000D03*
X39116000Y-9995400D03*
X39116000Y-11645400D03*
D31*
X45085000Y-20600600D03*
X43815000Y-20600600D03*
X42545000Y-20600600D03*
X41275000Y-20600600D03*
X40005000Y-20600600D03*
X38735000Y-20600600D03*
X37465000Y-20600600D03*
X36195000Y-20600600D03*
X36195000Y-25550600D03*
X37465000Y-25550600D03*
X38735000Y-25550600D03*
X40005000Y-25550600D03*
X41275000Y-25550600D03*
X42545000Y-25550600D03*
X43815000Y-25550600D03*
X45085000Y-25550600D03*
D32*
X51500000Y-64000000D03*
D16*
X41107400Y-31699200D03*
X39207400Y-31699200D03*
X40157400Y-33574200D03*
D33*
X21046200Y-10389200D03*
X19046200Y-10389200D03*
X17046200Y-10389200D03*
X15046200Y-10389200D03*
X13046200Y-10389200D03*
X11046200Y-10389200D03*
X9046200Y-10389200D03*
X7046200Y-10389200D03*
X7046200Y-45389200D03*
X9046200Y-45389200D03*
X11046200Y-45389200D03*
X13046200Y-45389200D03*
X15046200Y-45389200D03*
X17046200Y-45389200D03*
X19046200Y-45389200D03*
X21046200Y-45389200D03*
D34*
X10396200Y-21956700D03*
D35*
X14720300Y-5410200D03*
X8495300Y-5410200D03*
D17*
X51500000Y-3500000D03*
D18*
X51500000Y-3500000D03*
D28*
X42359400Y-39763200D03*
X42359400Y-38113200D03*
D36*
X30337800Y-26751700D03*
X29387800Y-26751700D03*
X28437800Y-26751700D03*
X28437800Y-29026700D03*
X30337800Y-29026700D03*
D24*
X30353000Y-24651000D03*
X30353000Y-23101000D03*
D18*
X3500000Y-64000000D03*
D17*
X3500000Y-64000000D03*
D37*
X21031200Y-4546600D03*
D38*
X18491200Y-2006600D03*
X23571200Y-7086600D03*
X23571200Y-2006600D03*
X18491200Y-7086600D03*
D26*
X28397200Y-19797000D03*
D27*
X28397200Y-21097000D03*
D39*
X16500000Y-58470800D03*
D40*
X13960000Y-58470800D03*
X11420000Y-58470800D03*
X8880000Y-58470800D03*
D30*
X36093400Y-9995400D03*
X36093400Y-11645400D03*
D41*
X40736000Y-5271800D03*
X34956000Y-5271800D03*
D42*
X41071000Y-7216800D03*
X40296000Y-7216800D03*
D43*
X39596000Y-7216800D03*
X39096000Y-7216800D03*
X38596000Y-7216800D03*
X38096000Y-7216800D03*
X37596000Y-7216800D03*
X37096000Y-7216800D03*
X36596000Y-7216800D03*
X36096000Y-7216800D03*
D42*
X35396000Y-7216800D03*
X34621000Y-7216800D03*
D29*
X30162800Y-32359600D03*
X28612800Y-32359600D03*
M02*
